<?xml version="1.0" encoding="UTF-8"?>
<svg id="Ebene_1" data-name="Ebene 1" xmlns="http://www.w3.org/2000/svg" version="1.1" viewBox="0 0 151.7 309.5">
  <defs>
    <style>
      .cls-1 {
        fill: #8da8f0;
      }

      .cls-1, .cls-2, .cls-3, .cls-4, .cls-5, .cls-6, .cls-7, .cls-8, .cls-9 {
        stroke-width: 0px;
      }

      .cls-1, .cls-3, .cls-4, .cls-5, .cls-6, .cls-8 {
        opacity: .3;
      }

      .cls-10 {
        stroke: #b354f7;
      }

      .cls-10, .cls-11, .cls-12, .cls-13, .cls-14, .cls-15, .cls-16, .cls-17 {
        fill: none;
      }

      .cls-11 {
        stroke: #acc5f6;
      }

      .cls-18 {
        isolation: isolate;
      }

      .cls-12 {
        stroke: #cae3fc;
      }

      .cls-2 {
        fill: #cae3fc;
        opacity: .5;
      }

      .cls-3 {
        fill: #9668fa;
      }

      .cls-4 {
        fill: #acc5f6;
      }

      .cls-5 {
        fill: #8b89f3;
      }

      .cls-6 {
        fill: #b354f7;
      }

      .cls-13 {
        stroke: #8b89f3;
      }

      .cls-7 {
        fill: #fff;
      }

      .cls-14 {
        stroke: #9668fa;
      }

      .cls-15 {
        stroke: #8da8f0;
      }

      .cls-8 {
        fill: #9f53f9;
      }

      .cls-16 {
        stroke: #9f53f9;
      }

      .cls-17 {
        stroke: #c454f1;
        stroke-miterlimit: 10;
      }

      .cls-9 {
        fill: #c454f1;
        opacity: .3;
      }
    </style>
  </defs>
  <rect class="cls-2" x="17" y="44.7" width="20" height="19"/>
  <rect class="cls-12" x="17.5" y="45.2" width="19" height="18"/>
  <rect class="cls-3" x="17" y="176.7" width="20" height="19"/>
  <rect class="cls-14" x="17.5" y="177.2" width="19" height="18"/>
  <rect class="cls-4" x="17" y="77.7" width="20" height="19"/>
  <rect class="cls-11" x="17.5" y="78.2" width="19" height="18"/>
  <rect class="cls-8" x="17" y="209.7" width="20" height="19"/>
  <rect class="cls-16" x="17.5" y="210.2" width="19" height="18"/>
  <rect class="cls-1" x="17" y="110.7" width="20" height="19"/>
  <rect class="cls-15" x="17.5" y="111.2" width="19" height="18"/>
  <rect class="cls-6" x="17" y="242.7" width="20" height="19"/>
  <rect class="cls-10" x="17.5" y="243.2" width="19" height="18"/>
  <rect class="cls-5" x="17" y="143.7" width="20" height="19"/>
  <rect class="cls-13" x="17.5" y="144.2" width="19" height="18"/>
  <rect class="cls-9" x="17" y="275.7" width="20" height="19"/>
  <rect class="cls-17" x="17.5" y="276.2" width="19" height="18"/>
  <g id="_0_m_bis_0.5_m" data-name=" 0 m bis 0.5 m" class="cls-18">
    <g class="cls-18">
      <path class="cls-7" d="M52.5,59.9c-1.1,0-2-.3-2.6-1-.6-.7-1-1.7-1-3v-2.2c0-1.3.3-2.3,1-3,.6-.7,1.5-1,2.6-1s2,.3,2.6,1c.6.7,1,1.7,1,3v2.2c0,1.3-.3,2.3-1,3-.6.7-1.5,1-2.6,1ZM52.5,59.2c.9,0,1.6-.3,2-.8.5-.6.7-1.3.7-2.3v-2.4c0-1-.2-1.7-.7-2.3-.5-.6-1.1-.8-2-.8s-1.6.3-2,.8c-.5.6-.7,1.3-.7,2.3v2.4c0,1,.2,1.7.7,2.3.5.6,1.1.8,2,.8Z"/>
      <path class="cls-7" d="M61.8,59.7v-6.8h.8v.9h.2c.1-.3.4-.5.7-.7.3-.2.7-.3,1.3-.3s1,.1,1.3.4c.3.3.6.6.7.9h.2c.2-.4.4-.7.7-.9s.8-.4,1.4-.4.9,0,1.2.3c.3.2.6.5.8.8.2.3.3.7.3,1.2v4.7h-.8v-4.6c0-.5-.1-.9-.4-1.2s-.7-.4-1.2-.4-1,.2-1.4.5c-.4.3-.5.9-.5,1.5v4.1h-.8v-4.6c0-.5-.1-.9-.4-1.2s-.7-.4-1.2-.4-1,.2-1.4.5c-.4.3-.5.9-.5,1.5v4.1h-.8Z"/>
      <path class="cls-7" d="M81.2,59.9c-.7,0-1.3-.1-1.7-.4-.4-.3-.7-.6-.9-1h-.2v1.2h-.8v-9.8h.8v4.2h.2c.1-.2.3-.5.5-.7.2-.2.5-.4.9-.5.4-.1.8-.2,1.3-.2s1.2.1,1.7.4c.5.3.9.7,1.2,1.2.3.5.4,1.2.4,1.9v.2c0,.7-.1,1.3-.4,1.9s-.7.9-1.2,1.2c-.5.3-1,.4-1.7.4ZM81,59.2c.8,0,1.4-.2,1.9-.7.5-.5.7-1.2.7-2h0c0-1-.2-1.7-.7-2.2s-1.1-.7-1.9-.7-1.4.2-1.9.7-.7,1.2-.7,2h0c0,1,.2,1.7.7,2.2.5.5,1.1.7,1.9.7Z"/>
      <path class="cls-7" d="M87,51.8c-.2,0-.4,0-.5-.2-.1-.1-.2-.3-.2-.5s0-.4.2-.5c.1-.1.3-.2.5-.2s.4,0,.5.2c.1.1.2.3.2.5s0,.4-.2.5c-.1.1-.3.2-.5.2ZM86.6,59.7v-6.8h.8v6.8h-.8Z"/>
      <path class="cls-7" d="M92.6,59.9c-.8,0-1.5-.2-2.1-.6-.6-.4-.9-1-1.1-1.9l.8-.2c0,.5.2.9.5,1.2.2.3.5.5.8.6.3.1.7.2,1.1.2.6,0,1-.1,1.4-.3.3-.2.5-.5.5-.9s-.2-.7-.5-.9c-.3-.2-.7-.3-1.3-.4h-.6c-.4-.2-.8-.3-1.2-.5s-.6-.4-.8-.6c-.2-.3-.3-.6-.3-1,0-.6.2-1,.7-1.4s1.1-.5,1.8-.5,1.4.2,1.9.5c.5.3.8.9.9,1.5l-.8.2c0-.5-.3-.9-.7-1.1-.4-.2-.8-.3-1.3-.3s-.9,0-1.2.3c-.3.2-.5.5-.5.9s.1.6.4.8c.3.2.7.3,1.1.4h.6c.5.2.9.3,1.3.4.4.1.7.3.9.6.2.3.3.6.3,1,0,.6-.2,1.1-.7,1.5-.5.4-1.1.5-2,.5Z"/>
      <path class="cls-7" d="M104.1,59.9c-1.1,0-2-.3-2.6-1-.6-.7-1-1.7-1-3v-2.2c0-1.3.3-2.3,1-3,.6-.7,1.5-1,2.6-1s2,.3,2.6,1c.6.7,1,1.7,1,3v2.2c0,1.3-.3,2.3-1,3-.6.7-1.5,1-2.6,1ZM104.1,59.2c.9,0,1.6-.3,2-.8.5-.6.7-1.3.7-2.3v-2.4c0-1-.2-1.7-.7-2.3-.5-.6-1.1-.8-2-.8s-1.6.3-2,.8c-.5.6-.7,1.3-.7,2.3v2.4c0,1,.2,1.7.7,2.3.5.6,1.1.8,2,.8Z"/>
      <path class="cls-7" d="M110.2,59.9c-.2,0-.4,0-.6-.2-.1-.1-.2-.3-.2-.6s0-.4.2-.6.3-.2.6-.2.4,0,.6.2.2.3.2.6,0,.4-.2.6c-.1.1-.3.2-.6.2Z"/>
      <path class="cls-7" d="M116.1,59.9c-.7,0-1.3-.1-1.8-.4-.5-.3-.9-.7-1.2-1.1-.3-.5-.4-1.1-.4-1.7v-.2h.9c0,1,.2,1.6.7,2,.5.4,1.1.6,1.8.6s1.4-.2,1.9-.7c.5-.5.7-1.1.7-1.9h0c0-.9-.2-1.5-.7-2-.4-.5-1-.7-1.7-.7s-.8,0-1,.2c-.3.1-.5.3-.6.5-.2.2-.3.4-.4.6h-1.3v-5.2h6.3v.8h-5.5v3.8h.2c.1-.2.3-.4.4-.6.2-.2.5-.4.8-.5s.7-.2,1.2-.2,1.1.1,1.5.4c.5.3.8.6,1.1,1.1s.4,1.1.4,1.7h0c0,.8-.1,1.4-.4,1.9s-.7.9-1.2,1.2-1.1.4-1.8.4Z"/>
      <path class="cls-7" d="M125.1,59.7v-6.8h.8v.9h.2c.1-.3.4-.5.7-.7.3-.2.7-.3,1.3-.3s1,.1,1.3.4.6.6.7.9h.2c.2-.4.4-.7.7-.9s.8-.4,1.4-.4.9,0,1.2.3c.3.2.6.5.8.8.2.3.3.7.3,1.2v4.7h-.8v-4.6c0-.5-.1-.9-.4-1.2s-.7-.4-1.2-.4-1,.2-1.4.5c-.4.3-.5.9-.5,1.5v4.1h-.8v-4.6c0-.5-.1-.9-.4-1.2s-.7-.4-1.2-.4-1,.2-1.4.5-.5.9-.5,1.5v4.1h-.8Z"/>
    </g>
  </g>
  <g id="_1_m_bis_1.5_m" data-name=" 1 m bis 1.5 m" class="cls-18">
    <g class="cls-18">
      <path class="cls-7" d="M51.7,125.7v-9.3h-.2l-2.1,3.6h-1l2.5-4.2h1.7v9.8h-.9Z"/>
      <path class="cls-7" d="M58.6,125.7v-6.8h.8v.9h.2c.1-.3.4-.5.7-.7.3-.2.7-.3,1.3-.3s1,.1,1.3.4c.3.3.6.6.7.9h.2c.2-.4.4-.7.7-.9s.8-.4,1.4-.4.9,0,1.2.3c.3.2.6.5.8.8.2.3.3.7.3,1.2v4.7h-.8v-4.6c0-.5-.1-.9-.4-1.2s-.7-.4-1.2-.4-1,.2-1.4.5c-.4.3-.5.9-.5,1.5v4.1h-.8v-4.6c0-.5-.1-.9-.4-1.2s-.7-.4-1.2-.4-1,.2-1.4.5c-.4.3-.5.9-.5,1.5v4.1h-.8Z"/>
      <path class="cls-7" d="M77.9,125.9c-.7,0-1.3-.1-1.7-.4s-.7-.6-.9-1h-.2v1.2h-.8v-9.8h.8v4.2h.2c.1-.2.3-.5.5-.7.2-.2.5-.4.9-.5.3-.1.8-.2,1.3-.2s1.2.1,1.7.4c.5.3.9.7,1.2,1.2.3.5.4,1.2.4,1.9v.2c0,.7-.1,1.3-.4,1.9s-.7.9-1.2,1.2c-.5.3-1,.4-1.7.4ZM77.7,125.2c.8,0,1.4-.2,1.9-.7.5-.5.7-1.2.7-2h0c0-1-.2-1.7-.7-2.2-.5-.5-1.1-.7-1.9-.7s-1.4.2-1.9.7-.7,1.2-.7,2h0c0,1,.2,1.7.7,2.2.5.5,1.1.7,1.9.7Z"/>
      <path class="cls-7" d="M83.7,117.8c-.2,0-.4,0-.5-.2s-.2-.3-.2-.5,0-.4.2-.5c.1-.1.3-.2.5-.2s.4,0,.5.2.2.3.2.5,0,.4-.2.5c-.1.1-.3.2-.5.2ZM83.3,125.7v-6.8h.8v6.8h-.8Z"/>
      <path class="cls-7" d="M89.3,125.9c-.8,0-1.5-.2-2.1-.6-.6-.4-.9-1-1.1-1.9l.8-.2c0,.5.2.9.5,1.2.2.3.5.5.8.6s.7.2,1.1.2c.6,0,1-.1,1.4-.3s.5-.5.5-.9-.2-.7-.5-.9c-.3-.2-.7-.3-1.3-.4h-.6c-.4-.2-.8-.3-1.2-.5-.3-.2-.6-.4-.8-.6-.2-.3-.3-.6-.3-1,0-.6.2-1,.7-1.4.5-.3,1.1-.5,1.8-.5s1.4.2,1.9.5c.5.3.8.9.9,1.5l-.8.2c0-.5-.3-.9-.7-1.1-.3-.2-.8-.3-1.3-.3s-.9,0-1.2.3c-.3.2-.5.5-.5.9s.1.6.4.8.7.3,1.1.4h.6c.5.2.9.3,1.3.4s.7.3.9.6c.2.3.3.6.3,1,0,.6-.2,1.1-.7,1.5-.5.4-1.1.5-2,.5Z"/>
      <path class="cls-7" d="M100,125.7v-9.3h-.2l-2.1,3.6h-1l2.5-4.2h1.7v9.8h-.9Z"/>
      <path class="cls-7" d="M103.7,125.9c-.2,0-.4,0-.6-.2-.1-.1-.2-.3-.2-.6s0-.4.2-.6.3-.2.6-.2.4,0,.6.2.2.3.2.6,0,.4-.2.6c-.1.1-.3.2-.6.2Z"/>
      <path class="cls-7" d="M109.5,125.9c-.7,0-1.3-.1-1.8-.4-.5-.3-.9-.7-1.2-1.1-.3-.5-.4-1.1-.4-1.7v-.2h.9c0,1,.2,1.6.7,2,.5.4,1.1.6,1.8.6s1.4-.2,1.9-.7c.5-.5.7-1.1.7-1.9h0c0-.9-.2-1.5-.7-2-.4-.5-1-.7-1.7-.7s-.8,0-1,.2c-.3.1-.5.3-.6.5-.2.2-.3.4-.4.6h-1.3v-5.2h6.3v.8h-5.5v3.8h.2c.1-.2.3-.4.4-.6.2-.2.5-.4.8-.5s.7-.2,1.2-.2,1.1.1,1.5.4c.5.3.8.6,1.1,1.1s.4,1.1.4,1.7h0c0,.8-.1,1.4-.4,1.9s-.7.9-1.2,1.2-1.1.4-1.8.4Z"/>
      <path class="cls-7" d="M118.5,125.7v-6.8h.8v.9h.2c.1-.3.4-.5.7-.7.3-.2.7-.3,1.3-.3s1,.1,1.3.4.6.6.7.9h.2c.2-.4.4-.7.7-.9s.8-.4,1.4-.4.9,0,1.2.3c.3.2.6.5.8.8.2.3.3.7.3,1.2v4.7h-.8v-4.6c0-.5-.1-.9-.4-1.2s-.7-.4-1.2-.4-1,.2-1.4.5c-.4.3-.5.9-.5,1.5v4.1h-.8v-4.6c0-.5-.1-.9-.4-1.2s-.7-.4-1.2-.4-1,.2-1.4.5-.5.9-.5,1.5v4.1h-.8Z"/>
    </g>
  </g>
  <g id="_2_m_bis_2.5_m" data-name=" 2 m bis 2.5 m" class="cls-18">
    <g class="cls-18">
      <path class="cls-7" d="M49.3,191.7v-1c0-.7.1-1.3.4-1.7s.6-.7,1.1-1c.5-.2,1-.5,1.6-.6l.7-.2c.5-.1.9-.3,1.2-.5.3-.2.6-.5.8-.8.2-.3.3-.7.3-1.2h0c0-.7-.2-1.3-.7-1.7-.5-.4-1.1-.6-1.8-.6s-1.4.2-1.9.6c-.5.4-.7,1-.7,1.9v.2h-.8v-.2c0-.7.1-1.3.4-1.8.3-.5.7-.9,1.2-1.1.5-.3,1.1-.4,1.8-.4s1.3.1,1.8.4.9.6,1.2,1c.3.4.4,1,.4,1.5h0c0,.8-.1,1.3-.4,1.7-.2.4-.6.7-1,1-.4.3-1,.5-1.6.7l-.7.2c-.5.2-.9.3-1.3.5-.3.2-.6.4-.8.7-.2.3-.3.7-.3,1.2v.3h6v.8h-6.8Z"/>
      <path class="cls-7" d="M61.8,191.7v-6.8h.8v.9h.2c.1-.3.4-.5.7-.7.3-.2.7-.3,1.3-.3s1,.1,1.3.4c.3.3.6.6.7.9h.2c.2-.4.4-.7.7-.9s.8-.4,1.4-.4.9,0,1.2.3c.3.2.6.5.8.8.2.3.3.7.3,1.2v4.7h-.8v-4.6c0-.5-.1-.9-.4-1.2s-.7-.4-1.2-.4-1,.2-1.4.5c-.4.3-.5.9-.5,1.5v4.1h-.8v-4.6c0-.5-.1-.9-.4-1.2s-.7-.4-1.2-.4-1,.2-1.4.5c-.4.3-.5.9-.5,1.5v4.1h-.8Z"/>
      <path class="cls-7" d="M81.1,191.9c-.7,0-1.3-.1-1.7-.4s-.7-.6-.9-1h-.2v1.2h-.8v-9.8h.8v4.2h.2c.1-.2.3-.5.5-.7.2-.2.5-.4.9-.5.3-.1.8-.2,1.3-.2s1.2.1,1.7.4c.5.3.9.7,1.2,1.2.3.5.4,1.2.4,1.9v.2c0,.7-.1,1.3-.4,1.9s-.7.9-1.2,1.2c-.5.3-1,.4-1.7.4ZM80.9,191.2c.8,0,1.4-.2,1.9-.7.5-.5.7-1.2.7-2h0c0-1-.2-1.7-.7-2.2-.5-.5-1.1-.7-1.9-.7s-1.4.2-1.9.7-.7,1.2-.7,2h0c0,1,.2,1.7.7,2.2.5.5,1.1.7,1.9.7Z"/>
      <path class="cls-7" d="M87,183.8c-.2,0-.4,0-.5-.2s-.2-.3-.2-.5,0-.4.2-.5c.1-.1.3-.2.5-.2s.4,0,.5.2.2.3.2.5,0,.4-.2.5c-.1.1-.3.2-.5.2ZM86.5,191.7v-6.8h.8v6.8h-.8Z"/>
      <path class="cls-7" d="M92.5,191.9c-.8,0-1.5-.2-2.1-.6-.6-.4-.9-1-1.1-1.9l.8-.2c0,.5.2.9.5,1.2.2.3.5.5.8.6s.7.2,1.1.2c.6,0,1-.1,1.4-.3s.5-.5.5-.9-.2-.7-.5-.9c-.3-.2-.7-.3-1.3-.4h-.6c-.4-.2-.8-.3-1.2-.5-.3-.2-.6-.4-.8-.6-.2-.3-.3-.6-.3-1,0-.6.2-1,.7-1.4.5-.3,1.1-.5,1.8-.5s1.4.2,1.9.5c.5.3.8.9.9,1.5l-.8.2c0-.5-.3-.9-.7-1.1-.3-.2-.8-.3-1.3-.3s-.9,0-1.2.3c-.3.2-.5.5-.5.9s.1.6.4.8.7.3,1.1.4h.6c.5.2.9.3,1.3.4s.7.3.9.6c.2.3.3.6.3,1,0,.6-.2,1.1-.7,1.5-.5.4-1.1.5-2,.5Z"/>
      <path class="cls-7" d="M100.4,191.7v-1c0-.7.1-1.3.4-1.7s.6-.7,1.1-1c.5-.2,1-.5,1.6-.6l.7-.2c.5-.1.9-.3,1.2-.5.3-.2.6-.5.8-.8s.3-.7.3-1.2h0c0-.7-.2-1.3-.7-1.7-.5-.4-1.1-.6-1.8-.6s-1.4.2-1.9.6c-.5.4-.7,1-.7,1.9v.2h-.8v-.2c0-.7.1-1.3.4-1.8s.7-.9,1.2-1.1c.5-.3,1.1-.4,1.8-.4s1.3.1,1.8.4c.5.2.9.6,1.2,1s.4,1,.4,1.5h0c0,.8-.1,1.3-.4,1.7-.2.4-.6.7-1,1-.4.3-1,.5-1.6.7l-.7.2c-.5.2-.9.3-1.3.5-.4.2-.6.4-.8.7-.2.3-.3.7-.3,1.2v.3h6v.8h-6.8Z"/>
      <path class="cls-7" d="M109.7,191.9c-.2,0-.4,0-.6-.2-.1-.1-.2-.3-.2-.6s0-.4.2-.6.3-.2.6-.2.4,0,.6.2.2.3.2.6,0,.4-.2.6c-.1.1-.3.2-.6.2Z"/>
      <path class="cls-7" d="M115.6,191.9c-.7,0-1.3-.1-1.8-.4s-.9-.7-1.2-1.1c-.3-.5-.4-1.1-.4-1.7v-.2h.9c0,1,.2,1.6.7,2s1.1.6,1.8.6,1.4-.2,1.9-.7c.5-.5.7-1.1.7-1.9h0c0-.9-.2-1.5-.7-2-.4-.5-1-.7-1.7-.7s-.8,0-1,.2c-.3.1-.5.3-.6.5s-.3.4-.4.6h-1.3v-5.2h6.3v.8h-5.5v3.8h.2c.1-.2.3-.4.4-.6.2-.2.5-.4.8-.5.3-.1.7-.2,1.2-.2s1.1.1,1.5.4c.5.3.8.6,1.1,1.1.3.5.4,1.1.4,1.7h0c0,.8-.1,1.4-.4,1.9s-.7.9-1.2,1.2-1.1.4-1.8.4Z"/>
      <path class="cls-7" d="M124.6,191.7v-6.8h.8v.9h.2c.1-.3.4-.5.7-.7.3-.2.7-.3,1.3-.3s1,.1,1.3.4c.3.3.6.6.7.9h.2c.2-.4.4-.7.7-.9s.8-.4,1.4-.4.9,0,1.2.3c.3.2.6.5.8.8.2.3.3.7.3,1.2v4.7h-.8v-4.6c0-.5-.1-.9-.4-1.2s-.7-.4-1.2-.4-1,.2-1.4.5c-.4.3-.5.9-.5,1.5v4.1h-.8v-4.6c0-.5-.1-.9-.4-1.2s-.7-.4-1.2-.4-1,.2-1.4.5c-.4.3-.5.9-.5,1.5v4.1h-.8Z"/>
    </g>
  </g>
  <g id="_2.5_m_bis_3_m" data-name=" 2.5 m bis 3 m" class="cls-18">
    <g class="cls-18">
      <path class="cls-7" d="M49.3,224.7v-1c0-.7.1-1.3.4-1.7s.6-.7,1.1-1c.5-.2,1-.5,1.6-.6l.7-.2c.5-.1.9-.3,1.2-.5.3-.2.6-.5.8-.8.2-.3.3-.7.3-1.2h0c0-.7-.2-1.3-.7-1.7-.5-.4-1.1-.6-1.8-.6s-1.4.2-1.9.6c-.5.4-.7,1-.7,1.9v.2h-.8v-.2c0-.7.1-1.3.4-1.8s.7-.9,1.2-1.1c.5-.3,1.1-.4,1.8-.4s1.3.1,1.8.4.9.6,1.2,1c.3.4.4,1,.4,1.5h0c0,.8-.1,1.3-.4,1.7-.2.4-.6.7-1,1-.4.3-1,.5-1.6.7l-.7.2c-.5.2-.9.3-1.3.5s-.6.4-.8.7c-.2.3-.3.7-.3,1.2v.3h6v.8h-6.8Z"/>
      <path class="cls-7" d="M58.6,224.9c-.2,0-.4,0-.6-.2-.2-.1-.2-.3-.2-.6s0-.4.2-.6c.1-.1.3-.2.6-.2s.4,0,.6.2.2.3.2.6,0,.4-.2.6c-.1.1-.3.2-.6.2Z"/>
      <path class="cls-7" d="M64.5,224.9c-.7,0-1.3-.1-1.8-.4s-.9-.7-1.2-1.1c-.3-.5-.4-1.1-.4-1.7v-.2h.9c0,1,.2,1.6.7,2,.5.4,1.1.6,1.8.6s1.4-.2,1.9-.7c.5-.5.7-1.1.7-1.9h0c0-.9-.2-1.5-.7-2s-1-.7-1.7-.7-.8,0-1,.2-.5.3-.6.5c-.2.2-.3.4-.4.6h-1.3v-5.2h6.3v.8h-5.5v3.8h.2c.1-.2.3-.4.4-.6.2-.2.5-.4.8-.5.3-.1.7-.2,1.2-.2s1.1.1,1.5.4c.5.3.8.6,1.1,1.1.3.5.4,1.1.4,1.7h0c0,.8-.1,1.4-.4,1.9s-.7.9-1.2,1.2c-.5.3-1.1.4-1.8.4Z"/>
      <path class="cls-7" d="M73.5,224.7v-6.8h.8v.9h.2c.1-.3.4-.5.7-.7.3-.2.7-.3,1.3-.3s1,.1,1.3.4c.3.3.6.6.7.9h.2c.2-.4.4-.7.7-.9s.8-.4,1.4-.4.9,0,1.2.3c.3.2.6.5.8.8.2.3.3.7.3,1.2v4.7h-.8v-4.6c0-.5-.1-.9-.4-1.2-.3-.3-.7-.4-1.2-.4s-1,.2-1.4.5-.5.9-.5,1.5v4.1h-.8v-4.6c0-.5-.1-.9-.4-1.2s-.7-.4-1.2-.4-1,.2-1.4.5-.5.9-.5,1.5v4.1h-.8Z"/>
      <path class="cls-7" d="M92.8,224.9c-.7,0-1.3-.1-1.7-.4-.4-.3-.7-.6-.9-1h-.2v1.2h-.8v-9.8h.8v4.2h.2c.1-.2.3-.5.5-.7s.5-.4.9-.5c.3-.1.8-.2,1.3-.2s1.2.1,1.7.4c.5.3.9.7,1.2,1.2.3.5.4,1.2.4,1.9v.2c0,.7-.1,1.3-.4,1.9s-.7.9-1.2,1.2c-.5.3-1,.4-1.7.4ZM92.6,224.2c.8,0,1.4-.2,1.9-.7.5-.5.7-1.2.7-2h0c0-1-.2-1.7-.7-2.2s-1.1-.7-1.9-.7-1.4.2-1.9.7-.7,1.2-.7,2h0c0,1,.2,1.7.7,2.2.5.5,1.1.7,1.9.7Z"/>
      <path class="cls-7" d="M98.6,216.8c-.2,0-.4,0-.5-.2s-.2-.3-.2-.5,0-.4.2-.5c.1-.1.3-.2.5-.2s.4,0,.5.2c.1.1.2.3.2.5s0,.4-.2.5c-.1.1-.3.2-.5.2ZM98.2,224.7v-6.8h.8v6.8h-.8Z"/>
      <path class="cls-7" d="M104.2,224.9c-.8,0-1.5-.2-2.1-.6-.6-.4-.9-1-1.1-1.9l.8-.2c0,.5.2.9.5,1.2.2.3.5.5.8.6.3.1.7.2,1.1.2.6,0,1-.1,1.4-.3.3-.2.5-.5.5-.9s-.2-.7-.5-.9c-.3-.2-.7-.3-1.3-.4h-.6c-.4-.2-.8-.3-1.2-.5s-.6-.4-.8-.6c-.2-.3-.3-.6-.3-1,0-.6.2-1,.7-1.4.5-.3,1.1-.5,1.8-.5s1.4.2,1.9.5c.5.3.8.9.9,1.5l-.8.2c0-.5-.3-.9-.7-1.1-.3-.2-.8-.3-1.3-.3s-.9,0-1.2.3c-.3.2-.5.5-.5.9s.1.6.4.8c.3.2.7.3,1.1.4h.6c.5.2.9.3,1.3.4s.7.3.9.6c.2.3.3.6.3,1,0,.6-.2,1.1-.7,1.5-.5.4-1.1.5-2,.5Z"/>
      <path class="cls-7" d="M115.5,224.9c-.7,0-1.3-.1-1.8-.4-.5-.3-1-.6-1.3-1.1s-.5-1.1-.5-1.8v-.3h.9v.3c0,.8.2,1.4.7,1.9.5.5,1.1.7,1.9.7s1.4-.2,1.9-.6c.4-.4.7-1,.7-1.6h0c0-.6-.1-1-.3-1.3s-.5-.5-.9-.7c-.4-.1-.8-.2-1.3-.2h-1.4v-1.2l4-2.7h0c0-.1-5.9-.1-5.9-.1v-.8h6.7v1.3l-3.9,2.7h0c0,.1.8.1.8.1.6,0,1.1.1,1.6.3s.9.5,1.1.9c.3.4.4.9.4,1.5h0c0,.7-.1,1.3-.4,1.7-.3.5-.7.8-1.2,1.1-.5.3-1.1.4-1.8.4Z"/>
      <path class="cls-7" d="M124.5,224.7v-6.8h.8v.9h.2c.1-.3.4-.5.7-.7.3-.2.7-.3,1.3-.3s1,.1,1.3.4c.3.3.6.6.7.9h.2c.2-.4.4-.7.7-.9s.8-.4,1.4-.4.9,0,1.2.3.6.5.8.8c.2.3.3.7.3,1.2v4.7h-.8v-4.6c0-.5-.1-.9-.4-1.2s-.7-.4-1.2-.4-1,.2-1.4.5c-.4.3-.5.9-.5,1.5v4.1h-.8v-4.6c0-.5-.1-.9-.4-1.2-.3-.3-.7-.4-1.2-.4s-1,.2-1.4.5c-.4.3-.5.9-.5,1.5v4.1h-.8Z"/>
    </g>
  </g>
  <g id="_3_m_bis_3.5_m" data-name=" 3 m bis 3.5 m" class="cls-18">
    <g class="cls-18">
      <path class="cls-7" d="M52.7,257.9c-.7,0-1.3-.1-1.8-.4-.5-.3-1-.6-1.3-1.1-.3-.5-.5-1.1-.5-1.8v-.3h.9v.3c0,.8.2,1.4.7,1.9.5.5,1.1.7,1.9.7s1.4-.2,1.9-.6c.4-.4.7-1,.7-1.6h0c0-.6-.1-1-.3-1.3s-.5-.5-.9-.7c-.4-.1-.8-.2-1.3-.2h-1.4v-1.2l4-2.7h0c0-.1-5.9-.1-5.9-.1v-.8h6.7v1.3l-3.9,2.7h0c0,.1.8.1.8.1.6,0,1.1.1,1.6.3.5.2.9.5,1.1.9.3.4.4.9.4,1.5h0c0,.7-.1,1.3-.4,1.7-.3.5-.7.8-1.2,1.1-.5.3-1.1.4-1.8.4Z"/>
      <path class="cls-7" d="M61.8,257.7v-6.8h.8v.9h.2c.1-.3.4-.5.7-.7.3-.2.7-.3,1.3-.3s1,.1,1.3.4.6.6.7.9h.2c.2-.4.4-.7.7-.9s.8-.4,1.4-.4.9,0,1.2.3c.3.2.6.5.8.8.2.3.3.7.3,1.2v4.7h-.8v-4.6c0-.5-.1-.9-.4-1.2s-.7-.4-1.2-.4-1,.2-1.4.5c-.4.3-.5.9-.5,1.5v4.1h-.8v-4.6c0-.5-.1-.9-.4-1.2s-.7-.4-1.2-.4-1,.2-1.4.5-.5.9-.5,1.5v4.1h-.8Z"/>
      <path class="cls-7" d="M81.1,257.9c-.7,0-1.3-.1-1.7-.4-.4-.3-.7-.6-.9-1h-.2v1.2h-.8v-9.8h.8v4.2h.2c.1-.2.3-.5.5-.7.2-.2.5-.4.9-.5.4-.1.8-.2,1.3-.2s1.2.1,1.7.4c.5.3.9.7,1.2,1.2.3.5.4,1.2.4,1.9v.2c0,.7-.1,1.3-.4,1.9s-.7.9-1.2,1.2c-.5.3-1,.4-1.7.4ZM80.9,257.2c.8,0,1.4-.2,1.9-.7.5-.5.7-1.2.7-2h0c0-1-.2-1.7-.7-2.2s-1.1-.7-1.9-.7-1.4.2-1.9.7-.7,1.2-.7,2h0c0,1,.2,1.7.7,2.2.5.5,1.1.7,1.9.7Z"/>
      <path class="cls-7" d="M86.9,249.8c-.2,0-.4,0-.5-.2-.1-.1-.2-.3-.2-.5s0-.4.2-.5c.1-.1.3-.2.5-.2s.4,0,.5.2c.1.1.2.3.2.5s0,.4-.2.5c-.1.1-.3.2-.5.2ZM86.5,257.7v-6.8h.8v6.8h-.8Z"/>
      <path class="cls-7" d="M92.5,257.9c-.8,0-1.5-.2-2.1-.6-.6-.4-.9-1-1.1-1.9l.8-.2c0,.5.2.9.5,1.2.2.3.5.5.8.6.3.1.7.2,1.1.2.6,0,1-.1,1.4-.3.3-.2.5-.5.5-.9s-.2-.7-.5-.9c-.3-.2-.7-.3-1.3-.4h-.6c-.4-.2-.8-.3-1.2-.5s-.6-.4-.8-.6c-.2-.3-.3-.6-.3-1,0-.6.2-1,.7-1.4s1.1-.5,1.8-.5,1.4.2,1.9.5c.5.3.8.9.9,1.5l-.8.2c0-.5-.3-.9-.7-1.1-.4-.2-.8-.3-1.3-.3s-.9,0-1.2.3c-.3.2-.5.5-.5.9s.1.6.4.8c.3.2.7.3,1.1.4h.6c.5.2.9.3,1.3.4.4.1.7.3.9.6.2.3.3.6.3,1,0,.6-.2,1.1-.7,1.5-.5.4-1.1.5-2,.5Z"/>
      <path class="cls-7" d="M103.8,257.9c-.7,0-1.3-.1-1.8-.4-.5-.3-1-.6-1.3-1.1-.3-.5-.5-1.1-.5-1.8v-.3h.9v.3c0,.8.2,1.4.7,1.9.5.5,1.1.7,1.9.7s1.4-.2,1.9-.6c.4-.4.7-1,.7-1.6h0c0-.6-.1-1-.3-1.3-.2-.3-.5-.5-.9-.7-.4-.1-.8-.2-1.3-.2h-1.4v-1.2l4-2.7h0c0-.1-5.9-.1-5.9-.1v-.8h6.7v1.3l-3.9,2.7h0c0,.1.8.1.8.1.6,0,1.1.1,1.6.3.5.2.9.5,1.1.9.3.4.4.9.4,1.5h0c0,.7-.1,1.3-.4,1.7-.3.5-.7.8-1.2,1.1-.5.3-1.1.4-1.8.4Z"/>
      <path class="cls-7" d="M109.6,257.9c-.2,0-.4,0-.6-.2-.1-.1-.2-.3-.2-.6s0-.4.2-.6.3-.2.6-.2.4,0,.6.2.2.3.2.6,0,.4-.2.6c-.1.1-.3.2-.6.2Z"/>
      <path class="cls-7" d="M115.5,257.9c-.7,0-1.3-.1-1.8-.4s-.9-.7-1.2-1.1c-.3-.5-.4-1.1-.4-1.7v-.2h.9c0,1,.2,1.6.7,2s1.1.6,1.8.6,1.4-.2,1.9-.7c.5-.5.7-1.1.7-1.9h0c0-.9-.2-1.5-.7-2-.4-.5-1-.7-1.7-.7s-.8,0-1,.2c-.3.1-.5.3-.6.5s-.3.4-.4.6h-1.3v-5.2h6.3v.8h-5.5v3.8h.2c.1-.2.3-.4.4-.6.2-.2.5-.4.8-.5.3-.1.7-.2,1.2-.2s1.1.1,1.5.4c.5.3.8.6,1.1,1.1.3.5.4,1.1.4,1.7h0c0,.8-.1,1.4-.4,1.9s-.7.9-1.2,1.2-1.1.4-1.8.4Z"/>
      <path class="cls-7" d="M124.5,257.7v-6.8h.8v.9h.2c.1-.3.4-.5.7-.7.3-.2.7-.3,1.3-.3s1,.1,1.3.4.6.6.7.9h.2c.2-.4.4-.7.7-.9s.8-.4,1.4-.4.9,0,1.2.3c.3.2.6.5.8.8.2.3.3.7.3,1.2v4.7h-.8v-4.6c0-.5-.1-.9-.4-1.2s-.7-.4-1.2-.4-1,.2-1.4.5c-.4.3-.5.9-.5,1.5v4.1h-.8v-4.6c0-.5-.1-.9-.4-1.2s-.7-.4-1.2-.4-1,.2-1.4.5-.5.9-.5,1.5v4.1h-.8Z"/>
    </g>
  </g>
  <g id="_3.5_m" data-name=" 3.5 m" class="cls-18">
    <g class="cls-18">
      <path class="cls-7" d="M49.3,288.9v-1l5-2h0c0-.1-5-2.2-5-2.2v-1l5.9,2.5v1.1l-5.9,2.5Z"/>
      <path class="cls-7" d="M64.4,290.9c-.7,0-1.3-.1-1.8-.4-.5-.3-1-.6-1.3-1.1-.3-.5-.5-1.1-.5-1.8v-.3h.9v.3c0,.8.2,1.4.7,1.9.5.5,1.1.7,1.9.7s1.4-.2,1.9-.6c.4-.4.7-1,.7-1.6h0c0-.6-.1-1-.3-1.3s-.5-.5-.9-.7c-.4-.1-.8-.2-1.3-.2h-1.4v-1.2l4-2.7h0c0-.1-5.9-.1-5.9-.1v-.8h6.7v1.3l-3.9,2.7h0c0,.1.8.1.8.1.6,0,1.1.1,1.6.3.5.2.9.5,1.1.9.3.4.4.9.4,1.5h0c0,.7-.1,1.3-.4,1.7-.3.5-.7.8-1.2,1.1-.5.3-1.1.4-1.8.4Z"/>
      <path class="cls-7" d="M70.3,290.9c-.2,0-.4,0-.6-.2-.1-.1-.2-.3-.2-.6s0-.4.2-.6.3-.2.6-.2.4,0,.6.2.2.3.2.6,0,.4-.2.6c-.1.1-.3.2-.6.2Z"/>
      <path class="cls-7" d="M76.1,290.9c-.7,0-1.3-.1-1.8-.4s-.9-.7-1.2-1.1c-.3-.5-.4-1.1-.4-1.7v-.2h.9c0,1,.2,1.6.7,2s1.1.6,1.8.6,1.4-.2,1.9-.7c.5-.5.7-1.1.7-1.9h0c0-.9-.2-1.5-.7-2-.4-.5-1-.7-1.7-.7s-.8,0-1,.2c-.3.1-.5.3-.6.5s-.3.4-.4.6h-1.3v-5.2h6.3v.8h-5.5v3.8h.2c.1-.2.3-.4.4-.6.2-.2.5-.4.8-.5.3-.1.7-.2,1.2-.2s1.1.1,1.5.4c.5.3.8.6,1.1,1.1.3.5.4,1.1.4,1.7h0c0,.8-.1,1.4-.4,1.9s-.7.9-1.2,1.2-1.1.4-1.8.4Z"/>
      <path class="cls-7" d="M85.1,290.7v-6.8h.8v.9h.2c.1-.3.4-.5.7-.7.3-.2.7-.3,1.3-.3s1,.1,1.3.4c.3.3.6.6.7.9h.2c.2-.4.4-.7.7-.9s.8-.4,1.4-.4.9,0,1.2.3c.3.2.6.5.8.8.2.3.3.7.3,1.2v4.7h-.8v-4.6c0-.5-.1-.9-.4-1.2s-.7-.4-1.2-.4-1,.2-1.4.5c-.4.3-.5.9-.5,1.5v4.1h-.8v-4.6c0-.5-.1-.9-.4-1.2s-.7-.4-1.2-.4-1,.2-1.4.5c-.4.3-.5.9-.5,1.5v4.1h-.8Z"/>
    </g>
  </g>
  <g id="_0.5_m_bis_1_m_" data-name=" 0.5 m bis 1 m " class="cls-18">
    <g class="cls-18">
      <path class="cls-7" d="M52.5,92.9c-1.1,0-2-.3-2.6-1-.6-.7-1-1.7-1-3v-2.2c0-1.3.3-2.3,1-3,.6-.7,1.5-1,2.6-1s2,.3,2.6,1c.6.7,1,1.7,1,3v2.2c0,1.3-.3,2.3-1,3-.6.7-1.5,1-2.6,1ZM52.5,92.2c.9,0,1.6-.3,2-.8.5-.6.7-1.3.7-2.3v-2.4c0-1-.2-1.7-.7-2.3-.5-.6-1.1-.8-2-.8s-1.6.3-2,.8c-.5.6-.7,1.3-.7,2.3v2.4c0,1,.2,1.7.7,2.3.5.6,1.1.8,2,.8Z"/>
      <path class="cls-7" d="M58.6,92.9c-.2,0-.4,0-.6-.2-.1-.1-.2-.3-.2-.6s0-.4.2-.6.3-.2.6-.2.4,0,.6.2.2.3.2.6,0,.4-.2.6c-.1.1-.3.2-.6.2Z"/>
      <path class="cls-7" d="M64.4,92.9c-.7,0-1.3-.1-1.8-.4s-.9-.7-1.2-1.1c-.3-.5-.4-1.1-.4-1.7v-.2h.9c0,1,.2,1.6.7,2s1.1.6,1.8.6,1.4-.2,1.9-.7c.5-.5.7-1.1.7-1.9h0c0-.9-.2-1.5-.7-2-.4-.5-1-.7-1.7-.7s-.8,0-1,.2c-.3.1-.5.3-.6.5s-.3.4-.4.6h-1.3v-5.2h6.3v.8h-5.5v3.8h.2c.1-.2.3-.4.4-.6.2-.2.5-.4.8-.5.3-.1.7-.2,1.2-.2s1.1.1,1.5.4c.5.3.8.6,1.1,1.1.3.5.4,1.1.4,1.7h0c0,.8-.1,1.4-.4,1.9s-.7.9-1.2,1.2-1.1.4-1.8.4Z"/>
      <path class="cls-7" d="M73.5,92.7v-6.8h.8v.9h.2c.1-.3.4-.5.7-.7.3-.2.7-.3,1.3-.3s1,.1,1.3.4c.3.3.6.6.7.9h.2c.2-.4.4-.7.7-.9s.8-.4,1.4-.4.9,0,1.2.3c.3.2.6.5.8.8.2.3.3.7.3,1.2v4.7h-.8v-4.6c0-.5-.1-.9-.4-1.2s-.7-.4-1.2-.4-1,.2-1.4.5c-.4.3-.5.9-.5,1.5v4.1h-.8v-4.6c0-.5-.1-.9-.4-1.2s-.7-.4-1.2-.4-1,.2-1.4.5c-.4.3-.5.9-.5,1.5v4.1h-.8Z"/>
      <path class="cls-7" d="M92.8,92.9c-.7,0-1.3-.1-1.7-.4s-.7-.6-.9-1h-.2v1.2h-.8v-9.8h.8v4.2h.2c.1-.2.3-.5.5-.7.2-.2.5-.4.9-.5.3-.1.8-.2,1.3-.2s1.2.1,1.7.4c.5.3.9.7,1.2,1.2.3.5.4,1.2.4,1.9v.2c0,.7-.1,1.3-.4,1.9s-.7.9-1.2,1.2c-.5.3-1,.4-1.7.4ZM92.6,92.2c.8,0,1.4-.2,1.9-.7.5-.5.7-1.2.7-2h0c0-1-.2-1.7-.7-2.2-.5-.5-1.1-.7-1.9-.7s-1.4.2-1.9.7-.7,1.2-.7,2h0c0,1,.2,1.7.7,2.2.5.5,1.1.7,1.9.7Z"/>
      <path class="cls-7" d="M98.6,84.8c-.2,0-.4,0-.5-.2s-.2-.3-.2-.5,0-.4.2-.5c.1-.1.3-.2.5-.2s.4,0,.5.2.2.3.2.5,0,.4-.2.5c-.1.1-.3.2-.5.2ZM98.2,92.7v-6.8h.8v6.8h-.8Z"/>
      <path class="cls-7" d="M104.2,92.9c-.8,0-1.5-.2-2.1-.6-.6-.4-.9-1-1.1-1.9l.8-.2c0,.5.2.9.5,1.2.2.3.5.5.8.6s.7.2,1.1.2c.6,0,1-.1,1.4-.3s.5-.5.5-.9-.2-.7-.5-.9c-.3-.2-.7-.3-1.3-.4h-.6c-.4-.2-.8-.3-1.2-.5-.3-.2-.6-.4-.8-.6-.2-.3-.3-.6-.3-1,0-.6.2-1,.7-1.4.5-.3,1.1-.5,1.8-.5s1.4.2,1.9.5c.5.3.8.9.9,1.5l-.8.2c0-.5-.3-.9-.7-1.1-.3-.2-.8-.3-1.3-.3s-.9,0-1.2.3c-.3.2-.5.5-.5.9s.1.6.4.8.7.3,1.1.4h.6c.5.2.9.3,1.3.4s.7.3.9.6c.2.3.3.6.3,1,0,.6-.2,1.1-.7,1.5-.5.4-1.1.5-2,.5Z"/>
      <path class="cls-7" d="M114.8,92.7v-9.3h-.2l-2.1,3.6h-1l2.5-4.2h1.7v9.8h-.9Z"/>
      <path class="cls-7" d="M121.8,92.7v-6.8h.8v.9h.2c.1-.3.4-.5.7-.7.3-.2.7-.3,1.3-.3s1,.1,1.3.4c.3.3.6.6.7.9h.2c.2-.4.4-.7.7-.9s.8-.4,1.4-.4.9,0,1.2.3c.3.2.6.5.8.8.2.3.3.7.3,1.2v4.7h-.8v-4.6c0-.5-.1-.9-.4-1.2s-.7-.4-1.2-.4-1,.2-1.4.5c-.4.3-.5.9-.5,1.5v4.1h-.8v-4.6c0-.5-.1-.9-.4-1.2s-.7-.4-1.2-.4-1,.2-1.4.5c-.4.3-.5.9-.5,1.5v4.1h-.8Z"/>
    </g>
  </g>
  <g id="_1.5_m_bis_2_m_" data-name=" 1.5 m bis 2 m " class="cls-18">
    <g class="cls-18">
      <path class="cls-7" d="M51.8,158.7v-9.3h-.2l-2.1,3.6h-1l2.5-4.2h1.7v9.8h-.9Z"/>
      <path class="cls-7" d="M55.5,158.9c-.2,0-.4,0-.6-.2-.1-.1-.2-.3-.2-.6s0-.4.2-.6.3-.2.6-.2.4,0,.6.2.2.3.2.6,0,.4-.2.6c-.1.1-.3.2-.6.2Z"/>
      <path class="cls-7" d="M61.3,158.9c-.7,0-1.3-.1-1.8-.4s-.9-.7-1.2-1.1c-.3-.5-.4-1.1-.4-1.7v-.2h.9c0,1,.2,1.6.7,2s1.1.6,1.8.6,1.4-.2,1.9-.7c.5-.5.7-1.1.7-1.9h0c0-.9-.2-1.5-.7-2-.4-.5-1-.7-1.7-.7s-.8,0-1,.2c-.3.1-.5.3-.6.5s-.3.4-.4.6h-1.3v-5.2h6.3v.8h-5.5v3.8h.2c.1-.2.3-.4.4-.6.2-.2.5-.4.8-.5.3-.1.7-.2,1.2-.2s1.1.1,1.5.4c.5.3.8.6,1.1,1.1.3.5.4,1.1.4,1.7h0c0,.8-.1,1.4-.4,1.9s-.7.9-1.2,1.2-1.1.4-1.8.4Z"/>
      <path class="cls-7" d="M70.3,158.7v-6.8h.8v.9h.2c.1-.3.4-.5.7-.7.3-.2.7-.3,1.3-.3s1,.1,1.3.4c.3.3.6.6.7.9h.2c.2-.4.4-.7.7-.9s.8-.4,1.4-.4.9,0,1.2.3c.3.2.6.5.8.8.2.3.3.7.3,1.2v4.7h-.8v-4.6c0-.5-.1-.9-.4-1.2s-.7-.4-1.2-.4-1,.2-1.4.5c-.4.3-.5.9-.5,1.5v4.1h-.8v-4.6c0-.5-.1-.9-.4-1.2s-.7-.4-1.2-.4-1,.2-1.4.5c-.4.3-.5.9-.5,1.5v4.1h-.8Z"/>
      <path class="cls-7" d="M89.7,158.9c-.7,0-1.3-.1-1.7-.4s-.7-.6-.9-1h-.2v1.2h-.8v-9.8h.8v4.2h.2c.1-.2.3-.5.5-.7.2-.2.5-.4.9-.5.3-.1.8-.2,1.3-.2s1.2.1,1.7.4c.5.3.9.7,1.2,1.2.3.5.4,1.2.4,1.9v.2c0,.7-.1,1.3-.4,1.9s-.7.9-1.2,1.2c-.5.3-1,.4-1.7.4ZM89.5,158.2c.8,0,1.4-.2,1.9-.7.5-.5.7-1.2.7-2h0c0-1-.2-1.7-.7-2.2-.5-.5-1.1-.7-1.9-.7s-1.4.2-1.9.7-.7,1.2-.7,2h0c0,1,.2,1.7.7,2.2.5.5,1.1.7,1.9.7Z"/>
      <path class="cls-7" d="M95.5,150.8c-.2,0-.4,0-.5-.2s-.2-.3-.2-.5,0-.4.2-.5c.1-.1.3-.2.5-.2s.4,0,.5.2.2.3.2.5,0,.4-.2.5c-.1.1-.3.2-.5.2ZM95.1,158.7v-6.8h.8v6.8h-.8Z"/>
      <path class="cls-7" d="M101.1,158.9c-.8,0-1.5-.2-2.1-.6-.6-.4-.9-1-1.1-1.9l.8-.2c0,.5.2.9.5,1.2.2.3.5.5.8.6s.7.2,1.1.2c.6,0,1-.1,1.4-.3s.5-.5.5-.9-.2-.7-.5-.9c-.3-.2-.7-.3-1.3-.4h-.6c-.4-.2-.8-.3-1.2-.5-.3-.2-.6-.4-.8-.6-.2-.3-.3-.6-.3-1,0-.6.2-1,.7-1.4.5-.3,1.1-.5,1.8-.5s1.4.2,1.9.5c.5.3.8.9.9,1.5l-.8.2c0-.5-.3-.9-.7-1.1-.3-.2-.8-.3-1.3-.3s-.9,0-1.2.3c-.3.2-.5.5-.5.9s.1.6.4.8.7.3,1.1.4h.6c.5.2.9.3,1.3.4s.7.3.9.6c.2.3.3.6.3,1,0,.6-.2,1.1-.7,1.5-.5.4-1.1.5-2,.5Z"/>
      <path class="cls-7" d="M108.9,158.7v-1c0-.7.1-1.3.4-1.7s.6-.7,1.1-1c.5-.2,1-.5,1.6-.6l.7-.2c.5-.1.9-.3,1.2-.5.3-.2.6-.5.8-.8s.3-.7.3-1.2h0c0-.7-.2-1.3-.7-1.7-.5-.4-1.1-.6-1.8-.6s-1.4.2-1.9.6c-.5.4-.7,1-.7,1.9v.2h-.8v-.2c0-.7.1-1.3.4-1.8s.7-.9,1.2-1.1c.5-.3,1.1-.4,1.8-.4s1.3.1,1.8.4c.5.2.9.6,1.2,1s.4,1,.4,1.5h0c0,.8-.1,1.3-.4,1.7-.2.4-.6.7-1,1-.4.3-1,.5-1.6.7l-.7.2c-.5.2-.9.3-1.3.5-.4.2-.6.4-.8.7-.2.3-.3.7-.3,1.2v.3h6v.8h-6.8Z"/>
      <path class="cls-7" d="M121.5,158.7v-6.8h.8v.9h.2c.1-.3.4-.5.7-.7.3-.2.7-.3,1.3-.3s1,.1,1.3.4.6.6.7.9h.2c.2-.4.4-.7.7-.9s.8-.4,1.4-.4.9,0,1.2.3c.3.2.6.5.8.8.2.3.3.7.3,1.2v4.7h-.8v-4.6c0-.5-.1-.9-.4-1.2s-.7-.4-1.2-.4-1,.2-1.4.5c-.4.3-.5.9-.5,1.5v4.1h-.8v-4.6c0-.5-.1-.9-.4-1.2s-.7-.4-1.2-.4-1,.2-1.4.5-.5.9-.5,1.5v4.1h-.8Z"/>
    </g>
  </g>
  <g id="Auftautiefe" class="cls-18">
    <g class="cls-18">
      <path class="cls-7" d="M17.3,26.7l3.2-9.8h1.6l3.2,9.8h-.9l-.8-2.6h-4.5l-.8,2.6h-.9ZM19.4,23.3h3.9l-1.9-5.9h-.2l-1.9,5.9Z"/>
      <path class="cls-7" d="M29.6,26.9c-.5,0-.9-.1-1.4-.3-.4-.2-.7-.5-1-.9-.2-.4-.4-.9-.4-1.6v-4.1h.8v4.1c0,.7.2,1.3.6,1.6.4.3.9.5,1.5.5s1.3-.2,1.8-.7c.5-.5.7-1.2.7-2.1v-3.4h.8v6.8h-.8v-1.3h-.2c-.2.4-.4.7-.8,1-.4.3-.9.4-1.7.4Z"/>
      <path class="cls-7" d="M37,26.7v-6h-2.2v-.8h2.2v-1.9c0-.3,0-.6.3-.8.2-.2.5-.3.8-.3h1.7v.8h-1.5c-.3,0-.4.1-.4.4v1.8h2.3v.8h-2.3v6h-.8Z"/>
      <path class="cls-7" d="M43.9,26.7c-.4,0-.6,0-.8-.3-.2-.2-.3-.4-.3-.8v-5h-2.2v-.8h2.2v-2.5h.8v2.5h2.4v.8h-2.4v4.9c0,.3.1.4.4.4h1.6v.8h-1.8Z"/>
      <path class="cls-7" d="M50,26.9c-.5,0-.9,0-1.3-.2-.4-.2-.7-.4-.9-.7-.2-.3-.3-.7-.3-1.1s.1-.8.3-1.1c.2-.3.5-.5.9-.7.4-.1.8-.2,1.3-.2h2.5v-.5c0-.6-.2-1-.5-1.3-.3-.3-.8-.5-1.4-.5s-1.1.1-1.4.4c-.3.3-.6.7-.7,1.2l-.8-.2c.1-.4.3-.8.5-1.1.2-.3.6-.6,1-.8s.9-.3,1.4-.3c.9,0,1.5.2,2,.7s.7,1.1.7,1.9v3.3c0,.3.1.4.4.4h.7v.7h-.9c-.3,0-.5,0-.7-.3s-.3-.4-.3-.7h0c0,0-.1,0-.1,0-.1.2-.3.4-.5.6s-.4.4-.7.5c-.3.1-.7.2-1.2.2ZM50.1,26.2c.7,0,1.3-.2,1.7-.7s.7-1,.7-1.8v-.2h-2.5c-.5,0-.9.1-1.2.3-.3.2-.5.5-.5,1s.2.8.5,1c.3.2.8.4,1.3.4Z"/>
      <path class="cls-7" d="M58.6,26.9c-.5,0-.9-.1-1.4-.3s-.7-.5-1-.9c-.2-.4-.4-.9-.4-1.6v-4.1h.8v4.1c0,.7.2,1.3.6,1.6.4.3.9.5,1.5.5s1.3-.2,1.8-.7c.5-.5.7-1.2.7-2.1v-3.4h.8v6.8h-.8v-1.3h-.2c-.2.4-.4.7-.8,1-.4.3-.9.4-1.7.4Z"/>
      <path class="cls-7" d="M67,26.7c-.4,0-.6,0-.8-.3-.2-.2-.3-.4-.3-.8v-5h-2.2v-.8h2.2v-2.5h.8v2.5h2.4v.8h-2.4v4.9c0,.3.1.4.4.4h1.6v.8h-1.8Z"/>
      <path class="cls-7" d="M71.4,18.8c-.2,0-.4,0-.5-.2s-.2-.3-.2-.5,0-.4.2-.5c.1-.1.3-.2.5-.2s.4,0,.5.2.2.3.2.5,0,.4-.2.5c-.1.1-.3.2-.5.2ZM71,26.7v-6.8h.8v6.8h-.8Z"/>
      <path class="cls-7" d="M77.4,26.9c-.7,0-1.3-.1-1.8-.4-.5-.3-.9-.7-1.2-1.2-.3-.5-.4-1.1-.4-1.8v-.2c0-.7.1-1.3.4-1.8.3-.5.7-.9,1.2-1.2s1.1-.4,1.7-.4,1.2.1,1.7.4c.5.3.9.6,1.2,1.1.3.5.4,1.1.4,1.8v.4h-5.8c0,.8.3,1.5.8,2s1.1.7,1.9.7,1.1-.1,1.5-.4.6-.6.8-1.1l.8.3c-.1.3-.3.6-.6.9-.2.3-.6.5-1,.7-.4.2-.9.3-1.5.3ZM74.8,22.8h4.9c0-.7-.3-1.3-.7-1.7-.4-.4-1-.6-1.7-.6s-1.2.2-1.7.6c-.4.4-.7,1-.8,1.7Z"/>
      <path class="cls-7" d="M84.1,26.7v-6h-2.2v-.8h2.2v-1.9c0-.3,0-.6.3-.8.2-.2.5-.3.8-.3h1.7v.8h-1.5c-.3,0-.4.1-.4.4v1.8h2.3v.8h-2.3v6h-.8Z"/>
      <path class="cls-7" d="M92,26.9c-.7,0-1.3-.1-1.8-.4-.5-.3-.9-.7-1.2-1.2-.3-.5-.4-1.1-.4-1.8v-.2c0-.7.1-1.3.4-1.8s.7-.9,1.2-1.2,1.1-.4,1.7-.4,1.2.1,1.7.4c.5.3.9.6,1.2,1.1.3.5.4,1.1.4,1.8v.4h-5.8c0,.8.3,1.5.8,2,.5.5,1.1.7,1.9.7s1.1-.1,1.5-.4c.3-.3.6-.6.8-1.1l.8.3c-.1.3-.3.6-.6.9s-.6.5-1,.7-.9.3-1.5.3ZM89.4,22.8h4.9c0-.7-.3-1.3-.7-1.7-.4-.4-1-.6-1.7-.6s-1.2.2-1.7.6c-.4.4-.7,1-.8,1.7Z"/>
    </g>
  </g>
</svg>