<?xml version="1.0" encoding="UTF-8"?>
<svg id="Ebene_1" data-name="Ebene 1" xmlns="http://www.w3.org/2000/svg" version="1.1" viewBox="0 0 200.5 309.5">
  <defs>
    <style>
      .cls-1 {
        fill: #ed89f2;
      }

      .cls-1, .cls-2, .cls-3, .cls-4, .cls-5, .cls-6, .cls-7, .cls-8, .cls-9 {
        stroke-width: 0px;
      }

      .cls-1, .cls-2, .cls-3, .cls-4, .cls-5, .cls-6, .cls-7, .cls-9 {
        opacity: .5;
      }

      .cls-10 {
        stroke: #990101;
      }

      .cls-10, .cls-11, .cls-12, .cls-13, .cls-14, .cls-15, .cls-16, .cls-17 {
        fill: none;
      }

      .cls-11 {
        stroke: #a9a0f4;
      }

      .cls-12 {
        stroke: #ed89f2;
      }

      .cls-12, .cls-14, .cls-17 {
        stroke-miterlimit: 10;
      }

      .cls-18 {
        isolation: isolate;
      }

      .cls-13 {
        stroke: #cae3fc;
      }

      .cls-2 {
        fill: #cae3fc;
      }

      .cls-14 {
        stroke: #d39bff;
      }

      .cls-3 {
        fill: #98b3ff;
      }

      .cls-4 {
        fill: #a9a0f4;
      }

      .cls-15 {
        stroke: #b1cbfd;
      }

      .cls-5 {
        fill: #990101;
      }

      .cls-6 {
        fill: #b1cbfd;
      }

      .cls-16 {
        stroke: #c34579;
      }

      .cls-7 {
        fill: #d39bff;
      }

      .cls-8 {
        fill: #fff;
      }

      .cls-9 {
        fill: #c34579;
      }

      .cls-17 {
        stroke: #98b3ff;
      }
    </style>
  </defs>
  <rect class="cls-2" x="16.9" y="42.7" width="20" height="19"/>
  <rect class="cls-13" x="17.4" y="43.2" width="19" height="18"/>
  <rect class="cls-7" x="16.9" y="174.7" width="20" height="19"/>
  <rect class="cls-14" x="17.4" y="175.2" width="19" height="18"/>
  <rect class="cls-6" x="16.9" y="75.7" width="20" height="19"/>
  <rect class="cls-15" x="17.4" y="76.2" width="19" height="18"/>
  <rect class="cls-1" x="16.9" y="207.7" width="20" height="19"/>
  <rect class="cls-12" x="17.4" y="208.2" width="19" height="18"/>
  <rect class="cls-3" x="16.9" y="108.7" width="20" height="19"/>
  <rect class="cls-17" x="17.4" y="109.2" width="19" height="18"/>
  <rect class="cls-9" x="16.9" y="240.7" width="20" height="19"/>
  <rect class="cls-16" x="17.4" y="241.2" width="19" height="18"/>
  <rect class="cls-4" x="16.9" y="141.7" width="20" height="19"/>
  <rect class="cls-11" x="17.4" y="142.2" width="19" height="18"/>
  <rect class="cls-5" x="16.9" y="273.7" width="20" height="19"/>
  <rect class="cls-10" x="17.4" y="274.2" width="19" height="18"/>
  <g id="_-22_C_bis_-18.25_C_" data-name=" -22 C bis -18.25 C " class="cls-18">
    <g class="cls-18">
      <path class="cls-8" d="M49.6,55.5v-.8h4.1v.8h-4.1Z"/>
      <path class="cls-8" d="M55.7,58.7v-1c0-.7.1-1.3.4-1.7s.6-.7,1.1-1c.5-.2,1-.5,1.6-.6l.7-.2c.5-.1.9-.3,1.2-.5.3-.2.6-.5.8-.8s.3-.7.3-1.2h0c0-.7-.2-1.3-.7-1.7-.5-.4-1.1-.6-1.8-.6s-1.4.2-1.9.6c-.5.4-.7,1-.7,1.9v.2h-.8v-.2c0-.7.1-1.3.4-1.8s.7-.9,1.2-1.1c.5-.3,1.1-.4,1.8-.4s1.3.1,1.8.4c.5.2.9.6,1.2,1s.4,1,.4,1.5h0c0,.8-.1,1.3-.4,1.7-.2.4-.6.7-1,1-.4.3-1,.5-1.6.7l-.7.2c-.5.2-.9.3-1.3.5-.4.2-.6.4-.8.7-.2.3-.3.7-.3,1.2v.3h6v.8h-6.8Z"/>
      <path class="cls-8" d="M64.2,58.7v-1c0-.7.1-1.3.4-1.7s.6-.7,1.1-1c.5-.2,1-.5,1.6-.6l.7-.2c.5-.1.9-.3,1.2-.5.3-.2.6-.5.8-.8s.3-.7.3-1.2h0c0-.7-.2-1.3-.7-1.7-.5-.4-1.1-.6-1.8-.6s-1.4.2-1.9.6c-.5.4-.7,1-.7,1.9v.2h-.8v-.2c0-.7.1-1.3.4-1.8s.7-.9,1.2-1.1c.5-.3,1.1-.4,1.8-.4s1.3.1,1.8.4c.5.2.9.6,1.2,1s.4,1,.4,1.5h0c0,.8-.1,1.3-.4,1.7-.2.4-.6.7-1,1-.4.3-1,.5-1.6.7l-.7.2c-.5.2-.9.3-1.3.5-.4.2-.6.4-.8.7-.2.3-.3.7-.3,1.2v.3h6v.8h-6.8Z"/>
      <path class="cls-8" d="M80.2,58.9c-1.1,0-2.1-.3-2.8-1-.7-.7-1-1.7-1-3v-2.2c0-1.3.3-2.3,1-3,.7-.7,1.6-1,2.8-1s2,.3,2.6,1c.6.6.9,1.5.9,2.6h0c0,0-.9,0-.9,0h0c0-.9-.2-1.6-.6-2.1s-1.1-.8-2-.8-1.6.3-2.1.8c-.5.6-.8,1.3-.8,2.3v2.3c0,1,.3,1.8.8,2.3.5.6,1.2.8,2.1.8s1.6-.3,2-.8.6-1.2.6-2v-.2h.9v.2c0,1.1-.3,2-.9,2.6-.6.6-1.5,1-2.6,1Z"/>
      <path class="cls-8" d="M87.1,53c-.4,0-.7,0-1.1-.3-.3-.2-.6-.4-.8-.7s-.3-.7-.3-1.1,0-.8.3-1.1.4-.6.8-.7c.3-.2.7-.3,1.1-.3s.8,0,1.1.3c.3.2.6.4.7.7.2.3.3.7.3,1.1s0,.8-.3,1.1c-.2.3-.4.6-.7.7-.3.2-.7.3-1.1.3ZM87.1,52.2c.4,0,.7-.1,1-.4.2-.2.4-.6.4-1s-.1-.7-.4-1c-.2-.2-.6-.4-1-.4s-.7.1-1,.4-.4.6-.4,1,.1.7.4,1c.2.2.6.4,1,.4Z"/>
      <path class="cls-8" d="M98.2,58.9c-.7,0-1.3-.1-1.7-.4-.4-.3-.7-.6-.9-1h-.2v1.2h-.8v-9.8h.8v4.2h.2c.1-.2.3-.5.5-.7.2-.2.5-.4.9-.5.4-.1.8-.2,1.3-.2s1.2.1,1.7.4c.5.3.9.7,1.2,1.2.3.5.4,1.2.4,1.9v.2c0,.7-.1,1.3-.4,1.9s-.7.9-1.2,1.2c-.5.3-1,.4-1.7.4ZM98,58.2c.8,0,1.4-.2,1.9-.7.5-.5.7-1.2.7-2h0c0-1-.2-1.7-.7-2.2s-1.1-.7-1.9-.7-1.4.2-1.9.7-.7,1.2-.7,2h0c0,1,.2,1.7.7,2.2.5.5,1.1.7,1.9.7Z"/>
      <path class="cls-8" d="M104.1,50.8c-.2,0-.4,0-.5-.2-.1-.1-.2-.3-.2-.5s0-.4.2-.5c.1-.1.3-.2.5-.2s.4,0,.5.2c.1.1.2.3.2.5s0,.4-.2.5c-.1.1-.3.2-.5.2ZM103.6,58.7v-6.8h.8v6.8h-.8Z"/>
      <path class="cls-8" d="M109.6,58.9c-.8,0-1.5-.2-2.1-.6-.6-.4-.9-1-1.1-1.9l.8-.2c0,.5.2.9.5,1.2.2.3.5.5.8.6.3.1.7.2,1.1.2.6,0,1-.1,1.4-.3.3-.2.5-.5.5-.9s-.2-.7-.5-.9c-.3-.2-.7-.3-1.3-.4h-.6c-.4-.2-.8-.3-1.2-.5s-.6-.4-.8-.6c-.2-.3-.3-.6-.3-1,0-.6.2-1,.7-1.4s1.1-.5,1.8-.5,1.4.2,1.9.5c.5.3.8.9.9,1.5l-.8.2c0-.5-.3-.9-.7-1.1-.4-.2-.8-.3-1.3-.3s-.9,0-1.2.3c-.3.2-.5.5-.5.9s.1.6.4.8c.3.2.7.3,1.1.4h.6c.5.2.9.3,1.3.4.4.1.7.3.9.6.2.3.3.6.3,1,0,.6-.2,1.1-.7,1.5-.5.4-1.1.5-2,.5Z"/>
      <path class="cls-8" d="M117.5,55.5v-.8h4.1v.8h-4.1Z"/>
      <path class="cls-8" d="M126.4,58.7v-9.3h-.2l-2.1,3.6h-1l2.5-4.2h1.7v9.8h-.9Z"/>
      <path class="cls-8" d="M132.9,58.9c-.8,0-1.4-.1-2-.3-.5-.2-1-.5-1.3-1-.3-.4-.4-.9-.4-1.4h0c0-.6.1-1.1.3-1.4.2-.3.5-.6.8-.7.3-.2.6-.3.9-.3v-.2c-.3,0-.5-.2-.8-.4-.3-.2-.5-.4-.7-.7s-.3-.7-.3-1.1h0c0-.7.2-1.1.5-1.5.3-.4.7-.7,1.2-.9.5-.2,1.1-.3,1.8-.3s1.3.1,1.8.3c.5.2.9.5,1.2.9.3.4.5.8.5,1.4h0c0,.6,0,.9-.3,1.2s-.4.5-.7.7c-.3.2-.6.3-.8.4v.2c.3,0,.6.1.9.3.3.2.6.4.8.7.2.3.3.7.3,1.2h0c0,.7-.1,1.2-.4,1.6-.3.4-.7.7-1.3,1-.5.2-1.2.3-2,.3ZM132.9,58.2c.8,0,1.5-.2,2-.5s.8-.8.8-1.5h0c0-.8-.3-1.3-.8-1.6s-1.2-.5-2-.5-1.5.2-2,.5c-.5.3-.8.8-.8,1.5h0c0,.8.3,1.3.8,1.6.5.3,1.2.5,2,.5ZM132.9,53.3c.8,0,1.4-.2,1.9-.5s.7-.8.7-1.3h0c0-.7-.2-1.1-.7-1.5-.5-.3-1.1-.5-1.9-.5s-1.4.2-1.9.5c-.5.3-.7.8-.7,1.3h0c0,.7.2,1.1.7,1.5s1.1.5,1.9.5Z"/>
      <path class="cls-8" d="M138.9,58.9c-.2,0-.4,0-.6-.2-.1-.1-.2-.3-.2-.6s0-.4.2-.6.3-.2.6-.2.4,0,.6.2.2.3.2.6,0,.4-.2.6c-.1.1-.3.2-.6.2Z"/>
      <path class="cls-8" d="M141.4,58.7v-1c0-.7.1-1.3.4-1.7s.6-.7,1.1-1c.5-.2,1-.5,1.6-.6l.7-.2c.5-.1.9-.3,1.2-.5.3-.2.6-.5.8-.8.2-.3.3-.7.3-1.2h0c0-.7-.2-1.3-.7-1.7-.5-.4-1.1-.6-1.8-.6s-1.4.2-1.9.6c-.5.4-.7,1-.7,1.9v.2h-.8v-.2c0-.7.1-1.3.4-1.8.3-.5.7-.9,1.2-1.1.5-.3,1.1-.4,1.8-.4s1.3.1,1.8.4.9.6,1.2,1c.3.4.4,1,.4,1.5h0c0,.8-.1,1.3-.4,1.7-.2.4-.6.7-1,1-.4.3-1,.5-1.6.7l-.7.2c-.5.2-.9.3-1.3.5-.3.2-.6.4-.8.7-.2.3-.3.7-.3,1.2v.3h6v.8h-6.8Z"/>
      <path class="cls-8" d="M153.3,58.9c-.7,0-1.3-.1-1.8-.4s-.9-.7-1.2-1.1c-.3-.5-.4-1.1-.4-1.7v-.2h.9c0,1,.2,1.6.7,2s1.1.6,1.8.6,1.4-.2,1.9-.7c.5-.5.7-1.1.7-1.9h0c0-.9-.2-1.5-.7-2-.4-.5-1-.7-1.7-.7s-.8,0-1,.2c-.3.1-.5.3-.6.5s-.3.4-.4.6h-1.3v-5.2h6.3v.8h-5.5v3.8h.2c.1-.2.3-.4.4-.6.2-.2.5-.4.8-.5.3-.1.7-.2,1.2-.2s1.1.1,1.5.4c.5.3.8.6,1.1,1.1.3.5.4,1.1.4,1.7h0c0,.8-.1,1.4-.4,1.9s-.7.9-1.2,1.2-1.1.4-1.8.4Z"/>
      <path class="cls-8" d="M165.7,58.9c-1.1,0-2.1-.3-2.8-1-.7-.7-1-1.7-1-3v-2.2c0-1.3.3-2.3,1-3,.7-.7,1.6-1,2.8-1s2,.3,2.6,1c.6.6.9,1.5.9,2.6h0c0,0-.9,0-.9,0h0c0-.9-.2-1.6-.6-2.1-.4-.5-1.1-.8-2-.8s-1.6.3-2.1.8c-.5.6-.8,1.3-.8,2.3v2.3c0,1,.3,1.8.8,2.3.5.6,1.2.8,2.1.8s1.6-.3,2-.8c.4-.5.6-1.2.6-2v-.2h.9v.2c0,1.1-.3,2-.9,2.6-.6.6-1.5,1-2.6,1Z"/>
      <path class="cls-8" d="M172.6,53c-.4,0-.7,0-1.1-.3-.3-.2-.6-.4-.8-.7s-.3-.7-.3-1.1,0-.8.3-1.1.4-.6.8-.7c.3-.2.7-.3,1.1-.3s.8,0,1.1.3c.3.2.6.4.7.7.2.3.3.7.3,1.1s0,.8-.3,1.1c-.2.3-.4.6-.7.7-.3.2-.7.3-1.1.3ZM172.6,52.2c.4,0,.7-.1,1-.4.2-.2.4-.6.4-1s-.1-.7-.4-1c-.2-.2-.6-.4-1-.4s-.7.1-1,.4-.4.6-.4,1,.1.7.4,1c.2.2.6.4,1,.4Z"/>
    </g>
  </g>
  <g id="Bodentemperatur" class="cls-18">
    <g class="cls-18">
      <path class="cls-8" d="M17.4,26.7v-.8h1.4v-8.2h-1.4v-.8h4.9c.6,0,1.1.1,1.5.3.4.2.8.5,1,.9.2.4.4.8.4,1.3h0c0,.6,0,.9-.3,1.2-.2.3-.4.5-.6.7s-.5.3-.7.4v.2c.2,0,.5.2.7.3.3.2.5.4.6.7.2.3.3.7.3,1.1h0c0,.7-.1,1.1-.4,1.5s-.6.7-1,.9c-.4.2-.9.3-1.5.3h-4.8ZM19.7,21.4h2.5c.6,0,1.2-.2,1.5-.5s.6-.7.6-1.3h0c0-.7-.2-1.1-.6-1.4s-.9-.5-1.5-.5h-2.5v3.6ZM19.7,25.9h2.4c.7,0,1.2-.2,1.6-.5.4-.3.5-.8.5-1.3h0c0-.7-.2-1.1-.5-1.4-.4-.3-.9-.5-1.6-.5h-2.4v3.7Z"/>
      <path class="cls-8" d="M30.4,26.9c-.7,0-1.3-.1-1.8-.4s-.9-.7-1.2-1.2c-.3-.5-.4-1.1-.4-1.8v-.2c0-.7.1-1.3.4-1.8.3-.5.7-.9,1.2-1.2s1.1-.4,1.8-.4,1.3.1,1.8.4.9.7,1.2,1.2.4,1.1.4,1.8v.2c0,.7-.1,1.3-.4,1.8s-.7.9-1.2,1.2-1.1.4-1.8.4ZM30.4,26.2c.8,0,1.4-.3,1.9-.8.5-.5.7-1.2.7-2h0c0-1-.2-1.6-.7-2.1-.5-.5-1.1-.8-1.9-.8s-1.4.3-1.9.8c-.5.5-.7,1.2-.7,2h0c0,1,.2,1.6.7,2.1s1.1.8,1.9.8Z"/>
      <path class="cls-8" d="M38.9,26.9c-.6,0-1.2-.1-1.7-.4-.5-.3-.9-.7-1.2-1.2s-.4-1.2-.4-1.9v-.2c0-.7.1-1.3.4-1.9.3-.5.7-.9,1.2-1.2.5-.3,1.1-.4,1.7-.4s.9,0,1.3.2.6.3.8.5.4.4.5.7h.2v-4.2h.8v9.8h-.8v-1.2h-.2c-.2.4-.5.7-.9,1-.4.3-1,.4-1.7.4ZM39.1,26.2c.8,0,1.4-.2,1.9-.7.5-.5.7-1.2.7-2h0c0-1-.2-1.7-.7-2.2-.5-.5-1.1-.7-1.9-.7s-1.4.2-1.9.7c-.5.5-.7,1.2-.7,2h0c0,1,.2,1.7.7,2.2.5.5,1.1.7,1.9.7Z"/>
      <path class="cls-8" d="M48.1,26.9c-.7,0-1.3-.1-1.8-.4s-.9-.7-1.2-1.2c-.3-.5-.4-1.1-.4-1.8v-.2c0-.7.1-1.3.4-1.8.3-.5.7-.9,1.2-1.2s1.1-.4,1.7-.4,1.2.1,1.7.4c.5.3.9.6,1.2,1.1.3.5.4,1.1.4,1.8v.4h-5.8c0,.8.3,1.5.8,2,.5.5,1.1.7,1.9.7s1.1-.1,1.5-.4c.3-.3.6-.6.8-1.1l.8.3c-.1.3-.3.6-.6.9-.2.3-.6.5-1,.7-.4.2-.9.3-1.5.3ZM45.5,22.8h4.9c0-.7-.3-1.3-.7-1.7-.4-.4-1-.6-1.7-.6s-1.2.2-1.7.6c-.4.4-.7,1-.8,1.7Z"/>
      <path class="cls-8" d="M53.3,26.7v-6.8h.8v1.3h.2c.2-.4.4-.7.8-1,.4-.3.9-.4,1.7-.4s.9.1,1.4.3.7.5,1,.9c.2.4.4.9.4,1.6v4.1h-.8v-4.1c0-.7-.2-1.3-.6-1.6-.4-.3-.9-.5-1.5-.5s-1.3.2-1.8.7-.7,1.2-.7,2.1v3.4h-.8Z"/>
      <path class="cls-8" d="M64.4,26.7c-.4,0-.6,0-.8-.3-.2-.2-.3-.4-.3-.8v-5h-2.2v-.8h2.2v-2.5h.8v2.5h2.4v.8h-2.4v4.9c0,.3.1.4.4.4h1.6v.8h-1.8Z"/>
      <path class="cls-8" d="M71.5,26.9c-.7,0-1.3-.1-1.8-.4s-.9-.7-1.2-1.2c-.3-.5-.4-1.1-.4-1.8v-.2c0-.7.1-1.3.4-1.8.3-.5.7-.9,1.2-1.2s1.1-.4,1.7-.4,1.2.1,1.7.4c.5.3.9.6,1.2,1.1.3.5.4,1.1.4,1.8v.4h-5.8c0,.8.3,1.5.8,2,.5.5,1.1.7,1.9.7s1.1-.1,1.5-.4c.3-.3.6-.6.8-1.1l.8.3c-.1.3-.3.6-.6.9-.2.3-.6.5-1,.7-.4.2-.9.3-1.5.3ZM68.9,22.8h4.9c0-.7-.3-1.3-.7-1.7-.4-.4-1-.6-1.7-.6s-1.2.2-1.7.6c-.4.4-.7,1-.8,1.7Z"/>
      <path class="cls-8" d="M76.7,26.7v-6.8h.8v.9h.2c.1-.3.4-.5.7-.7.3-.2.7-.3,1.3-.3s1,.1,1.3.4c.3.3.6.6.7.9h.2c.2-.4.4-.7.7-.9s.8-.4,1.4-.4.9,0,1.2.3.6.5.8.8c.2.3.3.7.3,1.2v4.7h-.8v-4.6c0-.5-.1-.9-.4-1.2s-.7-.4-1.2-.4-1,.2-1.4.5-.5.9-.5,1.5v4.1h-.8v-4.6c0-.5-.1-.9-.4-1.2s-.7-.4-1.2-.4-1,.2-1.4.5c-.4.3-.5.9-.5,1.5v4.1h-.8Z"/>
      <path class="cls-8" d="M88.8,29.5v-9.6h.8v1.2h.2c.2-.4.5-.7.9-1,.4-.3,1-.4,1.7-.4s1.2.1,1.7.4c.5.3.9.7,1.2,1.2.3.5.4,1.1.4,1.9v.2c0,.7-.1,1.3-.4,1.9-.3.5-.7.9-1.2,1.2-.5.3-1.1.4-1.7.4s-.9,0-1.3-.2c-.4-.1-.6-.3-.9-.5s-.4-.4-.5-.7h-.2v4h-.8ZM92.3,26.2c.8,0,1.4-.2,1.9-.7.5-.5.7-1.2.7-2h0c0-1-.2-1.7-.7-2.2-.5-.5-1.1-.7-1.9-.7s-1.4.2-1.9.7-.7,1.2-.7,2h0c0,1,.2,1.7.7,2.2.5.5,1.1.7,1.9.7Z"/>
      <path class="cls-8" d="M101,26.9c-.7,0-1.3-.1-1.8-.4s-.9-.7-1.2-1.2c-.3-.5-.4-1.1-.4-1.8v-.2c0-.7.1-1.3.4-1.8.3-.5.7-.9,1.2-1.2s1.1-.4,1.7-.4,1.2.1,1.7.4c.5.3.9.6,1.2,1.1.3.5.4,1.1.4,1.8v.4h-5.8c0,.8.3,1.5.8,2,.5.5,1.1.7,1.9.7s1.1-.1,1.5-.4c.3-.3.6-.6.8-1.1l.8.3c-.1.3-.3.6-.6.9s-.6.5-1,.7-.9.3-1.5.3ZM98.4,22.8h4.9c0-.7-.3-1.3-.7-1.7-.4-.4-1-.6-1.7-.6s-1.2.2-1.7.6c-.4.4-.7,1-.8,1.7Z"/>
      <path class="cls-8" d="M106.2,26.7v-6.8h.8v.9h.2c.1-.3.3-.5.6-.7s.6-.2,1.1-.2h.8v.8h-.9c-.5,0-.9.1-1.2.4-.3.3-.5.7-.5,1.4v4.3h-.8Z"/>
      <path class="cls-8" d="M113.5,26.9c-.5,0-.9,0-1.3-.2-.4-.2-.7-.4-.9-.7-.2-.3-.3-.7-.3-1.1s.1-.8.3-1.1c.2-.3.5-.5.9-.7s.8-.2,1.3-.2h2.5v-.5c0-.6-.2-1-.5-1.3-.3-.3-.8-.5-1.4-.5s-1.1.1-1.4.4c-.4.3-.6.7-.7,1.2l-.8-.2c.1-.4.3-.8.5-1.1.2-.3.6-.6,1-.8s.9-.3,1.4-.3c.9,0,1.5.2,2,.7.5.4.7,1.1.7,1.9v3.3c0,.3.1.4.4.4h.7v.7h-.9c-.3,0-.5,0-.7-.3s-.3-.4-.3-.7h0c0,0-.1,0-.1,0-.1.2-.3.4-.5.6s-.4.4-.7.5c-.3.1-.7.2-1.2.2ZM113.5,26.2c.7,0,1.3-.2,1.7-.7.4-.4.7-1,.7-1.8v-.2h-2.5c-.5,0-.9.1-1.2.3s-.5.5-.5,1,.2.8.5,1,.8.4,1.3.4Z"/>
      <path class="cls-8" d="M121.9,26.7c-.4,0-.6,0-.8-.3-.2-.2-.3-.4-.3-.8v-5h-2.2v-.8h2.2v-2.5h.8v2.5h2.4v.8h-2.4v4.9c0,.3.1.4.4.4h1.6v.8h-1.8Z"/>
      <path class="cls-8" d="M128.5,26.9c-.5,0-.9-.1-1.4-.3s-.7-.5-1-.9c-.2-.4-.4-.9-.4-1.6v-4.1h.8v4.1c0,.7.2,1.3.6,1.6.4.3.9.5,1.5.5s1.3-.2,1.8-.7c.5-.5.7-1.2.7-2.1v-3.4h.8v6.8h-.8v-1.3h-.2c-.2.4-.4.7-.8,1-.4.3-.9.4-1.7.4Z"/>
      <path class="cls-8" d="M134.5,26.7v-6.8h.8v.9h.2c.1-.3.3-.5.6-.7s.6-.2,1.1-.2h.8v.8h-.9c-.5,0-.9.1-1.2.4-.3.3-.5.7-.5,1.4v4.3h-.8Z"/>
    </g>
  </g>
  <g id="_-18.25_C_bis_-14.5_C_" data-name=" -18.25 C bis -14.5 C " class="cls-18">
    <g class="cls-18">
      <path class="cls-8" d="M48.8,87.5v-.8h4.1v.8h-4.1Z"/>
      <path class="cls-8" d="M57.7,90.7v-9.3h-.2l-2.1,3.6h-1l2.5-4.2h1.7v9.8h-.9Z"/>
      <path class="cls-8" d="M64.2,90.9c-.8,0-1.4-.1-2-.3-.5-.2-1-.5-1.3-1-.3-.4-.4-.9-.4-1.4h0c0-.6.1-1.1.3-1.4.2-.3.5-.6.8-.7.3-.2.6-.3.9-.3v-.2c-.3,0-.5-.2-.8-.4s-.5-.4-.7-.7-.3-.7-.3-1.1h0c0-.7.2-1.1.5-1.5.3-.4.7-.7,1.2-.9.5-.2,1.1-.3,1.8-.3s1.3.1,1.8.3c.5.2.9.5,1.2.9s.5.8.5,1.4h0c0,.6,0,.9-.3,1.2-.2.3-.4.5-.7.7s-.6.3-.8.4v.2c.3,0,.6.1.9.3.3.2.6.4.8.7.2.3.3.7.3,1.2h0c0,.7-.1,1.2-.4,1.6-.3.4-.7.7-1.3,1-.5.2-1.2.3-2,.3ZM64.2,90.2c.8,0,1.5-.2,2-.5s.8-.8.8-1.5h0c0-.8-.3-1.3-.8-1.6s-1.2-.5-2-.5-1.5.2-2,.5c-.5.3-.8.8-.8,1.5h0c0,.8.3,1.3.8,1.6.5.3,1.2.5,2,.5ZM64.2,85.3c.8,0,1.4-.2,1.9-.5.5-.3.7-.8.7-1.3h0c0-.7-.2-1.1-.7-1.5-.5-.3-1.1-.5-1.9-.5s-1.4.2-1.9.5c-.5.3-.7.8-.7,1.3h0c0,.7.2,1.1.7,1.5s1.1.5,1.9.5Z"/>
      <path class="cls-8" d="M70.2,90.9c-.2,0-.4,0-.6-.2-.1-.1-.2-.3-.2-.6s0-.4.2-.6.3-.2.6-.2.4,0,.6.2.2.3.2.6,0,.4-.2.6c-.1.1-.3.2-.6.2Z"/>
      <path class="cls-8" d="M72.7,90.7v-1c0-.7.1-1.3.4-1.7s.6-.7,1.1-1c.5-.2,1-.5,1.6-.6l.7-.2c.5-.1.9-.3,1.2-.5.3-.2.6-.5.8-.8.2-.3.3-.7.3-1.2h0c0-.7-.2-1.3-.7-1.7s-1.1-.6-1.8-.6-1.4.2-1.9.6-.7,1-.7,1.9v.2h-.8v-.2c0-.7.1-1.3.4-1.8.3-.5.7-.9,1.2-1.1.5-.3,1.1-.4,1.8-.4s1.3.1,1.8.4c.5.2.9.6,1.2,1,.3.4.4,1,.4,1.5h0c0,.8-.1,1.3-.4,1.7-.2.4-.6.7-1,1-.4.3-1,.5-1.6.7l-.7.2c-.5.2-.9.3-1.3.5s-.6.4-.8.7c-.2.3-.3.7-.3,1.2v.3h6v.8h-6.8Z"/>
      <path class="cls-8" d="M84.6,90.9c-.7,0-1.3-.1-1.8-.4-.5-.3-.9-.7-1.2-1.1s-.4-1.1-.4-1.7v-.2h.9c0,1,.2,1.6.7,2,.5.4,1.1.6,1.8.6s1.4-.2,1.9-.7c.5-.5.7-1.1.7-1.9h0c0-.9-.2-1.5-.7-2s-1-.7-1.7-.7-.8,0-1,.2c-.3.1-.5.3-.6.5-.2.2-.3.4-.4.6h-1.3v-5.2h6.3v.8h-5.5v3.8h.2c.1-.2.3-.4.4-.6.2-.2.5-.4.8-.5.3-.1.7-.2,1.2-.2s1.1.1,1.5.4c.5.3.8.6,1.1,1.1.3.5.4,1.1.4,1.7h0c0,.8-.1,1.4-.4,1.9s-.7.9-1.2,1.2-1.1.4-1.8.4Z"/>
      <path class="cls-8" d="M97,90.9c-1.1,0-2.1-.3-2.8-1-.7-.7-1-1.7-1-3v-2.2c0-1.3.3-2.3,1-3,.7-.7,1.6-1,2.8-1s2,.3,2.6,1c.6.6.9,1.5.9,2.6h0c0,0-.9,0-.9,0h0c0-.9-.2-1.6-.6-2.1-.4-.5-1.1-.8-2-.8s-1.6.3-2.1.8c-.5.6-.8,1.3-.8,2.3v2.3c0,1,.3,1.8.8,2.3.5.6,1.2.8,2.1.8s1.6-.3,2-.8c.4-.5.6-1.2.6-2v-.2h.9v.2c0,1.1-.3,2-.9,2.6-.6.6-1.5,1-2.6,1Z"/>
      <path class="cls-8" d="M104,85c-.4,0-.7,0-1.1-.3-.3-.2-.6-.4-.8-.7s-.3-.7-.3-1.1,0-.8.3-1.1.4-.6.8-.7c.3-.2.7-.3,1.1-.3s.8,0,1.1.3c.3.2.6.4.7.7.2.3.3.7.3,1.1s0,.8-.3,1.1c-.2.3-.4.6-.7.7-.3.2-.7.3-1.1.3ZM104,84.2c.4,0,.7-.1,1-.4.2-.2.4-.6.4-1s-.1-.7-.4-1c-.2-.2-.6-.4-1-.4s-.7.1-1,.4-.4.6-.4,1,.1.7.4,1c.2.2.6.4,1,.4Z"/>
      <path class="cls-8" d="M115.1,90.9c-.7,0-1.3-.1-1.7-.4-.4-.3-.7-.6-.9-1h-.2v1.2h-.8v-9.8h.8v4.2h.2c.1-.2.3-.5.5-.7.2-.2.5-.4.9-.5s.8-.2,1.3-.2,1.2.1,1.7.4c.5.3.9.7,1.2,1.2.3.5.4,1.2.4,1.9v.2c0,.7-.1,1.3-.4,1.9-.3.5-.7.9-1.2,1.2-.5.3-1,.4-1.7.4ZM114.9,90.2c.8,0,1.4-.2,1.9-.7.5-.5.7-1.2.7-2h0c0-1-.2-1.7-.7-2.2-.5-.5-1.1-.7-1.9-.7s-1.4.2-1.9.7c-.5.5-.7,1.2-.7,2h0c0,1,.2,1.7.7,2.2.5.5,1.1.7,1.9.7Z"/>
      <path class="cls-8" d="M120.9,82.8c-.2,0-.4,0-.5-.2-.1-.1-.2-.3-.2-.5s0-.4.2-.5c.1-.1.3-.2.5-.2s.4,0,.5.2.2.3.2.5,0,.4-.2.5c-.1.1-.3.2-.5.2ZM120.5,90.7v-6.8h.8v6.8h-.8Z"/>
      <path class="cls-8" d="M126.5,90.9c-.8,0-1.5-.2-2.1-.6-.6-.4-.9-1-1.1-1.9l.8-.2c0,.5.2.9.5,1.2.2.3.5.5.8.6.3.1.7.2,1.1.2.6,0,1-.1,1.4-.3.3-.2.5-.5.5-.9s-.2-.7-.5-.9c-.3-.2-.7-.3-1.3-.4h-.6c-.4-.2-.8-.3-1.2-.5s-.6-.4-.8-.6c-.2-.3-.3-.6-.3-1,0-.6.2-1,.7-1.4.5-.3,1.1-.5,1.8-.5s1.4.2,1.9.5c.5.3.8.9.9,1.5l-.8.2c0-.5-.3-.9-.7-1.1-.3-.2-.8-.3-1.3-.3s-.9,0-1.2.3c-.3.2-.5.5-.5.9s.1.6.4.8c.3.2.7.3,1.1.4h.6c.5.2.9.3,1.3.4s.7.3.9.6c.2.3.3.6.3,1,0,.6-.2,1.1-.7,1.5-.5.4-1.1.5-2,.5Z"/>
      <path class="cls-8" d="M134.3,87.5v-.8h4.1v.8h-4.1Z"/>
      <path class="cls-8" d="M143.2,90.7v-9.3h-.2l-2.1,3.6h-1l2.5-4.2h1.7v9.8h-.9Z"/>
      <path class="cls-8" d="M151,90.7v-2h-5.2v-1l4.4-6.7h1.7v7h1.7v.8h-1.7v2h-.9ZM146.7,88h4.3v-6.5h-.2l-4.2,6.4h0Z"/>
      <path class="cls-8" d="M155.6,90.9c-.2,0-.4,0-.6-.2-.1-.1-.2-.3-.2-.6s0-.4.2-.6.3-.2.6-.2.4,0,.6.2c.1.1.2.3.2.6s0,.4-.2.6c-.2.1-.3.2-.6.2Z"/>
      <path class="cls-8" d="M161.5,90.9c-.7,0-1.3-.1-1.8-.4-.5-.3-.9-.7-1.2-1.1s-.4-1.1-.4-1.7v-.2h.9c0,1,.2,1.6.7,2,.5.4,1.1.6,1.8.6s1.4-.2,1.9-.7c.5-.5.7-1.1.7-1.9h0c0-.9-.2-1.5-.7-2-.4-.5-1-.7-1.7-.7s-.8,0-1,.2c-.3.1-.5.3-.6.5s-.3.4-.4.6h-1.3v-5.2h6.3v.8h-5.5v3.8h.2c.1-.2.3-.4.4-.6.2-.2.5-.4.8-.5.3-.1.7-.2,1.2-.2s1.1.1,1.5.4c.5.3.8.6,1.1,1.1.3.5.4,1.1.4,1.7h0c0,.8-.1,1.4-.4,1.9s-.7.9-1.2,1.2-1.1.4-1.8.4Z"/>
      <path class="cls-8" d="M173.9,90.9c-1.1,0-2.1-.3-2.8-1-.7-.7-1-1.7-1-3v-2.2c0-1.3.3-2.3,1-3,.7-.7,1.6-1,2.8-1s2,.3,2.6,1c.6.6.9,1.5.9,2.6h0c0,0-.9,0-.9,0h0c0-.9-.2-1.6-.6-2.1-.4-.5-1.1-.8-2-.8s-1.6.3-2.1.8c-.5.6-.8,1.3-.8,2.3v2.3c0,1,.3,1.8.8,2.3.5.6,1.2.8,2.1.8s1.6-.3,2-.8c.4-.5.6-1.2.6-2v-.2h.9v.2c0,1.1-.3,2-.9,2.6-.6.6-1.5,1-2.6,1Z"/>
      <path class="cls-8" d="M180.8,85c-.4,0-.7,0-1.1-.3-.3-.2-.6-.4-.8-.7s-.3-.7-.3-1.1,0-.8.3-1.1.4-.6.8-.7c.3-.2.7-.3,1.1-.3s.8,0,1.1.3c.3.2.6.4.7.7.2.3.3.7.3,1.1s0,.8-.3,1.1c-.2.3-.4.6-.7.7-.3.2-.7.3-1.1.3ZM180.8,84.2c.4,0,.7-.1,1-.4.2-.2.4-.6.4-1s-.1-.7-.4-1c-.2-.2-.6-.4-1-.4s-.7.1-1,.4-.4.6-.4,1,.1.7.4,1c.2.2.6.4,1,.4Z"/>
    </g>
  </g>
  <g id="_-14.5_C_bis_-10.75_C_" data-name=" -14.5 C bis -10.75 C " class="cls-18">
    <g class="cls-18">
      <path class="cls-8" d="M49.3,119.5v-.8h4.1v.8h-4.1Z"/>
      <path class="cls-8" d="M58.2,122.7v-9.3h-.2l-2.1,3.6h-1l2.5-4.2h1.7v9.8h-.9Z"/>
      <path class="cls-8" d="M66,122.7v-2h-5.2v-1l4.4-6.7h1.7v7h1.7v.8h-1.7v2h-.9ZM61.7,120h4.3v-6.5h-.2l-4.2,6.4h0Z"/>
      <path class="cls-8" d="M70.6,122.9c-.2,0-.4,0-.6-.2-.1-.1-.2-.3-.2-.6s0-.4.2-.6.3-.2.6-.2.4,0,.6.2.2.3.2.6,0,.4-.2.6c-.1.1-.3.2-.6.2Z"/>
      <path class="cls-8" d="M76.4,122.9c-.7,0-1.3-.1-1.8-.4-.5-.3-.9-.7-1.2-1.1s-.4-1.1-.4-1.7v-.2h.9c0,1,.2,1.6.7,2,.5.4,1.1.6,1.8.6s1.4-.2,1.9-.7c.5-.5.7-1.1.7-1.9h0c0-.9-.2-1.5-.7-2s-1-.7-1.7-.7-.8,0-1,.2c-.3.1-.5.3-.6.5-.2.2-.3.4-.4.6h-1.3v-5.2h6.3v.8h-5.5v3.8h.2c.1-.2.3-.4.4-.6.2-.2.5-.4.8-.5.3-.1.7-.2,1.2-.2s1.1.1,1.5.4c.5.3.8.6,1.1,1.1.3.5.4,1.1.4,1.7h0c0,.8-.1,1.4-.4,1.9s-.7.9-1.2,1.2-1.1.4-1.8.4Z"/>
      <path class="cls-8" d="M88.9,122.9c-1.1,0-2.1-.3-2.8-1-.7-.7-1-1.7-1-3v-2.2c0-1.3.3-2.3,1-3,.7-.7,1.6-1,2.8-1s2,.3,2.6,1c.6.6.9,1.5.9,2.6h0c0,0-.9,0-.9,0h0c0-.9-.2-1.6-.6-2.1-.4-.5-1.1-.8-2-.8s-1.6.3-2.1.8c-.5.6-.8,1.3-.8,2.3v2.3c0,1,.3,1.8.8,2.3.5.6,1.2.8,2.1.8s1.6-.3,2-.8c.4-.5.6-1.2.6-2v-.2h.9v.2c0,1.1-.3,2-.9,2.6-.6.6-1.5,1-2.6,1Z"/>
      <path class="cls-8" d="M95.8,117c-.4,0-.7,0-1.1-.3-.3-.2-.6-.4-.8-.7-.2-.3-.3-.7-.3-1.1s0-.8.3-1.1c.2-.3.4-.6.8-.7.3-.2.7-.3,1.1-.3s.8,0,1.1.3c.3.2.6.4.7.7.2.3.3.7.3,1.1s0,.8-.3,1.1c-.2.3-.4.6-.7.7-.3.2-.7.3-1.1.3ZM95.8,116.2c.4,0,.7-.1,1-.4s.4-.6.4-1-.1-.7-.4-1c-.2-.2-.6-.4-1-.4s-.7.1-1,.4-.4.6-.4,1,.1.7.4,1c.2.2.6.4,1,.4Z"/>
      <path class="cls-8" d="M106.9,122.9c-.7,0-1.3-.1-1.7-.4s-.7-.6-.9-1h-.2v1.2h-.8v-9.8h.8v4.2h.2c.1-.2.3-.5.5-.7.2-.2.5-.4.9-.5.3-.1.8-.2,1.3-.2s1.2.1,1.7.4c.5.3.9.7,1.2,1.2.3.5.4,1.2.4,1.9v.2c0,.7-.1,1.3-.4,1.9s-.7.9-1.2,1.2c-.5.3-1,.4-1.7.4ZM106.7,122.2c.8,0,1.4-.2,1.9-.7.5-.5.7-1.2.7-2h0c0-1-.2-1.7-.7-2.2-.5-.5-1.1-.7-1.9-.7s-1.4.2-1.9.7-.7,1.2-.7,2h0c0,1,.2,1.7.7,2.2.5.5,1.1.7,1.9.7Z"/>
      <path class="cls-8" d="M112.8,114.8c-.2,0-.4,0-.5-.2s-.2-.3-.2-.5,0-.4.2-.5c.1-.1.3-.2.5-.2s.4,0,.5.2.2.3.2.5,0,.4-.2.5c-.1.1-.3.2-.5.2ZM112.3,122.7v-6.8h.8v6.8h-.8Z"/>
      <path class="cls-8" d="M118.3,122.9c-.8,0-1.5-.2-2.1-.6-.6-.4-.9-1-1.1-1.9l.8-.2c0,.5.2.9.5,1.2.2.3.5.5.8.6.3.1.7.2,1.1.2.6,0,1-.1,1.4-.3.3-.2.5-.5.5-.9s-.2-.7-.5-.9c-.3-.2-.7-.3-1.3-.4h-.6c-.4-.2-.8-.3-1.2-.5s-.6-.4-.8-.6c-.2-.3-.3-.6-.3-1,0-.6.2-1,.7-1.4s1.1-.5,1.8-.5,1.4.2,1.9.5c.5.3.8.9.9,1.5l-.8.2c0-.5-.3-.9-.7-1.1-.4-.2-.8-.3-1.3-.3s-.9,0-1.2.3c-.3.2-.5.5-.5.9s.1.6.4.8c.3.2.7.3,1.1.4h.6c.5.2.9.3,1.3.4.4.1.7.3.9.6.2.3.3.6.3,1,0,.6-.2,1.1-.7,1.5-.5.4-1.1.5-2,.5Z"/>
      <path class="cls-8" d="M126.2,119.5v-.8h4.1v.8h-4.1Z"/>
      <path class="cls-8" d="M135.1,122.7v-9.3h-.2l-2.1,3.6h-1l2.5-4.2h1.7v9.8h-.9Z"/>
      <path class="cls-8" d="M141.6,122.9c-1.1,0-2-.3-2.6-1-.6-.7-1-1.7-1-3v-2.2c0-1.3.3-2.3,1-3,.6-.7,1.5-1,2.6-1s2,.3,2.6,1c.6.7,1,1.7,1,3v2.2c0,1.3-.3,2.3-1,3-.6.7-1.5,1-2.6,1ZM141.6,122.2c.9,0,1.6-.3,2-.8.5-.6.7-1.3.7-2.3v-2.4c0-1-.2-1.7-.7-2.3-.5-.6-1.1-.8-2-.8s-1.6.3-2,.8c-.5.6-.7,1.3-.7,2.3v2.4c0,1,.2,1.7.7,2.3.5.6,1.1.8,2,.8Z"/>
      <path class="cls-8" d="M147.7,122.9c-.2,0-.4,0-.6-.2-.1-.1-.2-.3-.2-.6s0-.4.2-.6.3-.2.6-.2.4,0,.6.2.2.3.2.6,0,.4-.2.6c-.1.1-.3.2-.6.2Z"/>
      <path class="cls-8" d="M151.6,122.7v-.3c0-.3,0-.6,0-.8,0-.2.2-.5.3-.8l3.9-7h0c0-.1-6.1-.1-6.1-.1v-.8h7v1l-4.1,7.3c-.1.2-.2.4-.2.5,0,.2,0,.4,0,.6v.3h-.9Z"/>
      <path class="cls-8" d="M161.5,122.9c-.7,0-1.3-.1-1.8-.4s-.9-.7-1.2-1.1c-.3-.5-.4-1.1-.4-1.7v-.2h.9c0,1,.2,1.6.7,2s1.1.6,1.8.6,1.4-.2,1.9-.7c.5-.5.7-1.1.7-1.9h0c0-.9-.2-1.5-.7-2-.4-.5-1-.7-1.7-.7s-.8,0-1,.2c-.3.1-.5.3-.6.5s-.3.4-.4.6h-1.3v-5.2h6.3v.8h-5.5v3.8h.2c.1-.2.3-.4.4-.6.2-.2.5-.4.8-.5.3-.1.7-.2,1.2-.2s1.1.1,1.5.4c.5.3.8.6,1.1,1.1.3.5.4,1.1.4,1.7h0c0,.8-.1,1.4-.4,1.9s-.7.9-1.2,1.2-1.1.4-1.8.4Z"/>
      <path class="cls-8" d="M174,122.9c-1.1,0-2.1-.3-2.8-1-.7-.7-1-1.7-1-3v-2.2c0-1.3.3-2.3,1-3,.7-.7,1.6-1,2.8-1s2,.3,2.6,1c.6.6.9,1.5.9,2.6h0c0,0-.9,0-.9,0h0c0-.9-.2-1.6-.6-2.1-.4-.5-1.1-.8-2-.8s-1.6.3-2.1.8c-.5.6-.8,1.3-.8,2.3v2.3c0,1,.3,1.8.8,2.3.5.6,1.2.8,2.1.8s1.6-.3,2-.8c.4-.5.6-1.2.6-2v-.2h.9v.2c0,1.1-.3,2-.9,2.6-.6.6-1.5,1-2.6,1Z"/>
      <path class="cls-8" d="M180.9,117c-.4,0-.7,0-1.1-.3-.3-.2-.6-.4-.8-.7-.2-.3-.3-.7-.3-1.1s0-.8.3-1.1c.2-.3.4-.6.8-.7.3-.2.7-.3,1.1-.3s.8,0,1.1.3c.3.2.6.4.7.7s.3.7.3,1.1,0,.8-.3,1.1-.4.6-.7.7c-.3.2-.7.3-1.1.3ZM180.9,116.2c.4,0,.7-.1,1-.4.2-.2.4-.6.4-1s-.1-.7-.4-1-.6-.4-1-.4-.7.1-1,.4-.4.6-.4,1,.1.7.4,1c.2.2.6.4,1,.4Z"/>
    </g>
  </g>
  <g id="_-10.75_C_bis_-7_C_" data-name=" -10.75 C bis -7 C " class="cls-18">
    <g class="cls-18">
      <path class="cls-8" d="M49,153.5v-.8h4.1v.8h-4.1Z"/>
      <path class="cls-8" d="M57.9,156.7v-9.3h-.2l-2.1,3.6h-1l2.5-4.2h1.7v9.8h-.9Z"/>
      <path class="cls-8" d="M64.4,156.9c-1.1,0-2-.3-2.6-1-.6-.7-1-1.7-1-3v-2.2c0-1.3.3-2.3,1-3,.6-.7,1.5-1,2.6-1s2,.3,2.6,1c.6.7,1,1.7,1,3v2.2c0,1.3-.3,2.3-1,3-.6.7-1.5,1-2.6,1ZM64.4,156.2c.9,0,1.6-.3,2-.8.5-.6.7-1.3.7-2.3v-2.4c0-1-.2-1.7-.7-2.3-.5-.6-1.1-.8-2-.8s-1.6.3-2,.8c-.5.6-.7,1.3-.7,2.3v2.4c0,1,.2,1.7.7,2.3.5.6,1.1.8,2,.8Z"/>
      <path class="cls-8" d="M70.6,156.9c-.2,0-.4,0-.6-.2-.1-.1-.2-.3-.2-.6s0-.4.2-.6.3-.2.6-.2.4,0,.6.2.2.3.2.6,0,.4-.2.6c-.1.1-.3.2-.6.2Z"/>
      <path class="cls-8" d="M74.4,156.7v-.3c0-.3,0-.6,0-.8,0-.2.2-.5.3-.8l3.9-7h0c0-.1-6.1-.1-6.1-.1v-.8h7v1l-4.1,7.3c-.1.2-.2.4-.2.5,0,.2,0,.4,0,.6v.3h-.9Z"/>
      <path class="cls-8" d="M84.4,156.9c-.7,0-1.3-.1-1.8-.4-.5-.3-.9-.7-1.2-1.1-.3-.5-.4-1.1-.4-1.7v-.2h.9c0,1,.2,1.6.7,2,.5.4,1.1.6,1.8.6s1.4-.2,1.9-.7c.5-.5.7-1.1.7-1.9h0c0-.9-.2-1.5-.7-2-.4-.5-1-.7-1.7-.7s-.8,0-1,.2c-.3.1-.5.3-.6.5-.2.2-.3.4-.4.6h-1.3v-5.2h6.3v.8h-5.5v3.8h.2c.1-.2.3-.4.4-.6.2-.2.5-.4.8-.5s.7-.2,1.2-.2,1.1.1,1.5.4c.5.3.8.6,1.1,1.1s.4,1.1.4,1.7h0c0,.8-.1,1.4-.4,1.9s-.7.9-1.2,1.2-1.1.4-1.8.4Z"/>
      <path class="cls-8" d="M96.8,156.9c-1.1,0-2.1-.3-2.8-1-.7-.7-1-1.7-1-3v-2.2c0-1.3.3-2.3,1-3,.7-.7,1.6-1,2.8-1s2,.3,2.6,1c.6.6.9,1.5.9,2.6h0c0,0-.9,0-.9,0h0c0-.9-.2-1.6-.6-2.1-.4-.5-1.1-.8-2-.8s-1.6.3-2.1.8c-.5.6-.8,1.3-.8,2.3v2.3c0,1,.3,1.8.8,2.3.5.6,1.2.8,2.1.8s1.6-.3,2-.8c.4-.5.6-1.2.6-2v-.2h.9v.2c0,1.1-.3,2-.9,2.6-.6.6-1.5,1-2.6,1Z"/>
      <path class="cls-8" d="M103.7,151c-.4,0-.7,0-1.1-.3-.3-.2-.6-.4-.8-.7-.2-.3-.3-.7-.3-1.1s0-.8.3-1.1c.2-.3.4-.6.8-.7.3-.2.7-.3,1.1-.3s.8,0,1.1.3c.3.2.6.4.7.7s.3.7.3,1.1,0,.8-.3,1.1-.4.6-.7.7c-.3.2-.7.3-1.1.3ZM103.7,150.2c.4,0,.7-.1,1-.4.2-.2.4-.6.4-1s-.1-.7-.4-1-.6-.4-1-.4-.7.1-1,.4-.4.6-.4,1,.1.7.4,1c.2.2.6.4,1,.4Z"/>
      <path class="cls-8" d="M114.8,156.9c-.7,0-1.3-.1-1.7-.4s-.7-.6-.9-1h-.2v1.2h-.8v-9.8h.8v4.2h.2c.1-.2.3-.5.5-.7.2-.2.5-.4.9-.5.3-.1.8-.2,1.3-.2s1.2.1,1.7.4c.5.3.9.7,1.2,1.2.3.5.4,1.2.4,1.9v.2c0,.7-.1,1.3-.4,1.9s-.7.9-1.2,1.2c-.5.3-1,.4-1.7.4ZM114.7,156.2c.8,0,1.4-.2,1.9-.7.5-.5.7-1.2.7-2h0c0-1-.2-1.7-.7-2.2-.5-.5-1.1-.7-1.9-.7s-1.4.2-1.9.7-.7,1.2-.7,2h0c0,1,.2,1.7.7,2.2.5.5,1.1.7,1.9.7Z"/>
      <path class="cls-8" d="M120.7,148.8c-.2,0-.4,0-.5-.2s-.2-.3-.2-.5,0-.4.2-.5c.1-.1.3-.2.5-.2s.4,0,.5.2.2.3.2.5,0,.4-.2.5c-.1.1-.3.2-.5.2ZM120.3,156.7v-6.8h.8v6.8h-.8Z"/>
      <path class="cls-8" d="M126.3,156.9c-.8,0-1.5-.2-2.1-.6-.6-.4-.9-1-1.1-1.9l.8-.2c0,.5.2.9.5,1.2.2.3.5.5.8.6s.7.2,1.1.2c.6,0,1-.1,1.4-.3s.5-.5.5-.9-.2-.7-.5-.9c-.3-.2-.7-.3-1.3-.4h-.6c-.4-.2-.8-.3-1.2-.5-.3-.2-.6-.4-.8-.6-.2-.3-.3-.6-.3-1,0-.6.2-1,.7-1.4.5-.3,1.1-.5,1.8-.5s1.4.2,1.9.5c.5.3.8.9.9,1.5l-.8.2c0-.5-.3-.9-.7-1.1-.3-.2-.8-.3-1.3-.3s-.9,0-1.2.3c-.3.2-.5.5-.5.9s.1.6.4.8.7.3,1.1.4h.6c.5.2.9.3,1.3.4s.7.3.9.6c.2.3.3.6.3,1,0,.6-.2,1.1-.7,1.5-.5.4-1.1.5-2,.5Z"/>
      <path class="cls-8" d="M134.1,153.5v-.8h4.1v.8h-4.1Z"/>
      <path class="cls-8" d="M141.6,156.7v-.3c0-.3,0-.6,0-.8,0-.2.2-.5.3-.8l3.9-7h0c0-.1-6.1-.1-6.1-.1v-.8h7v1l-4.1,7.3c-.1.2-.2.4-.2.5,0,.2,0,.4,0,.6v.3h-.9Z"/>
      <path class="cls-8" d="M155.6,156.9c-1.1,0-2.1-.3-2.8-1-.7-.7-1-1.7-1-3v-2.2c0-1.3.3-2.3,1-3,.7-.7,1.6-1,2.8-1s2,.3,2.6,1c.6.6.9,1.5.9,2.6h0c0,0-.9,0-.9,0h0c0-.9-.2-1.6-.6-2.1s-1.1-.8-2-.8-1.6.3-2.1.8c-.5.6-.8,1.3-.8,2.3v2.3c0,1,.3,1.8.8,2.3.5.6,1.2.8,2.1.8s1.6-.3,2-.8.6-1.2.6-2v-.2h.9v.2c0,1.1-.3,2-.9,2.6-.6.6-1.5,1-2.6,1Z"/>
      <path class="cls-8" d="M162.6,151c-.4,0-.7,0-1.1-.3-.3-.2-.6-.4-.8-.7s-.3-.7-.3-1.1,0-.8.3-1.1.4-.6.8-.7c.3-.2.7-.3,1.1-.3s.8,0,1.1.3c.3.2.6.4.7.7.2.3.3.7.3,1.1s0,.8-.3,1.1c-.2.3-.4.6-.7.7-.3.2-.7.3-1.1.3ZM162.6,150.2c.4,0,.7-.1,1-.4.2-.2.4-.6.4-1s-.1-.7-.4-1c-.2-.2-.6-.4-1-.4s-.7.1-1,.4-.4.6-.4,1,.1.7.4,1c.2.2.6.4,1,.4Z"/>
    </g>
  </g>
  <g id="_-7_C_bis_-3.25_C_" data-name=" -7 C bis -3.25 C " class="cls-18">
    <g class="cls-18">
      <path class="cls-8" d="M49.6,187.5v-.8h4.1v.8h-4.1Z"/>
      <path class="cls-8" d="M57.1,190.7v-.3c0-.3,0-.6,0-.8,0-.2.2-.5.3-.8l3.9-7h0c0-.1-6.1-.1-6.1-.1v-.8h7v1l-4.1,7.3c-.1.2-.2.4-.2.5,0,.2,0,.4,0,.6v.3h-.9Z"/>
      <path class="cls-8" d="M71.1,190.9c-1.1,0-2.1-.3-2.8-1-.7-.7-1-1.7-1-3v-2.2c0-1.3.3-2.3,1-3,.7-.7,1.6-1,2.8-1s2,.3,2.6,1c.6.6.9,1.5.9,2.6h0c0,0-.9,0-.9,0h0c0-.9-.2-1.6-.6-2.1-.4-.5-1.1-.8-2-.8s-1.6.3-2.1.8c-.5.6-.8,1.3-.8,2.3v2.3c0,1,.3,1.8.8,2.3.5.6,1.2.8,2.1.8s1.6-.3,2-.8c.4-.5.6-1.2.6-2v-.2h.9v.2c0,1.1-.3,2-.9,2.6-.6.6-1.5,1-2.6,1Z"/>
      <path class="cls-8" d="M78.1,185c-.4,0-.7,0-1.1-.3-.3-.2-.6-.4-.8-.7-.2-.3-.3-.7-.3-1.1s0-.8.3-1.1c.2-.3.4-.6.8-.7.3-.2.7-.3,1.1-.3s.8,0,1.1.3c.3.2.6.4.7.7.2.3.3.7.3,1.1s0,.8-.3,1.1c-.2.3-.4.6-.7.7-.3.2-.7.3-1.1.3ZM78.1,184.2c.4,0,.7-.1,1-.4s.4-.6.4-1-.1-.7-.4-1c-.2-.2-.6-.4-1-.4s-.7.1-1,.4-.4.6-.4,1,.1.7.4,1c.2.2.6.4,1,.4Z"/>
      <path class="cls-8" d="M89.2,190.9c-.7,0-1.3-.1-1.7-.4-.4-.3-.7-.6-.9-1h-.2v1.2h-.8v-9.8h.8v4.2h.2c.1-.2.3-.5.5-.7s.5-.4.9-.5.8-.2,1.3-.2,1.2.1,1.7.4c.5.3.9.7,1.2,1.2.3.5.4,1.2.4,1.9v.2c0,.7-.1,1.3-.4,1.9s-.7.9-1.2,1.2c-.5.3-1,.4-1.7.4ZM89,190.2c.8,0,1.4-.2,1.9-.7.5-.5.7-1.2.7-2h0c0-1-.2-1.7-.7-2.2-.5-.5-1.1-.7-1.9-.7s-1.4.2-1.9.7-.7,1.2-.7,2h0c0,1,.2,1.7.7,2.2.5.5,1.1.7,1.9.7Z"/>
      <path class="cls-8" d="M95,182.8c-.2,0-.4,0-.5-.2-.1-.1-.2-.3-.2-.5s0-.4.2-.5c.1-.1.3-.2.5-.2s.4,0,.5.2c.1.1.2.3.2.5s0,.4-.2.5c-.1.1-.3.2-.5.2ZM94.6,190.7v-6.8h.8v6.8h-.8Z"/>
      <path class="cls-8" d="M100.6,190.9c-.8,0-1.5-.2-2.1-.6-.6-.4-.9-1-1.1-1.9l.8-.2c0,.5.2.9.5,1.2.2.3.5.5.8.6.3.1.7.2,1.1.2.6,0,1-.1,1.4-.3.3-.2.5-.5.5-.9s-.2-.7-.5-.9c-.3-.2-.7-.3-1.3-.4h-.6c-.4-.2-.8-.3-1.2-.5-.3-.2-.6-.4-.8-.6-.2-.3-.3-.6-.3-1,0-.6.2-1,.7-1.4.5-.3,1.1-.5,1.8-.5s1.4.2,1.9.5c.5.3.8.9.9,1.5l-.8.2c0-.5-.3-.9-.7-1.1-.4-.2-.8-.3-1.3-.3s-.9,0-1.2.3c-.3.2-.5.5-.5.9s.1.6.4.8c.3.2.7.3,1.1.4h.6c.5.2.9.3,1.3.4.4.1.7.3.9.6.2.3.3.6.3,1,0,.6-.2,1.1-.7,1.5-.5.4-1.1.5-2,.5Z"/>
      <path class="cls-8" d="M108.4,187.5v-.8h4.1v.8h-4.1Z"/>
      <path class="cls-8" d="M118,190.9c-.7,0-1.3-.1-1.8-.4-.5-.3-1-.6-1.3-1.1-.3-.5-.5-1.1-.5-1.8v-.3h.9v.3c0,.8.2,1.4.7,1.9.5.5,1.1.7,1.9.7s1.4-.2,1.9-.6c.4-.4.7-1,.7-1.6h0c0-.6-.1-1-.3-1.3s-.5-.5-.9-.7c-.4-.1-.8-.2-1.3-.2h-1.4v-1.2l4-2.7h0c0-.1-5.9-.1-5.9-.1v-.8h6.7v1.3l-3.9,2.7h0c0,.1.8.1.8.1.6,0,1.1.1,1.6.3.5.2.9.5,1.1.9.3.4.4.9.4,1.5h0c0,.7-.1,1.3-.4,1.7-.3.5-.7.8-1.2,1.1-.5.3-1.1.4-1.8.4Z"/>
      <path class="cls-8" d="M123.8,190.9c-.2,0-.4,0-.6-.2-.1-.1-.2-.3-.2-.6s0-.4.2-.6.3-.2.6-.2.4,0,.6.2.2.3.2.6,0,.4-.2.6c-.1.1-.3.2-.6.2Z"/>
      <path class="cls-8" d="M126.3,190.7v-1c0-.7.1-1.3.4-1.7s.6-.7,1.1-1c.5-.2,1-.5,1.6-.6l.7-.2c.5-.1.9-.3,1.2-.5.3-.2.6-.5.8-.8s.3-.7.3-1.2h0c0-.7-.2-1.3-.7-1.7-.5-.4-1.1-.6-1.8-.6s-1.4.2-1.9.6c-.5.4-.7,1-.7,1.9v.2h-.8v-.2c0-.7.1-1.3.4-1.8s.7-.9,1.2-1.1c.5-.3,1.1-.4,1.8-.4s1.3.1,1.8.4c.5.2.9.6,1.2,1s.4,1,.4,1.5h0c0,.8-.1,1.3-.4,1.7-.2.4-.6.7-1,1-.4.3-1,.5-1.6.7l-.7.2c-.5.2-.9.3-1.3.5-.4.2-.6.4-.8.7-.2.3-.3.7-.3,1.2v.3h6v.8h-6.8Z"/>
      <path class="cls-8" d="M138.1,190.9c-.7,0-1.3-.1-1.8-.4-.5-.3-.9-.7-1.2-1.1-.3-.5-.4-1.1-.4-1.7v-.2h.9c0,1,.2,1.6.7,2,.5.4,1.1.6,1.8.6s1.4-.2,1.9-.7c.5-.5.7-1.1.7-1.9h0c0-.9-.2-1.5-.7-2-.4-.5-1-.7-1.7-.7s-.8,0-1,.2c-.3.1-.5.3-.6.5-.2.2-.3.4-.4.6h-1.3v-5.2h6.3v.8h-5.5v3.8h.2c.1-.2.3-.4.4-.6.2-.2.5-.4.8-.5s.7-.2,1.2-.2,1.1.1,1.5.4c.5.3.8.6,1.1,1.1s.4,1.1.4,1.7h0c0,.8-.1,1.4-.4,1.9s-.7.9-1.2,1.2-1.1.4-1.8.4Z"/>
      <path class="cls-8" d="M150.6,190.9c-1.1,0-2.1-.3-2.8-1-.7-.7-1-1.7-1-3v-2.2c0-1.3.3-2.3,1-3,.7-.7,1.6-1,2.8-1s2,.3,2.6,1c.6.6.9,1.5.9,2.6h0c0,0-.9,0-.9,0h0c0-.9-.2-1.6-.6-2.1s-1.1-.8-2-.8-1.6.3-2.1.8c-.5.6-.8,1.3-.8,2.3v2.3c0,1,.3,1.8.8,2.3.5.6,1.2.8,2.1.8s1.6-.3,2-.8.6-1.2.6-2v-.2h.9v.2c0,1.1-.3,2-.9,2.6-.6.6-1.5,1-2.6,1Z"/>
      <path class="cls-8" d="M157.5,185c-.4,0-.7,0-1.1-.3-.3-.2-.6-.4-.8-.7s-.3-.7-.3-1.1,0-.8.3-1.1.4-.6.8-.7c.3-.2.7-.3,1.1-.3s.8,0,1.1.3c.3.2.6.4.7.7.2.3.3.7.3,1.1s0,.8-.3,1.1c-.2.3-.4.6-.7.7-.3.2-.7.3-1.1.3ZM157.5,184.2c.4,0,.7-.1,1-.4.2-.2.4-.6.4-1s-.1-.7-.4-1c-.2-.2-.6-.4-1-.4s-.7.1-1,.4-.4.6-.4,1,.1.7.4,1c.2.2.6.4,1,.4Z"/>
    </g>
  </g>
  <g id="_-3.25_C_bis_0.5_C_" data-name=" -3.25 C bis 0.5 C " class="cls-18">
    <g class="cls-18">
      <path class="cls-8" d="M48.8,219.5v-.8h4.1v.8h-4.1Z"/>
      <path class="cls-8" d="M58.3,222.9c-.7,0-1.3-.1-1.8-.4-.5-.3-1-.6-1.3-1.1s-.5-1.1-.5-1.8v-.3h.9v.3c0,.8.2,1.4.7,1.9.5.5,1.1.7,1.9.7s1.4-.2,1.9-.6c.4-.4.7-1,.7-1.6h0c0-.6-.1-1-.3-1.3-.2-.3-.5-.5-.9-.7-.4-.1-.8-.2-1.3-.2h-1.4v-1.2l4-2.7h0c0-.1-5.9-.1-5.9-.1v-.8h6.7v1.3l-3.9,2.7h0c0,.1.8.1.8.1.6,0,1.1.1,1.6.3s.9.5,1.1.9c.3.4.4.9.4,1.5h0c0,.7-.1,1.3-.4,1.7-.3.5-.7.8-1.2,1.1s-1.1.4-1.8.4Z"/>
      <path class="cls-8" d="M64.2,222.9c-.2,0-.4,0-.6-.2-.1-.1-.2-.3-.2-.6s0-.4.2-.6.3-.2.6-.2.4,0,.6.2.2.3.2.6,0,.4-.2.6c-.1.1-.3.2-.6.2Z"/>
      <path class="cls-8" d="M66.6,222.7v-1c0-.7.1-1.3.4-1.7s.6-.7,1.1-1c.5-.2,1-.5,1.6-.6l.7-.2c.5-.1.9-.3,1.2-.5.3-.2.6-.5.8-.8.2-.3.3-.7.3-1.2h0c0-.7-.2-1.3-.7-1.7s-1.1-.6-1.8-.6-1.4.2-1.9.6-.7,1-.7,1.9v.2h-.8v-.2c0-.7.1-1.3.4-1.8.3-.5.7-.9,1.2-1.1.5-.3,1.1-.4,1.8-.4s1.3.1,1.8.4c.5.2.9.6,1.2,1,.3.4.4,1,.4,1.5h0c0,.8-.1,1.3-.4,1.7-.2.4-.6.7-1,1-.4.3-1,.5-1.6.7l-.7.2c-.5.2-.9.3-1.3.5s-.6.4-.8.7c-.2.3-.3.7-.3,1.2v.3h6v.8h-6.8Z"/>
      <path class="cls-8" d="M78.5,222.9c-.7,0-1.3-.1-1.8-.4-.5-.3-.9-.7-1.2-1.1s-.4-1.1-.4-1.7v-.2h.9c0,1,.2,1.6.7,2,.5.4,1.1.6,1.8.6s1.4-.2,1.9-.7c.5-.5.7-1.1.7-1.9h0c0-.9-.2-1.5-.7-2s-1-.7-1.7-.7-.8,0-1,.2c-.3.1-.5.3-.6.5-.2.2-.3.4-.4.6h-1.3v-5.2h6.3v.8h-5.5v3.8h.2c.1-.2.3-.4.4-.6.2-.2.5-.4.8-.5.3-.1.7-.2,1.2-.2s1.1.1,1.5.4c.5.3.8.6,1.1,1.1.3.5.4,1.1.4,1.7h0c0,.8-.1,1.4-.4,1.9s-.7.9-1.2,1.2-1.1.4-1.8.4Z"/>
      <path class="cls-8" d="M90.9,222.9c-1.1,0-2.1-.3-2.8-1-.7-.7-1-1.7-1-3v-2.2c0-1.3.3-2.3,1-3,.7-.7,1.6-1,2.8-1s2,.3,2.6,1c.6.6.9,1.5.9,2.6h0c0,0-.9,0-.9,0h0c0-.9-.2-1.6-.6-2.1-.4-.5-1.1-.8-2-.8s-1.6.3-2.1.8c-.5.6-.8,1.3-.8,2.3v2.3c0,1,.3,1.8.8,2.3.5.6,1.2.8,2.1.8s1.6-.3,2-.8c.4-.5.6-1.2.6-2v-.2h.9v.2c0,1.1-.3,2-.9,2.6-.6.6-1.5,1-2.6,1Z"/>
      <path class="cls-8" d="M97.9,217c-.4,0-.7,0-1.1-.3-.3-.2-.6-.4-.8-.7-.2-.3-.3-.7-.3-1.1s0-.8.3-1.1c.2-.3.4-.6.8-.7.3-.2.7-.3,1.1-.3s.8,0,1.1.3c.3.2.6.4.7.7.2.3.3.7.3,1.1s0,.8-.3,1.1c-.2.3-.4.6-.7.7-.3.2-.7.3-1.1.3ZM97.9,216.2c.4,0,.7-.1,1-.4s.4-.6.4-1-.1-.7-.4-1c-.2-.2-.6-.4-1-.4s-.7.1-1,.4-.4.6-.4,1,.1.7.4,1c.2.2.6.4,1,.4Z"/>
      <path class="cls-8" d="M109,222.9c-.7,0-1.3-.1-1.7-.4-.4-.3-.7-.6-.9-1h-.2v1.2h-.8v-9.8h.8v4.2h.2c.1-.2.3-.5.5-.7.2-.2.5-.4.9-.5.4-.1.8-.2,1.3-.2s1.2.1,1.7.4c.5.3.9.7,1.2,1.2.3.5.4,1.2.4,1.9v.2c0,.7-.1,1.3-.4,1.9s-.7.9-1.2,1.2c-.5.3-1,.4-1.7.4ZM108.8,222.2c.8,0,1.4-.2,1.9-.7.5-.5.7-1.2.7-2h0c0-1-.2-1.7-.7-2.2s-1.1-.7-1.9-.7-1.4.2-1.9.7-.7,1.2-.7,2h0c0,1,.2,1.7.7,2.2.5.5,1.1.7,1.9.7Z"/>
      <path class="cls-8" d="M114.8,214.8c-.2,0-.4,0-.5-.2-.1-.1-.2-.3-.2-.5s0-.4.2-.5c.1-.1.3-.2.5-.2s.4,0,.5.2c.1.1.2.3.2.5s0,.4-.2.5c-.1.1-.3.2-.5.2ZM114.4,222.7v-6.8h.8v6.8h-.8Z"/>
      <path class="cls-8" d="M120.4,222.9c-.8,0-1.5-.2-2.1-.6-.6-.4-.9-1-1.1-1.9l.8-.2c0,.5.2.9.5,1.2.2.3.5.5.8.6.3.1.7.2,1.1.2.6,0,1-.1,1.4-.3.3-.2.5-.5.5-.9s-.2-.7-.5-.9c-.3-.2-.7-.3-1.3-.4h-.6c-.4-.2-.8-.3-1.2-.5s-.6-.4-.8-.6c-.2-.3-.3-.6-.3-1,0-.6.2-1,.7-1.4s1.1-.5,1.8-.5,1.4.2,1.9.5c.5.3.8.9.9,1.5l-.8.2c0-.5-.3-.9-.7-1.1-.4-.2-.8-.3-1.3-.3s-.9,0-1.2.3c-.3.2-.5.5-.5.9s.1.6.4.8c.3.2.7.3,1.1.4h.6c.5.2.9.3,1.3.4.4.1.7.3.9.6.2.3.3.6.3,1,0,.6-.2,1.1-.7,1.5-.5.4-1.1.5-2,.5Z"/>
      <path class="cls-8" d="M131.9,222.9c-1.1,0-2-.3-2.6-1-.6-.7-1-1.7-1-3v-2.2c0-1.3.3-2.3,1-3,.6-.7,1.5-1,2.6-1s2,.3,2.6,1c.6.7,1,1.7,1,3v2.2c0,1.3-.3,2.3-1,3-.6.7-1.5,1-2.6,1ZM131.9,222.2c.9,0,1.6-.3,2-.8.5-.6.7-1.3.7-2.3v-2.4c0-1-.2-1.7-.7-2.3-.5-.6-1.1-.8-2-.8s-1.6.3-2,.8c-.5.6-.7,1.3-.7,2.3v2.4c0,1,.2,1.7.7,2.3.5.6,1.1.8,2,.8Z"/>
      <path class="cls-8" d="M138,222.9c-.2,0-.4,0-.6-.2-.1-.1-.2-.3-.2-.6s0-.4.2-.6.3-.2.6-.2.4,0,.6.2.2.3.2.6,0,.4-.2.6c-.1.1-.3.2-.6.2Z"/>
      <path class="cls-8" d="M143.9,222.9c-.7,0-1.3-.1-1.8-.4s-.9-.7-1.2-1.1c-.3-.5-.4-1.1-.4-1.7v-.2h.9c0,1,.2,1.6.7,2s1.1.6,1.8.6,1.4-.2,1.9-.7c.5-.5.7-1.1.7-1.9h0c0-.9-.2-1.5-.7-2-.4-.5-1-.7-1.7-.7s-.8,0-1,.2c-.3.1-.5.3-.6.5s-.3.4-.4.6h-1.3v-5.2h6.3v.8h-5.5v3.8h.2c.1-.2.3-.4.4-.6.2-.2.5-.4.8-.5.3-.1.7-.2,1.2-.2s1.1.1,1.5.4c.5.3.8.6,1.1,1.1.3.5.4,1.1.4,1.7h0c0,.8-.1,1.4-.4,1.9s-.7.9-1.2,1.2-1.1.4-1.8.4Z"/>
      <path class="cls-8" d="M156.3,222.9c-1.1,0-2.1-.3-2.8-1-.7-.7-1-1.7-1-3v-2.2c0-1.3.3-2.3,1-3,.7-.7,1.6-1,2.8-1s2,.3,2.6,1c.6.6.9,1.5.9,2.6h0c0,0-.9,0-.9,0h0c0-.9-.2-1.6-.6-2.1-.4-.5-1.1-.8-2-.8s-1.6.3-2.1.8c-.5.6-.8,1.3-.8,2.3v2.3c0,1,.3,1.8.8,2.3.5.6,1.2.8,2.1.8s1.6-.3,2-.8c.4-.5.6-1.2.6-2v-.2h.9v.2c0,1.1-.3,2-.9,2.6-.6.6-1.5,1-2.6,1Z"/>
      <path class="cls-8" d="M163.3,217c-.4,0-.7,0-1.1-.3-.3-.2-.6-.4-.8-.7-.2-.3-.3-.7-.3-1.1s0-.8.3-1.1c.2-.3.4-.6.8-.7.3-.2.7-.3,1.1-.3s.8,0,1.1.3c.3.2.6.4.7.7s.3.7.3,1.1,0,.8-.3,1.1-.4.6-.7.7c-.3.2-.7.3-1.1.3ZM163.3,216.2c.4,0,.7-.1,1-.4.2-.2.4-.6.4-1s-.1-.7-.4-1-.6-.4-1-.4-.7.1-1,.4-.4.6-.4,1,.1.7.4,1c.2.2.6.4,1,.4Z"/>
    </g>
  </g>
  <g id="_0.5_C_bis_4.25_C_" data-name=" 0.5 C bis 4.25 C " class="cls-18">
    <g class="cls-18">
      <path class="cls-8" d="M52.1,256.9c-1.1,0-2-.3-2.6-1-.6-.7-1-1.7-1-3v-2.2c0-1.3.3-2.3,1-3,.6-.7,1.5-1,2.6-1s2,.3,2.6,1c.6.7,1,1.7,1,3v2.2c0,1.3-.3,2.3-1,3-.6.7-1.5,1-2.6,1ZM52.1,256.2c.9,0,1.6-.3,2-.8s.7-1.3.7-2.3v-2.4c0-1-.2-1.7-.7-2.3s-1.1-.8-2-.8-1.6.3-2,.8-.7,1.3-.7,2.3v2.4c0,1,.2,1.7.7,2.3s1.1.8,2,.8Z"/>
      <path class="cls-8" d="M58.2,256.9c-.2,0-.4,0-.6-.2-.1-.1-.2-.3-.2-.6s0-.4.2-.6.3-.2.6-.2.4,0,.6.2.2.3.2.6,0,.4-.2.6c-.1.1-.3.2-.6.2Z"/>
      <path class="cls-8" d="M64,256.9c-.7,0-1.3-.1-1.8-.4-.5-.3-.9-.7-1.2-1.1s-.4-1.1-.4-1.7v-.2h.9c0,1,.2,1.6.7,2,.5.4,1.1.6,1.8.6s1.4-.2,1.9-.7c.5-.5.7-1.1.7-1.9h0c0-.9-.2-1.5-.7-2s-1-.7-1.7-.7-.8,0-1,.2c-.3.1-.5.3-.6.5-.2.2-.3.4-.4.6h-1.3v-5.2h6.3v.8h-5.5v3.8h.2c.1-.2.3-.4.4-.6.2-.2.5-.4.8-.5.3-.1.7-.2,1.2-.2s1.1.1,1.5.4c.5.3.8.6,1.1,1.1.3.5.4,1.1.4,1.7h0c0,.8-.1,1.4-.4,1.9s-.7.9-1.2,1.2-1.1.4-1.8.4Z"/>
      <path class="cls-8" d="M76.5,256.9c-1.1,0-2.1-.3-2.8-1-.7-.7-1-1.7-1-3v-2.2c0-1.3.3-2.3,1-3,.7-.7,1.6-1,2.8-1s2,.3,2.6,1c.6.6.9,1.5.9,2.6h0c0,0-.9,0-.9,0h0c0-.9-.2-1.6-.6-2.1-.4-.5-1.1-.8-2-.8s-1.6.3-2.1.8c-.5.6-.8,1.3-.8,2.3v2.3c0,1,.3,1.8.8,2.3.5.6,1.2.8,2.1.8s1.6-.3,2-.8c.4-.5.6-1.2.6-2v-.2h.9v.2c0,1.1-.3,2-.9,2.6-.6.6-1.5,1-2.6,1Z"/>
      <path class="cls-8" d="M83.4,251c-.4,0-.7,0-1.1-.3-.3-.2-.6-.4-.8-.7-.2-.3-.3-.7-.3-1.1s0-.8.3-1.1c.2-.3.4-.6.8-.7.3-.2.7-.3,1.1-.3s.8,0,1.1.3c.3.2.6.4.7.7.2.3.3.7.3,1.1s0,.8-.3,1.1c-.2.3-.4.6-.7.7-.3.2-.7.3-1.1.3ZM83.4,250.2c.4,0,.7-.1,1-.4s.4-.6.4-1-.1-.7-.4-1c-.2-.2-.6-.4-1-.4s-.7.1-1,.4-.4.6-.4,1,.1.7.4,1c.2.2.6.4,1,.4Z"/>
      <path class="cls-8" d="M94.5,256.9c-.7,0-1.3-.1-1.7-.4-.4-.3-.7-.6-.9-1h-.2v1.2h-.8v-9.8h.8v4.2h.2c.1-.2.3-.5.5-.7s.5-.4.9-.5.8-.2,1.3-.2,1.2.1,1.7.4c.5.3.9.7,1.2,1.2.3.5.4,1.2.4,1.9v.2c0,.7-.1,1.3-.4,1.9s-.7.9-1.2,1.2c-.5.3-1,.4-1.7.4ZM94.3,256.2c.8,0,1.4-.2,1.9-.7.5-.5.7-1.2.7-2h0c0-1-.2-1.7-.7-2.2-.5-.5-1.1-.7-1.9-.7s-1.4.2-1.9.7-.7,1.2-.7,2h0c0,1,.2,1.7.7,2.2.5.5,1.1.7,1.9.7Z"/>
      <path class="cls-8" d="M100.4,248.8c-.2,0-.4,0-.5-.2-.1-.1-.2-.3-.2-.5s0-.4.2-.5c.1-.1.3-.2.5-.2s.4,0,.5.2c.1.1.2.3.2.5s0,.4-.2.5c-.1.1-.3.2-.5.2ZM99.9,256.7v-6.8h.8v6.8h-.8Z"/>
      <path class="cls-8" d="M105.9,256.9c-.8,0-1.5-.2-2.1-.6-.6-.4-.9-1-1.1-1.9l.8-.2c0,.5.2.9.5,1.2.2.3.5.5.8.6s.7.2,1.1.2c.6,0,1-.1,1.4-.3s.5-.5.5-.9-.2-.7-.5-.9c-.3-.2-.7-.3-1.3-.4h-.6c-.4-.2-.8-.3-1.2-.5-.3-.2-.6-.4-.8-.6-.2-.3-.3-.6-.3-1,0-.6.2-1,.7-1.4.5-.3,1.1-.5,1.8-.5s1.4.2,1.9.5c.5.3.8.9.9,1.5l-.8.2c0-.5-.3-.9-.7-1.1-.3-.2-.8-.3-1.3-.3s-.9,0-1.2.3c-.3.2-.5.5-.5.9s.1.6.4.8.7.3,1.1.4h.6c.5.2.9.3,1.3.4s.7.3.9.6c.2.3.3.6.3,1,0,.6-.2,1.1-.7,1.5-.5.4-1.1.5-2,.5Z"/>
      <path class="cls-8" d="M118.7,256.7v-2h-5.2v-1l4.4-6.7h1.7v7h1.7v.8h-1.7v2h-.9ZM114.4,254h4.3v-6.5h-.2l-4.2,6.4h0Z"/>
      <path class="cls-8" d="M123.3,256.9c-.2,0-.4,0-.6-.2-.1-.1-.2-.3-.2-.6s0-.4.2-.6.3-.2.6-.2.4,0,.6.2.2.3.2.6,0,.4-.2.6c-.1.1-.3.2-.6.2Z"/>
      <path class="cls-8" d="M125.8,256.7v-1c0-.7.1-1.3.4-1.7s.6-.7,1.1-1c.5-.2,1-.5,1.6-.6l.7-.2c.5-.1.9-.3,1.2-.5.3-.2.6-.5.8-.8.2-.3.3-.7.3-1.2h0c0-.7-.2-1.3-.7-1.7-.5-.4-1.1-.6-1.8-.6s-1.4.2-1.9.6c-.5.4-.7,1-.7,1.9v.2h-.8v-.2c0-.7.1-1.3.4-1.8.3-.5.7-.9,1.2-1.1.5-.3,1.1-.4,1.8-.4s1.3.1,1.8.4.9.6,1.2,1c.3.4.4,1,.4,1.5h0c0,.8-.1,1.3-.4,1.7-.2.4-.6.7-1,1-.4.3-1,.5-1.6.7l-.7.2c-.5.2-.9.3-1.3.5-.3.2-.6.4-.8.7-.2.3-.3.7-.3,1.2v.3h6v.8h-6.8Z"/>
      <path class="cls-8" d="M137.7,256.9c-.7,0-1.3-.1-1.8-.4s-.9-.7-1.2-1.1c-.3-.5-.4-1.1-.4-1.7v-.2h.9c0,1,.2,1.6.7,2s1.1.6,1.8.6,1.4-.2,1.9-.7c.5-.5.7-1.1.7-1.9h0c0-.9-.2-1.5-.7-2-.4-.5-1-.7-1.7-.7s-.8,0-1,.2c-.3.1-.5.3-.6.5s-.3.4-.4.6h-1.3v-5.2h6.3v.8h-5.5v3.8h.2c.1-.2.3-.4.4-.6.2-.2.5-.4.8-.5.3-.1.7-.2,1.2-.2s1.1.1,1.5.4c.5.3.8.6,1.1,1.1.3.5.4,1.1.4,1.7h0c0,.8-.1,1.4-.4,1.9s-.7.9-1.2,1.2-1.1.4-1.8.4Z"/>
      <path class="cls-8" d="M150.1,256.9c-1.1,0-2.1-.3-2.8-1-.7-.7-1-1.7-1-3v-2.2c0-1.3.3-2.3,1-3,.7-.7,1.6-1,2.8-1s2,.3,2.6,1c.6.6.9,1.5.9,2.6h0c0,0-.9,0-.9,0h0c0-.9-.2-1.6-.6-2.1-.4-.5-1.1-.8-2-.8s-1.6.3-2.1.8c-.5.6-.8,1.3-.8,2.3v2.3c0,1,.3,1.8.8,2.3.5.6,1.2.8,2.1.8s1.6-.3,2-.8c.4-.5.6-1.2.6-2v-.2h.9v.2c0,1.1-.3,2-.9,2.6-.6.6-1.5,1-2.6,1Z"/>
      <path class="cls-8" d="M157,251c-.4,0-.7,0-1.1-.3-.3-.2-.6-.4-.8-.7-.2-.3-.3-.7-.3-1.1s0-.8.3-1.1c.2-.3.4-.6.8-.7.3-.2.7-.3,1.1-.3s.8,0,1.1.3c.3.2.6.4.7.7s.3.7.3,1.1,0,.8-.3,1.1-.4.6-.7.7c-.3.2-.7.3-1.1.3ZM157,250.2c.4,0,.7-.1,1-.4.2-.2.4-.6.4-1s-.1-.7-.4-1-.6-.4-1-.4-.7.1-1,.4-.4.6-.4,1,.1.7.4,1c.2.2.6.4,1,.4Z"/>
    </g>
  </g>
  <g id="_4.25_C_bis_8_C_" data-name=" 4.25 C bis 8 C " class="cls-18">
    <g class="cls-18">
      <path class="cls-8" d="M53.3,288.7v-2h-5.2v-1l4.4-6.7h1.7v7h1.7v.8h-1.7v2h-.9ZM49,286h4.3v-6.5h-.2l-4.2,6.4h0Z"/>
      <path class="cls-8" d="M57.9,288.9c-.2,0-.4,0-.6-.2-.1-.1-.2-.3-.2-.6s0-.4.2-.6.3-.2.6-.2.4,0,.6.2.2.3.2.6,0,.4-.2.6c-.1.1-.3.2-.6.2Z"/>
      <path class="cls-8" d="M60.4,288.7v-1c0-.7.1-1.3.4-1.7s.6-.7,1.1-1c.5-.2,1-.5,1.6-.6l.7-.2c.5-.1.9-.3,1.2-.5.3-.2.6-.5.8-.8.2-.3.3-.7.3-1.2h0c0-.7-.2-1.3-.7-1.7s-1.1-.6-1.8-.6-1.4.2-1.9.6-.7,1-.7,1.9v.2h-.8v-.2c0-.7.1-1.3.4-1.8.3-.5.7-.9,1.2-1.1.5-.3,1.1-.4,1.8-.4s1.3.1,1.8.4c.5.2.9.6,1.2,1,.3.4.4,1,.4,1.5h0c0,.8-.1,1.3-.4,1.7-.2.4-.6.7-1,1-.4.3-1,.5-1.6.7l-.7.2c-.5.2-.9.3-1.3.5s-.6.4-.8.7c-.2.3-.3.7-.3,1.2v.3h6v.8h-6.8Z"/>
      <path class="cls-8" d="M72.2,288.9c-.7,0-1.3-.1-1.8-.4-.5-.3-.9-.7-1.2-1.1s-.4-1.1-.4-1.7v-.2h.9c0,1,.2,1.6.7,2,.5.4,1.1.6,1.8.6s1.4-.2,1.9-.7c.5-.5.7-1.1.7-1.9h0c0-.9-.2-1.5-.7-2s-1-.7-1.7-.7-.8,0-1,.2c-.3.1-.5.3-.6.5-.2.2-.3.4-.4.6h-1.3v-5.2h6.3v.8h-5.5v3.8h.2c.1-.2.3-.4.4-.6.2-.2.5-.4.8-.5.3-.1.7-.2,1.2-.2s1.1.1,1.5.4c.5.3.8.6,1.1,1.1.3.5.4,1.1.4,1.7h0c0,.8-.1,1.4-.4,1.9s-.7.9-1.2,1.2-1.1.4-1.8.4Z"/>
      <path class="cls-8" d="M84.7,288.9c-1.1,0-2.1-.3-2.8-1-.7-.7-1-1.7-1-3v-2.2c0-1.3.3-2.3,1-3,.7-.7,1.6-1,2.8-1s2,.3,2.6,1c.6.6.9,1.5.9,2.6h0c0,0-.9,0-.9,0h0c0-.9-.2-1.6-.6-2.1-.4-.5-1.1-.8-2-.8s-1.6.3-2.1.8c-.5.6-.8,1.3-.8,2.3v2.3c0,1,.3,1.8.8,2.3.5.6,1.2.8,2.1.8s1.6-.3,2-.8c.4-.5.6-1.2.6-2v-.2h.9v.2c0,1.1-.3,2-.9,2.6-.6.6-1.5,1-2.6,1Z"/>
      <path class="cls-8" d="M91.6,283c-.4,0-.7,0-1.1-.3-.3-.2-.6-.4-.8-.7-.2-.3-.3-.7-.3-1.1s0-.8.3-1.1c.2-.3.4-.6.8-.7.3-.2.7-.3,1.1-.3s.8,0,1.1.3c.3.2.6.4.7.7.2.3.3.7.3,1.1s0,.8-.3,1.1c-.2.3-.4.6-.7.7-.3.2-.7.3-1.1.3ZM91.6,282.2c.4,0,.7-.1,1-.4s.4-.6.4-1-.1-.7-.4-1c-.2-.2-.6-.4-1-.4s-.7.1-1,.4-.4.6-.4,1,.1.7.4,1c.2.2.6.4,1,.4Z"/>
      <path class="cls-8" d="M102.7,288.9c-.7,0-1.3-.1-1.7-.4-.4-.3-.7-.6-.9-1h-.2v1.2h-.8v-9.8h.8v4.2h.2c.1-.2.3-.5.5-.7s.5-.4.9-.5.8-.2,1.3-.2,1.2.1,1.7.4c.5.3.9.7,1.2,1.2.3.5.4,1.2.4,1.9v.2c0,.7-.1,1.3-.4,1.9s-.7.9-1.2,1.2c-.5.3-1,.4-1.7.4ZM102.5,288.2c.8,0,1.4-.2,1.9-.7.5-.5.7-1.2.7-2h0c0-1-.2-1.7-.7-2.2-.5-.5-1.1-.7-1.9-.7s-1.4.2-1.9.7-.7,1.2-.7,2h0c0,1,.2,1.7.7,2.2.5.5,1.1.7,1.9.7Z"/>
      <path class="cls-8" d="M108.6,280.8c-.2,0-.4,0-.5-.2s-.2-.3-.2-.5,0-.4.2-.5c.1-.1.3-.2.5-.2s.4,0,.5.2.2.3.2.5,0,.4-.2.5c-.1.1-.3.2-.5.2ZM108.1,288.7v-6.8h.8v6.8h-.8Z"/>
      <path class="cls-8" d="M114.1,288.9c-.8,0-1.5-.2-2.1-.6-.6-.4-.9-1-1.1-1.9l.8-.2c0,.5.2.9.5,1.2.2.3.5.5.8.6s.7.2,1.1.2c.6,0,1-.1,1.4-.3s.5-.5.5-.9-.2-.7-.5-.9c-.3-.2-.7-.3-1.3-.4h-.6c-.4-.2-.8-.3-1.2-.5-.3-.2-.6-.4-.8-.6-.2-.3-.3-.6-.3-1,0-.6.2-1,.7-1.4.5-.3,1.1-.5,1.8-.5s1.4.2,1.9.5c.5.3.8.9.9,1.5l-.8.2c0-.5-.3-.9-.7-1.1-.3-.2-.8-.3-1.3-.3s-.9,0-1.2.3c-.3.2-.5.5-.5.9s.1.6.4.8.7.3,1.1.4h.6c.5.2.9.3,1.3.4s.7.3.9.6c.2.3.3.6.3,1,0,.6-.2,1.1-.7,1.5-.5.4-1.1.5-2,.5Z"/>
      <path class="cls-8" d="M125.6,288.9c-.8,0-1.4-.1-2-.3-.5-.2-1-.5-1.3-1-.3-.4-.4-.9-.4-1.4h0c0-.6.1-1.1.3-1.4.2-.3.5-.6.8-.7.3-.2.6-.3.9-.3v-.2c-.3,0-.5-.2-.8-.4-.3-.2-.5-.4-.7-.7s-.3-.7-.3-1.1h0c0-.7.2-1.1.5-1.5.3-.4.7-.7,1.2-.9.5-.2,1.1-.3,1.8-.3s1.3.1,1.8.3c.5.2.9.5,1.2.9.3.4.5.8.5,1.4h0c0,.6,0,.9-.3,1.2s-.4.5-.7.7c-.3.2-.6.3-.8.4v.2c.3,0,.6.1.9.3.3.2.6.4.8.7.2.3.3.7.3,1.2h0c0,.7-.1,1.2-.4,1.6-.3.4-.7.7-1.3,1-.5.2-1.2.3-2,.3ZM125.6,288.2c.8,0,1.5-.2,2-.5s.8-.8.8-1.5h0c0-.8-.3-1.3-.8-1.6s-1.2-.5-2-.5-1.5.2-2,.5c-.5.3-.8.8-.8,1.5h0c0,.8.3,1.3.8,1.6.5.3,1.2.5,2,.5ZM125.6,283.3c.8,0,1.4-.2,1.9-.5s.7-.8.7-1.3h0c0-.7-.2-1.1-.7-1.5-.5-.3-1.1-.5-1.9-.5s-1.4.2-1.9.5c-.5.3-.7.8-.7,1.3h0c0,.7.2,1.1.7,1.5s1.1.5,1.9.5Z"/>
      <path class="cls-8" d="M138.4,288.9c-1.1,0-2.1-.3-2.8-1-.7-.7-1-1.7-1-3v-2.2c0-1.3.3-2.3,1-3,.7-.7,1.6-1,2.8-1s2,.3,2.6,1c.6.6.9,1.5.9,2.6h0c0,0-.9,0-.9,0h0c0-.9-.2-1.6-.6-2.1s-1.1-.8-2-.8-1.6.3-2.1.8c-.5.6-.8,1.3-.8,2.3v2.3c0,1,.3,1.8.8,2.3.5.6,1.2.8,2.1.8s1.6-.3,2-.8.6-1.2.6-2v-.2h.9v.2c0,1.1-.3,2-.9,2.6-.6.6-1.5,1-2.6,1Z"/>
      <path class="cls-8" d="M145.3,283c-.4,0-.7,0-1.1-.3-.3-.2-.6-.4-.8-.7-.2-.3-.3-.7-.3-1.1s0-.8.3-1.1c.2-.3.4-.6.8-.7.3-.2.7-.3,1.1-.3s.8,0,1.1.3c.3.2.6.4.7.7s.3.7.3,1.1,0,.8-.3,1.1-.4.6-.7.7c-.3.2-.7.3-1.1.3ZM145.3,282.2c.4,0,.7-.1,1-.4.2-.2.4-.6.4-1s-.1-.7-.4-1-.6-.4-1-.4-.7.1-1,.4-.4.6-.4,1,.1.7.4,1c.2.2.6.4,1,.4Z"/>
    </g>
  </g>
</svg>