<?xml version="1.0" encoding="UTF-8"?>
<svg id="Ebene_1" data-name="Ebene 1" xmlns="http://www.w3.org/2000/svg" version="1.1" viewBox="0 0 1258.3 45">
  <defs>
    <style>
      .cls-1 {
        fill: none;
        stroke: #fff;
        stroke-linecap: round;
        stroke-miterlimit: 10;
        stroke-width: 2.8px;
      }

      .cls-2 {
        fill: #fff;
        stroke-width: 0px;
      }
    </style>
  </defs>
  <line class="cls-1" x1="18.5" y1="14.8" x2="1240.3" y2="14.8"/>
  <line class="cls-1" x1="18.5" y1="14.8" x2="18.5" y2="1.1"/>
  <line class="cls-1" x1="69.4" y1="14.8" x2="69.4" y2="1.1"/>
  <line class="cls-1" x1="120.3" y1="14.8" x2="120.3" y2="1.1"/>
  <line class="cls-1" x1="171.2" y1="14.8" x2="171.2" y2="1.1"/>
  <line class="cls-1" x1="222.1" y1="14.8" x2="222.1" y2="1.1"/>
  <line class="cls-1" x1="273" y1="14.8" x2="273" y2="1.1"/>
  <line class="cls-1" x1="323.9" y1="14.8" x2="323.9" y2="1.1"/>
  <line class="cls-1" x1="374.8" y1="14.8" x2="374.8" y2="1.1"/>
  <line class="cls-1" x1="425.8" y1="14.8" x2="425.8" y2="1.1"/>
  <line class="cls-1" x1="476.7" y1="14.8" x2="476.7" y2="1.1"/>
  <line class="cls-1" x1="527.6" y1="14.8" x2="527.6" y2="1.1"/>
  <line class="cls-1" x1="578.5" y1="14.8" x2="578.5" y2="1.1"/>
  <line class="cls-1" x1="629.4" y1="14.8" x2="629.4" y2="1.1"/>
  <line class="cls-1" x1="680.3" y1="14.8" x2="680.3" y2="1.1"/>
  <line class="cls-1" x1="731.2" y1="14.8" x2="731.2" y2="1.1"/>
  <line class="cls-1" x1="782.1" y1="14.8" x2="782.1" y2="1.1"/>
  <line class="cls-1" x1="833" y1="14.8" x2="833" y2="1.1"/>
  <line class="cls-1" x1="883.9" y1="14.8" x2="883.9" y2="1.1"/>
  <line class="cls-1" x1="934.9" y1="14.8" x2="934.9" y2="1.1"/>
  <line class="cls-1" x1="985.8" y1="14.8" x2="985.8" y2="1.1"/>
  <line class="cls-1" x1="1036.7" y1="14.8" x2="1036.7" y2="1.1"/>
  <line class="cls-1" x1="1087.6" y1="14.8" x2="1087.6" y2="1.1"/>
  <line class="cls-1" x1="1138.5" y1="14.8" x2="1138.5" y2="1.1"/>
  <line class="cls-1" x1="1189.4" y1="14.8" x2="1189.4" y2="1.1"/>
  <line class="cls-1" x1="1240.3" y1="14.8" x2="1240.3" y2="1.1"/>
  <g>
    <path class="cls-2" d="M4.3,45v-10.4h-.3l-1.9,3.9H.2l2.6-5.1h3.2v11.6h-1.7Z"/>
    <path class="cls-2" d="M12.2,45.2c-.9,0-1.6-.1-2.2-.4-.6-.3-1.1-.7-1.4-1.2-.3-.5-.5-1.2-.5-1.9h1.8c0,.6.2,1.1.6,1.4.4.4,1,.6,1.8.6s1.5-.2,1.9-.7c.4-.4.7-1,.7-1.8v-1.4h-.3c-.2.3-.5.5-.9.8-.4.2-1,.4-1.8.4s-1.3-.1-1.9-.4-1-.7-1.4-1.3c-.3-.6-.5-1.2-.5-2v-.2c0-.8.2-1.5.5-2,.4-.6.9-1,1.5-1.3.6-.3,1.4-.5,2.2-.5s1.6.2,2.2.5c.6.3,1.1.8,1.5,1.4.4.6.5,1.3.5,2.1v4c0,.9-.2,1.7-.5,2.3s-.9,1.1-1.5,1.4c-.6.3-1.4.5-2.3.5ZM12.3,39.5c.5,0,1,0,1.3-.3.4-.2.7-.5.9-.8.2-.3.3-.8.3-1.2h0c0-.9-.2-1.4-.7-1.8-.5-.4-1.1-.6-1.8-.6s-1.4.2-1.8.6c-.5.4-.7,1-.7,1.7h0c0,.6.1,1,.3,1.4.2.3.5.6.9.8.4.2.8.3,1.3.3Z"/>
    <path class="cls-2" d="M22.4,45.2c-.9,0-1.6-.1-2.2-.4-.6-.3-1.1-.7-1.4-1.2-.3-.5-.5-1.2-.5-1.9h1.8c0,.6.2,1.1.6,1.4.4.4,1,.6,1.8.6s1.5-.2,1.9-.7c.4-.4.7-1,.7-1.8v-1.4h-.3c-.2.3-.5.5-.9.8-.4.2-1,.4-1.8.4s-1.3-.1-1.9-.4-1-.7-1.4-1.3c-.3-.6-.5-1.2-.5-2v-.2c0-.8.2-1.5.5-2,.4-.6.9-1,1.5-1.3.6-.3,1.4-.5,2.2-.5s1.6.2,2.2.5c.6.3,1.1.8,1.5,1.4.4.6.5,1.3.5,2.1v4c0,.9-.2,1.7-.5,2.3s-.9,1.1-1.5,1.4c-.6.3-1.4.5-2.3.5ZM22.5,39.5c.5,0,1,0,1.3-.3.4-.2.7-.5.9-.8.2-.3.3-.8.3-1.2h0c0-.9-.2-1.4-.7-1.8-.5-.4-1.1-.6-1.8-.6s-1.4.2-1.8.6c-.5.4-.7,1-.7,1.7h0c0,.6.1,1,.3,1.4.2.3.5.6.9.8.4.2.8.3,1.3.3Z"/>
    <path class="cls-2" d="M30,45v-.4c0-.4,0-.8,0-1.1,0-.3.2-.6.4-1l4.2-7.4v-.2h-6.5v-1.6h8.3v2.1l-4.4,7.8c-.1.2-.2.5-.3.7,0,.2,0,.4,0,.7v.3h-1.7Z"/>
  </g>
  <g>
    <path class="cls-2" d="M105.6,45v-10.4h-.3l-1.9,3.9h-1.8l2.6-5.1h3.2v11.6h-1.7Z"/>
    <path class="cls-2" d="M113.6,45.2c-.9,0-1.6-.1-2.2-.4-.6-.3-1.1-.7-1.4-1.2-.3-.5-.5-1.2-.5-1.9h1.8c0,.6.2,1.1.6,1.4.4.4,1,.6,1.8.6s1.5-.2,1.9-.7c.4-.4.7-1,.7-1.8v-1.4h-.3c-.2.3-.5.5-.9.8-.4.2-1,.4-1.8.4s-1.3-.1-1.9-.4-1-.7-1.4-1.3c-.3-.6-.5-1.2-.5-2v-.2c0-.8.2-1.5.5-2,.4-.6.9-1,1.5-1.3.6-.3,1.4-.5,2.2-.5s1.6.2,2.2.5c.6.3,1.1.8,1.5,1.4.4.6.5,1.3.5,2.1v4c0,.9-.2,1.7-.5,2.3s-.9,1.1-1.5,1.4c-.6.3-1.4.5-2.3.5ZM113.6,39.5c.5,0,1,0,1.3-.3.4-.2.7-.5.9-.8.2-.3.3-.8.3-1.2h0c0-.9-.2-1.4-.7-1.8-.5-.4-1.1-.6-1.8-.6s-1.4.2-1.8.6c-.5.4-.7,1-.7,1.7h0c0,.6.1,1,.3,1.4.2.3.5.6.9.8.4.2.8.3,1.3.3Z"/>
    <path class="cls-2" d="M123.8,45.2c-.9,0-1.6-.1-2.2-.4-.6-.3-1.1-.7-1.4-1.2-.3-.5-.5-1.2-.5-1.9h1.8c0,.6.2,1.1.6,1.4.4.4,1,.6,1.8.6s1.5-.2,1.9-.7c.4-.4.7-1,.7-1.8v-1.4h-.3c-.2.3-.5.5-.9.8-.4.2-1,.4-1.8.4s-1.3-.1-1.9-.4-1-.7-1.4-1.3c-.3-.6-.5-1.2-.5-2v-.2c0-.8.2-1.5.5-2,.4-.6.9-1,1.5-1.3.6-.3,1.4-.5,2.2-.5s1.6.2,2.2.5c.6.3,1.1.8,1.5,1.4.4.6.5,1.3.5,2.1v4c0,.9-.2,1.7-.5,2.3s-.9,1.1-1.5,1.4c-.6.3-1.4.5-2.3.5ZM123.8,39.5c.5,0,1,0,1.3-.3.4-.2.7-.5.9-.8.2-.3.3-.8.3-1.2h0c0-.9-.2-1.4-.7-1.8-.5-.4-1.1-.6-1.8-.6s-1.4.2-1.8.6c-.5.4-.7,1-.7,1.7h0c0,.6.1,1,.3,1.4.2.3.5.6.9.8.4.2.8.3,1.3.3Z"/>
    <path class="cls-2" d="M134,45.2c-.9,0-1.6-.1-2.2-.4-.6-.3-1.1-.7-1.4-1.2-.3-.5-.5-1.2-.5-1.9h1.8c0,.6.2,1.1.6,1.4.4.4,1,.6,1.8.6s1.5-.2,1.9-.7c.4-.4.7-1,.7-1.8v-1.4h-.3c-.2.3-.5.5-.9.8-.4.2-1,.4-1.8.4s-1.3-.1-1.9-.4-1-.7-1.4-1.3c-.3-.6-.5-1.2-.5-2v-.2c0-.8.2-1.5.5-2,.4-.6.9-1,1.5-1.3.6-.3,1.4-.5,2.2-.5s1.6.2,2.2.5c.6.3,1.1.8,1.5,1.4.4.6.5,1.3.5,2.1v4c0,.9-.2,1.7-.5,2.3s-.9,1.1-1.5,1.4c-.6.3-1.4.5-2.3.5ZM134,39.5c.5,0,1,0,1.3-.3.4-.2.7-.5.9-.8.2-.3.3-.8.3-1.2h0c0-.9-.2-1.4-.7-1.8-.5-.4-1.1-.6-1.8-.6s-1.4.2-1.8.6c-.5.4-.7,1-.7,1.7h0c0,.6.1,1,.3,1.4.2.3.5.6.9.8.4.2.8.3,1.3.3Z"/>
  </g>
  <g>
    <path class="cls-2" d="M203.6,45v-1.3c0-.8.1-1.5.4-2,.3-.5.7-.9,1.2-1.3.5-.3,1.1-.6,1.9-.8l1-.3c.5-.1.8-.3,1.2-.5.3-.2.6-.5.8-.8s.3-.7.3-1.1h0c0-.7-.2-1.2-.7-1.6-.4-.4-1-.6-1.7-.6s-1.3.2-1.8.6-.7,1-.7,1.8v.3h-1.7v-.2c0-.8.2-1.6.5-2.1.4-.6.9-1,1.5-1.3.6-.3,1.4-.5,2.2-.5s1.5.1,2.1.4c.6.3,1.1.7,1.5,1.3.4.5.5,1.2.5,1.9h0c0,.9-.1,1.5-.4,2s-.7.9-1.2,1.2-1.1.6-1.8.8l-1,.3c-.5.2-.9.3-1.3.5-.3.2-.5.4-.7.7-.1.3-.2.6-.2,1v.2h6.6v1.6h-8.3Z"/>
    <path class="cls-2" d="M218.1,45.2c-1.4,0-2.4-.4-3.2-1.2-.8-.8-1.2-1.9-1.2-3.5v-2.8c0-1.5.4-2.7,1.2-3.5.8-.8,1.9-1.2,3.2-1.2s2.4.4,3.2,1.2c.8.8,1.2,1.9,1.2,3.5v2.8c0,1.6-.4,2.7-1.2,3.5-.8.8-1.9,1.2-3.2,1.2ZM218.1,43.7c.9,0,1.6-.3,2-.8.4-.5.7-1.3.7-2.2v-3c0-1-.2-1.7-.7-2.2-.5-.5-1.1-.8-2-.8s-1.5.3-2,.8c-.5.5-.7,1.3-.7,2.2v3c0,1,.2,1.7.7,2.2.4.5,1.1.8,2,.8Z"/>
    <path class="cls-2" d="M228.8,45.2c-1.4,0-2.4-.4-3.2-1.2-.8-.8-1.2-1.9-1.2-3.5v-2.8c0-1.5.4-2.7,1.2-3.5.8-.8,1.9-1.2,3.2-1.2s2.4.4,3.2,1.2c.8.8,1.2,1.9,1.2,3.5v2.8c0,1.6-.4,2.7-1.2,3.5-.8.8-1.9,1.2-3.2,1.2ZM228.8,43.7c.9,0,1.6-.3,2-.8.4-.5.7-1.3.7-2.2v-3c0-1-.2-1.7-.7-2.2-.5-.5-1.1-.8-2-.8s-1.5.3-2,.8c-.5.5-.7,1.3-.7,2.2v3c0,1,.2,1.7.7,2.2.4.5,1.1.8,2,.8Z"/>
    <path class="cls-2" d="M238.4,45v-10.4h-.3l-1.9,3.9h-1.8l2.6-5.1h3.2v11.6h-1.7Z"/>
  </g>
  <g>
    <path class="cls-2" d="M304,45v-1.3c0-.8.1-1.5.4-2,.3-.5.7-.9,1.2-1.3.5-.3,1.1-.6,1.9-.8l1-.3c.5-.1.8-.3,1.2-.5.3-.2.6-.5.8-.8s.3-.7.3-1.1h0c0-.7-.2-1.2-.7-1.6-.4-.4-1-.6-1.7-.6s-1.3.2-1.8.6-.7,1-.7,1.8v.3h-1.7v-.2c0-.8.2-1.6.5-2.1.4-.6.9-1,1.5-1.3.6-.3,1.4-.5,2.2-.5s1.5.1,2.1.4c.6.3,1.1.7,1.5,1.3.4.5.5,1.2.5,1.9h0c0,.9-.1,1.5-.4,2s-.7.9-1.2,1.2-1.1.6-1.8.8l-1,.3c-.5.2-.9.3-1.3.5-.3.2-.5.4-.7.7-.1.3-.2.6-.2,1v.2h6.6v1.6h-8.3Z"/>
    <path class="cls-2" d="M318.5,45.2c-1.4,0-2.4-.4-3.2-1.2-.8-.8-1.2-1.9-1.2-3.5v-2.8c0-1.5.4-2.7,1.2-3.5.8-.8,1.9-1.2,3.2-1.2s2.4.4,3.2,1.2c.8.8,1.2,1.9,1.2,3.5v2.8c0,1.6-.4,2.7-1.2,3.5-.8.8-1.9,1.2-3.2,1.2ZM318.5,43.7c.9,0,1.6-.3,2-.8.4-.5.7-1.3.7-2.2v-3c0-1-.2-1.7-.7-2.2-.5-.5-1.1-.8-2-.8s-1.5.3-2,.8c-.5.5-.7,1.3-.7,2.2v3c0,1,.2,1.7.7,2.2.4.5,1.1.8,2,.8Z"/>
    <path class="cls-2" d="M329.2,45.2c-1.4,0-2.4-.4-3.2-1.2-.8-.8-1.2-1.9-1.2-3.5v-2.8c0-1.5.4-2.7,1.2-3.5.8-.8,1.9-1.2,3.2-1.2s2.4.4,3.2,1.2c.8.8,1.2,1.9,1.2,3.5v2.8c0,1.6-.4,2.7-1.2,3.5-.8.8-1.9,1.2-3.2,1.2ZM329.2,43.7c.9,0,1.6-.3,2-.8.4-.5.7-1.3.7-2.2v-3c0-1-.2-1.7-.7-2.2-.5-.5-1.1-.8-2-.8s-1.5.3-2,.8c-.5.5-.7,1.3-.7,2.2v3c0,1,.2,1.7.7,2.2.4.5,1.1.8,2,.8Z"/>
    <path class="cls-2" d="M339.6,45.2c-.9,0-1.6-.2-2.3-.5-.7-.3-1.2-.8-1.6-1.3-.4-.6-.6-1.3-.6-2.1v-.3h1.7v.3c0,.7.2,1.3.7,1.7.5.4,1.1.6,1.9.6s1.4-.2,1.9-.6c.4-.4.7-.9.7-1.5h0c0-.6-.1-.9-.3-1.2s-.5-.5-.8-.6c-.4-.1-.8-.2-1.2-.2h-2.1v-2l4.1-2.4v-.2h-6.2v-1.6h8.1v2.4l-3.9,2.3v.2h.7c.6,0,1.1.1,1.7.3s.9.6,1.3,1,.5,1,.5,1.7v.2c0,.7-.2,1.4-.5,1.9-.4.5-.9,1-1.5,1.3-.6.3-1.4.5-2.2.5Z"/>
  </g>
  <g>
    <path class="cls-2" d="M405.9,45v-1.3c0-.8.1-1.5.4-2,.3-.5.7-.9,1.2-1.3.5-.3,1.1-.6,1.9-.8l1-.3c.5-.1.8-.3,1.2-.5.3-.2.6-.5.8-.8s.3-.7.3-1.1h0c0-.7-.2-1.2-.7-1.6-.4-.4-1-.6-1.7-.6s-1.3.2-1.8.6-.7,1-.7,1.8v.3h-1.7v-.2c0-.8.2-1.6.5-2.1.4-.6.9-1,1.5-1.3.6-.3,1.4-.5,2.2-.5s1.5.1,2.1.4c.6.3,1.1.7,1.5,1.3.4.5.5,1.2.5,1.9h0c0,.9-.1,1.5-.4,2s-.7.9-1.2,1.2-1.1.6-1.8.8l-1,.3c-.5.2-.9.3-1.3.5-.3.2-.5.4-.7.7-.1.3-.2.6-.2,1v.2h6.6v1.6h-8.3Z"/>
    <path class="cls-2" d="M420.4,45.2c-1.4,0-2.4-.4-3.2-1.2-.8-.8-1.2-1.9-1.2-3.5v-2.8c0-1.5.4-2.7,1.2-3.5.8-.8,1.9-1.2,3.2-1.2s2.4.4,3.2,1.2c.8.8,1.2,1.9,1.2,3.5v2.8c0,1.6-.4,2.7-1.2,3.5-.8.8-1.9,1.2-3.2,1.2ZM420.4,43.7c.9,0,1.6-.3,2-.8.4-.5.7-1.3.7-2.2v-3c0-1-.2-1.7-.7-2.2-.5-.5-1.1-.8-2-.8s-1.5.3-2,.8c-.5.5-.7,1.3-.7,2.2v3c0,1,.2,1.7.7,2.2.4.5,1.1.8,2,.8Z"/>
    <path class="cls-2" d="M431.1,45.2c-1.4,0-2.4-.4-3.2-1.2-.8-.8-1.2-1.9-1.2-3.5v-2.8c0-1.5.4-2.7,1.2-3.5.8-.8,1.9-1.2,3.2-1.2s2.4.4,3.2,1.2c.8.8,1.2,1.9,1.2,3.5v2.8c0,1.6-.4,2.7-1.2,3.5-.8.8-1.9,1.2-3.2,1.2ZM431.1,43.7c.9,0,1.6-.3,2-.8.4-.5.7-1.3.7-2.2v-3c0-1-.2-1.7-.7-2.2-.5-.5-1.1-.8-2-.8s-1.5.3-2,.8c-.5.5-.7,1.3-.7,2.2v3c0,1,.2,1.7.7,2.2.4.5,1.1.8,2,.8Z"/>
    <path class="cls-2" d="M441.5,45.2c-.9,0-1.6-.2-2.3-.5-.6-.3-1.1-.8-1.5-1.4-.3-.6-.5-1.3-.5-2v-.2h1.8v.2c0,.7.2,1.3.7,1.7.4.4,1,.6,1.8.6s1.4-.2,1.9-.7c.4-.4.7-1,.7-1.8h0c0-.9-.2-1.4-.7-1.9-.4-.4-1-.6-1.7-.6s-.7,0-.9.2c-.2.1-.4.3-.6.4-.1.2-.3.3-.4.5h-2.2v-6.4h7.8v1.6h-6v3.4h.3c.1-.2.3-.4.5-.5.2-.2.5-.3.8-.4.3-.1.7-.2,1.2-.2.7,0,1.3.1,1.9.4.6.3,1,.7,1.3,1.3s.5,1.3.5,2.1v.2c0,.8-.2,1.5-.5,2.1s-.8,1.1-1.5,1.4-1.4.5-2.3.5Z"/>
  </g>
  <g>
    <path class="cls-2" d="M508,45v-1.3c0-.8.1-1.5.4-2,.3-.5.7-.9,1.2-1.3.5-.3,1.1-.6,1.9-.8l1-.3c.5-.1.8-.3,1.2-.5.3-.2.6-.5.8-.8s.3-.7.3-1.1h0c0-.7-.2-1.2-.7-1.6-.4-.4-1-.6-1.7-.6s-1.3.2-1.8.6-.7,1-.7,1.8v.3h-1.7v-.2c0-.8.2-1.6.5-2.1.4-.6.9-1,1.5-1.3.6-.3,1.4-.5,2.2-.5s1.5.1,2.1.4c.6.3,1.1.7,1.5,1.3.4.5.5,1.2.5,1.9h0c0,.9-.1,1.5-.4,2s-.7.9-1.2,1.2-1.1.6-1.8.8l-1,.3c-.5.2-.9.3-1.3.5-.3.2-.5.4-.7.7-.1.3-.2.6-.2,1v.2h6.6v1.6h-8.3Z"/>
    <path class="cls-2" d="M522.5,45.2c-1.4,0-2.4-.4-3.2-1.2-.8-.8-1.2-1.9-1.2-3.5v-2.8c0-1.5.4-2.7,1.2-3.5.8-.8,1.9-1.2,3.2-1.2s2.4.4,3.2,1.2c.8.8,1.2,1.9,1.2,3.5v2.8c0,1.6-.4,2.7-1.2,3.5-.8.8-1.9,1.2-3.2,1.2ZM522.5,43.7c.9,0,1.6-.3,2-.8.4-.5.7-1.3.7-2.2v-3c0-1-.2-1.7-.7-2.2-.5-.5-1.1-.8-2-.8s-1.5.3-2,.8c-.5.5-.7,1.3-.7,2.2v3c0,1,.2,1.7.7,2.2.4.5,1.1.8,2,.8Z"/>
    <path class="cls-2" d="M533.2,45.2c-1.4,0-2.4-.4-3.2-1.2-.8-.8-1.2-1.9-1.2-3.5v-2.8c0-1.5.4-2.7,1.2-3.5.8-.8,1.9-1.2,3.2-1.2s2.4.4,3.2,1.2c.8.8,1.2,1.9,1.2,3.5v2.8c0,1.6-.4,2.7-1.2,3.5-.8.8-1.9,1.2-3.2,1.2ZM533.2,43.7c.9,0,1.6-.3,2-.8.4-.5.7-1.3.7-2.2v-3c0-1-.2-1.7-.7-2.2-.5-.5-1.1-.8-2-.8s-1.5.3-2,.8c-.5.5-.7,1.3-.7,2.2v3c0,1,.2,1.7.7,2.2.4.5,1.1.8,2,.8Z"/>
    <path class="cls-2" d="M541,45v-.4c0-.4,0-.8,0-1.1,0-.3.2-.6.4-1l4.2-7.4v-.2h-6.5v-1.6h8.3v2.1l-4.4,7.8c-.1.2-.2.5-.3.7,0,.2,0,.4,0,.7v.3h-1.7Z"/>
  </g>
  <g>
    <path class="cls-2" d="M609.4,45v-1.3c0-.8.1-1.5.4-2,.3-.5.7-.9,1.2-1.3.5-.3,1.1-.6,1.9-.8l1-.3c.5-.1.8-.3,1.2-.5.3-.2.6-.5.8-.8.2-.3.3-.7.3-1.1h0c0-.7-.2-1.2-.7-1.6-.4-.4-1-.6-1.7-.6s-1.3.2-1.8.6c-.5.4-.7,1-.7,1.8v.3h-1.7v-.2c0-.8.2-1.6.5-2.1.4-.6.9-1,1.5-1.3s1.4-.5,2.2-.5,1.5.1,2.1.4,1.1.7,1.5,1.3c.4.5.5,1.2.5,1.9h0c0,.9-.1,1.5-.4,2s-.7.9-1.2,1.2c-.5.3-1.1.6-1.8.8l-1,.3c-.5.2-.9.3-1.3.5-.3.2-.5.4-.7.7-.1.3-.2.6-.2,1v.2h6.6v1.6h-8.3Z"/>
    <path class="cls-2" d="M623.9,45.2c-1.4,0-2.4-.4-3.2-1.2s-1.2-1.9-1.2-3.5v-2.8c0-1.5.4-2.7,1.2-3.5.8-.8,1.9-1.2,3.2-1.2s2.4.4,3.2,1.2c.8.8,1.2,1.9,1.2,3.5v2.8c0,1.6-.4,2.7-1.2,3.5s-1.9,1.2-3.2,1.2ZM623.9,43.7c.9,0,1.6-.3,2-.8.4-.5.7-1.3.7-2.2v-3c0-1-.2-1.7-.7-2.2-.5-.5-1.1-.8-2-.8s-1.5.3-2,.8c-.5.5-.7,1.3-.7,2.2v3c0,1,.2,1.7.7,2.2.4.5,1.1.8,2,.8Z"/>
    <path class="cls-2" d="M634.6,45.2c-1.4,0-2.4-.4-3.2-1.2-.8-.8-1.2-1.9-1.2-3.5v-2.8c0-1.5.4-2.7,1.2-3.5.8-.8,1.9-1.2,3.2-1.2s2.4.4,3.2,1.2c.8.8,1.2,1.9,1.2,3.5v2.8c0,1.6-.4,2.7-1.2,3.5-.8.8-1.9,1.2-3.2,1.2ZM634.6,43.7c.9,0,1.6-.3,2-.8.4-.5.7-1.3.7-2.2v-3c0-1-.2-1.7-.7-2.2-.5-.5-1.1-.8-2-.8s-1.5.3-2,.8c-.5.5-.7,1.3-.7,2.2v3c0,1,.2,1.7.7,2.2.4.5,1.1.8,2,.8Z"/>
    <path class="cls-2" d="M644.9,45.2c-.9,0-1.6-.1-2.2-.4-.6-.3-1.1-.7-1.4-1.2s-.5-1.2-.5-1.9h1.8c0,.6.2,1.1.6,1.4.4.4,1,.6,1.8.6s1.5-.2,1.9-.7c.4-.4.7-1,.7-1.8v-1.4h-.3c-.2.3-.5.5-.9.8-.4.2-1,.4-1.8.4s-1.3-.1-1.9-.4c-.6-.3-1-.7-1.4-1.3-.3-.6-.5-1.2-.5-2v-.2c0-.8.2-1.5.5-2,.4-.6.9-1,1.5-1.3.6-.3,1.4-.5,2.2-.5s1.6.2,2.2.5c.6.3,1.1.8,1.5,1.4.4.6.5,1.3.5,2.1v4c0,.9-.2,1.7-.5,2.3-.4.6-.9,1.1-1.5,1.4-.6.3-1.4.5-2.3.5ZM645,39.5c.5,0,1,0,1.3-.3.4-.2.7-.5.9-.8.2-.3.3-.8.3-1.2h0c0-.9-.2-1.4-.7-1.8-.5-.4-1.1-.6-1.8-.6s-1.4.2-1.8.6c-.5.4-.7,1-.7,1.7h0c0,.6.1,1,.3,1.4.2.3.5.6.9.8.4.2.8.3,1.3.3Z"/>
  </g>
  <g>
    <path class="cls-2" d="M714.5,45v-1.3c0-.8.1-1.5.4-2,.3-.5.7-.9,1.2-1.3.5-.3,1.1-.6,1.9-.8l1-.3c.5-.1.8-.3,1.2-.5.3-.2.6-.5.8-.8.2-.3.3-.7.3-1.1h0c0-.7-.2-1.2-.7-1.6-.4-.4-1-.6-1.7-.6s-1.3.2-1.8.6c-.5.4-.7,1-.7,1.8v.3h-1.7v-.2c0-.8.2-1.6.5-2.1.4-.6.9-1,1.5-1.3.6-.3,1.4-.5,2.2-.5s1.5.1,2.1.4c.6.3,1.1.7,1.5,1.3.4.5.5,1.2.5,1.9h0c0,.9-.2,1.5-.4,2s-.7.9-1.2,1.2c-.5.3-1.1.6-1.8.8l-1,.3c-.5.2-.9.3-1.3.5-.3.2-.5.4-.7.7-.1.3-.2.6-.2,1v.2h6.6v1.6h-8.3Z"/>
    <path class="cls-2" d="M728.9,45.2c-1.4,0-2.4-.4-3.2-1.2-.8-.8-1.2-1.9-1.2-3.5v-2.8c0-1.5.4-2.7,1.2-3.5.8-.8,1.9-1.2,3.2-1.2s2.4.4,3.2,1.2c.8.8,1.2,1.9,1.2,3.5v2.8c0,1.6-.4,2.7-1.2,3.5-.8.8-1.9,1.2-3.2,1.2ZM728.9,43.7c.9,0,1.6-.3,2-.8.4-.5.7-1.3.7-2.2v-3c0-1-.2-1.7-.7-2.2-.5-.5-1.1-.8-2-.8s-1.5.3-2,.8c-.5.5-.7,1.3-.7,2.2v3c0,1,.2,1.7.7,2.2.4.5,1.1.8,2,.8Z"/>
    <path class="cls-2" d="M738.6,45v-10.4h-.3l-1.9,3.9h-1.8l2.6-5.1h3.2v11.6h-1.7Z"/>
    <path class="cls-2" d="M745.8,45v-10.4h-.3l-1.9,3.9h-1.8l2.6-5.1h3.2v11.6h-1.7Z"/>
  </g>
  <g>
    <path class="cls-2" d="M814.9,45v-1.3c0-.8.1-1.5.4-2,.3-.5.7-.9,1.2-1.3.5-.3,1.1-.6,1.9-.8l1-.3c.5-.1.8-.3,1.2-.5.3-.2.6-.5.8-.8.2-.3.3-.7.3-1.1h0c0-.7-.2-1.2-.7-1.6-.4-.4-1-.6-1.7-.6s-1.3.2-1.8.6c-.5.4-.7,1-.7,1.8v.3h-1.7v-.2c0-.8.2-1.6.5-2.1.4-.6.9-1,1.5-1.3s1.4-.5,2.2-.5,1.5.1,2.1.4,1.1.7,1.5,1.3c.4.5.5,1.2.5,1.9h0c0,.9-.1,1.5-.4,2s-.7.9-1.2,1.2c-.5.3-1.1.6-1.8.8l-1,.3c-.5.2-.9.3-1.3.5-.3.2-.5.4-.7.7-.1.3-.2.6-.2,1v.2h6.6v1.6h-8.3Z"/>
    <path class="cls-2" d="M829.3,45.2c-1.4,0-2.4-.4-3.2-1.2s-1.2-1.9-1.2-3.5v-2.8c0-1.5.4-2.7,1.2-3.5.8-.8,1.9-1.2,3.2-1.2s2.4.4,3.2,1.2c.8.8,1.2,1.9,1.2,3.5v2.8c0,1.6-.4,2.7-1.2,3.5s-1.9,1.2-3.2,1.2ZM829.3,43.7c.9,0,1.6-.3,2-.8.4-.5.7-1.3.7-2.2v-3c0-1-.2-1.7-.7-2.2-.5-.5-1.1-.8-2-.8s-1.5.3-2,.8c-.5.5-.7,1.3-.7,2.2v3c0,1,.2,1.7.7,2.2.4.5,1.1.8,2,.8Z"/>
    <path class="cls-2" d="M839,45v-10.4h-.3l-1.9,3.9h-1.8l2.6-5.1h3.2v11.6h-1.7Z"/>
    <path class="cls-2" d="M847,45.2c-.9,0-1.6-.2-2.3-.5s-1.2-.8-1.6-1.3c-.4-.6-.6-1.3-.6-2.1v-.3h1.7v.3c0,.7.2,1.3.7,1.7.5.4,1.1.6,1.9.6s1.4-.2,1.9-.6c.4-.4.7-.9.7-1.5h0c0-.6-.1-.9-.3-1.2-.2-.3-.5-.5-.8-.6-.4-.1-.8-.2-1.2-.2h-2.1v-2l4.1-2.4v-.2h-6.2v-1.6h8.1v2.4l-3.9,2.3v.2h.7c.6,0,1.1.1,1.7.3s.9.6,1.3,1c.3.5.5,1,.5,1.7v.2c0,.7-.2,1.4-.5,1.9-.4.5-.9,1-1.5,1.3-.6.3-1.4.5-2.2.5Z"/>
  </g>
  <g>
    <path class="cls-2" d="M916.7,45v-1.3c0-.8.1-1.5.4-2,.3-.5.7-.9,1.2-1.3.5-.3,1.1-.6,1.9-.8l1-.3c.5-.1.8-.3,1.2-.5.3-.2.6-.5.8-.8.2-.3.3-.7.3-1.1h0c0-.7-.2-1.2-.7-1.6-.4-.4-1-.6-1.7-.6s-1.3.2-1.8.6c-.5.4-.7,1-.7,1.8v.3h-1.7v-.2c0-.8.2-1.6.5-2.1.4-.6.9-1,1.5-1.3.6-.3,1.4-.5,2.2-.5s1.5.1,2.1.4c.6.3,1.1.7,1.5,1.3.4.5.5,1.2.5,1.9h0c0,.9-.2,1.5-.4,2s-.7.9-1.2,1.2c-.5.3-1.1.6-1.8.8l-1,.3c-.5.2-.9.3-1.3.5-.3.2-.5.4-.7.7-.1.3-.2.6-.2,1v.2h6.6v1.6h-8.3Z"/>
    <path class="cls-2" d="M931.2,45.2c-1.4,0-2.4-.4-3.2-1.2-.8-.8-1.2-1.9-1.2-3.5v-2.8c0-1.5.4-2.7,1.2-3.5.8-.8,1.9-1.2,3.2-1.2s2.4.4,3.2,1.2c.8.8,1.2,1.9,1.2,3.5v2.8c0,1.6-.4,2.7-1.2,3.5-.8.8-1.9,1.2-3.2,1.2ZM931.2,43.7c.9,0,1.6-.3,2-.8.4-.5.7-1.3.7-2.2v-3c0-1-.2-1.7-.7-2.2-.5-.5-1.1-.8-2-.8s-1.5.3-2,.8c-.5.5-.7,1.3-.7,2.2v3c0,1,.2,1.7.7,2.2.4.5,1.1.8,2,.8Z"/>
    <path class="cls-2" d="M940.9,45v-10.4h-.3l-1.9,3.9h-1.8l2.6-5.1h3.2v11.6h-1.7Z"/>
    <path class="cls-2" d="M948.8,45.2c-.9,0-1.6-.2-2.3-.5-.6-.3-1.1-.8-1.5-1.4s-.5-1.3-.5-2v-.2h1.8v.2c0,.7.2,1.3.7,1.7.4.4,1,.6,1.8.6s1.4-.2,1.9-.7c.4-.4.7-1,.7-1.8h0c0-.9-.2-1.4-.7-1.9-.4-.4-1-.6-1.7-.6s-.7,0-.9.2-.4.3-.6.4c-.2.2-.3.3-.4.5h-2.2v-6.4h7.8v1.6h-6v3.4h.3c.1-.2.3-.4.5-.5.2-.2.5-.3.8-.4.3-.1.7-.2,1.2-.2.7,0,1.3.1,1.9.4.6.3,1,.7,1.3,1.3s.5,1.3.5,2.1v.2c0,.8-.2,1.5-.5,2.1-.3.6-.8,1.1-1.5,1.4s-1.4.5-2.3.5Z"/>
  </g>
  <g>
    <path class="cls-2" d="M1018.9,45v-1.3c0-.8.1-1.5.4-2,.3-.5.7-.9,1.2-1.3.5-.3,1.1-.6,1.9-.8l1-.3c.5-.1.8-.3,1.2-.5.3-.2.6-.5.8-.8.2-.3.3-.7.3-1.1h0c0-.7-.2-1.2-.7-1.6-.4-.4-1-.6-1.7-.6s-1.3.2-1.8.6c-.5.4-.7,1-.7,1.8v.3h-1.7v-.2c0-.8.2-1.6.5-2.1.4-.6.9-1,1.5-1.3s1.4-.5,2.2-.5,1.5.1,2.1.4,1.1.7,1.5,1.3c.4.5.5,1.2.5,1.9h0c0,.9-.2,1.5-.4,2s-.7.9-1.2,1.2-1.1.6-1.8.8l-1,.3c-.5.2-.9.3-1.3.5-.3.2-.5.4-.7.7-.1.3-.2.6-.2,1v.2h6.6v1.6h-8.3Z"/>
    <path class="cls-2" d="M1033.4,45.2c-1.4,0-2.4-.4-3.2-1.2s-1.2-1.9-1.2-3.5v-2.8c0-1.5.4-2.7,1.2-3.5.8-.8,1.9-1.2,3.2-1.2s2.4.4,3.2,1.2c.8.8,1.2,1.9,1.2,3.5v2.8c0,1.6-.4,2.7-1.2,3.5s-1.9,1.2-3.2,1.2ZM1033.4,43.7c.9,0,1.6-.3,2-.8.4-.5.7-1.3.7-2.2v-3c0-1-.2-1.7-.7-2.2-.5-.5-1.1-.8-2-.8s-1.5.3-2,.8c-.5.5-.7,1.3-.7,2.2v3c0,1,.2,1.7.7,2.2.4.5,1.1.8,2,.8Z"/>
    <path class="cls-2" d="M1043,45v-10.4h-.3l-1.9,3.9h-1.8l2.6-5.1h3.2v11.6h-1.7Z"/>
    <path class="cls-2" d="M1048.3,45v-.4c0-.4,0-.8,0-1.1,0-.3.2-.6.4-1l4.2-7.4v-.2h-6.5v-1.6h8.3v2.1l-4.4,7.8c-.1.2-.2.5-.3.7,0,.2,0,.4,0,.7v.3h-1.7Z"/>
  </g>
  <g>
    <path class="cls-2" d="M1120.2,45v-1.3c0-.8.1-1.5.4-2,.3-.5.7-.9,1.2-1.3.5-.3,1.1-.6,1.9-.8l1-.3c.5-.1.8-.3,1.2-.5.3-.2.6-.5.8-.8.2-.3.3-.7.3-1.1h0c0-.7-.2-1.2-.7-1.6-.4-.4-1-.6-1.7-.6s-1.3.2-1.8.6c-.5.4-.7,1-.7,1.8v.3h-1.7v-.2c0-.8.2-1.6.5-2.1.4-.6.9-1,1.5-1.3.6-.3,1.4-.5,2.2-.5s1.5.1,2.1.4c.6.3,1.1.7,1.5,1.3.4.5.5,1.2.5,1.9h0c0,.9-.2,1.5-.4,2s-.7.9-1.2,1.2c-.5.3-1.1.6-1.8.8l-1,.3c-.5.2-.9.3-1.3.5-.3.2-.5.4-.7.7-.1.3-.2.6-.2,1v.2h6.6v1.6h-8.3Z"/>
    <path class="cls-2" d="M1134.7,45.2c-1.4,0-2.4-.4-3.2-1.2-.8-.8-1.2-1.9-1.2-3.5v-2.8c0-1.5.4-2.7,1.2-3.5.8-.8,1.9-1.2,3.2-1.2s2.4.4,3.2,1.2c.8.8,1.2,1.9,1.2,3.5v2.8c0,1.6-.4,2.7-1.2,3.5-.8.8-1.9,1.2-3.2,1.2ZM1134.7,43.7c.9,0,1.6-.3,2-.8.4-.5.7-1.3.7-2.2v-3c0-1-.2-1.7-.7-2.2-.5-.5-1.1-.8-2-.8s-1.5.3-2,.8c-.5.5-.7,1.3-.7,2.2v3c0,1,.2,1.7.7,2.2.4.5,1.1.8,2,.8Z"/>
    <path class="cls-2" d="M1144.4,45v-10.4h-.3l-1.9,3.9h-1.8l2.6-5.1h3.2v11.6h-1.7Z"/>
    <path class="cls-2" d="M1152.3,45.2c-.9,0-1.6-.1-2.2-.4-.6-.3-1.1-.7-1.4-1.2-.3-.5-.5-1.2-.5-1.9h1.8c0,.6.2,1.1.6,1.4.4.4,1,.6,1.8.6s1.5-.2,1.9-.7c.4-.4.7-1,.7-1.8v-1.4h-.3c-.2.3-.5.5-.9.8-.4.2-1,.4-1.8.4s-1.3-.1-1.9-.4c-.6-.3-1-.7-1.4-1.3s-.5-1.2-.5-2v-.2c0-.8.2-1.5.5-2,.4-.6.9-1,1.5-1.3s1.4-.5,2.2-.5,1.6.2,2.2.5c.6.3,1.1.8,1.5,1.4.4.6.5,1.3.5,2.1v4c0,.9-.2,1.7-.5,2.3-.4.6-.9,1.1-1.5,1.4-.6.3-1.4.5-2.3.5ZM1152.4,39.5c.5,0,1,0,1.3-.3.4-.2.7-.5.9-.8.2-.3.3-.8.3-1.2h0c0-.9-.2-1.4-.7-1.8-.5-.4-1.1-.6-1.8-.6s-1.4.2-1.8.6c-.5.4-.7,1-.7,1.7h0c0,.6.1,1,.3,1.4.2.3.5.6.9.8.4.2.8.3,1.3.3Z"/>
  </g>
  <g>
    <path class="cls-2" d="M1222.2,45v-1.3c0-.8.1-1.5.4-2,.3-.5.7-.9,1.2-1.3.5-.3,1.1-.6,1.9-.8l1-.3c.5-.1.8-.3,1.2-.5.3-.2.6-.5.8-.8.2-.3.3-.7.3-1.1h0c0-.7-.2-1.2-.7-1.6-.4-.4-1-.6-1.7-.6s-1.3.2-1.8.6c-.5.4-.7,1-.7,1.8v.3h-1.7v-.2c0-.8.2-1.6.5-2.1.4-.6.9-1,1.5-1.3.6-.3,1.4-.5,2.2-.5s1.5.1,2.1.4c.6.3,1.1.7,1.5,1.3.4.5.5,1.2.5,1.9h0c0,.9-.2,1.5-.4,2s-.7.9-1.2,1.2c-.5.3-1.1.6-1.8.8l-1,.3c-.5.2-.9.3-1.3.5-.3.2-.5.4-.7.7-.1.3-.2.6-.2,1v.2h6.6v1.6h-8.3Z"/>
    <path class="cls-2" d="M1236.7,45.2c-1.4,0-2.4-.4-3.2-1.2-.8-.8-1.2-1.9-1.2-3.5v-2.8c0-1.5.4-2.7,1.2-3.5.8-.8,1.9-1.2,3.2-1.2s2.4.4,3.2,1.2c.8.8,1.2,1.9,1.2,3.5v2.8c0,1.6-.4,2.7-1.2,3.5-.8.8-1.9,1.2-3.2,1.2ZM1236.7,43.7c.9,0,1.6-.3,2-.8.4-.5.7-1.3.7-2.2v-3c0-1-.2-1.7-.7-2.2-.5-.5-1.1-.8-2-.8s-1.5.3-2,.8c-.5.5-.7,1.3-.7,2.2v3c0,1,.2,1.7.7,2.2.4.5,1.1.8,2,.8Z"/>
    <path class="cls-2" d="M1242.9,45v-1.3c0-.8.1-1.5.4-2,.3-.5.7-.9,1.2-1.3.5-.3,1.1-.6,1.9-.8l1-.3c.5-.1.8-.3,1.2-.5.3-.2.6-.5.8-.8.2-.3.3-.7.3-1.1h0c0-.7-.2-1.2-.7-1.6-.4-.4-1-.6-1.7-.6s-1.3.2-1.8.6c-.5.4-.7,1-.7,1.8v.3h-1.7v-.2c0-.8.2-1.6.5-2.1.4-.6.9-1,1.5-1.3s1.4-.5,2.2-.5,1.5.1,2.1.4,1.1.7,1.5,1.3c.4.5.5,1.2.5,1.9h0c0,.9-.1,1.5-.4,2s-.7.9-1.2,1.2c-.5.3-1.1.6-1.8.8l-1,.3c-.5.2-.9.3-1.3.5-.3.2-.5.4-.7.7-.1.3-.2.6-.2,1v.2h6.6v1.6h-8.3Z"/>
    <path class="cls-2" d="M1256.3,45v-10.4h-.3l-1.9,3.9h-1.8l2.6-5.1h3.2v11.6h-1.7Z"/>
  </g>
</svg>