<?xml version="1.0" encoding="UTF-8"?>
<svg xmlns="http://www.w3.org/2000/svg" version="1.1" viewBox="0 0 3840 2160">
  <defs>
    <style>
      .cls-1 {
        stroke-width: 3.5px;
      }

      .cls-1, .cls-2 {
        fill: none;
        stroke: #fff;
        stroke-miterlimit: 10;
      }

      .cls-2 {
        stroke-dasharray: 0 0 5 5;
        stroke-width: 3.5px;
      }

      .cls-3 {
        fill: #deff7f;
        opacity: .2;
      }

      .cls-3, .cls-4 {
        stroke-width: 0px;
      }

      .cls-4 {
        fill: #fff;
      }
    </style>
  </defs>
  <g id="Fläche">
    <circle class="cls-3" cx="1892.1" cy="1044.4" r="120.5"/>
  </g>
  <g id="Kontur">
    <g>
      <path class="cls-2" d="M3839.4,733.3c-4.2,1.1-8.3,2.2-12.5,3.3-6.7,1.7-9.8.3-12.9-5.9-3.7-7.4-7.6-14.7-13.9-20.4-.1-.1-.2-.3-.3-.4-2.7-3.2-3.5-17.4-2.2-21.3,4.8-14,15.8-13.7,26.8-13.4,3.7.1,5.8,2.9,7.7,5.7,2.8,3.9,3.9,8.8,7.2,12.4v40Z"/>
      <path class="cls-2" d="M3839.4,836.3c-2.8.6-4.4-.7-5.2-3.2-1.3-4-2.5-8.1-3.6-12.2-.7-2.4.4-3.9,3-3.9,2,0,3.9.2,5.9.3v19Z"/>
      <path class="cls-2" d="M3119.8,748c1.5-2.1-.6-4.5,2.3-4.8,2.3-.2,2.5,1.7,3.1,3.3,1.1,3,2,6.3,6.3,2.9,1.2-1,3,0,3.8,1.5,1.6,2.7,2.6,6.1,2.9,8.9.3,2.9-3.4,1.9-5.4.9-1.6-.7-2.4-2.8-5-2.9.6,2.4.6,4.8,3.7,5.5.4,0,1.1.5,1.2.8.8,6.6,8.4,10,8.1,17.2-.1,3.7-.4,7.3,3,10.1,1.3,1,1.2,2.8,1,4.2-1.1,6.9,2.5,12,6.5,16.9,3.2,3.9,3.7,8.3,3.7,13-.1,11.1,2.4,13.9,13.2,15.5,5.7.8,11.1,10.9,7.8,15.7-2.3,3.4-3.4,8.1-8.4,9.3,4,3.5,8.3,5.8,10.2,10.9,1.5,4.2.8,6.6-2.9,8.6-5.2,2.8-5.8,7.8-1.3,11.8,1.2,1.1,1.6,2.3,1.3,3.5-1.5,6.1,2.6,8.9,6.7,11.8,3.1,2.2,5.2,7.7,2.8,10.1-4,4.1-1.5,8.1-.5,11.7.8,2.8,1,5.1.2,7.6-1.1,3.4-3.8,7.5-1.2,10.4,3.3,3.8,7.1,8.4,12.8,8.4,6.5,0,5.1,5.6,6.9,8.7,1.6,2.9-.6,5.3-3.6,6.5-.1,0-.3.2-.4.3-6.2,3.8-6.2,5.2.3,9,3,1.8,5.9,9.2,5.1,13.4-.2,1-1.1,2.2,0,2.7,4.8,2.4,4.3,8.2,7.6,11.6.7.7,1.2,1.7,1.4,2.6,1.7,6.2,4.4,11.8,7.8,17.3,2.1,3.3,2.5,6.8.1,10.3-1.9,2.7-.4,5.4.2,8,.6,2.7,1.8,5.2,2,8.1.3,3.3,3.1,3.8,6,3.7,3.2-.1,3.2-2.3,3.1-4.6,0-1.7.2-3.4,0-5-.8-4.2,2.7-5,5.2-6.1,2.3-1,3.9.4,6.1,2.1,4.2,3.2,10.3,3.9,10.4,10.9,4.5,1.6,8.8,4,13.7,4.4,1.3,0,2.7-.4,2.6-1.7,0-2.6,1.3-5.6-1.7-7.7-2.7-2-5-4.4-5.9-7.8-.7-2.8.3-4,3.4-3.7,6.9.9,13.2,7.9,15.2,14.5,2.8,9.5.7,18.8.5,28.2,0,2.6.3,5.2-.2,8-1.3,7-6.3,8.2-11.4,10-3.7,1.3-7.5,2.3-11.1,4-3.5,1.7-6.2.8-7.3-2.4-2.5-8-8-14.5-10.3-22.6-.6-2-.8-3.8-1.1-5.8-.4-2.9-2.3-4.3-4.9-4.9-1.8-.3-2.8.9-3.6,2.2-.8,1.4.5,1.9,1,2.8,2.2,3.9,7.5,6.2,6.1,11.9-.4,1.5-.4,3.1-2.3,3.4-5.9.9-3.5,5.3-3.6,8.6,0,.4.4.9.6,1.3,1.6,3.2,5.3,6.2,2.1,10.3-3,3.8-7.5,2.3-11.2,1.8-4.1-.5-5.9,0-8.4,3.9-2.5,3.9-6.2,8.7-12.4,8.4-6.4-.3-10.3,3.9-14,8.2-1.4,1.7-1.4,4.4-.2,6.1,1.1,1.5,3,3.1,5.5,1.6,1.7-1,3.1-.5,3.8,1.6,1.1,3.1,2.7,6,3.7,9.1,1.1,3.4-1.8,5.9-5.8,4.9-1.9-.5-3.5-1.7-5.7-1.7-3.2,0-5.8.9-6.2,4.4-.4,3.2-2.3,4.1-4.8,3.5-5.5-1.3-11.2-2.1-14-8.5-1.6-3.7-5.1-6.3-7.4-9.8-1.6-2.5-7.7-2.3-10.1-.4-2,1.6-2,3.3-.5,5.2,2.4,2.9,2.7,6.3,2.8,9.9,0,1.4-.1,2.7-1.7,3.3-2.2.8-2.4,2.2-1.6,4.4,1.2,3.6-1.3,4.2-3.8,3.4-2.7-.9-5.9-2.1-7.6-4.2-4.3-5.1-10.9-2.1-15.7-5.3-3.2-2.2-5.4-5.2-7.7-8-2.5-3.1-2.3-6.5.9-10.6,3-3.9,5.4-8.8,7.8-13.5,2.6-5,10.3-5.9,14.3-2.1,2.2,2.1,4.1,4.1,5.4,7,1.3,3,12.4,4.6,14.5,2.4.8-.9.6-1.8.1-2.8-2.9-5.8-3.2-13-6.1-18-3.6-6.3-1.7-13.5-6.2-19.4-2.2-2.9-3.4-9.1-1.4-14.1.5-1.2.4-2.6.4-3.9,0-9.2,0-18.3,0-27.5,0-2.8.4-5.6-1.4-8.2-.5-.7-.7-2.1-.3-2.9,4.1-8.8.4-17.7-.5-26.3-1.6-15.1-2.3-31-12.5-43.8-1-1.3-1.3-2.8-1.1-4.2.5-4.9-1.2-8.5-4.9-11.8-2.9-2.6-6.3-2.9-8.7.3-1.9,2.5-3.3,2.6-4.6-.3-.5-1-1.2-1.4-2.2-1.8-4.3-1.6-4.5-2.6-1.4-5.9.6-.6,1.1-1.4,1.8-1.7,3.1-1.3,3-2.6,2.4-6.1-1.2-7.1-4.8-12.8-8.1-18.8-2.3-4.2-4.6-8-5.1-13.2-.2-2.8-3.2-6.1-4.2-9.7-.6-2.1-1.1-4.1-1.2-6.2,0-1.1,0-3-.6-3.3-4.8-2.2-3.2-6.4-3.3-10,0-2.4-.4-4.1-2.7-5.9-2.7-2.1-3.7-5.8-3.4-9.5.3-3.6-.5-6.3-4-8.3-3.7-2.1-2-6-1.6-9.1.4-2.5,1.3-4.7-1.2-6.6-1-.8-1.3-2.1-.8-3.2,3.3-7.9.2-14.3-4.7-20.1-1.9-2.2-2-4.4-.8-6.9,1.6-3.3,1.3-6.5,0-10-1.9-4.9-1.2-10.3-2.6-15.5-1.5-5.5-5.7-10.3-4.5-16.5,0-.4-.8-1.3-1.2-1.3-4.1-.2-4.8-2.8-4.6-6.2,0-1.3-.9-2-2.1-2.4-4.3-1.2-3.4-3.4-.9-5.6,2.1-1.8,4.7-3.1,3.4-6.6-.1-.3.2-1,.6-1.3,6.7-7,13.4-13.8,24.5-12.3,3.9.5,7.8-1,11.6,1.8,2.3,1.6,6.4.7,9,.2,5.1-1.1,8.9,2.1,13.5,2.1,1.5,0,4.3,2.5,2.7,4.4-5.1,6,1.5,5.5,3.5,8.1Z"/>
      <path class="cls-2" d="M3365.8,882.5c2,.7,4,1.6,6,2.2,2.1.6,4.9-.1,4.9,3.6,0,3.3-2.5,3.4-5.4,3.6,4.1,2.4,4.6,5.1,1.9,7.9-3,3.1-3.4,5.9-.2,9,1.2,1.1,2.2,3,.9,3.9-5.4,4.2-1.6,8.8-.7,13,1,5.1,2.8,10,3.9,15.1.8,3.5,2.8,7,5.1,9.7,1.7,1.8,2.1,2.9,1.2,5.1-1.2,3-1,6.2,0,9.3,2,6.6-2.2,12.2-9,12.7-12.3,1-16-5.5-17.8-15-1.5-8-3-16.1-4.3-24.2-.2-1.2-.5-2.3-1.7-2.8-2.1-.9-2.3-2.7-2.2-4.6.3-5.6-2.3-10.5-3.9-15.6-2.3-7.8-4.2-15.8-5.9-23.7-.9-4.4-.7-9-1.6-13.3-.6-2.9-1.3-6.1-5.2-7.1-2.1-.6-3.5-2.4-3.2-5,.7-7.5-.8-14.5-4.8-21-.8-1.4-1.4-2.8-.7-4.2,2.2-4.4.4-8.6-.9-12.5-2.5-7.7-5.4-15.3-8.7-22.6-1.4-3,.4-5.6-.2-8-1.7-7-3.3-14.1-6.3-20.5-3-6.4-2.8-13.2-3.8-19.8-1.2-7.7-.3-15.8-2-23.6-1.1-4.9,5.1-18.3,9.8-18.8,6-.6,12.2-3.5,18.5-.3,8,4,10.1,11.8,12.8,19.2,2.9,7.8,4.9,15.8,5.7,24.1.2,1.6,1,2.8,2,3.9.9,1,1.2,2.7,0,3-3.7,1-2.2,3.6-1.9,5.6.5,4.6,1.9,9,3.7,13.2.7,1.7.6,3.4-.1,4.8-5.9,11.8-6.1,24.1-3.3,36.7,2.1,9.3,4.9,18.3,7.7,27.3,2.1,6.7,5.9,11.9,10,17.1,2.6,3.3,2.6,9.9-.2,12.9Z"/>
      <path class="cls-2" d="M3489.7,1044.2c-4.6,6.9-10.8,11.4-18.8,12.7-4.4.7-8.9.3-13.4.3-.9,0-2.1-.3-2.8-1-5.1-5.2-12.2-9.2-14.4-16.2-2.4-7.3-5.1-14.5-8-21.5-.5-1.2-.5-2.7-2.2-2.9-5.4-.9-6.3-4.6-6-9.3.1-1.8-.2-3.7.2-5.5.5-2,1.2-3.5-1.9-3.4-1.1,0-2.2-.8-2-1.8.6-4.5-2.6-6.2-5.4-8.5-3.3-2.6-4-6.8-3.6-10.4,1-8.3,1-16.8,4.4-24.7.9-2,.7-4.6.5-6.9-.7-6.7,1.3-12.8,4.3-18.6.7-1.4,1.5-2.7,3.1-2.9,6.4-.6,12.8-1.3,18.1,4.1,8.4,8.6,17,16.9,25.5,25.4,2.2,2.2,4.5,4.3,5.9,7.3.8,1.9,2.6,4.2,4.4,4.6,5.5,1.2,5.8,5.6,7,9.5,1.2,3.8,5.6,6.8,3.4,11.9-.1.3,3.6,4.3,5.8,6,1.8,1.4,2.8,2.9,3.8,4.7,1.1,2,1.9,4,4.8,4.3,1.9.2,3.1,2.3,4.1,4.1,4.7,8.2,5.2,16.3-.8,24.1-1.5,2-.7,2.7,1.4,3.5,6.5,2.3,7.2,6,2.6,10.8-2.5,2.6-4.7,5.6-6.6,8.7-1.8,2.9-.3,5,3,4.9,2.3,0,3.2,1.6,3.9,3.3,1,2.3,3.5,4.5,1.7,7.3-1.1,1.7-3.3,2.1-4.1.3-1.5-3.2-3.5-2.4-5.7-1.6-2.1.8-4.2.8-6.4.8-3,0-4.7-1.3-4.5-4.5.2-4.3-1.1-8.6,0-12.9.4-1.9.3-4-1.3-5.9Z"/>
      <path class="cls-2" d="M3793.5,983.2c-.3,0-.7,0-1,0-5.4-.6-15.1-9.3-16.4-14.5-.9-3.7-4.7-5.7-5.7-9.5-1.8-6.9-4.4-13.6-8.5-19.4-5.3-7.5-5.3-16.7-9-24.8-2.1-4.5-.3-11.1-2.7-16.5-.6-1.3-.8-2.8-1.5-4.1-.7-1.1-1.3-2.4-1.6-3.6-.7-3.3,2.7-6.7-2.1-10.2-2.6-1.9-1.7-8-3.1-12-1.7-5.1-1.9-9.7,0-14.9,1-2.6.6-5.9-1.2-8.6-1.1-1.8-1-3.8,0-5.7,2-3.4,1.5-7.2.8-10.7-1.2-5.9-.3-9.5,4.3-12.7,4.8-3.3,9.8-6.2,11.3-12.5.5-2.1,2.8-2.2,4.6-2.1,2.2,0,2.7,1.7,2.5,3.5-.5,4,1.5,6.8,3.8,9.8,3.7,5,4.8,11.8,9.6,16,4.7,4,5.3,10.4,9.8,14.4,1.2,1.1,2.3,1.7,3.8,1.9,5.6.7,6.7,4.3,6.6,9.8,0,7.4-2.9,15.6,4.3,21.9,2.5,2.2,3.3,5.5-1.3,7.3-1.5.6-2.6,2.4-4.1,2.7-6.3,1-4.9,3.6-1.9,7.1,1.3,1.5,2,3.4,2.9,5.2.8,1.6,2,2.4,3.6,1.8,2.6-1,5.3-1.5,6.4,1.5,1,2.6-.6,5.4-2.5,6.9-1.3,1.1-1.6,1.4-.9,2.9.6,1.2,0,2.4-.9,3.6-4.1,5.3-3.2,8.5.2,14.2,2.5,4.3,5.9,8.8,5,14.4-.2,1.1,0,2.8-.7,3.3-7.4,5.3-3.8,12.4-3.4,19,.5,7.8-4.5,14.4-11,14.7Z"/>
      <path class="cls-2" d="M3557,883.9c4.9-1.2,8.8,1.3,12.4,5.3,7.4,8.1,15.7,15.7,20,26.1,3.3,7.9,7.8,15.5,8.5,24.2.6,7.7.5,15.4.8,23.1.2,4-2.9,6.3-4.5,9.2-4.4,7.7-11.2,12.3-20.1,13.5-4.1.6-6.4-.8-8.1-5.2-2.1-5.4-5.1-10.6-9-15.1-1-1.1-2.7-1.8-2.6-3.5.2-5-3-9.2-3.5-13.6-.6-5.5-3.7-9.7-4.9-14.7-.5-2.2-2.6-3.3-3.8-5.1-1.8-2.7-3.3-5.2.6-7.5,1.8-1.1,1.9-3.4.8-4.3-5-4.7-3-10.5-3.2-16,0-.3,0-.7,0-1-.7-12.2,5.6-16.1,16.5-15.5Z"/>
      <path class="cls-2" d="M3690.8,726c.4,5.6-1.3,12-3.6,18.4,0,.2-.1.3-.1.5.3,12.4-11.2,13.1-18.3,17.9-3.4,2.3-10.8-2.2-11.9-6.4-1-3.7-3.9-6.1-5.9-9.1-4-6-6.3-12.7-8.9-19.4-2.1-5.6-1.7-11-1.9-16.6,0-1.5,0-3-1.3-4.1-6-5.5-4.8-12.2-3-18.9.8-3.1.4-5.7-1.8-8.3-4-4.7-4.2-11.1-.2-14.5,4.1-3.4,8.9-5.4,14.3-3.9,3.5.9,7,2.2,10.2,3.9,4.2,2.2,5.5,7.1,7.9,10.8,2.2,3.4,4.1,6.8,7.1,9.7,7.3,6.8,13.3,14.4,15.6,24.7,1.1,4.8,1.6,9.4,1.8,15.4Z"/>
      <path class="cls-2" d="M3686.6,591.1c5.2.4,9.9,1.4,12.5,7.1,1.5,3.3,5.1,4.7,8.7,4.9,2.5.2,4.6,1,5.8,3.2,1.1,1.9,2.5,2.7,4.6,3.2,4.9,1.2,7.5,5.7,5.8,10.4-.8,2.3,0,3.5.9,5.4,2.2,3.9,2.6,8.3,3.6,12.6.2,1.1,0,2.5-1.1,3.1-4.4,2.1-3.4,5.9-2.4,9.1,2.4,8-1.6,14.1-10.3,15.6-6.5,1.1-13,1.9-19.1-.5-4.1-1.6-8.9-3.3-9.7-9.2-.5-3.5-3.8-6-4.6-9.7-.4-1.8-1.4-3.7-1.3-5.7,0-2.1-1.1-3.9-2.7-4.4-4.4-1.4-6-5.6-9.1-8.2-1.8-1.5-2.7-3.6.4-5.1,1.5-.7,2-2.4,1.4-3.4-3-4.5-.6-10.2-3.4-14.8-1-1.6-.6-3.6,1.3-4.2,4.6-1.5,7.3-5.6,11.5-7.7,2.3-1.2,4.5-2.1,7.2-1.8Z"/>
      <path class="cls-2" d="M3287.5,656.6c-3.1.5-5.6-.7-8-2.9-7.3-6.9-13.7-14.3-16.2-24.4-.9-3.7-1.6-6.9.4-10.5,2.5-4.5,2.1-9.9,4.2-14.7,1.5-3.4,1.9-7.2,6.7-7.3.9,0,1.2-1,1.5-1.8,3.1-6.9,9.6-9.8,17-7.1,2.1.8,3.9,1,6.2.3,3.1-.9,6.3.4,7.8,3,3,5.1,6.8,9.7,10.3,14.5,3.7,5.1,2.2,12,5.1,17.5-4.3,5.8-3.8,14.2-11,18.8-4.4,2.8-8.4,5.7-13.6,6.6-1.6.3-3,1-3,2.8,0,5.1-2.9,6.2-7.4,5.3Z"/>
      <path class="cls-2" d="M3349.9,1043.9c1.8-.2,4,.4,5,1.5,4.3,4.6,9.4,8.7,11.8,14.8.4,1.1.3,2.4,1.4,3.1,4.6,3.2,5,7.9,4.7,12.8-.2,3.2,2,6.7,1.4,9.1-1.6,5.7,0,12.1-3.8,17.2-.9,1.3-1.5,2.5-1.6,4.1-.5,5.6-4,10-8.3,10.7-3.3.5-8.6-3.5-10.8-7.3-5.3-9.6-9.4-19.6-12.1-30.2-2.4-9.3-.9-18.8-.9-28.2,0-3,8.8-7.6,13.2-7.5Z"/>
      <path class="cls-2" d="M3716.7,789.4c-6.6.9-6.7-5.8-9.4-9.5-5.7-7.9-6.5-17.8-10.6-26.4-1.1-2.3-.6-4.9-.2-7.4.6-3.4,4-1.7,5.4-2.8,6.2-4.8,12.1-.3,18,.2,4.9.4,5,6.1,8,8.9,2.8,2.7,4.2,6.7,6.8,9.7,3.9,4.7,4.6,9.3,1.3,14.5-.3.5-.1,1.6-.6,1.9-5.7,4.2-9.8,11.3-18.8,10.8Z"/>
      <path class="cls-2" d="M3398.9,658.9c-.5,8.9-3.1,16.9-12.1,21.4-5.1,2.5-9.6,1.5-11.9-3.4-1.9-4-4.6-7-7.7-9.6-6.4-5.2-5.5-11.5-3.6-18.1.9-3.2,2.4-6.2,2.7-9.5.6-5.3,4.4-6.9,8.8-8,4.4-1.1,7.3.9,9.7,4.2.8,1.1,1.6,2.3,2.7,2.8,8.5,4,10.9,11.3,11.3,20.3Z"/>
      <path class="cls-2" d="M3630.8,839.2c2.3-.1,3.9,1.4,3.8,5.1-.2,8.4,2.7,16.5,3.5,24.7.6,7,3,14,.5,21.2-1.6,4.4-5.2,5.5-8.8,6.1-3.6.7-6-1.9-7.3-4.9-4.4-10.3-8.3-20.4-8.7-32.1-.3-8.4-1.2-14.2,8.4-16.9,2.4-.7,4.5-3.1,8.7-3.2Z"/>
      <path class="cls-2" d="M3063,1037.6c-.5-2.4,0-5.1,2.8-5.9,4-1.2,8.5-1.6,11.7,1.8,4.1,4.5,8.1,9.1,10.8,14.6,1.5,3.1,2.8,6.3,5.2,8.9.4.5.8,1.1,1,1.7,2.3,7-4.2,20.4-11.2,22.4-3.3,1-6.6.6-8.6-2.9-6.6-11.5-11.1-26.8-11.6-40.6Z"/>
      <path class="cls-2" d="M3779.1,761.5c-8.8-.3-10.7,1.7-13.4-10.1-1.4-6.3-1.6-12,.7-17.9,3.1-7.5,10.3-11.2,19.2-6.8,2,1,3.9,2.5,6.4,2.4,1.3,0,2.2.8,2.3,2.1.5,4.7,3.4,8.6,4.7,13,1.9,6.6.5,10.6-5.9,13.5-4.9,2.2-9.7,4.3-14.1,3.7Z"/>
      <path class="cls-2" d="M3252.9,681.1c2.8-.3,5.3.9,7.7,3,3.3,3,6.9,5.6,11.2,6.9,1.7.5,2.4,1.5,2.7,3.1,1.3,5.9-3,12.6-8.9,13.3-2.3.3-2.9,1.8-4,3.2-2.6,3.7-5.4,7.2-10.8,6.8-4.6-.3-8.3-3.3-8.6-7.9-.2-2.5-.8-4.5-2.8-6.1-3.2-2.7-3.9-6.2-2.4-9.9,2.8-6.9,7.1-12.6,15.8-12.4Z"/>
      <path class="cls-2" d="M3462.4,733.2c-.5-3,0-6.6-.9-10.3-1.2-4.5-3.3-7.5-7.6-9.7-7.5-3.9-12.4-18.7-9.2-26.3.9-2.3,2.9-3.7,5.4-3.7,4.2,0,8.3-.7,11.9,3.1,6,6.3,7.6,13.5,6.7,21.7-.5,4.2,2.1,7.9,1.9,12.2-.2,4.6.1,9.2-1.5,13.8-.8,2.3-.9,4.9.5,7.2,1.7,2.8-.1,4.7-2.2,5.7-2.7,1.3-3.9-1.2-4.6-3.2-1.1-3.2-.4-6.6-.4-10.5Z"/>
      <path class="cls-2" d="M3464.1,797.1c-.5-5.3.8-8.3,4.9-9.7,1.6-.5,3.5-.5,3.5,1.4-.2,4.4,2.9,8.1,2.3,12.6-.4,3.5,1.4,8-4.7,8.5-1.3.1-1.2,1.8-1.3,2.9-1,7.2-5.4,11.4-12.7,11.8-4.1.2-6.8-1-7.9-5.6-1.5-6-1.5-12.1-2.7-18.2-1-5.2,2.8-8.6,8.1-7.9,3.4.5,6.9.7,10.7,4Z"/>
      <path class="cls-2" d="M3162.3,730.4c-.1,4.3,4,3.5,5.8,3.3,8.1-.7,7.6-.8,10.4,6.8,1.7,4.6,1.2,7.9-2.9,10-2.8,1.4-6.2,2.5-7.3-2.4-.2-.7,0-2-1.3-1.6-.9.3-1.9,1.2-1.2,2.3.9,1.4,1.2,2.8.8,4.3-.4,1.9-1.7,3.4-3.5,3.9-2.5.6-1.7-1.7-2.1-3-.2-.6-.6-1.2-1-1.6-2.7-2.9-7.2-5-3.4-10.3.7-1,0-4.5-3.1-4.6-3.1-.1-3.4-2.3-3.2-4.5.3-3.5-1-6.1-3.6-8.2-3.7-3-2.9-6.9-1.7-10.5,1.4-4,6.9-4.8,9.9-1.4,4.4,4.8,5.4,11.3,7.4,17.5Z"/>
      <path class="cls-2" d="M3612.2,978.5c-.2-4.6-.3-9,5.4-10.9,5.4-1.8,12-.5,15.6,3.5,1,1.1,2.1,2.2,3.1,3.2,5.4,5.4,3.8,8.8.6,14.8-4.4,8.2-12.1,5.1-17.8,8-2.2,1.1-5.8-3.5-6.2-7.7-.4-3.6-.4-7.3-.6-10.9Z"/>
      <path class="cls-2" d="M3758.4,1018.3c.6,5.7-.7,9.1-5.4,10.1-2.8.6-4.9,0-6.3-3.2-4.9-11.2-8.7-22.8-10.2-35-.4-2.8-.9-5.8,3-6.9,4.9-1.3,8,0,9.3,3.9.3.8.6,1.5,1.2,2.2,7.6,8.8,6.9,19.9,8.4,28.9Z"/>
      <path class="cls-2" d="M3698.6,977.5c0,3.2,1.2,7.5-2.6,8.9-4.9,1.7-10.1,3.4-15.5,1.7-1.5-.5-2.2-1.9-2.3-3.6-.3-4.9-.7-9.8-1.1-14.7-.1-1.7.8-2.7,1.8-3.9,4.7-5.4,10.3-3.5,15.5-1.6,3.3,1.2,3.2,5.3,4.1,8.3.4,1.5,0,3.3,0,5Z"/>
      <path class="cls-2" d="M3264.7,935.5c-5.5,0-7.8-2.1-8.4-8-.3-3.3.3-6.6-1.5-9.7-.7-1.3-.2-2.9.6-4.3,2-3.2,4.1-6.3,5.7-9.8,1.3-2.9,4.1-3.5,6.7-2,2.3,1.3,3.3,3,1.7,6.1-2.7,5.1,1.7,9.8,1.9,14.8,0,1.4,1,2.8,1.1,4.3.6,6.2-1.5,8.5-7.8,8.6Z"/>
      <path class="cls-2" d="M3190.3,782.8c.7-4.5,2.3-8.8,8.1-9.5,4.9-.5,7,.9,8.4,6,.6,2.2.9,4.9,2.2,6.5,4,4.8,1.8,9.9,1.3,14.9-.1,1.4-.9,2.4-2.5,2.6-5.1.7-13.1-5.7-13.6-11-.4-3.7-3.4-6.4-3.9-9.7Z"/>
      <path class="cls-2" d="M3633.5,826.7c-3.3,4.3-8.6,4-11.6-.5-3.4-5-6.2-10.1-.6-15.5.5-.5.7-1.5.7-2.3.2-2.9,1.6-4.8,4.4-5.2,2.9-.4,5.8.4,7.3,3.2,1.3,2.5,2.2,5.2,3,7.9,1.4,4.4,2.8,8.8,3.8,13.2.4,1.8.9,4.3-1.4,5.3-3,1.3-2.6-2.1-3.9-3.3-.8-.8-1.2-1.9-1.7-2.9Z"/>
      <path class="cls-2" d="M3238.8,733.2c-.2,10.6-1.9,12.5-8.1,12.2-2.2-.1-3.5-.9-4.7-2.9-3.8-6.9-4.1-14.5-5.4-21.9-.6-3.6,2.2-6.3,5.6-7.2,3.5-.9,5.2,1.4,6.6,4.5,2.6,5.9,5.7,11.5,5.9,15.4Z"/>
      <path class="cls-2" d="M3528.3,1041.1c-.9-6.4,1.4-10.4,7.5-11.8,2.2-.5,1.4-1.6.9-2.9-.7-1.8-.9-3.8,1.7-4.3,2.6-.5,4.4.6,4.3,3.4-.1,4.6.8,8.7,3.3,12.7,2.2,3.6-3.9,15.4-8.1,16.4-3.8.9-5.8-1.8-7.4-4.5-1.7-2.8-3.1-5.9-2.1-9Z"/>
      <path class="cls-2" d="M3467.9,894.8c-.3,9.9-3.7,13.5-10,12.6-4.8-.7-5.7-4.9-7.2-8.1-1.1-2.4-1.6-5.3-2.1-8-.5-2.9-1.2-6.3,2.6-8.3,4.4-2.3,8.7-1.4,11.4,1.8,2.6,3.2,4.8,7.2,5.3,9.9Z"/>
      <path class="cls-2" d="M3410.7,627c.5,3.7,0,7-5.2,8.1-5.1,1.1-7.1-2-8.2-5.8-1.6-5.3-2.7-10.8-4.7-16-.7-1.8.2-3.5,1.7-4.9,1.6-1.5,3-.3,4.5.1,9.3,2.5,11.9,9.4,11.9,18.5Z"/>
      <path class="cls-2" d="M3534.2,1103.4c0-8,1.6-10.3,6.7-10.2,7.7.2,11.7,4.5,11.7,12.6,0,6.6-1.3,7.7-9.6,7.6-7.9,0-8.9-1.2-8.8-10.1Z"/>
      <path class="cls-2" d="M3812,815.5c-2-1-8,1.3-4.3-5.4,1.1-1.9-.9-3.3-2.2-3.9-4.9-2.5-3.2-6.8-3.2-10.5,0-2.1,1.9-2.6,3.6-2.5,4,.2,8.5-1,11,3.8,1.7,3.3,3.1,6.6,3.5,10.3.6,6.3-1.5,8.5-8.5,8.4Z"/>
      <path class="cls-2" d="M3402.5,1048.2c0,6.3-6.5,11-12.5,9-.8-.3-1.5-.8-2.1-1.3-1.4-1.3-3.2-12.9-2.7-14.8,1.1-3.6,3.5-4.4,6.8-3.8,6,1.1,10.4,5.7,10.4,10.9Z"/>
      <path class="cls-2" d="M3760.7,663.2c0,7.5-1.8,9.4-7.7,8.3-1.8-.3-3.4-1.2-3.9-2.7-1.7-4.6-3.2-9.3-4.6-14-.5-1.5.3-2.7,1.9-3.6,6.9-3.8,13.9,0,14.4,8,0,1.3,0,2.6,0,4Z"/>
      <path class="cls-2" d="M3495.6,885c6.7,0,11,6.1,8.8,12.4-.1.3-.2.7-.4.9-1.4,1.9-13.6,3.6-15.4,2-3.4-3.2-2.8-7.3-2.1-11.2.6-3.3,3.5-4.1,6.6-4.1.8,0,1.7,0,2.5,0Z"/>
      <path class="cls-2" d="M3528.4,1058.1c.7,4.1-.6,7.3-3.8,9.8-4.2,3.4-9.2,1.7-10.2-3.5-1.2-5.6,1-10.5,3.5-15.2,1.7-3.3,6.3-3.2,8.1.3,1.4,2.6,3.7,5.3,2.4,8.6Z"/>
      <path class="cls-2" d="M3778.6,776.4c.1,8.5-1.3,10.1-7.2,9.1-.2,0-.3,0-.5,0-3.7-1.4-4.4-5-4.5-8.1-.2-4.6-2.3-9.8,1.8-13.6,1.6-1.4,4.4-1.1,6.1,1.3,2.6,3.7,5.4,7.3,4.3,11.4Z"/>
      <path class="cls-2" d="M3782.3,793.3c0-3.8,4.5-8.4,7.9-8,2,.2,6.7,7.8,6.4,10.5-.5,4.4-3.5,5.6-7.4,5.7-4.5,0-6.7-2.3-6.9-6.7,0-.5,0-1,0-1.5Z"/>
    </g>
  </g>
  <g id="Beschriftung">
    <line class="cls-1" x1="1556.8" y1="1379.7" x2="1806.8" y2="1129.6"/>
    <line class="cls-1" x1="2934.9" y1="607.6" x2="3063.7" y2="736.4"/>
    <g>
      <path class="cls-4" d="M1403,1420.7l6.6-25.2h8.3l6.6,25.2h-4.9l-1.4-5.5h-9l-1.4,5.5h-4.9ZM1410.4,1410.7h6.8l-3.1-12.3h-.6l-3.1,12.3Z"/>
      <path class="cls-4" d="M1434.6,1420.7c-1.2,0-2.1-.4-2.9-1.1-.7-.7-1.1-1.7-1.1-2.9v-10.1h-4.5v-3.7h4.5v-5.5h4.5v5.5h4.9v3.7h-4.9v9.3c0,.7.3,1.1,1,1.1h3.5v3.7h-5Z"/>
      <path class="cls-4" d="M1457.5,1427.9v-9.3h-.6c-.2.4-.6.8-1,1.2-.5.4-1.1.7-1.8,1-.7.3-1.6.4-2.7.4s-2.8-.4-4-1.1c-1.2-.7-2.2-1.7-3-3.1-.7-1.4-1.1-3-1.1-5v-.6c0-1.9.4-3.6,1.1-5,.7-1.4,1.7-2.4,3-3.1,1.2-.7,2.6-1.1,4-1.1s2.9.3,3.7.8,1.5,1.2,1.9,1.9h.6v-2.2h4.5v25.1h-4.5ZM1452.7,1417.2c1.4,0,2.6-.5,3.5-1.3.9-.9,1.4-2.2,1.4-3.9v-.4c0-1.7-.5-3-1.4-3.9-.9-.9-2.1-1.4-3.5-1.4s-2.6.5-3.5,1.4c-.9.9-1.4,2.2-1.4,3.9v.4c0,1.7.5,3,1.4,3.9.9.9,2.1,1.3,3.5,1.3Z"/>
      <path class="cls-4" d="M1472.7,1421.2c-1.3,0-2.4-.2-3.4-.7-1-.4-1.8-1.1-2.4-1.9-.6-.9-.9-1.9-.9-3.1s.3-2.2.9-3.1c.6-.8,1.4-1.5,2.4-1.9,1-.4,2.2-.6,3.6-.6h4.9v-1c0-.8-.3-1.5-.8-2.1s-1.4-.8-2.5-.8-2,.3-2.5.8c-.6.5-.9,1.2-1.1,2l-4.2-1.4c.3-.9.8-1.7,1.4-2.5.6-.8,1.5-1.4,2.6-1.8s2.4-.7,3.9-.7c2.4,0,4.2.6,5.6,1.8,1.4,1.2,2.1,2.9,2.1,5.1v6.7c0,.7.3,1.1,1,1.1h1.4v3.7h-3c-.9,0-1.6-.2-2.2-.6-.6-.4-.9-1-.9-1.7h0s-.7,0-.7,0c0,.3-.3.7-.6,1.1-.3.5-.9.9-1.6,1.2-.7.4-1.7.5-3,.5ZM1473.5,1417.5c1.3,0,2.3-.4,3.1-1.1.8-.7,1.2-1.6,1.2-2.8v-.4h-4.6c-.8,0-1.5.2-2,.5-.5.4-.7.9-.7,1.5s.3,1.2.8,1.6c.5.4,1.2.6,2.2.6Z"/>
      <path class="cls-4" d="M1495.3,1421.2c-2.3,0-4.2-.5-5.7-1.5-1.5-1-2.4-2.4-2.7-4.3l4.2-1.1c.2.8.5,1.5.8,2s.9.8,1.5,1c.6.2,1.2.3,1.9.3,1.1,0,1.8-.2,2.3-.6.5-.4.8-.8.8-1.4s-.2-1-.7-1.3c-.5-.3-1.2-.5-2.3-.7l-1-.2c-1.2-.2-2.4-.6-3.4-1-1-.4-1.9-1-2.5-1.7-.6-.7-.9-1.7-.9-2.9,0-1.8.6-3.1,1.9-4.1,1.3-.9,3-1.4,5.1-1.4s3.6.4,5,1.3c1.3.9,2.2,2.1,2.6,3.5l-4.2,1.3c-.2-.9-.6-1.6-1.2-1.9-.6-.4-1.3-.6-2.2-.6s-1.5.2-2,.5c-.5.3-.7.7-.7,1.2s.2,1,.7,1.3c.5.3,1.1.5,1.9.6l1,.2c1.3.2,2.6.6,3.7,1,1.1.4,2,1,2.6,1.7.6.7,1,1.7,1,3,0,1.9-.7,3.3-2,4.3-1.4,1-3.2,1.5-5.5,1.5Z"/>
      <path class="cls-4" d="M1513.6,1420.9c-1.4,0-2.6-.3-3.7-1s-1.9-1.5-2.4-2.6c-.6-1.1-.9-2.4-.9-3.9v-10.7h4.5v10.3c0,1.3.3,2.4,1,3s1.6,1,2.8,1,2.5-.5,3.2-1.4,1.2-2.2,1.2-3.9v-9.1h4.5v17.9h-4.5v-2.3h-.6c-.3.6-.8,1.2-1.6,1.8s-2,.9-3.6.9Z"/>
      <path class="cls-4" d="M1529,1420.7v-25.2h4.5v13.9h.6l5.9-6.6h5.9l-8.2,8.6,8.5,9.2h-5.8l-6.3-7.1h-.6v7.1h-4.5Z"/>
      <path class="cls-4" d="M1436.4,1463.9l7.8-25.2h5.3l7.8,25.2h-3.1l-1.9-6.4h-10.7l-1.9,6.4h-3.1ZM1442.2,1454.7h9.2l-4.3-14.3h-.5l-4.4,14.3Z"/>
      <path class="cls-4" d="M1461.2,1463.9v-25.2h2.8v25.2h-2.8Z"/>
      <path class="cls-4" d="M1475.4,1464.4c-1.2,0-2.3-.2-3.3-.6-1-.4-1.8-1.1-2.4-1.9-.6-.8-.9-1.8-.9-3s.3-2.2.9-3,1.4-1.4,2.4-1.8c1-.4,2.1-.6,3.4-.6h5.9v-1.3c0-1.2-.4-2.2-1.1-3-.7-.7-1.8-1.1-3.3-1.1s-2.5.3-3.3,1c-.8.7-1.3,1.6-1.6,2.8l-2.7-.9c.3-1,.7-1.9,1.4-2.7s1.5-1.5,2.5-1.9c1-.5,2.3-.7,3.8-.7,2.3,0,4,.6,5.3,1.7,1.2,1.2,1.9,2.8,1.9,4.9v8c0,.7.3,1.1,1,1.1h1.6v2.4h-2.5c-.8,0-1.4-.2-1.9-.7-.5-.4-.7-1-.7-1.8v-.2h-.4c-.3.5-.6.9-1.1,1.4-.4.5-1,.9-1.8,1.2-.8.3-1.8.5-3,.5ZM1475.7,1461.9c1.7,0,3-.5,4.1-1.5,1-1,1.6-2.4,1.6-4.2v-.4h-5.8c-1.1,0-2.1.2-2.8.7-.7.5-1.1,1.2-1.1,2.2s.4,1.8,1.1,2.3c.8.6,1.7.8,2.9.8Z"/>
      <path class="cls-4" d="M1497.8,1464.4c-2.2,0-4-.5-5.5-1.5-1.5-1-2.4-2.6-2.7-4.8l2.7-.6c.2,1.2.6,2.1,1.1,2.7.5.7,1.2,1.1,2,1.4.8.3,1.6.4,2.5.4,1.3,0,2.4-.3,3.1-.8.8-.5,1.2-1.2,1.2-2.1s-.4-1.6-1.1-1.9c-.7-.4-1.7-.7-3-.9l-1.5-.3c-1.1-.2-2.2-.5-3.1-.9-.9-.4-1.7-1-2.2-1.7-.6-.7-.8-1.6-.8-2.6,0-1.6.6-2.8,1.8-3.7,1.2-.9,2.8-1.3,4.9-1.3s3.6.5,4.8,1.4c1.2.9,2,2.2,2.4,3.8l-2.7.7c-.2-1.3-.7-2.2-1.5-2.7-.8-.5-1.8-.8-3-.8s-2.1.2-2.8.7c-.7.4-1,1.1-1,2s.3,1.5,1,1.9,1.5.7,2.6.9l1.5.3c1.2.2,2.4.5,3.4.9,1,.4,1.8.9,2.4,1.6.6.7.9,1.6.9,2.7,0,1.7-.6,3.1-1.9,4-1.3.9-3,1.4-5.2,1.4Z"/>
      <path class="cls-4" d="M1509.7,1463.9v-25.2h2.8v14.8h.5l8.1-7.2h4l-9.8,8.6,10,9h-3.9l-8.4-7.7h-.5v7.7h-2.8Z"/>
      <path class="cls-4" d="M1534.4,1464.4c-1.2,0-2.3-.2-3.3-.6-1-.4-1.8-1.1-2.4-1.9-.6-.8-.9-1.8-.9-3s.3-2.2.9-3,1.4-1.4,2.4-1.8c1-.4,2.1-.6,3.4-.6h5.9v-1.3c0-1.2-.4-2.2-1.1-3-.7-.7-1.8-1.1-3.3-1.1s-2.5.3-3.3,1c-.8.7-1.3,1.6-1.6,2.8l-2.7-.9c.3-1,.7-1.9,1.4-2.7s1.5-1.5,2.5-1.9c1-.5,2.3-.7,3.8-.7,2.3,0,4,.6,5.3,1.7,1.2,1.2,1.9,2.8,1.9,4.9v8c0,.7.3,1.1,1,1.1h1.6v2.4h-2.5c-.8,0-1.4-.2-1.9-.7-.5-.4-.7-1-.7-1.8v-.2h-.4c-.3.5-.6.9-1.1,1.4-.4.5-1,.9-1.8,1.2-.8.3-1.8.5-3,.5ZM1534.8,1461.9c1.7,0,3-.5,4.1-1.5,1-1,1.6-2.4,1.6-4.2v-.4h-5.8c-1.1,0-2.1.2-2.8.7-.7.5-1.1,1.2-1.1,2.2s.4,1.8,1.1,2.3c.8.6,1.7.8,2.9.8Z"/>
      <path class="cls-4" d="M1490.5,1507.6c-1.9,0-3.5-.3-4.9-1-1.4-.7-2.5-1.7-3.2-3-.8-1.3-1.2-3-1.2-4.9v-16.8h3v16.8c0,2.1.6,3.6,1.7,4.6,1.1,1,2.7,1.5,4.6,1.5s3.5-.5,4.6-1.5c1.1-1,1.7-2.6,1.7-4.6v-16.8h3v16.8c0,1.9-.4,3.6-1.2,4.9-.8,1.3-1.9,2.3-3.3,3-1.4.7-3,1-4.9,1Z"/>
      <path class="cls-4" d="M1513.7,1507.6c-1.8,0-3.5-.3-4.9-1-1.4-.6-2.6-1.6-3.4-2.9-.8-1.3-1.2-2.9-1.2-4.9v-.8h3v.8c0,2.1.6,3.6,1.8,4.7,1.2,1,2.8,1.5,4.7,1.5s3.5-.4,4.5-1.3c1-.9,1.5-2,1.5-3.3s-.2-1.7-.7-2.2c-.5-.6-1.1-1-2-1.3-.8-.3-1.8-.7-3-.9l-1.9-.5c-1.5-.4-2.8-.9-3.9-1.4-1.1-.6-2-1.3-2.6-2.2-.6-.9-1-2.1-1-3.5s.4-2.6,1.1-3.7c.7-1,1.7-1.8,3-2.4,1.3-.6,2.8-.8,4.4-.8s3.2.3,4.6.9c1.4.6,2.4,1.5,3.2,2.6.8,1.1,1.2,2.6,1.2,4.3v1.5h-3v-1.5c0-1.2-.3-2.2-.8-3-.5-.7-1.2-1.3-2.1-1.7s-1.9-.5-3.1-.5c-1.7,0-3,.4-4,1.1-1,.7-1.5,1.8-1.5,3.1s.2,1.6.6,2.2c.4.6,1,1,1.8,1.4s1.7.7,2.8.9l1.9.5c1.5.3,2.8.7,3.9,1.3,1.2.5,2.1,1.3,2.8,2.2.7.9,1,2.1,1,3.6s-.4,2.8-1.1,3.9c-.7,1.1-1.8,2-3.1,2.6-1.4.6-2.9.9-4.8.9Z"/>
      <path class="cls-4" d="M1525.4,1507.1l7.8-25.2h5.3l7.8,25.2h-3.1l-1.9-6.4h-10.7l-1.9,6.4h-3.1ZM1531.3,1497.9h9.2l-4.3-14.3h-.5l-4.4,14.3Z"/>
    </g>
    <g>
      <path class="cls-4" d="M1549.4,1549.6v-25.2h3.9v25.2h-3.9Z"/>
      <path class="cls-4" d="M1558.6,1549.6v-17.7h3.6v2.7h.6c.3-.7.9-1.4,1.8-2s2.1-.9,3.9-.9,2.5.3,3.6.9c1,.6,1.9,1.4,2.5,2.5.6,1.1.9,2.4.9,3.9v10.7h-3.7v-10.4c0-1.5-.4-2.7-1.2-3.4-.8-.7-1.8-1.1-3.2-1.1s-2.8.5-3.7,1.5c-.9,1-1.4,2.5-1.4,4.4v9h-3.7Z"/>
      <path class="cls-4" d="M1597.3,1550.1c-1.5,0-2.8-.4-4.1-1.1-1.2-.7-2.2-1.8-3-3.1-.8-1.4-1.1-3-1.1-4.9v-.5c0-1.9.4-3.5,1.1-4.9.7-1.4,1.7-2.4,3-3.1,1.2-.7,2.6-1.1,4.1-1.1s2.1.1,2.9.4c.8.3,1.4.7,1.9,1.1.5.4.9.9,1.2,1.4h.6v-9.9h3.7v25.2h-3.6v-2.5h-.6c-.5.8-1.1,1.5-2.1,2.1-.9.6-2.2.9-4,.9ZM1598.3,1546.9c1.6,0,2.9-.5,4-1.5,1-1,1.6-2.5,1.6-4.4v-.3c0-1.9-.5-3.4-1.5-4.4-1-1-2.4-1.5-4-1.5s-2.9.5-3.9,1.5c-1,1-1.6,2.5-1.6,4.4v.3c0,1.9.5,3.4,1.6,4.4,1,1,2.4,1.5,3.9,1.5Z"/>
      <path class="cls-4" d="M1621.2,1550.1c-1.8,0-3.4-.4-4.7-1.1-1.3-.8-2.4-1.8-3.1-3.2-.8-1.4-1.1-3-1.1-4.8v-.4c0-1.8.4-3.5,1.1-4.8.7-1.4,1.8-2.4,3.1-3.2s2.9-1.1,4.6-1.1,3.2.4,4.5,1.1c1.3.8,2.3,1.8,3,3.2s1.1,2.9,1.1,4.7v1.4h-13.6c0,1.6.6,2.8,1.6,3.7,1,.9,2.2,1.4,3.7,1.4s2.4-.3,3.1-.9c.7-.6,1.3-1.3,1.6-2.2l3.1,1.6c-.3.7-.8,1.4-1.5,2.1-.6.7-1.5,1.4-2.5,1.9-1,.5-2.4.8-4,.8ZM1616,1538.9h9.8c0-1.3-.6-2.4-1.4-3.1s-2-1.1-3.4-1.1-2.5.4-3.4,1.1c-.9.8-1.4,1.8-1.6,3.1Z"/>
      <path class="cls-4" d="M1634,1549.6v-17.7h3.6v2.1h.6c.3-.7.7-1.3,1.4-1.6.6-.3,1.4-.5,2.4-.5h2.1v3.3h-2.3c-1.2,0-2.2.3-3,1-.8.7-1.2,1.7-1.2,3v10.4h-3.7Z"/>
      <path class="cls-4" d="M1666.5,1550.1c-2,0-3.7-.4-5.1-1.1-1.4-.7-2.5-1.8-3.3-3.1-.8-1.4-1.2-3-1.2-4.9v-16.6h3.9v16.7c0,1.8.5,3.1,1.5,4.1,1,1,2.4,1.4,4.2,1.4s3.2-.5,4.2-1.4c1-1,1.5-2.3,1.5-4.1v-16.7h3.9v16.6c0,1.9-.4,3.6-1.2,4.9-.8,1.4-1.9,2.4-3.3,3.1-1.4.7-3.1,1.1-5.1,1.1Z"/>
      <path class="cls-4" d="M1681.2,1549.6v-17.7h3.6v2.1h.6c.3-.6.9-1.2,1.6-1.7.7-.5,1.8-.7,3-.7s2.4.3,3.2.8c.8.5,1.4,1.2,1.8,2.1h.6c.4-.8,1-1.5,1.8-2.1.8-.6,1.9-.8,3.3-.8s2.2.2,3.1.7c.9.5,1.6,1.2,2.1,2.1.5.9.8,2.1.8,3.4v11.8h-3.7v-11.5c0-1.1-.3-1.9-.9-2.5-.6-.6-1.4-.9-2.5-.9s-2.1.4-2.8,1.1c-.7.7-1,1.8-1,3.2v10.6h-3.7v-11.5c0-1.1-.3-1.9-.9-2.5-.6-.6-1.4-.9-2.5-.9s-2.1.4-2.8,1.1c-.7.7-1,1.8-1,3.2v10.6h-3.7Z"/>
      <path class="cls-4" d="M1711.2,1540.8v-.5c0-1.9.4-3.5,1.1-4.8.8-1.3,1.8-2.3,3-3.1,1.2-.7,2.6-1.1,4.1-1.1s3.1.3,4,1c.9.6,1.6,1.3,2,2.1h.6v-2.6h3.6v21.4c0,1.1-.3,1.9-1,2.6-.6.6-1.5,1-2.6,1h-12v-3.2h10.8c.7,0,1-.4,1-1.1v-5.7h-.6c-.3.4-.6.9-1.1,1.3-.5.5-1.1.8-1.9,1.1-.8.3-1.8.4-2.9.4s-2.9-.4-4.1-1.1-2.3-1.7-3-3.1c-.7-1.3-1.1-2.9-1.1-4.8ZM1720.5,1546.5c1.6,0,2.9-.5,4-1.5,1-1,1.6-2.4,1.6-4.2v-.3c0-1.8-.5-3.3-1.5-4.3-1-1-2.4-1.5-4-1.5s-2.9.5-3.9,1.5c-1,1-1.6,2.4-1.6,4.3v.3c0,1.8.5,3.2,1.6,4.2,1,1,2.4,1.5,3.9,1.5Z"/>
      <path class="cls-4" d="M1743.3,1550.1c-1.8,0-3.4-.4-4.7-1.1-1.3-.8-2.4-1.8-3.1-3.2-.8-1.4-1.1-3-1.1-4.8v-.4c0-1.8.4-3.5,1.1-4.8.7-1.4,1.8-2.4,3.1-3.2s2.9-1.1,4.6-1.1,3.2.4,4.5,1.1c1.3.8,2.3,1.8,3,3.2s1.1,2.9,1.1,4.7v1.4h-13.6c0,1.6.6,2.8,1.6,3.7,1,.9,2.2,1.4,3.7,1.4s2.4-.3,3.1-.9c.7-.6,1.3-1.3,1.6-2.2l3.1,1.6c-.3.7-.8,1.4-1.5,2.1-.6.7-1.5,1.4-2.5,1.9-1,.5-2.4.8-4,.8ZM1738.1,1538.9h9.8c0-1.3-.6-2.4-1.4-3.1s-2-1.1-3.4-1.1-2.5.4-3.4,1.1c-.9.8-1.4,1.8-1.6,3.1Z"/>
      <path class="cls-4" d="M1766.4,1550.1c-1.7,0-3.1-.3-4-.9-.9-.6-1.6-1.3-2.1-2.1h-.6v2.5h-3.6v-25.2h3.7v9.9h.6c.3-.5.7-.9,1.2-1.4.5-.4,1.1-.8,1.9-1.1s1.8-.4,2.9-.4,2.9.4,4.1,1.1c1.2.7,2.2,1.8,3,3.1.7,1.4,1.1,3,1.1,4.9v.5c0,1.9-.4,3.6-1.1,4.9-.8,1.4-1.8,2.4-3,3.1-1.2.7-2.6,1.1-4.1,1.1ZM1765.3,1546.9c1.6,0,2.9-.5,4-1.5,1-1,1.6-2.5,1.6-4.4v-.3c0-1.9-.5-3.4-1.5-4.4-1-1-2.4-1.5-4-1.5s-2.9.5-3.9,1.5c-1,1-1.6,2.5-1.6,4.4v.3c0,1.9.5,3.4,1.6,4.4,1,1,2.4,1.5,3.9,1.5Z"/>
      <path class="cls-4" d="M1786,1549.9c-1.3,0-2.5-.3-3.6-.9-1.1-.6-1.9-1.5-2.5-2.6-.6-1.1-.9-2.4-.9-4v-10.7h3.7v10.4c0,1.5.4,2.7,1.2,3.4.8.7,1.8,1.1,3.2,1.1s2.7-.5,3.7-1.5c.9-1,1.4-2.5,1.4-4.4v-9h3.7v17.7h-3.6v-2.7h-.6c-.3.7-.9,1.4-1.8,2s-2.1,1-3.8,1Z"/>
      <path class="cls-4" d="M1801.3,1549.6v-17.7h3.6v2.7h.6c.3-.7.9-1.4,1.8-2s2.1-.9,3.9-.9,2.5.3,3.6.9c1,.6,1.9,1.4,2.5,2.5.6,1.1.9,2.4.9,3.9v10.7h-3.7v-10.4c0-1.5-.4-2.7-1.2-3.4-.8-.7-1.8-1.1-3.2-1.1s-2.8.5-3.7,1.5c-.9,1-1.4,2.5-1.4,4.4v9h-3.7Z"/>
      <path class="cls-4" d="M1822.6,1540.8v-.5c0-1.9.4-3.5,1.1-4.8.8-1.3,1.8-2.3,3-3.1,1.2-.7,2.6-1.1,4.1-1.1s3.1.3,4,1c.9.6,1.6,1.3,2,2.1h.6v-2.6h3.6v21.4c0,1.1-.3,1.9-1,2.6-.6.6-1.5,1-2.6,1h-12v-3.2h10.8c.7,0,1-.4,1-1.1v-5.7h-.6c-.3.4-.6.9-1.1,1.3-.5.5-1.1.8-1.9,1.1-.8.3-1.8.4-2.9.4s-2.9-.4-4.1-1.1-2.3-1.7-3-3.1c-.7-1.3-1.1-2.9-1.1-4.8ZM1831.9,1546.5c1.6,0,2.9-.5,4-1.5,1-1,1.6-2.4,1.6-4.2v-.3c0-1.8-.5-3.3-1.5-4.3-1-1-2.4-1.5-4-1.5s-2.9.5-3.9,1.5c-1,1-1.6,2.4-1.6,4.3v.3c0,1.8.5,3.2,1.6,4.2,1,1,2.4,1.5,3.9,1.5Z"/>
      <path class="cls-4" d="M1859.8,1549.6l-6-17.7h3.9l4.7,15h.6l4.7-15h3.9l-6,17.7h-5.9Z"/>
      <path class="cls-4" d="M1883.6,1550.1c-1.8,0-3.4-.4-4.7-1.1-1.4-.7-2.5-1.8-3.3-3.2s-1.2-3-1.2-4.9v-.5c0-1.9.4-3.5,1.2-4.8.8-1.4,1.9-2.4,3.3-3.1,1.4-.7,3-1.1,4.7-1.1s3.4.4,4.8,1.1c1.4.7,2.5,1.8,3.3,3.1.8,1.4,1.2,3,1.2,4.8v.5c0,1.9-.4,3.5-1.2,4.9s-1.9,2.4-3.3,3.2c-1.4.7-3,1.1-4.8,1.1ZM1883.6,1546.8c1.6,0,3-.5,4-1.6,1-1,1.5-2.5,1.5-4.3v-.3c0-1.8-.5-3.3-1.5-4.3-1-1-2.3-1.6-4-1.6s-2.9.5-3.9,1.6c-1,1-1.5,2.5-1.5,4.3v.3c0,1.8.5,3.3,1.5,4.3,1,1,2.3,1.6,3.9,1.6Z"/>
      <path class="cls-4" d="M1897.4,1549.6v-17.7h3.6v2.7h.6c.3-.7.9-1.4,1.8-2s2.1-.9,3.9-.9,2.5.3,3.6.9c1,.6,1.9,1.4,2.5,2.5.6,1.1.9,2.4.9,3.9v10.7h-3.7v-10.4c0-1.5-.4-2.7-1.2-3.4-.8-.7-1.8-1.1-3.2-1.1s-2.8.5-3.7,1.5c-.9,1-1.4,2.5-1.4,4.4v9h-3.7Z"/>
      <path class="cls-4" d="M1926.3,1549.6l7.2-25.2h6.8l7.2,25.2h-4l-1.7-5.9h-9.9l-1.7,5.9h-4ZM1932.9,1540.1h7.9l-3.7-13.2h-.6l-3.7,13.2Z"/>
      <path class="cls-4" d="M1957.7,1549.6c-1.1,0-1.9-.3-2.6-1-.6-.6-1-1.5-1-2.6v-11.1h-4.9v-3.1h4.9v-5.9h3.7v5.9h5.3v3.1h-5.3v10.4c0,.7.3,1.1,1,1.1h3.7v3.1h-4.9Z"/>
      <path class="cls-4" d="M1981.4,1556.8v-9.6h-.6c-.3.5-.6.9-1.2,1.4-.5.4-1.1.8-1.9,1.1-.8.3-1.7.4-2.9.4s-2.9-.4-4.1-1.1c-1.2-.7-2.2-1.8-3-3.1-.7-1.4-1.1-3-1.1-4.9v-.5c0-1.9.4-3.6,1.1-4.9.8-1.4,1.8-2.4,3-3.1,1.2-.7,2.6-1.1,4.1-1.1s3.1.3,4,.9c.9.6,1.6,1.3,2.1,2.1h.6v-2.6h3.6v24.9h-3.7ZM1975.9,1546.9c1.6,0,3-.5,4-1.5,1-1,1.5-2.5,1.5-4.4v-.3c0-1.9-.5-3.4-1.6-4.4s-2.4-1.5-4-1.5-2.9.5-3.9,1.5c-1,1-1.6,2.5-1.6,4.4v.3c0,1.9.5,3.4,1.6,4.4,1,1,2.4,1.5,3.9,1.5Z"/>
      <path class="cls-4" d="M1996.1,1550.1c-1.3,0-2.4-.2-3.4-.6-1-.4-1.8-1.1-2.4-1.9-.6-.8-.9-1.9-.9-3.1s.3-2.2.9-3c.6-.8,1.4-1.4,2.4-1.8,1-.4,2.2-.6,3.5-.6h5.4v-1.2c0-1-.3-1.9-.9-2.5-.6-.6-1.6-.9-2.9-.9s-2.2.3-2.9.9c-.7.6-1.1,1.4-1.3,2.3l-3.5-1.1c.3-1,.8-1.8,1.4-2.6.6-.8,1.5-1.4,2.5-1.9,1.1-.5,2.3-.7,3.8-.7,2.3,0,4.1.6,5.4,1.8,1.3,1.2,2,2.8,2,5v7.3c0,.7.3,1.1,1,1.1h1.5v3.1h-2.8c-.8,0-1.5-.2-2.1-.6-.5-.4-.8-1-.8-1.8h0c0-.1-.5-.1-.5-.1-.2.4-.5.8-.9,1.3-.4.5-.9.9-1.7,1.2-.7.3-1.7.5-3,.5ZM1996.6,1547.1c1.5,0,2.7-.4,3.6-1.3.9-.9,1.4-2,1.4-3.5v-.4h-5.2c-1,0-1.8.2-2.4.6-.6.4-.9,1-.9,1.9s.3,1.5.9,1.9c.6.5,1.5.7,2.6.7Z"/>
      <path class="cls-4" d="M2018.6,1550.1c-2.3,0-4.1-.5-5.6-1.5-1.5-1-2.4-2.5-2.7-4.6l3.5-.8c.2,1,.5,1.8,1,2.3.5.6,1,1,1.7,1.2.7.2,1.4.4,2.2.4,1.2,0,2.1-.2,2.7-.7.6-.5,1-1,1-1.8s-.3-1.2-.9-1.6c-.6-.3-1.5-.6-2.7-.8l-1.2-.2c-1.2-.2-2.3-.5-3.3-.9-1-.4-1.8-1-2.3-1.7-.6-.7-.9-1.6-.9-2.8,0-1.7.6-3,1.9-3.9,1.2-.9,2.9-1.4,5-1.4s3.6.5,4.9,1.3c1.3.9,2.1,2.1,2.5,3.7l-3.5,1c-.2-1.1-.7-1.8-1.4-2.3-.7-.4-1.6-.7-2.6-.7s-1.8.2-2.4.6-.9.9-.9,1.6.3,1.2.8,1.6c.6.3,1.3.6,2.3.8l1.3.2c1.3.2,2.4.5,3.5.9,1.1.4,1.9.9,2.5,1.7s.9,1.7.9,2.9c0,1.8-.7,3.2-2,4.1-1.3,1-3.1,1.5-5.3,1.5Z"/>
      <path class="cls-4" d="M2037.1,1549.9c-1.3,0-2.5-.3-3.6-.9-1.1-.6-1.9-1.5-2.5-2.6-.6-1.1-.9-2.4-.9-4v-10.7h3.7v10.4c0,1.5.4,2.7,1.2,3.4.8.7,1.8,1.1,3.2,1.1s2.7-.5,3.7-1.5c.9-1,1.4-2.5,1.4-4.4v-9h3.7v17.7h-3.6v-2.7h-.6c-.3.7-.9,1.4-1.8,2s-2.1,1-3.8,1Z"/>
      <path class="cls-4" d="M2052.4,1549.6v-25.2h3.7v14.4h.6l7-6.9h4.9l-9,8.6,9.3,9.1h-4.9l-7.3-7.4h-.6v7.4h-3.7Z"/>
      <path class="cls-4" d="M1549.5,1592.8v-25.2h3.7v25.2h-3.7Z"/>
      <path class="cls-4" d="M1560.6,1572.6c-.7,0-1.3-.2-1.8-.7-.5-.5-.7-1.1-.7-1.8s.2-1.4.7-1.8c.5-.5,1.1-.7,1.8-.7s1.4.2,1.8.7c.5.5.7,1.1.7,1.8s-.2,1.3-.7,1.8c-.5.5-1.1.7-1.8.7ZM1558.7,1592.8v-17.7h3.7v17.7h-3.7Z"/>
      <path class="cls-4" d="M1576,1593.3c-1.8,0-3.4-.4-4.7-1.1-1.3-.8-2.4-1.8-3.1-3.2-.8-1.4-1.1-3-1.1-4.8v-.4c0-1.8.4-3.5,1.1-4.8.7-1.4,1.8-2.4,3.1-3.2s2.9-1.1,4.6-1.1,3.2.4,4.5,1.1c1.3.8,2.3,1.8,3,3.2s1.1,2.9,1.1,4.7v1.4h-13.6c0,1.6.6,2.8,1.6,3.7,1,.9,2.2,1.4,3.7,1.4s2.4-.3,3.1-.9c.7-.6,1.3-1.3,1.6-2.2l3.1,1.6c-.3.7-.8,1.4-1.5,2.1-.6.7-1.5,1.4-2.5,1.9-1,.5-2.4.8-4,.8ZM1570.9,1582.1h9.8c0-1.3-.6-2.4-1.4-3.1s-2-1.1-3.4-1.1-2.5.4-3.4,1.1c-.9.8-1.4,1.8-1.6,3.1Z"/>
      <path class="cls-4" d="M1588.1,1584v-.5c0-1.9.4-3.5,1.1-4.8.8-1.3,1.8-2.3,3-3.1,1.2-.7,2.6-1.1,4.1-1.1s3.1.3,4,1c.9.6,1.6,1.3,2,2.1h.6v-2.6h3.6v21.4c0,1.1-.3,1.9-1,2.6-.6.6-1.5,1-2.6,1h-12v-3.2h10.8c.7,0,1-.4,1-1.1v-5.7h-.6c-.3.4-.6.9-1.1,1.3-.5.5-1.1.8-1.9,1.1-.8.3-1.8.4-2.9.4s-2.9-.4-4.1-1.1-2.3-1.7-3-3.1c-.7-1.3-1.1-2.9-1.1-4.8ZM1597.3,1589.7c1.6,0,2.9-.5,4-1.5,1-1,1.6-2.4,1.6-4.2v-.3c0-1.8-.5-3.3-1.5-4.3-1-1-2.4-1.5-4-1.5s-2.9.5-3.9,1.5c-1,1-1.6,2.4-1.6,4.3v.3c0,1.8.5,3.2,1.6,4.2,1,1,2.4,1.5,3.9,1.5Z"/>
      <path class="cls-4" d="M1620.1,1593.3c-1.8,0-3.4-.4-4.7-1.1-1.3-.8-2.4-1.8-3.1-3.2-.8-1.4-1.1-3-1.1-4.8v-.4c0-1.8.4-3.5,1.1-4.8.7-1.4,1.8-2.4,3.1-3.2s2.9-1.1,4.6-1.1,3.2.4,4.5,1.1c1.3.8,2.3,1.8,3,3.2s1.1,2.9,1.1,4.7v1.4h-13.6c0,1.6.6,2.8,1.6,3.7,1,.9,2.2,1.4,3.7,1.4s2.4-.3,3.1-.9c.7-.6,1.3-1.3,1.6-2.2l3.1,1.6c-.3.7-.8,1.4-1.5,2.1-.6.7-1.5,1.4-2.5,1.9-1,.5-2.4.8-4,.8ZM1614.9,1582.1h9.8c0-1.3-.6-2.4-1.4-3.1s-2-1.1-3.4-1.1-2.5.4-3.4,1.1c-.9.8-1.4,1.8-1.6,3.1Z"/>
      <path class="cls-4" d="M1633,1592.8v-17.7h3.6v2.7h.6c.3-.7.9-1.4,1.8-2s2.1-.9,3.9-.9,2.5.3,3.6.9c1,.6,1.9,1.4,2.5,2.5.6,1.1.9,2.4.9,3.9v10.7h-3.7v-10.4c0-1.5-.4-2.7-1.2-3.4-.8-.7-1.8-1.1-3.2-1.1s-2.8.5-3.7,1.5c-.9,1-1.4,2.5-1.4,4.4v9h-3.7Z"/>
      <path class="cls-4" d="M1671.7,1593.3c-1.5,0-2.8-.4-4.1-1.1-1.2-.7-2.2-1.8-3-3.1-.8-1.4-1.1-3-1.1-4.9v-.5c0-1.9.4-3.5,1.1-4.9.7-1.4,1.7-2.4,3-3.1,1.2-.7,2.6-1.1,4.1-1.1s2.1.1,2.9.4c.8.3,1.4.7,1.9,1.1.5.4.9.9,1.2,1.4h.6v-9.9h3.7v25.2h-3.6v-2.5h-.6c-.5.8-1.1,1.5-2.1,2.1-.9.6-2.2.9-4,.9ZM1672.7,1590.1c1.6,0,2.9-.5,4-1.5,1-1,1.6-2.5,1.6-4.4v-.3c0-1.9-.5-3.4-1.5-4.4-1-1-2.4-1.5-4-1.5s-2.9.5-3.9,1.5c-1,1-1.6,2.5-1.6,4.4v.3c0,1.9.5,3.4,1.6,4.4,1,1,2.4,1.5,3.9,1.5Z"/>
      <path class="cls-4" d="M1689.3,1572.6c-.7,0-1.3-.2-1.8-.7-.5-.5-.7-1.1-.7-1.8s.2-1.4.7-1.8c.5-.5,1.1-.7,1.8-.7s1.4.2,1.8.7c.5.5.7,1.1.7,1.8s-.2,1.3-.7,1.8c-.5.5-1.1.7-1.8.7ZM1687.4,1592.8v-17.7h3.7v17.7h-3.7Z"/>
      <path class="cls-4" d="M1704.7,1593.3c-1.8,0-3.4-.4-4.7-1.1-1.3-.8-2.4-1.8-3.1-3.2-.8-1.4-1.1-3-1.1-4.8v-.4c0-1.8.4-3.5,1.1-4.8.7-1.4,1.8-2.4,3.1-3.2s2.9-1.1,4.6-1.1,3.2.4,4.5,1.1c1.3.8,2.3,1.8,3,3.2s1.1,2.9,1.1,4.7v1.4h-13.6c0,1.6.6,2.8,1.6,3.7,1,.9,2.2,1.4,3.7,1.4s2.4-.3,3.1-.9c.7-.6,1.3-1.3,1.6-2.2l3.1,1.6c-.3.7-.8,1.4-1.5,2.1-.6.7-1.5,1.4-2.5,1.9-1,.5-2.4.8-4,.8ZM1699.6,1582.1h9.8c0-1.3-.6-2.4-1.4-3.1s-2-1.1-3.4-1.1-2.5.4-3.4,1.1c-.9.8-1.4,1.8-1.6,3.1Z"/>
      <path class="cls-4" d="M1731.7,1592.8v-21.7h-7.7v-3.5h19.4v3.5h-7.7v21.7h-3.9Z"/>
      <path class="cls-4" d="M1755.1,1593.3c-1.8,0-3.4-.4-4.7-1.1-1.3-.8-2.4-1.8-3.1-3.2-.8-1.4-1.1-3-1.1-4.8v-.4c0-1.8.4-3.5,1.1-4.8.7-1.4,1.8-2.4,3.1-3.2s2.9-1.1,4.6-1.1,3.2.4,4.5,1.1c1.3.8,2.3,1.8,3,3.2s1.1,2.9,1.1,4.7v1.4h-13.6c0,1.6.6,2.8,1.6,3.7,1,.9,2.2,1.4,3.7,1.4s2.4-.3,3.1-.9c.7-.6,1.3-1.3,1.6-2.2l3.1,1.6c-.3.7-.8,1.4-1.5,2.1-.6.7-1.5,1.4-2.5,1.9-1,.5-2.4.8-4,.8ZM1749.9,1582.1h9.8c0-1.3-.6-2.4-1.4-3.1s-2-1.1-3.4-1.1-2.5.4-3.4,1.1c-.9.8-1.4,1.8-1.6,3.1Z"/>
      <path class="cls-4" d="M1768,1592.8v-17.7h3.6v2.1h.6c.3-.6.9-1.2,1.6-1.7.7-.5,1.8-.7,3-.7s2.4.3,3.2.8c.8.5,1.4,1.2,1.8,2.1h.6c.4-.8,1-1.5,1.8-2.1.8-.6,1.9-.8,3.3-.8s2.2.2,3.1.7c.9.5,1.6,1.2,2.1,2.1.5.9.8,2.1.8,3.4v11.8h-3.7v-11.5c0-1.1-.3-1.9-.9-2.5-.6-.6-1.4-.9-2.5-.9s-2.1.4-2.8,1.1c-.7.7-1,1.8-1,3.2v10.6h-3.7v-11.5c0-1.1-.3-1.9-.9-2.5-.6-.6-1.4-.9-2.5-.9s-2.1.4-2.8,1.1c-.7.7-1,1.8-1,3.2v10.6h-3.7Z"/>
      <path class="cls-4" d="M1798.9,1600v-24.9h3.6v2.6h.6c.5-.8,1.1-1.5,2.1-2.1.9-.6,2.2-.9,4-.9s2.8.4,4.1,1.1c1.2.7,2.2,1.8,3,3.1.8,1.4,1.1,3,1.1,4.9v.5c0,1.9-.4,3.6-1.1,4.9-.7,1.4-1.7,2.4-3,3.1-1.2.7-2.6,1.1-4.1,1.1s-2.1-.1-2.9-.4-1.4-.7-1.9-1.1c-.5-.4-.9-.9-1.2-1.4h-.6v9.6h-3.7ZM1808,1590.1c1.6,0,3-.5,4-1.5,1-1,1.5-2.5,1.5-4.4v-.3c0-1.9-.5-3.4-1.6-4.4s-2.4-1.5-4-1.5-2.9.5-3.9,1.5c-1,1-1.6,2.5-1.6,4.4v.3c0,1.9.5,3.4,1.6,4.4,1,1,2.4,1.5,3.9,1.5Z"/>
      <path class="cls-4" d="M1830.1,1593.3c-1.8,0-3.4-.4-4.7-1.1-1.3-.8-2.4-1.8-3.1-3.2-.8-1.4-1.1-3-1.1-4.8v-.4c0-1.8.4-3.5,1.1-4.8.7-1.4,1.8-2.4,3.1-3.2s2.9-1.1,4.6-1.1,3.2.4,4.5,1.1c1.3.8,2.3,1.8,3,3.2s1.1,2.9,1.1,4.7v1.4h-13.6c0,1.6.6,2.8,1.6,3.7,1,.9,2.2,1.4,3.7,1.4s2.4-.3,3.1-.9c.7-.6,1.3-1.3,1.6-2.2l3.1,1.6c-.3.7-.8,1.4-1.5,2.1-.6.7-1.5,1.4-2.5,1.9-1,.5-2.4.8-4,.8ZM1824.9,1582.1h9.8c0-1.3-.6-2.4-1.4-3.1s-2-1.1-3.4-1.1-2.5.4-3.4,1.1c-.9.8-1.4,1.8-1.6,3.1Z"/>
      <path class="cls-4" d="M1843,1592.8v-17.7h3.6v2.1h.6c.3-.7.7-1.3,1.4-1.6.6-.3,1.4-.5,2.4-.5h2.1v3.3h-2.3c-1.2,0-2.2.3-3,1-.8.7-1.2,1.7-1.2,3v10.4h-3.7Z"/>
      <path class="cls-4" d="M1862.4,1593.3c-1.3,0-2.4-.2-3.4-.6-1-.4-1.8-1.1-2.4-1.9-.6-.8-.9-1.9-.9-3.1s.3-2.2.9-3c.6-.8,1.4-1.4,2.4-1.8,1-.4,2.2-.6,3.5-.6h5.4v-1.2c0-1-.3-1.9-.9-2.5-.6-.6-1.6-.9-2.9-.9s-2.2.3-2.9.9c-.7.6-1.1,1.4-1.3,2.3l-3.5-1.1c.3-1,.8-1.8,1.4-2.6.6-.8,1.5-1.4,2.5-1.9,1.1-.5,2.3-.7,3.8-.7,2.3,0,4.1.6,5.4,1.8,1.3,1.2,2,2.8,2,5v7.3c0,.7.3,1.1,1,1.1h1.5v3.1h-2.8c-.8,0-1.5-.2-2.1-.6-.5-.4-.8-1-.8-1.8h0c0-.1-.5-.1-.5-.1-.2.4-.5.8-.9,1.3-.4.5-.9.9-1.7,1.2-.7.3-1.7.5-3,.5ZM1862.9,1590.3c1.5,0,2.7-.4,3.6-1.3.9-.9,1.4-2,1.4-3.5v-.4h-5.2c-1,0-1.8.2-2.4.6-.6.4-.9,1-.9,1.9s.3,1.5.9,1.9c.6.5,1.5.7,2.6.7Z"/>
      <path class="cls-4" d="M1884.3,1592.8c-1.1,0-1.9-.3-2.6-1-.6-.6-1-1.5-1-2.6v-11.1h-4.9v-3.1h4.9v-5.9h3.7v5.9h5.3v3.1h-5.3v10.4c0,.7.3,1.1,1,1.1h3.7v3.1h-4.9Z"/>
      <path class="cls-4" d="M1900.9,1593.1c-1.3,0-2.5-.3-3.6-.9-1.1-.6-1.9-1.5-2.5-2.6-.6-1.1-.9-2.4-.9-4v-10.7h3.7v10.4c0,1.5.4,2.7,1.2,3.4.8.7,1.8,1.1,3.2,1.1s2.7-.5,3.7-1.5c.9-1,1.4-2.5,1.4-4.4v-9h3.7v17.7h-3.6v-2.7h-.6c-.3.7-.9,1.4-1.8,2s-2.1,1-3.8,1Z"/>
      <path class="cls-4" d="M1916.2,1592.8v-17.7h3.6v2.1h.6c.3-.7.7-1.3,1.4-1.6.6-.3,1.4-.5,2.4-.5h2.1v3.3h-2.3c-1.2,0-2.2.3-3,1-.8.7-1.2,1.7-1.2,3v10.4h-3.7Z"/>
      <path class="cls-4" d="M1938.3,1593.3c-1.8,0-3.4-.4-4.7-1.1-1.3-.8-2.4-1.8-3.1-3.2-.8-1.4-1.1-3-1.1-4.8v-.4c0-1.8.4-3.5,1.1-4.8.7-1.4,1.8-2.4,3.1-3.2s2.9-1.1,4.6-1.1,3.2.4,4.5,1.1c1.3.8,2.3,1.8,3,3.2s1.1,2.9,1.1,4.7v1.4h-13.6c0,1.6.6,2.8,1.6,3.7,1,.9,2.2,1.4,3.7,1.4s2.4-.3,3.1-.9c.7-.6,1.3-1.3,1.6-2.2l3.1,1.6c-.3.7-.8,1.4-1.5,2.1-.6.7-1.5,1.4-2.5,1.9-1,.5-2.4.8-4,.8ZM1933.1,1582.1h9.8c0-1.3-.6-2.4-1.4-3.1s-2-1.1-3.4-1.1-2.5.4-3.4,1.1c-.9.8-1.4,1.8-1.6,3.1Z"/>
      <path class="cls-4" d="M1951.2,1592.8v-17.7h3.6v2.7h.6c.3-.7.9-1.4,1.8-2s2.1-.9,3.9-.9,2.5.3,3.6.9c1,.6,1.9,1.4,2.5,2.5.6,1.1.9,2.4.9,3.9v10.7h-3.7v-10.4c0-1.5-.4-2.7-1.2-3.4-.8-.7-1.8-1.1-3.2-1.1s-2.8.5-3.7,1.5c-.9,1-1.4,2.5-1.4,4.4v9h-3.7Z"/>
      <path class="cls-4" d="M1988,1593.3c-1.3,0-2.4-.2-3.4-.6-1-.4-1.8-1.1-2.4-1.9-.6-.8-.9-1.9-.9-3.1s.3-2.2.9-3c.6-.8,1.4-1.4,2.4-1.8,1-.4,2.2-.6,3.5-.6h5.4v-1.2c0-1-.3-1.9-.9-2.5-.6-.6-1.6-.9-2.9-.9s-2.2.3-2.9.9c-.7.6-1.1,1.4-1.3,2.3l-3.5-1.1c.3-1,.8-1.8,1.4-2.6.6-.8,1.5-1.4,2.5-1.9,1.1-.5,2.3-.7,3.8-.7,2.3,0,4.1.6,5.4,1.8,1.3,1.2,2,2.8,2,5v7.3c0,.7.3,1.1,1,1.1h1.5v3.1h-2.8c-.8,0-1.5-.2-2.1-.6-.5-.4-.8-1-.8-1.8h0c0-.1-.5-.1-.5-.1-.2.4-.5.8-.9,1.3-.4.5-.9.9-1.7,1.2-.7.3-1.7.5-3,.5ZM1988.6,1590.3c1.5,0,2.7-.4,3.6-1.3.9-.9,1.4-2,1.4-3.5v-.4h-5.2c-1,0-1.8.2-2.4.6-.6.4-.9,1-.9,1.9s.3,1.5.9,1.9c.6.5,1.5.7,2.6.7Z"/>
      <path class="cls-4" d="M2003.3,1592.8v-17.7h3.6v2.7h.6c.3-.7.9-1.4,1.8-2s2.1-.9,3.9-.9,2.5.3,3.6.9c1,.6,1.9,1.4,2.5,2.5.6,1.1.9,2.4.9,3.9v10.7h-3.7v-10.4c0-1.5-.4-2.7-1.2-3.4-.8-.7-1.8-1.1-3.2-1.1s-2.8.5-3.7,1.5c-.9,1-1.4,2.5-1.4,4.4v9h-3.7Z"/>
      <path class="cls-4" d="M2042.7,1593.3c-1.8,0-3.4-.4-4.7-1.1-1.3-.8-2.4-1.8-3.1-3.2-.8-1.4-1.1-3-1.1-4.8v-.4c0-1.8.4-3.5,1.1-4.8.7-1.4,1.8-2.4,3.1-3.2s2.9-1.1,4.6-1.1,3.2.4,4.5,1.1c1.3.8,2.3,1.8,3,3.2s1.1,2.9,1.1,4.7v1.4h-13.6c0,1.6.6,2.8,1.6,3.7,1,.9,2.2,1.4,3.7,1.4s2.4-.3,3.1-.9c.7-.6,1.3-1.3,1.6-2.2l3.1,1.6c-.3.7-.8,1.4-1.5,2.1-.6.7-1.5,1.4-2.5,1.9-1,.5-2.4.8-4,.8ZM2037.6,1582.1h9.8c0-1.3-.6-2.4-1.4-3.1s-2-1.1-3.4-1.1-2.5.4-3.4,1.1c-.9.8-1.4,1.8-1.6,3.1Z"/>
      <path class="cls-4" d="M2062.3,1592.8c-1.1,0-1.9-.3-2.6-1-.6-.6-1-1.5-1-2.6v-11.1h-4.9v-3.1h4.9v-5.9h3.7v5.9h5.3v3.1h-5.3v10.4c0,.7.3,1.1,1,1.1h3.7v3.1h-4.9Z"/>
      <path class="cls-4" d="M2074.1,1592.8l-3-17.7h3.7l2.2,15.3h.6l3.1-15.3h6l3.1,15.3h.6l2.2-15.3h3.7l-3,17.7h-6.2l-3.1-15.2h-.6l-3.1,15.2h-6.2Z"/>
      <path class="cls-4" d="M2106.1,1593.3c-1.3,0-2.4-.2-3.4-.6-1-.4-1.8-1.1-2.4-1.9-.6-.8-.9-1.9-.9-3.1s.3-2.2.9-3c.6-.8,1.4-1.4,2.4-1.8,1-.4,2.2-.6,3.5-.6h5.4v-1.2c0-1-.3-1.9-.9-2.5-.6-.6-1.6-.9-2.9-.9s-2.2.3-2.9.9c-.7.6-1.1,1.4-1.3,2.3l-3.5-1.1c.3-1,.8-1.8,1.4-2.6.6-.8,1.5-1.4,2.5-1.9,1.1-.5,2.3-.7,3.8-.7,2.3,0,4.1.6,5.4,1.8,1.3,1.2,2,2.8,2,5v7.3c0,.7.3,1.1,1,1.1h1.5v3.1h-2.8c-.8,0-1.5-.2-2.1-.6-.5-.4-.8-1-.8-1.8h0c0-.1-.5-.1-.5-.1-.2.4-.5.8-.9,1.3-.4.5-.9.9-1.7,1.2-.7.3-1.7.5-3,.5ZM2106.7,1590.3c1.5,0,2.7-.4,3.6-1.3.9-.9,1.4-2,1.4-3.5v-.4h-5.2c-1,0-1.8.2-2.4.6-.6.4-.9,1-.9,1.9s.3,1.5.9,1.9c.6.5,1.5.7,2.6.7Z"/>
      <path class="cls-4" d="M1557.7,1636.5c-1.8,0-3.5-.3-4.9-1s-2.6-1.6-3.4-2.9c-.8-1.3-1.2-2.8-1.2-4.5v-.6h3.8v.6c0,1.6.5,2.8,1.6,3.8,1,.9,2.4,1.4,4.2,1.4s3.1-.4,4-1.3c1-.9,1.4-2,1.4-3.3v-.3c0-.9-.2-1.7-.7-2.3-.5-.6-1.1-1-1.8-1.3-.8-.3-1.6-.4-2.6-.4h-4.6v-4.4l8.9-5.2v-.5h-13.5v-3.4h17.6v5.1l-8.5,5v.5h1.5c1.3,0,2.5.2,3.6.7,1.1.5,2,1.2,2.8,2.2.7,1,1.1,2.2,1.1,3.7v.4c0,1.6-.4,3-1.2,4.2-.8,1.2-1.8,2.1-3.2,2.8-1.4.7-3,1-4.9,1Z"/>
      <path class="cls-4" d="M1580.2,1636.5c-2.9,0-5.3-.8-7-2.5-1.7-1.7-2.6-4.2-2.6-7.5v-6.1c0-3.3.9-5.8,2.6-7.5,1.7-1.7,4.1-2.6,7-2.6s5.3.9,7,2.6c1.7,1.7,2.6,4.2,2.6,7.5v6.1c0,3.4-.9,5.9-2.6,7.5-1.7,1.7-4.1,2.5-7,2.5ZM1580.2,1633.1c2,0,3.5-.6,4.4-1.7,1-1.1,1.4-2.7,1.4-4.8v-6.5c0-2.1-.5-3.7-1.5-4.8-1-1.1-2.5-1.7-4.3-1.7s-3.3.6-4.3,1.7c-1,1.1-1.5,2.7-1.5,4.7v6.5c0,2.1.5,3.7,1.5,4.8,1,1.1,2.4,1.7,4.4,1.7Z"/>
      <path class="cls-4" d="M1603.4,1636.5c-2.9,0-5.3-.8-7-2.5-1.7-1.7-2.6-4.2-2.6-7.5v-6.1c0-3.3.9-5.8,2.6-7.5,1.7-1.7,4.1-2.6,7-2.6s5.3.9,7,2.6c1.7,1.7,2.6,4.2,2.6,7.5v6.1c0,3.4-.9,5.9-2.6,7.5-1.7,1.7-4.1,2.5-7,2.5ZM1603.4,1633.1c2,0,3.5-.6,4.4-1.7,1-1.1,1.4-2.7,1.4-4.8v-6.5c0-2.1-.5-3.7-1.5-4.8-1-1.1-2.5-1.7-4.3-1.7s-3.3.6-4.3,1.7c-1,1.1-1.5,2.7-1.5,4.7v6.5c0,2.1.5,3.7,1.5,4.8,1,1.1,2.4,1.7,4.4,1.7Z"/>
      <path class="cls-4" d="M1631.8,1636v-21.7h-7.7v-3.5h19.4v3.5h-7.7v21.7h-3.9Z"/>
      <path class="cls-4" d="M1652.6,1636.5c-1.3,0-2.4-.2-3.4-.6-1-.4-1.8-1.1-2.4-1.9-.6-.8-.9-1.9-.9-3.1s.3-2.2.9-3c.6-.8,1.4-1.4,2.4-1.8,1-.4,2.2-.6,3.5-.6h5.4v-1.2c0-1-.3-1.9-.9-2.5-.6-.6-1.6-.9-2.9-.9s-2.2.3-2.9.9c-.7.6-1.1,1.4-1.3,2.3l-3.5-1.1c.3-1,.8-1.8,1.4-2.6.6-.8,1.5-1.4,2.5-1.9,1.1-.5,2.3-.7,3.8-.7,2.3,0,4.1.6,5.4,1.8,1.3,1.2,2,2.8,2,5v7.3c0,.7.3,1.1,1,1.1h1.5v3.1h-2.8c-.8,0-1.5-.2-2.1-.6-.5-.4-.8-1-.8-1.8h0c0-.1-.5-.1-.5-.1-.2.4-.5.8-.9,1.3-.4.5-.9.9-1.7,1.2-.7.3-1.7.5-3,.5ZM1653.1,1633.5c1.5,0,2.7-.4,3.6-1.3.9-.9,1.4-2,1.4-3.5v-.4h-5.2c-1,0-1.8.2-2.4.6-.6.4-.9,1-.9,1.9s.3,1.5.9,1.9c.6.5,1.5.7,2.6.7Z"/>
      <path class="cls-4" d="M1667,1627.2v-.5c0-1.9.4-3.5,1.1-4.8.8-1.3,1.8-2.3,3-3.1,1.2-.7,2.6-1.1,4.1-1.1s3.1.3,4,1c.9.6,1.6,1.3,2,2.1h.6v-2.6h3.6v21.4c0,1.1-.3,1.9-1,2.6-.6.6-1.5,1-2.6,1h-12v-3.2h10.8c.7,0,1-.4,1-1.1v-5.7h-.6c-.3.4-.6.9-1.1,1.3-.5.5-1.1.8-1.9,1.1-.8.3-1.8.4-2.9.4s-2.9-.4-4.1-1.1-2.3-1.7-3-3.1c-.7-1.3-1.1-2.9-1.1-4.8ZM1676.2,1632.9c1.6,0,2.9-.5,4-1.5,1-1,1.6-2.4,1.6-4.2v-.3c0-1.8-.5-3.3-1.5-4.3-1-1-2.4-1.5-4-1.5s-2.9.5-3.9,1.5c-1,1-1.6,2.4-1.6,4.3v.3c0,1.8.5,3.2,1.6,4.2,1,1,2.4,1.5,3.9,1.5Z"/>
      <path class="cls-4" d="M1699,1636.5c-1.8,0-3.4-.4-4.7-1.1-1.3-.8-2.4-1.8-3.1-3.2-.8-1.4-1.1-3-1.1-4.8v-.4c0-1.8.4-3.5,1.1-4.8.7-1.4,1.8-2.4,3.1-3.2s2.9-1.1,4.6-1.1,3.2.4,4.5,1.1c1.3.8,2.3,1.8,3,3.2s1.1,2.9,1.1,4.7v1.4h-13.6c0,1.6.6,2.8,1.6,3.7,1,.9,2.2,1.4,3.7,1.4s2.4-.3,3.1-.9c.7-.6,1.3-1.3,1.6-2.2l3.1,1.6c-.3.7-.8,1.4-1.5,2.1-.6.7-1.5,1.4-2.5,1.9-1,.5-2.4.8-4,.8ZM1693.8,1625.3h9.8c0-1.3-.6-2.4-1.4-3.1s-2-1.1-3.4-1.1-2.5.4-3.4,1.1c-.9.8-1.4,1.8-1.6,3.1Z"/>
      <path class="cls-4" d="M1711.9,1636v-17.7h3.6v2.7h.6c.3-.7.9-1.4,1.8-2s2.1-.9,3.9-.9,2.5.3,3.6.9c1,.6,1.9,1.4,2.5,2.5.6,1.1.9,2.4.9,3.9v10.7h-3.7v-10.4c0-1.5-.4-2.7-1.2-3.4-.8-.7-1.8-1.1-3.2-1.1s-2.8.5-3.7,1.5c-.9,1-1.4,2.5-1.4,4.4v9h-3.7Z"/>
      <path class="cls-4" d="M1745.1,1615.8c-.7,0-1.3-.2-1.8-.7-.5-.5-.7-1.1-.7-1.8s.2-1.4.7-1.8c.5-.5,1.1-.7,1.8-.7s1.4.2,1.8.7c.5.5.7,1.1.7,1.8s-.2,1.3-.7,1.8c-.5.5-1.1.7-1.8.7ZM1743.2,1636v-17.7h3.7v17.7h-3.7Z"/>
      <path class="cls-4" d="M1752.4,1636v-17.7h3.6v2.1h.6c.3-.6.9-1.2,1.6-1.7.7-.5,1.8-.7,3-.7s2.4.3,3.2.8c.8.5,1.4,1.2,1.8,2.1h.6c.4-.8,1-1.5,1.8-2.1.8-.6,1.9-.8,3.3-.8s2.2.2,3.1.7c.9.5,1.6,1.2,2.1,2.1.5.9.8,2.1.8,3.4v11.8h-3.7v-11.5c0-1.1-.3-1.9-.9-2.5-.6-.6-1.4-.9-2.5-.9s-2.1.4-2.8,1.1c-.7.7-1,1.8-1,3.2v10.6h-3.7v-11.5c0-1.1-.3-1.9-.9-2.5-.6-.6-1.4-.9-2.5-.9s-2.1.4-2.8,1.1c-.7.7-1,1.8-1,3.2v10.6h-3.7Z"/>
      <path class="cls-4" d="M1799.3,1636.5c-2.5,0-4.5-.7-6-2.1-1.5-1.4-2.2-3.4-2.2-6v-2.2h3.9v2.2c0,1.3.4,2.4,1.1,3.2.7.8,1.8,1.2,3.2,1.2s2.3-.4,3-1.2,1-1.9,1-3.2v-14.1h-4.4v-3.5h11.1v3.5h-2.8v14.1c0,2.6-.7,4.6-2,6-1.4,1.4-3.3,2.1-5.7,2.1Z"/>
      <path class="cls-4" d="M1819.7,1636.5c-1.3,0-2.4-.2-3.4-.6-1-.4-1.8-1.1-2.4-1.9-.6-.8-.9-1.9-.9-3.1s.3-2.2.9-3c.6-.8,1.4-1.4,2.4-1.8,1-.4,2.2-.6,3.5-.6h5.4v-1.2c0-1-.3-1.9-.9-2.5-.6-.6-1.6-.9-2.9-.9s-2.2.3-2.9.9c-.7.6-1.1,1.4-1.3,2.3l-3.5-1.1c.3-1,.8-1.8,1.4-2.6.6-.8,1.5-1.4,2.5-1.9,1.1-.5,2.3-.7,3.8-.7,2.3,0,4.1.6,5.4,1.8,1.3,1.2,2,2.8,2,5v7.3c0,.7.3,1.1,1,1.1h1.5v3.1h-2.8c-.8,0-1.5-.2-2.1-.6-.5-.4-.8-1-.8-1.8h0c0-.1-.5-.1-.5-.1-.2.4-.5.8-.9,1.3-.4.5-.9.9-1.7,1.2-.7.3-1.7.5-3,.5ZM1820.2,1633.5c1.5,0,2.7-.4,3.6-1.3.9-.9,1.4-2,1.4-3.5v-.4h-5.2c-1,0-1.8.2-2.4.6-.6.4-.9,1-.9,1.9s.3,1.5.9,1.9c.6.5,1.5.7,2.6.7Z"/>
      <path class="cls-4" d="M1834.9,1636v-25.2h3.7v10h.6c.2-.5.6-.9,1-1.3.4-.4,1-.8,1.8-1.1.7-.3,1.7-.4,2.8-.4s2.5.3,3.6.9c1,.6,1.9,1.4,2.5,2.5.6,1.1.9,2.4.9,3.9v10.7h-3.7v-10.4c0-1.5-.4-2.7-1.2-3.4-.8-.7-1.8-1.1-3.2-1.1s-2.8.5-3.7,1.5c-.9,1-1.4,2.5-1.4,4.4v9h-3.7Z"/>
      <path class="cls-4" d="M1857.1,1636v-17.7h3.6v2.1h.6c.3-.7.7-1.3,1.4-1.6.6-.3,1.4-.5,2.4-.5h2.1v3.3h-2.3c-1.2,0-2.2.3-3,1-.8.7-1.2,1.7-1.2,3v10.4h-3.7Z"/>
      <path class="cls-4" d="M1887,1636.3c-1.3,0-2.5-.3-3.6-.9-1.1-.6-1.9-1.5-2.5-2.6-.6-1.1-.9-2.4-.9-4v-10.7h3.7v10.4c0,1.5.4,2.7,1.2,3.4.8.7,1.8,1.1,3.2,1.1s2.7-.5,3.7-1.5c.9-1,1.4-2.5,1.4-4.4v-9h3.7v17.7h-3.6v-2.7h-.6c-.3.7-.9,1.4-1.8,2s-2.1,1-3.8,1Z"/>
      <path class="cls-4" d="M1902.3,1636v-17.7h3.6v2.7h.6c.3-.7.9-1.4,1.8-2s2.1-.9,3.9-.9,2.5.3,3.6.9c1,.6,1.9,1.4,2.5,2.5.6,1.1.9,2.4.9,3.9v10.7h-3.7v-10.4c0-1.5-.4-2.7-1.2-3.4-.8-.7-1.8-1.1-3.2-1.1s-2.8.5-3.7,1.5c-.9,1-1.4,2.5-1.4,4.4v9h-3.7Z"/>
      <path class="cls-4" d="M1931.1,1636c-1.1,0-1.9-.3-2.6-1-.6-.6-1-1.5-1-2.6v-11.1h-4.9v-3.1h4.9v-5.9h3.7v5.9h5.3v3.1h-5.3v10.4c0,.7.3,1.1,1,1.1h3.7v3.1h-4.9Z"/>
      <path class="cls-4" d="M1949,1636.5c-1.8,0-3.4-.4-4.7-1.1-1.3-.8-2.4-1.8-3.1-3.2-.8-1.4-1.1-3-1.1-4.8v-.4c0-1.8.4-3.5,1.1-4.8.7-1.4,1.8-2.4,3.1-3.2s2.9-1.1,4.6-1.1,3.2.4,4.5,1.1c1.3.8,2.3,1.8,3,3.2s1.1,2.9,1.1,4.7v1.4h-13.6c0,1.6.6,2.8,1.6,3.7,1,.9,2.2,1.4,3.7,1.4s2.4-.3,3.1-.9c.7-.6,1.3-1.3,1.6-2.2l3.1,1.6c-.3.7-.8,1.4-1.5,2.1-.6.7-1.5,1.4-2.5,1.9-1,.5-2.4.8-4,.8ZM1943.9,1625.3h9.8c0-1.3-.6-2.4-1.4-3.1s-2-1.1-3.4-1.1-2.5.4-3.4,1.1c-.9.8-1.4,1.8-1.6,3.1Z"/>
      <path class="cls-4" d="M1961.9,1636v-17.7h3.6v2.1h.6c.3-.7.7-1.3,1.4-1.6.6-.3,1.4-.5,2.4-.5h2.1v3.3h-2.3c-1.2,0-2.2.3-3,1-.8.7-1.2,1.7-1.2,3v10.4h-3.7Z"/>
      <path class="cls-4" d="M1992.4,1636.5c-1.5,0-2.8-.4-4.1-1.1-1.2-.7-2.2-1.8-3-3.1-.8-1.4-1.1-3-1.1-4.9v-.5c0-1.9.4-3.5,1.1-4.9.7-1.4,1.7-2.4,3-3.1,1.2-.7,2.6-1.1,4.1-1.1s2.1.1,2.9.4c.8.3,1.4.7,1.9,1.1.5.4.9.9,1.2,1.4h.6v-9.9h3.7v25.2h-3.6v-2.5h-.6c-.5.8-1.1,1.5-2.1,2.1-.9.6-2.2.9-4,.9ZM1993.4,1633.3c1.6,0,2.9-.5,4-1.5,1-1,1.6-2.5,1.6-4.4v-.3c0-1.9-.5-3.4-1.5-4.4-1-1-2.4-1.5-4-1.5s-2.9.5-3.9,1.5c-1,1-1.6,2.5-1.6,4.4v.3c0,1.9.5,3.4,1.6,4.4,1,1,2.4,1.5,3.9,1.5Z"/>
      <path class="cls-4" d="M2016.3,1636.5c-1.8,0-3.4-.4-4.7-1.1-1.3-.8-2.4-1.8-3.1-3.2-.8-1.4-1.1-3-1.1-4.8v-.4c0-1.8.4-3.5,1.1-4.8.7-1.4,1.8-2.4,3.1-3.2s2.9-1.1,4.6-1.1,3.2.4,4.5,1.1c1.3.8,2.3,1.8,3,3.2s1.1,2.9,1.1,4.7v1.4h-13.6c0,1.6.6,2.8,1.6,3.7,1,.9,2.2,1.4,3.7,1.4s2.4-.3,3.1-.9c.7-.6,1.3-1.3,1.6-2.2l3.1,1.6c-.3.7-.8,1.4-1.5,2.1-.6.7-1.5,1.4-2.5,1.9-1,.5-2.4.8-4,.8ZM2011.1,1625.3h9.8c0-1.3-.6-2.4-1.4-3.1s-2-1.1-3.4-1.1-2.5.4-3.4,1.1c-.9.8-1.4,1.8-1.6,3.1Z"/>
      <path class="cls-4" d="M2029.1,1636v-17.7h3.6v2.1h.6c.3-.6.9-1.2,1.6-1.7.7-.5,1.8-.7,3-.7s2.4.3,3.2.8c.8.5,1.4,1.2,1.8,2.1h.6c.4-.8,1-1.5,1.8-2.1.8-.6,1.9-.8,3.3-.8s2.2.2,3.1.7c.9.5,1.6,1.2,2.1,2.1.5.9.8,2.1.8,3.4v11.8h-3.7v-11.5c0-1.1-.3-1.9-.9-2.5-.6-.6-1.4-.9-2.5-.9s-2.1.4-2.8,1.1c-.7.7-1,1.8-1,3.2v10.6h-3.7v-11.5c0-1.1-.3-1.9-.9-2.5-.6-.6-1.4-.9-2.5-.9s-2.1.4-2.8,1.1c-.7.7-1,1.8-1,3.2v10.6h-3.7Z"/>
      <path class="cls-4" d="M1558.1,1679.7c-1.8,0-3.4-.4-4.8-1.2-1.4-.8-2.5-1.9-3.3-3.4-.8-1.5-1.2-3.4-1.2-5.5v-5.9c0-3.3.9-5.8,2.7-7.5s4.2-2.6,7.3-2.6,5.4.8,7,2.5c1.6,1.6,2.4,3.8,2.4,6.6v.2h-3.9v-.3c0-1-.2-2-.6-2.8-.4-.8-1-1.5-1.8-2-.8-.5-1.9-.7-3.1-.7-1.9,0-3.4.6-4.5,1.7s-1.6,2.8-1.6,4.8v6c0,2,.5,3.7,1.6,4.8,1.1,1.2,2.6,1.8,4.5,1.8s3.3-.5,4.2-1.6c.9-1.1,1.3-2.4,1.3-4.1v-.5h-6.8v-3.3h10.6v12.5h-3.6v-2.6h-.6c-.2.5-.5.9-1,1.4-.4.5-1,.9-1.8,1.2-.8.3-1.8.5-3.1.5Z"/>
      <path class="cls-4" d="M1581.4,1679.7c-1.8,0-3.4-.4-4.7-1.1-1.3-.8-2.4-1.8-3.1-3.2-.8-1.4-1.1-3-1.1-4.8v-.4c0-1.8.4-3.5,1.1-4.8.7-1.4,1.8-2.4,3.1-3.2s2.9-1.1,4.6-1.1,3.2.4,4.5,1.1c1.3.8,2.3,1.8,3,3.2s1.1,2.9,1.1,4.7v1.4h-13.6c0,1.6.6,2.8,1.6,3.7,1,.9,2.2,1.4,3.7,1.4s2.4-.3,3.1-.9c.7-.6,1.3-1.3,1.6-2.2l3.1,1.6c-.3.7-.8,1.4-1.5,2.1-.6.7-1.5,1.4-2.5,1.9-1,.5-2.4.8-4,.8ZM1576.2,1668.5h9.8c0-1.3-.6-2.4-1.4-3.1s-2-1.1-3.4-1.1-2.5.4-3.4,1.1c-.9.8-1.4,1.8-1.6,3.1Z"/>
      <path class="cls-4" d="M1597.5,1679.2v-14.6h-5v-3.1h5v-3.9c0-1.1.3-1.9,1-2.6.6-.6,1.5-1,2.6-1h4.6v3.1h-3.4c-.7,0-1,.4-1,1.1v3.2h5.1v3.1h-5.1v14.6h-3.7Z"/>
      <path class="cls-4" d="M1610.1,1679.2v-17.7h3.6v2.1h.6c.3-.7.7-1.3,1.4-1.6.6-.3,1.4-.5,2.4-.5h2.1v3.3h-2.3c-1.2,0-2.2.3-3,1-.8.7-1.2,1.7-1.2,3v10.4h-3.7Z"/>
      <path class="cls-4" d="M1625.9,1659c-.7,0-1.3-.2-1.8-.7-.5-.5-.7-1.1-.7-1.8s.2-1.4.7-1.8c.5-.5,1.1-.7,1.8-.7s1.4.2,1.8.7c.5.5.7,1.1.7,1.8s-.2,1.3-.7,1.8c-.5.5-1.1.7-1.8.7ZM1624,1679.2v-17.7h3.7v17.7h-3.7Z"/>
      <path class="cls-4" d="M1641.4,1679.7c-1.8,0-3.4-.4-4.7-1.1-1.3-.8-2.4-1.8-3.1-3.2-.8-1.4-1.1-3-1.1-4.8v-.4c0-1.8.4-3.5,1.1-4.8.7-1.4,1.8-2.4,3.1-3.2s2.9-1.1,4.6-1.1,3.2.4,4.5,1.1c1.3.8,2.3,1.8,3,3.2s1.1,2.9,1.1,4.7v1.4h-13.6c0,1.6.6,2.8,1.6,3.7,1,.9,2.2,1.4,3.7,1.4s2.4-.3,3.1-.9c.7-.6,1.3-1.3,1.6-2.2l3.1,1.6c-.3.7-.8,1.4-1.5,2.1-.6.7-1.5,1.4-2.5,1.9-1,.5-2.4.8-4,.8ZM1636.2,1668.5h9.8c0-1.3-.6-2.4-1.4-3.1s-2-1.1-3.4-1.1-2.5.4-3.4,1.1c-.9.8-1.4,1.8-1.6,3.1Z"/>
      <path class="cls-4" d="M1654.3,1679.2v-17.7h3.6v2.1h.6c.3-.7.7-1.3,1.4-1.6.6-.3,1.4-.5,2.4-.5h2.1v3.3h-2.3c-1.2,0-2.2.3-3,1-.8.7-1.2,1.7-1.2,3v10.4h-3.7Z"/>
      <path class="cls-4" d="M1668.2,1686.4v-24.9h3.6v2.6h.6c.5-.8,1.1-1.5,2.1-2.1.9-.6,2.2-.9,4-.9s2.8.4,4.1,1.1c1.2.7,2.2,1.8,3,3.1.8,1.4,1.1,3,1.1,4.9v.5c0,1.9-.4,3.6-1.1,4.9-.7,1.4-1.7,2.4-3,3.1-1.2.7-2.6,1.1-4.1,1.1s-2.1-.1-2.9-.4-1.4-.7-1.9-1.1c-.5-.4-.9-.9-1.2-1.4h-.6v9.6h-3.7ZM1677.4,1676.5c1.6,0,3-.5,4-1.5,1-1,1.5-2.5,1.5-4.4v-.3c0-1.9-.5-3.4-1.6-4.4s-2.4-1.5-4-1.5-2.9.5-3.9,1.5c-1,1-1.6,2.5-1.6,4.4v.3c0,1.9.5,3.4,1.6,4.4,1,1,2.4,1.5,3.9,1.5Z"/>
      <path class="cls-4" d="M1698.1,1679.5c-1.3,0-2.5-.3-3.6-.9-1.1-.6-1.9-1.5-2.5-2.6-.6-1.1-.9-2.4-.9-4v-10.7h3.7v10.4c0,1.5.4,2.7,1.2,3.4.8.7,1.8,1.1,3.2,1.1s2.7-.5,3.7-1.5c.9-1,1.4-2.5,1.4-4.4v-9h3.7v17.7h-3.6v-2.7h-.6c-.3.7-.9,1.4-1.8,2s-2.1,1-3.8,1Z"/>
      <path class="cls-4" d="M1713.4,1679.2v-17.7h3.6v2.7h.6c.3-.7.9-1.4,1.8-2s2.1-.9,3.9-.9,2.5.3,3.6.9c1,.6,1.9,1.4,2.5,2.5.6,1.1.9,2.4.9,3.9v10.7h-3.7v-10.4c0-1.5-.4-2.7-1.2-3.4-.8-.7-1.8-1.1-3.2-1.1s-2.8.5-3.7,1.5c-.9,1-1.4,2.5-1.4,4.4v9h-3.7Z"/>
      <path class="cls-4" d="M1735.5,1679.2v-25.2h3.7v14.4h.6l7-6.9h4.9l-9,8.6,9.3,9.1h-4.9l-7.3-7.4h-.6v7.4h-3.7Z"/>
      <path class="cls-4" d="M1762,1679.2c-1.1,0-1.9-.3-2.6-1-.6-.6-1-1.5-1-2.6v-11.1h-4.9v-3.1h4.9v-5.9h3.7v5.9h5.3v3.1h-5.3v10.4c0,.7.3,1.1,1,1.1h3.7v3.1h-4.9Z"/>
      <path class="cls-4" d="M1774.1,1679.7c-.8,0-1.5-.3-2.1-.8-.6-.6-.8-1.3-.8-2.1s.3-1.6.8-2.1c.6-.5,1.3-.8,2.1-.8s1.5.3,2.1.8c.6.6.8,1.2.8,2.1s-.3,1.6-.8,2.1c-.6.6-1.3.8-2.1.8Z"/>
    </g>
    <g>
      <path class="cls-4" d="M2328.5,469.5v-21.7h-7.7v-3.5h19.4v3.5h-7.7v21.7h-3.9Z"/>
      <path class="cls-4" d="M2345.9,476.7v-3.2h9.9c.7,0,1-.4,1-1.1v-5.5h-.6c-.2.5-.5.9-1,1.4-.4.4-1,.8-1.8,1.1-.7.3-1.7.4-2.8.4s-2.5-.3-3.6-.9c-1.1-.6-1.9-1.5-2.5-2.6-.6-1.1-.9-2.4-.9-3.9v-10.7h3.7v10.4c0,1.5.4,2.7,1.2,3.4.8.7,1.8,1.1,3.2,1.1s2.7-.5,3.7-1.5c.9-1,1.4-2.5,1.4-4.4v-9h3.7v21.4c0,1.1-.3,1.9-1,2.6-.6.6-1.5,1-2.6,1h-11Z"/>
      <path class="cls-4" d="M2365.9,476.7v-24.9h3.6v2.6h.6c.5-.8,1.1-1.5,2.1-2.1.9-.6,2.2-.9,4-.9s2.8.4,4.1,1.1c1.2.7,2.2,1.8,3,3.1.8,1.4,1.1,3,1.1,4.9v.5c0,1.9-.4,3.6-1.1,4.9-.7,1.4-1.7,2.4-3,3.1-1.2.7-2.6,1.1-4.1,1.1s-2.1-.1-2.9-.4-1.4-.7-1.9-1.1c-.5-.4-.9-.9-1.2-1.4h-.6v9.6h-3.7ZM2375.1,466.7c1.6,0,3-.5,4-1.5s1.5-2.5,1.5-4.4v-.3c0-1.9-.5-3.4-1.6-4.4s-2.4-1.5-4-1.5-2.9.5-3.9,1.5c-1,1-1.6,2.5-1.6,4.4v.3c0,1.9.5,3.4,1.6,4.4,1,1,2.4,1.5,3.9,1.5Z"/>
      <path class="cls-4" d="M2390.9,449.3c-.7,0-1.3-.2-1.8-.7-.5-.5-.7-1.1-.7-1.8s.2-1.4.7-1.8c.5-.5,1.1-.7,1.8-.7s1.4.2,1.8.7c.5.5.7,1.1.7,1.8s-.2,1.3-.7,1.8c-.5.5-1.1.7-1.8.7ZM2389,469.5v-17.7h3.7v17.7h-3.7Z"/>
      <path class="cls-4" d="M2405.5,470c-2.3,0-4.1-.5-5.6-1.5-1.5-1-2.4-2.5-2.7-4.6l3.5-.8c.2,1,.5,1.8,1,2.3.5.6,1,1,1.7,1.2s1.4.4,2.2.4c1.2,0,2.1-.2,2.7-.7.6-.5,1-1,1-1.8s-.3-1.2-.9-1.6c-.6-.3-1.5-.6-2.7-.8l-1.2-.2c-1.2-.2-2.3-.5-3.3-.9-1-.4-1.8-1-2.3-1.7-.6-.7-.9-1.6-.9-2.8,0-1.7.6-3,1.9-3.9,1.2-.9,2.9-1.4,5-1.4s3.6.5,4.9,1.3c1.3.9,2.1,2.1,2.5,3.7l-3.5,1c-.2-1.1-.7-1.8-1.4-2.3-.7-.4-1.6-.7-2.6-.7s-1.8.2-2.4.6c-.6.4-.9.9-.9,1.6s.3,1.2.8,1.6c.6.3,1.3.6,2.3.8l1.3.2c1.3.2,2.4.5,3.5.9,1.1.4,1.9.9,2.5,1.7.6.7.9,1.7.9,2.9,0,1.8-.7,3.2-2,4.1-1.3,1-3.1,1.5-5.3,1.5Z"/>
      <path class="cls-4" d="M2425.3,470c-1.7,0-3.2-.4-4.6-1.1-1.4-.7-2.5-1.8-3.3-3.1s-1.2-3-1.2-4.9v-.5c0-1.9.4-3.6,1.2-4.9.8-1.4,1.9-2.4,3.3-3.1,1.4-.7,2.9-1.1,4.6-1.1s3.2.3,4.4.9c1.2.6,2.2,1.5,2.9,2.5.7,1,1.2,2.2,1.4,3.4l-3.6.8c-.1-.8-.4-1.5-.8-2.2-.4-.6-.9-1.2-1.6-1.5-.7-.4-1.6-.6-2.6-.6s-2,.2-2.8.7c-.8.5-1.5,1.1-2,2-.5.9-.7,1.9-.7,3.2v.3c0,1.2.2,2.3.7,3.2.5.9,1.1,1.6,2,2,.8.5,1.8.7,2.8.7,1.6,0,2.7-.4,3.6-1.2s1.3-1.8,1.5-3.1l3.6.8c-.3,1.2-.8,2.4-1.5,3.4-.7,1-1.7,1.9-2.9,2.5-1.2.6-2.7.9-4.4.9Z"/>
      <path class="cls-4" d="M2438.4,469.5v-25.2h3.7v10h.6c.2-.5.6-.9,1-1.3.4-.4,1-.8,1.8-1.1.7-.3,1.7-.4,2.8-.4s2.5.3,3.6.9,1.9,1.4,2.5,2.5c.6,1.1.9,2.4.9,3.9v10.7h-3.7v-10.4c0-1.5-.4-2.7-1.2-3.4-.8-.7-1.8-1.1-3.2-1.1s-2.8.5-3.7,1.5c-.9,1-1.4,2.5-1.4,4.4v9h-3.7Z"/>
      <path class="cls-4" d="M2472.9,469.5v-14.6h-5v-3.1h5v-3.9c0-1.1.3-1.9,1-2.6.6-.6,1.5-1,2.6-1h4.6v3.1h-3.4c-.7,0-1,.4-1,1.1v3.2h5.1v3.1h-5.1v14.6h-3.7Z"/>
      <path class="cls-4" d="M2492.3,469.8c-1.3,0-2.5-.3-3.6-.9-1.1-.6-1.9-1.5-2.5-2.6-.6-1.1-.9-2.4-.9-4v-10.7h3.7v10.4c0,1.5.4,2.7,1.2,3.4.8.7,1.8,1.1,3.2,1.1s2.7-.5,3.7-1.5c.9-1,1.4-2.5,1.4-4.4v-9h3.7v17.7h-3.6v-2.7h-.6c-.3.7-.9,1.4-1.8,2-.9.6-2.1,1-3.8,1ZM2490.3,449.4c-.7,0-1.3-.2-1.8-.7-.5-.5-.7-1.1-.7-1.8s.2-1.4.7-1.8c.5-.5,1.1-.7,1.8-.7s1.3.2,1.8.7c.5.5.7,1.1.7,1.8s-.2,1.4-.7,1.8c-.5.5-1.1.7-1.8.7ZM2497.3,449.4c-.7,0-1.3-.2-1.8-.7-.5-.5-.7-1.1-.7-1.8s.2-1.4.7-1.8c.5-.5,1.1-.7,1.8-.7s1.4.2,1.8.7c.5.5.7,1.1.7,1.8s-.2,1.4-.7,1.8c-.5.5-1.1.7-1.8.7Z"/>
      <path class="cls-4" d="M2507.6,469.5v-17.7h3.6v2.1h.6c.3-.7.8-1.3,1.4-1.6.6-.3,1.4-.5,2.4-.5h2.1v3.3h-2.3c-1.2,0-2.2.3-3,1-.8.7-1.2,1.7-1.2,3v10.4h-3.7Z"/>
      <path class="cls-4" d="M2538.1,470c-1.5,0-2.8-.4-4.1-1.1-1.2-.7-2.2-1.8-3-3.1-.8-1.4-1.1-3-1.1-4.9v-.5c0-1.9.4-3.5,1.1-4.9.7-1.4,1.7-2.4,3-3.1,1.2-.7,2.6-1.1,4.1-1.1s2.1.1,2.9.4c.8.3,1.4.7,1.9,1.1s.9.9,1.2,1.4h.6v-9.9h3.7v25.2h-3.6v-2.5h-.6c-.5.8-1.1,1.5-2.1,2.1-.9.6-2.2.9-4,.9ZM2539.1,466.7c1.6,0,2.9-.5,4-1.5,1-1,1.6-2.5,1.6-4.4v-.3c0-1.9-.5-3.4-1.5-4.4-1-1-2.4-1.5-4-1.5s-2.9.5-3.9,1.5c-1,1-1.6,2.5-1.6,4.4v.3c0,1.9.5,3.4,1.6,4.4,1,1,2.4,1.5,3.9,1.5Z"/>
      <path class="cls-4" d="M2562,470c-1.8,0-3.4-.4-4.7-1.1-1.3-.8-2.4-1.8-3.1-3.2s-1.1-3-1.1-4.8v-.4c0-1.8.4-3.5,1.1-4.8.7-1.4,1.8-2.4,3.1-3.2s2.9-1.1,4.6-1.1,3.2.4,4.5,1.1c1.3.8,2.3,1.8,3,3.2.7,1.3,1.1,2.9,1.1,4.7v1.4h-13.6c0,1.6.6,2.8,1.6,3.7,1,.9,2.2,1.4,3.7,1.4s2.4-.3,3.1-.9c.7-.6,1.3-1.3,1.6-2.2l3.1,1.6c-.3.7-.8,1.4-1.5,2.1-.6.7-1.5,1.4-2.5,1.9-1,.5-2.4.8-4,.8ZM2556.8,458.8h9.8c0-1.3-.6-2.4-1.4-3.1-.9-.8-2-1.1-3.4-1.1s-2.5.4-3.4,1.1c-.9.8-1.4,1.8-1.6,3.1Z"/>
      <path class="cls-4" d="M2574.9,469.5v-17.7h3.6v2.7h.6c.3-.7.9-1.4,1.8-2,.9-.6,2.1-.9,3.9-.9s2.5.3,3.6.9c1,.6,1.9,1.4,2.5,2.5.6,1.1.9,2.4.9,3.9v10.7h-3.7v-10.4c0-1.5-.4-2.7-1.2-3.4-.8-.7-1.8-1.1-3.2-1.1s-2.8.5-3.7,1.5c-.9,1-1.4,2.5-1.4,4.4v9h-3.7Z"/>
      <path class="cls-4" d="M2606.1,469.5v-25.2h10c1.5,0,2.9.3,4.1.9,1.2.6,2.2,1.5,2.8,2.6.7,1.1,1,2.5,1,4v.5c0,1.6-.4,2.9-1.1,4-.7,1.1-1.7,2-2.9,2.6-1.2.6-2.6.9-4.1.9h-6.1v9.7h-3.9ZM2610,456.3h5.7c1.4,0,2.5-.4,3.3-1.1.8-.7,1.2-1.7,1.2-3v-.4c0-1.3-.4-2.3-1.2-3-.8-.7-1.9-1.1-3.3-1.1h-5.7v8.5Z"/>
      <path class="cls-4" d="M2636,470c-1.8,0-3.4-.4-4.7-1.1-1.3-.8-2.4-1.8-3.1-3.2s-1.1-3-1.1-4.8v-.4c0-1.8.4-3.5,1.1-4.8.7-1.4,1.8-2.4,3.1-3.2s2.9-1.1,4.6-1.1,3.2.4,4.5,1.1c1.3.8,2.3,1.8,3,3.2.7,1.3,1.1,2.9,1.1,4.7v1.4h-13.6c0,1.6.6,2.8,1.6,3.7,1,.9,2.2,1.4,3.7,1.4s2.4-.3,3.1-.9c.7-.6,1.3-1.3,1.6-2.2l3.1,1.6c-.3.7-.8,1.4-1.5,2.1-.6.7-1.5,1.4-2.5,1.9-1,.5-2.4.8-4,.8ZM2630.8,458.8h9.8c0-1.3-.6-2.4-1.4-3.1-.9-.8-2-1.1-3.4-1.1s-2.5.4-3.4,1.1c-.9.8-1.4,1.8-1.6,3.1Z"/>
      <path class="cls-4" d="M2648.9,469.5v-17.7h3.6v2.1h.6c.3-.7.8-1.3,1.4-1.6.6-.3,1.4-.5,2.4-.5h2.1v3.3h-2.3c-1.2,0-2.2.3-3,1-.8.7-1.2,1.7-1.2,3v10.4h-3.7Z"/>
      <path class="cls-4" d="M2662.8,469.5v-17.7h3.6v2.1h.6c.3-.6.9-1.2,1.6-1.7.7-.5,1.8-.7,3-.7s2.4.3,3.2.8c.8.5,1.4,1.2,1.8,2.1h.6c.4-.8,1-1.5,1.8-2.1.8-.6,1.9-.8,3.3-.8s2.2.2,3.1.7c.9.5,1.6,1.2,2.1,2.1.5.9.8,2.1.8,3.4v11.8h-3.7v-11.5c0-1.1-.3-1.9-.9-2.5-.6-.6-1.4-.9-2.5-.9s-2.1.4-2.8,1.1c-.7.7-1,1.8-1,3.2v10.6h-3.7v-11.5c0-1.1-.3-1.9-.9-2.5-.6-.6-1.4-.9-2.5-.9s-2.1.4-2.8,1.1c-.7.7-1,1.8-1,3.2v10.6h-3.7Z"/>
      <path class="cls-4" d="M2699.2,470c-1.3,0-2.4-.2-3.4-.6-1-.4-1.8-1.1-2.4-1.9-.6-.8-.9-1.9-.9-3.1s.3-2.2.9-3c.6-.8,1.4-1.4,2.4-1.8s2.2-.6,3.5-.6h5.4v-1.2c0-1-.3-1.9-.9-2.5s-1.6-.9-2.9-.9-2.2.3-2.9.9-1.1,1.4-1.3,2.3l-3.5-1.1c.3-1,.8-1.8,1.4-2.6.6-.8,1.5-1.4,2.5-1.9,1.1-.5,2.3-.7,3.8-.7,2.3,0,4.1.6,5.4,1.8,1.3,1.2,2,2.8,2,5v7.3c0,.7.3,1.1,1,1.1h1.5v3.1h-2.8c-.8,0-1.5-.2-2.1-.6-.5-.4-.8-1-.8-1.8h0c0-.1-.5-.1-.5-.1-.2.4-.5.8-.9,1.3-.4.5-.9.9-1.7,1.2-.7.3-1.7.5-3,.5ZM2699.7,466.9c1.5,0,2.7-.4,3.6-1.3.9-.9,1.4-2,1.4-3.5v-.4h-5.2c-1,0-1.8.2-2.4.6-.6.4-.9,1-.9,1.9s.3,1.5.9,1.9c.6.5,1.5.7,2.6.7Z"/>
      <path class="cls-4" d="M2717.7,469.5v-14.6h-5v-3.1h5v-3.9c0-1.1.3-1.9,1-2.6.6-.6,1.5-1,2.6-1h4.6v3.1h-3.4c-.7,0-1,.4-1,1.1v3.2h5.1v3.1h-5.1v14.6h-3.7Z"/>
      <path class="cls-4" d="M2730.3,469.5v-17.7h3.6v2.1h.6c.3-.7.8-1.3,1.4-1.6.6-.3,1.4-.5,2.4-.5h2.1v3.3h-2.3c-1.2,0-2.2.3-3,1-.8.7-1.2,1.7-1.2,3v10.4h-3.7Z"/>
      <path class="cls-4" d="M2752.5,470c-1.8,0-3.4-.4-4.7-1.1-1.4-.7-2.5-1.8-3.3-3.2s-1.2-3-1.2-4.9v-.5c0-1.9.4-3.5,1.2-4.8.8-1.4,1.9-2.4,3.3-3.1,1.4-.7,3-1.1,4.7-1.1s3.4.4,4.8,1.1c1.4.7,2.5,1.8,3.3,3.1.8,1.4,1.2,3,1.2,4.8v.5c0,1.9-.4,3.5-1.2,4.9s-1.9,2.4-3.3,3.2c-1.4.7-3,1.1-4.8,1.1ZM2752.5,466.7c1.6,0,3-.5,4-1.6,1-1,1.5-2.5,1.5-4.3v-.3c0-1.8-.5-3.3-1.5-4.3s-2.3-1.6-4-1.6-2.9.5-3.9,1.6c-1,1-1.5,2.5-1.5,4.3v.3c0,1.8.5,3.3,1.5,4.3,1,1,2.3,1.6,3.9,1.6Z"/>
      <path class="cls-4" d="M2773.6,470c-2.3,0-4.1-.5-5.6-1.5-1.5-1-2.4-2.5-2.7-4.6l3.5-.8c.2,1,.5,1.8,1,2.3.5.6,1,1,1.7,1.2s1.4.4,2.2.4c1.2,0,2.1-.2,2.7-.7.6-.5,1-1,1-1.8s-.3-1.2-.9-1.6c-.6-.3-1.5-.6-2.7-.8l-1.2-.2c-1.2-.2-2.3-.5-3.3-.9-1-.4-1.8-1-2.3-1.7-.6-.7-.9-1.6-.9-2.8,0-1.7.6-3,1.9-3.9,1.2-.9,2.9-1.4,5-1.4s3.6.5,4.9,1.3c1.3.9,2.1,2.1,2.5,3.7l-3.5,1c-.2-1.1-.7-1.8-1.4-2.3-.7-.4-1.6-.7-2.6-.7s-1.8.2-2.4.6c-.6.4-.9.9-.9,1.6s.3,1.2.8,1.6c.6.3,1.3.6,2.3.8l1.3.2c1.3.2,2.4.5,3.5.9,1.1.4,1.9.9,2.5,1.7.6.7.9,1.7.9,2.9,0,1.8-.7,3.2-2,4.1-1.3,1-3.1,1.5-5.3,1.5Z"/>
      <path class="cls-4" d="M2791.9,469.5c-1.1,0-1.9-.3-2.6-1-.6-.6-1-1.5-1-2.6v-11.1h-4.9v-3.1h4.9v-5.9h3.7v5.9h5.3v3.1h-5.3v10.4c0,.7.3,1.1,1,1.1h3.7v3.1h-4.9Z"/>
      <path class="cls-4" d="M2818.2,470c-2.3,0-4.1-.5-5.6-1.5-1.5-1-2.4-2.5-2.7-4.6l3.5-.8c.2,1,.5,1.8,1,2.3.5.6,1,1,1.7,1.2s1.4.4,2.2.4c1.2,0,2.1-.2,2.7-.7.6-.5,1-1,1-1.8s-.3-1.2-.9-1.6c-.6-.3-1.5-.6-2.7-.8l-1.2-.2c-1.2-.2-2.3-.5-3.3-.9-1-.4-1.8-1-2.3-1.7-.6-.7-.9-1.6-.9-2.8,0-1.7.6-3,1.9-3.9,1.2-.9,2.9-1.4,5-1.4s3.6.5,4.9,1.3c1.3.9,2.1,2.1,2.5,3.7l-3.5,1c-.2-1.1-.7-1.8-1.4-2.3-.7-.4-1.6-.7-2.6-.7s-1.8.2-2.4.6c-.6.4-.9.9-.9,1.6s.3,1.2.8,1.6c.6.3,1.3.6,2.3.8l1.3.2c1.3.2,2.4.5,3.5.9,1.1.4,1.9.9,2.5,1.7.6.7.9,1.7.9,2.9,0,1.8-.7,3.2-2,4.1-1.3,1-3.1,1.5-5.3,1.5Z"/>
      <path class="cls-4" d="M2831.7,449.3c-.7,0-1.3-.2-1.8-.7-.5-.5-.7-1.1-.7-1.8s.2-1.4.7-1.8c.5-.5,1.1-.7,1.8-.7s1.4.2,1.8.7c.5.5.7,1.1.7,1.8s-.2,1.3-.7,1.8c-.5.5-1.1.7-1.8.7ZM2829.8,469.5v-17.7h3.7v17.7h-3.7Z"/>
      <path class="cls-4" d="M2839,469.5v-17.7h3.6v2.7h.6c.3-.7.9-1.4,1.8-2,.9-.6,2.1-.9,3.9-.9s2.5.3,3.6.9c1,.6,1.9,1.4,2.5,2.5.6,1.1.9,2.4.9,3.9v10.7h-3.7v-10.4c0-1.5-.4-2.7-1.2-3.4-.8-.7-1.8-1.1-3.2-1.1s-2.8.5-3.7,1.5c-.9,1-1.4,2.5-1.4,4.4v9h-3.7Z"/>
      <path class="cls-4" d="M2868.5,470c-1.5,0-2.8-.4-4.1-1.1-1.2-.7-2.2-1.8-3-3.1-.8-1.4-1.1-3-1.1-4.9v-.5c0-1.9.4-3.5,1.1-4.9.7-1.4,1.7-2.4,3-3.1,1.2-.7,2.6-1.1,4.1-1.1s2.1.1,2.9.4c.8.3,1.4.7,1.9,1.1s.9.9,1.2,1.4h.6v-9.9h3.7v25.2h-3.6v-2.5h-.6c-.5.8-1.1,1.5-2.1,2.1-.9.6-2.2.9-4,.9ZM2869.5,466.7c1.6,0,2.9-.5,4-1.5,1-1,1.6-2.5,1.6-4.4v-.3c0-1.9-.5-3.4-1.5-4.4-1-1-2.4-1.5-4-1.5s-2.9.5-3.9,1.5c-1,1-1.6,2.5-1.6,4.4v.3c0,1.9.5,3.4,1.6,4.4,1,1,2.4,1.5,3.9,1.5Z"/>
      <path class="cls-4" d="M2900.8,470c-1.5,0-2.8-.4-4.1-1.1-1.2-.7-2.2-1.8-3-3.1-.8-1.4-1.1-3-1.1-4.9v-.5c0-1.9.4-3.5,1.1-4.9.7-1.4,1.7-2.4,3-3.1,1.2-.7,2.6-1.1,4.1-1.1s2.1.1,2.9.4c.8.3,1.4.7,1.9,1.1s.9.9,1.2,1.4h.6v-9.9h3.7v25.2h-3.6v-2.5h-.6c-.5.8-1.1,1.5-2.1,2.1-.9.6-2.2.9-4,.9ZM2901.8,466.7c1.6,0,2.9-.5,4-1.5,1-1,1.6-2.5,1.6-4.4v-.3c0-1.9-.5-3.4-1.5-4.4-1-1-2.4-1.5-4-1.5s-2.9.5-3.9,1.5c-1,1-1.6,2.5-1.6,4.4v.3c0,1.9.5,3.4,1.6,4.4,1,1,2.4,1.5,3.9,1.5Z"/>
      <path class="cls-4" d="M2918.4,449.3c-.7,0-1.3-.2-1.8-.7-.5-.5-.7-1.1-.7-1.8s.2-1.4.7-1.8c.5-.5,1.1-.7,1.8-.7s1.4.2,1.8.7c.5.5.7,1.1.7,1.8s-.2,1.3-.7,1.8c-.5.5-1.1.7-1.8.7ZM2916.5,469.5v-17.7h3.7v17.7h-3.7Z"/>
      <path class="cls-4" d="M2933.8,470c-1.8,0-3.4-.4-4.7-1.1-1.3-.8-2.4-1.8-3.1-3.2s-1.1-3-1.1-4.8v-.4c0-1.8.4-3.5,1.1-4.8.7-1.4,1.8-2.4,3.1-3.2s2.9-1.1,4.6-1.1,3.2.4,4.5,1.1c1.3.8,2.3,1.8,3,3.2.7,1.3,1.1,2.9,1.1,4.7v1.4h-13.6c0,1.6.6,2.8,1.6,3.7,1,.9,2.2,1.4,3.7,1.4s2.4-.3,3.1-.9c.7-.6,1.3-1.3,1.6-2.2l3.1,1.6c-.3.7-.8,1.4-1.5,2.1-.6.7-1.5,1.4-2.5,1.9-1,.5-2.4.8-4,.8ZM2928.7,458.8h9.8c0-1.3-.6-2.4-1.4-3.1-.9-.8-2-1.1-3.4-1.1s-2.5.4-3.4,1.1c-.9.8-1.4,1.8-1.6,3.1Z"/>
      <path class="cls-4" d="M2326.7,512.7l-6-17.7h3.9l4.7,15h.6l4.7-15h3.9l-6,17.7h-5.9Z"/>
      <path class="cls-4" d="M2344.1,492.5c-.7,0-1.3-.2-1.8-.7-.5-.5-.7-1.1-.7-1.8s.2-1.4.7-1.8c.5-.5,1.1-.7,1.8-.7s1.4.2,1.8.7c.5.5.7,1.1.7,1.8s-.2,1.3-.7,1.8c-.5.5-1.1.7-1.8.7ZM2342.2,512.7v-17.7h3.7v17.7h-3.7Z"/>
      <path class="cls-4" d="M2359.6,513.2c-1.8,0-3.4-.4-4.7-1.1-1.3-.8-2.4-1.8-3.1-3.2-.8-1.4-1.1-3-1.1-4.8v-.4c0-1.8.4-3.5,1.1-4.8.7-1.4,1.8-2.4,3.1-3.2s2.9-1.1,4.6-1.1,3.2.4,4.5,1.1c1.3.8,2.3,1.8,3,3.2.7,1.3,1.1,2.9,1.1,4.7v1.4h-13.6c0,1.6.6,2.8,1.6,3.7,1,.9,2.2,1.4,3.7,1.4s2.4-.3,3.1-.9c.7-.6,1.3-1.3,1.6-2.2l3.1,1.6c-.3.7-.8,1.4-1.5,2.1-.6.7-1.5,1.4-2.5,1.9-1,.5-2.4.8-4,.8ZM2354.4,502h9.8c0-1.3-.6-2.4-1.4-3.1-.9-.8-2-1.1-3.4-1.1s-2.5.4-3.4,1.1c-.9.8-1.4,1.8-1.6,3.1Z"/>
      <path class="cls-4" d="M2372.5,512.7v-25.2h3.7v25.2h-3.7Z"/>
      <path class="cls-4" d="M2389.8,513.2c-1.8,0-3.4-.4-4.7-1.1-1.3-.8-2.4-1.8-3.1-3.2-.8-1.4-1.1-3-1.1-4.8v-.4c0-1.8.4-3.5,1.1-4.8.7-1.4,1.8-2.4,3.1-3.2s2.9-1.1,4.6-1.1,3.2.4,4.5,1.1c1.3.8,2.3,1.8,3,3.2.7,1.3,1.1,2.9,1.1,4.7v1.4h-13.6c0,1.6.6,2.8,1.6,3.7,1,.9,2.2,1.4,3.7,1.4s2.4-.3,3.1-.9c.7-.6,1.3-1.3,1.6-2.2l3.1,1.6c-.3.7-.8,1.4-1.5,2.1-.6.7-1.5,1.4-2.5,1.9-1,.5-2.4.8-4,.8ZM2384.6,502h9.8c0-1.3-.6-2.4-1.4-3.1-.9-.8-2-1.1-3.4-1.1s-2.5.4-3.4,1.1c-.9.8-1.4,1.8-1.6,3.1Z"/>
      <path class="cls-4" d="M2402.7,512.7v-17.7h3.6v2.7h.6c.3-.7.9-1.4,1.8-2,.9-.6,2.1-.9,3.9-.9s2.5.3,3.6.9,1.9,1.4,2.5,2.5c.6,1.1.9,2.4.9,3.9v10.7h-3.7v-10.4c0-1.5-.4-2.7-1.2-3.4-.8-.7-1.8-1.1-3.2-1.1s-2.8.5-3.7,1.5c-.9,1-1.4,2.5-1.4,4.4v9h-3.7Z"/>
      <path class="cls-4" d="M2434,512.7v-25.2h3.7v14.4h.6l7-6.9h4.9l-9,8.6,9.3,9.1h-4.9l-7.3-7.4h-.6v7.4h-3.7Z"/>
      <path class="cls-4" d="M2453.9,512.7v-25.2h3.7v25.2h-3.7Z"/>
      <path class="cls-4" d="M2471.2,513.2c-1.8,0-3.4-.4-4.7-1.1-1.3-.8-2.4-1.8-3.1-3.2s-1.1-3-1.1-4.8v-.4c0-1.8.4-3.5,1.1-4.8.7-1.4,1.8-2.4,3.1-3.2s2.9-1.1,4.6-1.1,3.2.4,4.5,1.1c1.3.8,2.3,1.8,3,3.2.7,1.3,1.1,2.9,1.1,4.7v1.4h-13.6c0,1.6.6,2.8,1.6,3.7,1,.9,2.2,1.4,3.7,1.4s2.4-.3,3.1-.9c.7-.6,1.3-1.3,1.6-2.2l3.1,1.6c-.3.7-.8,1.4-1.5,2.1-.6.7-1.5,1.4-2.5,1.9-1,.5-2.4.8-4,.8ZM2466,502h9.8c0-1.3-.6-2.4-1.4-3.1-.9-.8-2-1.1-3.4-1.1s-2.5.4-3.4,1.1c-.9.8-1.4,1.8-1.6,3.1Z"/>
      <path class="cls-4" d="M2486,492.5c-.7,0-1.3-.2-1.8-.7-.5-.5-.7-1.1-.7-1.8s.2-1.4.7-1.8c.5-.5,1.1-.7,1.8-.7s1.4.2,1.8.7c.5.5.7,1.1.7,1.8s-.2,1.3-.7,1.8c-.5.5-1.1.7-1.8.7ZM2484.1,512.7v-17.7h3.7v17.7h-3.7Z"/>
      <path class="cls-4" d="M2493.3,512.7v-17.7h3.6v2.7h.6c.3-.7.9-1.4,1.8-2,.9-.6,2.1-.9,3.9-.9s2.5.3,3.6.9c1,.6,1.9,1.4,2.5,2.5.6,1.1.9,2.4.9,3.9v10.7h-3.7v-10.4c0-1.5-.4-2.7-1.2-3.4-.8-.7-1.8-1.1-3.2-1.1s-2.8.5-3.7,1.5c-.9,1-1.4,2.5-1.4,4.4v9h-3.7Z"/>
      <path class="cls-4" d="M2523.6,513.2c-1.8,0-3.4-.4-4.7-1.1-1.3-.8-2.4-1.8-3.1-3.2s-1.1-3-1.1-4.8v-.4c0-1.8.4-3.5,1.1-4.8.7-1.4,1.8-2.4,3.1-3.2s2.9-1.1,4.6-1.1,3.2.4,4.5,1.1c1.3.8,2.3,1.8,3,3.2.7,1.3,1.1,2.9,1.1,4.7v1.4h-13.6c0,1.6.6,2.8,1.6,3.7,1,.9,2.2,1.4,3.7,1.4s2.4-.3,3.1-.9c.7-.6,1.3-1.3,1.6-2.2l3.1,1.6c-.3.7-.8,1.4-1.5,2.1-.6.7-1.5,1.4-2.5,1.9-1,.5-2.4.8-4,.8ZM2518.4,502h9.8c0-1.3-.6-2.4-1.4-3.1-.9-.8-2-1.1-3.4-1.1s-2.5.4-3.4,1.1c-.9.8-1.4,1.8-1.6,3.1Z"/>
      <path class="cls-4" d="M2536.5,512.7v-17.7h3.6v2.7h.6c.3-.7.9-1.4,1.8-2,.9-.6,2.1-.9,3.9-.9s2.5.3,3.6.9c1,.6,1.9,1.4,2.5,2.5.6,1.1.9,2.4.9,3.9v10.7h-3.7v-10.4c0-1.5-.4-2.7-1.2-3.4-.8-.7-1.8-1.1-3.2-1.1s-2.8.5-3.7,1.5c-.9,1-1.4,2.5-1.4,4.4v9h-3.7Z"/>
      <path class="cls-4" d="M2572.7,512.7v-21.7h-7.7v-3.5h19.4v3.5h-7.7v21.7h-3.9Z"/>
      <path class="cls-4" d="M2588,512.7v-25.2h3.7v10h.6c.2-.5.6-.9,1-1.3.4-.4,1-.8,1.8-1.1.7-.3,1.7-.4,2.8-.4s2.5.3,3.6.9,1.9,1.4,2.5,2.5c.6,1.1.9,2.4.9,3.9v10.7h-3.7v-10.4c0-1.5-.4-2.7-1.2-3.4-.8-.7-1.8-1.1-3.2-1.1s-2.8.5-3.7,1.5c-.9,1-1.4,2.5-1.4,4.4v9h-3.7Z"/>
      <path class="cls-4" d="M2618.2,513.2c-1.8,0-3.4-.4-4.7-1.1-1.3-.8-2.4-1.8-3.1-3.2-.8-1.4-1.1-3-1.1-4.8v-.4c0-1.8.4-3.5,1.1-4.8.7-1.4,1.8-2.4,3.1-3.2s2.9-1.1,4.6-1.1,3.2.4,4.5,1.1c1.3.8,2.3,1.8,3,3.2.7,1.3,1.1,2.9,1.1,4.7v1.4h-13.6c0,1.6.6,2.8,1.6,3.7,1,.9,2.2,1.4,3.7,1.4s2.4-.3,3.1-.9c.7-.6,1.3-1.3,1.6-2.2l3.1,1.6c-.3.7-.8,1.4-1.5,2.1-.6.7-1.5,1.4-2.5,1.9-1,.5-2.4.8-4,.8ZM2613,502h9.8c0-1.3-.6-2.4-1.4-3.1-.9-.8-2-1.1-3.4-1.1s-2.5.4-3.4,1.1c-.9.8-1.4,1.8-1.6,3.1Z"/>
      <path class="cls-4" d="M2631.1,512.7v-17.7h3.6v2.1h.6c.3-.7.7-1.3,1.4-1.6.6-.3,1.4-.5,2.4-.5h2.1v3.3h-2.3c-1.2,0-2.2.3-3,1-.8.7-1.2,1.7-1.2,3v10.4h-3.7Z"/>
      <path class="cls-4" d="M2645.1,512.7v-17.7h3.6v2.1h.6c.3-.6.9-1.2,1.6-1.7.7-.5,1.8-.7,3-.7s2.4.3,3.2.8c.8.5,1.4,1.2,1.8,2.1h.6c.4-.8,1-1.5,1.8-2.1.8-.6,1.9-.8,3.3-.8s2.2.2,3.1.7c.9.5,1.6,1.2,2.1,2.1.5.9.8,2.1.8,3.4v11.8h-3.7v-11.5c0-1.1-.3-1.9-.9-2.5-.6-.6-1.4-.9-2.5-.9s-2.1.4-2.8,1.1c-.7.7-1,1.8-1,3.2v10.6h-3.7v-11.5c0-1.1-.3-1.9-.9-2.5-.6-.6-1.4-.9-2.5-.9s-2.1.4-2.8,1.1c-.7.7-1,1.8-1,3.2v10.6h-3.7Z"/>
      <path class="cls-4" d="M2684.2,513.2c-1.8,0-3.4-.4-4.7-1.1-1.4-.7-2.5-1.8-3.3-3.2s-1.2-3-1.2-4.9v-.5c0-1.9.4-3.5,1.2-4.8.8-1.4,1.9-2.4,3.3-3.1,1.4-.7,3-1.1,4.7-1.1s3.4.4,4.8,1.1c1.4.7,2.5,1.8,3.3,3.1.8,1.4,1.2,3,1.2,4.8v.5c0,1.9-.4,3.5-1.2,4.9s-1.9,2.4-3.3,3.2c-1.4.7-3,1.1-4.8,1.1ZM2684.2,509.9c1.6,0,3-.5,4-1.6,1-1,1.5-2.5,1.5-4.3v-.3c0-1.8-.5-3.3-1.5-4.3s-2.3-1.6-4-1.6-2.9.5-3.9,1.6c-1,1-1.5,2.5-1.5,4.3v.3c0,1.8.5,3.3,1.5,4.3,1,1,2.3,1.6,3.9,1.6Z"/>
      <path class="cls-4" d="M2698,512.7v-25.2h3.7v14.4h.6l7-6.9h4.9l-9,8.6,9.3,9.1h-4.9l-7.3-7.4h-.6v7.4h-3.7Z"/>
      <path class="cls-4" d="M2723.4,513.2c-1.3,0-2.4-.2-3.4-.6-1-.4-1.8-1.1-2.4-1.9-.6-.8-.9-1.9-.9-3.1s.3-2.2.9-3c.6-.8,1.4-1.4,2.4-1.8s2.2-.6,3.5-.6h5.4v-1.2c0-1-.3-1.9-.9-2.5s-1.6-.9-2.9-.9-2.2.3-2.9.9-1.1,1.4-1.3,2.3l-3.5-1.1c.3-1,.8-1.8,1.4-2.6.6-.8,1.5-1.4,2.5-1.9,1.1-.5,2.3-.7,3.8-.7,2.3,0,4.1.6,5.4,1.8,1.3,1.2,2,2.8,2,5v7.3c0,.7.3,1.1,1,1.1h1.5v3.1h-2.8c-.8,0-1.5-.2-2.1-.6-.5-.4-.8-1-.8-1.8h0c0-.1-.5-.1-.5-.1-.2.4-.5.8-.9,1.3-.4.5-.9.9-1.7,1.2-.7.3-1.7.5-3,.5ZM2723.9,510.1c1.5,0,2.7-.4,3.6-1.3.9-.9,1.4-2,1.4-3.5v-.4h-5.2c-1,0-1.8.2-2.4.6-.6.4-.9,1-.9,1.9s.3,1.5.9,1.9c.6.5,1.5.7,2.6.7Z"/>
      <path class="cls-4" d="M2738.6,512.7v-17.7h3.6v2.1h.6c.3-.7.7-1.3,1.4-1.6.6-.3,1.4-.5,2.4-.5h2.1v3.3h-2.3c-1.2,0-2.2.3-3,1-.8.7-1.2,1.7-1.2,3v10.4h-3.7Z"/>
      <path class="cls-4" d="M2759.9,513.2c-2.3,0-4.1-.5-5.6-1.5-1.5-1-2.4-2.5-2.7-4.6l3.5-.8c.2,1,.5,1.8,1,2.3.5.6,1,1,1.7,1.2.7.2,1.4.4,2.2.4,1.2,0,2.1-.2,2.7-.7.6-.5,1-1,1-1.8s-.3-1.2-.9-1.6c-.6-.3-1.5-.6-2.7-.8l-1.2-.2c-1.2-.2-2.3-.5-3.3-.9-1-.4-1.8-1-2.3-1.7-.6-.7-.9-1.6-.9-2.8,0-1.7.6-3,1.9-3.9,1.2-.9,2.9-1.4,5-1.4s3.6.5,4.9,1.3c1.3.9,2.1,2.1,2.5,3.7l-3.5,1c-.2-1.1-.7-1.8-1.4-2.3-.7-.4-1.6-.7-2.6-.7s-1.8.2-2.4.6c-.6.4-.9.9-.9,1.6s.3,1.2.8,1.6,1.3.6,2.3.8l1.3.2c1.3.2,2.4.5,3.5.9,1.1.4,1.9.9,2.5,1.7.6.7.9,1.7.9,2.9,0,1.8-.7,3.2-2,4.1-1.3,1-3.1,1.5-5.3,1.5Z"/>
      <path class="cls-4" d="M2778.1,512.7c-1.1,0-1.9-.3-2.6-1-.6-.6-1-1.5-1-2.6v-11.1h-4.9v-3.1h4.9v-5.9h3.7v5.9h5.3v3.1h-5.3v10.4c0,.7.3,1.1,1,1.1h3.7v3.1h-4.9Z"/>
      <path class="cls-4" d="M2795.2,513.2c-2.3,0-4.1-.5-5.6-1.5-1.5-1-2.4-2.5-2.7-4.6l3.5-.8c.2,1,.5,1.8,1,2.3.5.6,1,1,1.7,1.2.7.2,1.4.4,2.2.4,1.2,0,2.1-.2,2.7-.7.6-.5,1-1,1-1.8s-.3-1.2-.9-1.6c-.6-.3-1.5-.6-2.7-.8l-1.2-.2c-1.2-.2-2.3-.5-3.3-.9-1-.4-1.8-1-2.3-1.7-.6-.7-.9-1.6-.9-2.8,0-1.7.6-3,1.9-3.9,1.2-.9,2.9-1.4,5-1.4s3.6.5,4.9,1.3c1.3.9,2.1,2.1,2.5,3.7l-3.5,1c-.2-1.1-.7-1.8-1.4-2.3-.7-.4-1.6-.7-2.6-.7s-1.8.2-2.4.6c-.6.4-.9.9-.9,1.6s.3,1.2.8,1.6,1.3.6,2.3.8l1.3.2c1.3.2,2.4.5,3.5.9,1.1.4,1.9.9,2.5,1.7.6.7.9,1.7.9,2.9,0,1.8-.7,3.2-2,4.1-1.3,1-3.1,1.5-5.3,1.5Z"/>
      <path class="cls-4" d="M2815,513.2c-1.8,0-3.4-.4-4.7-1.1-1.3-.8-2.4-1.8-3.1-3.2-.8-1.4-1.1-3-1.1-4.8v-.4c0-1.8.4-3.5,1.1-4.8.7-1.4,1.8-2.4,3.1-3.2s2.9-1.1,4.6-1.1,3.2.4,4.5,1.1c1.3.8,2.3,1.8,3,3.2.7,1.3,1.1,2.9,1.1,4.7v1.4h-13.6c0,1.6.6,2.8,1.6,3.7,1,.9,2.2,1.4,3.7,1.4s2.4-.3,3.1-.9c.7-.6,1.3-1.3,1.6-2.2l3.1,1.6c-.3.7-.8,1.4-1.5,2.1-.6.7-1.5,1.4-2.5,1.9-1,.5-2.4.8-4,.8ZM2809.8,502h9.8c0-1.3-.6-2.4-1.4-3.1-.9-.8-2-1.1-3.4-1.1s-2.5.4-3.4,1.1c-.9.8-1.4,1.8-1.6,3.1Z"/>
      <path class="cls-4" d="M2836,513.2c-1.8,0-3.4-.4-4.7-1.1-1.3-.8-2.4-1.8-3.1-3.2-.8-1.4-1.1-3-1.1-4.8v-.4c0-1.8.4-3.5,1.1-4.8.7-1.4,1.8-2.4,3.1-3.2s2.9-1.1,4.6-1.1,3.2.4,4.5,1.1c1.3.8,2.3,1.8,3,3.2.7,1.3,1.1,2.9,1.1,4.7v1.4h-13.6c0,1.6.6,2.8,1.6,3.7,1,.9,2.2,1.4,3.7,1.4s2.4-.3,3.1-.9c.7-.6,1.3-1.3,1.6-2.2l3.1,1.6c-.3.7-.8,1.4-1.5,2.1-.6.7-1.5,1.4-2.5,1.9-1,.5-2.4.8-4,.8ZM2830.8,502h9.8c0-1.3-.6-2.4-1.4-3.1-.9-.8-2-1.1-3.4-1.1s-2.5.4-3.4,1.1c-.9.8-1.4,1.8-1.6,3.1Z"/>
      <path class="cls-4" d="M2848.9,512.7v-17.7h3.6v2.7h.6c.3-.7.9-1.4,1.8-2,.9-.6,2.1-.9,3.9-.9s2.5.3,3.6.9,1.9,1.4,2.5,2.5c.6,1.1.9,2.4.9,3.9v10.7h-3.7v-10.4c0-1.5-.4-2.7-1.2-3.4-.8-.7-1.8-1.1-3.2-1.1s-2.8.5-3.7,1.5c-.9,1-1.4,2.5-1.4,4.4v9h-3.7Z"/>
      <path class="cls-4" d="M2873.3,513.2c-.8,0-1.5-.3-2.1-.8-.6-.6-.8-1.3-.8-2.1s.3-1.6.8-2.1c.6-.5,1.3-.8,2.1-.8s1.5.3,2.1.8c.6.6.8,1.2.8,2.1s-.3,1.6-.8,2.1c-.6.6-1.3.8-2.1.8Z"/>
      <path class="cls-4" d="M2888,512.7v-3.5h3.4v-18.3h-3.4v-3.5h10.1c3.4,0,5.9.9,7.7,2.6s2.7,4.3,2.7,7.7v4.7c0,3.4-.9,6-2.7,7.7s-4.4,2.5-7.7,2.5h-10.1ZM2895.3,509.1h2.8c2.2,0,3.8-.6,4.9-1.7,1.1-1.1,1.6-2.7,1.6-4.9v-5c0-2.2-.5-3.9-1.6-4.9-1.1-1.1-2.7-1.6-4.9-1.6h-2.8v18.1Z"/>
      <path class="cls-4" d="M2918.5,513.2c-1.3,0-2.4-.2-3.4-.6-1-.4-1.8-1.1-2.4-1.9-.6-.8-.9-1.9-.9-3.1s.3-2.2.9-3c.6-.8,1.4-1.4,2.4-1.8,1-.4,2.2-.6,3.5-.6h5.4v-1.2c0-1-.3-1.9-.9-2.5-.6-.6-1.6-.9-2.9-.9s-2.2.3-2.9.9c-.7.6-1.1,1.4-1.3,2.3l-3.5-1.1c.3-1,.8-1.8,1.4-2.6s1.5-1.4,2.5-1.9c1.1-.5,2.3-.7,3.8-.7,2.3,0,4.1.6,5.4,1.8,1.3,1.2,2,2.8,2,5v7.3c0,.7.3,1.1,1,1.1h1.5v3.1h-2.8c-.8,0-1.5-.2-2.1-.6-.5-.4-.8-1-.8-1.8h0c0-.1-.5-.1-.5-.1-.2.4-.5.8-.9,1.3s-.9.9-1.7,1.2c-.7.3-1.7.5-3,.5ZM2919,510.1c1.5,0,2.7-.4,3.6-1.3.9-.9,1.4-2,1.4-3.5v-.4h-5.2c-1,0-1.8.2-2.4.6-.6.4-.9,1-.9,1.9s.3,1.5.9,1.9c.6.5,1.5.7,2.6.7Z"/>
      <path class="cls-4" d="M2324.8,555.9l-3.7-25.2h3.9l3,22.6h.6l3.9-22.6h6.8l3.9,22.6h.6l3-22.6h3.9l-3.7,25.2h-6.8l-4-22.9h-.6l-3.9,22.9h-6.8Z"/>
      <path class="cls-4" d="M2360.1,556.4c-1.3,0-2.4-.2-3.4-.6-1-.4-1.8-1.1-2.4-1.9-.6-.8-.9-1.9-.9-3.1s.3-2.2.9-3c.6-.8,1.4-1.4,2.4-1.8,1-.4,2.2-.6,3.5-.6h5.4v-1.2c0-1-.3-1.9-.9-2.5-.6-.6-1.6-.9-2.9-.9s-2.2.3-2.9.9c-.7.6-1.1,1.4-1.3,2.3l-3.5-1.1c.3-1,.8-1.8,1.4-2.6s1.5-1.4,2.5-1.9c1.1-.5,2.3-.7,3.8-.7,2.3,0,4.1.6,5.4,1.8,1.3,1.2,2,2.8,2,5v7.3c0,.7.3,1.1,1,1.1h1.5v3.1h-2.8c-.8,0-1.5-.2-2.1-.6-.5-.4-.8-1-.8-1.8h0c0-.1-.5-.1-.5-.1-.2.4-.5.8-.9,1.3s-.9.9-1.7,1.2c-.7.3-1.7.5-3,.5ZM2360.6,553.3c1.5,0,2.7-.4,3.6-1.3.9-.9,1.4-2,1.4-3.5v-.4h-5.2c-1,0-1.8.2-2.4.6-.6.4-.9,1-.9,1.9s.3,1.5.9,1.9c.6.5,1.5.7,2.6.7Z"/>
      <path class="cls-4" d="M2382.6,556.4c-2.3,0-4.1-.5-5.6-1.5-1.5-1-2.4-2.5-2.7-4.6l3.5-.8c.2,1,.5,1.8,1,2.3.5.6,1,1,1.7,1.2s1.4.4,2.2.4c1.2,0,2.1-.2,2.7-.7.6-.5,1-1,1-1.8s-.3-1.2-.9-1.6c-.6-.3-1.5-.6-2.7-.8l-1.2-.2c-1.2-.2-2.3-.5-3.3-.9-1-.4-1.8-1-2.3-1.7-.6-.7-.9-1.6-.9-2.8,0-1.7.6-3,1.9-3.9,1.2-.9,2.9-1.4,5-1.4s3.6.5,4.9,1.3c1.3.9,2.1,2.1,2.5,3.7l-3.5,1c-.2-1.1-.7-1.8-1.4-2.3-.7-.4-1.6-.7-2.6-.7s-1.8.2-2.4.6c-.6.4-.9.9-.9,1.6s.3,1.2.8,1.6c.6.3,1.3.6,2.3.8l1.3.2c1.3.2,2.4.5,3.5.9,1.1.4,1.9.9,2.5,1.7.6.7.9,1.7.9,2.9,0,1.8-.7,3.2-2,4.1-1.3,1-3.1,1.5-5.3,1.5Z"/>
      <path class="cls-4" d="M2401.5,556.4c-2.3,0-4.1-.5-5.6-1.5-1.5-1-2.4-2.5-2.7-4.6l3.5-.8c.2,1,.5,1.8,1,2.3.5.6,1,1,1.7,1.2s1.4.4,2.2.4c1.2,0,2.1-.2,2.7-.7.6-.5,1-1,1-1.8s-.3-1.2-.9-1.6c-.6-.3-1.5-.6-2.7-.8l-1.2-.2c-1.2-.2-2.3-.5-3.3-.9-1-.4-1.8-1-2.3-1.7-.6-.7-.9-1.6-.9-2.8,0-1.7.6-3,1.9-3.9,1.2-.9,2.9-1.4,5-1.4s3.6.5,4.9,1.3c1.3.9,2.1,2.1,2.5,3.7l-3.5,1c-.2-1.1-.7-1.8-1.4-2.3-.7-.4-1.6-.7-2.6-.7s-1.8.2-2.4.6c-.6.4-.9.9-.9,1.6s.3,1.2.8,1.6c.6.3,1.3.6,2.3.8l1.3.2c1.3.2,2.4.5,3.5.9,1.1.4,1.9.9,2.5,1.7.6.7.9,1.7.9,2.9,0,1.8-.7,3.2-2,4.1-1.3,1-3.1,1.5-5.3,1.5Z"/>
      <path class="cls-4" d="M2421.3,556.4c-1.8,0-3.4-.4-4.7-1.1-1.3-.8-2.4-1.8-3.1-3.2s-1.1-3-1.1-4.8v-.4c0-1.8.4-3.5,1.1-4.8.7-1.4,1.8-2.4,3.1-3.2s2.9-1.1,4.6-1.1,3.2.4,4.5,1.1c1.3.8,2.3,1.8,3,3.2.7,1.3,1.1,2.9,1.1,4.7v1.4h-13.6c0,1.6.6,2.8,1.6,3.7,1,.9,2.2,1.4,3.7,1.4s2.4-.3,3.1-.9c.7-.6,1.3-1.3,1.6-2.2l3.1,1.6c-.3.7-.8,1.4-1.5,2.1-.6.7-1.5,1.4-2.5,1.9-1,.5-2.4.8-4,.8ZM2416.1,545.2h9.8c0-1.3-.6-2.4-1.4-3.1-.9-.8-2-1.1-3.4-1.1s-2.5.4-3.4,1.1c-.9.8-1.4,1.8-1.6,3.1Z"/>
      <path class="cls-4" d="M2434.2,555.9v-17.7h3.6v2.1h.6c.3-.7.8-1.3,1.4-1.6.6-.3,1.4-.5,2.4-.5h2.1v3.3h-2.3c-1.2,0-2.2.3-3,1-.8.7-1.2,1.7-1.2,3v10.4h-3.7Z"/>
      <path class="cls-4" d="M2465.4,556.4c-1.8,0-3.4-.4-4.7-1.1-1.3-.8-2.4-1.8-3.1-3.2s-1.1-3-1.1-4.8v-.4c0-1.8.4-3.5,1.1-4.8.7-1.4,1.8-2.4,3.1-3.2s2.9-1.1,4.6-1.1,3.2.4,4.5,1.1c1.3.8,2.3,1.8,3,3.2.7,1.3,1.1,2.9,1.1,4.7v1.4h-13.6c0,1.6.6,2.8,1.6,3.7,1,.9,2.2,1.4,3.7,1.4s2.4-.3,3.1-.9c.7-.6,1.3-1.3,1.6-2.2l3.1,1.6c-.3.7-.8,1.4-1.5,2.1-.6.7-1.5,1.4-2.5,1.9-1,.5-2.4.8-4,.8ZM2460.2,545.2h9.8c0-1.3-.6-2.4-1.4-3.1-.9-.8-2-1.1-3.4-1.1s-2.5.4-3.4,1.1c-.9.8-1.4,1.8-1.6,3.1Z"/>
      <path class="cls-4" d="M2480.2,535.7c-.7,0-1.3-.2-1.8-.7-.5-.5-.7-1.1-.7-1.8s.2-1.4.7-1.8c.5-.5,1.1-.7,1.8-.7s1.4.2,1.8.7c.5.5.7,1.1.7,1.8s-.2,1.3-.7,1.8c-.5.5-1.1.7-1.8.7ZM2478.3,555.9v-17.7h3.7v17.7h-3.7Z"/>
      <path class="cls-4" d="M2487.5,555.9v-17.7h3.6v2.7h.6c.3-.7.9-1.4,1.8-2,.9-.6,2.1-.9,3.9-.9s2.5.3,3.6.9c1,.6,1.9,1.4,2.5,2.5.6,1.1.9,2.4.9,3.9v10.7h-3.7v-10.4c0-1.5-.4-2.7-1.2-3.4-.8-.7-1.8-1.1-3.2-1.1s-2.8.5-3.7,1.5c-.9,1-1.4,2.5-1.4,4.4v9h-3.7Z"/>
      <path class="cls-4" d="M2517.8,556.4c-1.8,0-3.4-.4-4.7-1.1-1.3-.8-2.4-1.8-3.1-3.2s-1.1-3-1.1-4.8v-.4c0-1.8.4-3.5,1.1-4.8.7-1.4,1.8-2.4,3.1-3.2s2.9-1.1,4.6-1.1,3.2.4,4.5,1.1c1.3.8,2.3,1.8,3,3.2.7,1.3,1.1,2.9,1.1,4.7v1.4h-13.6c0,1.6.6,2.8,1.6,3.7,1,.9,2.2,1.4,3.7,1.4s2.4-.3,3.1-.9c.7-.6,1.3-1.3,1.6-2.2l3.1,1.6c-.3.7-.8,1.4-1.5,2.1-.6.7-1.5,1.4-2.5,1.9-1,.5-2.4.8-4,.8ZM2512.6,545.2h9.8c0-1.3-.6-2.4-1.4-3.1-.9-.8-2-1.1-3.4-1.1s-2.5.4-3.4,1.1c-.9.8-1.4,1.8-1.6,3.1Z"/>
      <path class="cls-4" d="M2539.9,555.9v-25.2h3.7v10h.6c.2-.5.6-.9,1-1.3.4-.4,1-.8,1.8-1.1.7-.3,1.7-.4,2.8-.4s2.5.3,3.6.9c1,.6,1.9,1.4,2.5,2.5.6,1.1.9,2.4.9,3.9v10.7h-3.7v-10.4c0-1.5-.4-2.7-1.2-3.4-.8-.7-1.8-1.1-3.2-1.1s-2.8.5-3.7,1.5c-.9,1-1.4,2.5-1.4,4.4v9h-3.7Z"/>
      <path class="cls-4" d="M2570.3,556.4c-1.8,0-3.4-.4-4.7-1.1-1.4-.7-2.5-1.8-3.3-3.2s-1.2-3-1.2-4.9v-.5c0-1.9.4-3.5,1.2-4.8.8-1.4,1.9-2.4,3.3-3.1,1.4-.7,3-1.1,4.7-1.1s3.4.4,4.8,1.1c1.4.7,2.5,1.8,3.3,3.1.8,1.4,1.2,3,1.2,4.8v.5c0,1.9-.4,3.5-1.2,4.9s-1.9,2.4-3.3,3.2c-1.4.7-3,1.1-4.8,1.1ZM2566.8,535.8c-.7,0-1.3-.2-1.8-.7-.5-.5-.7-1.1-.7-1.8s.2-1.4.7-1.8c.5-.5,1.1-.7,1.8-.7s1.3.2,1.8.7c.5.5.7,1.1.7,1.8s-.2,1.4-.7,1.8c-.5.5-1.1.7-1.8.7ZM2570.3,553.1c1.6,0,3-.5,4-1.6,1-1,1.5-2.5,1.5-4.3v-.3c0-1.8-.5-3.3-1.5-4.3s-2.3-1.6-4-1.6-2.9.5-3.9,1.6c-1,1-1.5,2.5-1.5,4.3v.3c0,1.8.5,3.3,1.5,4.3,1,1,2.3,1.6,3.9,1.6ZM2573.8,535.8c-.7,0-1.3-.2-1.8-.7-.5-.5-.7-1.1-.7-1.8s.2-1.4.7-1.8c.5-.5,1.1-.7,1.8-.7s1.4.2,1.8.7c.5.5.7,1.1.7,1.8s-.2,1.4-.7,1.8c-.5.5-1.1.7-1.8.7Z"/>
      <path class="cls-4" d="M2584.1,555.9v-25.2h3.7v10h.6c.2-.5.6-.9,1-1.3.4-.4,1-.8,1.8-1.1.7-.3,1.7-.4,2.8-.4s2.5.3,3.6.9c1,.6,1.9,1.4,2.5,2.5.6,1.1.9,2.4.9,3.9v10.7h-3.7v-10.4c0-1.5-.4-2.7-1.2-3.4-.8-.7-1.8-1.1-3.2-1.1s-2.8.5-3.7,1.5c-.9,1-1.4,2.5-1.4,4.4v9h-3.7Z"/>
      <path class="cls-4" d="M2614.4,556.4c-1.8,0-3.4-.4-4.7-1.1-1.3-.8-2.4-1.8-3.1-3.2s-1.1-3-1.1-4.8v-.4c0-1.8.4-3.5,1.1-4.8.7-1.4,1.8-2.4,3.1-3.2s2.9-1.1,4.6-1.1,3.2.4,4.5,1.1c1.3.8,2.3,1.8,3,3.2.7,1.3,1.1,2.9,1.1,4.7v1.4h-13.6c0,1.6.6,2.8,1.6,3.7,1,.9,2.2,1.4,3.7,1.4s2.4-.3,3.1-.9c.7-.6,1.3-1.3,1.6-2.2l3.1,1.6c-.3.7-.8,1.4-1.5,2.1-.6.7-1.5,1.4-2.5,1.9-1,.5-2.4.8-4,.8ZM2609.2,545.2h9.8c0-1.3-.6-2.4-1.4-3.1-.9-.8-2-1.1-3.4-1.1s-2.5.4-3.4,1.1c-.9.8-1.4,1.8-1.6,3.1Z"/>
      <path class="cls-4" d="M2627.3,555.9v-17.7h3.6v2.1h.6c.3-.7.8-1.3,1.4-1.6.6-.3,1.4-.5,2.4-.5h2.1v3.3h-2.3c-1.2,0-2.2.3-3,1-.8.7-1.2,1.7-1.2,3v10.4h-3.7Z"/>
      <path class="cls-4" d="M2649.4,556.4c-1.8,0-3.4-.4-4.7-1.1-1.3-.8-2.4-1.8-3.1-3.2s-1.1-3-1.1-4.8v-.4c0-1.8.4-3.5,1.1-4.8.7-1.4,1.8-2.4,3.1-3.2s2.9-1.1,4.6-1.1,3.2.4,4.5,1.1c1.3.8,2.3,1.8,3,3.2.7,1.3,1.1,2.9,1.1,4.7v1.4h-13.6c0,1.6.6,2.8,1.6,3.7,1,.9,2.2,1.4,3.7,1.4s2.4-.3,3.1-.9c.7-.6,1.3-1.3,1.6-2.2l3.1,1.6c-.3.7-.8,1.4-1.5,2.1-.6.7-1.5,1.4-2.5,1.9-1,.5-2.4.8-4,.8ZM2644.2,545.2h9.8c0-1.3-.6-2.4-1.4-3.1-.9-.8-2-1.1-3.4-1.1s-2.5.4-3.4,1.1c-.9.8-1.4,1.8-1.6,3.1Z"/>
      <path class="cls-4" d="M2673.3,555.9l-3.7-25.2h3.9l3,22.6h.6l3.9-22.6h6.8l3.9,22.6h.6l3-22.6h3.9l-3.7,25.2h-6.8l-4-22.9h-.6l-3.9,22.9h-6.8Z"/>
      <path class="cls-4" d="M2708.6,556.4c-1.3,0-2.4-.2-3.4-.6-1-.4-1.8-1.1-2.4-1.9-.6-.8-.9-1.9-.9-3.1s.3-2.2.9-3c.6-.8,1.4-1.4,2.4-1.8,1-.4,2.2-.6,3.5-.6h5.4v-1.2c0-1-.3-1.9-.9-2.5-.6-.6-1.6-.9-2.9-.9s-2.2.3-2.9.9c-.7.6-1.1,1.4-1.3,2.3l-3.5-1.1c.3-1,.8-1.8,1.4-2.6s1.5-1.4,2.5-1.9c1.1-.5,2.3-.7,3.8-.7,2.3,0,4.1.6,5.4,1.8,1.3,1.2,2,2.8,2,5v7.3c0,.7.3,1.1,1,1.1h1.5v3.1h-2.8c-.8,0-1.5-.2-2.1-.6-.5-.4-.8-1-.8-1.8h0c0-.1-.5-.1-.5-.1-.2.4-.5.8-.9,1.3s-.9.9-1.7,1.2c-.7.3-1.7.5-3,.5ZM2707,535.8c-.7,0-1.3-.2-1.8-.7-.5-.5-.7-1.1-.7-1.8s.2-1.4.7-1.8c.5-.5,1.1-.7,1.8-.7s1.3.2,1.8.7c.5.5.7,1.1.7,1.8s-.2,1.4-.7,1.8c-.5.5-1.1.7-1.8.7ZM2709.2,553.3c1.5,0,2.7-.4,3.6-1.3.9-.9,1.4-2,1.4-3.5v-.4h-5.2c-1,0-1.8.2-2.4.6-.6.4-.9,1-.9,1.9s.3,1.5.9,1.9c.6.5,1.5.7,2.6.7ZM2714,535.8c-.7,0-1.3-.2-1.8-.7-.5-.5-.7-1.1-.7-1.8s.2-1.4.7-1.8c.5-.5,1.1-.7,1.8-.7s1.4.2,1.8.7c.5.5.7,1.1.7,1.8s-.2,1.4-.7,1.8c-.5.5-1.1.7-1.8.7Z"/>
      <path class="cls-4" d="M2723.9,555.9v-17.7h3.6v2.1h.6c.3-.7.8-1.3,1.4-1.6.6-.3,1.4-.5,2.4-.5h2.1v3.3h-2.3c-1.2,0-2.2.3-3,1-.8.7-1.2,1.7-1.2,3v10.4h-3.7Z"/>
      <path class="cls-4" d="M2737.8,555.9v-17.7h3.6v2.1h.6c.3-.6.9-1.2,1.6-1.7.7-.5,1.8-.7,3-.7s2.4.3,3.2.8c.8.5,1.4,1.2,1.8,2.1h.6c.4-.8,1-1.5,1.8-2.1.8-.6,1.9-.8,3.3-.8s2.2.2,3.1.7c.9.5,1.6,1.2,2.1,2.1.5.9.8,2.1.8,3.4v11.8h-3.7v-11.5c0-1.1-.3-1.9-.9-2.5-.6-.6-1.4-.9-2.5-.9s-2.1.4-2.8,1.1c-.7.7-1,1.8-1,3.2v10.6h-3.7v-11.5c0-1.1-.3-1.9-.9-2.5-.6-.6-1.4-.9-2.5-.9s-2.1.4-2.8,1.1c-.7.7-1,1.8-1,3.2v10.6h-3.7Z"/>
      <path class="cls-4" d="M2776.8,556.4c-1.8,0-3.4-.4-4.7-1.1-1.3-.8-2.4-1.8-3.1-3.2s-1.1-3-1.1-4.8v-.4c0-1.8.4-3.5,1.1-4.8.7-1.4,1.8-2.4,3.1-3.2s2.9-1.1,4.6-1.1,3.2.4,4.5,1.1c1.3.8,2.3,1.8,3,3.2.7,1.3,1.1,2.9,1.1,4.7v1.4h-13.6c0,1.6.6,2.8,1.6,3.7,1,.9,2.2,1.4,3.7,1.4s2.4-.3,3.1-.9c.7-.6,1.3-1.3,1.6-2.2l3.1,1.6c-.3.7-.8,1.4-1.5,2.1-.6.7-1.5,1.4-2.5,1.9-1,.5-2.4.8-4,.8ZM2771.6,545.2h9.8c0-1.3-.6-2.4-1.4-3.1-.9-.8-2-1.1-3.4-1.1s-2.5.4-3.4,1.1c-.9.8-1.4,1.8-1.6,3.1Z"/>
      <path class="cls-4" d="M2789.7,555.9v-25.2h3.7v14.4h.6l7-6.9h4.9l-9,8.6,9.3,9.1h-4.9l-7.3-7.4h-.6v7.4h-3.7Z"/>
      <path class="cls-4" d="M2815,556.4c-1.3,0-2.4-.2-3.4-.6-1-.4-1.8-1.1-2.4-1.9-.6-.8-.9-1.9-.9-3.1s.3-2.2.9-3c.6-.8,1.4-1.4,2.4-1.8,1-.4,2.2-.6,3.5-.6h5.4v-1.2c0-1-.3-1.9-.9-2.5-.6-.6-1.6-.9-2.9-.9s-2.2.3-2.9.9c-.7.6-1.1,1.4-1.3,2.3l-3.5-1.1c.3-1,.8-1.8,1.4-2.6s1.5-1.4,2.5-1.9c1.1-.5,2.3-.7,3.8-.7,2.3,0,4.1.6,5.4,1.8,1.3,1.2,2,2.8,2,5v7.3c0,.7.3,1.1,1,1.1h1.5v3.1h-2.8c-.8,0-1.5-.2-2.1-.6-.5-.4-.8-1-.8-1.8h0c0-.1-.5-.1-.5-.1-.2.4-.5.8-.9,1.3s-.9.9-1.7,1.2c-.7.3-1.7.5-3,.5ZM2815.6,553.3c1.5,0,2.7-.4,3.6-1.3.9-.9,1.4-2,1.4-3.5v-.4h-5.2c-1,0-1.8.2-2.4.6-.6.4-.9,1-.9,1.9s.3,1.5.9,1.9c.6.5,1.5.7,2.6.7Z"/>
      <path class="cls-4" d="M2830.3,563.1v-24.9h3.6v2.6h.6c.5-.8,1.1-1.5,2.1-2.1.9-.6,2.2-.9,4-.9s2.8.4,4.1,1.1c1.2.7,2.2,1.8,3,3.1.8,1.4,1.1,3,1.1,4.9v.5c0,1.9-.4,3.6-1.1,4.9-.7,1.4-1.7,2.4-3,3.1-1.2.7-2.6,1.1-4.1,1.1s-2.1-.1-2.9-.4-1.4-.7-1.9-1.1c-.5-.4-.9-.9-1.2-1.4h-.6v9.6h-3.7ZM2839.5,553.1c1.6,0,3-.5,4-1.5s1.5-2.5,1.5-4.4v-.3c0-1.9-.5-3.4-1.6-4.4s-2.4-1.5-4-1.5-2.9.5-3.9,1.5c-1,1-1.6,2.5-1.6,4.4v.3c0,1.9.5,3.4,1.6,4.4,1,1,2.4,1.5,3.9,1.5Z"/>
      <path class="cls-4" d="M2858.9,556.4c-1.3,0-2.4-.2-3.4-.6-1-.4-1.8-1.1-2.4-1.9-.6-.8-.9-1.9-.9-3.1s.3-2.2.9-3c.6-.8,1.4-1.4,2.4-1.8,1-.4,2.2-.6,3.5-.6h5.4v-1.2c0-1-.3-1.9-.9-2.5-.6-.6-1.6-.9-2.9-.9s-2.2.3-2.9.9c-.7.6-1.1,1.4-1.3,2.3l-3.5-1.1c.3-1,.8-1.8,1.4-2.6s1.5-1.4,2.5-1.9c1.1-.5,2.3-.7,3.8-.7,2.3,0,4.1.6,5.4,1.8,1.3,1.2,2,2.8,2,5v7.3c0,.7.3,1.1,1,1.1h1.5v3.1h-2.8c-.8,0-1.5-.2-2.1-.6-.5-.4-.8-1-.8-1.8h0c0-.1-.5-.1-.5-.1-.2.4-.5.8-.9,1.3s-.9.9-1.7,1.2c-.7.3-1.7.5-3,.5ZM2859.4,553.3c1.5,0,2.7-.4,3.6-1.3.9-.9,1.4-2,1.4-3.5v-.4h-5.2c-1,0-1.8.2-2.4.6-.6.4-.9,1-.9,1.9s.3,1.5.9,1.9c.6.5,1.5.7,2.6.7Z"/>
      <path class="cls-4" d="M2873.4,555.9v-4.5l10.5-9.6v-.5h-10.1v-3.1h14.1v4.6l-10.5,9.6v.5h10.8v3.1h-14.8Z"/>
      <path class="cls-4" d="M2894.7,535.7c-.7,0-1.3-.2-1.8-.7-.5-.5-.7-1.1-.7-1.8s.2-1.4.7-1.8c.5-.5,1.1-.7,1.8-.7s1.4.2,1.8.7c.5.5.7,1.1.7,1.8s-.2,1.3-.7,1.8c-.5.5-1.1.7-1.8.7ZM2892.8,555.9v-17.7h3.7v17.7h-3.7Z"/>
      <path class="cls-4" d="M2908.7,555.9c-1.1,0-1.9-.3-2.6-1-.6-.6-1-1.5-1-2.6v-11.1h-4.9v-3.1h4.9v-5.9h3.7v5.9h5.3v3.1h-5.3v10.4c0,.7.3,1.1,1,1.1h3.7v3.1h-4.9Z"/>
      <path class="cls-4" d="M2924,556.4c-1.3,0-2.4-.2-3.4-.6-1-.4-1.8-1.1-2.4-1.9-.6-.8-.9-1.9-.9-3.1s.3-2.2.9-3c.6-.8,1.4-1.4,2.4-1.8,1-.4,2.2-.6,3.5-.6h5.4v-1.2c0-1-.3-1.9-.9-2.5-.6-.6-1.6-.9-2.9-.9s-2.2.3-2.9.9c-.7.6-1.1,1.4-1.3,2.3l-3.5-1.1c.3-1,.8-1.8,1.4-2.6s1.5-1.4,2.5-1.9c1.1-.5,2.3-.7,3.8-.7,2.3,0,4.1.6,5.4,1.8,1.3,1.2,2,2.8,2,5v7.3c0,.7.3,1.1,1,1.1h1.5v3.1h-2.8c-.8,0-1.5-.2-2.1-.6-.5-.4-.8-1-.8-1.8h0c0-.1-.5-.1-.5-.1-.2.4-.5.8-.9,1.3s-.9.9-1.7,1.2c-.7.3-1.7.5-3,.5ZM2922.4,535.8c-.7,0-1.3-.2-1.8-.7-.5-.5-.7-1.1-.7-1.8s.2-1.4.7-1.8c.5-.5,1.1-.7,1.8-.7s1.3.2,1.8.7c.5.5.7,1.1.7,1.8s-.2,1.4-.7,1.8c-.5.5-1.1.7-1.8.7ZM2924.6,553.3c1.5,0,2.7-.4,3.6-1.3.9-.9,1.4-2,1.4-3.5v-.4h-5.2c-1,0-1.8.2-2.4.6-.6.4-.9,1-.9,1.9s.3,1.5.9,1.9c.6.5,1.5.7,2.6.7ZM2929.4,535.8c-.7,0-1.3-.2-1.8-.7-.5-.5-.7-1.1-.7-1.8s.2-1.4.7-1.8c.5-.5,1.1-.7,1.8-.7s1.4.2,1.8.7c.5.5.7,1.1.7,1.8s-.2,1.4-.7,1.8c-.5.5-1.1.7-1.8.7Z"/>
      <path class="cls-4" d="M2946,555.9c-1.1,0-1.9-.3-2.6-1-.6-.6-1-1.5-1-2.6v-11.1h-4.9v-3.1h4.9v-5.9h3.7v5.9h5.3v3.1h-5.3v10.4c0,.7.3,1.1,1,1.1h3.7v3.1h-4.9Z"/>
      <path class="cls-4" d="M2328.1,599.6c-1.3,0-2.4-.2-3.4-.6-1-.4-1.8-1.1-2.4-1.9-.6-.8-.9-1.9-.9-3.1s.3-2.2.9-3c.6-.8,1.4-1.4,2.4-1.8,1-.4,2.2-.6,3.5-.6h5.4v-1.2c0-1-.3-1.9-.9-2.5-.6-.6-1.6-.9-2.9-.9s-2.2.3-2.9.9c-.7.6-1.1,1.4-1.3,2.3l-3.5-1.1c.3-1,.8-1.8,1.4-2.6s1.5-1.4,2.5-1.9c1.1-.5,2.3-.7,3.8-.7,2.3,0,4.1.6,5.4,1.8,1.3,1.2,2,2.8,2,5v7.3c0,.7.3,1.1,1,1.1h1.5v3.1h-2.8c-.8,0-1.5-.2-2.1-.6-.5-.4-.8-1-.8-1.8h0c0-.1-.5-.1-.5-.1-.2.4-.5.8-.9,1.3s-.9.9-1.7,1.2c-.7.3-1.7.5-3,.5ZM2328.7,596.5c1.5,0,2.7-.4,3.6-1.3.9-.9,1.4-2,1.4-3.5v-.4h-5.2c-1,0-1.8.2-2.4.6-.6.4-.9,1-.9,1.9s.3,1.5.9,1.9c.6.5,1.5.7,2.6.7Z"/>
      <path class="cls-4" d="M2343.4,599.1v-25.2h3.7v25.2h-3.7Z"/>
      <path class="cls-4" d="M2359.9,599.6c-2.3,0-4.1-.5-5.6-1.5-1.5-1-2.4-2.5-2.7-4.6l3.5-.8c.2,1,.5,1.8,1,2.3.5.6,1,1,1.7,1.2s1.4.4,2.2.4c1.2,0,2.1-.2,2.7-.7.6-.5,1-1,1-1.8s-.3-1.2-.9-1.6c-.6-.3-1.5-.6-2.7-.8l-1.2-.2c-1.2-.2-2.3-.5-3.3-.9-1-.4-1.8-1-2.3-1.7-.6-.7-.9-1.6-.9-2.8,0-1.7.6-3,1.9-3.9,1.2-.9,2.9-1.4,5-1.4s3.6.5,4.9,1.3c1.3.9,2.1,2.1,2.5,3.7l-3.5,1c-.2-1.1-.7-1.8-1.4-2.3-.7-.4-1.6-.7-2.6-.7s-1.8.2-2.4.6c-.6.4-.9.9-.9,1.6s.3,1.2.8,1.6c.6.3,1.3.6,2.3.8l1.3.2c1.3.2,2.4.5,3.5.9,1.1.4,1.9.9,2.5,1.7.6.7.9,1.7.9,2.9,0,1.8-.7,3.2-2,4.1-1.3,1-3.1,1.5-5.3,1.5Z"/>
      <path class="cls-4" d="M2380.6,599.1v-25.2h3.9v21.7h12.1v3.5h-16Z"/>
      <path class="cls-4" d="M2407.1,599.4c-1.3,0-2.5-.3-3.6-.9s-1.9-1.5-2.5-2.6c-.6-1.1-.9-2.4-.9-4v-10.7h3.7v10.4c0,1.5.4,2.7,1.2,3.4.8.7,1.8,1.1,3.2,1.1s2.7-.5,3.7-1.5c.9-1,1.4-2.5,1.4-4.4v-9h3.7v17.7h-3.6v-2.7h-.6c-.3.7-.9,1.4-1.8,2-.9.6-2.1,1-3.8,1Z"/>
      <path class="cls-4" d="M2425.6,599.1v-14.6h-5v-3.1h5v-3.9c0-1.1.3-1.9,1-2.6.6-.6,1.5-1,2.6-1h4.6v3.1h-3.4c-.7,0-1,.4-1,1.1v3.2h5.1v3.1h-5.1v14.6h-3.7Z"/>
      <path class="cls-4" d="M2444.4,599.1c-1.1,0-1.9-.3-2.6-1-.6-.6-1-1.5-1-2.6v-11.1h-4.9v-3.1h4.9v-5.9h3.7v5.9h5.3v3.1h-5.3v10.4c0,.7.3,1.1,1,1.1h3.7v3.1h-4.9Z"/>
      <path class="cls-4" d="M2470.2,599.4c-1.3,0-2.5-.3-3.6-.9s-1.9-1.5-2.5-2.6c-.6-1.1-.9-2.4-.9-4v-10.7h3.7v10.4c0,1.5.4,2.7,1.2,3.4.8.7,1.8,1.1,3.2,1.1s2.7-.5,3.7-1.5c.9-1,1.4-2.5,1.4-4.4v-9h3.7v17.7h-3.6v-2.7h-.6c-.3.7-.9,1.4-1.8,2-.9.6-2.1,1-3.8,1Z"/>
      <path class="cls-4" d="M2485.5,599.1v-17.7h3.6v2.7h.6c.3-.7.9-1.4,1.8-2,.9-.6,2.1-.9,3.9-.9s2.5.3,3.6.9,1.9,1.4,2.5,2.5c.6,1.1.9,2.4.9,3.9v10.7h-3.7v-10.4c0-1.5-.4-2.7-1.2-3.4-.8-.7-1.8-1.1-3.2-1.1s-2.8.5-3.7,1.5c-.9,1-1.4,2.5-1.4,4.4v9h-3.7Z"/>
      <path class="cls-4" d="M2515,599.6c-1.5,0-2.8-.4-4.1-1.1-1.2-.7-2.2-1.8-3-3.1-.8-1.4-1.1-3-1.1-4.9v-.5c0-1.9.4-3.5,1.1-4.9.7-1.4,1.7-2.4,3-3.1,1.2-.7,2.6-1.1,4.1-1.1s2.1.1,2.9.4c.8.3,1.4.7,1.9,1.1.5.4.9.9,1.2,1.4h.6v-9.9h3.7v25.2h-3.6v-2.5h-.6c-.5.8-1.1,1.5-2.1,2.1-.9.6-2.2.9-4,.9ZM2516,596.3c1.6,0,2.9-.5,4-1.5,1-1,1.6-2.5,1.6-4.4v-.3c0-1.9-.5-3.4-1.5-4.4-1-1-2.4-1.5-4-1.5s-2.9.5-3.9,1.5-1.6,2.5-1.6,4.4v.3c0,1.9.5,3.4,1.6,4.4,1,1,2.4,1.5,3.9,1.5Z"/>
      <path class="cls-4" d="M2538.9,599.1v-3.5h3.4v-18.3h-3.4v-3.5h12.8c1.5,0,2.8.3,4,.8,1.1.5,2,1.2,2.6,2.2.6.9,1,2.1,1,3.4v.4c0,1.2-.2,2.1-.6,2.8-.4.7-1,1.3-1.6,1.7-.6.4-1.2.7-1.7.9v.6c.6.1,1.1.4,1.8.8.6.4,1.2,1,1.6,1.7.4.7.7,1.7.7,2.9v.4c0,1.4-.3,2.6-1,3.6s-1.5,1.7-2.7,2.3c-1.1.5-2.5.8-3.9.8h-12.9ZM2546.2,584.6h5.1c1.2,0,2.2-.3,3-.9.7-.6,1.1-1.4,1.1-2.5v-.4c0-1.1-.4-1.9-1.1-2.5s-1.7-.9-3-.9h-5.1v7.2ZM2546.2,595.5h5.1c1.3,0,2.3-.3,3.1-.9.7-.6,1.1-1.5,1.1-2.6v-.3c0-1.1-.4-2-1.1-2.6-.7-.6-1.8-.9-3.1-.9h-5.1v7.4Z"/>
      <path class="cls-4" d="M2572.1,599.6c-1.8,0-3.4-.4-4.7-1.1-1.4-.7-2.5-1.8-3.3-3.2s-1.2-3-1.2-4.9v-.5c0-1.9.4-3.5,1.2-4.8.8-1.4,1.9-2.4,3.3-3.1,1.4-.7,3-1.1,4.7-1.1s3.4.4,4.8,1.1c1.4.7,2.5,1.8,3.3,3.1.8,1.4,1.2,3,1.2,4.8v.5c0,1.9-.4,3.5-1.2,4.9s-1.9,2.4-3.3,3.2c-1.4.7-3,1.1-4.8,1.1ZM2572.1,596.3c1.6,0,3-.5,4-1.6,1-1,1.5-2.5,1.5-4.3v-.3c0-1.8-.5-3.3-1.5-4.3-1-1-2.3-1.6-4-1.6s-2.9.5-3.9,1.6c-1,1-1.5,2.5-1.5,4.3v.3c0,1.8.5,3.3,1.5,4.3,1,1,2.3,1.6,3.9,1.6Z"/>
      <path class="cls-4" d="M2593.2,599.6c-1.5,0-2.8-.4-4.1-1.1-1.2-.7-2.2-1.8-3-3.1-.8-1.4-1.1-3-1.1-4.9v-.5c0-1.9.4-3.5,1.1-4.9.7-1.4,1.7-2.4,3-3.1,1.2-.7,2.6-1.1,4.1-1.1s2.1.1,2.9.4c.8.3,1.4.7,1.9,1.1.5.4.9.9,1.2,1.4h.6v-9.9h3.7v25.2h-3.6v-2.5h-.6c-.5.8-1.1,1.5-2.1,2.1-.9.6-2.2.9-4,.9ZM2594.3,596.3c1.6,0,2.9-.5,4-1.5,1-1,1.6-2.5,1.6-4.4v-.3c0-1.9-.5-3.4-1.5-4.4-1-1-2.4-1.5-4-1.5s-2.9.5-3.9,1.5-1.6,2.5-1.6,4.4v.3c0,1.9.5,3.4,1.6,4.4,1,1,2.4,1.5,3.9,1.5Z"/>
      <path class="cls-4" d="M2617.1,599.6c-1.8,0-3.4-.4-4.7-1.1-1.3-.8-2.4-1.8-3.1-3.2-.8-1.4-1.1-3-1.1-4.8v-.4c0-1.8.4-3.5,1.1-4.8.7-1.4,1.8-2.4,3.1-3.2s2.9-1.1,4.6-1.1,3.2.4,4.5,1.1c1.3.8,2.3,1.8,3,3.2.7,1.3,1.1,2.9,1.1,4.7v1.4h-13.6c0,1.6.6,2.8,1.6,3.7,1,.9,2.2,1.4,3.7,1.4s2.4-.3,3.1-.9c.7-.6,1.3-1.3,1.6-2.2l3.1,1.6c-.3.7-.8,1.4-1.5,2.1-.6.7-1.5,1.4-2.5,1.9-1,.5-2.4.8-4,.8ZM2611.9,588.4h9.8c0-1.3-.6-2.4-1.4-3.1-.9-.8-2-1.1-3.4-1.1s-2.5.4-3.4,1.1c-.9.8-1.4,1.8-1.6,3.1Z"/>
      <path class="cls-4" d="M2630,599.1v-17.7h3.6v2.7h.6c.3-.7.9-1.4,1.8-2,.9-.6,2.1-.9,3.9-.9s2.5.3,3.6.9,1.9,1.4,2.5,2.5c.6,1.1.9,2.4.9,3.9v10.7h-3.7v-10.4c0-1.5-.4-2.7-1.2-3.4-.8-.7-1.8-1.1-3.2-1.1s-2.8.5-3.7,1.5c-.9,1-1.4,2.5-1.4,4.4v9h-3.7Z"/>
      <path class="cls-4" d="M2661.3,599.1v-25.2h3.7v10h.6c.2-.5.6-.9,1-1.3.4-.4,1-.8,1.8-1.1.7-.3,1.7-.4,2.8-.4s2.5.3,3.6.9,1.9,1.4,2.5,2.5c.6,1.1.9,2.4.9,3.9v10.7h-3.7v-10.4c0-1.5-.4-2.7-1.2-3.4-.8-.7-1.8-1.1-3.2-1.1s-2.8.5-3.7,1.5c-.9,1-1.4,2.5-1.4,4.4v9h-3.7Z"/>
      <path class="cls-4" d="M2689,599.6c-1.3,0-2.4-.2-3.4-.6-1-.4-1.8-1.1-2.4-1.9-.6-.8-.9-1.9-.9-3.1s.3-2.2.9-3c.6-.8,1.4-1.4,2.4-1.8s2.2-.6,3.5-.6h5.4v-1.2c0-1-.3-1.9-.9-2.5s-1.6-.9-2.9-.9-2.2.3-2.9.9-1.1,1.4-1.3,2.3l-3.5-1.1c.3-1,.8-1.8,1.4-2.6.6-.8,1.5-1.4,2.5-1.9,1.1-.5,2.3-.7,3.8-.7,2.3,0,4.1.6,5.4,1.8,1.3,1.2,2,2.8,2,5v7.3c0,.7.3,1.1,1,1.1h1.5v3.1h-2.8c-.8,0-1.5-.2-2.1-.6-.5-.4-.8-1-.8-1.8h0c0-.1-.5-.1-.5-.1-.2.4-.5.8-.9,1.3-.4.5-.9.9-1.7,1.2-.7.3-1.7.5-3,.5ZM2689.5,596.5c1.5,0,2.7-.4,3.6-1.3.9-.9,1.4-2,1.4-3.5v-.4h-5.2c-1,0-1.8.2-2.4.6-.6.4-.9,1-.9,1.9s.3,1.5.9,1.9c.6.5,1.5.7,2.6.7Z"/>
      <path class="cls-4" d="M2710.9,599.1c-1.1,0-1.9-.3-2.6-1-.6-.6-1-1.5-1-2.6v-11.1h-4.9v-3.1h4.9v-5.9h3.7v5.9h5.3v3.1h-5.3v10.4c0,.7.3,1.1,1,1.1h3.7v3.1h-4.9Z"/>
      <path class="cls-4" d="M2720.8,604v-2.1h1.2c1,0,1.5-.5,1.5-1.5v-1.2h-.5c-.8,0-1.5-.3-2.1-.8-.6-.5-.8-1.1-.8-1.9s.3-1.5.8-2c.6-.5,1.2-.8,2.1-.8s1.5.3,2.1.8.8,1.2.8,2.1v3.7c0,2.4-1.2,3.6-3.6,3.6h-1.5Z"/>
      <path class="cls-4" d="M2741.8,599.1v-14.6h-5v-3.1h5v-3.9c0-1.1.3-1.9,1-2.6.6-.6,1.5-1,2.6-1h4.6v3.1h-3.4c-.7,0-1,.4-1,1.1v3.2h5.1v3.1h-5.1v14.6h-3.7Z"/>
      <path class="cls-4" d="M2762.7,599.6c-1.8,0-3.4-.4-4.7-1.1-1.4-.7-2.5-1.8-3.3-3.2s-1.2-3-1.2-4.9v-.5c0-1.9.4-3.5,1.2-4.8.8-1.4,1.9-2.4,3.3-3.1,1.4-.7,3-1.1,4.7-1.1s3.4.4,4.8,1.1c1.4.7,2.5,1.8,3.3,3.1.8,1.4,1.2,3,1.2,4.8v.5c0,1.9-.4,3.5-1.2,4.9s-1.9,2.4-3.3,3.2c-1.4.7-3,1.1-4.8,1.1ZM2759.2,579c-.7,0-1.3-.2-1.8-.7-.5-.5-.7-1.1-.7-1.8s.2-1.4.7-1.8c.5-.5,1.1-.7,1.8-.7s1.3.2,1.8.7c.5.5.7,1.1.7,1.8s-.2,1.4-.7,1.8c-.5.5-1.1.7-1.8.7ZM2762.7,596.3c1.6,0,3-.5,4-1.6,1-1,1.5-2.5,1.5-4.3v-.3c0-1.8-.5-3.3-1.5-4.3s-2.3-1.6-4-1.6-2.9.5-3.9,1.6c-1,1-1.5,2.5-1.5,4.3v.3c0,1.8.5,3.3,1.5,4.3,1,1,2.3,1.6,3.9,1.6ZM2766.3,579c-.7,0-1.3-.2-1.8-.7-.5-.5-.7-1.1-.7-1.8s.2-1.4.7-1.8c.5-.5,1.1-.7,1.8-.7s1.4.2,1.8.7c.5.5.7,1.1.7,1.8s-.2,1.4-.7,1.8c-.5.5-1.1.7-1.8.7Z"/>
      <path class="cls-4" d="M2776.6,599.1v-17.7h3.6v2.1h.6c.3-.7.8-1.3,1.4-1.6.6-.3,1.4-.5,2.4-.5h2.1v3.3h-2.3c-1.2,0-2.2.3-3,1-.8.7-1.2,1.7-1.2,3v10.4h-3.7Z"/>
      <path class="cls-4" d="M2797.8,599.6c-1.5,0-2.8-.4-4.1-1.1-1.2-.7-2.2-1.8-3-3.1-.8-1.4-1.1-3-1.1-4.9v-.5c0-1.9.4-3.5,1.1-4.9.7-1.4,1.7-2.4,3-3.1,1.2-.7,2.6-1.1,4.1-1.1s2.1.1,2.9.4c.8.3,1.4.7,1.9,1.1s.9.9,1.2,1.4h.6v-9.9h3.7v25.2h-3.6v-2.5h-.6c-.5.8-1.1,1.5-2.1,2.1-.9.6-2.2.9-4,.9ZM2798.9,596.3c1.6,0,2.9-.5,4-1.5,1-1,1.6-2.5,1.6-4.4v-.3c0-1.9-.5-3.4-1.5-4.4-1-1-2.4-1.5-4-1.5s-2.9.5-3.9,1.5c-1,1-1.6,2.5-1.6,4.4v.3c0,1.9.5,3.4,1.6,4.4,1,1,2.4,1.5,3.9,1.5Z"/>
      <path class="cls-4" d="M2821.7,599.6c-1.8,0-3.4-.4-4.7-1.1-1.3-.8-2.4-1.8-3.1-3.2s-1.1-3-1.1-4.8v-.4c0-1.8.4-3.5,1.1-4.8.7-1.4,1.8-2.4,3.1-3.2s2.9-1.1,4.6-1.1,3.2.4,4.5,1.1c1.3.8,2.3,1.8,3,3.2.7,1.3,1.1,2.9,1.1,4.7v1.4h-13.6c0,1.6.6,2.8,1.6,3.7,1,.9,2.2,1.4,3.7,1.4s2.4-.3,3.1-.9c.7-.6,1.3-1.3,1.6-2.2l3.1,1.6c-.3.7-.8,1.4-1.5,2.1-.6.7-1.5,1.4-2.5,1.9-1,.5-2.4.8-4,.8ZM2816.5,588.4h9.8c0-1.3-.6-2.4-1.4-3.1-.9-.8-2-1.1-3.4-1.1s-2.5.4-3.4,1.1c-.9.8-1.4,1.8-1.6,3.1Z"/>
      <path class="cls-4" d="M2834.6,599.1v-17.7h3.6v2.1h.6c.3-.7.8-1.3,1.4-1.6.6-.3,1.4-.5,2.4-.5h2.1v3.3h-2.3c-1.2,0-2.2.3-3,1-.8.7-1.2,1.7-1.2,3v10.4h-3.7Z"/>
      <path class="cls-4" d="M2848.5,599.1v-17.7h3.6v2.7h.6c.3-.7.9-1.4,1.8-2,.9-.6,2.1-.9,3.9-.9s2.5.3,3.6.9c1,.6,1.9,1.4,2.5,2.5.6,1.1.9,2.4.9,3.9v10.7h-3.7v-10.4c0-1.5-.4-2.7-1.2-3.4-.8-.7-1.8-1.1-3.2-1.1s-2.8.5-3.7,1.5c-.9,1-1.4,2.5-1.4,4.4v9h-3.7Z"/>
      <path class="cls-4" d="M2887.1,599.6c-2.3,0-4.1-.5-5.6-1.5-1.5-1-2.4-2.5-2.7-4.6l3.5-.8c.2,1,.5,1.8,1,2.3.5.6,1,1,1.7,1.2s1.4.4,2.2.4c1.2,0,2.1-.2,2.7-.7.6-.5,1-1,1-1.8s-.3-1.2-.9-1.6c-.6-.3-1.5-.6-2.7-.8l-1.2-.2c-1.2-.2-2.3-.5-3.3-.9-1-.4-1.8-1-2.3-1.7-.6-.7-.9-1.6-.9-2.8,0-1.7.6-3,1.9-3.9,1.2-.9,2.9-1.4,5-1.4s3.6.5,4.9,1.3c1.3.9,2.1,2.1,2.5,3.7l-3.5,1c-.2-1.1-.7-1.8-1.4-2.3-.7-.4-1.6-.7-2.6-.7s-1.8.2-2.4.6c-.6.4-.9.9-.9,1.6s.3,1.2.8,1.6c.6.3,1.3.6,2.3.8l1.3.2c1.3.2,2.4.5,3.5.9,1.1.4,1.9.9,2.5,1.7.6.7.9,1.7.9,2.9,0,1.8-.7,3.2-2,4.1-1.3,1-3.1,1.5-5.3,1.5Z"/>
      <path class="cls-4" d="M2900.6,578.9c-.7,0-1.3-.2-1.8-.7-.5-.5-.7-1.1-.7-1.8s.2-1.4.7-1.8c.5-.5,1.1-.7,1.8-.7s1.4.2,1.8.7c.5.5.7,1.1.7,1.8s-.2,1.3-.7,1.8c-.5.5-1.1.7-1.8.7ZM2898.7,599.1v-17.7h3.7v17.7h-3.7Z"/>
      <path class="cls-4" d="M2916.1,599.6c-1.8,0-3.4-.4-4.7-1.1-1.3-.8-2.4-1.8-3.1-3.2s-1.1-3-1.1-4.8v-.4c0-1.8.4-3.5,1.1-4.8.7-1.4,1.8-2.4,3.1-3.2s2.9-1.1,4.6-1.1,3.2.4,4.5,1.1c1.3.8,2.3,1.8,3,3.2.7,1.3,1.1,2.9,1.1,4.7v1.4h-13.6c0,1.6.6,2.8,1.6,3.7,1,.9,2.2,1.4,3.7,1.4s2.4-.3,3.1-.9c.7-.6,1.3-1.3,1.6-2.2l3.1,1.6c-.3.7-.8,1.4-1.5,2.1-.6.7-1.5,1.4-2.5,1.9-1,.5-2.4.8-4,.8ZM2910.9,588.4h9.8c0-1.3-.6-2.4-1.4-3.1-.9-.8-2-1.1-3.4-1.1s-2.5.4-3.4,1.1c-.9.8-1.4,1.8-1.6,3.1Z"/>
      <path class="cls-4" d="M2330,642.8c-1.5,0-2.8-.4-4.1-1.1-1.2-.7-2.2-1.8-3-3.1-.8-1.4-1.1-3-1.1-4.9v-.5c0-1.9.4-3.5,1.1-4.9.7-1.4,1.7-2.4,3-3.1,1.2-.7,2.6-1.1,4.1-1.1s2.1.1,2.9.4c.8.3,1.4.7,1.9,1.1s.9.9,1.2,1.4h.6v-9.9h3.7v25.2h-3.6v-2.5h-.6c-.5.8-1.1,1.5-2.1,2.1-.9.6-2.2.9-4,.9ZM2331,639.5c1.6,0,2.9-.5,4-1.5,1-1,1.6-2.5,1.6-4.4v-.3c0-1.9-.5-3.4-1.5-4.4-1-1-2.4-1.5-4-1.5s-2.9.5-3.9,1.5c-1,1-1.6,2.5-1.6,4.4v.3c0,1.9.5,3.4,1.6,4.4,1,1,2.4,1.5,3.9,1.5Z"/>
      <path class="cls-4" d="M2351.2,642.8c-1.3,0-2.4-.2-3.4-.6-1-.4-1.8-1.1-2.4-1.9-.6-.8-.9-1.9-.9-3.1s.3-2.2.9-3c.6-.8,1.4-1.4,2.4-1.8,1-.4,2.2-.6,3.5-.6h5.4v-1.2c0-1-.3-1.9-.9-2.5-.6-.6-1.6-.9-2.9-.9s-2.2.3-2.9.9c-.7.6-1.1,1.4-1.3,2.3l-3.5-1.1c.3-1,.8-1.8,1.4-2.6s1.5-1.4,2.5-1.9c1.1-.5,2.3-.7,3.8-.7,2.3,0,4.1.6,5.4,1.8,1.3,1.2,2,2.8,2,5v7.3c0,.7.3,1.1,1,1.1h1.5v3.1h-2.8c-.8,0-1.5-.2-2.1-.6-.5-.4-.8-1-.8-1.8h0c0-.1-.5-.1-.5-.1-.2.4-.5.8-.9,1.3s-.9.9-1.7,1.2c-.7.3-1.7.5-3,.5ZM2351.8,639.7c1.5,0,2.7-.4,3.6-1.3.9-.9,1.4-2,1.4-3.5v-.4h-5.2c-1,0-1.8.2-2.4.6-.6.4-.9,1-.9,1.9s.3,1.5.9,1.9c.6.5,1.5.7,2.6.7Z"/>
      <path class="cls-4" d="M2373.8,642.8c-2.3,0-4.1-.5-5.6-1.5-1.5-1-2.4-2.5-2.7-4.6l3.5-.8c.2,1,.5,1.8,1,2.3.5.6,1,1,1.7,1.2s1.4.4,2.2.4c1.2,0,2.1-.2,2.7-.7.6-.5,1-1,1-1.8s-.3-1.2-.9-1.6c-.6-.3-1.5-.6-2.7-.8l-1.2-.2c-1.2-.2-2.3-.5-3.3-.9-1-.4-1.8-1-2.3-1.7-.6-.7-.9-1.6-.9-2.8,0-1.7.6-3,1.9-3.9,1.2-.9,2.9-1.4,5-1.4s3.6.5,4.9,1.3c1.3.9,2.1,2.1,2.5,3.7l-3.5,1c-.2-1.1-.7-1.8-1.4-2.3-.7-.4-1.6-.7-2.6-.7s-1.8.2-2.4.6c-.6.4-.9.9-.9,1.6s.3,1.2.8,1.6c.6.3,1.3.6,2.3.8l1.3.2c1.3.2,2.4.5,3.5.9,1.1.4,1.9.9,2.5,1.7.6.7.9,1.7.9,2.9,0,1.8-.7,3.2-2,4.1-1.3,1-3.1,1.5-5.3,1.5Z"/>
      <path class="cls-4" d="M2396.5,642.3l-3-17.7h3.7l2.2,15.3h.6l3.1-15.3h6l3.1,15.3h.6l2.2-15.3h3.7l-3,17.7h-6.2l-3.1-15.2h-.6l-3.1,15.2h-6.2Z"/>
      <path class="cls-4" d="M2431.2,642.8c-1.8,0-3.4-.4-4.7-1.1-1.3-.8-2.4-1.8-3.1-3.2s-1.1-3-1.1-4.8v-.4c0-1.8.4-3.5,1.1-4.8.7-1.4,1.8-2.4,3.1-3.2s2.9-1.1,4.6-1.1,3.2.4,4.5,1.1c1.3.8,2.3,1.8,3,3.2.7,1.3,1.1,2.9,1.1,4.7v1.4h-13.6c0,1.6.6,2.8,1.6,3.7,1,.9,2.2,1.4,3.7,1.4s2.4-.3,3.1-.9c.7-.6,1.3-1.3,1.6-2.2l3.1,1.6c-.3.7-.8,1.4-1.5,2.1-.6.7-1.5,1.4-2.5,1.9-1,.5-2.4.8-4,.8ZM2426,631.6h9.8c0-1.3-.6-2.4-1.4-3.1-.9-.8-2-1.1-3.4-1.1s-2.5.4-3.4,1.1c-.9.8-1.4,1.8-1.6,3.1Z"/>
      <path class="cls-4" d="M2446,622.1c-.7,0-1.3-.2-1.8-.7-.5-.5-.7-1.1-.7-1.8s.2-1.4.7-1.8c.5-.5,1.1-.7,1.8-.7s1.4.2,1.8.7c.5.5.7,1.1.7,1.8s-.2,1.3-.7,1.8c-.5.5-1.1.7-1.8.7ZM2444.1,642.3v-17.7h3.7v17.7h-3.7Z"/>
      <path class="cls-4" d="M2460,642.3c-1.1,0-1.9-.3-2.6-1-.6-.6-1-1.5-1-2.6v-11.1h-4.9v-3.1h4.9v-5.9h3.7v5.9h5.3v3.1h-5.3v10.4c0,.7.3,1.1,1,1.1h3.7v3.1h-4.9Z"/>
      <path class="cls-4" d="M2477.9,642.8c-1.8,0-3.4-.4-4.7-1.1-1.3-.8-2.4-1.8-3.1-3.2s-1.1-3-1.1-4.8v-.4c0-1.8.4-3.5,1.1-4.8.7-1.4,1.8-2.4,3.1-3.2s2.9-1.1,4.6-1.1,3.2.4,4.5,1.1c1.3.8,2.3,1.8,3,3.2.7,1.3,1.1,2.9,1.1,4.7v1.4h-13.6c0,1.6.6,2.8,1.6,3.7,1,.9,2.2,1.4,3.7,1.4s2.4-.3,3.1-.9c.7-.6,1.3-1.3,1.6-2.2l3.1,1.6c-.3.7-.8,1.4-1.5,2.1-.6.7-1.5,1.4-2.5,1.9-1,.5-2.4.8-4,.8ZM2472.8,631.6h9.8c0-1.3-.6-2.4-1.4-3.1-.9-.8-2-1.1-3.4-1.1s-2.5.4-3.4,1.1c-.9.8-1.4,1.8-1.6,3.1Z"/>
      <path class="cls-4" d="M2490.8,642.3v-17.7h3.6v2.1h.6c.3-.7.8-1.3,1.4-1.6.6-.3,1.4-.5,2.4-.5h2.1v3.3h-2.3c-1.2,0-2.2.3-3,1-.8.7-1.2,1.7-1.2,3v10.4h-3.7Z"/>
      <path class="cls-4" d="M2512.9,642.8c-1.8,0-3.4-.4-4.7-1.1-1.3-.8-2.4-1.8-3.1-3.2s-1.1-3-1.1-4.8v-.4c0-1.8.4-3.5,1.1-4.8.7-1.4,1.8-2.4,3.1-3.2s2.9-1.1,4.6-1.1,3.2.4,4.5,1.1c1.3.8,2.3,1.8,3,3.2.7,1.3,1.1,2.9,1.1,4.7v1.4h-13.6c0,1.6.6,2.8,1.6,3.7,1,.9,2.2,1.4,3.7,1.4s2.4-.3,3.1-.9c.7-.6,1.3-1.3,1.6-2.2l3.1,1.6c-.3.7-.8,1.4-1.5,2.1-.6.7-1.5,1.4-2.5,1.9-1,.5-2.4.8-4,.8ZM2507.7,631.6h9.8c0-1.3-.6-2.4-1.4-3.1-.9-.8-2-1.1-3.4-1.1s-2.5.4-3.4,1.1c-.9.8-1.4,1.8-1.6,3.1Z"/>
      <path class="cls-4" d="M2532.5,642.3l7.2-25.2h6.8l7.2,25.2h-4l-1.7-5.9h-9.9l-1.7,5.9h-4ZM2539.2,632.7h7.9l-3.7-13.2h-.6l-3.7,13.2Z"/>
      <path class="cls-4" d="M2564.1,642.6c-1.3,0-2.5-.3-3.6-.9s-1.9-1.5-2.5-2.6c-.6-1.1-.9-2.4-.9-4v-10.7h3.7v10.4c0,1.5.4,2.7,1.2,3.4.8.7,1.8,1.1,3.2,1.1s2.7-.5,3.7-1.5c.9-1,1.4-2.5,1.4-4.4v-9h3.7v17.7h-3.6v-2.7h-.6c-.3.7-.9,1.4-1.8,2-.9.6-2.1,1-3.8,1Z"/>
      <path class="cls-4" d="M2582.6,642.3v-14.6h-5v-3.1h5v-3.9c0-1.1.3-1.9,1-2.6.6-.6,1.5-1,2.6-1h4.6v3.1h-3.4c-.7,0-1,.4-1,1.1v3.2h5.1v3.1h-5.1v14.6h-3.7Z"/>
      <path class="cls-4" d="M2601.3,642.3c-1.1,0-1.9-.3-2.6-1-.6-.6-1-1.5-1-2.6v-11.1h-4.9v-3.1h4.9v-5.9h3.7v5.9h5.3v3.1h-5.3v10.4c0,.7.3,1.1,1,1.1h3.7v3.1h-4.9Z"/>
      <path class="cls-4" d="M2616.7,642.8c-1.3,0-2.4-.2-3.4-.6-1-.4-1.8-1.1-2.4-1.9-.6-.8-.9-1.9-.9-3.1s.3-2.2.9-3c.6-.8,1.4-1.4,2.4-1.8,1-.4,2.2-.6,3.5-.6h5.4v-1.2c0-1-.3-1.9-.9-2.5-.6-.6-1.6-.9-2.9-.9s-2.2.3-2.9.9c-.7.6-1.1,1.4-1.3,2.3l-3.5-1.1c.3-1,.8-1.8,1.4-2.6s1.5-1.4,2.5-1.9c1.1-.5,2.3-.7,3.8-.7,2.3,0,4.1.6,5.4,1.8,1.3,1.2,2,2.8,2,5v7.3c0,.7.3,1.1,1,1.1h1.5v3.1h-2.8c-.8,0-1.5-.2-2.1-.6-.5-.4-.8-1-.8-1.8h0c0-.1-.5-.1-.5-.1-.2.4-.5.8-.9,1.3s-.9.9-1.7,1.2c-.7.3-1.7.5-3,.5ZM2617.2,639.7c1.5,0,2.7-.4,3.6-1.3.9-.9,1.4-2,1.4-3.5v-.4h-5.2c-1,0-1.8.2-2.4.6-.6.4-.9,1-.9,1.9s.3,1.5.9,1.9c.6.5,1.5.7,2.6.7Z"/>
      <path class="cls-4" d="M2638.8,642.6c-1.3,0-2.5-.3-3.6-.9-1.1-.6-1.9-1.5-2.5-2.6-.6-1.1-.9-2.4-.9-4v-10.7h3.7v10.4c0,1.5.4,2.7,1.2,3.4.8.7,1.8,1.1,3.2,1.1s2.7-.5,3.7-1.5c.9-1,1.4-2.5,1.4-4.4v-9h3.7v17.7h-3.6v-2.7h-.6c-.3.7-.9,1.4-1.8,2-.9.6-2.1,1-3.8,1Z"/>
      <path class="cls-4" d="M2662.2,642.8c-1.8,0-3.4-.4-4.7-1.1-1.3-.8-2.4-1.8-3.1-3.2s-1.1-3-1.1-4.8v-.4c0-1.8.4-3.5,1.1-4.8.7-1.4,1.8-2.4,3.1-3.2s2.9-1.1,4.6-1.1,3.2.4,4.5,1.1c1.3.8,2.3,1.8,3,3.2.7,1.3,1.1,2.9,1.1,4.7v1.4h-13.6c0,1.6.6,2.8,1.6,3.7,1,.9,2.2,1.4,3.7,1.4s2.4-.3,3.1-.9c.7-.6,1.3-1.3,1.6-2.2l3.1,1.6c-.3.7-.8,1.4-1.5,2.1-.6.7-1.5,1.4-2.5,1.9-1,.5-2.4.8-4,.8ZM2657,631.6h9.8c0-1.3-.6-2.4-1.4-3.1-.9-.8-2-1.1-3.4-1.1s-2.5.4-3.4,1.1c-.9.8-1.4,1.8-1.6,3.1Z"/>
      <path class="cls-4" d="M2675.1,642.3v-17.7h3.6v2.7h.6c.3-.7.9-1.4,1.8-2,.9-.6,2.1-.9,3.9-.9s2.5.3,3.6.9c1,.6,1.9,1.4,2.5,2.5.6,1.1.9,2.4.9,3.9v10.7h-3.7v-10.4c0-1.5-.4-2.7-1.2-3.4-.8-.7-1.8-1.1-3.2-1.1s-2.8.5-3.7,1.5c-.9,1-1.4,2.5-1.4,4.4v9h-3.7Z"/>
      <path class="cls-4" d="M2699.4,642.8c-.8,0-1.5-.3-2.1-.8-.6-.6-.8-1.3-.8-2.1s.3-1.6.8-2.1c.6-.5,1.3-.8,2.1-.8s1.5.3,2.1.8c.6.6.8,1.2.8,2.1s-.3,1.6-.8,2.1-1.3.8-2.1.8Z"/>
    </g>
  </g>
</svg>