<?xml version="1.0" encoding="UTF-8"?>
<svg xmlns="http://www.w3.org/2000/svg" version="1.1" viewBox="0 0 3840 2160">
  <defs>
    <style>
      .cls-1 {
        stroke-dasharray: 0 0 17 17;
        stroke-width: 3.5px;
      }

      .cls-1, .cls-2 {
        fill: none;
        stroke: #fff;
        stroke-miterlimit: 10;
      }

      .cls-3 {
        fill: #fff;
        stroke-width: 0px;
      }

      .cls-2 {
        stroke-width: 2.8px;
      }
    </style>
  </defs>
  <g id="Kontur">
    <polyline class="cls-1" points="2754.3 322.7 2741.6 337.1 2714.2 341.8 2694.5 361.6 2677.7 382.5 2658.3 411.6 2632 442.5 2604.7 452 2583.2 477.9 2556.7 479.3 2545.5 493.2 2511.6 506.1 2470.4 537.1 2448.6 558.6 2436.8 574.8 2424.4 574.8 2396.5 596.6 2381.7 595.1 2360.8 598.9 2334.3 611.6 2307.8 641.3 2271.6 672.8 2251.6 708.2 2210.7 761.2 2185 811.5 2152.6 845.7 2138.8 866.3 2129.7 912.2 2137.3 948.2 2121.7 973.2 2099.6 1013.8 2075.8 1036.8 2039.9 1051.8 2001.9 1045.6 1978 1083.9 2004.8 1103.1 2014.2 1139.3 1988.3 1172.3 1996.3 1198.8 1967.7 1229.7 1969.5 1251.5 1983.1 1300.8 2001.6 1353.6 1988.2 1411 1947.1 1445.5 1938.3 1445.5 1920 1455.2 1917.5 1462.2 1889 1471.1 1836 1504.7 1777.5 1522.1 1650.9 1566.3 1561.9 1585.3 1491.9 1579.1 1429.4 1561.6 1389.4 1533.6 1378.2 1533.6 1354.5 1511.9 1346.4 1489.6 1352.8 1478.6 1348.3 1461.4 1336 1428.9 1324.5 1375.2 1320.7 1322.4 1324.3 1276.1 1330.9 1214.2 1341.7 1161.2 1363.4 1113.5 1378.6 1051.2 1402.5 970.3 1405 956.2 1428.4 941.5 1452.7 932.2 1487.9 912.5 1521.8 904.1 1549.5 909.4 1569.8 923.5 1576.9 945.3 1590.4 946.8 1602 938.6 1624.6 936.2 1635.2 932.1 1650 934.8 1672 919.7 1713.6 916.5 1732.4 923 1747.1 943.6 1757.7 947.4 1785.4 940.7 1799.3 928.3 1816.3 935.9 1839.3 926.5 1854.6 926.2 1858.5 910.3 1874.1 895.6 1892 889.1 1905 869.1 1896.4 851.1 1914.1 824 1934.1 814.6 1949.2 789 1969.2 766.3 1993 751.9 2023.1 726 2058.7 713.3 2074.3 703 2082.3 693.9 2098.5 693.3 2104.9 685.9 2125.8 687.1 2140.9 672.1 2164.4 661.2 2187.4 643.2 2212.4 624.4 2238.9 607.6 2255.7 598.2 2278.4 582.9 2294.3 571.4 2314.6 569.9 2332.3 553.7 2368.2 549 2396.2 546 2429.4 524.8 2458 502.8 2480.1 486 2508.4 470.1 2528.1 466.5 2536.9 456.2 2557.3 453.9 2571.1 456.2 2588.2 440.3 2602.9 431.8 2620 422.4 2638.8 403.2 2654.4 395.9 2660 378.5 2681.2 355.2 2699.8 332 2719.8 330.8 2745.4 320.5 2754.3 306.6"/>
  </g>
  <g id="Beschriftung">
    <line class="cls-2" x1="2328.8" y1="1200.1" x2="2114.9" y2="986.3"/>
    <g>
      <path class="cls-3" d="M2340.4,1236.1v-4.2h3.3v-16.8h-3.3v-4.2h13c1.5,0,2.9.3,4,.8,1.1.5,2,1.2,2.7,2.2.6.9,1,2.1,1,3.4v.4c0,1.2-.2,2.1-.6,2.8s-.9,1.3-1.5,1.7c-.6.4-1.1.7-1.7.8v.6c.5.1,1.1.4,1.7.8.6.4,1.2,1,1.6,1.7s.7,1.7.7,2.9v.4c0,1.4-.3,2.6-1,3.6-.6,1-1.5,1.8-2.7,2.3-1.1.5-2.5.8-4,.8h-13.1ZM2348.5,1221.3h4.4c1,0,1.8-.3,2.4-.8.6-.5,1-1.2,1-2.1v-.4c0-.9-.3-1.6-.9-2.1s-1.4-.7-2.4-.7h-4.4v6ZM2348.5,1231.8h4.5c1,0,1.9-.3,2.5-.8.6-.5,1-1.2,1-2.2v-.4c0-.9-.3-1.7-.9-2.2s-1.5-.8-2.5-.8h-4.5v6.2Z"/>
      <path class="cls-3" d="M2370.7,1236.6c-1.3,0-2.4-.2-3.4-.7-1-.4-1.8-1.1-2.4-1.9-.6-.9-.9-1.9-.9-3.1s.3-2.2.9-3.1,1.4-1.5,2.4-1.9c1-.4,2.2-.6,3.6-.6h4.9v-1c0-.8-.3-1.5-.8-2.1-.5-.5-1.4-.8-2.5-.8s-2,.3-2.5.8c-.6.5-.9,1.2-1.1,2l-4.2-1.4c.3-.9.8-1.7,1.4-2.5.6-.8,1.5-1.4,2.6-1.8s2.4-.7,3.9-.7c2.4,0,4.2.6,5.6,1.8s2.1,2.9,2.1,5.1v6.7c0,.7.3,1.1,1,1.1h1.4v3.7h-3c-.9,0-1.6-.2-2.2-.6-.6-.4-.9-1-.9-1.7h0s-.7,0-.7,0c0,.3-.3.7-.6,1.1-.3.5-.9.9-1.6,1.2s-1.7.5-3,.5ZM2371.5,1233c1.3,0,2.3-.4,3.1-1.1.8-.7,1.2-1.6,1.2-2.8v-.4h-4.6c-.8,0-1.5.2-2,.5-.5.4-.7.9-.7,1.5s.3,1.2.8,1.6c.5.4,1.2.6,2.2.6Z"/>
      <path class="cls-3" d="M2392.8,1236.1c-1.2,0-2.1-.4-2.9-1.1-.7-.7-1.1-1.7-1.1-2.9v-10.1h-4.5v-3.7h4.5v-5.5h4.5v5.5h4.9v3.7h-4.9v9.3c0,.7.3,1.1,1,1.1h3.5v3.7h-5Z"/>
      <path class="cls-3" d="M2407.9,1236.6c-1.3,0-2.4-.2-3.4-.7-1-.4-1.8-1.1-2.4-1.9-.6-.9-.9-1.9-.9-3.1s.3-2.2.9-3.1c.6-.8,1.4-1.5,2.4-1.9,1-.4,2.2-.6,3.6-.6h4.9v-1c0-.8-.3-1.5-.8-2.1-.5-.5-1.4-.8-2.5-.8s-2,.3-2.5.8c-.6.5-.9,1.2-1.1,2l-4.2-1.4c.3-.9.8-1.7,1.4-2.5s1.5-1.4,2.6-1.8,2.4-.7,3.9-.7c2.4,0,4.2.6,5.6,1.8,1.4,1.2,2.1,2.9,2.1,5.1v6.7c0,.7.3,1.1,1,1.1h1.4v3.7h-3c-.9,0-1.6-.2-2.2-.6-.6-.4-.9-1-.9-1.7h0s-.7,0-.7,0c0,.3-.3.7-.6,1.1-.3.5-.9.9-1.6,1.2-.7.4-1.7.5-3,.5ZM2408.7,1233c1.3,0,2.3-.4,3.1-1.1.8-.7,1.2-1.6,1.2-2.8v-.4h-4.6c-.8,0-1.5.2-2,.5s-.7.9-.7,1.5.3,1.2.8,1.6c.5.4,1.2.6,2.2.6Z"/>
      <path class="cls-3" d="M2422.3,1227.3v-.6c0-1.9.4-3.5,1.1-4.8.7-1.3,1.7-2.4,3-3.1s2.6-1.1,4.1-1.1,2.9.3,3.7.9,1.5,1.2,1.8,1.8h.6v-2.2h4.5v21c0,1.2-.4,2.2-1.1,2.9-.7.7-1.7,1.1-2.9,1.1h-12v-4h10.4c.7,0,1-.4,1-1.1v-4.6h-.6c-.2.4-.6.8-1,1.2-.4.4-1,.7-1.7,1-.7.3-1.6.4-2.7.4s-2.8-.4-4.1-1.1c-1.2-.7-2.2-1.7-3-3.1-.7-1.3-1.1-2.9-1.1-4.8ZM2431.8,1232.2c1.4,0,2.6-.4,3.5-1.3.9-.9,1.4-2.1,1.4-3.7v-.4c0-1.6-.5-2.9-1.4-3.8-.9-.9-2.1-1.3-3.5-1.3s-2.6.4-3.5,1.3-1.4,2.1-1.4,3.8v.4c0,1.6.5,2.9,1.4,3.7s2.1,1.3,3.5,1.3Z"/>
      <path class="cls-3" d="M2451.7,1236.6c-1.3,0-2.4-.2-3.4-.7-1-.4-1.8-1.1-2.4-1.9-.6-.9-.9-1.9-.9-3.1s.3-2.2.9-3.1c.6-.8,1.4-1.5,2.4-1.9,1-.4,2.2-.6,3.6-.6h4.9v-1c0-.8-.3-1.5-.8-2.1s-1.4-.8-2.5-.8-2,.3-2.5.8c-.6.5-.9,1.2-1.1,2l-4.2-1.4c.3-.9.8-1.7,1.4-2.5.6-.8,1.5-1.4,2.6-1.8,1.1-.5,2.4-.7,3.9-.7,2.4,0,4.2.6,5.6,1.8,1.4,1.2,2.1,2.9,2.1,5.1v6.7c0,.7.3,1.1,1,1.1h1.4v3.7h-3c-.9,0-1.6-.2-2.2-.6-.6-.4-.9-1-.9-1.7h0s-.7,0-.7,0c0,.3-.3.7-.6,1.1-.3.5-.9.9-1.6,1.2-.7.4-1.7.5-3,.5ZM2452.5,1233c1.3,0,2.3-.4,3.1-1.1.8-.7,1.2-1.6,1.2-2.8v-.4h-4.6c-.8,0-1.5.2-2,.5s-.7.9-.7,1.5.3,1.2.8,1.6c.5.4,1.2.6,2.2.6Z"/>
      <path class="cls-3" d="M2469.2,1216.2c-.8,0-1.5-.3-2.1-.8-.6-.5-.8-1.2-.8-2.1s.3-1.6.8-2.1c.6-.5,1.3-.8,2.1-.8s1.5.3,2.1.8c.6.5.8,1.2.8,2.1s-.3,1.6-.8,2.1c-.6.5-1.2.8-2.1.8ZM2467,1236.1v-17.9h4.5v17.9h-4.5Z"/>
      <path class="cls-3" d="M2476.6,1236.1v-25.2h4.5v13.9h.6l5.9-6.6h5.9l-8.2,8.6,8.5,9.2h-5.8l-6.3-7.1h-.6v7.1h-4.5Z"/>
      <path class="cls-3" d="M2502.4,1236.6c-1.3,0-2.4-.2-3.4-.7-1-.4-1.8-1.1-2.4-1.9-.6-.9-.9-1.9-.9-3.1s.3-2.2.9-3.1,1.4-1.5,2.4-1.9c1-.4,2.2-.6,3.6-.6h4.9v-1c0-.8-.3-1.5-.8-2.1-.5-.5-1.4-.8-2.5-.8s-2,.3-2.5.8c-.6.5-.9,1.2-1.1,2l-4.2-1.4c.3-.9.8-1.7,1.4-2.5.6-.8,1.5-1.4,2.6-1.8s2.4-.7,3.9-.7c2.4,0,4.2.6,5.6,1.8s2.1,2.9,2.1,5.1v6.7c0,.7.3,1.1,1,1.1h1.4v3.7h-3c-.9,0-1.6-.2-2.2-.6-.6-.4-.9-1-.9-1.7h0s-.7,0-.7,0c0,.3-.3.7-.6,1.1-.3.5-.9.9-1.6,1.2s-1.7.5-3,.5ZM2503.2,1233c1.3,0,2.3-.4,3.1-1.1.8-.7,1.2-1.6,1.2-2.8v-.4h-4.6c-.8,0-1.5.2-2,.5-.5.4-.7.9-.7,1.5s.3,1.2.8,1.6c.5.4,1.2.6,2.2.6Z"/>
      <path class="cls-3" d="M2517.6,1229v-4.1h10.7v4.1h-10.7Z"/>
      <path class="cls-3" d="M2533.1,1236.1v-25.2h4.8v10h.6l8.2-10h6.1l-10.5,12.4,10.9,12.8h-6.3l-8.4-10.2h-.6v10.2h-4.8Z"/>
      <path class="cls-3" d="M2555.8,1236.1v-17.9h4.5v2h.6c.3-.7.7-1.2,1.3-1.6.6-.3,1.3-.5,2.1-.5h2.2v4h-2.2c-1.2,0-2.1.3-2.8.9-.7.6-1.1,1.6-1.1,2.8v10.2h-4.5Z"/>
      <path class="cls-3" d="M2575.6,1236.6c-1.3,0-2.4-.2-3.4-.7-1-.4-1.8-1.1-2.4-1.9-.6-.9-.9-1.9-.9-3.1s.3-2.2.9-3.1c.6-.8,1.4-1.5,2.4-1.9,1-.4,2.2-.6,3.6-.6h4.9v-1c0-.8-.3-1.5-.8-2.1s-1.4-.8-2.5-.8-2,.3-2.5.8c-.6.5-.9,1.2-1.1,2l-4.2-1.4c.3-.9.8-1.7,1.4-2.5.6-.8,1.5-1.4,2.6-1.8,1.1-.5,2.4-.7,3.9-.7,2.4,0,4.2.6,5.6,1.8,1.4,1.2,2.1,2.9,2.1,5.1v6.7c0,.7.3,1.1,1,1.1h1.4v3.7h-3c-.9,0-1.6-.2-2.2-.6-.6-.4-.9-1-.9-1.7h0s-.7,0-.7,0c0,.3-.3.7-.6,1.1-.3.5-.9.9-1.6,1.2-.7.4-1.7.5-3,.5ZM2576.3,1233c1.3,0,2.3-.4,3.1-1.1.8-.7,1.2-1.6,1.2-2.8v-.4h-4.6c-.8,0-1.5.2-2,.5s-.7.9-.7,1.5.3,1.2.8,1.6c.5.4,1.2.6,2.2.6Z"/>
      <path class="cls-3" d="M2597.7,1236.1c-1.2,0-2.1-.4-2.9-1.1s-1.1-1.7-1.1-2.9v-10.1h-4.5v-3.7h4.5v-5.5h4.5v5.5h4.9v3.7h-4.9v9.3c0,.7.3,1.1,1,1.1h3.5v3.7h-5Z"/>
      <path class="cls-3" d="M2615.4,1236.6c-1.8,0-3.3-.4-4.7-1.1s-2.4-1.8-3.2-3.2-1.1-3-1.1-4.9v-.4c0-1.9.4-3.5,1.1-4.9.7-1.4,1.8-2.4,3.1-3.2,1.3-.8,2.9-1.1,4.7-1.1s3.3.4,4.6,1.2c1.3.8,2.3,1.9,3,3.2.7,1.4,1.1,3,1.1,4.8v1.5h-13c0,1.2.5,2.2,1.4,3,.9.8,1.9,1.2,3.2,1.2s2.2-.3,2.8-.8c.6-.6,1.1-1.2,1.4-1.8l3.7,1.9c-.3.6-.8,1.3-1.5,2s-1.5,1.4-2.5,1.9c-1.1.5-2.4.8-4,.8ZM2611,1225.2h8.4c0-1-.5-1.9-1.2-2.5-.7-.6-1.7-.9-2.9-.9s-2.2.3-2.9.9c-.7.6-1.2,1.5-1.3,2.5Z"/>
      <path class="cls-3" d="M2628,1236.1v-17.9h4.5v2h.6c.3-.7.7-1.2,1.3-1.6.6-.3,1.3-.5,2.1-.5h2.2v4h-2.2c-1.2,0-2.1.3-2.8.9-.7.6-1.1,1.6-1.1,2.8v10.2h-4.5Z"/>
      <path class="cls-3" d="M2376.9,1279.3v-25.2h10.2c1.6,0,2.9.3,4.1.8,1.2.5,2.1,1.3,2.8,2.3s1,2.2,1,3.6v.4c0,1.7-.4,3-1.2,3.9s-1.7,1.6-2.8,1.9v.5c.9,0,1.6.3,2.1.8s.8,1.3.8,2.4v8.5h-3v-8.1c0-.7-.2-1.3-.6-1.7-.4-.4-1-.6-1.8-.6h-8.7v10.3h-3ZM2379.9,1266.3h6.9c1.7,0,2.9-.4,3.8-1.2.9-.8,1.3-1.9,1.3-3.4v-.3c0-1.4-.4-2.6-1.3-3.4-.9-.8-2.2-1.2-3.9-1.2h-6.9v9.4Z"/>
      <path class="cls-3" d="M2407.8,1279.8c-1.8,0-3.3-.4-4.7-1.1-1.3-.8-2.4-1.8-3.1-3.2-.7-1.4-1.1-3-1.1-4.8v-.4c0-1.8.4-3.4,1.1-4.8.7-1.4,1.8-2.4,3.1-3.2,1.3-.8,2.8-1.1,4.5-1.1s3.1.4,4.4,1.1,2.3,1.7,3,3c.7,1.3,1.1,2.9,1.1,4.6v1.3h-14.4c0,1.9.7,3.4,1.8,4.4,1.2,1.1,2.6,1.6,4.3,1.6s2.7-.3,3.5-1c.8-.7,1.4-1.5,1.9-2.5l2.4,1.2c-.4.7-.9,1.5-1.5,2.2-.6.7-1.5,1.4-2.5,1.9s-2.3.8-3.9.8ZM2401.7,1268.9h11.4c0-1.6-.7-2.9-1.7-3.8-1-.9-2.3-1.4-3.9-1.4s-2.9.5-4,1.4c-1,.9-1.7,2.2-1.9,3.8Z"/>
      <path class="cls-3" d="M2421,1286.5v-24.8h2.8v2.9h.5c.5-.9,1.2-1.7,2.2-2.4,1-.7,2.4-1,4.3-1s2.9.4,4.2,1.1c1.3.7,2.3,1.8,3,3.1.8,1.3,1.1,3,1.1,4.9v.5c0,1.9-.4,3.5-1.1,4.9s-1.7,2.4-3,3.1-2.7,1.1-4.2,1.1-2.3-.2-3.1-.5c-.9-.3-1.5-.7-2.1-1.2-.5-.5-.9-1-1.2-1.5h-.5v10h-2.8ZM2430,1277.3c1.8,0,3.3-.6,4.4-1.7,1.1-1.2,1.7-2.8,1.7-4.9v-.3c0-2.1-.6-3.7-1.7-4.9-1.1-1.2-2.6-1.7-4.4-1.7s-3.3.6-4.4,1.7-1.7,2.8-1.7,4.9v.3c0,2.1.6,3.7,1.7,4.9s2.6,1.7,4.4,1.7Z"/>
      <path class="cls-3" d="M2451,1279.7c-1.3,0-2.4-.3-3.5-.8s-1.9-1.4-2.5-2.5-.9-2.4-.9-4v-10.7h2.8v10.4c0,1.8.4,3,1.3,3.8.9.8,2.1,1.2,3.5,1.2s3.1-.6,4.1-1.7c1.1-1.1,1.6-2.7,1.6-4.9v-8.9h2.8v17.6h-2.8v-3h-.5c-.4.8-1,1.6-2,2.3-.9.7-2.3,1-4.1,1Z"/>
      <path class="cls-3" d="M2476,1279.8c-1.8,0-3.2-.3-4.3-1-1-.7-1.8-1.5-2.2-2.4h-.5v2.9h-2.8v-25.2h2.8v10.4h.5c.3-.6.7-1.1,1.2-1.6.5-.5,1.2-.9,2.1-1.2.9-.3,1.9-.5,3.1-.5s2.9.4,4.2,1.1c1.3.7,2.3,1.8,3,3.1.7,1.4,1.1,3,1.1,4.8v.5c0,1.9-.4,3.5-1.1,4.9-.8,1.4-1.8,2.4-3,3.1s-2.6,1.1-4.2,1.1ZM2475.3,1277.3c1.8,0,3.3-.6,4.4-1.7s1.7-2.8,1.7-4.9v-.3c0-2.1-.6-3.7-1.7-4.9s-2.6-1.7-4.4-1.7-3.3.6-4.4,1.7c-1.2,1.2-1.7,2.8-1.7,4.9v.3c0,2.1.6,3.7,1.7,4.9,1.2,1.2,2.6,1.7,4.4,1.7Z"/>
      <path class="cls-3" d="M2489.4,1279.3v-25.2h2.8v25.2h-2.8Z"/>
      <path class="cls-3" d="M2499.7,1259c-.6,0-1.1-.2-1.6-.6-.4-.4-.6-.9-.6-1.5s.2-1.2.6-1.6.9-.6,1.6-.6,1.1.2,1.5.6.6.9.6,1.6-.2,1.1-.6,1.5c-.4.4-.9.6-1.5.6ZM2498.3,1279.3v-17.6h2.8v17.6h-2.8Z"/>
      <path class="cls-3" d="M2507.1,1279.3v-25.2h2.8v14.8h.5l8.1-7.2h4l-9.8,8.6,10,9h-3.9l-8.4-7.7h-.5v7.7h-2.8Z"/>
      <path class="cls-3" d="M2543.9,1279.8c-1.8,0-3.5-.3-4.9-1-1.4-.6-2.6-1.6-3.4-2.9-.8-1.3-1.2-2.9-1.2-4.9v-.8h3v.8c0,2.1.6,3.6,1.8,4.7,1.2,1,2.8,1.5,4.7,1.5s3.5-.4,4.5-1.3c1-.9,1.5-2,1.5-3.3s-.2-1.7-.7-2.2c-.5-.6-1.1-1-2-1.3-.8-.3-1.8-.7-3-.9l-1.9-.5c-1.5-.4-2.8-.9-3.9-1.4-1.1-.6-2-1.3-2.6-2.2-.6-.9-1-2.1-1-3.5s.4-2.6,1.1-3.7c.7-1,1.7-1.8,3-2.4,1.3-.6,2.8-.8,4.4-.8s3.2.3,4.6.9c1.4.6,2.4,1.5,3.2,2.6.8,1.1,1.2,2.6,1.2,4.3v1.5h-3v-1.5c0-1.2-.3-2.2-.8-3s-1.2-1.3-2.1-1.7c-.9-.4-1.9-.5-3.1-.5-1.7,0-3,.4-4,1.1-1,.7-1.5,1.8-1.5,3.1s.2,1.6.6,2.2c.4.6,1,1,1.8,1.4s1.7.7,2.8.9l1.9.5c1.5.3,2.8.7,3.9,1.3,1.2.5,2.1,1.3,2.8,2.2.7.9,1,2.1,1,3.6s-.4,2.8-1.1,3.9c-.7,1.1-1.8,2-3.2,2.6s-2.9.9-4.8.9Z"/>
      <path class="cls-3" d="M2563.1,1279.8c-1.2,0-2.3-.2-3.3-.6-1-.4-1.8-1.1-2.4-1.9-.6-.8-.9-1.8-.9-3s.3-2.2.9-3,1.4-1.4,2.4-1.8c1-.4,2.1-.6,3.4-.6h5.9v-1.3c0-1.2-.4-2.2-1.1-3-.7-.7-1.8-1.1-3.3-1.1s-2.5.3-3.3,1c-.8.7-1.3,1.6-1.6,2.8l-2.7-.9c.3-1,.7-1.9,1.4-2.7s1.5-1.5,2.5-1.9c1-.5,2.3-.7,3.8-.7,2.3,0,4,.6,5.3,1.7,1.2,1.2,1.9,2.8,1.9,4.9v8c0,.7.3,1.1,1,1.1h1.6v2.4h-2.5c-.8,0-1.4-.2-1.9-.7-.5-.4-.7-1-.7-1.8v-.2h-.4c-.3.5-.6.9-1.1,1.4-.4.5-1,.9-1.8,1.2-.8.3-1.8.5-3,.5ZM2563.5,1277.4c1.7,0,3-.5,4.1-1.5,1-1,1.6-2.4,1.6-4.2v-.4h-5.8c-1.1,0-2.1.2-2.8.7-.7.5-1.1,1.2-1.1,2.2s.4,1.8,1.1,2.3c.8.6,1.7.8,2.9.8Z"/>
      <path class="cls-3" d="M2586.5,1279.8c-1.7,0-3.2-.4-4.6-1.1-1.4-.7-2.4-1.8-3.2-3.2-.8-1.4-1.2-3-1.2-4.9v-.4c0-1.9.4-3.5,1.2-4.9.8-1.4,1.8-2.4,3.2-3.1,1.4-.7,2.9-1.1,4.6-1.1s3.1.3,4.3.9,2.1,1.5,2.8,2.5c.7,1,1.1,2.1,1.3,3.3l-2.8.6c-.1-.9-.4-1.7-.8-2.4-.4-.7-1.1-1.3-1.9-1.7-.8-.4-1.8-.6-2.9-.6s-2.2.3-3.1.8c-.9.5-1.7,1.3-2.2,2.3-.5,1-.8,2.2-.8,3.5v.3c0,1.4.3,2.5.8,3.5.5,1,1.3,1.7,2.2,2.3.9.5,2,.8,3.1.8,1.8,0,3.1-.5,4-1.4.9-.9,1.5-2,1.7-3.4l2.8.6c-.3,1.2-.7,2.2-1.4,3.3-.7,1-1.6,1.9-2.8,2.5-1.2.6-2.6.9-4.3.9Z"/>
      <path class="cls-3" d="M2600,1279.3v-25.2h2.8v10.4h.5c.2-.5.6-1,1.1-1.5s1.1-.9,1.9-1.2c.8-.3,1.8-.5,3-.5s2.5.3,3.5.8c1,.6,1.9,1.4,2.5,2.4.6,1.1.9,2.4.9,4v10.7h-2.8v-10.4c0-1.8-.4-3-1.3-3.8-.9-.8-2.1-1.2-3.5-1.2s-3.1.6-4.2,1.7c-1.1,1.1-1.6,2.7-1.6,4.9v8.9h-2.8Z"/>
      <path class="cls-3" d="M2627.4,1279.8c-1.2,0-2.3-.2-3.3-.6-1-.4-1.8-1.1-2.4-1.9-.6-.8-.9-1.8-.9-3s.3-2.2.9-3,1.4-1.4,2.4-1.8c1-.4,2.1-.6,3.4-.6h5.9v-1.3c0-1.2-.4-2.2-1.1-3-.7-.7-1.8-1.1-3.3-1.1s-2.5.3-3.3,1c-.8.7-1.3,1.6-1.6,2.8l-2.7-.9c.3-1,.7-1.9,1.4-2.7.6-.8,1.5-1.5,2.5-1.9,1-.5,2.3-.7,3.8-.7,2.3,0,4,.6,5.3,1.7,1.2,1.2,1.9,2.8,1.9,4.9v8c0,.7.3,1.1,1,1.1h1.6v2.4h-2.5c-.8,0-1.4-.2-1.9-.7-.5-.4-.7-1-.7-1.8v-.2h-.4c-.3.5-.6.9-1.1,1.4-.4.5-1.1.9-1.8,1.2-.8.3-1.8.5-3,.5ZM2627.8,1277.4c1.7,0,3-.5,4.1-1.5,1-1,1.6-2.4,1.6-4.2v-.4h-5.8c-1.1,0-2.1.2-2.8.7-.7.5-1.1,1.2-1.1,2.2s.4,1.8,1.1,2.3c.8.6,1.7.8,2.9.8Z"/>
      <path class="cls-3" d="M2485.2,1322.5v-25.2h10.2c1.6,0,2.9.3,4.1.8s2.1,1.3,2.8,2.3,1,2.2,1,3.6v.4c0,1.7-.4,3-1.2,3.9-.8,1-1.7,1.6-2.8,1.9v.5c.9,0,1.6.3,2.1.8.6.5.8,1.3.8,2.4v8.5h-3v-8.1c0-.7-.2-1.3-.6-1.7s-1-.6-1.8-.6h-8.7v10.3h-3ZM2488.2,1309.5h6.9c1.7,0,2.9-.4,3.8-1.2.9-.8,1.4-1.9,1.4-3.4v-.3c0-1.4-.4-2.6-1.3-3.4-.9-.8-2.2-1.2-3.9-1.2h-6.9v9.4Z"/>
      <path class="cls-3" d="M2514.7,1322.9c-1.3,0-2.4-.3-3.5-.8s-1.9-1.4-2.5-2.5-.9-2.4-.9-4v-10.7h2.8v10.4c0,1.8.4,3,1.3,3.8.9.8,2.1,1.2,3.5,1.2s3.1-.6,4.1-1.7c1.1-1.1,1.6-2.7,1.6-4.9v-8.9h2.8v17.6h-2.8v-3h-.5c-.4.8-1,1.6-2,2.3-.9.7-2.3,1-4.1,1Z"/>
      <path class="cls-3" d="M2537.1,1323c-2.2,0-4-.5-5.5-1.5s-2.4-2.6-2.7-4.8l2.7-.6c.2,1.2.6,2.1,1.1,2.7.5.7,1.2,1.1,2,1.4.8.3,1.6.4,2.5.4,1.3,0,2.4-.3,3.1-.8.8-.5,1.2-1.2,1.2-2.1s-.4-1.6-1.1-1.9c-.7-.4-1.7-.7-3-.9l-1.5-.3c-1.1-.2-2.2-.5-3.1-.9-.9-.4-1.7-1-2.2-1.7-.6-.7-.8-1.6-.8-2.6,0-1.6.6-2.8,1.8-3.7,1.2-.9,2.8-1.3,4.9-1.3s3.6.5,4.8,1.4c1.2.9,2,2.2,2.4,3.8l-2.7.7c-.2-1.3-.7-2.2-1.5-2.7-.8-.5-1.8-.8-3-.8s-2.1.2-2.8.7c-.7.4-1,1.1-1,2s.3,1.5,1,1.9,1.5.7,2.6.9l1.5.3c1.2.2,2.4.5,3.4.9,1,.4,1.8.9,2.4,1.6.6.7.9,1.6.9,2.7,0,1.7-.6,3.1-1.9,4-1.3.9-3,1.4-5.2,1.4Z"/>
      <path class="cls-3" d="M2556.1,1323c-2.2,0-4-.5-5.5-1.5-1.5-1-2.4-2.6-2.7-4.8l2.7-.6c.2,1.2.6,2.1,1.1,2.7.5.7,1.2,1.1,2,1.4.8.3,1.6.4,2.5.4,1.3,0,2.4-.3,3.1-.8.8-.5,1.2-1.2,1.2-2.1s-.4-1.6-1.1-1.9-1.7-.7-3-.9l-1.5-.3c-1.1-.2-2.2-.5-3.1-.9-.9-.4-1.7-1-2.2-1.7-.6-.7-.8-1.6-.8-2.6,0-1.6.6-2.8,1.8-3.7,1.2-.9,2.8-1.3,4.9-1.3s3.6.5,4.8,1.4c1.2.9,2,2.2,2.4,3.8l-2.7.7c-.2-1.3-.7-2.2-1.5-2.7-.8-.5-1.8-.8-3-.8s-2.1.2-2.8.7c-.7.4-1,1.1-1,2s.3,1.5,1,1.9,1.5.7,2.6.9l1.5.3c1.2.2,2.4.5,3.4.9,1,.4,1.8.9,2.4,1.6s.9,1.6.9,2.7c0,1.7-.6,3.1-1.9,4-1.3.9-3,1.4-5.2,1.4Z"/>
      <path class="cls-3" d="M2568,1322.5v-25.2h2.8v25.2h-2.8Z"/>
      <path class="cls-3" d="M2582.2,1323c-1.2,0-2.3-.2-3.3-.6-1-.4-1.8-1.1-2.4-1.9-.6-.8-.9-1.8-.9-3s.3-2.2.9-3,1.4-1.4,2.4-1.8c1-.4,2.1-.6,3.4-.6h5.9v-1.3c0-1.2-.4-2.2-1.1-3s-1.8-1.1-3.3-1.1-2.5.3-3.3,1c-.8.7-1.3,1.6-1.6,2.8l-2.7-.9c.3-1,.7-1.9,1.4-2.7.6-.8,1.5-1.5,2.5-1.9,1-.5,2.3-.7,3.8-.7,2.3,0,4,.6,5.3,1.7,1.2,1.2,1.9,2.8,1.9,4.9v8c0,.7.3,1.1,1,1.1h1.6v2.4h-2.5c-.8,0-1.4-.2-1.9-.7-.5-.4-.7-1-.7-1.8v-.2h-.4c-.3.5-.6.9-1.1,1.4-.4.5-1,.9-1.8,1.2-.8.3-1.8.5-3,.5ZM2582.5,1320.6c1.7,0,3-.5,4.1-1.5,1-1,1.6-2.4,1.6-4.2v-.4h-5.8c-1.1,0-2.1.2-2.8.7-.7.5-1.1,1.2-1.1,2.2s.4,1.8,1.1,2.3c.8.6,1.7.8,2.9.8Z"/>
      <path class="cls-3" d="M2597.5,1322.5v-17.6h2.8v3h.5c.4-.8,1-1.6,2-2.3.9-.7,2.3-1,4.1-1s2.5.3,3.5.8,1.9,1.4,2.5,2.4.9,2.4.9,4v10.7h-2.8v-10.4c0-1.8-.4-3-1.3-3.8-.9-.8-2.1-1.2-3.5-1.2s-3.1.6-4.2,1.7c-1.1,1.1-1.6,2.7-1.6,4.9v8.9h-2.8Z"/>
      <path class="cls-3" d="M2627,1323c-1.5,0-2.9-.4-4.2-1.1s-2.3-1.8-3-3.1c-.7-1.4-1.1-3-1.1-4.9v-.5c0-1.9.4-3.5,1.1-4.8.7-1.4,1.7-2.4,3-3.1s2.7-1.1,4.2-1.1,2.3.2,3.1.5c.9.3,1.5.7,2.1,1.2.5.5.9,1,1.2,1.6h.5v-10.4h2.8v25.2h-2.8v-2.9h-.5c-.5.9-1.2,1.7-2.2,2.4-1,.7-2.4,1-4.2,1ZM2627.8,1320.5c1.8,0,3.3-.6,4.4-1.7,1.1-1.2,1.7-2.8,1.7-4.9v-.3c0-2.1-.6-3.7-1.7-4.9-1.1-1.2-2.6-1.7-4.4-1.7s-3.3.6-4.4,1.7-1.7,2.8-1.7,4.9v.3c0,2.1.6,3.7,1.7,4.9s2.6,1.7,4.4,1.7Z"/>
    </g>
    <g>
      <path class="cls-3" d="M2644.4,1365.4v-2.7h3.5v-19.8h-3.5v-2.7h9.8c3.3,0,5.9.8,7.7,2.5,1.8,1.7,2.7,4.3,2.7,7.7v4.7c0,3.5-.9,6.1-2.7,7.8-1.8,1.7-4.4,2.5-7.7,2.5h-9.8ZM2650.9,1362.7h3.3c2.4,0,4.3-.6,5.5-1.8,1.2-1.2,1.9-3.1,1.9-5.6v-4.9c0-2.6-.6-4.4-1.9-5.6-1.2-1.2-3.1-1.8-5.5-1.8h-3.3v19.7Z"/>
      <path class="cls-3" d="M2677.6,1365.9c-1.8,0-3.3-.4-4.7-1.1-1.3-.8-2.4-1.8-3.1-3.2-.7-1.4-1.1-3-1.1-4.8v-.4c0-1.8.4-3.4,1.1-4.8.7-1.4,1.8-2.4,3.1-3.2,1.3-.8,2.8-1.1,4.5-1.1s3.1.4,4.4,1.1c1.3.7,2.3,1.7,3,3,.7,1.3,1.1,2.9,1.1,4.6v1.3h-14.4c0,1.9.7,3.4,1.8,4.4,1.2,1.1,2.6,1.6,4.3,1.6s2.7-.3,3.5-1c.8-.7,1.4-1.5,1.9-2.5l2.4,1.2c-.4.7-.9,1.5-1.5,2.2-.6.7-1.5,1.4-2.5,1.9-1,.5-2.3.8-3.9.8ZM2671.5,1355h11.4c0-1.6-.7-2.9-1.7-3.8-1-.9-2.3-1.4-3.9-1.4s-2.9.5-4,1.4c-1,.9-1.7,2.2-1.9,3.8Z"/>
      <path class="cls-3" d="M2690.8,1365.4v-17.6h2.8v2.2h.5c.3-.8.8-1.3,1.4-1.7.6-.4,1.5-.5,2.6-.5h2.1v2.6h-2.3c-1.3,0-2.3.4-3.1,1.1-.8.7-1.2,1.8-1.2,3.3v10.7h-2.8Z"/>
      <path class="cls-3" d="M2712.4,1365.4v-2.7h3.5v-19.8h-3.5v-2.7h12.6c1.5,0,2.8.3,3.9.8,1.1.5,2,1.3,2.7,2.2.6.9,1,2.1,1,3.3v.3c0,1.2-.2,2.1-.7,2.9-.5.8-1,1.3-1.6,1.8-.6.4-1.2.7-1.8.9v.5c.6.1,1.2.4,1.9.8.6.4,1.2,1,1.6,1.8s.7,1.7.7,2.9v.4c0,1.4-.3,2.6-1,3.5-.7,1-1.6,1.8-2.7,2.3-1.1.5-2.4.8-3.9.8h-12.6ZM2718.9,1351.3h5.8c1.4,0,2.6-.4,3.5-1.1.9-.7,1.3-1.7,1.3-2.9v-.4c0-1.2-.4-2.2-1.3-2.9-.9-.7-2-1.1-3.5-1.1h-5.8v8.4ZM2718.9,1362.7h5.7c1.6,0,2.8-.4,3.6-1.1.8-.7,1.3-1.8,1.3-3v-.3c0-1.3-.4-2.3-1.3-3-.8-.7-2.1-1.1-3.6-1.1h-5.7v8.6Z"/>
      <path class="cls-3" d="M2742.9,1365.9c-1.2,0-2.3-.2-3.3-.6s-1.8-1.1-2.4-1.9c-.6-.8-.9-1.8-.9-3s.3-2.2.9-3c.6-.8,1.4-1.4,2.4-1.8s2.1-.6,3.4-.6h5.9v-1.3c0-1.2-.4-2.2-1.1-3-.7-.7-1.8-1.1-3.3-1.1s-2.5.3-3.3,1c-.8.7-1.3,1.6-1.6,2.8l-2.7-.9c.3-1,.7-1.9,1.4-2.7.6-.8,1.5-1.5,2.5-1.9,1-.5,2.3-.7,3.8-.7,2.3,0,4,.6,5.3,1.7s1.9,2.8,1.9,4.9v8c0,.7.3,1.1,1,1.1h1.6v2.4h-2.5c-.8,0-1.4-.2-1.9-.7-.5-.4-.7-1-.7-1.8v-.2h-.4c-.3.5-.6.9-1.1,1.4-.4.5-1.1.9-1.8,1.2-.8.3-1.8.5-3,.5ZM2743.2,1363.5c1.7,0,3-.5,4.1-1.5,1-1,1.6-2.4,1.6-4.2v-.4h-5.8c-1.1,0-2.1.2-2.8.7-.7.5-1.1,1.2-1.1,2.2s.4,1.8,1.1,2.3c.8.6,1.7.8,2.9.8Z"/>
      <path class="cls-3" d="M2764.6,1365.4c-1,0-1.8-.3-2.3-.8-.5-.6-.8-1.3-.8-2.3v-12h-5.3v-2.5h5.3v-6.3h2.8v6.3h5.8v2.5h-5.8v11.6c0,.7.3,1.1,1,1.1h3.9v2.4h-4.7Z"/>
      <path class="cls-3" d="M2780.1,1365.9c-1.2,0-2.3-.2-3.3-.6s-1.8-1.1-2.4-1.9c-.6-.8-.9-1.8-.9-3s.3-2.2.9-3c.6-.8,1.4-1.4,2.4-1.8s2.1-.6,3.4-.6h5.9v-1.3c0-1.2-.4-2.2-1.1-3-.7-.7-1.8-1.1-3.3-1.1s-2.5.3-3.3,1c-.8.7-1.3,1.6-1.6,2.8l-2.7-.9c.3-1,.7-1.9,1.4-2.7.6-.8,1.5-1.5,2.5-1.9,1-.5,2.3-.7,3.8-.7,2.3,0,4,.6,5.3,1.7s1.9,2.8,1.9,4.9v8c0,.7.3,1.1,1,1.1h1.6v2.4h-2.5c-.8,0-1.4-.2-1.9-.7-.5-.4-.7-1-.7-1.8v-.2h-.4c-.3.5-.6.9-1.1,1.4-.4.5-1.1.9-1.8,1.2-.8.3-1.8.5-3,.5ZM2780.4,1363.5c1.7,0,3-.5,4.1-1.5,1-1,1.6-2.4,1.6-4.2v-.4h-5.8c-1.1,0-2.1.2-2.8.7-.7.5-1.1,1.2-1.1,2.2s.4,1.8,1.1,2.3c.8.6,1.7.8,2.9.8Z"/>
      <path class="cls-3" d="M2794.6,1356.7v-.5c0-1.8.4-3.4,1.1-4.8.7-1.3,1.8-2.3,3-3.1,1.3-.7,2.7-1.1,4.2-1.1s3.3.4,4.3,1.1c1,.7,1.7,1.5,2.2,2.4h.5v-2.9h2.7v21.7c0,1-.3,1.7-.8,2.3-.5.6-1.3.8-2.3.8h-12v-2.5h11.2c.7,0,1.1-.4,1.1-1.1v-6.7h-.5c-.3.5-.7,1-1.2,1.5-.5.5-1.2.9-2.1,1.2-.8.3-1.9.5-3.1.5s-2.9-.4-4.2-1.1c-1.3-.7-2.3-1.7-3-3.1-.7-1.3-1.1-2.9-1.1-4.7ZM2803.6,1363.1c1.8,0,3.3-.6,4.4-1.7,1.1-1.2,1.7-2.7,1.7-4.8v-.3c0-2-.6-3.6-1.7-4.8-1.1-1.1-2.6-1.7-4.4-1.7s-3.3.6-4.4,1.7c-1.2,1.1-1.7,2.7-1.7,4.8v.3c0,2,.6,3.6,1.7,4.8,1.2,1.2,2.6,1.7,4.4,1.7Z"/>
      <path class="cls-3" d="M2823.9,1365.9c-1.2,0-2.3-.2-3.3-.6s-1.8-1.1-2.4-1.9c-.6-.8-.9-1.8-.9-3s.3-2.2.9-3c.6-.8,1.4-1.4,2.4-1.8s2.1-.6,3.4-.6h5.9v-1.3c0-1.2-.4-2.2-1.1-3-.7-.7-1.8-1.1-3.3-1.1s-2.5.3-3.3,1c-.8.7-1.3,1.6-1.6,2.8l-2.7-.9c.3-1,.7-1.9,1.4-2.7.6-.8,1.5-1.5,2.5-1.9,1-.5,2.3-.7,3.8-.7,2.3,0,4,.6,5.3,1.7s1.9,2.8,1.9,4.9v8c0,.7.3,1.1,1,1.1h1.6v2.4h-2.5c-.8,0-1.4-.2-1.9-.7-.5-.4-.7-1-.7-1.8v-.2h-.4c-.3.5-.6.9-1.1,1.4-.4.5-1.1.9-1.8,1.2-.8.3-1.8.5-3,.5ZM2824.3,1363.5c1.7,0,3-.5,4.1-1.5,1-1,1.6-2.4,1.6-4.2v-.4h-5.8c-1.1,0-2.1.2-2.8.7-.7.5-1.1,1.2-1.1,2.2s.4,1.8,1.1,2.3c.8.6,1.7.8,2.9.8Z"/>
      <path class="cls-3" d="M2840.7,1345.1c-.6,0-1.1-.2-1.6-.6-.4-.4-.6-.9-.6-1.5s.2-1.2.6-1.6c.4-.4.9-.6,1.6-.6s1.1.2,1.5.6c.4.4.6.9.6,1.6s-.2,1.1-.6,1.5c-.4.4-.9.6-1.5.6ZM2839.2,1365.4v-17.6h2.8v17.6h-2.8Z"/>
      <path class="cls-3" d="M2848.1,1365.4v-25.2h2.8v14.8h.5l8.1-7.2h4l-9.8,8.6,10,9h-3.9l-8.4-7.7h-.5v7.7h-2.8Z"/>
      <path class="cls-3" d="M2872.8,1365.9c-1.2,0-2.3-.2-3.3-.6s-1.8-1.1-2.4-1.9c-.6-.8-.9-1.8-.9-3s.3-2.2.9-3c.6-.8,1.4-1.4,2.4-1.8s2.1-.6,3.4-.6h5.9v-1.3c0-1.2-.4-2.2-1.1-3-.7-.7-1.8-1.1-3.3-1.1s-2.5.3-3.3,1c-.8.7-1.3,1.6-1.6,2.8l-2.7-.9c.3-1,.7-1.9,1.4-2.7.6-.8,1.5-1.5,2.5-1.9,1-.5,2.3-.7,3.8-.7,2.3,0,4,.6,5.3,1.7s1.9,2.8,1.9,4.9v8c0,.7.3,1.1,1,1.1h1.6v2.4h-2.5c-.8,0-1.4-.2-1.9-.7-.5-.4-.7-1-.7-1.8v-.2h-.4c-.3.5-.6.9-1.1,1.4-.4.5-1.1.9-1.8,1.2-.8.3-1.8.5-3,.5ZM2873.1,1363.5c1.7,0,3-.5,4.1-1.5,1-1,1.6-2.4,1.6-4.2v-.4h-5.8c-1.1,0-2.1.2-2.8.7-.7.5-1.1,1.2-1.1,2.2s.4,1.8,1.1,2.3c.8.6,1.7.8,2.9.8Z"/>
      <path class="cls-3" d="M2888,1357.5v-2.6h10.7v2.6h-10.7Z"/>
      <path class="cls-3" d="M2904.4,1365.4v-25.2h3v11h.5l10.7-11h4l-12.3,12.5,12.7,12.7h-4.1l-11-11.2h-.5v11.2h-3Z"/>
      <path class="cls-3" d="M2926.5,1365.4v-17.6h2.8v2.2h.5c.3-.8.8-1.3,1.4-1.7.6-.4,1.5-.5,2.6-.5h2.1v2.6h-2.3c-1.3,0-2.3.4-3.1,1.1-.8.7-1.2,1.8-1.2,3.3v10.7h-2.8Z"/>
      <path class="cls-3" d="M2945.4,1365.9c-1.2,0-2.3-.2-3.3-.6s-1.8-1.1-2.4-1.9c-.6-.8-.9-1.8-.9-3s.3-2.2.9-3c.6-.8,1.4-1.4,2.4-1.8s2.1-.6,3.4-.6h5.9v-1.3c0-1.2-.4-2.2-1.1-3-.7-.7-1.8-1.1-3.3-1.1s-2.5.3-3.3,1c-.8.7-1.3,1.6-1.6,2.8l-2.7-.9c.3-1,.7-1.9,1.4-2.7.6-.8,1.5-1.5,2.5-1.9,1-.5,2.3-.7,3.8-.7,2.3,0,4,.6,5.3,1.7s1.9,2.8,1.9,4.9v8c0,.7.3,1.1,1,1.1h1.6v2.4h-2.5c-.8,0-1.4-.2-1.9-.7-.5-.4-.7-1-.7-1.8v-.2h-.4c-.3.5-.6.9-1.1,1.4-.4.5-1.1.9-1.8,1.2-.8.3-1.8.5-3,.5ZM2945.8,1363.5c1.7,0,3-.5,4.1-1.5,1-1,1.6-2.4,1.6-4.2v-.4h-5.8c-1.1,0-2.1.2-2.8.7-.7.5-1.1,1.2-1.1,2.2s.4,1.8,1.1,2.3c.8.6,1.7.8,2.9.8Z"/>
      <path class="cls-3" d="M2967.2,1365.4c-1,0-1.8-.3-2.3-.8-.5-.6-.8-1.3-.8-2.3v-12h-5.3v-2.5h5.3v-6.3h2.8v6.3h5.8v2.5h-5.8v11.6c0,.7.3,1.1,1,1.1h3.9v2.4h-4.7Z"/>
      <path class="cls-3" d="M2985.4,1365.9c-1.8,0-3.3-.4-4.7-1.1-1.3-.8-2.4-1.8-3.1-3.2-.7-1.4-1.1-3-1.1-4.8v-.4c0-1.8.4-3.4,1.1-4.8.7-1.4,1.8-2.4,3.1-3.2,1.3-.8,2.8-1.1,4.5-1.1s3.1.4,4.4,1.1c1.3.7,2.3,1.7,3,3,.7,1.3,1.1,2.9,1.1,4.6v1.3h-14.4c0,1.9.7,3.4,1.8,4.4,1.2,1.1,2.6,1.6,4.3,1.6s2.7-.3,3.5-1c.8-.7,1.4-1.5,1.9-2.5l2.4,1.2c-.4.7-.9,1.5-1.5,2.2-.6.7-1.5,1.4-2.5,1.9-1,.5-2.3.8-3.9.8ZM2979.3,1355h11.4c0-1.6-.7-2.9-1.7-3.8-1-.9-2.3-1.4-3.9-1.4s-2.9.5-4,1.4c-1,.9-1.7,2.2-1.9,3.8Z"/>
      <path class="cls-3" d="M2998.6,1365.4v-17.6h2.8v2.2h.5c.3-.8.8-1.3,1.4-1.7.6-.4,1.5-.5,2.6-.5h2.1v2.6h-2.3c-1.3,0-2.3.4-3.1,1.1-.8.7-1.2,1.8-1.2,3.3v10.7h-2.8Z"/>
      <path class="cls-3" d="M3022.9,1345.1c-.6,0-1.1-.2-1.6-.6-.4-.4-.6-.9-.6-1.5s.2-1.2.6-1.6c.4-.4.9-.6,1.6-.6s1.1.2,1.5.6c.4.4.6.9.6,1.6s-.2,1.1-.6,1.5c-.4.4-.9.6-1.5.6ZM3021.4,1365.4v-17.6h2.8v17.6h-2.8Z"/>
      <path class="cls-3" d="M3037.3,1365.9c-2.2,0-4-.5-5.5-1.5-1.5-1-2.4-2.6-2.7-4.8l2.7-.6c.2,1.2.6,2.1,1.1,2.7.5.7,1.2,1.1,2,1.4.8.3,1.6.4,2.5.4,1.3,0,2.4-.3,3.1-.8.8-.5,1.2-1.2,1.2-2.1s-.4-1.6-1.1-1.9-1.7-.7-3-.9l-1.5-.3c-1.1-.2-2.2-.5-3.1-.9-.9-.4-1.7-1-2.2-1.7-.6-.7-.8-1.6-.8-2.6,0-1.6.6-2.8,1.8-3.7,1.2-.9,2.8-1.3,4.9-1.3s3.6.4,4.8,1.4c1.2.9,2,2.2,2.4,3.8l-2.7.7c-.2-1.3-.7-2.2-1.5-2.7-.8-.5-1.8-.8-3-.8s-2.1.2-2.8.7c-.7.4-1,1.1-1,2s.3,1.5,1,1.9,1.5.7,2.6.9l1.5.3c1.2.2,2.4.5,3.4.9,1,.4,1.8.9,2.4,1.6.6.7.9,1.6.9,2.7,0,1.7-.6,3.1-1.9,4-1.3.9-3,1.4-5.2,1.4Z"/>
      <path class="cls-3" d="M3055.7,1365.4c-1,0-1.8-.3-2.3-.8-.5-.6-.8-1.3-.8-2.3v-12h-5.3v-2.5h5.3v-6.3h2.8v6.3h5.8v2.5h-5.8v11.6c0,.7.3,1.1,1,1.1h3.9v2.4h-4.7Z"/>
      <path class="cls-3" d="M3075,1365.4v-17.6h2.8v2.2h.5c.3-.6.9-1.2,1.7-1.7.8-.5,1.8-.8,3.2-.8s2.5.3,3.3.9c.9.6,1.5,1.3,1.9,2.2h.5c.4-.9,1-1.6,1.9-2.2.8-.6,2-.9,3.5-.9s2.2.2,3.1.7c.9.5,1.6,1.2,2.1,2.1.5.9.8,2,.8,3.2v11.9h-2.8v-11.7c0-1.2-.3-2.1-1-2.8-.7-.7-1.6-1-2.9-1s-2.4.4-3.2,1.3c-.8.8-1.2,2.1-1.2,3.6v10.6h-2.8v-11.7c0-1.2-.3-2.1-1-2.8s-1.6-1-2.9-1-2.4.4-3.2,1.3c-.8.8-1.2,2.1-1.2,3.6v10.6h-2.8Z"/>
      <path class="cls-3" d="M3107.4,1345.1c-.6,0-1.1-.2-1.6-.6-.4-.4-.6-.9-.6-1.5s.2-1.2.6-1.6c.4-.4.9-.6,1.6-.6s1.1.2,1.5.6c.4.4.6.9.6,1.6s-.2,1.1-.6,1.5c-.4.4-.9.6-1.5.6ZM3106,1365.4v-17.6h2.8v17.6h-2.8Z"/>
      <path class="cls-3" d="M3121.3,1365.4c-1,0-1.8-.3-2.3-.8-.5-.6-.8-1.3-.8-2.3v-12h-5.3v-2.5h5.3v-6.3h2.8v6.3h5.8v2.5h-5.8v11.6c0,.7.3,1.1,1,1.1h3.9v2.4h-4.7Z"/>
      <path class="cls-3" d="M3148.7,1365.9c-1.8,0-3.3-.4-4.7-1.1-1.3-.8-2.4-1.8-3.1-3.2-.7-1.4-1.1-3-1.1-4.8v-.4c0-1.8.4-3.4,1.1-4.8.7-1.4,1.8-2.4,3.1-3.2,1.3-.8,2.8-1.1,4.5-1.1s3.1.4,4.4,1.1c1.3.7,2.3,1.7,3,3,.7,1.3,1.1,2.9,1.1,4.6v1.3h-14.4c0,1.9.7,3.4,1.8,4.4,1.2,1.1,2.6,1.6,4.3,1.6s2.7-.3,3.5-1c.8-.7,1.4-1.5,1.9-2.5l2.4,1.2c-.4.7-.9,1.5-1.5,2.2-.6.7-1.5,1.4-2.5,1.9-1,.5-2.3.8-3.9.8ZM3142.6,1355h11.4c0-1.6-.7-2.9-1.7-3.8-1-.9-2.3-1.4-3.9-1.4s-2.9.5-4,1.4c-1,.9-1.7,2.2-1.9,3.8Z"/>
      <path class="cls-3" d="M3163.4,1345.1c-.6,0-1.1-.2-1.6-.6-.4-.4-.6-.9-.6-1.5s.2-1.2.6-1.6c.4-.4.9-.6,1.6-.6s1.1.2,1.5.6c.4.4.6.9.6,1.6s-.2,1.1-.6,1.5c-.4.4-.9.6-1.5.6ZM3161.9,1365.4v-17.6h2.8v17.6h-2.8Z"/>
      <path class="cls-3" d="M3170.8,1365.4v-17.6h2.8v3h.5c.4-.8,1-1.6,2-2.3s2.3-1,4.1-1,2.5.3,3.5.8c1,.6,1.9,1.4,2.5,2.4.6,1.1.9,2.4.9,4v10.7h-2.8v-10.4c0-1.8-.4-3-1.3-3.8s-2.1-1.2-3.5-1.2-3.1.6-4.2,1.7c-1.1,1.1-1.6,2.7-1.6,4.9v8.9h-2.8Z"/>
      <path class="cls-3" d="M3200.9,1365.9c-1.8,0-3.3-.4-4.7-1.1-1.3-.8-2.4-1.8-3.1-3.2-.7-1.4-1.1-3-1.1-4.8v-.4c0-1.8.4-3.4,1.1-4.8.7-1.4,1.8-2.4,3.1-3.2,1.3-.8,2.8-1.1,4.5-1.1s3.1.4,4.4,1.1c1.3.7,2.3,1.7,3,3,.7,1.3,1.1,2.9,1.1,4.6v1.3h-14.4c0,1.9.7,3.4,1.8,4.4,1.2,1.1,2.6,1.6,4.3,1.6s2.7-.3,3.5-1c.8-.7,1.4-1.5,1.9-2.5l2.4,1.2c-.4.7-.9,1.5-1.5,2.2-.6.7-1.5,1.4-2.5,1.9-1,.5-2.3.8-3.9.8ZM3194.8,1355h11.4c0-1.6-.7-2.9-1.7-3.8-1-.9-2.3-1.4-3.9-1.4s-2.9.5-4,1.4c-1,.9-1.7,2.2-1.9,3.8Z"/>
      <path class="cls-3" d="M3214.1,1365.4v-17.6h2.8v2.2h.5c.3-.8.8-1.3,1.4-1.7.6-.4,1.5-.5,2.6-.5h2.1v2.6h-2.3c-1.3,0-2.3.4-3.1,1.1-.8.7-1.2,1.8-1.2,3.3v10.7h-2.8Z"/>
      <path class="cls-3" d="M3236.9,1365.4v-25.2h3v22.5h12.7v2.7h-15.8Z"/>
      <path class="cls-3" d="M3262,1365.9c-1.2,0-2.3-.2-3.3-.6s-1.8-1.1-2.4-1.9c-.6-.8-.9-1.8-.9-3s.3-2.2.9-3c.6-.8,1.4-1.4,2.4-1.8s2.1-.6,3.4-.6h5.9v-1.3c0-1.2-.4-2.2-1.1-3-.7-.7-1.8-1.1-3.3-1.1s-2.5.3-3.3,1c-.8.7-1.3,1.6-1.6,2.8l-2.7-.9c.3-1,.7-1.9,1.4-2.7.6-.8,1.5-1.5,2.5-1.9,1-.5,2.3-.7,3.8-.7,2.3,0,4,.6,5.3,1.7s1.9,2.8,1.9,4.9v8c0,.7.3,1.1,1,1.1h1.6v2.4h-2.5c-.8,0-1.4-.2-1.9-.7-.5-.4-.7-1-.7-1.8v-.2h-.4c-.3.5-.6.9-1.1,1.4-.4.5-1.1.9-1.8,1.2-.8.3-1.8.5-3,.5ZM3260.4,1345.1c-.6,0-1.1-.2-1.5-.6s-.6-.9-.6-1.6.2-1.2.6-1.5c.4-.4.9-.6,1.5-.6s1.1.2,1.5.6c.4.4.6.9.6,1.5s-.2,1.2-.6,1.6c-.4.4-.9.6-1.5.6ZM3262.3,1363.5c1.7,0,3-.5,4.1-1.5,1-1,1.6-2.4,1.6-4.2v-.4h-5.8c-1.1,0-2.1.2-2.8.7-.7.5-1.1,1.2-1.1,2.2s.4,1.8,1.1,2.3c.8.6,1.7.8,2.9.8ZM3267.1,1345.1c-.6,0-1.1-.2-1.5-.6-.4-.4-.6-.9-.6-1.6s.2-1.2.6-1.5c.4-.4.9-.6,1.5-.6s1.2.2,1.6.6c.4.4.6.9.6,1.5s-.2,1.2-.6,1.6c-.4.4-.9.6-1.6.6Z"/>
      <path class="cls-3" d="M3277.3,1365.4v-17.6h2.8v3h.5c.4-.8,1-1.6,2-2.3s2.3-1,4.1-1,2.5.3,3.5.8c1,.6,1.9,1.4,2.5,2.4.6,1.1.9,2.4.9,4v10.7h-2.8v-10.4c0-1.8-.4-3-1.3-3.8s-2.1-1.2-3.5-1.2-3.1.6-4.2,1.7c-1.1,1.1-1.6,2.7-1.6,4.9v8.9h-2.8Z"/>
      <path class="cls-3" d="M3298.5,1356.7v-.5c0-1.8.4-3.4,1.1-4.8.7-1.3,1.8-2.3,3-3.1,1.3-.7,2.7-1.1,4.2-1.1s3.3.4,4.3,1.1c1,.7,1.7,1.5,2.2,2.4h.5v-2.9h2.7v21.7c0,1-.3,1.7-.8,2.3-.5.6-1.3.8-2.3.8h-12v-2.5h11.2c.7,0,1.1-.4,1.1-1.1v-6.7h-.5c-.3.5-.7,1-1.2,1.5-.5.5-1.2.9-2.1,1.2-.8.3-1.9.5-3.1.5s-2.9-.4-4.2-1.1c-1.3-.7-2.3-1.7-3-3.1-.7-1.3-1.1-2.9-1.1-4.7ZM3307.6,1363.1c1.8,0,3.3-.6,4.4-1.7,1.1-1.2,1.7-2.7,1.7-4.8v-.3c0-2-.6-3.6-1.7-4.8-1.1-1.1-2.6-1.7-4.4-1.7s-3.3.6-4.4,1.7c-1.2,1.1-1.7,2.7-1.7,4.8v.3c0,2,.6,3.6,1.7,4.8,1.2,1.2,2.6,1.7,4.4,1.7Z"/>
      <path class="cls-3" d="M3330.6,1365.9c-1.8,0-3.3-.4-4.7-1.1-1.3-.8-2.4-1.8-3.1-3.2-.7-1.4-1.1-3-1.1-4.8v-.4c0-1.8.4-3.4,1.1-4.8.7-1.4,1.8-2.4,3.1-3.2,1.3-.8,2.8-1.1,4.5-1.1s3.1.4,4.4,1.1c1.3.7,2.3,1.7,3,3,.7,1.3,1.1,2.9,1.1,4.6v1.3h-14.4c0,1.9.7,3.4,1.8,4.4,1.2,1.1,2.6,1.6,4.3,1.6s2.7-.3,3.5-1c.8-.7,1.4-1.5,1.9-2.5l2.4,1.2c-.4.7-.9,1.5-1.5,2.2-.6.7-1.5,1.4-2.5,1.9-1,.5-2.3.8-3.9.8ZM3324.5,1355h11.4c0-1.6-.7-2.9-1.7-3.8-1-.9-2.3-1.4-3.9-1.4s-2.9.5-4,1.4c-1,.9-1.7,2.2-1.9,3.8Z"/>
      <path class="cls-3" d="M3357.5,1365.4l-6.3-17.6h3l5.3,15.5h.5l5.3-15.5h3l-6.3,17.6h-4.5Z"/>
      <path class="cls-3" d="M3380.6,1365.9c-1.8,0-3.3-.4-4.7-1.1-1.4-.7-2.4-1.8-3.2-3.2-.8-1.4-1.1-3-1.1-4.8v-.5c0-1.8.4-3.4,1.1-4.8.8-1.4,1.8-2.4,3.2-3.2,1.4-.7,2.9-1.1,4.7-1.1s3.3.4,4.7,1.1c1.4.7,2.4,1.8,3.2,3.2.8,1.4,1.1,3,1.1,4.8v.5c0,1.8-.4,3.5-1.1,4.8-.8,1.4-1.8,2.4-3.2,3.2-1.4.7-2.9,1.1-4.7,1.1ZM3380.6,1363.4c1.9,0,3.4-.6,4.5-1.8,1.1-1.2,1.7-2.8,1.7-4.8v-.3c0-2-.6-3.6-1.7-4.8-1.1-1.2-2.6-1.8-4.5-1.8s-3.3.6-4.5,1.8c-1.1,1.2-1.7,2.8-1.7,4.8v.3c0,2,.6,3.6,1.7,4.8,1.1,1.2,2.6,1.8,4.5,1.8Z"/>
      <path class="cls-3" d="M3394.7,1365.4v-17.6h2.8v3h.5c.4-.8,1-1.6,2-2.3s2.3-1,4.1-1,2.5.3,3.5.8c1,.6,1.9,1.4,2.5,2.4.6,1.1.9,2.4.9,4v10.7h-2.8v-10.4c0-1.8-.4-3-1.3-3.8s-2.1-1.2-3.5-1.2-3.1.6-4.2,1.7c-1.1,1.1-1.6,2.7-1.6,4.9v8.9h-2.8Z"/>
      <path class="cls-3" d="M3434.1,1365.9c-1.8,0-3.3-.4-4.7-1.1-1.3-.8-2.4-1.8-3.1-3.2-.7-1.4-1.1-3-1.1-4.8v-.4c0-1.8.4-3.4,1.1-4.8.7-1.4,1.8-2.4,3.1-3.2,1.3-.8,2.8-1.1,4.5-1.1s3.1.4,4.4,1.1c1.3.7,2.3,1.7,3,3,.7,1.3,1.1,2.9,1.1,4.6v1.3h-14.4c0,1.9.7,3.4,1.8,4.4,1.2,1.1,2.6,1.6,4.3,1.6s2.7-.3,3.5-1c.8-.7,1.4-1.5,1.9-2.5l2.4,1.2c-.4.7-.9,1.5-1.5,2.2-.6.7-1.5,1.4-2.5,1.9-1,.5-2.3.8-3.9.8ZM3428,1355h11.4c0-1.6-.7-2.9-1.7-3.8-1-.9-2.3-1.4-3.9-1.4s-2.9.5-4,1.4c-1,.9-1.7,2.2-1.9,3.8Z"/>
      <path class="cls-3" d="M3448.8,1345.1c-.6,0-1.1-.2-1.6-.6-.4-.4-.6-.9-.6-1.5s.2-1.2.6-1.6c.4-.4.9-.6,1.6-.6s1.1.2,1.5.6c.4.4.6.9.6,1.6s-.2,1.1-.6,1.5c-.4.4-.9.6-1.5.6ZM3447.3,1365.4v-17.6h2.8v17.6h-2.8Z"/>
      <path class="cls-3" d="M3456.2,1365.4v-17.6h2.8v3h.5c.4-.8,1-1.6,2-2.3s2.3-1,4.1-1,2.5.3,3.5.8c1,.6,1.9,1.4,2.5,2.4.6,1.1.9,2.4.9,4v10.7h-2.8v-10.4c0-1.8-.4-3-1.3-3.8s-2.1-1.2-3.5-1.2-3.1.6-4.2,1.7c-1.1,1.1-1.6,2.7-1.6,4.9v8.9h-2.8Z"/>
      <path class="cls-3" d="M3486.3,1365.9c-1.8,0-3.3-.4-4.7-1.1-1.3-.8-2.4-1.8-3.1-3.2-.7-1.4-1.1-3-1.1-4.8v-.4c0-1.8.4-3.4,1.1-4.8.7-1.4,1.8-2.4,3.1-3.2,1.3-.8,2.8-1.1,4.5-1.1s3.1.4,4.4,1.1c1.3.7,2.3,1.7,3,3,.7,1.3,1.1,2.9,1.1,4.6v1.3h-14.4c0,1.9.7,3.4,1.8,4.4,1.2,1.1,2.6,1.6,4.3,1.6s2.7-.3,3.5-1c.8-.7,1.4-1.5,1.9-2.5l2.4,1.2c-.4.7-.9,1.5-1.5,2.2-.6.7-1.5,1.4-2.5,1.9-1,.5-2.3.8-3.9.8ZM3480.2,1355h11.4c0-1.6-.7-2.9-1.7-3.8-1-.9-2.3-1.4-3.9-1.4s-2.9.5-4,1.4c-1,.9-1.7,2.2-1.9,3.8Z"/>
      <path class="cls-3" d="M3499.5,1365.4v-17.6h2.8v2.2h.5c.3-.6.9-1.2,1.7-1.7.8-.5,1.8-.8,3.2-.8s2.5.3,3.3.9c.9.6,1.5,1.3,1.9,2.2h.5c.4-.9,1-1.6,1.9-2.2.8-.6,2-.9,3.5-.9s2.2.2,3.1.7c.9.5,1.6,1.2,2.1,2.1.5.9.8,2,.8,3.2v11.9h-2.8v-11.7c0-1.2-.3-2.1-1-2.8-.7-.7-1.6-1-2.9-1s-2.4.4-3.2,1.3c-.8.8-1.2,2.1-1.2,3.6v10.6h-2.8v-11.7c0-1.2-.3-2.1-1-2.8s-1.6-1-2.9-1-2.4.4-3.2,1.3c-.8.8-1.2,2.1-1.2,3.6v10.6h-2.8Z"/>
      <path class="cls-3" d="M2645.6,1408.6v-25.2h3v11h.5l10.7-11h4l-12.3,12.5,12.7,12.7h-4.1l-11-11.2h-.5v11.2h-3Z"/>
      <path class="cls-3" d="M2669.1,1388.3c-.6,0-1.1-.2-1.6-.6-.4-.4-.6-.9-.6-1.5s.2-1.2.6-1.6c.4-.4.9-.6,1.6-.6s1.1.2,1.5.6c.4.4.6.9.6,1.6s-.2,1.1-.6,1.5c-.4.4-.9.6-1.5.6ZM2667.6,1408.6v-17.6h2.8v17.6h-2.8Z"/>
      <path class="cls-3" d="M2676.4,1408.6v-25.2h2.8v25.2h-2.8Z"/>
      <path class="cls-3" d="M2693.4,1409.1c-1.8,0-3.3-.4-4.7-1.1-1.4-.7-2.4-1.8-3.2-3.2-.8-1.4-1.1-3-1.1-4.8v-.5c0-1.8.4-3.4,1.1-4.8.8-1.4,1.8-2.4,3.2-3.2,1.4-.7,2.9-1.1,4.7-1.1s3.3.4,4.7,1.1c1.4.7,2.4,1.8,3.2,3.2.8,1.4,1.1,3,1.1,4.8v.5c0,1.8-.4,3.5-1.1,4.8-.8,1.4-1.8,2.4-3.2,3.2-1.4.7-2.9,1.1-4.7,1.1ZM2693.4,1406.6c1.9,0,3.4-.6,4.5-1.8,1.1-1.2,1.7-2.8,1.7-4.8v-.3c0-2-.6-3.6-1.7-4.8-1.1-1.2-2.6-1.8-4.5-1.8s-3.3.6-4.5,1.8c-1.1,1.2-1.7,2.8-1.7,4.8v.3c0,2,.6,3.6,1.7,4.8,1.1,1.2,2.6,1.8,4.5,1.8Z"/>
      <path class="cls-3" d="M2707.5,1408.6v-17.6h2.8v2.2h.5c.3-.6.9-1.2,1.7-1.7.8-.5,1.8-.8,3.2-.8s2.5.3,3.3.9c.9.6,1.5,1.3,1.9,2.2h.5c.4-.9,1-1.6,1.9-2.2.8-.6,2-.9,3.5-.9s2.2.2,3.1.7c.9.5,1.6,1.2,2.1,2.1.5.9.8,2,.8,3.2v11.9h-2.8v-11.7c0-1.2-.3-2.1-1-2.8-.7-.7-1.6-1-2.9-1s-2.4.4-3.2,1.3c-.8.8-1.2,2.1-1.2,3.6v10.6h-2.8v-11.7c0-1.2-.3-2.1-1-2.8s-1.6-1-2.9-1-2.4.4-3.2,1.3c-.8.8-1.2,2.1-1.2,3.6v10.6h-2.8Z"/>
      <path class="cls-3" d="M2746.5,1409.1c-1.8,0-3.3-.4-4.7-1.1-1.3-.8-2.4-1.8-3.1-3.2-.7-1.4-1.1-3-1.1-4.8v-.4c0-1.8.4-3.4,1.1-4.8.7-1.4,1.8-2.4,3.1-3.2,1.3-.8,2.8-1.1,4.5-1.1s3.1.4,4.4,1.1c1.3.7,2.3,1.7,3,3,.7,1.3,1.1,2.9,1.1,4.6v1.3h-14.4c0,1.9.7,3.4,1.8,4.4,1.2,1.1,2.6,1.6,4.3,1.6s2.7-.3,3.5-1c.8-.7,1.4-1.5,1.9-2.5l2.4,1.2c-.4.7-.9,1.5-1.5,2.2-.6.7-1.5,1.4-2.5,1.9-1,.5-2.3.8-3.9.8ZM2740.5,1398.2h11.4c0-1.6-.7-2.9-1.7-3.8-1-.9-2.3-1.4-3.9-1.4s-2.9.5-4,1.4c-1,.9-1.7,2.2-1.9,3.8Z"/>
      <path class="cls-3" d="M2766.3,1408.6c-1,0-1.8-.3-2.3-.8-.5-.6-.8-1.3-.8-2.3v-12h-5.3v-2.5h5.3v-6.3h2.8v6.3h5.8v2.5h-5.8v11.6c0,.7.3,1.1,1,1.1h3.9v2.4h-4.7Z"/>
      <path class="cls-3" d="M2784.4,1409.1c-1.8,0-3.3-.4-4.7-1.1-1.3-.8-2.4-1.8-3.1-3.2-.7-1.4-1.1-3-1.1-4.8v-.4c0-1.8.4-3.4,1.1-4.8.7-1.4,1.8-2.4,3.1-3.2,1.3-.8,2.8-1.1,4.5-1.1s3.1.4,4.4,1.1c1.3.7,2.3,1.7,3,3,.7,1.3,1.1,2.9,1.1,4.6v1.3h-14.4c0,1.9.7,3.4,1.8,4.4,1.2,1.1,2.6,1.6,4.3,1.6s2.7-.3,3.5-1c.8-.7,1.4-1.5,1.9-2.5l2.4,1.2c-.4.7-.9,1.5-1.5,2.2-.6.7-1.5,1.4-2.5,1.9-1,.5-2.3.8-3.9.8ZM2778.4,1398.2h11.4c0-1.6-.7-2.9-1.7-3.8-1-.9-2.3-1.4-3.9-1.4s-2.9.5-4,1.4c-1,.9-1.7,2.2-1.9,3.8Z"/>
      <path class="cls-3" d="M2797.7,1408.6v-17.6h2.8v2.2h.5c.3-.8.8-1.3,1.4-1.7.6-.4,1.5-.5,2.6-.5h2.1v2.6h-2.3c-1.3,0-2.3.4-3.1,1.1-.8.7-1.2,1.8-1.2,3.3v10.7h-2.8Z"/>
      <path class="cls-3" d="M2827.2,1408.9c-1.3,0-2.4-.3-3.5-.8-1.1-.6-1.9-1.4-2.5-2.5-.6-1.1-.9-2.4-.9-4v-10.7h2.8v10.4c0,1.8.4,3,1.3,3.8s2.1,1.2,3.5,1.2,3.1-.6,4.1-1.7c1.1-1.1,1.6-2.7,1.6-4.9v-8.9h2.8v17.6h-2.8v-3h-.5c-.4.8-1,1.6-2,2.3-.9.7-2.3,1-4.1,1Z"/>
      <path class="cls-3" d="M2842.5,1408.6v-17.6h2.8v3h.5c.4-.8,1-1.6,2-2.3s2.3-1,4.1-1,2.5.3,3.5.8c1,.6,1.9,1.4,2.5,2.4.6,1.1.9,2.4.9,4v10.7h-2.8v-10.4c0-1.8-.4-3-1.3-3.8s-2.1-1.2-3.5-1.2-3.1.6-4.2,1.7c-1.1,1.1-1.6,2.7-1.6,4.9v8.9h-2.8Z"/>
      <path class="cls-3" d="M2872,1409.1c-1.5,0-2.9-.4-4.2-1.1-1.3-.7-2.3-1.8-3-3.1-.7-1.4-1.1-3-1.1-4.9v-.5c0-1.9.4-3.5,1.1-4.8.7-1.4,1.7-2.4,3-3.1s2.7-1.1,4.2-1.1,2.3.2,3.1.5c.9.3,1.5.7,2.1,1.2.5.5.9,1,1.2,1.6h.5v-10.4h2.8v25.2h-2.8v-2.9h-.5c-.5.9-1.2,1.7-2.2,2.4-1,.7-2.4,1-4.2,1ZM2872.8,1406.6c1.8,0,3.3-.6,4.4-1.7,1.1-1.2,1.7-2.8,1.7-4.9v-.3c0-2.1-.6-3.7-1.7-4.9s-2.6-1.7-4.4-1.7-3.3.6-4.4,1.7-1.7,2.8-1.7,4.9v.3c0,2.1.6,3.7,1.7,4.9,1.2,1.2,2.6,1.7,4.4,1.7Z"/>
      <path class="cls-3" d="M2905.1,1409.1c-1.8,0-3.3-.4-4.7-1.1-1.3-.8-2.4-1.8-3.1-3.2-.7-1.4-1.1-3-1.1-4.8v-.4c0-1.8.4-3.4,1.1-4.8.7-1.4,1.8-2.4,3.1-3.2,1.3-.8,2.8-1.1,4.5-1.1s3.1.4,4.4,1.1c1.3.7,2.3,1.7,3,3,.7,1.3,1.1,2.9,1.1,4.6v1.3h-14.4c0,1.9.7,3.4,1.8,4.4,1.2,1.1,2.6,1.6,4.3,1.6s2.7-.3,3.5-1c.8-.7,1.4-1.5,1.9-2.5l2.4,1.2c-.4.7-.9,1.5-1.5,2.2-.6.7-1.5,1.4-2.5,1.9-1,.5-2.3.8-3.9.8ZM2899,1398.2h11.4c0-1.6-.7-2.9-1.7-3.8-1-.9-2.3-1.4-3.9-1.4s-2.9.5-4,1.4c-1,.9-1.7,2.2-1.9,3.8Z"/>
      <path class="cls-3" d="M2919.8,1388.3c-.6,0-1.1-.2-1.6-.6-.4-.4-.6-.9-.6-1.5s.2-1.2.6-1.6c.4-.4.9-.6,1.6-.6s1.1.2,1.5.6c.4.4.6.9.6,1.6s-.2,1.1-.6,1.5c-.4.4-.9.6-1.5.6ZM2918.3,1408.6v-17.6h2.8v17.6h-2.8Z"/>
      <path class="cls-3" d="M2927.1,1408.6v-17.6h2.8v3h.5c.4-.8,1-1.6,2-2.3s2.3-1,4.1-1,2.5.3,3.5.8c1,.6,1.9,1.4,2.5,2.4.6,1.1.9,2.4.9,4v10.7h-2.8v-10.4c0-1.8-.4-3-1.3-3.8s-2.1-1.2-3.5-1.2-3.1.6-4.2,1.7c-1.1,1.1-1.6,2.7-1.6,4.9v8.9h-2.8Z"/>
      <path class="cls-3" d="M2957.3,1409.1c-1.8,0-3.3-.4-4.7-1.1-1.3-.8-2.4-1.8-3.1-3.2-.7-1.4-1.1-3-1.1-4.8v-.4c0-1.8.4-3.4,1.1-4.8.7-1.4,1.8-2.4,3.1-3.2,1.3-.8,2.8-1.1,4.5-1.1s3.1.4,4.4,1.1c1.3.7,2.3,1.7,3,3,.7,1.3,1.1,2.9,1.1,4.6v1.3h-14.4c0,1.9.7,3.4,1.8,4.4,1.2,1.1,2.6,1.6,4.3,1.6s2.7-.3,3.5-1c.8-.7,1.4-1.5,1.9-2.5l2.4,1.2c-.4.7-.9,1.5-1.5,2.2-.6.7-1.5,1.4-2.5,1.9-1,.5-2.3.8-3.9.8ZM2951.2,1398.2h11.4c0-1.6-.7-2.9-1.7-3.8-1-.9-2.3-1.4-3.9-1.4s-2.9.5-4,1.4c-1,.9-1.7,2.2-1.9,3.8Z"/>
      <path class="cls-3" d="M2970.5,1408.6v-17.6h2.8v2.2h.5c.3-.8.8-1.3,1.4-1.7.6-.4,1.5-.5,2.6-.5h2.1v2.6h-2.3c-1.3,0-2.3.4-3.1,1.1-.8.7-1.2,1.8-1.2,3.3v10.7h-2.8Z"/>
      <path class="cls-3" d="M2998.5,1408.6v-22.5h-8.1v-2.7h19.2v2.7h-8.1v22.5h-3Z"/>
      <path class="cls-3" d="M3015,1388.3c-.6,0-1.1-.2-1.6-.6-.4-.4-.6-.9-.6-1.5s.2-1.2.6-1.6c.4-.4.9-.6,1.6-.6s1.1.2,1.5.6c.4.4.6.9.6,1.6s-.2,1.1-.6,1.5c-.4.4-.9.6-1.5.6ZM3013.6,1408.6v-17.6h2.8v17.6h-2.8Z"/>
      <path class="cls-3" d="M3030.5,1409.1c-1.8,0-3.3-.4-4.7-1.1-1.3-.8-2.4-1.8-3.1-3.2-.7-1.4-1.1-3-1.1-4.8v-.4c0-1.8.4-3.4,1.1-4.8.7-1.4,1.8-2.4,3.1-3.2,1.3-.8,2.8-1.1,4.5-1.1s3.1.4,4.4,1.1c1.3.7,2.3,1.7,3,3,.7,1.3,1.1,2.9,1.1,4.6v1.3h-14.4c0,1.9.7,3.4,1.8,4.4,1.2,1.1,2.6,1.6,4.3,1.6s2.7-.3,3.5-1c.8-.7,1.4-1.5,1.9-2.5l2.4,1.2c-.4.7-.9,1.5-1.5,2.2-.6.7-1.5,1.4-2.5,1.9-1,.5-2.3.8-3.9.8ZM3024.4,1398.2h11.4c0-1.6-.7-2.9-1.7-3.8-1-.9-2.3-1.4-3.9-1.4s-2.9.5-4,1.4c-1,.9-1.7,2.2-1.9,3.8Z"/>
      <path class="cls-3" d="M3047.2,1408.6v-15.1h-5.4v-2.5h5.4v-4.5c0-1,.3-1.7.8-2.3.5-.6,1.3-.8,2.3-.8h4.4v2.4h-3.6c-.7,0-1.1.4-1.1,1.1v4.1h5.5v2.5h-5.5v15.1h-2.8Z"/>
      <path class="cls-3" d="M3067.7,1409.1c-1.8,0-3.3-.4-4.7-1.1-1.3-.8-2.4-1.8-3.1-3.2-.7-1.4-1.1-3-1.1-4.8v-.4c0-1.8.4-3.4,1.1-4.8.7-1.4,1.8-2.4,3.1-3.2,1.3-.8,2.8-1.1,4.5-1.1s3.1.4,4.4,1.1c1.3.7,2.3,1.7,3,3,.7,1.3,1.1,2.9,1.1,4.6v1.3h-14.4c0,1.9.7,3.4,1.8,4.4,1.2,1.1,2.6,1.6,4.3,1.6s2.7-.3,3.5-1c.8-.7,1.4-1.5,1.9-2.5l2.4,1.2c-.4.7-.9,1.5-1.5,2.2-.6.7-1.5,1.4-2.5,1.9-1,.5-2.3.8-3.9.8ZM3061.6,1398.2h11.4c0-1.6-.7-2.9-1.7-3.8-1-.9-2.3-1.4-3.9-1.4s-2.9.5-4,1.4c-1,.9-1.7,2.2-1.9,3.8Z"/>
      <path class="cls-3" d="M3094.6,1408.6l-6.3-17.6h3l5.3,15.5h.5l5.3-15.5h3l-6.3,17.6h-4.5Z"/>
      <path class="cls-3" d="M3117.7,1409.1c-1.8,0-3.3-.4-4.7-1.1-1.4-.7-2.4-1.8-3.2-3.2-.8-1.4-1.1-3-1.1-4.8v-.5c0-1.8.4-3.4,1.1-4.8.8-1.4,1.8-2.4,3.2-3.2,1.4-.7,2.9-1.1,4.7-1.1s3.3.4,4.7,1.1c1.4.7,2.4,1.8,3.2,3.2.8,1.4,1.1,3,1.1,4.8v.5c0,1.8-.4,3.5-1.1,4.8-.8,1.4-1.8,2.4-3.2,3.2-1.4.7-2.9,1.1-4.7,1.1ZM3117.7,1406.6c1.9,0,3.4-.6,4.5-1.8,1.1-1.2,1.7-2.8,1.7-4.8v-.3c0-2-.6-3.6-1.7-4.8-1.1-1.2-2.6-1.8-4.5-1.8s-3.3.6-4.5,1.8c-1.1,1.2-1.7,2.8-1.7,4.8v.3c0,2,.6,3.6,1.7,4.8,1.1,1.2,2.6,1.8,4.5,1.8Z"/>
      <path class="cls-3" d="M3131.8,1408.6v-17.6h2.8v3h.5c.4-.8,1-1.6,2-2.3s2.3-1,4.1-1,2.5.3,3.5.8c1,.6,1.9,1.4,2.5,2.4.6,1.1.9,2.4.9,4v10.7h-2.8v-10.4c0-1.8-.4-3-1.3-3.8s-2.1-1.2-3.5-1.2-3.1.6-4.2,1.7c-1.1,1.1-1.6,2.7-1.6,4.9v8.9h-2.8Z"/>
      <path class="cls-3" d="M3172.9,1409.1c-1.8,0-3.2-.3-4.3-1-1-.7-1.8-1.5-2.2-2.4h-.5v2.9h-2.8v-25.2h2.8v10.4h.5c.3-.6.7-1.1,1.2-1.6.5-.5,1.2-.9,2.1-1.2.9-.3,1.9-.5,3.1-.5s2.9.4,4.2,1.1c1.3.7,2.3,1.8,3,3.1.7,1.4,1.1,3,1.1,4.8v.5c0,1.9-.4,3.5-1.1,4.9s-1.8,2.4-3,3.1c-1.3.7-2.6,1.1-4.2,1.1ZM3172.2,1406.6c1.8,0,3.3-.6,4.4-1.7,1.1-1.2,1.7-2.8,1.7-4.9v-.3c0-2.1-.6-3.7-1.7-4.9s-2.6-1.7-4.4-1.7-3.3.6-4.4,1.7-1.7,2.8-1.7,4.9v.3c0,2.1.6,3.7,1.7,4.9,1.2,1.2,2.6,1.7,4.4,1.7Z"/>
      <path class="cls-3" d="M3187.8,1388.3c-.6,0-1.1-.2-1.6-.6-.4-.4-.6-.9-.6-1.5s.2-1.2.6-1.6c.4-.4.9-.6,1.6-.6s1.1.2,1.5.6c.4.4.6.9.6,1.6s-.2,1.1-.6,1.5c-.4.4-.9.6-1.5.6ZM3186.3,1408.6v-17.6h2.8v17.6h-2.8Z"/>
      <path class="cls-3" d="M3202.3,1409.1c-2.2,0-4-.5-5.5-1.5-1.5-1-2.4-2.6-2.7-4.8l2.7-.6c.2,1.2.6,2.1,1.1,2.7.5.7,1.2,1.1,2,1.4.8.3,1.6.4,2.5.4,1.3,0,2.4-.3,3.1-.8.8-.5,1.2-1.2,1.2-2.1s-.4-1.6-1.1-1.9-1.7-.7-3-.9l-1.5-.3c-1.1-.2-2.2-.5-3.1-.9-.9-.4-1.7-1-2.2-1.7-.6-.7-.8-1.6-.8-2.6,0-1.6.6-2.8,1.8-3.7,1.2-.9,2.8-1.3,4.9-1.3s3.6.4,4.8,1.4c1.2.9,2,2.2,2.4,3.8l-2.7.7c-.2-1.3-.7-2.2-1.5-2.7-.8-.5-1.8-.8-3-.8s-2.1.2-2.8.7c-.7.4-1,1.1-1,2s.3,1.5,1,1.9,1.5.7,2.6.9l1.5.3c1.2.2,2.4.5,3.4.9,1,.4,1.8.9,2.4,1.6.6.7.9,1.6.9,2.7,0,1.7-.6,3.1-1.9,4-1.3.9-3,1.4-5.2,1.4Z"/>
      <path class="cls-3" d="M3222.6,1408.6v-3.7l11.2-11.1v-.4h-10.8v-2.5h13.8v3.7l-11.2,11.1v.4h11.5v2.4h-14.5Z"/>
      <path class="cls-3" d="M3248.9,1408.9c-1.3,0-2.4-.3-3.5-.8-1.1-.6-1.9-1.4-2.5-2.5-.6-1.1-.9-2.4-.9-4v-10.7h2.8v10.4c0,1.8.4,3,1.3,3.8s2.1,1.2,3.5,1.2,3.1-.6,4.1-1.7c1.1-1.1,1.6-2.7,1.6-4.9v-8.9h2.8v17.6h-2.8v-3h-.5c-.4.8-1,1.6-2,2.3-.9.7-2.3,1-4.1,1Z"/>
      <path class="cls-3" d="M3279.7,1408.6v-23.3h-.5l-4.9,9h-3.2l6-10.9h5.5v25.2h-2.9Z"/>
      <path class="cls-3" d="M3297,1409.1c-2.9,0-5.1-.8-6.8-2.5-1.7-1.7-2.5-4.2-2.5-7.6v-5.9c0-3.4.8-5.9,2.5-7.6,1.7-1.7,4-2.6,6.8-2.6s5.2.9,6.9,2.6,2.5,4.2,2.5,7.6v5.9c0,3.4-.8,5.9-2.5,7.6-1.7,1.7-4,2.5-6.9,2.5ZM3297,1406.5c2.2,0,3.8-.6,4.9-1.9s1.6-3.1,1.6-5.4v-6.2c0-2.3-.6-4.1-1.7-5.4-1.1-1.3-2.7-1.9-4.8-1.9s-3.7.6-4.8,1.9c-1.1,1.3-1.6,3.1-1.6,5.4v6.2c0,2.4.5,4.2,1.6,5.5,1.1,1.3,2.7,1.9,4.8,1.9Z"/>
      <path class="cls-3" d="M3320.1,1409.1c-2.9,0-5.1-.8-6.8-2.5-1.7-1.7-2.5-4.2-2.5-7.6v-5.9c0-3.4.8-5.9,2.5-7.6,1.7-1.7,4-2.6,6.8-2.6s5.2.9,6.9,2.6,2.5,4.2,2.5,7.6v5.9c0,3.4-.8,5.9-2.5,7.6-1.7,1.7-4,2.5-6.9,2.5ZM3320.1,1406.5c2.2,0,3.8-.6,4.9-1.9s1.6-3.1,1.6-5.4v-6.2c0-2.3-.6-4.1-1.7-5.4-1.1-1.3-2.7-1.9-4.8-1.9s-3.7.6-4.8,1.9c-1.1,1.3-1.6,3.1-1.6,5.4v6.2c0,2.4.5,4.2,1.6,5.5,1.1,1.3,2.7,1.9,4.8,1.9Z"/>
      <path class="cls-3" d="M3343.8,1408.6v-25.2h5.8l6.7,23.3h.5l6.7-23.3h5.8v25.2h-2.9v-23.2h-.5l-6.7,23.2h-5.2l-6.7-23.2h-.5v23.2h-2.9Z"/>
      <path class="cls-3" d="M3383.1,1409.1c-1.8,0-3.3-.4-4.7-1.1-1.3-.8-2.4-1.8-3.1-3.2-.7-1.4-1.1-3-1.1-4.8v-.4c0-1.8.4-3.4,1.1-4.8.7-1.4,1.8-2.4,3.1-3.2,1.3-.8,2.8-1.1,4.5-1.1s3.1.4,4.4,1.1c1.3.7,2.3,1.7,3,3,.7,1.3,1.1,2.9,1.1,4.6v1.3h-14.4c0,1.9.7,3.4,1.8,4.4,1.2,1.1,2.6,1.6,4.3,1.6s2.7-.3,3.5-1c.8-.7,1.4-1.5,1.9-2.5l2.4,1.2c-.4.7-.9,1.5-1.5,2.2-.6.7-1.5,1.4-2.5,1.9-1,.5-2.3.8-3.9.8ZM3377,1398.2h11.4c0-1.6-.7-2.9-1.7-3.8-1-.9-2.3-1.4-3.9-1.4s-2.9.5-4,1.4c-1,.9-1.7,2.2-1.9,3.8Z"/>
      <path class="cls-3" d="M3402.8,1408.6c-1,0-1.8-.3-2.3-.8-.5-.6-.8-1.3-.8-2.3v-12h-5.3v-2.5h5.3v-6.3h2.8v6.3h5.8v2.5h-5.8v11.6c0,.7.3,1.1,1,1.1h3.9v2.4h-4.7Z"/>
      <path class="cls-3" d="M3420.9,1409.1c-1.8,0-3.3-.4-4.7-1.1-1.3-.8-2.4-1.8-3.1-3.2-.7-1.4-1.1-3-1.1-4.8v-.4c0-1.8.4-3.4,1.1-4.8.7-1.4,1.8-2.4,3.1-3.2,1.3-.8,2.8-1.1,4.5-1.1s3.1.4,4.4,1.1c1.3.7,2.3,1.7,3,3,.7,1.3,1.1,2.9,1.1,4.6v1.3h-14.4c0,1.9.7,3.4,1.8,4.4,1.2,1.1,2.6,1.6,4.3,1.6s2.7-.3,3.5-1c.8-.7,1.4-1.5,1.9-2.5l2.4,1.2c-.4.7-.9,1.5-1.5,2.2-.6.7-1.5,1.4-2.5,1.9-1,.5-2.3.8-3.9.8ZM3414.9,1398.2h11.4c0-1.6-.7-2.9-1.7-3.8-1-.9-2.3-1.4-3.9-1.4s-2.9.5-4,1.4c-1,.9-1.7,2.2-1.9,3.8Z"/>
      <path class="cls-3" d="M3434.2,1408.6v-17.6h2.8v2.2h.5c.3-.8.8-1.3,1.4-1.7.6-.4,1.5-.5,2.6-.5h2.1v2.6h-2.3c-1.3,0-2.3.4-3.1,1.1-.8.7-1.2,1.8-1.2,3.3v10.7h-2.8Z"/>
      <path class="cls-3" d="M3447.8,1408.6v-17.6h2.8v3h.5c.4-.8,1-1.6,2-2.3s2.3-1,4.1-1,2.5.3,3.5.8c1,.6,1.9,1.4,2.5,2.4.6,1.1.9,2.4.9,4v10.7h-2.8v-10.4c0-1.8-.4-3-1.3-3.8s-2.1-1.2-3.5-1.2-3.1.6-4.2,1.7c-1.1,1.1-1.6,2.7-1.6,4.9v8.9h-2.8Z"/>
      <path class="cls-3" d="M3486.5,1409.1c-1.5,0-2.9-.4-4.2-1.1-1.3-.7-2.3-1.8-3-3.1-.7-1.4-1.1-3-1.1-4.9v-.5c0-1.9.4-3.5,1.1-4.8.7-1.4,1.7-2.4,3-3.1s2.7-1.1,4.2-1.1,2.3.2,3.1.5c.9.3,1.5.7,2.1,1.2.5.5.9,1,1.2,1.6h.5v-10.4h2.8v25.2h-2.8v-2.9h-.5c-.5.9-1.2,1.7-2.2,2.4-1,.7-2.4,1-4.2,1ZM3487.3,1406.6c1.8,0,3.3-.6,4.4-1.7,1.1-1.2,1.7-2.8,1.7-4.9v-.3c0-2.1-.6-3.7-1.7-4.9s-2.6-1.7-4.4-1.7-3.3.6-4.4,1.7-1.7,2.8-1.7,4.9v.3c0,2.1.6,3.7,1.7,4.9,1.2,1.2,2.6,1.7,4.4,1.7Z"/>
      <path class="cls-3" d="M3503.7,1388.3c-.6,0-1.1-.2-1.6-.6-.4-.4-.6-.9-.6-1.5s.2-1.2.6-1.6c.4-.4.9-.6,1.6-.6s1.1.2,1.5.6c.4.4.6.9.6,1.6s-.2,1.1-.6,1.5c-.4.4-.9.6-1.5.6ZM3502.3,1408.6v-17.6h2.8v17.6h-2.8Z"/>
      <path class="cls-3" d="M3519.2,1409.1c-1.8,0-3.3-.4-4.7-1.1-1.3-.8-2.4-1.8-3.1-3.2-.7-1.4-1.1-3-1.1-4.8v-.4c0-1.8.4-3.4,1.1-4.8.7-1.4,1.8-2.4,3.1-3.2,1.3-.8,2.8-1.1,4.5-1.1s3.1.4,4.4,1.1c1.3.7,2.3,1.7,3,3,.7,1.3,1.1,2.9,1.1,4.6v1.3h-14.4c0,1.9.7,3.4,1.8,4.4,1.2,1.1,2.6,1.6,4.3,1.6s2.7-.3,3.5-1c.8-.7,1.4-1.5,1.9-2.5l2.4,1.2c-.4.7-.9,1.5-1.5,2.2-.6.7-1.5,1.4-2.5,1.9-1,.5-2.3.8-3.9.8ZM3513.1,1398.2h11.4c0-1.6-.7-2.9-1.7-3.8-1-.9-2.3-1.4-3.9-1.4s-2.9.5-4,1.4c-1,.9-1.7,2.2-1.9,3.8Z"/>
      <path class="cls-3" d="M2644.8,1443.1v-.5c0-1.8.4-3.4,1.1-4.8.7-1.3,1.8-2.3,3-3.1,1.3-.7,2.7-1.1,4.2-1.1s3.3.4,4.3,1.1c1,.7,1.7,1.5,2.2,2.4h.5v-2.9h2.7v21.7c0,1-.3,1.7-.8,2.3-.5.6-1.3.8-2.3.8h-12v-2.5h11.2c.7,0,1.1-.4,1.1-1.1v-6.7h-.5c-.3.5-.7,1-1.2,1.5-.5.5-1.2.9-2.1,1.2-.8.3-1.9.5-3.1.5s-2.9-.4-4.2-1.1c-1.3-.7-2.3-1.7-3-3.1-.7-1.3-1.1-2.9-1.1-4.7ZM2653.9,1449.5c1.8,0,3.3-.6,4.4-1.7,1.1-1.2,1.7-2.7,1.7-4.8v-.3c0-2-.6-3.6-1.7-4.8s-2.6-1.7-4.4-1.7-3.3.6-4.4,1.7-1.7,2.7-1.7,4.8v.3c0,2,.6,3.6,1.7,4.8,1.2,1.2,2.6,1.7,4.4,1.7Z"/>
      <path class="cls-3" d="M2668.8,1451.8v-17.6h2.8v2.2h.5c.3-.8.8-1.3,1.4-1.7.6-.4,1.5-.5,2.6-.5h2.1v2.6h-2.3c-1.3,0-2.3.4-3.1,1.1-.8.7-1.2,1.8-1.2,3.3v10.7h-2.8Z"/>
      <path class="cls-3" d="M2690.5,1452.3c-1.8,0-3.3-.4-4.7-1.1-1.4-.7-2.4-1.8-3.2-3.1s-1.1-3-1.1-4.8v-.5c0-1.8.4-3.4,1.1-4.8s1.8-2.4,3.2-3.2c1.4-.7,2.9-1.1,4.7-1.1s3.3.4,4.7,1.1c1.4.7,2.4,1.8,3.2,3.2s1.1,3,1.1,4.8v.5c0,1.8-.4,3.5-1.1,4.8s-1.8,2.4-3.2,3.1c-1.4.7-2.9,1.1-4.7,1.1ZM2690.5,1449.8c1.9,0,3.4-.6,4.5-1.8,1.1-1.2,1.7-2.8,1.7-4.8v-.3c0-2-.6-3.6-1.7-4.8-1.1-1.2-2.6-1.8-4.5-1.8s-3.3.6-4.5,1.8c-1.1,1.2-1.7,2.8-1.7,4.8v.3c0,2,.6,3.6,1.7,4.8,1.1,1.2,2.6,1.8,4.5,1.8ZM2687.1,1431.5c-.6,0-1.1-.2-1.5-.6-.4-.4-.6-.9-.6-1.6s.2-1.2.6-1.5c.4-.4.9-.6,1.5-.6s1.1.2,1.5.6.6.9.6,1.5-.2,1.2-.6,1.6c-.4.4-.9.6-1.5.6ZM2693.8,1431.5c-.6,0-1.1-.2-1.5-.6-.4-.4-.6-.9-.6-1.6s.2-1.2.6-1.5.9-.6,1.5-.6,1.2.2,1.6.6c.4.4.6.9.6,1.5s-.2,1.2-.6,1.6-.9.6-1.6.6Z"/>
      <path class="cls-3" d="M2711.7,1452.3c-2.2,0-4-.5-5.5-1.5s-2.4-2.6-2.7-4.8l2.7-.6c.2,1.2.6,2.1,1.1,2.7.5.7,1.2,1.1,2,1.4.8.3,1.6.4,2.5.4,1.3,0,2.4-.3,3.1-.8.8-.5,1.2-1.2,1.2-2.1s-.4-1.6-1.1-1.9-1.7-.7-3-.9l-1.5-.3c-1.1-.2-2.2-.5-3.1-.9-.9-.4-1.7-1-2.2-1.7-.6-.7-.8-1.6-.8-2.6,0-1.6.6-2.8,1.8-3.7,1.2-.9,2.8-1.3,4.9-1.3s3.6.5,4.8,1.4c1.2.9,2,2.2,2.4,3.8l-2.7.7c-.2-1.3-.7-2.2-1.5-2.7-.8-.5-1.8-.8-3-.8s-2.1.2-2.8.7c-.7.4-1,1.1-1,2s.3,1.5,1,1.9,1.5.7,2.6.9l1.5.3c1.2.2,2.4.5,3.4.9,1,.4,1.8.9,2.4,1.6.6.7.9,1.6.9,2.7,0,1.7-.6,3.1-1.9,4-1.3.9-3,1.4-5.2,1.4Z"/>
      <path class="cls-3" d="M2730.7,1452.3c-2.2,0-4-.5-5.5-1.5s-2.4-2.6-2.7-4.8l2.7-.6c.2,1.2.6,2.1,1.1,2.7.5.7,1.2,1.1,2,1.4.8.3,1.6.4,2.5.4,1.3,0,2.4-.3,3.1-.8.8-.5,1.2-1.2,1.2-2.1s-.4-1.6-1.1-1.9-1.7-.7-3-.9l-1.5-.3c-1.1-.2-2.2-.5-3.1-.9-.9-.4-1.7-1-2.2-1.7-.6-.7-.8-1.6-.8-2.6,0-1.6.6-2.8,1.8-3.7,1.2-.9,2.8-1.3,4.9-1.3s3.6.5,4.8,1.4c1.2.9,2,2.2,2.4,3.8l-2.7.7c-.2-1.3-.7-2.2-1.5-2.7-.8-.5-1.8-.8-3-.8s-2.1.2-2.8.7c-.7.4-1,1.1-1,2s.3,1.5,1,1.9,1.5.7,2.6.9l1.5.3c1.2.2,2.4.5,3.4.9,1,.4,1.8.9,2.4,1.6.6.7.9,1.6.9,2.7,0,1.7-.6,3.1-1.9,4-1.3.9-3,1.4-5.2,1.4Z"/>
      <path class="cls-3" d="M2749,1451.8c-1,0-1.8-.3-2.3-.8-.5-.6-.8-1.3-.8-2.3v-12h-5.3v-2.5h5.3v-6.3h2.8v6.3h5.8v2.5h-5.8v11.6c0,.7.3,1.1,1,1.1h3.9v2.4h-4.7Z"/>
      <path class="cls-3" d="M2767.2,1452.3c-1.8,0-3.3-.4-4.7-1.1-1.3-.8-2.4-1.8-3.1-3.2-.7-1.4-1.1-3-1.1-4.8v-.4c0-1.8.4-3.4,1.1-4.8.7-1.4,1.8-2.4,3.1-3.2,1.3-.8,2.8-1.1,4.5-1.1s3.1.4,4.4,1.1,2.3,1.7,3,3c.7,1.3,1.1,2.9,1.1,4.6v1.3h-14.4c0,1.9.7,3.4,1.8,4.4,1.2,1.1,2.6,1.6,4.3,1.6s2.7-.3,3.5-1c.8-.7,1.4-1.5,1.9-2.5l2.4,1.2c-.4.7-.9,1.5-1.5,2.2-.6.7-1.5,1.4-2.5,1.9-1,.5-2.3.8-3.9.8ZM2761.1,1441.4h11.4c0-1.6-.7-2.9-1.7-3.8-1-.9-2.3-1.4-3.9-1.4s-2.9.5-4,1.4c-1,.9-1.7,2.2-1.9,3.8Z"/>
      <path class="cls-3" d="M2794.8,1451.8v-22.5h-8.1v-2.7h19.2v2.7h-8.1v22.5h-3Z"/>
      <path class="cls-3" d="M2809.9,1451.8v-25.2h2.8v10.4h.5c.2-.5.6-1,1.1-1.5s1.1-.9,1.9-1.2c.8-.3,1.8-.5,3-.5s2.5.3,3.5.8c1,.6,1.9,1.4,2.5,2.4.6,1.1.9,2.4.9,4v10.7h-2.8v-10.4c0-1.8-.4-3-1.3-3.8s-2.1-1.2-3.5-1.2-3.1.6-4.2,1.7c-1.1,1.1-1.6,2.7-1.6,4.9v8.9h-2.8Z"/>
      <path class="cls-3" d="M2840,1452.3c-1.8,0-3.3-.4-4.7-1.1-1.3-.8-2.4-1.8-3.1-3.2-.7-1.4-1.1-3-1.1-4.8v-.4c0-1.8.4-3.4,1.1-4.8.7-1.4,1.8-2.4,3.1-3.2,1.3-.8,2.8-1.1,4.5-1.1s3.1.4,4.4,1.1,2.3,1.7,3,3c.7,1.3,1.1,2.9,1.1,4.6v1.3h-14.4c0,1.9.7,3.4,1.8,4.4,1.2,1.1,2.6,1.6,4.3,1.6s2.7-.3,3.5-1c.8-.7,1.4-1.5,1.9-2.5l2.4,1.2c-.4.7-.9,1.5-1.5,2.2-.6.7-1.5,1.4-2.5,1.9-1,.5-2.3.8-3.9.8ZM2834,1441.4h11.4c0-1.6-.7-2.9-1.7-3.8-1-.9-2.3-1.4-3.9-1.4s-2.9.5-4,1.4c-1,.9-1.7,2.2-1.9,3.8Z"/>
      <path class="cls-3" d="M2853.3,1451.8v-17.6h2.8v2.2h.5c.3-.8.8-1.3,1.4-1.7.6-.4,1.5-.5,2.6-.5h2.1v2.6h-2.3c-1.3,0-2.3.4-3.1,1.1-.8.7-1.2,1.8-1.2,3.3v10.7h-2.8Z"/>
      <path class="cls-3" d="M2866.8,1451.8v-17.6h2.8v2.2h.5c.3-.6.9-1.2,1.7-1.7.8-.5,1.8-.8,3.2-.8s2.5.3,3.3.9c.9.6,1.5,1.3,1.9,2.2h.5c.4-.9,1-1.6,1.9-2.2.8-.6,2-.9,3.5-.9s2.2.2,3.1.7c.9.5,1.6,1.2,2.1,2.1.5.9.8,2,.8,3.2v11.9h-2.8v-11.7c0-1.2-.3-2.1-1-2.8-.7-.7-1.6-1-2.9-1s-2.4.4-3.2,1.3c-.8.8-1.2,2.1-1.2,3.6v10.6h-2.8v-11.7c0-1.2-.3-2.1-1-2.8-.7-.7-1.6-1-2.9-1s-2.4.4-3.2,1.3-1.2,2.1-1.2,3.6v10.6h-2.8Z"/>
      <path class="cls-3" d="M2905.9,1452.3c-1.8,0-3.3-.4-4.7-1.1-1.4-.7-2.4-1.8-3.2-3.1s-1.1-3-1.1-4.8v-.5c0-1.8.4-3.4,1.1-4.8s1.8-2.4,3.2-3.2c1.4-.7,2.9-1.1,4.7-1.1s3.3.4,4.7,1.1c1.4.7,2.4,1.8,3.2,3.2s1.1,3,1.1,4.8v.5c0,1.8-.4,3.5-1.1,4.8s-1.8,2.4-3.2,3.1c-1.4.7-2.9,1.1-4.7,1.1ZM2905.9,1449.8c1.9,0,3.4-.6,4.5-1.8,1.1-1.2,1.7-2.8,1.7-4.8v-.3c0-2-.6-3.6-1.7-4.8-1.1-1.2-2.6-1.8-4.5-1.8s-3.3.6-4.5,1.8c-1.1,1.2-1.7,2.8-1.7,4.8v.3c0,2,.6,3.6,1.7,4.8,1.1,1.2,2.6,1.8,4.5,1.8Z"/>
      <path class="cls-3" d="M2920.1,1451.8v-25.2h2.8v14.8h.5l8.1-7.2h4l-9.8,8.6,10,9h-3.9l-8.4-7.7h-.5v7.7h-2.8Z"/>
      <path class="cls-3" d="M2944.8,1452.3c-1.2,0-2.3-.2-3.3-.6-1-.4-1.8-1.1-2.4-1.9-.6-.8-.9-1.8-.9-3s.3-2.2.9-3,1.4-1.4,2.4-1.8c1-.4,2.1-.6,3.4-.6h5.9v-1.3c0-1.2-.4-2.2-1.1-3s-1.8-1.1-3.3-1.1-2.5.3-3.3,1c-.8.7-1.3,1.6-1.6,2.8l-2.7-.9c.3-1,.7-1.9,1.4-2.7.6-.8,1.5-1.5,2.5-1.9,1-.5,2.3-.7,3.8-.7,2.3,0,4,.6,5.3,1.7,1.2,1.2,1.9,2.8,1.9,4.9v8c0,.7.3,1.1,1,1.1h1.6v2.4h-2.5c-.8,0-1.4-.2-1.9-.7-.5-.4-.7-1-.7-1.8v-.2h-.4c-.3.5-.6.9-1.1,1.4-.4.5-1.1.9-1.8,1.2-.8.3-1.8.5-3,.5ZM2945.1,1449.9c1.7,0,3-.5,4.1-1.5,1-1,1.6-2.4,1.6-4.2v-.4h-5.8c-1.1,0-2.1.2-2.8.7-.7.5-1.1,1.2-1.1,2.2s.4,1.8,1.1,2.3c.8.6,1.7.8,2.9.8Z"/>
      <path class="cls-3" d="M2960.1,1451.8v-17.6h2.8v2.2h.5c.3-.8.8-1.3,1.4-1.7.6-.4,1.5-.5,2.6-.5h2.1v2.6h-2.3c-1.3,0-2.3.4-3.1,1.1-.8.7-1.2,1.8-1.2,3.3v10.7h-2.8Z"/>
      <path class="cls-3" d="M2980.8,1452.3c-2.2,0-4-.5-5.5-1.5s-2.4-2.6-2.7-4.8l2.7-.6c.2,1.2.6,2.1,1.1,2.7.5.7,1.2,1.1,2,1.4.8.3,1.6.4,2.5.4,1.3,0,2.4-.3,3.1-.8.8-.5,1.2-1.2,1.2-2.1s-.4-1.6-1.1-1.9-1.7-.7-3-.9l-1.5-.3c-1.1-.2-2.2-.5-3.1-.9-.9-.4-1.7-1-2.2-1.7-.6-.7-.8-1.6-.8-2.6,0-1.6.6-2.8,1.8-3.7,1.2-.9,2.8-1.3,4.9-1.3s3.6.5,4.8,1.4c1.2.9,2,2.2,2.4,3.8l-2.7.7c-.2-1.3-.7-2.2-1.5-2.7-.8-.5-1.8-.8-3-.8s-2.1.2-2.8.7c-.7.4-1,1.1-1,2s.3,1.5,1,1.9,1.5.7,2.6.9l1.5.3c1.2.2,2.4.5,3.4.9,1,.4,1.8.9,2.4,1.6.6.7.9,1.6.9,2.7,0,1.7-.6,3.1-1.9,4-1.3.9-3,1.4-5.2,1.4Z"/>
      <path class="cls-3" d="M2999.1,1451.8c-1,0-1.8-.3-2.3-.8-.5-.6-.8-1.3-.8-2.3v-12h-5.3v-2.5h5.3v-6.3h2.8v6.3h5.8v2.5h-5.8v11.6c0,.7.3,1.1,1,1.1h3.9v2.4h-4.7Z"/>
      <path class="cls-3" d="M3009.1,1443.9v-2.6h10.7v2.6h-10.7Z"/>
      <path class="cls-3" d="M3031.1,1451.8l-7.6-25.2h3.1l6.9,23.4h.5l6.9-23.4h3.1l-7.6,25.2h-5.3Z"/>
      <path class="cls-3" d="M3056,1452.3c-1.8,0-3.3-.4-4.7-1.1-1.3-.8-2.4-1.8-3.1-3.2-.7-1.4-1.1-3-1.1-4.8v-.4c0-1.8.4-3.4,1.1-4.8.7-1.4,1.8-2.4,3.1-3.2,1.3-.8,2.8-1.1,4.5-1.1s3.1.4,4.4,1.1,2.3,1.7,3,3c.7,1.3,1.1,2.9,1.1,4.6v1.3h-14.4c0,1.9.7,3.4,1.8,4.4,1.2,1.1,2.6,1.6,4.3,1.6s2.7-.3,3.5-1c.8-.7,1.4-1.5,1.9-2.5l2.4,1.2c-.4.7-.9,1.5-1.5,2.2-.6.7-1.5,1.4-2.5,1.9-1,.5-2.3.8-3.9.8ZM3049.9,1441.4h11.4c0-1.6-.7-2.9-1.7-3.8-1-.9-2.3-1.4-3.9-1.4s-2.9.5-4,1.4c-1,.9-1.7,2.2-1.9,3.8Z"/>
      <path class="cls-3" d="M3069.2,1451.8v-17.6h2.8v2.2h.5c.3-.8.8-1.3,1.4-1.7.6-.4,1.5-.5,2.6-.5h2.1v2.6h-2.3c-1.3,0-2.3.4-3.1,1.1-.8.7-1.2,1.8-1.2,3.3v10.7h-2.8Z"/>
      <path class="cls-3" d="M3089.3,1451.8c-1,0-1.8-.3-2.3-.8-.5-.6-.8-1.3-.8-2.3v-12h-5.3v-2.5h5.3v-6.3h2.8v6.3h5.8v2.5h-5.8v11.6c0,.7.3,1.1,1,1.1h3.9v2.4h-4.7Z"/>
      <path class="cls-3" d="M3100.8,1431.5c-.6,0-1.1-.2-1.6-.6-.4-.4-.6-.9-.6-1.5s.2-1.2.6-1.6c.4-.4.9-.6,1.6-.6s1.1.2,1.5.6.6.9.6,1.6-.2,1.1-.6,1.5c-.4.4-.9.6-1.5.6ZM3099.3,1451.8v-17.6h2.8v17.6h-2.8Z"/>
      <path class="cls-3" d="M3116.2,1452.3c-1.8,0-3.3-.4-4.7-1.1-1.3-.8-2.4-1.8-3.1-3.2-.7-1.4-1.1-3-1.1-4.8v-.4c0-1.8.4-3.4,1.1-4.8.7-1.4,1.8-2.4,3.1-3.2,1.3-.8,2.8-1.1,4.5-1.1s3.1.4,4.4,1.1,2.3,1.7,3,3c.7,1.3,1.1,2.9,1.1,4.6v1.3h-14.4c0,1.9.7,3.4,1.8,4.4,1.2,1.1,2.6,1.6,4.3,1.6s2.7-.3,3.5-1c.8-.7,1.4-1.5,1.9-2.5l2.4,1.2c-.4.7-.9,1.5-1.5,2.2-.6.7-1.5,1.4-2.5,1.9-1,.5-2.3.8-3.9.8ZM3110.2,1441.4h11.4c0-1.6-.7-2.9-1.7-3.8-1-.9-2.3-1.4-3.9-1.4s-2.9.5-4,1.4c-1,.9-1.7,2.2-1.9,3.8Z"/>
      <path class="cls-3" d="M3132.9,1451.8v-15.1h-5.4v-2.5h5.4v-4.5c0-1,.3-1.7.8-2.3.5-.6,1.3-.8,2.3-.8h4.4v2.4h-3.6c-.7,0-1.1.4-1.1,1.1v4.1h5.5v2.5h-5.5v15.1h-2.8Z"/>
      <path class="cls-3" d="M3152.1,1452.1c-1.3,0-2.4-.3-3.5-.8-1.1-.6-1.9-1.4-2.5-2.5-.6-1.1-.9-2.4-.9-4v-10.7h2.8v10.4c0,1.8.4,3,1.3,3.8s2.1,1.2,3.5,1.2,3.1-.6,4.1-1.7c1.1-1.1,1.6-2.7,1.6-4.9v-8.9h2.8v17.6h-2.8v-3h-.5c-.4.8-1,1.6-2,2.3-.9.7-2.3,1-4.1,1Z"/>
      <path class="cls-3" d="M3167.4,1451.8v-17.6h2.8v3h.5c.4-.8,1-1.6,2-2.3.9-.7,2.3-1,4.1-1s2.5.3,3.5.8,1.9,1.4,2.5,2.4c.6,1.1.9,2.4.9,4v10.7h-2.8v-10.4c0-1.8-.4-3-1.3-3.8s-2.1-1.2-3.5-1.2-3.1.6-4.2,1.7c-1.1,1.1-1.6,2.7-1.6,4.9v8.9h-2.8Z"/>
      <path class="cls-3" d="M3188.6,1443.1v-.5c0-1.8.4-3.4,1.1-4.8.7-1.3,1.8-2.3,3-3.1,1.3-.7,2.7-1.1,4.2-1.1s3.3.4,4.3,1.1c1,.7,1.7,1.5,2.2,2.4h.5v-2.9h2.7v21.7c0,1-.3,1.7-.8,2.3-.5.6-1.3.8-2.3.8h-12v-2.5h11.2c.7,0,1.1-.4,1.1-1.1v-6.7h-.5c-.3.5-.7,1-1.2,1.5-.5.5-1.2.9-2.1,1.2-.8.3-1.9.5-3.1.5s-2.9-.4-4.2-1.1c-1.3-.7-2.3-1.7-3-3.1-.7-1.3-1.1-2.9-1.1-4.7ZM3197.7,1449.5c1.8,0,3.3-.6,4.4-1.7,1.1-1.2,1.7-2.7,1.7-4.8v-.3c0-2-.6-3.6-1.7-4.8s-2.6-1.7-4.4-1.7-3.3.6-4.4,1.7-1.7,2.7-1.7,4.8v.3c0,2,.6,3.6,1.7,4.8,1.2,1.2,2.6,1.7,4.4,1.7Z"/>
      <path class="cls-3" d="M3229.3,1452.3c-1.5,0-2.9-.4-4.2-1.1s-2.3-1.8-3-3.1c-.7-1.4-1.1-3-1.1-4.9v-.5c0-1.9.4-3.5,1.1-4.8.7-1.4,1.7-2.4,3-3.1s2.7-1.1,4.2-1.1,2.3.2,3.1.5,1.5.7,2.1,1.2c.5.5.9,1,1.2,1.6h.5v-10.4h2.8v25.2h-2.8v-2.9h-.5c-.5.9-1.2,1.7-2.2,2.4-1,.7-2.4,1-4.2,1ZM3230,1449.8c1.8,0,3.3-.6,4.4-1.7s1.7-2.8,1.7-4.9v-.3c0-2.1-.6-3.7-1.7-4.9s-2.6-1.7-4.4-1.7-3.3.6-4.4,1.7-1.7,2.8-1.7,4.9v.3c0,2.1.6,3.7,1.7,4.9s2.6,1.7,4.4,1.7Z"/>
      <path class="cls-3" d="M3253.1,1452.3c-1.8,0-3.3-.4-4.7-1.1-1.3-.8-2.4-1.8-3.1-3.2-.7-1.4-1.1-3-1.1-4.8v-.4c0-1.8.4-3.4,1.1-4.8.7-1.4,1.8-2.4,3.1-3.2,1.3-.8,2.8-1.1,4.5-1.1s3.1.4,4.4,1.1,2.3,1.7,3,3c.7,1.3,1.1,2.9,1.1,4.6v1.3h-14.4c0,1.9.7,3.4,1.8,4.4,1.2,1.1,2.6,1.6,4.3,1.6s2.7-.3,3.5-1c.8-.7,1.4-1.5,1.9-2.5l2.4,1.2c-.4.7-.9,1.5-1.5,2.2-.6.7-1.5,1.4-2.5,1.9-1,.5-2.3.8-3.9.8ZM3247,1441.4h11.4c0-1.6-.7-2.9-1.7-3.8-1-.9-2.3-1.4-3.9-1.4s-2.9.5-4,1.4c-1,.9-1.7,2.2-1.9,3.8Z"/>
      <path class="cls-3" d="M3266.3,1451.8v-17.6h2.8v2.2h.5c.3-.8.8-1.3,1.4-1.7.6-.4,1.5-.5,2.6-.5h2.1v2.6h-2.3c-1.3,0-2.3.4-3.1,1.1-.8.7-1.2,1.8-1.2,3.3v10.7h-2.8Z"/>
      <path class="cls-3" d="M3291.4,1451.8l-4.1-25.2h3l3.6,23.3h.5l4.6-23.3h5.4l4.6,23.3h.5l3.6-23.3h3l-4.1,25.2h-5.4l-4.6-23.4h-.5l-4.6,23.4h-5.4Z"/>
      <path class="cls-3" d="M3328.5,1452.3c-1.8,0-3.3-.4-4.7-1.1-1.3-.8-2.4-1.8-3.1-3.2-.7-1.4-1.1-3-1.1-4.8v-.4c0-1.8.4-3.4,1.1-4.8.7-1.4,1.8-2.4,3.1-3.2,1.3-.8,2.8-1.1,4.5-1.1s3.1.4,4.4,1.1,2.3,1.7,3,3c.7,1.3,1.1,2.9,1.1,4.6v1.3h-14.4c0,1.9.7,3.4,1.8,4.4,1.2,1.1,2.6,1.6,4.3,1.6s2.7-.3,3.5-1c.8-.7,1.4-1.5,1.9-2.5l2.4,1.2c-.4.7-.9,1.5-1.5,2.2-.6.7-1.5,1.4-2.5,1.9-1,.5-2.3.8-3.9.8ZM3322.4,1441.4h11.4c0-1.6-.7-2.9-1.7-3.8-1-.9-2.3-1.4-3.9-1.4s-2.9.5-4,1.4c-1,.9-1.7,2.2-1.9,3.8Z"/>
      <path class="cls-3" d="M3341.7,1451.8v-25.2h2.8v25.2h-2.8Z"/>
      <path class="cls-3" d="M3357,1451.8c-1,0-1.8-.3-2.3-.8-.5-.6-.8-1.3-.8-2.3v-12h-5.3v-2.5h5.3v-6.3h2.8v6.3h5.8v2.5h-5.8v11.6c0,.7.3,1.1,1,1.1h3.9v2.4h-4.7Z"/>
      <path class="cls-3" d="M3368.6,1452.3c-.7,0-1.3-.2-1.7-.7-.5-.5-.7-1-.7-1.8s.2-1.3.7-1.8,1-.7,1.7-.7,1.3.2,1.8.7.7,1,.7,1.8-.2,1.3-.7,1.8c-.5.5-1,.7-1.8.7Z"/>
      <path class="cls-3" d="M3383,1451.8v-2.7h3.5v-19.8h-3.5v-2.7h9.8c3.3,0,5.9.8,7.7,2.5,1.8,1.7,2.7,4.3,2.7,7.7v4.7c0,3.5-.9,6.1-2.7,7.8-1.8,1.7-4.4,2.5-7.7,2.5h-9.8ZM3389.5,1449.1h3.3c2.4,0,4.3-.6,5.5-1.8,1.2-1.2,1.9-3.1,1.9-5.6v-4.9c0-2.6-.6-4.4-1.9-5.6-1.2-1.2-3.1-1.8-5.5-1.8h-3.3v19.7Z"/>
      <path class="cls-3" d="M3416.2,1452.3c-1.8,0-3.3-.4-4.7-1.1-1.3-.8-2.4-1.8-3.1-3.2-.7-1.4-1.1-3-1.1-4.8v-.4c0-1.8.4-3.4,1.1-4.8.7-1.4,1.8-2.4,3.1-3.2,1.3-.8,2.8-1.1,4.5-1.1s3.1.4,4.4,1.1,2.3,1.7,3,3c.7,1.3,1.1,2.9,1.1,4.6v1.3h-14.4c0,1.9.7,3.4,1.8,4.4,1.2,1.1,2.6,1.6,4.3,1.6s2.7-.3,3.5-1c.8-.7,1.4-1.5,1.9-2.5l2.4,1.2c-.4.7-.9,1.5-1.5,2.2-.6.7-1.5,1.4-2.5,1.9-1,.5-2.3.8-3.9.8ZM3410.2,1441.4h11.4c0-1.6-.7-2.9-1.7-3.8-1-.9-2.3-1.4-3.9-1.4s-2.9.5-4,1.4c-1,.9-1.7,2.2-1.9,3.8Z"/>
      <path class="cls-3" d="M3429.4,1451.8v-17.6h2.8v2.2h.5c.3-.8.8-1.3,1.4-1.7.6-.4,1.5-.5,2.6-.5h2.1v2.6h-2.3c-1.3,0-2.3.4-3.1,1.1-.8.7-1.2,1.8-1.2,3.3v10.7h-2.8Z"/>
      <path class="cls-3" d="M3452.2,1451.8v-25.2h3v11h.5l10.7-11h4l-12.3,12.5,12.7,12.7h-4.1l-11-11.2h-.5v11.2h-3Z"/>
      <path class="cls-3" d="M3474.2,1451.8v-17.6h2.8v2.2h.5c.3-.8.8-1.3,1.4-1.7.6-.4,1.5-.5,2.6-.5h2.1v2.6h-2.3c-1.3,0-2.3.4-3.1,1.1-.8.7-1.2,1.8-1.2,3.3v10.7h-2.8Z"/>
      <path class="cls-3" d="M3493.2,1452.3c-1.2,0-2.3-.2-3.3-.6-1-.4-1.8-1.1-2.4-1.9-.6-.8-.9-1.8-.9-3s.3-2.2.9-3,1.4-1.4,2.4-1.8c1-.4,2.1-.6,3.4-.6h5.9v-1.3c0-1.2-.4-2.2-1.1-3s-1.8-1.1-3.3-1.1-2.5.3-3.3,1c-.8.7-1.3,1.6-1.6,2.8l-2.7-.9c.3-1,.7-1.9,1.4-2.7.6-.8,1.5-1.5,2.5-1.9,1-.5,2.3-.7,3.8-.7,2.3,0,4,.6,5.3,1.7,1.2,1.2,1.9,2.8,1.9,4.9v8c0,.7.3,1.1,1,1.1h1.6v2.4h-2.5c-.8,0-1.4-.2-1.9-.7-.5-.4-.7-1-.7-1.8v-.2h-.4c-.3.5-.6.9-1.1,1.4-.4.5-1.1.9-1.8,1.2-.8.3-1.8.5-3,.5ZM3493.5,1449.9c1.7,0,3-.5,4.1-1.5,1-1,1.6-2.4,1.6-4.2v-.4h-5.8c-1.1,0-2.1.2-2.8.7-.7.5-1.1,1.2-1.1,2.2s.4,1.8,1.1,2.3c.8.6,1.7.8,2.9.8Z"/>
      <path class="cls-3" d="M3515,1451.8c-1,0-1.8-.3-2.3-.8-.5-.6-.8-1.3-.8-2.3v-12h-5.3v-2.5h5.3v-6.3h2.8v6.3h5.8v2.5h-5.8v11.6c0,.7.3,1.1,1,1.1h3.9v2.4h-4.7Z"/>
      <path class="cls-3" d="M3533.1,1452.3c-1.8,0-3.3-.4-4.7-1.1-1.3-.8-2.4-1.8-3.1-3.2-.7-1.4-1.1-3-1.1-4.8v-.4c0-1.8.4-3.4,1.1-4.8.7-1.4,1.8-2.4,3.1-3.2,1.3-.8,2.8-1.1,4.5-1.1s3.1.4,4.4,1.1,2.3,1.7,3,3c.7,1.3,1.1,2.9,1.1,4.6v1.3h-14.4c0,1.9.7,3.4,1.8,4.4,1.2,1.1,2.6,1.6,4.3,1.6s2.7-.3,3.5-1c.8-.7,1.4-1.5,1.9-2.5l2.4,1.2c-.4.7-.9,1.5-1.5,2.2-.6.7-1.5,1.4-2.5,1.9-1,.5-2.3.8-3.9.8ZM3527.1,1441.4h11.4c0-1.6-.7-2.9-1.7-3.8-1-.9-2.3-1.4-3.9-1.4s-2.9.5-4,1.4c-1,.9-1.7,2.2-1.9,3.8Z"/>
      <path class="cls-3" d="M3546.4,1451.8v-17.6h2.8v2.2h.5c.3-.8.8-1.3,1.4-1.7.6-.4,1.5-.5,2.6-.5h2.1v2.6h-2.3c-1.3,0-2.3.4-3.1,1.1-.8.7-1.2,1.8-1.2,3.3v10.7h-2.8Z"/>
      <path class="cls-3" d="M2653.7,1495.5c-1.8,0-3.3-.4-4.7-1.1-1.3-.8-2.4-1.8-3.1-3.2-.7-1.4-1.1-3-1.1-4.8v-.4c0-1.8.4-3.4,1.1-4.8.7-1.4,1.8-2.4,3.1-3.2,1.3-.8,2.8-1.1,4.5-1.1s3.1.4,4.4,1.1,2.3,1.7,3,3c.7,1.3,1.1,2.9,1.1,4.6v1.3h-14.4c0,1.9.7,3.4,1.8,4.4,1.2,1.1,2.6,1.6,4.3,1.6s2.7-.3,3.5-1c.8-.7,1.4-1.5,1.9-2.5l2.4,1.2c-.4.7-.9,1.5-1.5,2.2-.6.7-1.5,1.4-2.5,1.9-1,.5-2.3.8-3.9.8ZM2647.7,1484.6h11.4c0-1.6-.7-2.9-1.7-3.8-1-.9-2.3-1.4-3.9-1.4s-2.9.5-4,1.4c-1,.9-1.7,2.2-1.9,3.8Z"/>
      <path class="cls-3" d="M2667,1495v-17.6h2.8v3h.5c.4-.8,1-1.6,2-2.3.9-.7,2.3-1,4.1-1s2.5.3,3.5.8,1.9,1.4,2.5,2.4c.6,1.1.9,2.4.9,4v10.7h-2.8v-10.4c0-1.8-.4-3-1.3-3.8s-2.1-1.2-3.5-1.2-3.1.6-4.2,1.7c-1.1,1.1-1.6,2.7-1.6,4.9v8.9h-2.8Z"/>
      <path class="cls-3" d="M2695.5,1495c-1,0-1.8-.3-2.3-.8-.5-.6-.8-1.3-.8-2.3v-12h-5.3v-2.5h5.3v-6.3h2.8v6.3h5.8v2.5h-5.8v11.6c0,.7.3,1.1,1,1.1h3.9v2.4h-4.7Z"/>
      <path class="cls-3" d="M2712.7,1495.5c-2.2,0-4-.5-5.5-1.5s-2.4-2.6-2.7-4.8l2.7-.6c.2,1.2.6,2.1,1.1,2.7.5.7,1.2,1.1,2,1.4.8.3,1.6.4,2.5.4,1.3,0,2.4-.3,3.1-.8.8-.5,1.2-1.2,1.2-2.1s-.4-1.6-1.1-1.9-1.7-.7-3-.9l-1.5-.3c-1.1-.2-2.2-.5-3.1-.9-.9-.4-1.7-1-2.2-1.7-.6-.7-.8-1.6-.8-2.6,0-1.6.6-2.8,1.8-3.7,1.2-.9,2.8-1.3,4.9-1.3s3.6.5,4.8,1.4c1.2.9,2,2.2,2.4,3.8l-2.7.7c-.2-1.3-.7-2.2-1.5-2.7-.8-.5-1.8-.8-3-.8s-2.1.2-2.8.7c-.7.4-1,1.1-1,2s.3,1.5,1,1.9,1.5.7,2.6.9l1.5.3c1.2.2,2.4.5,3.4.9,1,.4,1.8.9,2.4,1.6.6.7.9,1.6.9,2.7,0,1.7-.6,3.1-1.9,4-1.3.9-3,1.4-5.2,1.4Z"/>
      <path class="cls-3" d="M2731.1,1495c-1,0-1.8-.3-2.3-.8-.5-.6-.8-1.3-.8-2.3v-12h-5.3v-2.5h5.3v-6.3h2.8v6.3h5.8v2.5h-5.8v11.6c0,.7.3,1.1,1,1.1h3.9v2.4h-4.7Z"/>
      <path class="cls-3" d="M2746.5,1495.5c-1.2,0-2.3-.2-3.3-.6-1-.4-1.8-1.1-2.4-1.9-.6-.8-.9-1.8-.9-3s.3-2.2.9-3,1.4-1.4,2.4-1.8c1-.4,2.1-.6,3.4-.6h5.9v-1.3c0-1.2-.4-2.2-1.1-3s-1.8-1.1-3.3-1.1-2.5.3-3.3,1c-.8.7-1.3,1.6-1.6,2.8l-2.7-.9c.3-1,.7-1.9,1.4-2.7.6-.8,1.5-1.5,2.5-1.9,1-.5,2.3-.7,3.8-.7,2.3,0,4,.6,5.3,1.7,1.2,1.2,1.9,2.8,1.9,4.9v8c0,.7.3,1.1,1,1.1h1.6v2.4h-2.5c-.8,0-1.4-.2-1.9-.7-.5-.4-.7-1-.7-1.8v-.2h-.4c-.3.5-.6.9-1.1,1.4-.4.5-1.1.9-1.8,1.2-.8.3-1.8.5-3,.5ZM2746.9,1493.1c1.7,0,3-.5,4.1-1.5,1-1,1.6-2.4,1.6-4.2v-.4h-5.8c-1.1,0-2.1.2-2.8.7-.7.5-1.1,1.2-1.1,2.2s.4,1.8,1.1,2.3c.8.6,1.7.8,2.9.8Z"/>
      <path class="cls-3" d="M2761.8,1495v-17.6h2.8v3h.5c.4-.8,1-1.6,2-2.3.9-.7,2.3-1,4.1-1s2.5.3,3.5.8,1.9,1.4,2.5,2.4c.6,1.1.9,2.4.9,4v10.7h-2.8v-10.4c0-1.8-.4-3-1.3-3.8s-2.1-1.2-3.5-1.2-3.1.6-4.2,1.7c-1.1,1.1-1.6,2.7-1.6,4.9v8.9h-2.8Z"/>
      <path class="cls-3" d="M2791.4,1495.5c-1.5,0-2.9-.4-4.2-1.1s-2.3-1.8-3-3.1c-.7-1.4-1.1-3-1.1-4.9v-.5c0-1.9.4-3.5,1.1-4.8.7-1.4,1.7-2.4,3-3.1s2.7-1.1,4.2-1.1,2.3.2,3.1.5,1.5.7,2.1,1.2c.5.5.9,1,1.2,1.6h.5v-10.4h2.8v25.2h-2.8v-2.9h-.5c-.5.9-1.2,1.7-2.2,2.4-1,.7-2.4,1-4.2,1ZM2792.1,1493c1.8,0,3.3-.6,4.4-1.7s1.7-2.8,1.7-4.9v-.3c0-2.1-.6-3.7-1.7-4.9s-2.6-1.7-4.4-1.7-3.3.6-4.4,1.7-1.7,2.8-1.7,4.9v.3c0,2.1.6,3.7,1.7,4.9s2.6,1.7,4.4,1.7Z"/>
      <path class="cls-3" d="M2823.8,1495.5c-1.5,0-2.9-.4-4.2-1.1s-2.3-1.8-3-3.1c-.7-1.4-1.1-3-1.1-4.9v-.5c0-1.9.4-3.5,1.1-4.8.7-1.4,1.7-2.4,3-3.1s2.7-1.1,4.2-1.1,2.3.2,3.1.5,1.5.7,2.1,1.2c.5.5.9,1,1.2,1.6h.5v-10.4h2.8v25.2h-2.8v-2.9h-.5c-.5.9-1.2,1.7-2.2,2.4-1,.7-2.4,1-4.2,1ZM2824.5,1493c1.8,0,3.3-.6,4.4-1.7s1.7-2.8,1.7-4.9v-.3c0-2.1-.6-3.7-1.7-4.9s-2.6-1.7-4.4-1.7-3.3.6-4.4,1.7-1.7,2.8-1.7,4.9v.3c0,2.1.6,3.7,1.7,4.9s2.6,1.7,4.4,1.7Z"/>
      <path class="cls-3" d="M2846.3,1495.3c-1.3,0-2.4-.3-3.5-.8-1.1-.6-1.9-1.4-2.5-2.5-.6-1.1-.9-2.4-.9-4v-10.7h2.8v10.4c0,1.8.4,3,1.3,3.8s2.1,1.2,3.5,1.2,3.1-.6,4.1-1.7c1.1-1.1,1.6-2.7,1.6-4.9v-8.9h2.8v17.6h-2.8v-3h-.5c-.4.8-1,1.6-2,2.3-.9.7-2.3,1-4.1,1Z"/>
      <path class="cls-3" d="M2861.6,1495v-17.6h2.8v2.2h.5c.3-.8.8-1.3,1.4-1.7.6-.4,1.5-.5,2.6-.5h2.1v2.6h-2.3c-1.3,0-2.3.4-3.1,1.1-.8.7-1.2,1.8-1.2,3.3v10.7h-2.8Z"/>
      <path class="cls-3" d="M2883.2,1495.5c-1.7,0-3.2-.4-4.6-1.1-1.4-.7-2.4-1.8-3.2-3.2-.8-1.4-1.2-3-1.2-4.9v-.4c0-1.9.4-3.5,1.2-4.9.8-1.4,1.8-2.4,3.2-3.1,1.4-.7,2.9-1.1,4.6-1.1s3.1.3,4.3.9c1.2.6,2.1,1.5,2.8,2.5.7,1,1.1,2.1,1.3,3.3l-2.8.6c-.1-.9-.4-1.7-.8-2.4-.4-.7-1.1-1.3-1.9-1.7-.8-.4-1.8-.6-2.9-.6s-2.2.3-3.2.8-1.7,1.3-2.2,2.3c-.5,1-.8,2.2-.8,3.5v.3c0,1.4.3,2.5.8,3.5.5,1,1.3,1.7,2.2,2.3s2,.8,3.2.8c1.8,0,3.1-.5,4-1.4s1.5-2,1.7-3.4l2.8.6c-.3,1.2-.7,2.2-1.4,3.3-.7,1-1.6,1.9-2.8,2.5-1.2.6-2.6.9-4.3.9Z"/>
      <path class="cls-3" d="M2896.7,1495v-25.2h2.8v10.4h.5c.2-.5.6-1,1.1-1.5s1.1-.9,1.9-1.2c.8-.3,1.8-.5,3-.5s2.5.3,3.5.8c1,.6,1.9,1.4,2.5,2.4.6,1.1.9,2.4.9,4v10.7h-2.8v-10.4c0-1.8-.4-3-1.3-3.8s-2.1-1.2-3.5-1.2-3.1.6-4.2,1.7c-1.1,1.1-1.6,2.7-1.6,4.9v8.9h-2.8Z"/>
      <path class="cls-3" d="M2935.4,1495.5c-1.5,0-2.9-.4-4.2-1.1s-2.3-1.8-3-3.1c-.7-1.4-1.1-3-1.1-4.9v-.5c0-1.9.4-3.5,1.1-4.8.7-1.4,1.7-2.4,3-3.1s2.7-1.1,4.2-1.1,2.3.2,3.1.5,1.5.7,2.1,1.2c.5.5.9,1,1.2,1.6h.5v-10.4h2.8v25.2h-2.8v-2.9h-.5c-.5.9-1.2,1.7-2.2,2.4-1,.7-2.4,1-4.2,1ZM2936.2,1493c1.8,0,3.3-.6,4.4-1.7s1.7-2.8,1.7-4.9v-.3c0-2.1-.6-3.7-1.7-4.9s-2.6-1.7-4.4-1.7-3.3.6-4.4,1.7-1.7,2.8-1.7,4.9v.3c0,2.1.6,3.7,1.7,4.9s2.6,1.7,4.4,1.7Z"/>
      <path class="cls-3" d="M2956.6,1495.5c-1.2,0-2.3-.2-3.3-.6-1-.4-1.8-1.1-2.4-1.9-.6-.8-.9-1.8-.9-3s.3-2.2.9-3,1.4-1.4,2.4-1.8c1-.4,2.1-.6,3.4-.6h5.9v-1.3c0-1.2-.4-2.2-1.1-3s-1.8-1.1-3.3-1.1-2.5.3-3.3,1c-.8.7-1.3,1.6-1.6,2.8l-2.7-.9c.3-1,.7-1.9,1.4-2.7.6-.8,1.5-1.5,2.5-1.9,1-.5,2.3-.7,3.8-.7,2.3,0,4,.6,5.3,1.7,1.2,1.2,1.9,2.8,1.9,4.9v8c0,.7.3,1.1,1,1.1h1.6v2.4h-2.5c-.8,0-1.4-.2-1.9-.7-.5-.4-.7-1-.7-1.8v-.2h-.4c-.3.5-.6.9-1.1,1.4-.4.5-1.1.9-1.8,1.2-.8.3-1.8.5-3,.5ZM2956.9,1493.1c1.7,0,3-.5,4.1-1.5,1-1,1.6-2.4,1.6-4.2v-.4h-5.8c-1.1,0-2.1.2-2.8.7-.7.5-1.1,1.2-1.1,2.2s.4,1.8,1.1,2.3c.8.6,1.7.8,2.9.8Z"/>
      <path class="cls-3" d="M2978.9,1495.5c-2.2,0-4-.5-5.5-1.5s-2.4-2.6-2.7-4.8l2.7-.6c.2,1.2.6,2.1,1.1,2.7.5.7,1.2,1.1,2,1.4.8.3,1.6.4,2.5.4,1.3,0,2.4-.3,3.1-.8.8-.5,1.2-1.2,1.2-2.1s-.4-1.6-1.1-1.9-1.7-.7-3-.9l-1.5-.3c-1.1-.2-2.2-.5-3.1-.9-.9-.4-1.7-1-2.2-1.7-.6-.7-.8-1.6-.8-2.6,0-1.6.6-2.8,1.8-3.7,1.2-.9,2.8-1.3,4.9-1.3s3.6.5,4.8,1.4c1.2.9,2,2.2,2.4,3.8l-2.7.7c-.2-1.3-.7-2.2-1.5-2.7-.8-.5-1.8-.8-3-.8s-2.1.2-2.8.7c-.7.4-1,1.1-1,2s.3,1.5,1,1.9,1.5.7,2.6.9l1.5.3c1.2.2,2.4.5,3.4.9,1,.4,1.8.9,2.4,1.6.6.7.9,1.6.9,2.7,0,1.7-.6,3.1-1.9,4-1.3.9-3,1.4-5.2,1.4Z"/>
      <path class="cls-3" d="M2997.5,1495l7.8-25.2h5.3l7.8,25.2h-3.1l-1.9-6.4h-10.7l-1.9,6.4h-3.1ZM3003.4,1485.9h9.2l-4.3-14.3h-.5l-4.4,14.3Z"/>
      <path class="cls-3" d="M3032,1495.5c-1.8,0-3.2-.3-4.3-1-1-.7-1.8-1.5-2.2-2.4h-.5v2.9h-2.8v-25.2h2.8v10.4h.5c.3-.6.7-1.1,1.2-1.6.5-.5,1.2-.9,2.1-1.2.9-.3,1.9-.5,3.1-.5s2.9.4,4.2,1.1c1.3.7,2.3,1.8,3,3.1.7,1.4,1.1,3,1.1,4.8v.5c0,1.9-.4,3.5-1.1,4.9s-1.8,2.4-3,3.1c-1.3.7-2.6,1.1-4.2,1.1ZM3031.3,1493c1.8,0,3.3-.6,4.4-1.7s1.7-2.8,1.7-4.9v-.3c0-2.1-.6-3.7-1.7-4.9s-2.6-1.7-4.4-1.7-3.3.6-4.4,1.7-1.7,2.8-1.7,4.9v.3c0,2.1.6,3.7,1.7,4.9s2.6,1.7,4.4,1.7Z"/>
      <path class="cls-3" d="M3052.6,1495.5c-2.2,0-4-.5-5.5-1.5s-2.4-2.6-2.7-4.8l2.7-.6c.2,1.2.6,2.1,1.1,2.7.5.7,1.2,1.1,2,1.4.8.3,1.6.4,2.5.4,1.3,0,2.4-.3,3.1-.8.8-.5,1.2-1.2,1.2-2.1s-.4-1.6-1.1-1.9-1.7-.7-3-.9l-1.5-.3c-1.1-.2-2.2-.5-3.1-.9-.9-.4-1.7-1-2.2-1.7-.6-.7-.8-1.6-.8-2.6,0-1.6.6-2.8,1.8-3.7,1.2-.9,2.8-1.3,4.9-1.3s3.6.5,4.8,1.4c1.2.9,2,2.2,2.4,3.8l-2.7.7c-.2-1.3-.7-2.2-1.5-2.7-.8-.5-1.8-.8-3-.8s-2.1.2-2.8.7c-.7.4-1,1.1-1,2s.3,1.5,1,1.9,1.5.7,2.6.9l1.5.3c1.2.2,2.4.5,3.4.9,1,.4,1.8.9,2.4,1.6.6.7.9,1.6.9,2.7,0,1.7-.6,3.1-1.9,4-1.3.9-3,1.4-5.2,1.4Z"/>
      <path class="cls-3" d="M3072.5,1495.5c-1.7,0-3.2-.4-4.6-1.1-1.4-.7-2.4-1.8-3.2-3.2-.8-1.4-1.2-3-1.2-4.9v-.4c0-1.9.4-3.5,1.2-4.9.8-1.4,1.8-2.4,3.2-3.1,1.4-.7,2.9-1.1,4.6-1.1s3.1.3,4.3.9c1.2.6,2.1,1.5,2.8,2.5.7,1,1.1,2.1,1.3,3.3l-2.8.6c-.1-.9-.4-1.7-.8-2.4-.4-.7-1.1-1.3-1.9-1.7-.8-.4-1.8-.6-2.9-.6s-2.2.3-3.2.8-1.7,1.3-2.2,2.3c-.5,1-.8,2.2-.8,3.5v.3c0,1.4.3,2.5.8,3.5.5,1,1.3,1.7,2.2,2.3s2,.8,3.2.8c1.8,0,3.1-.5,4-1.4s1.5-2,1.7-3.4l2.8.6c-.3,1.2-.7,2.2-1.4,3.3-.7,1-1.6,1.9-2.8,2.5-1.2.6-2.6.9-4.3.9Z"/>
      <path class="cls-3" d="M3086,1495v-25.2h2.8v10.4h.5c.2-.5.6-1,1.1-1.5s1.1-.9,1.9-1.2c.8-.3,1.8-.5,3-.5s2.5.3,3.5.8c1,.6,1.9,1.4,2.5,2.4.6,1.1.9,2.4.9,4v10.7h-2.8v-10.4c0-1.8-.4-3-1.3-3.8s-2.1-1.2-3.5-1.2-3.1.6-4.2,1.7c-1.1,1.1-1.6,2.7-1.6,4.9v8.9h-2.8Z"/>
      <path class="cls-3" d="M3108,1495v-17.6h2.8v2.2h.5c.3-.6.9-1.2,1.7-1.7.8-.5,1.8-.8,3.2-.8s2.5.3,3.3.9c.9.6,1.5,1.3,1.9,2.2h.5c.4-.9,1-1.6,1.9-2.2.8-.6,2-.9,3.5-.9s2.2.2,3.1.7c.9.5,1.6,1.2,2.1,2.1.5.9.8,2,.8,3.2v11.9h-2.8v-11.7c0-1.2-.3-2.1-1-2.8-.7-.7-1.6-1-2.9-1s-2.4.4-3.2,1.3c-.8.8-1.2,2.1-1.2,3.6v10.6h-2.8v-11.7c0-1.2-.3-2.1-1-2.8-.7-.7-1.6-1-2.9-1s-2.4.4-3.2,1.3-1.2,2.1-1.2,3.6v10.6h-2.8Z"/>
      <path class="cls-3" d="M3147.1,1495.5c-1.8,0-3.3-.4-4.7-1.1-1.3-.8-2.4-1.8-3.1-3.2-.7-1.4-1.1-3-1.1-4.8v-.4c0-1.8.4-3.4,1.1-4.8.7-1.4,1.8-2.4,3.1-3.2,1.3-.8,2.8-1.1,4.5-1.1s3.1.4,4.4,1.1,2.3,1.7,3,3c.7,1.3,1.1,2.9,1.1,4.6v1.3h-14.4c0,1.9.7,3.4,1.8,4.4,1.2,1.1,2.6,1.6,4.3,1.6s2.7-.3,3.5-1c.8-.7,1.4-1.5,1.9-2.5l2.4,1.2c-.4.7-.9,1.5-1.5,2.2-.6.7-1.5,1.4-2.5,1.9-1,.5-2.3.8-3.9.8ZM3141,1484.6h11.4c0-1.6-.7-2.9-1.7-3.8-1-.9-2.3-1.4-3.9-1.4s-2.9.5-4,1.4c-1,.9-1.7,2.2-1.9,3.8Z"/>
      <path class="cls-3" d="M3160.3,1495v-25.2h2.8v25.2h-2.8Z"/>
      <path class="cls-3" d="M3168.3,1495v-3.7l11.2-11.1v-.4h-10.8v-2.5h13.8v3.7l-11.2,11.1v.4h11.5v2.4h-14.5Z"/>
      <path class="cls-3" d="M3196,1495.5c-1.8,0-3.3-.4-4.7-1.1-1.3-.8-2.4-1.8-3.1-3.2-.7-1.4-1.1-3-1.1-4.8v-.4c0-1.8.4-3.4,1.1-4.8.7-1.4,1.8-2.4,3.1-3.2,1.3-.8,2.8-1.1,4.5-1.1s3.1.4,4.4,1.1,2.3,1.7,3,3c.7,1.3,1.1,2.9,1.1,4.6v1.3h-14.4c0,1.9.7,3.4,1.8,4.4,1.2,1.1,2.6,1.6,4.3,1.6s2.7-.3,3.5-1c.8-.7,1.4-1.5,1.9-2.5l2.4,1.2c-.4.7-.9,1.5-1.5,2.2-.6.7-1.5,1.4-2.5,1.9-1,.5-2.3.8-3.9.8ZM3189.9,1484.6h11.4c0-1.6-.7-2.9-1.7-3.8-1-.9-2.3-1.4-3.9-1.4s-2.9.5-4,1.4c-1,.9-1.7,2.2-1.9,3.8Z"/>
      <path class="cls-3" d="M3209.2,1495v-17.6h2.8v3h.5c.4-.8,1-1.6,2-2.3.9-.7,2.3-1,4.1-1s2.5.3,3.5.8,1.9,1.4,2.5,2.4c.6,1.1.9,2.4.9,4v10.7h-2.8v-10.4c0-1.8-.4-3-1.3-3.8s-2.1-1.2-3.5-1.2-3.1.6-4.2,1.7c-1.1,1.1-1.6,2.7-1.6,4.9v8.9h-2.8Z"/>
      <path class="cls-3" d="M3248,1495.5c-1.5,0-2.9-.4-4.2-1.1s-2.3-1.8-3-3.1c-.7-1.4-1.1-3-1.1-4.9v-.5c0-1.9.4-3.5,1.1-4.8.7-1.4,1.7-2.4,3-3.1s2.7-1.1,4.2-1.1,2.3.2,3.1.5,1.5.7,2.1,1.2c.5.5.9,1,1.2,1.6h.5v-10.4h2.8v25.2h-2.8v-2.9h-.5c-.5.9-1.2,1.7-2.2,2.4-1,.7-2.4,1-4.2,1ZM3248.7,1493c1.8,0,3.3-.6,4.4-1.7s1.7-2.8,1.7-4.9v-.3c0-2.1-.6-3.7-1.7-4.9s-2.6-1.7-4.4-1.7-3.3.6-4.4,1.7-1.7,2.8-1.7,4.9v.3c0,2.1.6,3.7,1.7,4.9s2.6,1.7,4.4,1.7Z"/>
      <path class="cls-3" d="M3271.8,1495.5c-1.8,0-3.3-.4-4.7-1.1-1.3-.8-2.4-1.8-3.1-3.2-.7-1.4-1.1-3-1.1-4.8v-.4c0-1.8.4-3.4,1.1-4.8.7-1.4,1.8-2.4,3.1-3.2,1.3-.8,2.8-1.1,4.5-1.1s3.1.4,4.4,1.1,2.3,1.7,3,3c.7,1.3,1.1,2.9,1.1,4.6v1.3h-14.4c0,1.9.7,3.4,1.8,4.4,1.2,1.1,2.6,1.6,4.3,1.6s2.7-.3,3.5-1c.8-.7,1.4-1.5,1.9-2.5l2.4,1.2c-.4.7-.9,1.5-1.5,2.2-.6.7-1.5,1.4-2.5,1.9-1,.5-2.3.8-3.9.8ZM3265.7,1484.6h11.4c0-1.6-.7-2.9-1.7-3.8-1-.9-2.3-1.4-3.9-1.4s-2.9.5-4,1.4c-1,.9-1.7,2.2-1.9,3.8Z"/>
      <path class="cls-3" d="M3292.1,1495.5c-2.2,0-4-.5-5.5-1.5s-2.4-2.6-2.7-4.8l2.7-.6c.2,1.2.6,2.1,1.1,2.7.5.7,1.2,1.1,2,1.4.8.3,1.6.4,2.5.4,1.3,0,2.4-.3,3.1-.8.8-.5,1.2-1.2,1.2-2.1s-.4-1.6-1.1-1.9-1.7-.7-3-.9l-1.5-.3c-1.1-.2-2.2-.5-3.1-.9-.9-.4-1.7-1-2.2-1.7-.6-.7-.8-1.6-.8-2.6,0-1.6.6-2.8,1.8-3.7,1.2-.9,2.8-1.3,4.9-1.3s3.6.5,4.8,1.4c1.2.9,2,2.2,2.4,3.8l-2.7.7c-.2-1.3-.7-2.2-1.5-2.7-.8-.5-1.8-.8-3-.8s-2.1.2-2.8.7c-.7.4-1,1.1-1,2s.3,1.5,1,1.9,1.5.7,2.6.9l1.5.3c1.2.2,2.4.5,3.4.9,1,.4,1.8.9,2.4,1.6.6.7.9,1.6.9,2.7,0,1.7-.6,3.1-1.9,4-1.3.9-3,1.4-5.2,1.4Z"/>
      <path class="cls-3" d="M3313.1,1495v-25.2h9.6c1.5,0,2.9.3,4,.9,1.2.6,2.1,1.4,2.8,2.5.7,1.1,1,2.4,1,3.9v.5c0,1.5-.4,2.8-1.1,3.9s-1.7,1.9-2.9,2.5c-1.2.6-2.5.9-4,.9h-6.6v10.2h-3ZM3316.2,1482.1h6.3c1.6,0,2.9-.4,3.8-1.2.9-.8,1.4-1.9,1.4-3.4v-.4c0-1.5-.5-2.6-1.4-3.4s-2.2-1.2-3.8-1.2h-6.3v9.6Z"/>
      <path class="cls-3" d="M3342.9,1495.5c-1.8,0-3.3-.4-4.7-1.1-1.3-.8-2.4-1.8-3.1-3.2-.7-1.4-1.1-3-1.1-4.8v-.4c0-1.8.4-3.4,1.1-4.8.7-1.4,1.8-2.4,3.1-3.2,1.3-.8,2.8-1.1,4.5-1.1s3.1.4,4.4,1.1,2.3,1.7,3,3c.7,1.3,1.1,2.9,1.1,4.6v1.3h-14.4c0,1.9.7,3.4,1.8,4.4,1.2,1.1,2.6,1.6,4.3,1.6s2.7-.3,3.5-1c.8-.7,1.4-1.5,1.9-2.5l2.4,1.2c-.4.7-.9,1.5-1.5,2.2-.6.7-1.5,1.4-2.5,1.9-1,.5-2.3.8-3.9.8ZM3336.9,1484.6h11.4c0-1.6-.7-2.9-1.7-3.8-1-.9-2.3-1.4-3.9-1.4s-2.9.5-4,1.4c-1,.9-1.7,2.2-1.9,3.8Z"/>
      <path class="cls-3" d="M3356.2,1495v-17.6h2.8v2.2h.5c.3-.8.8-1.3,1.4-1.7.6-.4,1.5-.5,2.6-.5h2.1v2.6h-2.3c-1.3,0-2.3.4-3.1,1.1-.8.7-1.2,1.8-1.2,3.3v10.7h-2.8Z"/>
      <path class="cls-3" d="M3369.8,1495v-17.6h2.8v2.2h.5c.3-.6.9-1.2,1.7-1.7.8-.5,1.8-.8,3.2-.8s2.5.3,3.3.9c.9.6,1.5,1.3,1.9,2.2h.5c.4-.9,1-1.6,1.9-2.2.8-.6,2-.9,3.5-.9s2.2.2,3.1.7c.9.5,1.6,1.2,2.1,2.1.5.9.8,2,.8,3.2v11.9h-2.8v-11.7c0-1.2-.3-2.1-1-2.8-.7-.7-1.6-1-2.9-1s-2.4.4-3.2,1.3c-.8.8-1.2,2.1-1.2,3.6v10.6h-2.8v-11.7c0-1.2-.3-2.1-1-2.8-.7-.7-1.6-1-2.9-1s-2.4.4-3.2,1.3-1.2,2.1-1.2,3.6v10.6h-2.8Z"/>
      <path class="cls-3" d="M3406.1,1495.5c-1.2,0-2.3-.2-3.3-.6-1-.4-1.8-1.1-2.4-1.9-.6-.8-.9-1.8-.9-3s.3-2.2.9-3,1.4-1.4,2.4-1.8c1-.4,2.1-.6,3.4-.6h5.9v-1.3c0-1.2-.4-2.2-1.1-3s-1.8-1.1-3.3-1.1-2.5.3-3.3,1c-.8.7-1.3,1.6-1.6,2.8l-2.7-.9c.3-1,.7-1.9,1.4-2.7.6-.8,1.5-1.5,2.5-1.9,1-.5,2.3-.7,3.8-.7,2.3,0,4,.6,5.3,1.7,1.2,1.2,1.9,2.8,1.9,4.9v8c0,.7.3,1.1,1,1.1h1.6v2.4h-2.5c-.8,0-1.4-.2-1.9-.7-.5-.4-.7-1-.7-1.8v-.2h-.4c-.3.5-.6.9-1.1,1.4-.4.5-1.1.9-1.8,1.2-.8.3-1.8.5-3,.5ZM3406.4,1493.1c1.7,0,3-.5,4.1-1.5,1-1,1.6-2.4,1.6-4.2v-.4h-5.8c-1.1,0-2.1.2-2.8.7-.7.5-1.1,1.2-1.1,2.2s.4,1.8,1.1,2.3c.8.6,1.7.8,2.9.8Z"/>
      <path class="cls-3" d="M3424.9,1495v-15.1h-5.4v-2.5h5.4v-4.5c0-1,.3-1.7.8-2.3.5-.6,1.3-.8,2.3-.8h4.4v2.4h-3.6c-.7,0-1.1.4-1.1,1.1v4.1h5.5v2.5h-5.5v15.1h-2.8Z"/>
      <path class="cls-3" d="M3437.3,1495v-17.6h2.8v2.2h.5c.3-.8.8-1.3,1.4-1.7.6-.4,1.5-.5,2.6-.5h2.1v2.6h-2.3c-1.3,0-2.3.4-3.1,1.1-.8.7-1.2,1.8-1.2,3.3v10.7h-2.8Z"/>
      <path class="cls-3" d="M3459,1495.5c-1.8,0-3.3-.4-4.7-1.1-1.4-.7-2.4-1.8-3.2-3.1s-1.1-3-1.1-4.8v-.5c0-1.8.4-3.4,1.1-4.8s1.8-2.4,3.2-3.2c1.4-.7,2.9-1.1,4.7-1.1s3.3.4,4.7,1.1c1.4.7,2.4,1.8,3.2,3.2s1.1,3,1.1,4.8v.5c0,1.8-.4,3.5-1.1,4.8s-1.8,2.4-3.2,3.1c-1.4.7-2.9,1.1-4.7,1.1ZM3459,1493c1.9,0,3.4-.6,4.5-1.8,1.1-1.2,1.7-2.8,1.7-4.8v-.3c0-2-.6-3.6-1.7-4.8-1.1-1.2-2.6-1.8-4.5-1.8s-3.3.6-4.5,1.8c-1.1,1.2-1.7,2.8-1.7,4.8v.3c0,2,.6,3.6,1.7,4.8,1.1,1.2,2.6,1.8,4.5,1.8Z"/>
      <path class="cls-3" d="M3480.2,1495.5c-2.2,0-4-.5-5.5-1.5s-2.4-2.6-2.7-4.8l2.7-.6c.2,1.2.6,2.1,1.1,2.7.5.7,1.2,1.1,2,1.4.8.3,1.6.4,2.5.4,1.3,0,2.4-.3,3.1-.8.8-.5,1.2-1.2,1.2-2.1s-.4-1.6-1.1-1.9-1.7-.7-3-.9l-1.5-.3c-1.1-.2-2.2-.5-3.1-.9-.9-.4-1.7-1-2.2-1.7-.6-.7-.8-1.6-.8-2.6,0-1.6.6-2.8,1.8-3.7,1.2-.9,2.8-1.3,4.9-1.3s3.6.5,4.8,1.4c1.2.9,2,2.2,2.4,3.8l-2.7.7c-.2-1.3-.7-2.2-1.5-2.7-.8-.5-1.8-.8-3-.8s-2.1.2-2.8.7c-.7.4-1,1.1-1,2s.3,1.5,1,1.9,1.5.7,2.6.9l1.5.3c1.2.2,2.4.5,3.4.9,1,.4,1.8.9,2.4,1.6.6.7.9,1.6.9,2.7,0,1.7-.6,3.1-1.9,4-1.3.9-3,1.4-5.2,1.4Z"/>
      <path class="cls-3" d="M3498.6,1495c-1,0-1.8-.3-2.3-.8-.5-.6-.8-1.3-.8-2.3v-12h-5.3v-2.5h5.3v-6.3h2.8v6.3h5.8v2.5h-5.8v11.6c0,.7.3,1.1,1,1.1h3.9v2.4h-4.7Z"/>
      <path class="cls-3" d="M3508.5,1487.1v-2.6h10.7v2.6h-10.7Z"/>
      <path class="cls-3" d="M2655.4,1538.7c-1.8,0-3.2-.3-4.3-1-1-.7-1.8-1.5-2.2-2.4h-.5v2.9h-2.8v-25.2h2.8v10.4h.5c.3-.6.7-1.1,1.2-1.6.5-.5,1.2-.9,2.1-1.2.9-.3,1.9-.5,3.1-.5s2.9.4,4.2,1.1c1.3.7,2.3,1.8,3,3.1.7,1.4,1.1,3,1.1,4.8v.5c0,1.9-.4,3.5-1.1,4.9s-1.8,2.4-3,3.1c-1.3.7-2.6,1.1-4.2,1.1ZM2654.7,1536.2c1.8,0,3.3-.6,4.4-1.7s1.7-2.8,1.7-4.9v-.3c0-2.1-.6-3.7-1.7-4.9-1.1-1.2-2.6-1.7-4.4-1.7s-3.3.6-4.4,1.7c-1.2,1.2-1.7,2.8-1.7,4.9v.3c0,2.1.6,3.7,1.7,4.9s2.6,1.7,4.4,1.7Z"/>
      <path class="cls-3" d="M2677,1538.7c-1.8,0-3.3-.4-4.7-1.1-1.4-.7-2.4-1.8-3.2-3.1s-1.1-3-1.1-4.8v-.5c0-1.8.4-3.4,1.1-4.8.8-1.4,1.8-2.4,3.2-3.2,1.4-.7,2.9-1.1,4.7-1.1s3.3.4,4.7,1.1c1.4.7,2.4,1.8,3.2,3.2.8,1.4,1.1,3,1.1,4.8v.5c0,1.8-.4,3.5-1.1,4.8s-1.8,2.4-3.2,3.1c-1.4.7-2.9,1.1-4.7,1.1ZM2677,1536.2c1.9,0,3.4-.6,4.5-1.8,1.1-1.2,1.7-2.8,1.7-4.8v-.3c0-2-.6-3.6-1.7-4.8-1.1-1.2-2.6-1.8-4.5-1.8s-3.3.6-4.5,1.8c-1.1,1.2-1.7,2.8-1.7,4.8v.3c0,2,.6,3.6,1.7,4.8,1.1,1.2,2.6,1.8,4.5,1.8Z"/>
      <path class="cls-3" d="M2698.5,1538.7c-1.5,0-2.9-.4-4.2-1.1s-2.3-1.8-3-3.1c-.7-1.4-1.1-3-1.1-4.9v-.5c0-1.9.4-3.5,1.1-4.8.7-1.4,1.7-2.4,3-3.1s2.7-1.1,4.2-1.1,2.3.2,3.1.5,1.5.7,2.1,1.2c.5.5.9,1,1.2,1.6h.5v-10.4h2.8v25.2h-2.8v-2.9h-.5c-.5.9-1.2,1.7-2.2,2.4-1,.7-2.4,1-4.2,1ZM2699.3,1536.2c1.8,0,3.3-.6,4.4-1.7s1.7-2.8,1.7-4.9v-.3c0-2.1-.6-3.7-1.7-4.9-1.1-1.2-2.6-1.7-4.4-1.7s-3.3.6-4.4,1.7c-1.2,1.2-1.7,2.8-1.7,4.9v.3c0,2.1.6,3.7,1.7,4.9s2.6,1.7,4.4,1.7Z"/>
      <path class="cls-3" d="M2722.3,1538.7c-1.8,0-3.3-.4-4.7-1.1-1.3-.8-2.4-1.8-3.1-3.2-.7-1.4-1.1-3-1.1-4.8v-.4c0-1.8.4-3.4,1.1-4.8.7-1.4,1.8-2.4,3.1-3.2,1.3-.8,2.8-1.1,4.5-1.1s3.1.4,4.4,1.1,2.3,1.7,3,3c.7,1.3,1.1,2.9,1.1,4.6v1.3h-14.4c0,1.9.7,3.4,1.8,4.4,1.2,1.1,2.6,1.6,4.3,1.6s2.7-.3,3.5-1c.8-.7,1.4-1.5,1.9-2.5l2.4,1.2c-.4.7-.9,1.5-1.5,2.2-.6.7-1.5,1.4-2.5,1.9-1,.5-2.3.8-3.9.8ZM2716.3,1527.8h11.4c0-1.6-.7-2.9-1.7-3.8-1-.9-2.3-1.4-3.9-1.4s-2.9.5-4,1.4c-1,.9-1.7,2.2-1.9,3.8Z"/>
      <path class="cls-3" d="M2735.6,1538.2v-17.6h2.8v3h.5c.4-.8,1-1.6,2-2.3.9-.7,2.3-1,4.1-1s2.5.3,3.5.8,1.9,1.4,2.5,2.4c.6,1.1.9,2.4.9,4v10.7h-2.8v-10.4c0-1.8-.4-3-1.3-3.8s-2.1-1.2-3.5-1.2-3.1.6-4.2,1.7c-1.1,1.1-1.6,2.7-1.6,4.9v8.9h-2.8Z"/>
      <path class="cls-3" d="M2764.7,1538.7c-2.2,0-4-.5-5.5-1.5s-2.4-2.6-2.7-4.8l2.7-.6c.2,1.2.6,2.1,1.1,2.7.5.7,1.2,1.1,2,1.4.8.3,1.6.4,2.5.4,1.3,0,2.4-.3,3.1-.8.8-.5,1.2-1.2,1.2-2.1s-.4-1.6-1.1-1.9-1.7-.7-3-.9l-1.5-.3c-1.1-.2-2.2-.5-3.1-.9-.9-.4-1.7-1-2.2-1.7-.6-.7-.8-1.6-.8-2.6,0-1.6.6-2.8,1.8-3.7,1.2-.9,2.8-1.3,4.9-1.3s3.6.5,4.8,1.4c1.2.9,2,2.2,2.4,3.8l-2.7.7c-.2-1.3-.7-2.2-1.5-2.7-.8-.5-1.8-.8-3-.8s-2.1.2-2.8.7c-.7.4-1,1.1-1,2s.3,1.5,1,1.9,1.5.7,2.6.9l1.5.3c1.2.2,2.4.5,3.4.9,1,.4,1.8.9,2.4,1.6.6.7.9,1.6.9,2.7,0,1.7-.6,3.1-1.9,4-1.3.9-3,1.4-5.2,1.4Z"/>
      <path class="cls-3" d="M2778.2,1538.7c-.7,0-1.3-.2-1.7-.7-.5-.5-.7-1-.7-1.8s.2-1.3.7-1.8,1-.7,1.7-.7,1.3.2,1.8.7.7,1,.7,1.8-.2,1.3-.7,1.8c-.5.5-1,.7-1.8.7Z"/>
    </g>
  </g>
</svg>