<?xml version="1.0" encoding="UTF-8"?>
<svg xmlns="http://www.w3.org/2000/svg" version="1.1" viewBox="0 0 3840 2160">
  <defs>
    <style>
      .cls-1 {
        fill: #000;
      }

      .cls-1, .cls-2, .cls-3 {
        stroke-width: 0px;
      }

      .cls-4 {
        stroke-width: 2.8px;
      }

      .cls-4, .cls-5 {
        fill: none;
        stroke: #fff;
        stroke-miterlimit: 10;
      }

      .cls-2 {
        fill: #fff;
      }

      .cls-3 {
        fill: #deff7f;
        isolation: isolate;
        opacity: .2;
      }

      .cls-5 {
        stroke-dasharray: 0 0 0 0 0 0 17 17;
        stroke-width: 5.5px;
      }

      .cls-6 {
        display: none;
      }
    </style>
  </defs>
  <g id="Ebene_2" data-name="Ebene 2" class="cls-6">
    <rect class="cls-1" width="3840" height="2160"/>
  </g>
  <g id="Ebene_1" data-name="Ebene 1">
    <g id="Fläche">
      <circle class="cls-3" cx="1927.1" cy="1884.3" r="89.5"/>
    </g>
    <g id="Kontur">
      <polyline class="cls-5" points="1991.2 1821 2089.3 1765.4 2289.9 1657.8 2445.6 1566.7 2487.7 1536 2501.5 1515 2546 1498 2622.8 1547.2 2730.7 1590.3 2865.5 1652.9 2945.4 1705.7 3010.1 1682 3073.7 1633.5 3150.3 1580.6 3242 1541.8 3312.1 1511.3 3382.5 1464.4 3435.9 1432.8 3486.8 1394.8 3533 1365.7 3626.8 1322.8 3668.1 1279.9 3702.8 1237.9 3749 1216.8 3791.8 1220.1 3840 1246"/>
      <path class="cls-5" d="M0,1493.8l107.4,15.1,96,4.3,57.7-12.4,63.1-8.1,94.9,2.7,214.4,42.1,146.7,30.7,62.3,37.8,102.5,79.6,41-2.2,47.7,8.6,56.9,25.6,37.8,24,70.5,19,16.7,5.9,44.2,3.8,51.2,11.6s38.7,17.1,40.9,17.4,64.2,9.2,64.2,9.2l70.1,12.5,73.9,19.9,50.7,16.7,34.2,32.4,23.2,12.4h53.4l63.1,20.5,58.8,7.6,4.3-4.6"/>
      <polyline class="cls-5" points="3840 318.9 3816.9 313.2 3619.5 313.2 3557.2 339.5 3547.5 339.5 3514.8 317.7 3442.8 318.9 3401.9 349.6 3387.3 351.6 3366.7 370.6 3349.3 378.7 3283 407.7 3260.7 405.2 3231.6 398.8 3205.3 407.7 3194 402.4 3176.6 417.8 3154.8 421 3141.4 452.2 3090.4 501.1 3025.3 543.2 3002.7 543.2 2954.5 537.9 2920.6 518.9 2873.6 514.8 2816.6 487.5 2785.9 478.2 2740.8 455.8 2705.8 445.1 2688.4 452.4 2677.5 449.5 2656.4 469.7 2647.1 457.2 2627.7 484.3 2618.8 481.1 2594.5 501.7 2546.2 511.4 2522.3 505.7 2465.3 513 2420 505.3 2397.1 505.1 2366.4 481.7 2351.8 459 2295.2 402.4 2268.1 366 2254.4 368.8 2209 393.9 2191.3 392.7 2143.5 415.3 2136.2 419.8 2117.6 421 2082.4 437.2 1994.3 437.2 1983.7 428.2 1926.3 428.2 1893.1 446.3 1879.8 458 1840.1 477.4 1825 476.6 1815.7 472.2 1795 483.9 1774 485.5 1730.7 510.6 1640.2 582.9 1594.4 605 1570.1 582.3 1561.5 548.4 1566.8 484.7 1514 511.7 1455.7 537.6 1396.4 547.8 1372.1 548.6 1340.6 528 1282.8 539.7 1249.6 535.7 1222.9 540.5 1210.4 556.3 1101.7 554.9 1076.5 562.8 1038.4 587 970.5 610.1 921.3 626.1 829.1 623.3 744.6 622.4 659.8 618.8 637.6 609.9 598.8 582.8 521.3 580.2 447.3 564 252.2 700.4 233.1 700.4 156.8 659.7 94.8 620.5 51.9 587.3 17.9 568.4 0 563.9"/>
    </g>
    <line class="cls-4" x1="1863.8" y1="1821" x2="1795.5" y2="1752.7"/>
    <line class="cls-4" x1="2268.1" y1="366" x2="2268.1" y2="217.2"/>
    <g>
      <path class="cls-2" d="M1637.3,207.8c-2.4,0-4.5-.4-6.3-1.3-1.8-.8-3.3-2.1-4.3-3.7-1-1.6-1.6-3.6-1.6-6v-1.1h4.8v1.1c0,2.2.7,3.9,2,5,1.3,1.1,3.1,1.7,5.3,1.7s3.9-.5,5.1-1.4c1.1-.9,1.7-2.2,1.7-3.7s-.3-1.8-.8-2.4c-.5-.6-1.3-1.1-2.3-1.5-1-.4-2.2-.7-3.6-1.1l-1.7-.4c-2-.5-3.8-1.1-5.2-1.8-1.5-.7-2.6-1.6-3.4-2.8-.8-1.2-1.2-2.7-1.2-4.5s.5-3.4,1.4-4.8c.9-1.3,2.2-2.3,3.8-3.1,1.6-.7,3.5-1.1,5.7-1.1s4.1.4,5.9,1.1c1.7.8,3.1,1.9,4.1,3.3,1,1.5,1.5,3.3,1.5,5.5v1.6h-4.8v-1.6c0-1.4-.3-2.4-.8-3.3s-1.3-1.5-2.3-1.8c-1-.4-2.1-.6-3.5-.6-1.9,0-3.4.4-4.5,1.2-1.1.8-1.6,1.9-1.6,3.3s.2,1.7.7,2.4c.5.6,1.1,1.1,2,1.5.9.4,2,.7,3.4,1l1.7.4c2,.4,3.8,1,5.4,1.7,1.6.7,2.8,1.7,3.7,2.9.9,1.2,1.4,2.7,1.4,4.6s-.5,3.5-1.4,4.9c-.9,1.4-2.3,2.5-4,3.3-1.7.8-3.8,1.2-6.2,1.2Z"/>
      <path class="cls-2" d="M1664.4,207.8c-2.1,0-4.1-.4-5.8-1.4-1.7-.9-3.1-2.2-4.1-3.9-1-1.7-1.5-3.8-1.5-6.2v-.6c0-2.4.5-4.4,1.5-6.1,1-1.7,2.4-3,4.1-3.9,1.7-.9,3.7-1.4,5.8-1.4s3.9.4,5.4,1.2c1.5.8,2.7,1.8,3.6,3.1.9,1.3,1.5,2.7,1.8,4.3l-4.5.9c-.2-1-.5-1.9-.9-2.7-.5-.8-1.2-1.5-2-1.9-.9-.5-2-.7-3.3-.7s-2.5.3-3.5.9c-1,.6-1.9,1.4-2.5,2.5-.6,1.1-.9,2.4-.9,4v.4c0,1.6.3,2.9.9,4,.6,1.1,1.4,2,2.5,2.5,1,.6,2.2.9,3.5.9,1.9,0,3.4-.5,4.5-1.5,1-1,1.7-2.3,1.9-3.8l4.5,1c-.4,1.5-1,2.9-1.9,4.2-.9,1.3-2.1,2.3-3.6,3.1-1.5.8-3.3,1.1-5.4,1.1Z"/>
      <path class="cls-2" d="M1680.8,207.2v-31.5h4.6v12.5h.7c.3-.6.7-1.1,1.3-1.7.6-.5,1.3-1,2.2-1.3.9-.3,2.1-.5,3.5-.5s3.2.4,4.5,1.1c1.3.8,2.3,1.8,3.1,3.2.7,1.4,1.1,3,1.1,4.9v13.3h-4.6v-13c0-1.9-.5-3.3-1.4-4.3-1-.9-2.3-1.4-4-1.4s-3.5.6-4.6,1.9c-1.2,1.3-1.7,3.1-1.7,5.5v11.2h-4.6Z"/>
      <path class="cls-2" d="M1710.9,207.2l-3.8-22.2h4.6l2.8,19.1h.7l3.9-19.1h7.5l3.8,19.1h.7l2.8-19.1h4.6l-3.8,22.2h-7.8l-3.8-19h-.7l-3.8,19h-7.8Z"/>
      <path class="cls-2" d="M1754.3,207.8c-2.2,0-4.2-.5-5.9-1.4-1.7-.9-3-2.3-3.9-4-.9-1.7-1.4-3.7-1.4-6v-.5c0-2.3.5-4.3,1.4-6.1.9-1.7,2.2-3.1,3.9-4s3.6-1.4,5.8-1.4,4,.5,5.6,1.4c1.6.9,2.9,2.3,3.8,3.9.9,1.7,1.4,3.6,1.4,5.9v1.8h-17.1c0,2,.7,3.5,2,4.7,1.2,1.2,2.8,1.7,4.7,1.7s3.1-.4,3.9-1.2c.9-.8,1.6-1.7,2-2.7l3.8,2c-.4.8-1,1.7-1.8,2.7-.8.9-1.8,1.7-3.1,2.3-1.3.6-2.9.9-5,.9ZM1747.8,193.8h12.3c-.1-1.7-.7-3-1.8-3.9-1.1-.9-2.5-1.4-4.2-1.4s-3.2.5-4.3,1.4c-1.1.9-1.8,2.3-2,3.9Z"/>
      <path class="cls-2" d="M1772.7,182c-.9,0-1.7-.3-2.3-.9-.6-.6-.9-1.3-.9-2.3s.3-1.7.9-2.3c.6-.6,1.4-.9,2.3-.9s1.7.3,2.3.9c.6.6.9,1.3.9,2.3s-.3,1.7-.9,2.3c-.6.6-1.4.9-2.3.9ZM1770.4,207.2v-22.2h4.6v22.2h-4.6Z"/>
      <path class="cls-2" d="M1781,207.2v-5.7l13.1-12v-.6h-12.6v-3.9h17.7v5.7l-13.1,12v.6h13.5v3.9h-18.5Z"/>
      <path class="cls-2" d="M1815.4,207.8c-2.2,0-4.2-.5-5.9-1.4-1.7-.9-3-2.3-3.9-4-.9-1.7-1.4-3.7-1.4-6v-.5c0-2.3.5-4.3,1.4-6.1.9-1.7,2.2-3.1,3.9-4s3.6-1.4,5.8-1.4,4,.5,5.6,1.4c1.6.9,2.9,2.3,3.8,3.9.9,1.7,1.4,3.6,1.4,5.9v1.8h-17.1c0,2,.7,3.5,2,4.7,1.2,1.2,2.8,1.7,4.7,1.7s3.1-.4,3.9-1.2c.9-.8,1.6-1.7,2-2.7l3.8,2c-.4.8-1,1.7-1.8,2.7-.8.9-1.8,1.7-3.1,2.3-1.3.6-2.9.9-5,.9ZM1808.9,193.8h12.3c-.1-1.7-.7-3-1.8-3.9-1.1-.9-2.5-1.4-4.2-1.4s-3.2.5-4.3,1.4c-1.1.9-1.8,2.3-2,3.9Z"/>
      <path class="cls-2" d="M1831.5,207.2v-22.2h4.5v2.6h.7c.4-.9.9-1.6,1.7-2,.8-.4,1.8-.7,2.9-.7h2.7v4.2h-2.8c-1.5,0-2.7.4-3.7,1.2-1,.8-1.4,2.1-1.4,3.8v13h-4.6Z"/>
      <path class="cls-2" d="M1851.3,182c-.9,0-1.7-.3-2.3-.9-.6-.6-.9-1.3-.9-2.3s.3-1.7.9-2.3c.6-.6,1.4-.9,2.3-.9s1.7.3,2.3.9c.6.6.9,1.3.9,2.3s-.3,1.7-.9,2.3c-.6.6-1.4.9-2.3.9ZM1848.9,207.2v-22.2h4.6v22.2h-4.6Z"/>
      <path class="cls-2" d="M1869.5,207.8c-2.8,0-5.2-.6-7-1.9-1.9-1.3-3-3.2-3.4-5.7l4.3-1c.2,1.2.6,2.2,1.2,2.9.6.7,1.3,1.2,2.1,1.5.9.3,1.8.5,2.8.5,1.5,0,2.6-.3,3.4-.9.8-.6,1.2-1.3,1.2-2.2s-.4-1.6-1.1-2c-.8-.4-1.9-.8-3.3-1l-1.5-.3c-1.5-.3-2.9-.7-4.1-1.2-1.2-.5-2.2-1.2-2.9-2.1-.7-.9-1.1-2.1-1.1-3.5,0-2.1.8-3.7,2.3-4.9,1.6-1.2,3.6-1.7,6.2-1.7s4.5.6,6.1,1.7c1.6,1.1,2.6,2.6,3.1,4.6l-4.3,1.2c-.3-1.3-.8-2.3-1.7-2.9-.9-.6-2-.8-3.2-.8s-2.2.2-3,.7c-.7.5-1.1,1.1-1.1,2s.4,1.6,1.1,2c.7.4,1.7.7,2.9.9l1.6.3c1.6.3,3,.6,4.4,1.1,1.3.5,2.4,1.2,3.1,2.1.8.9,1.1,2.1,1.1,3.6,0,2.2-.8,3.9-2.5,5.2-1.7,1.2-3.9,1.8-6.7,1.8Z"/>
      <path class="cls-2" d="M1894.4,207.8c-2.1,0-4.1-.4-5.8-1.4-1.7-.9-3.1-2.2-4.1-3.9-1-1.7-1.5-3.8-1.5-6.2v-.6c0-2.4.5-4.4,1.5-6.1,1-1.7,2.4-3,4.1-3.9,1.7-.9,3.7-1.4,5.8-1.4s3.9.4,5.4,1.2c1.5.8,2.7,1.8,3.6,3.1.9,1.3,1.5,2.7,1.8,4.3l-4.5.9c-.2-1-.5-1.9-.9-2.7-.5-.8-1.2-1.5-2-1.9-.9-.5-2-.7-3.3-.7s-2.5.3-3.5.9c-1,.6-1.9,1.4-2.5,2.5-.6,1.1-.9,2.4-.9,4v.4c0,1.6.3,2.9.9,4,.6,1.1,1.4,2,2.5,2.5,1,.6,2.2.9,3.5.9,1.9,0,3.4-.5,4.5-1.5,1-1,1.7-2.3,1.9-3.8l4.5,1c-.4,1.5-1,2.9-1.9,4.2-.9,1.3-2.1,2.3-3.6,3.1s-3.3,1.1-5.4,1.1Z"/>
      <path class="cls-2" d="M1910.7,207.2v-31.5h4.6v12.5h.7c.3-.6.7-1.1,1.3-1.7.6-.5,1.3-1,2.2-1.3.9-.3,2.1-.5,3.5-.5s3.2.4,4.5,1.1c1.3.8,2.3,1.8,3.1,3.2.8,1.4,1.1,3,1.1,4.9v13.3h-4.6v-13c0-1.9-.5-3.3-1.4-4.3-1-.9-2.3-1.4-4-1.4s-3.5.6-4.6,1.9c-1.2,1.3-1.7,3.1-1.7,5.5v11.2h-4.6Z"/>
      <path class="cls-2" d="M1948.6,207.8c-2.2,0-4.2-.5-5.9-1.4-1.7-.9-3-2.3-3.9-4-.9-1.7-1.4-3.7-1.4-6v-.5c0-2.3.5-4.3,1.4-6.1.9-1.7,2.2-3.1,3.9-4s3.6-1.4,5.8-1.4,4,.5,5.6,1.4c1.6.9,2.9,2.3,3.8,3.9.9,1.7,1.4,3.6,1.4,5.9v1.8h-17.1c0,2,.7,3.5,2,4.7,1.2,1.2,2.8,1.7,4.7,1.7s3.1-.4,3.9-1.2c.9-.8,1.6-1.7,2-2.7l3.8,2c-.4.8-1,1.7-1.8,2.7-.8.9-1.8,1.7-3.1,2.3-1.3.6-2.9.9-5,.9ZM1942.1,193.8h12.3c-.1-1.7-.7-3-1.8-3.9-1.1-.9-2.5-1.4-4.2-1.4s-3.2.5-4.3,1.4c-1.1.9-1.8,2.3-2,3.9Z"/>
      <path class="cls-2" d="M1964.7,207.2v-22.2h4.5v2.6h.7c.4-.9.9-1.6,1.7-2,.8-.4,1.8-.7,2.9-.7h2.7v4.2h-2.8c-1.5,0-2.7.4-3.7,1.2-1,.8-1.4,2.1-1.4,3.8v13h-4.6Z"/>
      <path class="cls-2" d="M1993.4,207.2v-31.5h9.4l8.6,28.3h.7v-28.3h4.8v31.5h-9.4l-8.5-28.3h-.7v28.3h-4.8Z"/>
      <path class="cls-2" d="M2030.5,207.8c-1.6,0-3-.3-4.3-.8-1.2-.5-2.2-1.3-3-2.4-.7-1-1.1-2.3-1.1-3.8s.4-2.8,1.1-3.8c.7-1,1.7-1.8,3-2.3,1.3-.5,2.7-.8,4.3-.8h6.8v-1.4c0-1.3-.4-2.3-1.2-3.1-.8-.8-2-1.2-3.6-1.2s-2.8.4-3.6,1.1c-.8.8-1.4,1.7-1.7,2.9l-4.3-1.4c.4-1.2.9-2.3,1.7-3.3.8-1,1.9-1.8,3.2-2.4,1.3-.6,2.9-.9,4.8-.9,2.9,0,5.1.7,6.8,2.2,1.6,1.5,2.5,3.6,2.5,6.3v9.1c0,.9.4,1.4,1.3,1.4h1.9v3.9h-3.5c-1.1,0-1.9-.3-2.6-.8-.7-.5-1-1.3-1-2.2h0c0-.1-.7-.1-.7-.1-.2.4-.6,1-1.1,1.6-.5.6-1.2,1.1-2.1,1.6-.9.4-2.2.7-3.7.7ZM2031.1,204c1.9,0,3.4-.5,4.5-1.6,1.1-1.1,1.7-2.5,1.7-4.4v-.4h-6.5c-1.2,0-2.2.3-3,.8-.8.5-1.1,1.3-1.1,2.3s.4,1.8,1.2,2.4c.8.6,1.8.9,3.2.9Z"/>
      <path class="cls-2" d="M2057.9,207.2c-1.4,0-2.4-.4-3.2-1.2s-1.2-1.9-1.2-3.2v-13.8h-6.1v-3.9h6.1v-7.3h4.6v7.3h6.6v3.9h-6.6v13c0,.9.4,1.4,1.3,1.4h4.6v3.9h-6.1Z"/>
      <path class="cls-2" d="M2072.5,182c-.9,0-1.7-.3-2.3-.9-.6-.6-.9-1.3-.9-2.3s.3-1.7.9-2.3c.6-.6,1.4-.9,2.3-.9s1.7.3,2.3.9c.6.6.9,1.3.9,2.3s-.3,1.7-.9,2.3c-.6.6-1.4.9-2.3.9ZM2070.1,207.2v-22.2h4.6v22.2h-4.6Z"/>
      <path class="cls-2" d="M2092.1,207.8c-2.2,0-4.2-.5-5.9-1.4-1.7-.9-3.1-2.2-4.1-3.9s-1.5-3.7-1.5-6.1v-.7c0-2.3.5-4.4,1.5-6.1,1-1.7,2.3-3,4.1-3.9,1.7-.9,3.7-1.4,5.9-1.4s4.2.5,5.9,1.4c1.7.9,3.1,2.2,4.1,3.9,1,1.7,1.5,3.7,1.5,6.1v.7c0,2.3-.5,4.4-1.5,6.1-1,1.7-2.4,3-4.1,3.9-1.7.9-3.7,1.4-5.9,1.4ZM2092.1,203.7c2,0,3.7-.7,5-2,1.3-1.3,1.9-3.1,1.9-5.4v-.4c0-2.3-.6-4.1-1.9-5.4-1.3-1.3-2.9-2-5-2s-3.7.7-4.9,2c-1.3,1.3-1.9,3.1-1.9,5.4v.4c0,2.3.6,4.1,1.9,5.4,1.3,1.3,2.9,2,4.9,2Z"/>
      <path class="cls-2" d="M2109.3,207.2v-22.2h4.5v3.3h.7c.4-.9,1.2-1.7,2.2-2.5,1.1-.8,2.7-1.2,4.8-1.2s3.2.4,4.5,1.1c1.3.8,2.3,1.8,3.1,3.2.8,1.4,1.1,3,1.1,4.9v13.3h-4.6v-13c0-1.9-.5-3.3-1.4-4.3-1-.9-2.3-1.4-4-1.4s-3.5.6-4.6,1.9c-1.2,1.3-1.7,3.1-1.7,5.5v11.2h-4.6Z"/>
      <path class="cls-2" d="M2143.9,207.8c-1.6,0-3-.3-4.3-.8-1.2-.5-2.2-1.3-3-2.4-.7-1-1.1-2.3-1.1-3.8s.4-2.8,1.1-3.8c.7-1,1.7-1.8,3-2.3,1.3-.5,2.7-.8,4.3-.8h6.8v-1.4c0-1.3-.4-2.3-1.2-3.1-.8-.8-2-1.2-3.6-1.2s-2.8.4-3.6,1.1c-.8.8-1.4,1.7-1.7,2.9l-4.3-1.4c.4-1.2.9-2.3,1.7-3.3.8-1,1.9-1.8,3.2-2.4,1.3-.6,2.9-.9,4.8-.9,2.9,0,5.1.7,6.8,2.2,1.6,1.5,2.5,3.6,2.5,6.3v9.1c0,.9.4,1.4,1.3,1.4h1.9v3.9h-3.5c-1.1,0-1.9-.3-2.6-.8-.7-.5-1-1.3-1-2.2h0c0-.1-.7-.1-.7-.1-.2.4-.6,1-1.1,1.6-.5.6-1.2,1.1-2.1,1.6-.9.4-2.2.7-3.7.7ZM2144.6,204c1.9,0,3.4-.5,4.5-1.6,1.1-1.1,1.7-2.5,1.7-4.4v-.4h-6.5c-1.2,0-2.2.3-3,.8-.8.5-1.1,1.3-1.1,2.3s.4,1.8,1.2,2.4c.8.6,1.8.9,3.2.9Z"/>
      <path class="cls-2" d="M2163,207.2v-31.5h4.6v31.5h-4.6Z"/>
      <path class="cls-2" d="M2174.5,216.2v-31.2h4.5v3.2h.7c.6-1,1.4-1.9,2.6-2.7,1.2-.8,2.8-1.2,5-1.2s3.6.4,5.1,1.4c1.5.9,2.8,2.2,3.7,3.9.9,1.7,1.4,3.7,1.4,6.1v.7c0,2.4-.5,4.4-1.4,6.1-.9,1.7-2.2,3-3.7,3.9-1.6.9-3.3,1.4-5.1,1.4s-2.7-.2-3.6-.5c-1-.4-1.8-.8-2.4-1.4-.6-.6-1.1-1.1-1.4-1.7h-.7v12h-4.6ZM2186,203.8c2,0,3.7-.6,5-1.9,1.3-1.3,1.9-3.1,1.9-5.5v-.4c0-2.4-.7-4.2-2-5.5-1.3-1.3-3-1.9-5-1.9s-3.6.6-4.9,1.9c-1.3,1.3-2,3.1-2,5.5v.4c0,2.4.7,4.2,2,5.5,1.3,1.3,2.9,1.9,4.9,1.9Z"/>
      <path class="cls-2" d="M2210.2,207.8c-1.6,0-3-.3-4.3-.8-1.2-.5-2.2-1.3-3-2.4-.7-1-1.1-2.3-1.1-3.8s.4-2.8,1.1-3.8c.7-1,1.7-1.8,3-2.3,1.3-.5,2.7-.8,4.3-.8h6.8v-1.4c0-1.3-.4-2.3-1.2-3.1-.8-.8-2-1.2-3.6-1.2s-2.8.4-3.6,1.1c-.8.8-1.4,1.7-1.7,2.9l-4.3-1.4c.4-1.2.9-2.3,1.7-3.3.8-1,1.9-1.8,3.2-2.4,1.3-.6,2.9-.9,4.8-.9,2.9,0,5.1.7,6.8,2.2,1.6,1.5,2.5,3.6,2.5,6.3v9.1c0,.9.4,1.4,1.3,1.4h1.9v3.9h-3.5c-1.1,0-1.9-.3-2.6-.8-.7-.5-1-1.3-1-2.2h0c0-.1-.7-.1-.7-.1-.2.4-.6,1-1.1,1.6-.5.6-1.2,1.1-2.1,1.6-.9.4-2.2.7-3.7.7ZM2210.9,204c1.9,0,3.4-.5,4.5-1.6,1.1-1.1,1.7-2.5,1.7-4.4v-.4h-6.5c-1.2,0-2.2.3-3,.8-.8.5-1.1,1.3-1.1,2.3s.4,1.8,1.2,2.4c.8.6,1.8.9,3.2.9Z"/>
      <path class="cls-2" d="M2229.3,207.2v-22.2h4.5v2.6h.7c.4-.9.9-1.6,1.7-2,.8-.4,1.8-.7,2.9-.7h2.7v4.2h-2.8c-1.5,0-2.7.4-3.7,1.2-1,.8-1.4,2.1-1.4,3.8v13h-4.6Z"/>
      <path class="cls-2" d="M2246.7,207.2v-31.5h4.6v18h.7l8.7-8.6h6.2l-11.2,10.8,11.6,11.4h-6.1l-9.1-9.2h-.7v9.2h-4.6Z"/>
    </g>
    <g>
      <path class="cls-2" d="M1300.6,1623.2v-31.5h9.1l6.9,28.3h.7l6.9-28.3h9.1v31.5h-4.7v-28.1h-.7l-6.8,28.1h-8.2l-6.8-28.1h-.7v28.1h-4.7Z"/>
      <path class="cls-2" d="M1350.2,1623.8c-2.2,0-4.2-.5-5.9-1.4s-3-2.3-3.9-4c-.9-1.7-1.4-3.7-1.4-6v-.5c0-2.3.5-4.3,1.4-6.1.9-1.7,2.2-3.1,3.9-4,1.7-.9,3.6-1.4,5.8-1.4s4,.5,5.6,1.4c1.6.9,2.9,2.3,3.8,3.9.9,1.7,1.4,3.6,1.4,5.9v1.8h-17.1c0,2,.7,3.5,2,4.7,1.2,1.2,2.8,1.7,4.7,1.7s3.1-.4,3.9-1.2c.9-.8,1.6-1.7,2-2.7l3.8,2c-.4.8-1,1.7-1.8,2.7-.8.9-1.8,1.7-3.1,2.3-1.3.6-2.9.9-5,.9ZM1343.7,1609.8h12.3c-.1-1.7-.7-3-1.8-3.9-1.1-.9-2.5-1.4-4.2-1.4s-3.2.5-4.3,1.4c-1.1.9-1.8,2.3-2,3.9Z"/>
      <path class="cls-2" d="M1375.4,1623.8c-2.8,0-5.2-.6-7-1.9-1.9-1.3-3-3.2-3.4-5.7l4.3-1c.2,1.2.6,2.2,1.2,2.9.6.7,1.3,1.2,2.1,1.5s1.8.5,2.8.5c1.5,0,2.6-.3,3.4-.9.8-.6,1.2-1.3,1.2-2.2s-.4-1.6-1.1-2c-.8-.4-1.9-.8-3.3-1l-1.5-.3c-1.5-.3-2.9-.7-4.1-1.2-1.2-.5-2.2-1.2-2.9-2.1-.7-.9-1.1-2.1-1.1-3.5,0-2.1.8-3.7,2.3-4.9,1.6-1.2,3.6-1.7,6.2-1.7s4.5.6,6.1,1.7c1.6,1.1,2.6,2.6,3.1,4.6l-4.3,1.2c-.3-1.3-.8-2.3-1.7-2.9-.9-.6-2-.8-3.2-.8s-2.2.2-3,.7c-.7.5-1.1,1.1-1.1,2s.4,1.6,1.1,2c.7.4,1.7.7,2.9.9l1.6.3c1.6.3,3,.6,4.4,1.1,1.3.5,2.4,1.2,3.1,2.1.8.9,1.1,2.1,1.1,3.6,0,2.2-.8,3.9-2.5,5.2-1.7,1.2-3.9,1.8-6.7,1.8Z"/>
      <path class="cls-2" d="M1399,1623.8c-2.8,0-5.2-.6-7-1.9-1.9-1.3-3-3.2-3.4-5.7l4.3-1c.2,1.2.6,2.2,1.2,2.9.6.7,1.3,1.2,2.1,1.5s1.8.5,2.8.5c1.5,0,2.6-.3,3.4-.9.8-.6,1.2-1.3,1.2-2.2s-.4-1.6-1.1-2c-.8-.4-1.9-.8-3.3-1l-1.5-.3c-1.5-.3-2.9-.7-4.1-1.2-1.2-.5-2.2-1.2-2.9-2.1-.7-.9-1.1-2.1-1.1-3.5,0-2.1.8-3.7,2.3-4.9,1.6-1.2,3.6-1.7,6.2-1.7s4.5.6,6.1,1.7c1.6,1.1,2.6,2.6,3.1,4.6l-4.3,1.2c-.3-1.3-.8-2.3-1.7-2.9-.9-.6-2-.8-3.2-.8s-2.2.2-3,.7c-.7.5-1.1,1.1-1.1,2s.4,1.6,1.1,2c.7.4,1.7.7,2.9.9l1.6.3c1.6.3,3,.6,4.4,1.1,1.3.5,2.4,1.2,3.1,2.1.8.9,1.1,2.1,1.1,3.6,0,2.2-.8,3.9-2.5,5.2-1.7,1.2-3.9,1.8-6.7,1.8Z"/>
      <path class="cls-2" d="M1422.6,1623.8c-2.8,0-5.2-.6-7-1.9-1.9-1.3-3-3.2-3.4-5.7l4.3-1c.2,1.2.6,2.2,1.2,2.9.6.7,1.3,1.2,2.1,1.5s1.8.5,2.8.5c1.5,0,2.6-.3,3.4-.9.8-.6,1.2-1.3,1.2-2.2s-.4-1.6-1.1-2c-.8-.4-1.9-.8-3.3-1l-1.5-.3c-1.5-.3-2.9-.7-4.1-1.2-1.2-.5-2.2-1.2-2.9-2.1-.7-.9-1.1-2.1-1.1-3.5,0-2.1.8-3.7,2.3-4.9,1.6-1.2,3.6-1.7,6.2-1.7s4.5.6,6.1,1.7c1.6,1.1,2.6,2.6,3.1,4.6l-4.3,1.2c-.3-1.3-.8-2.3-1.7-2.9-.9-.6-2-.8-3.2-.8s-2.2.2-3,.7c-.7.5-1.1,1.1-1.1,2s.4,1.6,1.1,2c.7.4,1.7.7,2.9.9l1.6.3c1.6.3,3,.6,4.4,1.1,1.3.5,2.4,1.2,3.1,2.1.8.9,1.1,2.1,1.1,3.6,0,2.2-.8,3.9-2.5,5.2-1.7,1.2-3.9,1.8-6.7,1.8Z"/>
      <path class="cls-2" d="M1445.5,1623.2c-1.4,0-2.4-.4-3.2-1.2-.8-.8-1.2-1.9-1.2-3.2v-13.8h-6.1v-3.9h6.1v-7.3h4.6v7.3h6.6v3.9h-6.6v13c0,.9.4,1.3,1.3,1.3h4.6v3.9h-6.1Z"/>
      <path class="cls-2" d="M1464.7,1623.8c-1.6,0-3-.3-4.3-.8-1.2-.5-2.2-1.3-3-2.4-.7-1-1.1-2.3-1.1-3.8s.4-2.8,1.1-3.8c.7-1,1.7-1.8,3-2.3,1.3-.5,2.7-.8,4.3-.8h6.8v-1.4c0-1.3-.4-2.3-1.2-3.1-.8-.8-2-1.2-3.6-1.2s-2.8.4-3.6,1.1c-.8.8-1.4,1.7-1.7,2.9l-4.3-1.4c.4-1.2.9-2.3,1.7-3.3.8-1,1.9-1.8,3.2-2.4,1.3-.6,2.9-.9,4.8-.9,2.9,0,5.1.7,6.8,2.2s2.5,3.6,2.5,6.3v9.1c0,.9.4,1.3,1.3,1.3h1.9v3.9h-3.5c-1.1,0-1.9-.3-2.6-.8-.7-.5-1-1.3-1-2.2h0c0-.1-.7-.1-.7-.1-.2.4-.6,1-1.1,1.6-.5.6-1.2,1.1-2.1,1.6-.9.4-2.2.7-3.7.7ZM1465.3,1620c1.9,0,3.4-.5,4.5-1.6,1.1-1.1,1.7-2.5,1.7-4.4v-.5h-6.5c-1.2,0-2.2.3-3,.8-.8.5-1.1,1.3-1.1,2.3s.4,1.8,1.2,2.4c.8.6,1.8.9,3.2.9Z"/>
      <path class="cls-2" d="M1492.1,1623.2c-1.4,0-2.4-.4-3.2-1.2-.8-.8-1.2-1.9-1.2-3.2v-13.8h-6.1v-3.9h6.1v-7.3h4.6v7.3h6.6v3.9h-6.6v13c0,.9.4,1.3,1.3,1.3h4.6v3.9h-6.1Z"/>
      <path class="cls-2" d="M1506.7,1598c-.9,0-1.7-.3-2.3-.9-.6-.6-.9-1.3-.9-2.3s.3-1.7.9-2.3c.6-.6,1.4-.9,2.3-.9s1.7.3,2.3.9c.6.6.9,1.3.9,2.3s-.3,1.7-.9,2.3c-.6.6-1.4.9-2.3.9ZM1504.4,1623.2v-22.2h4.6v22.2h-4.6Z"/>
      <path class="cls-2" d="M1526.3,1623.8c-2.2,0-4.2-.5-5.9-1.4-1.7-.9-3.1-2.2-4.1-3.9-1-1.7-1.5-3.7-1.5-6.1v-.7c0-2.3.5-4.4,1.5-6.1,1-1.7,2.3-3,4.1-3.9,1.7-.9,3.7-1.4,5.9-1.4s4.2.5,5.9,1.4c1.7.9,3.1,2.2,4.1,3.9,1,1.7,1.5,3.7,1.5,6.1v.7c0,2.3-.5,4.4-1.5,6.1-1,1.7-2.4,3-4.1,3.9-1.7.9-3.7,1.4-5.9,1.4ZM1526.3,1619.7c2,0,3.7-.7,5-2,1.3-1.3,1.9-3.1,1.9-5.4v-.4c0-2.3-.6-4.1-1.9-5.4-1.3-1.3-2.9-2-5-2s-3.7.7-4.9,2c-1.3,1.3-1.9,3.1-1.9,5.4v.4c0,2.3.6,4.1,1.9,5.4,1.3,1.3,2.9,2,4.9,2Z"/>
      <path class="cls-2" d="M1543.6,1623.2v-22.2h4.5v3.3h.7c.4-.9,1.2-1.7,2.2-2.5,1.1-.8,2.7-1.2,4.8-1.2s3.2.4,4.5,1.1c1.3.8,2.3,1.8,3.1,3.2.7,1.4,1.1,3,1.1,4.9v13.3h-4.6v-13c0-1.9-.5-3.3-1.4-4.3-1-.9-2.3-1.4-4-1.4s-3.5.6-4.6,1.9c-1.2,1.3-1.7,3.1-1.7,5.5v11.2h-4.6Z"/>
      <path class="cls-2" d="M1581.4,1623.2v-4.3h4.2v-22.9h-4.2v-4.3h16c1.9,0,3.5.3,5,1,1.4.6,2.5,1.6,3.3,2.7.8,1.2,1.2,2.6,1.2,4.2v.5c0,1.4-.3,2.6-.8,3.6-.5.9-1.2,1.7-2,2.2-.8.5-1.5.9-2.2,1.1v.7c.7.2,1.4.5,2.2,1.1.8.5,1.5,1.3,2,2.2.6.9.8,2.1.8,3.6v.5c0,1.7-.4,3.2-1.2,4.5-.8,1.2-1.9,2.2-3.4,2.8-1.4.7-3.1,1-4.9,1h-16.1ZM1590.5,1605.1h6.3c1.5,0,2.8-.4,3.7-1.1.9-.8,1.4-1.8,1.4-3.1v-.4c0-1.3-.5-2.4-1.4-3.1-.9-.8-2.2-1.1-3.7-1.1h-6.3v9ZM1590.5,1618.8h6.3c1.6,0,2.9-.4,3.8-1.2.9-.8,1.4-1.9,1.4-3.2v-.4c0-1.4-.5-2.5-1.4-3.2-.9-.8-2.2-1.2-3.8-1.2h-6.3v9.2Z"/>
      <path class="cls-2" d="M1621,1623.6c-1.7,0-3.2-.4-4.5-1.1-1.3-.8-2.4-1.8-3.1-3.2-.8-1.4-1.1-3-1.1-5v-13.3h4.6v13c0,1.9.5,3.3,1.4,4.3,1,.9,2.3,1.4,4,1.4s3.4-.6,4.6-1.9,1.7-3.1,1.7-5.5v-11.2h4.6v22.2h-4.5v-3.3h-.7c-.4.9-1.2,1.7-2.2,2.5-1.1.8-2.7,1.2-4.8,1.2Z"/>
      <path class="cls-2" d="M1644.2,1623.2v-18.3h-6.2v-3.9h6.2v-4.9c0-1.3.4-2.4,1.2-3.2.8-.8,1.9-1.2,3.2-1.2h5.7v3.9h-4.2c-.9,0-1.3.5-1.3,1.4v4h6.4v3.9h-6.4v18.3h-4.6Z"/>
      <path class="cls-2" d="M1663.9,1623.2v-18.3h-6.2v-3.9h6.2v-4.9c0-1.3.4-2.4,1.2-3.2.8-.8,1.9-1.2,3.2-1.2h5.7v3.9h-4.2c-.9,0-1.3.5-1.3,1.4v4h6.4v3.9h-6.4v18.3h-4.6Z"/>
      <path class="cls-2" d="M1686.6,1623.8c-1.6,0-3-.3-4.3-.8-1.2-.5-2.2-1.3-3-2.4-.7-1-1.1-2.3-1.1-3.8s.4-2.8,1.1-3.8c.7-1,1.7-1.8,3-2.3,1.3-.5,2.7-.8,4.3-.8h6.8v-1.4c0-1.3-.4-2.3-1.2-3.1-.8-.8-2-1.2-3.6-1.2s-2.8.4-3.6,1.1c-.8.8-1.4,1.7-1.7,2.9l-4.3-1.4c.4-1.2.9-2.3,1.7-3.3.8-1,1.9-1.8,3.2-2.4,1.3-.6,2.9-.9,4.8-.9,2.9,0,5.1.7,6.8,2.2s2.5,3.6,2.5,6.3v9.1c0,.9.4,1.3,1.3,1.3h1.9v3.9h-3.5c-1.1,0-1.9-.3-2.6-.8-.7-.5-1-1.3-1-2.2h0c0-.1-.7-.1-.7-.1-.2.4-.6,1-1.1,1.6-.5.6-1.2,1.1-2.1,1.6-.9.4-2.2.7-3.7.7ZM1687.2,1620c1.9,0,3.4-.5,4.5-1.6,1.1-1.1,1.7-2.5,1.7-4.4v-.5h-6.5c-1.2,0-2.2.3-3,.8-.8.5-1.1,1.3-1.1,2.3s.4,1.8,1.2,2.4c.8.6,1.8.9,3.2.9Z"/>
      <path class="cls-2" d="M1705.6,1623.2v-31.5h4.6v31.5h-4.6Z"/>
      <path class="cls-2" d="M1727.6,1623.8c-2.2,0-4.2-.5-5.9-1.4-1.7-.9-3.1-2.2-4.1-3.9-1-1.7-1.5-3.7-1.5-6.1v-.7c0-2.3.5-4.4,1.5-6.1,1-1.7,2.3-3,4.1-3.9,1.7-.9,3.7-1.4,5.9-1.4s4.2.5,5.9,1.4c1.7.9,3.1,2.2,4.1,3.9,1,1.7,1.5,3.7,1.5,6.1v.7c0,2.3-.5,4.4-1.5,6.1-1,1.7-2.4,3-4.1,3.9-1.7.9-3.7,1.4-5.9,1.4ZM1727.6,1619.7c2,0,3.7-.7,5-2,1.3-1.3,1.9-3.1,1.9-5.4v-.4c0-2.3-.6-4.1-1.9-5.4-1.3-1.3-2.9-2-5-2s-3.7.7-4.9,2c-1.3,1.3-1.9,3.1-1.9,5.4v.4c0,2.3.6,4.1,1.9,5.4,1.3,1.3,2.9,2,4.9,2Z"/>
      <path class="cls-2" d="M1744.8,1623.2v-22.2h4.5v2.6h.7c.4-.9.9-1.6,1.7-2,.8-.4,1.8-.7,2.9-.7h2.7v4.2h-2.8c-1.5,0-2.7.4-3.7,1.2-1,.8-1.4,2.1-1.4,3.8v13h-4.6Z"/>
      <path class="cls-2" d="M1769.1,1623.8c-1.6,0-3-.3-4.3-.8-1.2-.5-2.2-1.3-3-2.4-.7-1-1.1-2.3-1.1-3.8s.4-2.8,1.1-3.8c.7-1,1.7-1.8,3-2.3,1.3-.5,2.7-.8,4.3-.8h6.8v-1.4c0-1.3-.4-2.3-1.2-3.1-.8-.8-2-1.2-3.6-1.2s-2.8.4-3.6,1.1c-.8.8-1.4,1.7-1.7,2.9l-4.3-1.4c.4-1.2.9-2.3,1.7-3.3.8-1,1.9-1.8,3.2-2.4,1.3-.6,2.9-.9,4.8-.9,2.9,0,5.1.7,6.8,2.2s2.5,3.6,2.5,6.3v9.1c0,.9.4,1.3,1.3,1.3h1.9v3.9h-3.5c-1.1,0-1.9-.3-2.6-.8-.7-.5-1-1.3-1-2.2h0c0-.1-.7-.1-.7-.1-.2.4-.6,1-1.1,1.6-.5.6-1.2,1.1-2.1,1.6-.9.4-2.2.7-3.7.7ZM1769.8,1620c1.9,0,3.4-.5,4.5-1.6,1.1-1.1,1.7-2.5,1.7-4.4v-.5h-6.5c-1.2,0-2.2.3-3,.8-.8.5-1.1,1.3-1.1,2.3s.4,1.8,1.2,2.4c.8.6,1.8.9,3.2.9Z"/>
      <path class="cls-2" d="M1531.3,1677.8c-2.2,0-4.3-.5-6-1.5-1.8-1-3.2-2.4-4.2-4.3-1-1.9-1.5-4.2-1.5-6.9v-7.4c0-4.1,1.1-7.3,3.4-9.4,2.2-2.2,5.3-3.3,9.1-3.3s6.7,1,8.7,3.1c2,2.1,3.1,4.8,3.1,8.3v.2h-4.8v-.4c0-1.3-.3-2.5-.8-3.5-.5-1-1.3-1.9-2.3-2.5-1-.6-2.3-.9-3.9-.9-2.4,0-4.3.7-5.6,2.2s-2,3.5-2,6.1v7.6c0,2.5.7,4.6,2,6.1,1.4,1.5,3.2,2.2,5.7,2.2s4.2-.7,5.3-2c1.1-1.3,1.7-3,1.7-5.1v-.6h-8.5v-4.2h13.3v15.6h-4.5v-3.2h-.7c-.3.6-.7,1.2-1.2,1.8-.5.6-1.3,1.1-2.2,1.5-1,.4-2.3.6-3.9.6Z"/>
      <path class="cls-2" d="M1550.3,1677.2v-22.2h4.5v2.6h.7c.4-.9.9-1.6,1.7-2,.8-.4,1.8-.7,2.9-.7h2.7v4.2h-2.8c-1.5,0-2.7.4-3.7,1.2-1,.8-1.4,2.1-1.4,3.8v13h-4.6Z"/>
      <path class="cls-2" d="M1574.6,1677.8c-1.6,0-3-.3-4.3-.8-1.2-.5-2.2-1.3-3-2.4-.7-1-1.1-2.3-1.1-3.8s.4-2.8,1.1-3.8c.7-1,1.7-1.8,3-2.3,1.3-.5,2.7-.8,4.3-.8h6.8v-1.4c0-1.3-.4-2.3-1.2-3.1-.8-.8-2-1.2-3.6-1.2s-2.8.4-3.6,1.1c-.8.8-1.4,1.7-1.7,2.9l-4.3-1.4c.4-1.2.9-2.3,1.7-3.3.8-1,1.9-1.8,3.2-2.4,1.3-.6,2.9-.9,4.8-.9,2.9,0,5.1.7,6.8,2.2s2.5,3.6,2.5,6.3v9.1c0,.9.4,1.3,1.3,1.3h1.9v3.9h-3.5c-1.1,0-1.9-.3-2.6-.8-.7-.5-1-1.3-1-2.2h0c0-.1-.7-.1-.7-.1-.2.4-.6,1-1.1,1.6-.5.6-1.2,1.1-2.1,1.6-.9.4-2.2.7-3.7.7ZM1575.2,1674c1.9,0,3.4-.5,4.5-1.6,1.1-1.1,1.7-2.5,1.7-4.4v-.5h-6.5c-1.2,0-2.2.3-3,.8-.8.5-1.1,1.3-1.1,2.3s.4,1.8,1.2,2.4c.8.6,1.8.9,3.2.9Z"/>
      <path class="cls-2" d="M1602.1,1677.6c-1.7,0-3.2-.4-4.5-1.1-1.3-.8-2.4-1.8-3.1-3.2-.8-1.4-1.1-3-1.1-5v-13.3h4.6v13c0,1.9.5,3.3,1.4,4.3,1,.9,2.3,1.4,4,1.4s3.4-.6,4.6-1.9,1.7-3.1,1.7-5.5v-11.2h4.6v22.2h-4.5v-3.3h-.7c-.4.9-1.2,1.7-2.2,2.5-1.1.8-2.7,1.2-4.8,1.2Z"/>
      <path class="cls-2" d="M1634.1,1677.8c-2.2,0-3.8-.4-5-1.2-1.2-.8-2-1.6-2.6-2.6h-.7v3.1h-4.5v-31.5h4.6v12.3h.7c.4-.6.8-1.2,1.4-1.7.6-.6,1.4-1,2.4-1.4,1-.4,2.2-.5,3.6-.5s3.6.4,5.1,1.3c1.6.9,2.8,2.2,3.7,3.9.9,1.7,1.4,3.8,1.4,6.1v.7c0,2.4-.5,4.4-1.4,6.1-.9,1.7-2.2,3-3.7,3.9-1.5.9-3.2,1.3-5.1,1.3ZM1632.7,1673.8c2,0,3.7-.6,5-1.9,1.3-1.3,2-3.1,2-5.5v-.4c0-2.4-.6-4.2-1.9-5.5-1.3-1.3-3-1.9-5-1.9s-3.6.6-4.9,1.9c-1.3,1.3-2,3.1-2,5.5v.4c0,2.4.7,4.2,2,5.5,1.3,1.3,2.9,1.9,4.9,1.9Z"/>
      <path class="cls-2" d="M1658.6,1677.6c-1.7,0-3.2-.4-4.5-1.1-1.3-.8-2.4-1.8-3.1-3.2-.8-1.4-1.1-3-1.1-5v-13.3h4.6v13c0,1.9.5,3.3,1.4,4.3,1,.9,2.3,1.4,4,1.4s3.4-.6,4.6-1.9,1.7-3.1,1.7-5.5v-11.2h4.6v22.2h-4.5v-3.3h-.7c-.4.9-1.2,1.7-2.2,2.5-1.1.8-2.7,1.2-4.8,1.2ZM1656,1652.1c-.9,0-1.7-.3-2.3-.9-.6-.6-.9-1.3-.9-2.3s.3-1.7.9-2.3c.6-.6,1.4-.9,2.3-.9s1.6.3,2.2.9c.6.6.9,1.3.9,2.3s-.3,1.7-.9,2.3c-.6.6-1.4.9-2.2.9ZM1664.8,1652.1c-.9,0-1.6-.3-2.2-.9-.6-.6-.9-1.3-.9-2.3s.3-1.7.9-2.3c.6-.6,1.4-.9,2.2-.9s1.7.3,2.3.9c.6.6.9,1.3.9,2.3s-.3,1.7-.9,2.3c-.6.6-1.4.9-2.3.9Z"/>
      <path class="cls-2" d="M1677.7,1677.2v-22.2h4.5v3.3h.7c.4-.9,1.2-1.7,2.2-2.5,1.1-.8,2.7-1.2,4.8-1.2s3.2.4,4.5,1.1c1.3.8,2.3,1.8,3.1,3.2.7,1.4,1.1,3,1.1,4.9v13.3h-4.6v-13c0-1.9-.5-3.3-1.4-4.3-1-.9-2.3-1.4-4-1.4s-3.5.6-4.6,1.9c-1.2,1.3-1.7,3.1-1.7,5.5v11.2h-4.6Z"/>
      <path class="cls-2" d="M1714.6,1677.8c-1.8,0-3.5-.4-5.1-1.3-1.6-.9-2.8-2.2-3.8-3.9-.9-1.7-1.4-3.7-1.4-6.1v-.7c0-2.4.5-4.4,1.4-6.1.9-1.7,2.2-3,3.7-3.9,1.6-.9,3.3-1.3,5.1-1.3s2.6.2,3.6.5c1,.4,1.8.8,2.4,1.4.6.6,1.1,1.1,1.4,1.7h.7v-12.3h4.6v31.5h-4.5v-3.1h-.7c-.6,1-1.4,1.8-2.6,2.6-1.2.8-2.8,1.2-5,1.2ZM1715.9,1673.8c2,0,3.7-.6,5-1.9s2-3.1,2-5.5v-.4c0-2.4-.6-4.2-1.9-5.5-1.3-1.3-3-1.9-5-1.9s-3.6.6-4.9,1.9c-1.3,1.3-2,3.1-2,5.5v.4c0,2.4.7,4.2,2,5.5s2.9,1.9,4.9,1.9Z"/>
      <path class="cls-2" d="M1744.4,1677.8c-2.2,0-4.2-.5-5.9-1.4s-3-2.3-3.9-4c-.9-1.7-1.4-3.7-1.4-6v-.5c0-2.3.5-4.3,1.4-6.1.9-1.7,2.2-3.1,3.9-4,1.7-.9,3.6-1.4,5.8-1.4s4,.5,5.6,1.4c1.6.9,2.9,2.3,3.8,3.9.9,1.7,1.4,3.6,1.4,5.9v1.8h-17.1c0,2,.7,3.5,2,4.7,1.2,1.2,2.8,1.7,4.7,1.7s3.1-.4,3.9-1.2c.9-.8,1.6-1.7,2-2.7l3.8,2c-.4.8-1,1.7-1.8,2.7-.8.9-1.8,1.7-3.1,2.3-1.3.6-2.9.9-5,.9ZM1738,1663.8h12.3c-.1-1.7-.7-3-1.8-3.9-1.1-.9-2.5-1.4-4.2-1.4s-3.2.5-4.3,1.4c-1.1.9-1.8,2.3-2,3.9Z"/>
      <path class="cls-2" d="M1760.5,1677.2v-22.2h4.5v3.3h.7c.4-.9,1.2-1.7,2.2-2.5,1.1-.8,2.7-1.2,4.8-1.2s3.2.4,4.5,1.1c1.3.8,2.3,1.8,3.1,3.2.7,1.4,1.1,3,1.1,4.9v13.3h-4.6v-13c0-1.9-.5-3.3-1.4-4.3-1-.9-2.3-1.4-4-1.4s-3.5.6-4.6,1.9c-1.2,1.3-1.7,3.1-1.7,5.5v11.2h-4.6Z"/>
      <path class="cls-2" d="M1620.3,1731.8c-2.4,0-4.5-.4-6.3-1.3-1.8-.8-3.3-2.1-4.3-3.7s-1.6-3.6-1.6-6v-1.1h4.8v1.1c0,2.2.7,3.9,2,5,1.3,1.1,3.1,1.7,5.3,1.7s3.9-.5,5.1-1.4c1.1-.9,1.7-2.2,1.7-3.7s-.3-1.8-.8-2.4c-.5-.6-1.3-1.1-2.3-1.5-1-.4-2.2-.7-3.6-1.1l-1.7-.4c-2-.5-3.8-1.1-5.2-1.8-1.5-.7-2.6-1.6-3.4-2.8-.8-1.2-1.2-2.7-1.2-4.5s.5-3.4,1.4-4.8c.9-1.3,2.2-2.3,3.8-3.1,1.6-.7,3.5-1.1,5.7-1.1s4.1.4,5.9,1.1c1.7.8,3.1,1.9,4.1,3.3,1,1.5,1.5,3.3,1.5,5.5v1.6h-4.8v-1.6c0-1.4-.3-2.4-.8-3.3s-1.3-1.5-2.3-1.8c-1-.4-2.1-.6-3.5-.6-1.9,0-3.4.4-4.5,1.2-1.1.8-1.6,1.9-1.6,3.3s.2,1.7.7,2.4c.5.6,1.1,1.1,2,1.5s2,.7,3.4,1l1.7.4c2,.5,3.8,1,5.4,1.7,1.6.7,2.8,1.7,3.7,2.9.9,1.2,1.4,2.7,1.4,4.6s-.5,3.5-1.4,4.9c-.9,1.4-2.3,2.5-4,3.3-1.7.8-3.8,1.2-6.2,1.2Z"/>
      <path class="cls-2" d="M1647.4,1731.8c-2.1,0-4.1-.4-5.8-1.3-1.7-.9-3.1-2.2-4.1-3.9-1-1.7-1.5-3.8-1.5-6.2v-.6c0-2.4.5-4.4,1.5-6.1,1-1.7,2.4-3,4.1-3.9,1.7-.9,3.7-1.4,5.8-1.4s3.9.4,5.4,1.2c1.5.8,2.7,1.8,3.6,3.1.9,1.3,1.5,2.7,1.8,4.3l-4.5.9c-.2-1-.5-1.9-.9-2.7-.5-.8-1.2-1.5-2-1.9-.9-.5-2-.7-3.3-.7s-2.5.3-3.5.9c-1,.6-1.9,1.4-2.5,2.5-.6,1.1-.9,2.4-.9,4v.4c0,1.6.3,2.9.9,4,.6,1.1,1.4,2,2.5,2.5,1,.6,2.2.9,3.5.9,1.9,0,3.4-.5,4.5-1.5,1-1,1.7-2.3,1.9-3.8l4.5,1c-.4,1.5-1,2.9-1.9,4.2-.9,1.3-2.1,2.3-3.6,3.1-1.5.8-3.3,1.1-5.4,1.1Z"/>
      <path class="cls-2" d="M1663.8,1731.2v-31.5h4.6v12.5h.7c.3-.6.7-1.1,1.3-1.7.6-.5,1.3-1,2.2-1.3.9-.3,2.1-.5,3.5-.5s3.2.4,4.5,1.1c1.3.8,2.3,1.8,3.1,3.2.7,1.4,1.1,3,1.1,4.9v13.3h-4.6v-13c0-1.9-.5-3.3-1.4-4.3-1-.9-2.3-1.4-4-1.4s-3.5.6-4.6,1.9c-1.2,1.3-1.7,3.1-1.7,5.5v11.2h-4.6Z"/>
      <path class="cls-2" d="M1693.9,1731.2l-3.8-22.2h4.6l2.8,19.1h.7l3.9-19.1h7.5l3.8,19.1h.7l2.8-19.1h4.6l-3.8,22.2h-7.8l-3.8-19h-.7l-3.8,19h-7.8Z"/>
      <path class="cls-2" d="M1737.2,1731.8c-2.2,0-4.2-.5-5.9-1.4s-3-2.3-3.9-4c-.9-1.7-1.4-3.7-1.4-6v-.5c0-2.3.5-4.3,1.4-6.1.9-1.7,2.2-3.1,3.9-4,1.7-.9,3.6-1.4,5.8-1.4s4,.5,5.6,1.4c1.6.9,2.9,2.3,3.8,3.9.9,1.7,1.4,3.6,1.4,5.9v1.8h-17.1c0,2,.7,3.5,2,4.7,1.2,1.2,2.8,1.7,4.7,1.7s3.1-.4,3.9-1.2c.9-.8,1.6-1.7,2-2.7l3.8,2c-.4.8-1,1.7-1.8,2.7-.8.9-1.8,1.7-3.1,2.3-1.3.6-2.9.9-5,.9ZM1730.8,1717.8h12.3c-.1-1.7-.7-3-1.8-3.9-1.1-.9-2.5-1.4-4.2-1.4s-3.2.5-4.3,1.4c-1.1.9-1.8,2.3-2,3.9Z"/>
      <path class="cls-2" d="M1755.7,1706c-.9,0-1.7-.3-2.3-.9-.6-.6-.9-1.3-.9-2.3s.3-1.7.9-2.3c.6-.6,1.4-.9,2.3-.9s1.7.3,2.3.9c.6.6.9,1.3.9,2.3s-.3,1.7-.9,2.3c-.6.6-1.4.9-2.3.9ZM1753.3,1731.2v-22.2h4.6v22.2h-4.6Z"/>
      <path class="cls-2" d="M1764,1731.2v-5.7l13.1-12v-.6h-12.6v-3.9h17.7v5.7l-13.1,12v.6h13.5v3.9h-18.5Z"/>
    </g>
  </g>
</svg>