<?xml version="1.0" encoding="UTF-8"?>
<svg xmlns="http://www.w3.org/2000/svg" version="1.1" viewBox="0 0 3840 2160">
  <defs>
    <style>
      .cls-1 {
        stroke-dasharray: 0 0 17 17;
        stroke-width: 3.5px;
      }

      .cls-1, .cls-2 {
        fill: none;
        stroke: #fff;
        stroke-miterlimit: 10;
      }

      .cls-3 {
        fill: #deff7f;
        opacity: .2;
      }

      .cls-3, .cls-4 {
        stroke-width: 0px;
      }

      .cls-4 {
        fill: #fff;
      }

      .cls-2 {
        stroke-width: 2.8px;
      }
    </style>
  </defs>
  <g id="Fläche">
    <circle class="cls-3" cx="1951" cy="898.9" r="170.4"/>
  </g>
  <g id="Kontur">
    <polyline class="cls-1" points="3215.8 1826.8 3163.3 1820.6 3114.2 1814.4 3060.8 1809.1 3017.4 1746.5 2998.4 1730.5 2985.1 1684.5 2957.5 1649.7 2953.5 1624.8 2948.2 1588.1 2915.3 1574.4 2892.4 1535.3 2875.3 1510.6 2840.2 1460 2822.1 1437.3 2800.3 1416.7 2767.6 1401.5 2735.8 1391.8 2701.8 1391.8 2693.1 1393.1 2690.7 1381.9 2683.4 1381.9 2682.1 1391.1 2657.9 1391.4 2653.6 1399.1 2661.7 1404.7 2658.2 1407.3 2628.2 1386.4 2601.2 1374.2 2574.4 1373.3 2551.7 1377.9 2524.7 1375.8 2516.3 1379.1 2471 1361.7 2460.2 1352.6 2439.7 1344.8 2418.7 1339.6 2405.5 1333 2395 1331.6 2378 1324 2353.5 1318.2 2338.3 1315.9 2325.3 1318 2317.3 1322.1 2305 1323.1 2289.5 1318.3 2258 1301.2 2235 1280.1 2210.6 1266.4 2192.5 1252.6 2184.7 1253.9 2172.6 1251.1 2155.7 1235.8 2141.1 1227 2138 1209.9 2128.9 1199.1 2115.6 1185.4 2096.8 1166.3 2075.7 1143 2054.8 1114.3 2034.5 1086.5 2024.8 1076 2007.7 1058.1 1998 1043.2 1996.1 1021.7 1989.3 1008.6 1991.7 996.5 1978.7 975.6 1979.4 951.9 1975.8 928.8 1944.7 905.5 1915.7 909.3 1932.2 931.7 1952.7 950.1 1967.3 961.1 1968.9 979.7 1980.1 1003.9 1993.3 1025.3 1995 1044.9 2000.7 1055.4 2028.5 1084.2 2060.4 1131.6 2102.5 1178.3 2130.9 1205.9 2135.8 1230.7 2147.5 1250.4 2172.9 1264.7 2191.7 1265.6 2203 1276.4 2240 1301.2 2271.2 1329.6 2302.7 1331.6 2328.2 1324.1 2349.2 1326.5 2361.4 1332.8 2365.8 1349.4 2370.2 1364.8 2376.4 1375.4 2382.8 1399.5 2394 1414.5 2394 1437 2402.6 1453.2 2401.9 1431.7 2401.9 1417.4 2386.8 1395.3 2384.3 1390.1 2384.3 1371.4 2374.5 1359.5 2374.5 1345.7 2381.9 1335.9 2399.7 1348.2 2417 1350.9 2434.7 1359.8 2450.5 1377 2461.5 1388.2 2470.6 1393.6 2484.1 1394.5 2494.6 1403.5 2512 1404.4 2531.4 1399.1 2550.5 1393.7 2570.3 1391.9 2586.2 1393.1 2592.5 1402.5 2610.6 1412.7 2639 1423.6 2664.2 1437.4 2688.1 1465.5 2702.8 1487.6 2711.1 1499.8 2733.6 1520.9 2747 1550.6 2762.5 1575.1 2781.3 1599.5 2791.9 1621.6 2794 1647.2 2805.3 1675.9 2813.3 1694 2812.4 1717.3 2814.3 1741.2 2814.3 1757.6 2815.9 1797.3 2806.5 1823.5 2783.8 1843.3 2780 1873.9 2778 1915.1 2773.8 1957.8 2765.9 1993.2 2753.8 2008.8 2754.4 2041.2"/>
  </g>
  <g id="Beschriftung">
    <line class="cls-2" x1="1830.4" y1="1019.4" x2="1680.6" y2="1169.3"/>
    <line class="cls-2" x1="2720.5" y1="1023.5" x2="2721.7" y2="1391.9"/>
    <g>
      <path class="cls-4" d="M1558.9,1206v-3.5h3.4v-18.3h-3.4v-3.5h12.8c1.5,0,2.8.3,4,.8,1.1.5,2,1.2,2.6,2.2.6.9,1,2.1,1,3.4v.4c0,1.2-.2,2.1-.6,2.8-.4.7-1,1.3-1.6,1.7-.6.4-1.2.7-1.7.9v.6c.6.1,1.1.4,1.8.8.6.4,1.2,1,1.6,1.7.4.7.7,1.7.7,2.9v.4c0,1.4-.3,2.6-1,3.6s-1.5,1.7-2.7,2.3c-1.1.5-2.5.8-3.9.8h-12.9ZM1566.2,1191.6h5.1c1.2,0,2.2-.3,3-.9.7-.6,1.1-1.4,1.1-2.5v-.4c0-1.1-.4-1.9-1.1-2.5-.7-.6-1.7-.9-3-.9h-5.1v7.2ZM1566.2,1202.5h5.1c1.3,0,2.3-.3,3.1-.9.7-.6,1.1-1.5,1.1-2.6v-.3c0-1.1-.4-2-1.1-2.6-.7-.6-1.8-.9-3.1-.9h-5.1v7.4Z"/>
      <path class="cls-4" d="M1592.2,1206.5c-1.8,0-3.4-.4-4.7-1.1-1.4-.7-2.5-1.8-3.3-3.2s-1.2-3-1.2-4.9v-.5c0-1.9.4-3.5,1.2-4.8.8-1.4,1.9-2.4,3.3-3.1,1.4-.7,3-1.1,4.7-1.1s3.4.4,4.8,1.1c1.4.7,2.5,1.8,3.3,3.1.8,1.4,1.2,3,1.2,4.8v.5c0,1.9-.4,3.5-1.2,4.9s-1.9,2.4-3.3,3.2c-1.4.7-3,1.1-4.8,1.1ZM1592.2,1203.2c1.6,0,3-.5,4-1.6s1.5-2.5,1.5-4.3v-.3c0-1.8-.5-3.3-1.5-4.3-1-1-2.3-1.6-4-1.6s-2.9.5-3.9,1.6-1.5,2.5-1.5,4.3v.3c0,1.8.5,3.3,1.5,4.3s2.3,1.6,3.9,1.6Z"/>
      <path class="cls-4" d="M1606,1206v-17.7h3.6v2.7h.6c.3-.7.9-1.4,1.8-2,.9-.6,2.1-.9,3.9-.9s2.5.3,3.6.9,1.9,1.4,2.5,2.5c.6,1.1.9,2.4.9,3.9v10.7h-3.7v-10.4c0-1.5-.4-2.7-1.2-3.4-.8-.7-1.8-1.1-3.2-1.1s-2.8.5-3.7,1.5c-.9,1-1.4,2.5-1.4,4.4v9h-3.7Z"/>
      <path class="cls-4" d="M1635.5,1206.5c-1.5,0-2.8-.4-4.1-1.1-1.2-.7-2.2-1.8-3-3.1-.8-1.4-1.1-3-1.1-4.9v-.5c0-1.9.4-3.5,1.1-4.9.7-1.4,1.7-2.4,3-3.1,1.2-.7,2.6-1.1,4.1-1.1s2.1.1,2.9.4c.8.3,1.4.7,1.9,1.1.5.4.9.9,1.2,1.4h.6v-9.9h3.7v25.2h-3.6v-2.5h-.6c-.5.8-1.1,1.5-2.1,2.1-.9.6-2.2.9-4,.9ZM1636.5,1203.3c1.6,0,2.9-.5,4-1.5,1-1,1.6-2.5,1.6-4.4v-.3c0-1.9-.5-3.4-1.5-4.4-1-1-2.4-1.5-4-1.5s-2.9.5-3.9,1.5-1.6,2.5-1.6,4.4v.3c0,1.9.5,3.4,1.6,4.4,1,1,2.4,1.5,3.9,1.5Z"/>
      <path class="cls-4" d="M1659.5,1206.5c-1.8,0-3.4-.4-4.7-1.1-1.4-.7-2.5-1.8-3.3-3.2s-1.2-3-1.2-4.9v-.5c0-1.9.4-3.5,1.2-4.8.8-1.4,1.9-2.4,3.3-3.1,1.4-.7,3-1.1,4.7-1.1s3.4.4,4.8,1.1c1.4.7,2.5,1.8,3.3,3.1.8,1.4,1.2,3,1.2,4.8v.5c0,1.9-.4,3.5-1.2,4.9s-1.9,2.4-3.3,3.2c-1.4.7-3,1.1-4.8,1.1ZM1659.5,1203.2c1.6,0,3-.5,4-1.6s1.5-2.5,1.5-4.3v-.3c0-1.8-.5-3.3-1.5-4.3-1-1-2.3-1.6-4-1.6s-2.9.5-3.9,1.6-1.5,2.5-1.5,4.3v.3c0,1.8.5,3.3,1.5,4.3s2.3,1.6,3.9,1.6Z"/>
      <path class="cls-4" d="M1468.7,1249.7c-1.9,0-3.6-.4-5-1.2s-2.6-1.9-3.3-3.5c-.8-1.5-1.2-3.4-1.2-5.6v-5.7c0-3.4.9-5.9,2.6-7.6,1.8-1.7,4.1-2.6,7.1-2.6s5.1.8,6.6,2.4c1.5,1.6,2.2,3.8,2.2,6.5v.2h-2.3v-.3c0-1.3-.2-2.5-.7-3.5-.5-1-1.2-1.8-2.1-2.4-1-.6-2.2-.9-3.8-.9-2.3,0-4.1.7-5.5,2.1-1.3,1.4-2,3.4-2,6v5.8c0,2.6.7,4.6,2,6s3.1,2.1,5.5,2.1,4-.7,5-2c1.1-1.3,1.6-3.1,1.6-5.3v-.7h-8.3v-2h10.5v11.6h-2.1v-2.8h-.4c-.3.6-.7,1.1-1.2,1.6-.5.5-1.2.9-2.1,1.2-.9.3-1.9.5-3.2.5Z"/>
      <path class="cls-4" d="M1483.7,1249.2v-17.5h2.1v2.2h.4c.3-.8.8-1.4,1.5-1.7.7-.4,1.6-.5,2.8-.5h2.1v2h-2.3c-1.3,0-2.4.4-3.2,1.1s-1.2,1.9-1.2,3.5v10.9h-2.2Z"/>
      <path class="cls-4" d="M1502.4,1249.7c-1.2,0-2.3-.2-3.3-.6-1-.4-1.8-1-2.4-1.9-.6-.8-.9-1.8-.9-3s.3-2.1.9-2.9c.6-.8,1.4-1.3,2.3-1.7,1-.4,2.1-.6,3.3-.6h6.4v-1.4c0-1.4-.4-2.5-1.2-3.3-.8-.8-2-1.2-3.6-1.2s-2.8.4-3.7,1.1c-.9.8-1.5,1.8-1.8,3l-2.1-.6c.3-1,.7-2,1.4-2.8.6-.8,1.5-1.5,2.5-2,1-.5,2.3-.7,3.7-.7,2.2,0,3.9.6,5.1,1.7,1.2,1.2,1.8,2.8,1.8,4.8v8.5c0,.7.3,1.1,1,1.1h1.7v1.9h-2.3c-.7,0-1.3-.2-1.8-.7-.4-.4-.6-1-.6-1.8v-.3h-.4c-.3.5-.7,1-1.2,1.5-.5.5-1.1.9-1.9,1.2s-1.8.5-3,.5ZM1502.5,1247.8c1.8,0,3.3-.6,4.5-1.7,1.1-1.1,1.7-2.7,1.7-4.7v-.4h-6.4c-1.2,0-2.3.3-3.1.8-.8.5-1.2,1.4-1.2,2.5s.4,2,1.3,2.6c.9.6,1.9.9,3.3.9Z"/>
      <path class="cls-4" d="M1524.4,1249.6c-1.2,0-2.4-.3-3.5-.8-1.1-.5-1.9-1.3-2.6-2.4-.6-1.1-1-2.4-1-4v-10.7h2.2v10.5c0,1.9.5,3.3,1.4,4.1,1,.9,2.2,1.3,3.9,1.3s3.3-.6,4.5-1.8c1.2-1.2,1.8-3,1.8-5.4v-8.7h2.2v17.5h-2.1v-3.2h-.4c-.4.9-1.1,1.8-2.1,2.5-1,.7-2.4,1.1-4.3,1.1Z"/>
      <path class="cls-4" d="M1549,1249.7c-1.9,0-3.4-.4-4.5-1.1s-1.9-1.6-2.4-2.6h-.4v3.2h-2.1v-25.2h2.2v10.8h.4c.3-.6.8-1.2,1.3-1.7.6-.5,1.3-1,2.2-1.3s2-.5,3.3-.5,3,.4,4.3,1.1c1.3.7,2.3,1.8,3,3.1.7,1.4,1.1,3,1.1,4.8v.4c0,1.8-.4,3.5-1.1,4.8-.8,1.4-1.8,2.4-3,3.1-1.3.7-2.7,1.1-4.2,1.1ZM1548.5,1247.8c2,0,3.6-.6,4.8-1.9,1.2-1.3,1.9-3,1.9-5.3v-.3c0-2.2-.6-4-1.9-5.3-1.2-1.3-2.9-1.9-4.8-1.9s-3.6.6-4.8,1.9c-1.2,1.3-1.9,3-1.9,5.3v.3c0,2.2.6,4,1.9,5.3,1.2,1.3,2.9,1.9,4.8,1.9Z"/>
      <path class="cls-4" d="M1569.7,1249.6c-1.2,0-2.4-.3-3.5-.8-1.1-.5-1.9-1.3-2.6-2.4-.6-1.1-1-2.4-1-4v-10.7h2.2v10.5c0,1.9.5,3.3,1.4,4.1,1,.9,2.2,1.3,3.9,1.3s3.3-.6,4.5-1.8c1.2-1.2,1.8-3,1.8-5.4v-8.7h2.2v17.5h-2.1v-3.2h-.4c-.4.9-1.1,1.8-2.1,2.5-1,.7-2.4,1.1-4.3,1.1ZM1567.4,1228.7c-.5,0-1-.2-1.3-.5-.3-.3-.5-.8-.5-1.3s.2-1,.5-1.3c.3-.3.8-.5,1.3-.5s1,.2,1.3.5c.3.3.5.8.5,1.3s-.2,1-.5,1.3c-.3.3-.8.5-1.3.5ZM1573.9,1228.7c-.5,0-1-.2-1.3-.5-.3-.3-.5-.8-.5-1.3s.2-1,.5-1.3c.3-.3.8-.5,1.3-.5s1,.2,1.3.5c.3.3.5.8.5,1.3s-.2,1-.5,1.3c-.3.3-.8.5-1.3.5Z"/>
      <path class="cls-4" d="M1584.9,1249.2v-17.5h2.1v3.2h.4c.4-.9,1.1-1.8,2.1-2.5,1-.7,2.4-1.1,4.3-1.1s2.4.3,3.5.8c1.1.5,1.9,1.3,2.5,2.4.6,1.1,1,2.4,1,4v10.7h-2.2v-10.5c0-1.9-.5-3.3-1.4-4.1-1-.8-2.2-1.3-3.9-1.3s-3.3.6-4.5,1.8c-1.2,1.2-1.8,3-1.8,5.4v8.7h-2.2Z"/>
      <path class="cls-4" d="M1614.5,1249.7c-1.6,0-3-.4-4.2-1.1-1.3-.7-2.3-1.8-3-3.1-.8-1.4-1.1-3-1.1-4.8v-.4c0-1.8.4-3.5,1.1-4.8.7-1.4,1.8-2.4,3-3.1,1.3-.7,2.7-1.1,4.3-1.1s2.4.2,3.3.5c.9.3,1.6.8,2.2,1.3.6.5,1,1.1,1.3,1.7h.4v-10.8h2.2v25.2h-2.1v-3.2h-.4c-.5,1-1.3,1.8-2.4,2.6-1.1.8-2.6,1.1-4.5,1.1ZM1615,1247.8c2,0,3.6-.6,4.8-1.9,1.2-1.3,1.9-3,1.9-5.3v-.3c0-2.2-.6-4-1.9-5.3-1.2-1.3-2.9-1.9-4.8-1.9s-3.6.6-4.8,1.9c-1.2,1.3-1.9,3-1.9,5.3v.3c0,2.2.6,4,1.9,5.3,1.2,1.3,2.9,1.9,4.8,1.9Z"/>
      <path class="cls-4" d="M1638.3,1249.7c-1.8,0-3.4-.4-4.7-1.1s-2.4-1.8-3.1-3.2c-.7-1.4-1.1-2.9-1.1-4.7v-.4c0-1.8.4-3.4,1.1-4.7.7-1.4,1.8-2.4,3.1-3.2,1.3-.8,2.8-1.1,4.5-1.1s3.1.3,4.3,1c1.3.7,2.2,1.7,3,3,.7,1.3,1.1,2.8,1.1,4.6v1.2h-14.9c0,2.2.7,3.9,2,5.1,1.3,1.2,2.8,1.8,4.8,1.8s2.9-.4,3.8-1.1c.9-.7,1.6-1.7,2.1-2.7l1.9.9c-.4.8-.9,1.6-1.5,2.3-.6.8-1.5,1.4-2.5,1.9-1,.5-2.3.7-3.9.7ZM1631.5,1239.1h12.7c0-1.9-.7-3.4-1.8-4.4-1.1-1-2.6-1.5-4.4-1.5s-3.2.5-4.4,1.5c-1.2,1-1.9,2.5-2.1,4.4Z"/>
      <path class="cls-4" d="M1651.7,1249.2v-17.5h2.1v3.2h.4c.4-.9,1.1-1.8,2.1-2.5,1-.7,2.4-1.1,4.3-1.1s2.4.3,3.5.8c1.1.5,1.9,1.3,2.5,2.4.6,1.1,1,2.4,1,4v10.7h-2.2v-10.5c0-1.9-.5-3.3-1.4-4.1-1-.8-2.2-1.3-3.9-1.3s-3.3.6-4.5,1.8c-1.2,1.2-1.8,3-1.8,5.4v8.7h-2.2Z"/>
      <path class="cls-4" d="M1538.1,1292.9c-1.8,0-3.4-.3-4.8-1-1.4-.6-2.5-1.6-3.3-2.9-.8-1.3-1.2-3-1.2-5v-.7h2.3v.7c0,2.3.7,4,2,5.2,1.3,1.1,3,1.7,5.1,1.7s3.7-.5,4.8-1.5c1.1-1,1.7-2.2,1.7-3.7s-.2-1.8-.7-2.4c-.5-.6-1.2-1.1-2.1-1.5-.9-.4-1.9-.7-3-1l-2.3-.6c-1.4-.4-2.6-.8-3.7-1.3s-1.9-1.2-2.6-2.1c-.6-.9-.9-2-.9-3.4s.4-2.6,1.1-3.6c.7-1,1.7-1.8,2.9-2.3s2.7-.8,4.4-.8,3.1.3,4.5.9,2.4,1.4,3.2,2.5c.8,1.1,1.2,2.5,1.2,4.2v1.7h-2.3v-1.7c0-1.3-.3-2.4-.9-3.2-.6-.8-1.4-1.4-2.3-1.8-1-.4-2.1-.6-3.3-.6-1.8,0-3.2.4-4.3,1.2-1.1.8-1.7,2-1.7,3.5s.2,1.8.7,2.4,1.1,1.1,2,1.4c.9.4,1.9.7,3,1l2.3.6c1.3.3,2.5.7,3.6,1.2,1.1.5,2,1.2,2.7,2.1.7.9,1,2.1,1,3.5s-.4,2.7-1.1,3.8c-.7,1.1-1.8,1.9-3.1,2.5-1.3.6-2.9.9-4.6.9Z"/>
      <path class="cls-4" d="M1560.1,1292.9c-1.7,0-3.2-.4-4.6-1.1-1.3-.7-2.4-1.8-3.1-3.2-.8-1.4-1.2-3-1.2-4.8v-.4c0-1.9.4-3.5,1.2-4.8.8-1.4,1.8-2.4,3.1-3.1,1.3-.7,2.8-1.1,4.6-1.1s3.1.3,4.3,1,2.1,1.5,2.7,2.5c.7,1,1.1,2.1,1.2,3.2l-2.1.4c-.1-.9-.4-1.8-.9-2.6-.5-.8-1.2-1.4-2-1.9-.9-.5-1.9-.7-3.2-.7s-2.4.3-3.4.9c-1,.6-1.8,1.4-2.4,2.5-.6,1.1-.9,2.3-.9,3.8v.3c0,1.5.3,2.7.9,3.8.6,1.1,1.4,1.9,2.4,2.5,1,.6,2.1.9,3.4.9,1.9,0,3.4-.5,4.4-1.5,1-1,1.6-2.2,1.9-3.7l2.1.4c-.2,1.1-.7,2.2-1.3,3.2-.7,1-1.6,1.8-2.8,2.5s-2.6,1-4.3,1Z"/>
      <path class="cls-4" d="M1573.8,1292.4v-25.2h2.2v10.8h.4c.3-.6.7-1.1,1.2-1.6.5-.5,1.2-.9,2-1.3s1.9-.5,3.1-.5,2.4.3,3.5.8c1.1.5,1.9,1.3,2.5,2.4.6,1.1,1,2.4,1,4v10.7h-2.2v-10.5c0-1.9-.5-3.3-1.4-4.1-1-.8-2.2-1.2-3.9-1.2s-3.3.6-4.5,1.8c-1.2,1.2-1.8,3-1.8,5.4v8.7h-2.2Z"/>
      <path class="cls-4" d="M1598.8,1292.4l-4-17.5h2.2l3.5,16.1h.4l4.5-16.1h3.7l4.5,16.1h.4l3.5-16.1h2.2l-4,17.5h-3.8l-4.5-16.1h-.4l-4.5,16.1h-3.8Z"/>
      <path class="cls-4" d="M1633,1292.9c-1.8,0-3.4-.4-4.7-1.1s-2.4-1.8-3.1-3.2c-.7-1.4-1.1-2.9-1.1-4.7v-.4c0-1.8.4-3.4,1.1-4.7.7-1.4,1.8-2.4,3.1-3.2,1.3-.8,2.8-1.1,4.5-1.1s3.1.3,4.3,1c1.3.7,2.2,1.7,3,3,.7,1.3,1.1,2.8,1.1,4.6v1.2h-14.9c0,2.2.7,3.9,2,5.1,1.3,1.2,2.8,1.8,4.8,1.8s2.9-.4,3.8-1.1c.9-.7,1.6-1.7,2.1-2.7l1.9.9c-.4.8-.9,1.6-1.5,2.3-.6.8-1.5,1.4-2.5,1.9-1,.5-2.3.7-3.9.7ZM1626.3,1282.3h12.7c0-1.9-.7-3.4-1.8-4.4-1.1-1-2.6-1.5-4.4-1.5s-3.2.5-4.4,1.5c-1.2,1-1.9,2.5-2.1,4.4Z"/>
      <path class="cls-4" d="M1647.6,1271.9c-.5,0-1-.2-1.3-.5-.4-.4-.5-.8-.5-1.3s.2-1,.5-1.4c.4-.3.8-.5,1.3-.5s1,.2,1.4.5c.3.3.5.8.5,1.4s-.2,1-.5,1.3c-.3.4-.8.5-1.4.5ZM1646.5,1292.4v-17.5h2.2v17.5h-2.2Z"/>
      <path class="cls-4" d="M1654.1,1292.4v-3l11.8-12.2v-.4h-11.4v-1.9h13.6v3l-11.8,12.2v.4h12.1v1.9h-14.3Z"/>
    </g>
    <g>
      <path class="cls-4" d="M2722.2,787.1v-2.7h3.5v-19.8h-3.5v-2.7h9.8c3.3,0,5.9.8,7.7,2.5,1.8,1.7,2.7,4.3,2.7,7.7v4.7c0,3.5-.9,6.1-2.7,7.8-1.8,1.7-4.4,2.5-7.7,2.5h-9.8ZM2728.8,784.3h3.3c2.4,0,4.3-.6,5.5-1.8,1.2-1.2,1.9-3.1,1.9-5.6v-4.9c0-2.6-.6-4.4-1.9-5.6-1.2-1.2-3.1-1.8-5.5-1.8h-3.3v19.7Z"/>
      <path class="cls-4" d="M2748.8,766.7c-.6,0-1.1-.2-1.6-.6-.4-.4-.6-.9-.6-1.5s.2-1.2.6-1.6.9-.6,1.6-.6,1.1.2,1.5.6.6.9.6,1.6-.2,1.1-.6,1.5c-.4.4-.9.6-1.5.6ZM2747.4,787.1v-17.6h2.8v17.6h-2.8Z"/>
      <path class="cls-4" d="M2764.3,787.6c-1.8,0-3.3-.4-4.7-1.1s-2.4-1.8-3.1-3.2c-.7-1.4-1.1-3-1.1-4.8v-.4c0-1.8.4-3.4,1.1-4.8.7-1.4,1.8-2.4,3.1-3.2,1.3-.8,2.8-1.1,4.5-1.1s3.1.4,4.4,1.1c1.3.7,2.3,1.7,3,3,.7,1.3,1.1,2.9,1.1,4.6v1.3h-14.4c0,1.9.7,3.4,1.8,4.4,1.2,1.1,2.6,1.6,4.3,1.6s2.7-.3,3.5-1c.8-.7,1.4-1.5,1.9-2.5l2.4,1.2c-.4.7-.9,1.5-1.5,2.2-.6.7-1.5,1.4-2.5,1.9s-2.3.8-3.9.8ZM2758.2,776.7h11.4c0-1.6-.7-2.9-1.7-3.8-1-.9-2.3-1.4-3.9-1.4s-2.9.5-4,1.4-1.7,2.2-1.9,3.8Z"/>
      <path class="cls-4" d="M2795.8,787.6c-1.9,0-3.5-.3-4.9-1s-2.5-1.7-3.2-3c-.8-1.3-1.2-3-1.2-4.9v-16.8h3v16.8c0,2.1.6,3.6,1.7,4.6,1.1,1,2.7,1.5,4.6,1.5s3.5-.5,4.6-1.5c1.1-1,1.7-2.6,1.7-4.6v-16.8h3v16.8c0,1.9-.4,3.6-1.2,4.9-.8,1.3-1.9,2.3-3.3,3s-3,1-4.9,1ZM2792.2,759.7c-.6,0-1.1-.2-1.5-.6-.4-.4-.6-.9-.6-1.5s.2-1.2.6-1.5c.4-.4.9-.6,1.5-.6s1.1.2,1.5.6c.4.4.6.9.6,1.5s-.2,1.1-.6,1.5c-.4.4-.9.6-1.5.6ZM2799.3,759.7c-.6,0-1.1-.2-1.5-.6-.4-.4-.6-.9-.6-1.5s.2-1.2.6-1.5c.4-.4.9-.6,1.5-.6s1.1.2,1.5.6c.4.4.6.9.6,1.5s-.2,1.1-.6,1.5c-.4.4-.9.6-1.5.6Z"/>
      <path class="cls-4" d="M2820.5,787.6c-1.8,0-3.2-.3-4.3-1-1-.7-1.8-1.5-2.2-2.4h-.5v2.9h-2.8v-25.2h2.8v10.4h.5c.3-.6.7-1.1,1.2-1.6.5-.5,1.2-.9,2.1-1.2s1.9-.5,3.1-.5,2.9.4,4.2,1.1,2.3,1.8,3,3.1c.7,1.4,1.1,3,1.1,4.8v.5c0,1.9-.4,3.5-1.1,4.9-.8,1.4-1.8,2.4-3,3.1s-2.6,1.1-4.2,1.1ZM2819.7,785.1c1.8,0,3.3-.6,4.4-1.7,1.1-1.2,1.7-2.8,1.7-4.9v-.3c0-2.1-.6-3.7-1.7-4.9-1.1-1.2-2.6-1.7-4.4-1.7s-3.3.6-4.4,1.7-1.7,2.8-1.7,4.9v.3c0,2.1.6,3.7,1.7,4.9s2.6,1.7,4.4,1.7Z"/>
      <path class="cls-4" d="M2842,787.6c-1.8,0-3.3-.4-4.7-1.1-1.3-.8-2.4-1.8-3.1-3.2-.7-1.4-1.1-3-1.1-4.8v-.4c0-1.8.4-3.4,1.1-4.8.7-1.4,1.8-2.4,3.1-3.2,1.3-.8,2.8-1.1,4.5-1.1s3.1.4,4.4,1.1c1.3.7,2.3,1.7,3,3,.7,1.3,1.1,2.9,1.1,4.6v1.3h-14.4c0,1.9.7,3.4,1.8,4.4,1.2,1.1,2.6,1.6,4.3,1.6s2.7-.3,3.5-1c.8-.7,1.4-1.5,1.9-2.5l2.4,1.2c-.4.7-.9,1.5-1.5,2.2-.6.7-1.5,1.4-2.5,1.9-1,.5-2.3.8-3.9.8ZM2835.9,776.7h11.4c0-1.6-.7-2.9-1.7-3.8-1-.9-2.3-1.4-3.9-1.4s-2.9.5-4,1.4c-1,.9-1.7,2.2-1.9,3.8Z"/>
      <path class="cls-4" d="M2855.2,787.1v-17.6h2.8v2.2h.5c.3-.8.8-1.3,1.4-1.7.6-.4,1.5-.5,2.6-.5h2.1v2.6h-2.3c-1.3,0-2.3.4-3.1,1.1-.8.7-1.2,1.8-1.2,3.3v10.7h-2.8Z"/>
      <path class="cls-4" d="M2868.8,787.1v-17.6h2.8v2.2h.5c.3-.8.8-1.3,1.4-1.7.6-.4,1.5-.5,2.6-.5h2.1v2.6h-2.3c-1.3,0-2.3.4-3.1,1.1-.8.7-1.2,1.8-1.2,3.3v10.7h-2.8Z"/>
      <path class="cls-4" d="M2890.4,787.6c-1.8,0-3.3-.4-4.7-1.1s-2.4-1.8-3.1-3.2c-.7-1.4-1.1-3-1.1-4.8v-.4c0-1.8.4-3.4,1.1-4.8.7-1.4,1.8-2.4,3.1-3.2,1.3-.8,2.8-1.1,4.5-1.1s3.1.4,4.4,1.1c1.3.7,2.3,1.7,3,3,.7,1.3,1.1,2.9,1.1,4.6v1.3h-14.4c0,1.9.7,3.4,1.8,4.4,1.2,1.1,2.6,1.6,4.3,1.6s2.7-.3,3.5-1c.8-.7,1.4-1.5,1.9-2.5l2.4,1.2c-.4.7-.9,1.5-1.5,2.2-.6.7-1.5,1.4-2.5,1.9s-2.3.8-3.9.8ZM2884.4,776.7h11.4c0-1.6-.7-2.9-1.7-3.8-1-.9-2.3-1.4-3.9-1.4s-2.9.5-4,1.4-1.7,2.2-1.9,3.8Z"/>
      <path class="cls-4" d="M2910.8,787.6c-2.2,0-4-.5-5.5-1.5s-2.4-2.6-2.7-4.8l2.7-.6c.2,1.2.6,2.1,1.1,2.7.5.7,1.2,1.1,2,1.4.8.3,1.6.4,2.5.4,1.3,0,2.4-.3,3.1-.8.8-.5,1.2-1.2,1.2-2.1s-.4-1.6-1.1-1.9-1.7-.7-3-.9l-1.5-.3c-1.1-.2-2.2-.5-3.1-.9-.9-.4-1.7-1-2.2-1.7-.6-.7-.8-1.6-.8-2.6,0-1.6.6-2.8,1.8-3.7,1.2-.9,2.8-1.3,4.9-1.3s3.6.5,4.8,1.4c1.2.9,2,2.2,2.4,3.8l-2.7.7c-.2-1.3-.7-2.2-1.5-2.7-.8-.5-1.8-.8-3-.8s-2.1.2-2.8.7c-.7.4-1,1.1-1,2s.3,1.5,1,1.9,1.5.7,2.6.9l1.5.3c1.2.2,2.4.5,3.4.9,1,.4,1.8.9,2.4,1.6.6.7.9,1.6.9,2.7,0,1.7-.6,3.1-1.9,4-1.3.9-3,1.4-5.2,1.4Z"/>
      <path class="cls-4" d="M2929.1,787.1c-1,0-1.8-.3-2.3-.8-.5-.6-.8-1.3-.8-2.3v-12h-5.3v-2.5h5.3v-6.3h2.8v6.3h5.8v2.5h-5.8v11.6c0,.7.3,1.1,1,1.1h3.9v2.4h-4.7Z"/>
      <path class="cls-4" d="M2947.3,787.6c-1.8,0-3.3-.4-4.7-1.1-1.3-.8-2.4-1.8-3.1-3.2-.7-1.4-1.1-3-1.1-4.8v-.4c0-1.8.4-3.4,1.1-4.8.7-1.4,1.8-2.4,3.1-3.2,1.3-.8,2.8-1.1,4.5-1.1s3.1.4,4.4,1.1c1.3.7,2.3,1.7,3,3,.7,1.3,1.1,2.9,1.1,4.6v1.3h-14.4c0,1.9.7,3.4,1.8,4.4,1.2,1.1,2.6,1.6,4.3,1.6s2.7-.3,3.5-1c.8-.7,1.4-1.5,1.9-2.5l2.4,1.2c-.4.7-.9,1.5-1.5,2.2-.6.7-1.5,1.4-2.5,1.9-1,.5-2.3.8-3.9.8ZM2941.2,776.7h11.4c0-1.6-.7-2.9-1.7-3.8-1-.9-2.3-1.4-3.9-1.4s-2.9.5-4,1.4c-1,.9-1.7,2.2-1.9,3.8Z"/>
      <path class="cls-4" d="M2977.2,787.6c-1.5,0-2.9-.4-4.2-1.1-1.3-.7-2.3-1.8-3-3.1-.7-1.4-1.1-3-1.1-4.9v-.5c0-1.9.4-3.5,1.1-4.8.7-1.4,1.7-2.4,3-3.1,1.3-.7,2.7-1.1,4.2-1.1s2.3.2,3.1.5c.9.3,1.5.7,2.1,1.2.5.5.9,1,1.2,1.6h.5v-10.4h2.8v25.2h-2.8v-2.9h-.5c-.5.9-1.2,1.7-2.2,2.4-1,.7-2.4,1-4.2,1ZM2978,785.1c1.8,0,3.3-.6,4.4-1.7s1.7-2.8,1.7-4.9v-.3c0-2.1-.6-3.7-1.7-4.9s-2.6-1.7-4.4-1.7-3.3.6-4.4,1.7c-1.2,1.2-1.7,2.8-1.7,4.9v.3c0,2.1.6,3.7,1.7,4.9,1.2,1.2,2.6,1.7,4.4,1.7Z"/>
      <path class="cls-4" d="M3001,787.6c-1.8,0-3.3-.4-4.7-1.1-1.3-.8-2.4-1.8-3.1-3.2-.7-1.4-1.1-3-1.1-4.8v-.4c0-1.8.4-3.4,1.1-4.8.7-1.4,1.8-2.4,3.1-3.2,1.3-.8,2.8-1.1,4.5-1.1s3.1.4,4.4,1.1c1.3.7,2.3,1.7,3,3,.7,1.3,1.1,2.9,1.1,4.6v1.3h-14.4c0,1.9.7,3.4,1.8,4.4,1.2,1.1,2.6,1.6,4.3,1.6s2.7-.3,3.5-1c.8-.7,1.4-1.5,1.9-2.5l2.4,1.2c-.4.7-.9,1.5-1.5,2.2-.6.7-1.5,1.4-2.5,1.9-1,.5-2.3.8-3.9.8ZM2995,776.7h11.4c0-1.6-.7-2.9-1.7-3.8-1-.9-2.3-1.4-3.9-1.4s-2.9.5-4,1.4c-1,.9-1.7,2.2-1.9,3.8Z"/>
      <path class="cls-4" d="M3021.4,787.6c-2.2,0-4-.5-5.5-1.5-1.5-1-2.4-2.6-2.7-4.8l2.7-.6c.2,1.2.6,2.1,1.1,2.7.5.7,1.2,1.1,2,1.4.8.3,1.6.4,2.5.4,1.3,0,2.4-.3,3.1-.8.8-.5,1.2-1.2,1.2-2.1s-.4-1.6-1.1-1.9c-.7-.4-1.7-.7-3-.9l-1.5-.3c-1.1-.2-2.2-.5-3.1-.9-.9-.4-1.7-1-2.2-1.7-.6-.7-.8-1.6-.8-2.6,0-1.6.6-2.8,1.8-3.7,1.2-.9,2.8-1.3,4.9-1.3s3.6.5,4.8,1.4c1.2.9,2,2.2,2.4,3.8l-2.7.7c-.2-1.3-.7-2.2-1.5-2.7-.8-.5-1.8-.8-3-.8s-2.1.2-2.8.7c-.7.4-1,1.1-1,2s.3,1.5,1,1.9,1.5.7,2.6.9l1.5.3c1.2.2,2.4.5,3.4.9,1,.4,1.8.9,2.4,1.6s.9,1.6.9,2.7c0,1.7-.6,3.1-1.9,4-1.3.9-3,1.4-5.2,1.4Z"/>
      <path class="cls-4" d="M3041.2,787.1v-2.7h3.5v-19.8h-3.5v-2.7h12.6c1.5,0,2.8.3,3.9.8,1.1.5,2,1.3,2.7,2.2.6.9,1,2.1,1,3.3v.3c0,1.2-.2,2.1-.7,2.9-.5.8-1,1.3-1.6,1.8s-1.2.7-1.8.9v.5c.6.1,1.2.4,1.9.8.6.4,1.2,1,1.6,1.8.4.8.7,1.7.7,2.9v.4c0,1.4-.3,2.5-1,3.5s-1.6,1.8-2.7,2.3c-1.1.5-2.4.8-3.9.8h-12.6ZM3047.8,773h5.8c1.4,0,2.6-.4,3.5-1.1.9-.7,1.3-1.7,1.3-2.9v-.4c0-1.2-.4-2.2-1.3-2.9-.9-.7-2-1.1-3.5-1.1h-5.8v8.4ZM3047.8,784.3h5.7c1.6,0,2.8-.4,3.6-1.1s1.3-1.8,1.3-3v-.3c0-1.3-.4-2.3-1.3-3s-2.1-1.1-3.6-1.1h-5.7v8.6Z"/>
      <path class="cls-4" d="M3074.4,787.6c-1.8,0-3.3-.4-4.7-1.1-1.3-.8-2.4-1.8-3.1-3.2-.7-1.4-1.1-3-1.1-4.8v-.4c0-1.8.4-3.4,1.1-4.8.7-1.4,1.8-2.4,3.1-3.2,1.3-.8,2.8-1.1,4.5-1.1s3.1.4,4.4,1.1c1.3.7,2.3,1.7,3,3,.7,1.3,1.1,2.9,1.1,4.6v1.3h-14.4c0,1.9.7,3.4,1.8,4.4,1.2,1.1,2.6,1.6,4.3,1.6s2.7-.3,3.5-1c.8-.7,1.4-1.5,1.9-2.5l2.4,1.2c-.4.7-.9,1.5-1.5,2.2-.6.7-1.5,1.4-2.5,1.9-1,.5-2.3.8-3.9.8ZM3068.3,776.7h11.4c0-1.6-.7-2.9-1.7-3.8-1-.9-2.3-1.4-3.9-1.4s-2.9.5-4,1.4c-1,.9-1.7,2.2-1.9,3.8Z"/>
      <path class="cls-4" d="M3087.6,787.1v-17.6h2.8v2.2h.5c.3-.8.8-1.3,1.4-1.7.6-.4,1.5-.5,2.6-.5h2.1v2.6h-2.3c-1.3,0-2.3.4-3.1,1.1-.8.7-1.2,1.8-1.2,3.3v10.7h-2.8Z"/>
      <path class="cls-4" d="M3100.3,778.4v-.5c0-1.8.4-3.4,1.1-4.8.7-1.3,1.8-2.3,3-3.1,1.3-.7,2.7-1.1,4.2-1.1s3.3.4,4.3,1.1c1,.7,1.7,1.5,2.2,2.4h.5v-2.9h2.7v21.7c0,1-.3,1.7-.8,2.3-.5.6-1.3.8-2.3.8h-12v-2.5h11.2c.7,0,1.1-.4,1.1-1.1v-6.7h-.5c-.3.5-.7,1-1.2,1.5-.5.5-1.2.9-2.1,1.2-.8.3-1.9.5-3.1.5s-2.9-.4-4.2-1.1c-1.3-.7-2.3-1.7-3-3.1-.7-1.3-1.1-2.9-1.1-4.7ZM3109.4,784.7c1.8,0,3.3-.6,4.4-1.7,1.1-1.2,1.7-2.7,1.7-4.8v-.3c0-2-.6-3.6-1.7-4.8s-2.6-1.7-4.4-1.7-3.3.6-4.4,1.7c-1.2,1.1-1.7,2.7-1.7,4.8v.3c0,2,.6,3.6,1.7,4.8,1.2,1.2,2.6,1.7,4.4,1.7Z"/>
      <path class="cls-4" d="M3131.4,787.6c-2.2,0-4-.5-5.5-1.5s-2.4-2.6-2.7-4.8l2.7-.6c.2,1.2.6,2.1,1.1,2.7.5.7,1.2,1.1,2,1.4.8.3,1.6.4,2.5.4,1.3,0,2.4-.3,3.1-.8.8-.5,1.2-1.2,1.2-2.1s-.4-1.6-1.1-1.9-1.7-.7-3-.9l-1.5-.3c-1.1-.2-2.2-.5-3.1-.9-.9-.4-1.7-1-2.2-1.7-.6-.7-.8-1.6-.8-2.6,0-1.6.6-2.8,1.8-3.7,1.2-.9,2.8-1.3,4.9-1.3s3.6.5,4.8,1.4c1.2.9,2,2.2,2.4,3.8l-2.7.7c-.2-1.3-.7-2.2-1.5-2.7-.8-.5-1.8-.8-3-.8s-2.1.2-2.8.7c-.7.4-1,1.1-1,2s.3,1.5,1,1.9,1.5.7,2.6.9l1.5.3c1.2.2,2.4.5,3.4.9,1,.4,1.8.9,2.4,1.6.6.7.9,1.6.9,2.7,0,1.7-.6,3.1-1.9,4-1.3.9-3,1.4-5.2,1.4Z"/>
      <path class="cls-4" d="M3149.7,787.1c-1,0-1.8-.3-2.3-.8-.5-.6-.8-1.3-.8-2.3v-12h-5.3v-2.5h5.3v-6.3h2.8v6.3h5.8v2.5h-5.8v11.6c0,.7.3,1.1,1,1.1h3.9v2.4h-4.7Z"/>
      <path class="cls-4" d="M3166.6,787.4c-1.3,0-2.4-.3-3.5-.8-1.1-.6-1.9-1.4-2.5-2.5-.6-1.1-.9-2.4-.9-4v-10.7h2.8v10.4c0,1.8.4,3,1.3,3.8s2.1,1.2,3.5,1.2,3.1-.6,4.1-1.7c1.1-1.1,1.6-2.7,1.6-4.9v-8.9h2.8v17.6h-2.8v-3h-.5c-.4.8-1,1.6-2,2.3-.9.7-2.3,1-4.1,1Z"/>
      <path class="cls-4" d="M3181.9,787.1v-17.6h2.8v2.2h.5c.3-.8.8-1.3,1.4-1.7.6-.4,1.5-.5,2.6-.5h2.1v2.6h-2.3c-1.3,0-2.3.4-3.1,1.1-.8.7-1.2,1.8-1.2,3.3v10.7h-2.8Z"/>
      <path class="cls-4" d="M3194.6,787.1v-3.7l11.2-11.1v-.4h-10.8v-2.5h13.8v3.7l-11.2,11.1v.4h11.5v2.4h-14.5Z"/>
      <path class="cls-4" d="M3222.2,787.6c-1.8,0-3.3-.4-4.7-1.1s-2.4-1.8-3.1-3.2c-.7-1.4-1.1-3-1.1-4.8v-.4c0-1.8.4-3.4,1.1-4.8.7-1.4,1.8-2.4,3.1-3.2,1.3-.8,2.8-1.1,4.5-1.1s3.1.4,4.4,1.1c1.3.7,2.3,1.7,3,3,.7,1.3,1.1,2.9,1.1,4.6v1.3h-14.4c0,1.9.7,3.4,1.8,4.4,1.2,1.1,2.6,1.6,4.3,1.6s2.7-.3,3.5-1c.8-.7,1.4-1.5,1.9-2.5l2.4,1.2c-.4.7-.9,1.5-1.5,2.2-.6.7-1.5,1.4-2.5,1.9s-2.3.8-3.9.8ZM3216.2,776.7h11.4c0-1.6-.7-2.9-1.7-3.8-1-.9-2.3-1.4-3.9-1.4s-2.9.5-4,1.4-1.7,2.2-1.9,3.8Z"/>
      <path class="cls-4" d="M3242.6,787.6c-2.2,0-4-.5-5.5-1.5-1.5-1-2.4-2.6-2.7-4.8l2.7-.6c.2,1.2.6,2.1,1.1,2.7.5.7,1.2,1.1,2,1.4.8.3,1.6.4,2.5.4,1.3,0,2.4-.3,3.1-.8.8-.5,1.2-1.2,1.2-2.1s-.4-1.6-1.1-1.9c-.7-.4-1.7-.7-3-.9l-1.5-.3c-1.1-.2-2.2-.5-3.1-.9-.9-.4-1.7-1-2.2-1.7-.6-.7-.8-1.6-.8-2.6,0-1.6.6-2.8,1.8-3.7,1.2-.9,2.8-1.3,4.9-1.3s3.6.5,4.8,1.4c1.2.9,2,2.2,2.4,3.8l-2.7.7c-.2-1.3-.7-2.2-1.5-2.7-.8-.5-1.8-.8-3-.8s-2.1.2-2.8.7c-.7.4-1,1.1-1,2s.3,1.5,1,1.9,1.5.7,2.6.9l1.5.3c1.2.2,2.4.5,3.4.9,1,.4,1.8.9,2.4,1.6s.9,1.6.9,2.7c0,1.7-.6,3.1-1.9,4-1.3.9-3,1.4-5.2,1.4Z"/>
      <path class="cls-4" d="M3268.2,787.1l-6.3-17.6h3l5.3,15.5h.5l5.3-15.5h3l-6.3,17.6h-4.5Z"/>
      <path class="cls-4" d="M3291.3,787.6c-1.8,0-3.3-.4-4.7-1.1-1.4-.7-2.4-1.8-3.2-3.1-.8-1.4-1.1-3-1.1-4.8v-.5c0-1.8.4-3.4,1.1-4.8.8-1.4,1.8-2.4,3.2-3.2,1.4-.7,2.9-1.1,4.7-1.1s3.3.4,4.7,1.1c1.4.7,2.4,1.8,3.2,3.2s1.1,3,1.1,4.8v.5c0,1.8-.4,3.5-1.1,4.8s-1.8,2.4-3.2,3.1c-1.4.7-2.9,1.1-4.7,1.1ZM3291.3,785c1.9,0,3.4-.6,4.5-1.8,1.1-1.2,1.7-2.8,1.7-4.8v-.3c0-2-.6-3.6-1.7-4.8-1.1-1.2-2.6-1.8-4.5-1.8s-3.3.6-4.5,1.8c-1.1,1.2-1.7,2.8-1.7,4.8v.3c0,2,.6,3.6,1.7,4.8,1.1,1.2,2.6,1.8,4.5,1.8Z"/>
      <path class="cls-4" d="M3305.4,787.1v-17.6h2.8v3h.5c.4-.8,1-1.6,2-2.3.9-.7,2.3-1,4.1-1s2.5.3,3.5.8,1.9,1.4,2.5,2.4c.6,1.1.9,2.4.9,4v10.7h-2.8v-10.4c0-1.8-.4-3-1.3-3.8s-2.1-1.2-3.5-1.2-3.1.6-4.2,1.7c-1.1,1.1-1.6,2.7-1.6,4.9v8.9h-2.8Z"/>
      <path class="cls-4" d="M2722.2,830.3v-2.7h3.5v-19.8h-3.5v-2.7h12.6c1.5,0,2.8.3,3.9.8,1.1.5,2,1.3,2.7,2.2.6.9,1,2.1,1,3.3v.3c0,1.2-.2,2.1-.7,2.9s-1,1.3-1.6,1.8-1.2.7-1.8.9v.5c.6.1,1.2.4,1.9.8.6.4,1.2,1,1.6,1.8.4.8.7,1.7.7,2.9v.4c0,1.4-.3,2.5-1,3.5-.7,1-1.6,1.8-2.7,2.3-1.1.5-2.4.8-3.9.8h-12.6ZM2728.8,816.2h5.8c1.4,0,2.6-.4,3.5-1.1s1.3-1.7,1.3-2.9v-.4c0-1.2-.4-2.2-1.3-2.9-.9-.7-2-1.1-3.5-1.1h-5.8v8.4ZM2728.8,827.5h5.7c1.6,0,2.8-.4,3.6-1.1.8-.7,1.3-1.8,1.3-3v-.3c0-1.3-.4-2.3-1.3-3-.8-.7-2.1-1.1-3.6-1.1h-5.7v8.6Z"/>
      <path class="cls-4" d="M2755.4,830.8c-1.8,0-3.3-.4-4.7-1.1-1.4-.7-2.4-1.8-3.2-3.1-.8-1.4-1.1-3-1.1-4.8v-.5c0-1.8.4-3.4,1.1-4.8.8-1.4,1.8-2.4,3.2-3.2,1.4-.7,2.9-1.1,4.7-1.1s3.3.4,4.7,1.1c1.4.7,2.4,1.8,3.2,3.2s1.1,3,1.1,4.8v.5c0,1.8-.4,3.5-1.1,4.8s-1.8,2.4-3.2,3.1c-1.4.7-2.9,1.1-4.7,1.1ZM2755.4,828.2c1.9,0,3.4-.6,4.5-1.8,1.1-1.2,1.7-2.8,1.7-4.8v-.3c0-2-.6-3.6-1.7-4.8-1.1-1.2-2.6-1.8-4.5-1.8s-3.3.6-4.5,1.8c-1.1,1.2-1.7,2.8-1.7,4.8v.3c0,2,.6,3.6,1.7,4.8,1.1,1.2,2.6,1.8,4.5,1.8Z"/>
      <path class="cls-4" d="M2769.6,830.3v-17.6h2.8v3h.5c.4-.8,1-1.6,2-2.3.9-.7,2.3-1,4.1-1s2.5.3,3.5.8,1.9,1.4,2.5,2.4.9,2.4.9,4v10.7h-2.8v-10.4c0-1.8-.4-3-1.3-3.8s-2.1-1.2-3.5-1.2-3.1.6-4.2,1.7c-1.1,1.1-1.6,2.7-1.6,4.9v8.9h-2.8Z"/>
      <path class="cls-4" d="M2799.1,830.8c-1.5,0-2.9-.4-4.2-1.1-1.3-.7-2.3-1.8-3-3.1-.7-1.4-1.1-3-1.1-4.9v-.5c0-1.9.4-3.5,1.1-4.8.7-1.4,1.7-2.4,3-3.1s2.7-1.1,4.2-1.1,2.3.2,3.1.5c.9.3,1.5.7,2.1,1.2.5.5.9,1,1.2,1.6h.5v-10.4h2.8v25.2h-2.8v-2.9h-.5c-.5.9-1.2,1.7-2.2,2.4-1,.7-2.4,1-4.2,1ZM2799.8,828.3c1.8,0,3.3-.6,4.4-1.7,1.1-1.2,1.7-2.8,1.7-4.9v-.3c0-2.1-.6-3.7-1.7-4.9-1.1-1.2-2.6-1.7-4.4-1.7s-3.3.6-4.4,1.7-1.7,2.8-1.7,4.9v.3c0,2.1.6,3.7,1.7,4.9s2.6,1.7,4.4,1.7Z"/>
      <path class="cls-4" d="M2822.9,830.8c-1.8,0-3.3-.4-4.7-1.1-1.4-.7-2.4-1.8-3.2-3.1s-1.1-3-1.1-4.8v-.5c0-1.8.4-3.4,1.1-4.8s1.8-2.4,3.2-3.2c1.4-.7,2.9-1.1,4.7-1.1s3.3.4,4.7,1.1c1.4.7,2.4,1.8,3.2,3.2.8,1.4,1.1,3,1.1,4.8v.5c0,1.8-.4,3.5-1.1,4.8-.8,1.4-1.8,2.4-3.2,3.1-1.4.7-2.9,1.1-4.7,1.1ZM2822.9,828.2c1.9,0,3.4-.6,4.5-1.8,1.1-1.2,1.7-2.8,1.7-4.8v-.3c0-2-.6-3.6-1.7-4.8-1.1-1.2-2.6-1.8-4.5-1.8s-3.3.6-4.5,1.8c-1.1,1.2-1.7,2.8-1.7,4.8v.3c0,2,.6,3.6,1.7,4.8,1.1,1.2,2.6,1.8,4.5,1.8Z"/>
      <path class="cls-4" d="M2845.2,830.3v-2.6c0-1.8.3-3.2,1-4.3.6-1.1,1.5-1.9,2.7-2.6,1.1-.7,2.5-1.2,4.1-1.7l2-.6c1.1-.3,2-.8,2.8-1.2.8-.5,1.5-1.1,1.9-1.9.5-.8.7-1.7.7-2.8h0c0-1.7-.6-3-1.7-3.9-1.1-.9-2.5-1.4-4.2-1.4s-3.3.5-4.5,1.5-1.7,2.4-1.7,4.4v.5h-2.9v-.5c0-1.8.4-3.4,1.2-4.6.8-1.3,1.9-2.2,3.2-2.9s2.9-1,4.6-1,3.3.3,4.6,1c1.3.6,2.4,1.5,3.1,2.7.7,1.2,1.1,2.5,1.1,4v.3c0,1.6-.3,3-1,4-.6,1.1-1.5,1.9-2.7,2.6s-2.5,1.2-4,1.7l-1.9.6c-1.2.4-2.2.8-3,1.2s-1.4,1-1.8,1.6c-.4.6-.6,1.5-.6,2.6v.6h14.9v2.6h-17.8Z"/>
      <path class="cls-4" d="M2876.5,830.8c-2.9,0-5.1-.8-6.8-2.5-1.7-1.7-2.5-4.2-2.5-7.6v-5.9c0-3.4.8-5.9,2.5-7.6,1.7-1.7,4-2.6,6.8-2.6s5.2.9,6.9,2.6c1.7,1.7,2.5,4.2,2.5,7.6v5.9c0,3.4-.8,5.9-2.5,7.6s-4,2.5-6.9,2.5ZM2876.5,828.2c2.2,0,3.8-.6,4.9-1.9s1.6-3.1,1.6-5.4v-6.2c0-2.3-.6-4.1-1.7-5.4-1.1-1.3-2.7-1.9-4.8-1.9s-3.7.6-4.8,1.9c-1.1,1.3-1.6,3.1-1.6,5.4v6.2c0,2.4.5,4.2,1.6,5.5,1.1,1.3,2.7,1.9,4.8,1.9Z"/>
      <path class="cls-4" d="M2897.4,830.3v-23.3h-.5l-4.9,9h-3.2l6-10.9h5.5v25.2h-2.9Z"/>
      <path class="cls-4" d="M2908.6,830.3v-.9c0-.8,0-1.5.2-2.1.1-.6.4-1.3.8-2.1l9.6-17.1v-.4h-15v-2.6h18v3.5l-10,18c-.3.5-.5,1-.6,1.4s-.2.9-.2,1.5v.8h-2.9Z"/>
      <path class="cls-4" d="M2942.8,830.8c-2.2,0-4-.5-5.5-1.5-1.5-1-2.4-2.6-2.7-4.8l2.7-.6c.2,1.2.6,2.1,1.1,2.7.5.7,1.2,1.1,2,1.4.8.3,1.6.4,2.5.4,1.3,0,2.4-.3,3.1-.8.8-.5,1.2-1.2,1.2-2.1s-.4-1.6-1.1-1.9c-.7-.4-1.7-.7-3-.9l-1.5-.3c-1.1-.2-2.2-.5-3.1-.9-.9-.4-1.7-1-2.2-1.7-.6-.7-.8-1.6-.8-2.6,0-1.6.6-2.8,1.8-3.7,1.2-.9,2.8-1.3,4.9-1.3s3.6.5,4.8,1.4c1.2.9,2,2.2,2.4,3.8l-2.7.7c-.2-1.3-.7-2.2-1.5-2.7-.8-.5-1.8-.8-3-.8s-2.1.2-2.8.7c-.7.4-1,1.1-1,2s.3,1.5,1,1.9,1.5.7,2.6.9l1.5.3c1.2.2,2.4.5,3.4.9,1,.4,1.8.9,2.4,1.6s.9,1.6.9,2.7c0,1.7-.6,3.1-1.9,4-1.3.9-3,1.4-5.2,1.4Z"/>
      <path class="cls-4" d="M2956.1,809.9c-.6,0-1.1-.2-1.6-.6-.4-.4-.6-.9-.6-1.5s.2-1.2.6-1.6.9-.6,1.6-.6,1.1.2,1.5.6c.4.4.6.9.6,1.6s-.2,1.1-.6,1.5c-.4.4-.9.6-1.5.6ZM2954.7,830.3v-17.6h2.8v17.6h-2.8Z"/>
      <path class="cls-4" d="M2963.5,830.3v-17.6h2.8v3h.5c.4-.8,1-1.6,2-2.3.9-.7,2.3-1,4.1-1s2.5.3,3.5.8,1.9,1.4,2.5,2.4.9,2.4.9,4v10.7h-2.8v-10.4c0-1.8-.4-3-1.3-3.8s-2.1-1.2-3.5-1.2-3.1.6-4.2,1.7c-1.1,1.1-1.6,2.7-1.6,4.9v8.9h-2.8Z"/>
      <path class="cls-4" d="M2993,830.8c-1.5,0-2.9-.4-4.2-1.1-1.3-.7-2.3-1.8-3-3.1-.7-1.4-1.1-3-1.1-4.9v-.5c0-1.9.4-3.5,1.1-4.8.7-1.4,1.7-2.4,3-3.1s2.7-1.1,4.2-1.1,2.3.2,3.1.5c.9.3,1.5.7,2.1,1.2.5.5.9,1,1.2,1.6h.5v-10.4h2.8v25.2h-2.8v-2.9h-.5c-.5.9-1.2,1.7-2.2,2.4-1,.7-2.4,1-4.2,1ZM2993.8,828.3c1.8,0,3.3-.6,4.4-1.7,1.1-1.2,1.7-2.8,1.7-4.9v-.3c0-2.1-.6-3.7-1.7-4.9-1.1-1.2-2.6-1.7-4.4-1.7s-3.3.6-4.4,1.7-1.7,2.8-1.7,4.9v.3c0,2.1.6,3.7,1.7,4.9s2.6,1.7,4.4,1.7Z"/>
      <path class="cls-4" d="M3018,830.3v-17.6h2.8v3h.5c.4-.8,1-1.6,2-2.3.9-.7,2.3-1,4.1-1s2.5.3,3.5.8,1.9,1.4,2.5,2.4.9,2.4.9,4v10.7h-2.8v-10.4c0-1.8-.4-3-1.3-3.8-.9-.8-2.1-1.2-3.5-1.2s-3.1.6-4.2,1.7c-1.1,1.1-1.6,2.7-1.6,4.9v8.9h-2.8Z"/>
      <path class="cls-4" d="M3048.2,830.8c-1.8,0-3.3-.4-4.7-1.1-1.4-.7-2.4-1.8-3.2-3.1-.8-1.4-1.1-3-1.1-4.8v-.5c0-1.8.4-3.4,1.1-4.8.8-1.4,1.8-2.4,3.2-3.2,1.4-.7,2.9-1.1,4.7-1.1s3.3.4,4.7,1.1c1.4.7,2.4,1.8,3.2,3.2s1.1,3,1.1,4.8v.5c0,1.8-.4,3.5-1.1,4.8s-1.8,2.4-3.2,3.1c-1.4.7-2.9,1.1-4.7,1.1ZM3048.2,828.2c1.9,0,3.4-.6,4.5-1.8,1.1-1.2,1.7-2.8,1.7-4.8v-.3c0-2-.6-3.6-1.7-4.8-1.1-1.2-2.6-1.8-4.5-1.8s-3.3.6-4.5,1.8c-1.1,1.2-1.7,2.8-1.7,4.8v.3c0,2,.6,3.6,1.7,4.8,1.1,1.2,2.6,1.8,4.5,1.8Z"/>
      <path class="cls-4" d="M3070.4,830.8c-1.7,0-3.2-.4-4.6-1.1-1.4-.7-2.4-1.8-3.2-3.2s-1.2-3-1.2-4.9v-.4c0-1.9.4-3.5,1.2-4.9.8-1.4,1.8-2.4,3.2-3.1,1.4-.7,2.9-1.1,4.6-1.1s3.1.3,4.3.9c1.2.6,2.1,1.5,2.8,2.5.7,1,1.1,2.1,1.3,3.3l-2.8.6c-.1-.9-.4-1.7-.8-2.4-.4-.7-1.1-1.3-1.9-1.7-.8-.4-1.8-.6-2.9-.6s-2.2.3-3.1.8c-.9.5-1.7,1.3-2.2,2.3-.5,1-.8,2.2-.8,3.5v.3c0,1.4.3,2.5.8,3.5.5,1,1.3,1.7,2.2,2.3.9.5,2,.8,3.1.8,1.8,0,3.1-.5,4-1.4.9-.9,1.5-2,1.7-3.4l2.8.6c-.3,1.2-.7,2.2-1.4,3.3-.7,1-1.6,1.9-2.8,2.5-1.2.6-2.6.9-4.3.9Z"/>
      <path class="cls-4" d="M3083.8,830.3v-25.2h2.8v10.4h.5c.2-.5.6-1,1.1-1.5s1.1-.9,1.9-1.2c.8-.3,1.8-.5,3-.5s2.5.3,3.5.8c1,.6,1.9,1.4,2.5,2.4.6,1.1.9,2.4.9,4v10.7h-2.8v-10.4c0-1.8-.4-3-1.3-3.8s-2.1-1.2-3.5-1.2-3.1.6-4.2,1.7c-1.1,1.1-1.6,2.7-1.6,4.9v8.9h-2.8Z"/>
      <path class="cls-4" d="M3116.6,809.9c-.6,0-1.1-.2-1.6-.6-.4-.4-.6-.9-.6-1.5s.2-1.2.6-1.6.9-.6,1.6-.6,1.1.2,1.5.6.6.9.6,1.6-.2,1.1-.6,1.5c-.4.4-.9.6-1.5.6ZM3115.2,830.3v-17.6h2.8v17.6h-2.8Z"/>
      <path class="cls-4" d="M3124,830.3v-17.6h2.8v2.2h.5c.3-.6.9-1.2,1.7-1.7.8-.5,1.8-.8,3.2-.8s2.5.3,3.3.9c.9.6,1.5,1.3,1.9,2.2h.5c.4-.9,1-1.6,1.9-2.2.8-.6,2-.9,3.5-.9s2.2.2,3.1.7c.9.5,1.6,1.2,2.1,2.1.5.9.8,2,.8,3.2v11.9h-2.8v-11.7c0-1.2-.3-2.1-1-2.8-.7-.7-1.6-1-2.9-1s-2.4.4-3.2,1.3-1.2,2.1-1.2,3.6v10.6h-2.8v-11.7c0-1.2-.3-2.1-1-2.8s-1.6-1-2.9-1-2.4.4-3.2,1.3-1.2,2.1-1.2,3.6v10.6h-2.8Z"/>
      <path class="cls-4" d="M3154.9,830.3v-17.6h2.8v2.2h.5c.3-.6.9-1.2,1.7-1.7.8-.5,1.8-.8,3.2-.8s2.5.3,3.3.9c.9.6,1.5,1.3,1.9,2.2h.5c.4-.9,1-1.6,1.9-2.2.8-.6,2-.9,3.5-.9s2.2.2,3.1.7c.9.5,1.6,1.2,2.1,2.1.5.9.8,2,.8,3.2v11.9h-2.8v-11.7c0-1.2-.3-2.1-1-2.8-.7-.7-1.6-1-2.9-1s-2.4.4-3.2,1.3-1.2,2.1-1.2,3.6v10.6h-2.8v-11.7c0-1.2-.3-2.1-1-2.8-.7-.7-1.6-1-2.9-1s-2.4.4-3.2,1.3c-.8.8-1.2,2.1-1.2,3.6v10.6h-2.8Z"/>
      <path class="cls-4" d="M3194,830.8c-1.8,0-3.3-.4-4.7-1.1s-2.4-1.8-3.1-3.2c-.7-1.4-1.1-3-1.1-4.8v-.4c0-1.8.4-3.4,1.1-4.8.7-1.4,1.8-2.4,3.1-3.2,1.3-.8,2.8-1.1,4.5-1.1s3.1.4,4.4,1.1c1.3.7,2.3,1.7,3,3,.7,1.3,1.1,2.9,1.1,4.6v1.3h-14.4c0,1.9.7,3.4,1.8,4.4,1.2,1.1,2.6,1.6,4.3,1.6s2.7-.3,3.5-1c.8-.7,1.4-1.5,1.9-2.5l2.4,1.2c-.4.7-.9,1.5-1.5,2.2-.6.7-1.5,1.4-2.5,1.9s-2.3.8-3.9.8ZM3187.9,819.9h11.4c0-1.6-.7-2.9-1.7-3.8-1-.9-2.3-1.4-3.9-1.4s-2.9.5-4,1.4-1.7,2.2-1.9,3.8Z"/>
      <path class="cls-4" d="M3207.2,830.3v-17.6h2.8v2.2h.5c.3-.8.8-1.3,1.4-1.7.6-.4,1.5-.5,2.6-.5h2.1v2.6h-2.3c-1.3,0-2.3.4-3.1,1.1-.8.7-1.2,1.8-1.2,3.3v10.7h-2.8Z"/>
      <path class="cls-4" d="M3230,830.3v-17.6h2.8v3h.5c.4-.8,1-1.6,2-2.3.9-.7,2.3-1,4.1-1s2.5.3,3.5.8,1.9,1.4,2.5,2.4.9,2.4.9,4v10.7h-2.8v-10.4c0-1.8-.4-3-1.3-3.8s-2.1-1.2-3.5-1.2-3.1.6-4.2,1.7c-1.1,1.1-1.6,2.7-1.6,4.9v8.9h-2.8Z"/>
      <path class="cls-4" d="M3260.2,830.8c-1.8,0-3.3-.4-4.7-1.1-1.4-.7-2.4-1.8-3.2-3.1s-1.1-3-1.1-4.8v-.5c0-1.8.4-3.4,1.1-4.8s1.8-2.4,3.2-3.2c1.4-.7,2.9-1.1,4.7-1.1s3.3.4,4.7,1.1c1.4.7,2.4,1.8,3.2,3.2.8,1.4,1.1,3,1.1,4.8v.5c0,1.8-.4,3.5-1.1,4.8-.8,1.4-1.8,2.4-3.2,3.1-1.4.7-2.9,1.1-4.7,1.1ZM3260.2,828.2c1.9,0,3.4-.6,4.5-1.8,1.1-1.2,1.7-2.8,1.7-4.8v-.3c0-2-.6-3.6-1.7-4.8-1.1-1.2-2.6-1.8-4.5-1.8s-3.3.6-4.5,1.8c-1.1,1.2-1.7,2.8-1.7,4.8v.3c0,2,.6,3.6,1.7,4.8,1.1,1.2,2.6,1.8,4.5,1.8Z"/>
      <path class="cls-4" d="M3282.4,830.8c-1.7,0-3.2-.4-4.6-1.1-1.4-.7-2.4-1.8-3.2-3.2-.8-1.4-1.2-3-1.2-4.9v-.4c0-1.9.4-3.5,1.2-4.9.8-1.4,1.8-2.4,3.2-3.1,1.4-.7,2.9-1.1,4.6-1.1s3.1.3,4.3.9c1.2.6,2.1,1.5,2.8,2.5.7,1,1.1,2.1,1.3,3.3l-2.8.6c-.1-.9-.4-1.7-.8-2.4-.4-.7-1.1-1.3-1.9-1.7-.8-.4-1.8-.6-2.9-.6s-2.2.3-3.2.8-1.7,1.3-2.2,2.3c-.5,1-.8,2.2-.8,3.5v.3c0,1.4.3,2.5.8,3.5.5,1,1.3,1.7,2.2,2.3s2,.8,3.2.8c1.8,0,3.1-.5,4-1.4s1.5-2,1.7-3.4l2.8.6c-.3,1.2-.7,2.2-1.4,3.3-.7,1-1.6,1.9-2.8,2.5-1.2.6-2.6.9-4.3.9Z"/>
      <path class="cls-4" d="M3295.9,830.3v-25.2h2.8v10.4h.5c.2-.5.6-1,1.1-1.5s1.1-.9,1.9-1.2c.8-.3,1.8-.5,3-.5s2.5.3,3.5.8c1,.6,1.9,1.4,2.5,2.4.6,1.1.9,2.4.9,4v10.7h-2.8v-10.4c0-1.8-.4-3-1.3-3.8s-2.1-1.2-3.5-1.2-3.1.6-4.2,1.7c-1.1,1.1-1.6,2.7-1.6,4.9v8.9h-2.8Z"/>
      <path class="cls-4" d="M3326.3,821.6v-.5c0-1.8.4-3.4,1.1-4.8.7-1.3,1.8-2.3,3-3.1,1.3-.7,2.7-1.1,4.2-1.1s3.3.4,4.3,1.1c1,.7,1.7,1.5,2.2,2.4h.5v-2.9h2.7v21.7c0,1-.3,1.7-.8,2.3-.5.6-1.3.8-2.3.8h-12v-2.5h11.2c.7,0,1.1-.4,1.1-1.1v-6.7h-.5c-.3.5-.7,1-1.2,1.5-.5.5-1.2.9-2.1,1.2-.8.3-1.9.5-3.1.5s-2.9-.4-4.2-1.1c-1.3-.7-2.3-1.7-3-3.1-.7-1.3-1.1-2.9-1.1-4.7ZM3335.4,827.9c1.8,0,3.3-.6,4.4-1.7,1.1-1.2,1.7-2.7,1.7-4.8v-.3c0-2-.6-3.6-1.7-4.8s-2.6-1.7-4.4-1.7-3.3.6-4.4,1.7-1.7,2.7-1.7,4.8v.3c0,2,.6,3.6,1.7,4.8,1.2,1.2,2.6,1.7,4.4,1.7Z"/>
      <path class="cls-4" d="M3357,830.6c-1.3,0-2.4-.3-3.5-.8-1.1-.6-1.9-1.4-2.5-2.5-.6-1.1-.9-2.4-.9-4v-10.7h2.8v10.4c0,1.8.4,3,1.3,3.8s2.1,1.2,3.5,1.2,3.1-.6,4.1-1.7c1.1-1.1,1.6-2.7,1.6-4.9v-8.9h2.8v17.6h-2.8v-3h-.5c-.4.8-1,1.6-2,2.3-.9.7-2.3,1-4.1,1Z"/>
      <path class="cls-4" d="M3378.8,830.3c-1,0-1.8-.3-2.3-.8-.5-.6-.8-1.3-.8-2.3v-12h-5.3v-2.5h5.3v-6.3h2.8v6.3h5.8v2.5h-5.8v11.6c0,.7.3,1.1,1,1.1h3.9v2.4h-4.7Z"/>
      <path class="cls-4" d="M2730.6,874c-2.2,0-4-.5-5.5-1.5-1.5-1-2.4-2.6-2.7-4.8l2.7-.6c.2,1.2.6,2.1,1.1,2.7.5.7,1.2,1.1,2,1.4.8.3,1.6.4,2.5.4,1.3,0,2.4-.3,3.1-.8.8-.5,1.2-1.2,1.2-2.1s-.4-1.6-1.1-1.9c-.7-.4-1.7-.7-3-.9l-1.5-.3c-1.1-.2-2.2-.5-3.1-.9-.9-.4-1.7-1-2.2-1.7-.6-.7-.8-1.6-.8-2.6,0-1.6.6-2.8,1.8-3.7,1.2-.9,2.8-1.3,4.9-1.3s3.6.5,4.8,1.4c1.2.9,2,2.2,2.4,3.8l-2.7.7c-.2-1.3-.7-2.2-1.5-2.7-.8-.5-1.8-.8-3-.8s-2.1.2-2.8.7c-.7.4-1,1.1-1,2s.3,1.5,1,1.9,1.5.7,2.6.9l1.5.3c1.2.2,2.4.5,3.4.9,1,.4,1.8.9,2.4,1.6s.9,1.6.9,2.7c0,1.7-.6,3.1-1.9,4-1.3.9-3,1.4-5.2,1.4Z"/>
      <path class="cls-4" d="M2743.9,853.1c-.6,0-1.1-.2-1.6-.6-.4-.4-.6-.9-.6-1.5s.2-1.2.6-1.6.9-.6,1.6-.6,1.1.2,1.5.6c.4.4.6.9.6,1.6s-.2,1.1-.6,1.5c-.4.4-.9.6-1.5.6ZM2742.5,873.5v-17.6h2.8v17.6h-2.8Z"/>
      <path class="cls-4" d="M2759.4,874c-1.7,0-3.2-.4-4.6-1.1-1.4-.7-2.4-1.8-3.2-3.2-.8-1.4-1.2-3-1.2-4.9v-.4c0-1.9.4-3.5,1.2-4.9.8-1.4,1.8-2.4,3.2-3.1,1.4-.7,2.9-1.1,4.6-1.1s3.1.3,4.3.9c1.2.6,2.1,1.5,2.8,2.5.7,1,1.1,2.1,1.3,3.3l-2.8.6c-.1-.9-.4-1.7-.8-2.4-.4-.7-1.1-1.3-1.9-1.7-.8-.4-1.8-.6-2.9-.6s-2.2.3-3.2.8-1.7,1.3-2.2,2.3c-.5,1-.8,2.2-.8,3.5v.3c0,1.4.3,2.5.8,3.5.5,1,1.3,1.7,2.2,2.3s2,.8,3.2.8c1.8,0,3.1-.5,4-1.4s1.5-2,1.7-3.4l2.8.6c-.3,1.2-.7,2.2-1.4,3.3-.7,1-1.6,1.9-2.8,2.5-1.2.6-2.6.9-4.3.9Z"/>
      <path class="cls-4" d="M2772.8,873.5v-25.2h2.8v10.4h.5c.2-.5.6-1,1.1-1.5.5-.5,1.1-.9,1.9-1.2.8-.3,1.8-.5,3-.5s2.5.3,3.5.8c1,.6,1.9,1.4,2.5,2.4.6,1.1.9,2.4.9,4v10.7h-2.8v-10.4c0-1.8-.4-3-1.3-3.8-.9-.8-2.1-1.2-3.5-1.2s-3.1.6-4.2,1.7c-1.1,1.1-1.6,2.7-1.6,4.9v8.9h-2.8Z"/>
      <path class="cls-4" d="M2801.4,873.5c-1,0-1.8-.3-2.3-.8-.5-.6-.8-1.3-.8-2.3v-12h-5.3v-2.5h5.3v-6.3h2.8v6.3h5.8v2.5h-5.8v11.6c0,.7.3,1.1,1,1.1h3.9v2.4h-4.7Z"/>
      <path class="cls-4" d="M2821.2,874c-1.8,0-3.2-.3-4.3-1-1-.7-1.8-1.5-2.2-2.4h-.5v2.9h-2.8v-25.2h2.8v10.4h.5c.3-.6.7-1.1,1.2-1.6.5-.5,1.2-.9,2.1-1.2.9-.3,1.9-.5,3.1-.5s2.9.4,4.2,1.1c1.3.7,2.3,1.8,3,3.1.7,1.4,1.1,3,1.1,4.8v.5c0,1.9-.4,3.5-1.1,4.9s-1.8,2.4-3,3.1c-1.3.7-2.6,1.1-4.2,1.1ZM2820.5,871.5c1.8,0,3.3-.6,4.4-1.7s1.7-2.8,1.7-4.9v-.3c0-2.1-.6-3.7-1.7-4.9s-2.6-1.7-4.4-1.7-3.3.6-4.4,1.7c-1.2,1.2-1.7,2.8-1.7,4.9v.3c0,2.1.6,3.7,1.7,4.9,1.2,1.2,2.6,1.7,4.4,1.7Z"/>
      <path class="cls-4" d="M2840,874c-1.2,0-2.3-.2-3.3-.6-1-.4-1.8-1.1-2.4-1.9-.6-.8-.9-1.8-.9-3s.3-2.2.9-3,1.4-1.4,2.4-1.8c1-.4,2.1-.6,3.4-.6h5.9v-1.3c0-1.2-.4-2.2-1.1-3s-1.8-1.1-3.3-1.1-2.5.3-3.3,1c-.8.7-1.3,1.6-1.6,2.8l-2.7-.9c.3-1,.7-1.9,1.4-2.7s1.5-1.5,2.5-1.9c1-.5,2.3-.7,3.8-.7,2.3,0,4,.6,5.3,1.7,1.2,1.2,1.9,2.8,1.9,4.9v8c0,.7.3,1.1,1,1.1h1.6v2.4h-2.5c-.8,0-1.4-.2-1.9-.7-.5-.4-.7-1-.7-1.8v-.2h-.4c-.3.5-.6.9-1.1,1.4-.4.5-1,.9-1.8,1.2-.8.3-1.8.5-3,.5ZM2840.4,871.5c1.7,0,3-.5,4.1-1.5,1-1,1.6-2.4,1.6-4.2v-.4h-5.8c-1.1,0-2.1.2-2.8.7-.7.5-1.1,1.2-1.1,2.2s.4,1.8,1.1,2.3c.8.6,1.7.8,2.9.8Z"/>
      <path class="cls-4" d="M2855.3,873.5v-17.6h2.8v2.2h.5c.3-.8.8-1.3,1.4-1.7.6-.4,1.5-.5,2.6-.5h2.1v2.6h-2.3c-1.3,0-2.3.4-3.1,1.1-.8.7-1.2,1.8-1.2,3.3v10.7h-2.8Z"/>
      <path class="cls-4" d="M2870.5,874c-.7,0-1.3-.2-1.7-.7-.5-.5-.7-1-.7-1.8s.2-1.3.7-1.8,1-.7,1.7-.7,1.3.2,1.8.7.7,1,.7,1.8-.2,1.3-.7,1.8c-.5.5-1,.7-1.8.7Z"/>
      <path class="cls-4" d="M2884.8,873.5v-2.7h3.5v-19.8h-3.5v-2.7h9.8c3.3,0,5.9.8,7.7,2.5,1.8,1.7,2.7,4.3,2.7,7.7v4.7c0,3.5-.9,6.1-2.7,7.8-1.8,1.7-4.4,2.5-7.7,2.5h-9.8ZM2891.3,870.7h3.3c2.4,0,4.3-.6,5.5-1.8,1.2-1.2,1.9-3.1,1.9-5.6v-4.9c0-2.6-.6-4.4-1.9-5.6-1.2-1.2-3.1-1.8-5.5-1.8h-3.3v19.7Z"/>
      <path class="cls-4" d="M2911.4,853.1c-.6,0-1.1-.2-1.6-.6-.4-.4-.6-.9-.6-1.5s.2-1.2.6-1.6.9-.6,1.6-.6,1.1.2,1.5.6.6.9.6,1.6-.2,1.1-.6,1.5c-.4.4-.9.6-1.5.6ZM2910,873.5v-17.6h2.8v17.6h-2.8Z"/>
      <path class="cls-4" d="M2926.8,874c-1.8,0-3.3-.4-4.7-1.1s-2.4-1.8-3.1-3.2c-.7-1.4-1.1-3-1.1-4.8v-.4c0-1.8.4-3.4,1.1-4.8.7-1.4,1.8-2.4,3.1-3.2,1.3-.8,2.8-1.1,4.5-1.1s3.1.4,4.4,1.1c1.3.7,2.3,1.7,3,3,.7,1.3,1.1,2.9,1.1,4.6v1.3h-14.4c0,1.9.7,3.4,1.8,4.4,1.2,1.1,2.6,1.6,4.3,1.6s2.7-.3,3.5-1c.8-.7,1.4-1.5,1.9-2.5l2.4,1.2c-.4.7-.9,1.5-1.5,2.2-.6.7-1.5,1.4-2.5,1.9s-2.3.8-3.9.8ZM2920.8,863.1h11.4c0-1.6-.7-2.9-1.7-3.8-1-.9-2.3-1.4-3.9-1.4s-2.9.5-4,1.4-1.7,2.2-1.9,3.8Z"/>
      <path class="cls-4" d="M2956.4,874c-2.2,0-4-.5-5.5-1.5-1.5-1-2.4-2.6-2.7-4.8l2.7-.6c.2,1.2.6,2.1,1.1,2.7.5.7,1.2,1.1,2,1.4.8.3,1.6.4,2.5.4,1.3,0,2.4-.3,3.1-.8.8-.5,1.2-1.2,1.2-2.1s-.4-1.6-1.1-1.9c-.7-.4-1.7-.7-3-.9l-1.5-.3c-1.1-.2-2.2-.5-3.1-.9-.9-.4-1.7-1-2.2-1.7-.6-.7-.8-1.6-.8-2.6,0-1.6.6-2.8,1.8-3.7,1.2-.9,2.8-1.3,4.9-1.3s3.6.5,4.8,1.4c1.2.9,2,2.2,2.4,3.8l-2.7.7c-.2-1.3-.7-2.2-1.5-2.7-.8-.5-1.8-.8-3-.8s-2.1.2-2.8.7c-.7.4-1,1.1-1,2s.3,1.5,1,1.9,1.5.7,2.6.9l1.5.3c1.2.2,2.4.5,3.4.9,1,.4,1.8.9,2.4,1.6s.9,1.6.9,2.7c0,1.7-.6,3.1-1.9,4-1.3.9-3,1.4-5.2,1.4Z"/>
      <path class="cls-4" d="M2974.8,873.5c-1,0-1.8-.3-2.3-.8-.5-.6-.8-1.3-.8-2.3v-12h-5.3v-2.5h5.3v-6.3h2.8v6.3h5.8v2.5h-5.8v11.6c0,.7.3,1.1,1,1.1h3.9v2.4h-4.7Z"/>
      <path class="cls-4" d="M2992.9,874c-1.8,0-3.3-.4-4.7-1.1s-2.4-1.8-3.1-3.2c-.7-1.4-1.1-3-1.1-4.8v-.4c0-1.8.4-3.4,1.1-4.8.7-1.4,1.8-2.4,3.1-3.2,1.3-.8,2.8-1.1,4.5-1.1s3.1.4,4.4,1.1c1.3.7,2.3,1.7,3,3,.7,1.3,1.1,2.9,1.1,4.6v1.3h-14.4c0,1.9.7,3.4,1.8,4.4,1.2,1.1,2.6,1.6,4.3,1.6s2.7-.3,3.5-1c.8-.7,1.4-1.5,1.9-2.5l2.4,1.2c-.4.7-.9,1.5-1.5,2.2-.6.7-1.5,1.4-2.5,1.9s-2.3.8-3.9.8ZM2986.9,863.1h11.4c0-1.6-.7-2.9-1.7-3.8-1-.9-2.3-1.4-3.9-1.4s-2.9.5-4,1.4-1.7,2.2-1.9,3.8Z"/>
      <path class="cls-4" d="M3007.6,853.1c-.6,0-1.1-.2-1.6-.6-.4-.4-.6-.9-.6-1.5s.2-1.2.6-1.6.9-.6,1.6-.6,1.1.2,1.5.6.6.9.6,1.6-.2,1.1-.6,1.5c-.4.4-.9.6-1.5.6ZM3006.2,873.5v-17.6h2.8v17.6h-2.8Z"/>
      <path class="cls-4" d="M3015,873.5v-25.2h2.8v25.2h-2.8Z"/>
      <path class="cls-4" d="M3031.9,874c-1.8,0-3.3-.4-4.7-1.1-1.3-.8-2.4-1.8-3.1-3.2-.7-1.4-1.1-3-1.1-4.8v-.4c0-1.8.4-3.4,1.1-4.8.7-1.4,1.8-2.4,3.1-3.2,1.3-.8,2.8-1.1,4.5-1.1s3.1.4,4.4,1.1c1.3.7,2.3,1.7,3,3,.7,1.3,1.1,2.9,1.1,4.6v1.3h-14.4c0,1.9.7,3.4,1.8,4.4,1.2,1.1,2.6,1.6,4.3,1.6s2.7-.3,3.5-1c.8-.7,1.4-1.5,1.9-2.5l2.4,1.2c-.4.7-.9,1.5-1.5,2.2-.6.7-1.5,1.4-2.5,1.9-1,.5-2.3.8-3.9.8ZM3025.8,863.1h11.4c0-1.6-.7-2.9-1.7-3.8-1-.9-2.3-1.4-3.9-1.4s-2.9.5-4,1.4c-1,.9-1.7,2.2-1.9,3.8Z"/>
      <path class="cls-4" d="M3054.3,873.5v-25.2h5.9l8.8,23.3h.5v-23.3h3v25.2h-5.9l-8.7-23.3h-.5v23.3h-3Z"/>
      <path class="cls-4" d="M3086.4,874c-1.8,0-3.3-.4-4.7-1.1-1.4-.7-2.4-1.8-3.2-3.1s-1.1-3-1.1-4.8v-.5c0-1.8.4-3.4,1.1-4.8s1.8-2.4,3.2-3.2c1.4-.7,2.9-1.1,4.7-1.1s3.3.4,4.7,1.1c1.4.7,2.4,1.8,3.2,3.2.8,1.4,1.1,3,1.1,4.8v.5c0,1.8-.4,3.5-1.1,4.8-.8,1.4-1.8,2.4-3.2,3.1-1.4.7-2.9,1.1-4.7,1.1ZM3086.4,871.4c1.9,0,3.4-.6,4.5-1.8,1.1-1.2,1.7-2.8,1.7-4.8v-.3c0-2-.6-3.6-1.7-4.8-1.1-1.2-2.6-1.8-4.5-1.8s-3.3.6-4.5,1.8c-1.1,1.2-1.7,2.8-1.7,4.8v.3c0,2,.6,3.6,1.7,4.8,1.1,1.2,2.6,1.8,4.5,1.8Z"/>
      <path class="cls-4" d="M3100.5,873.5v-17.6h2.8v2.2h.5c.3-.8.8-1.3,1.4-1.7.6-.4,1.5-.5,2.6-.5h2.1v2.6h-2.3c-1.3,0-2.3.4-3.1,1.1-.8.7-1.2,1.8-1.2,3.3v10.7h-2.8Z"/>
      <path class="cls-4" d="M3121.6,874c-1.5,0-2.9-.4-4.2-1.1-1.3-.7-2.3-1.8-3-3.1-.7-1.4-1.1-3-1.1-4.9v-.5c0-1.9.4-3.5,1.1-4.8.7-1.4,1.7-2.4,3-3.1s2.7-1.1,4.2-1.1,2.3.2,3.1.5c.9.3,1.5.7,2.1,1.2.5.5.9,1,1.2,1.6h.5v-10.4h2.8v25.2h-2.8v-2.9h-.5c-.5.9-1.2,1.7-2.2,2.4-1,.7-2.4,1-4.2,1ZM3122.3,871.5c1.8,0,3.3-.6,4.4-1.7,1.1-1.2,1.7-2.8,1.7-4.9v-.3c0-2.1-.6-3.7-1.7-4.9-1.1-1.2-2.6-1.7-4.4-1.7s-3.3.6-4.4,1.7-1.7,2.8-1.7,4.9v.3c0,2.1.6,3.7,1.7,4.9s2.6,1.7,4.4,1.7Z"/>
      <path class="cls-4" d="M3139.7,873.5l-3.5-17.6h2.9l2.9,15.7h.5l3.9-15.7h4.7l3.9,15.7h.5l2.9-15.7h2.9l-3.5,17.6h-4.9l-3.9-15.7h-.5l-3.9,15.7h-4.9Z"/>
      <path class="cls-4" d="M3171.5,874c-1.2,0-2.3-.2-3.3-.6-1-.4-1.8-1.1-2.4-1.9-.6-.8-.9-1.8-.9-3s.3-2.2.9-3,1.4-1.4,2.4-1.8c1-.4,2.1-.6,3.4-.6h5.9v-1.3c0-1.2-.4-2.2-1.1-3-.7-.7-1.8-1.1-3.3-1.1s-2.5.3-3.3,1c-.8.7-1.3,1.6-1.6,2.8l-2.7-.9c.3-1,.7-1.9,1.4-2.7s1.5-1.5,2.5-1.9c1-.5,2.3-.7,3.8-.7,2.3,0,4,.6,5.3,1.7,1.2,1.2,1.9,2.8,1.9,4.9v8c0,.7.3,1.1,1,1.1h1.6v2.4h-2.5c-.8,0-1.4-.2-1.9-.7-.5-.4-.7-1-.7-1.8v-.2h-.4c-.3.5-.6.9-1.1,1.4-.4.5-1,.9-1.8,1.2-.8.3-1.8.5-3,.5ZM3171.8,871.5c1.7,0,3-.5,4.1-1.5,1-1,1.6-2.4,1.6-4.2v-.4h-5.8c-1.1,0-2.1.2-2.8.7-.7.5-1.1,1.2-1.1,2.2s.4,1.8,1.1,2.3c.8.6,1.7.8,2.9.8Z"/>
      <path class="cls-4" d="M3186.8,873.5v-17.6h2.8v3h.5c.4-.8,1-1.6,2-2.3.9-.7,2.3-1,4.1-1s2.5.3,3.5.8,1.9,1.4,2.5,2.4.9,2.4.9,4v10.7h-2.8v-10.4c0-1.8-.4-3-1.3-3.8-.9-.8-2.1-1.2-3.5-1.2s-3.1.6-4.2,1.7c-1.1,1.1-1.6,2.7-1.6,4.9v8.9h-2.8Z"/>
      <path class="cls-4" d="M3216.3,874c-1.5,0-2.9-.4-4.2-1.1-1.3-.7-2.3-1.8-3-3.1-.7-1.4-1.1-3-1.1-4.9v-.5c0-1.9.4-3.5,1.1-4.8.7-1.4,1.7-2.4,3-3.1s2.7-1.1,4.2-1.1,2.3.2,3.1.5c.9.3,1.5.7,2.1,1.2.5.5.9,1,1.2,1.6h.5v-10.4h2.8v25.2h-2.8v-2.9h-.5c-.5.9-1.2,1.7-2.2,2.4-1,.7-2.4,1-4.2,1ZM3217.1,871.5c1.8,0,3.3-.6,4.4-1.7,1.1-1.2,1.7-2.8,1.7-4.9v-.3c0-2.1-.6-3.7-1.7-4.9-1.1-1.2-2.6-1.7-4.4-1.7s-3.3.6-4.4,1.7-1.7,2.8-1.7,4.9v.3c0,2.1.6,3.7,1.7,4.9s2.6,1.7,4.4,1.7Z"/>
      <path class="cls-4" d="M3248.8,874c-1.5,0-2.9-.4-4.2-1.1-1.3-.7-2.3-1.8-3-3.1-.7-1.4-1.1-3-1.1-4.9v-.5c0-1.9.4-3.5,1.1-4.8.7-1.4,1.7-2.4,3-3.1s2.7-1.1,4.2-1.1,2.3.2,3.1.5c.9.3,1.5.7,2.1,1.2.5.5.9,1,1.2,1.6h.5v-10.4h2.8v25.2h-2.8v-2.9h-.5c-.5.9-1.2,1.7-2.2,2.4-1,.7-2.4,1-4.2,1ZM3249.5,871.5c1.8,0,3.3-.6,4.4-1.7,1.1-1.2,1.7-2.8,1.7-4.9v-.3c0-2.1-.6-3.7-1.7-4.9-1.1-1.2-2.6-1.7-4.4-1.7s-3.3.6-4.4,1.7-1.7,2.8-1.7,4.9v.3c0,2.1.6,3.7,1.7,4.9s2.6,1.7,4.4,1.7Z"/>
      <path class="cls-4" d="M3272.6,874c-1.8,0-3.3-.4-4.7-1.1-1.3-.8-2.4-1.8-3.1-3.2-.7-1.4-1.1-3-1.1-4.8v-.4c0-1.8.4-3.4,1.1-4.8.7-1.4,1.8-2.4,3.1-3.2,1.3-.8,2.8-1.1,4.5-1.1s3.1.4,4.4,1.1c1.3.7,2.3,1.7,3,3,.7,1.3,1.1,2.9,1.1,4.6v1.3h-14.4c0,1.9.7,3.4,1.8,4.4,1.2,1.1,2.6,1.6,4.3,1.6s2.7-.3,3.5-1c.8-.7,1.4-1.5,1.9-2.5l2.4,1.2c-.4.7-.9,1.5-1.5,2.2-.6.7-1.5,1.4-2.5,1.9-1,.5-2.3.8-3.9.8ZM3266.5,863.1h11.4c0-1.6-.7-2.9-1.7-3.8-1-.9-2.3-1.4-3.9-1.4s-2.9.5-4,1.4c-1,.9-1.7,2.2-1.9,3.8Z"/>
      <path class="cls-4" d="M3292.9,874c-2.2,0-4-.5-5.5-1.5-1.5-1-2.4-2.6-2.7-4.8l2.7-.6c.2,1.2.6,2.1,1.1,2.7.5.7,1.2,1.1,2,1.4.8.3,1.6.4,2.5.4,1.3,0,2.4-.3,3.1-.8.8-.5,1.2-1.2,1.2-2.1s-.4-1.6-1.1-1.9-1.7-.7-3-.9l-1.5-.3c-1.1-.2-2.2-.5-3.1-.9-.9-.4-1.7-1-2.2-1.7-.6-.7-.8-1.6-.8-2.6,0-1.6.6-2.8,1.8-3.7,1.2-.9,2.8-1.3,4.9-1.3s3.6.5,4.8,1.4c1.2.9,2,2.2,2.4,3.8l-2.7.7c-.2-1.3-.7-2.2-1.5-2.7-.8-.5-1.8-.8-3-.8s-2.1.2-2.8.7c-.7.4-1,1.1-1,2s.3,1.5,1,1.9,1.5.7,2.6.9l1.5.3c1.2.2,2.4.5,3.4.9,1,.4,1.8.9,2.4,1.6.6.7.9,1.6.9,2.7,0,1.7-.6,3.1-1.9,4-1.3.9-3,1.4-5.2,1.4Z"/>
      <path class="cls-4" d="M3313.9,873.5v-25.2h9.6c1.5,0,2.9.3,4,.9,1.2.6,2.1,1.4,2.8,2.5.7,1.1,1,2.4,1,3.9v.5c0,1.5-.4,2.8-1.1,3.9s-1.7,1.9-2.9,2.5c-1.2.6-2.5.9-4,.9h-6.6v10.2h-3ZM3317,860.6h6.3c1.6,0,2.9-.4,3.8-1.2.9-.8,1.4-1.9,1.4-3.4v-.4c0-1.5-.5-2.6-1.4-3.4s-2.2-1.2-3.8-1.2h-6.3v9.6Z"/>
      <path class="cls-4" d="M3337.1,853.1c-.6,0-1.1-.2-1.6-.6-.4-.4-.6-.9-.6-1.5s.2-1.2.6-1.6c.4-.4.9-.6,1.6-.6s1.1.2,1.5.6.6.9.6,1.6-.2,1.1-.6,1.5c-.4.4-.9.6-1.5.6ZM3335.7,873.5v-17.6h2.8v17.6h-2.8Z"/>
      <path class="cls-4" d="M3343.7,873.5v-3.7l11.2-11.1v-.4h-10.8v-2.5h13.8v3.7l-11.2,11.1v.4h11.5v2.4h-14.5Z"/>
      <path class="cls-4" d="M2732.5,917.2c-3,0-5.4-.9-7.2-2.6-1.8-1.7-2.7-4.3-2.7-7.6v-5.8c0-3.3.9-5.9,2.7-7.6,1.8-1.7,4.2-2.6,7.2-2.6s5.3.8,6.9,2.5c1.6,1.7,2.4,3.9,2.4,6.8v.2h-3v-.3c0-1.9-.5-3.4-1.5-4.7-1-1.2-2.6-1.8-4.7-1.8s-3.8.7-5,2c-1.2,1.3-1.8,3.1-1.8,5.5v5.9c0,2.4.6,4.2,1.8,5.5,1.2,1.3,2.9,2,5,2s3.7-.6,4.7-1.8c1-1.2,1.5-2.8,1.5-4.7v-.6h3v.5c0,2.9-.8,5.1-2.4,6.8-1.6,1.7-3.9,2.5-6.9,2.5Z"/>
      <path class="cls-4" d="M2754.7,917.2c-1.8,0-3.3-.4-4.7-1.1-1.3-.8-2.4-1.8-3.1-3.2-.7-1.4-1.1-3-1.1-4.8v-.4c0-1.8.4-3.4,1.1-4.8.7-1.4,1.8-2.4,3.1-3.2,1.3-.8,2.8-1.1,4.5-1.1s3.1.4,4.4,1.1c1.3.7,2.3,1.7,3,3,.7,1.3,1.1,2.9,1.1,4.6v1.3h-14.4c0,1.9.7,3.4,1.8,4.4,1.2,1.1,2.6,1.6,4.3,1.6s2.7-.3,3.5-1c.8-.7,1.4-1.5,1.9-2.5l2.4,1.2c-.4.7-.9,1.5-1.5,2.2-.6.7-1.5,1.4-2.5,1.9-1,.5-2.3.8-3.9.8ZM2748.6,906.3h11.4c0-1.6-.7-2.9-1.7-3.8-1-.9-2.3-1.4-3.9-1.4s-2.9.5-4,1.4c-1,.9-1.7,2.2-1.9,3.8Z"/>
      <path class="cls-4" d="M2767.9,916.7v-17.6h2.8v3h.5c.4-.8,1-1.6,2-2.3.9-.7,2.3-1,4.1-1s2.5.3,3.5.8,1.9,1.4,2.5,2.4.9,2.4.9,4v10.7h-2.8v-10.4c0-1.8-.4-3-1.3-3.8-.9-.8-2.1-1.2-3.5-1.2s-3.1.6-4.2,1.7c-1.1,1.1-1.6,2.7-1.6,4.9v8.9h-2.8Z"/>
      <path class="cls-4" d="M2789.1,908v-.5c0-1.8.4-3.4,1.1-4.8.7-1.3,1.8-2.3,3-3.1,1.3-.7,2.7-1.1,4.2-1.1s3.3.4,4.3,1.1c1,.7,1.7,1.5,2.2,2.4h.5v-2.9h2.7v21.7c0,1-.3,1.7-.8,2.3-.5.6-1.3.8-2.3.8h-12v-2.5h11.2c.7,0,1.1-.4,1.1-1.1v-6.7h-.5c-.3.5-.7,1-1.2,1.5-.5.5-1.2.9-2.1,1.2-.8.3-1.9.5-3.1.5s-2.9-.4-4.2-1.1c-1.3-.7-2.3-1.7-3-3.1-.7-1.3-1.1-2.9-1.1-4.7ZM2798.2,914.3c1.8,0,3.3-.6,4.4-1.7,1.1-1.2,1.7-2.7,1.7-4.8v-.3c0-2-.6-3.6-1.7-4.8s-2.6-1.7-4.4-1.7-3.3.6-4.4,1.7c-1.2,1.1-1.7,2.7-1.7,4.8v.3c0,2,.6,3.6,1.7,4.8,1.2,1.2,2.6,1.7,4.4,1.7Z"/>
      <path class="cls-4" d="M2818.5,917.2c-1.2,0-2.3-.2-3.3-.6-1-.4-1.8-1.1-2.4-1.9-.6-.8-.9-1.8-.9-3s.3-2.2.9-3,1.4-1.4,2.4-1.8c1-.4,2.1-.6,3.4-.6h5.9v-1.3c0-1.2-.4-2.2-1.1-3-.7-.7-1.8-1.1-3.3-1.1s-2.5.3-3.3,1c-.8.7-1.3,1.6-1.6,2.8l-2.7-.9c.3-1,.7-1.9,1.4-2.7s1.5-1.5,2.5-1.9c1-.5,2.3-.7,3.8-.7,2.3,0,4,.6,5.3,1.7,1.2,1.2,1.9,2.8,1.9,4.9v8c0,.7.3,1.1,1,1.1h1.6v2.4h-2.5c-.8,0-1.4-.2-1.9-.7-.5-.4-.7-1-.7-1.8v-.2h-.4c-.3.5-.6.9-1.1,1.4-.4.5-1,.9-1.8,1.2-.8.3-1.8.5-3,.5ZM2818.8,914.7c1.7,0,3-.5,4.1-1.5,1-1,1.6-2.4,1.6-4.2v-.4h-5.8c-1.1,0-2.1.2-2.8.7-.7.5-1.1,1.2-1.1,2.2s.4,1.8,1.1,2.3c.8.6,1.7.8,2.9.8Z"/>
      <path class="cls-4" d="M2833.8,916.7v-25.2h2.8v25.2h-2.8Z"/>
      <path class="cls-4" d="M2850.8,917.2c-1.8,0-3.3-.4-4.7-1.1-1.4-.7-2.4-1.8-3.2-3.1-.8-1.4-1.1-3-1.1-4.8v-.5c0-1.8.4-3.4,1.1-4.8.8-1.4,1.8-2.4,3.2-3.2,1.4-.7,2.9-1.1,4.7-1.1s3.3.4,4.7,1.1c1.4.7,2.4,1.8,3.2,3.2s1.1,3,1.1,4.8v.5c0,1.8-.4,3.5-1.1,4.8s-1.8,2.4-3.2,3.1c-1.4.7-2.9,1.1-4.7,1.1ZM2850.8,914.6c1.9,0,3.4-.6,4.5-1.8,1.1-1.2,1.7-2.8,1.7-4.8v-.3c0-2-.6-3.6-1.7-4.8-1.1-1.2-2.6-1.8-4.5-1.8s-3.3.6-4.5,1.8c-1.1,1.2-1.7,2.8-1.7,4.8v.3c0,2,.6,3.6,1.7,4.8,1.1,1.2,2.6,1.8,4.5,1.8Z"/>
      <path class="cls-4" d="M2875.6,896.3c-.6,0-1.1-.2-1.6-.6-.4-.4-.6-.9-.6-1.5s.2-1.2.6-1.6.9-.6,1.6-.6,1.1.2,1.5.6.6.9.6,1.6-.2,1.1-.6,1.5c-.4.4-.9.6-1.5.6ZM2874.1,916.7v-17.6h2.8v17.6h-2.8Z"/>
      <path class="cls-4" d="M2890,917.2c-2.2,0-4-.5-5.5-1.5-1.5-1-2.4-2.6-2.7-4.8l2.7-.6c.2,1.2.6,2.1,1.1,2.7.5.7,1.2,1.1,2,1.4.8.3,1.6.4,2.5.4,1.3,0,2.4-.3,3.1-.8.8-.5,1.2-1.2,1.2-2.1s-.4-1.6-1.1-1.9c-.7-.4-1.7-.7-3-.9l-1.5-.3c-1.1-.2-2.2-.5-3.1-.9-.9-.4-1.7-1-2.2-1.7-.6-.7-.8-1.6-.8-2.6,0-1.6.6-2.8,1.8-3.7,1.2-.9,2.8-1.3,4.9-1.3s3.6.5,4.8,1.4c1.2.9,2,2.2,2.4,3.8l-2.7.7c-.2-1.3-.7-2.2-1.5-2.7-.8-.5-1.8-.8-3-.8s-2.1.2-2.8.7c-.7.4-1,1.1-1,2s.3,1.5,1,1.9,1.5.7,2.6.9l1.5.3c1.2.2,2.4.5,3.4.9,1,.4,1.8.9,2.4,1.6s.9,1.6.9,2.7c0,1.7-.6,3.1-1.9,4-1.3.9-3,1.4-5.2,1.4Z"/>
      <path class="cls-4" d="M2908.4,916.7c-1,0-1.8-.3-2.3-.8-.5-.6-.8-1.3-.8-2.3v-12h-5.3v-2.5h5.3v-6.3h2.8v6.3h5.8v2.5h-5.8v11.6c0,.7.3,1.1,1,1.1h3.9v2.4h-4.7Z"/>
      <path class="cls-4" d="M2932.2,916.7l-6.3-17.6h3l5.3,15.5h.5l5.3-15.5h3l-6.3,17.6h-4.5Z"/>
      <path class="cls-4" d="M2955.3,917.2c-1.8,0-3.3-.4-4.7-1.1-1.4-.7-2.4-1.8-3.2-3.1-.8-1.4-1.1-3-1.1-4.8v-.5c0-1.8.4-3.4,1.1-4.8.8-1.4,1.8-2.4,3.2-3.2,1.4-.7,2.9-1.1,4.7-1.1s3.3.4,4.7,1.1c1.4.7,2.4,1.8,3.2,3.2s1.1,3,1.1,4.8v.5c0,1.8-.4,3.5-1.1,4.8s-1.8,2.4-3.2,3.1c-1.4.7-2.9,1.1-4.7,1.1ZM2955.3,914.6c1.9,0,3.4-.6,4.5-1.8,1.1-1.2,1.7-2.8,1.7-4.8v-.3c0-2-.6-3.6-1.7-4.8-1.1-1.2-2.6-1.8-4.5-1.8s-3.3.6-4.5,1.8c-1.1,1.2-1.7,2.8-1.7,4.8v.3c0,2,.6,3.6,1.7,4.8,1.1,1.2,2.6,1.8,4.5,1.8Z"/>
      <path class="cls-4" d="M2969.4,916.7v-17.6h2.8v2.2h.5c.3-.8.8-1.3,1.4-1.7.6-.4,1.5-.5,2.6-.5h2.1v2.6h-2.3c-1.3,0-2.3.4-3.1,1.1-.8.7-1.2,1.8-1.2,3.3v10.7h-2.8Z"/>
      <path class="cls-4" d="M2997.6,917.2c-1.2,0-2.3-.2-3.3-.6-1-.4-1.8-1.1-2.4-1.9-.6-.8-.9-1.8-.9-3s.3-2.2.9-3,1.4-1.4,2.4-1.8c1-.4,2.1-.6,3.4-.6h5.9v-1.3c0-1.2-.4-2.2-1.1-3-.7-.7-1.8-1.1-3.3-1.1s-2.5.3-3.3,1c-.8.7-1.3,1.6-1.6,2.8l-2.7-.9c.3-1,.7-1.9,1.4-2.7s1.5-1.5,2.5-1.9c1-.5,2.3-.7,3.8-.7,2.3,0,4,.6,5.3,1.7,1.2,1.2,1.9,2.8,1.9,4.9v8c0,.7.3,1.1,1,1.1h1.6v2.4h-2.5c-.8,0-1.4-.2-1.9-.7-.5-.4-.7-1-.7-1.8v-.2h-.4c-.3.5-.6.9-1.1,1.4-.4.5-1,.9-1.8,1.2-.8.3-1.8.5-3,.5ZM2997.9,914.7c1.7,0,3-.5,4.1-1.5,1-1,1.6-2.4,1.6-4.2v-.4h-5.8c-1.1,0-2.1.2-2.8.7-.7.5-1.1,1.2-1.1,2.2s.4,1.8,1.1,2.3c.8.6,1.7.8,2.9.8Z"/>
      <path class="cls-4" d="M3012.9,916.7v-25.2h2.8v25.2h-2.8Z"/>
      <path class="cls-4" d="M3021.7,916.7v-25.2h2.8v25.2h-2.8Z"/>
      <path class="cls-4" d="M3038.6,917.2c-1.8,0-3.3-.4-4.7-1.1s-2.4-1.8-3.1-3.2c-.7-1.4-1.1-3-1.1-4.8v-.4c0-1.8.4-3.4,1.1-4.8.7-1.4,1.8-2.4,3.1-3.2,1.3-.8,2.8-1.1,4.5-1.1s3.1.4,4.4,1.1c1.3.7,2.3,1.7,3,3,.7,1.3,1.1,2.9,1.1,4.6v1.3h-14.4c0,1.9.7,3.4,1.8,4.4,1.2,1.1,2.6,1.6,4.3,1.6s2.7-.3,3.5-1c.8-.7,1.4-1.5,1.9-2.5l2.4,1.2c-.4.7-.9,1.5-1.5,2.2-.6.7-1.5,1.4-2.5,1.9s-2.3.8-3.9.8ZM3032.6,906.3h11.4c0-1.6-.7-2.9-1.7-3.8-1-.9-2.3-1.4-3.9-1.4s-2.9.5-4,1.4-1.7,2.2-1.9,3.8Z"/>
      <path class="cls-4" d="M3051.9,916.7v-17.6h2.8v2.2h.5c.3-.6.9-1.2,1.7-1.7.8-.5,1.8-.8,3.2-.8s2.5.3,3.3.9c.9.6,1.5,1.3,1.9,2.2h.5c.4-.9,1-1.6,1.9-2.2.8-.6,2-.9,3.5-.9s2.2.2,3.1.7c.9.5,1.6,1.2,2.1,2.1.5.9.8,2,.8,3.2v11.9h-2.8v-11.7c0-1.2-.3-2.1-1-2.8-.7-.7-1.6-1-2.9-1s-2.4.4-3.2,1.3-1.2,2.1-1.2,3.6v10.6h-2.8v-11.7c0-1.2-.3-2.1-1-2.8s-1.6-1-2.9-1-2.4.4-3.2,1.3-1.2,2.1-1.2,3.6v10.6h-2.8Z"/>
      <path class="cls-4" d="M3099.5,917.2c-1.5,0-2.9-.4-4.2-1.1-1.3-.7-2.3-1.8-3-3.1-.7-1.4-1.1-3-1.1-4.9v-.5c0-1.9.4-3.5,1.1-4.8.7-1.4,1.7-2.4,3-3.1,1.3-.7,2.7-1.1,4.2-1.1s2.3.2,3.1.5c.9.3,1.5.7,2.1,1.2.5.5.9,1,1.2,1.6h.5v-10.4h2.8v25.2h-2.8v-2.9h-.5c-.5.9-1.2,1.7-2.2,2.4-1,.7-2.4,1-4.2,1ZM3100.3,914.7c1.8,0,3.3-.6,4.4-1.7s1.7-2.8,1.7-4.9v-.3c0-2.1-.6-3.7-1.7-4.9s-2.6-1.7-4.4-1.7-3.3.6-4.4,1.7c-1.2,1.2-1.7,2.8-1.7,4.9v.3c0,2.1.6,3.7,1.7,4.9,1.2,1.2,2.6,1.7,4.4,1.7Z"/>
      <path class="cls-4" d="M3122,917c-1.3,0-2.4-.3-3.5-.8-1.1-.6-1.9-1.4-2.5-2.5-.6-1.1-.9-2.4-.9-4v-10.7h2.8v10.4c0,1.8.4,3,1.3,3.8s2.1,1.2,3.5,1.2,3.1-.6,4.1-1.7c1.1-1.1,1.6-2.7,1.6-4.9v-8.9h2.8v17.6h-2.8v-3h-.5c-.4.8-1,1.6-2,2.3-.9.7-2.3,1-4.1,1Z"/>
      <path class="cls-4" d="M3137.3,916.7v-17.6h2.8v2.2h.5c.3-.8.8-1.3,1.4-1.7.6-.4,1.5-.5,2.6-.5h2.1v2.6h-2.3c-1.3,0-2.3.4-3.1,1.1-.8.7-1.2,1.8-1.2,3.3v10.7h-2.8Z"/>
      <path class="cls-4" d="M3159,917.2c-1.7,0-3.2-.4-4.6-1.1-1.4-.7-2.4-1.8-3.2-3.2s-1.2-3-1.2-4.9v-.4c0-1.9.4-3.5,1.2-4.9.8-1.4,1.8-2.4,3.2-3.1,1.4-.7,2.9-1.1,4.6-1.1s3.1.3,4.3.9c1.2.6,2.1,1.5,2.8,2.5.7,1,1.1,2.1,1.3,3.3l-2.8.6c-.1-.9-.4-1.7-.8-2.4-.4-.7-1.1-1.3-1.9-1.7-.8-.4-1.8-.6-2.9-.6s-2.2.3-3.1.8c-.9.5-1.7,1.3-2.2,2.3-.5,1-.8,2.2-.8,3.5v.3c0,1.4.3,2.5.8,3.5.5,1,1.3,1.7,2.2,2.3.9.5,2,.8,3.1.8,1.8,0,3.1-.5,4-1.4.9-.9,1.5-2,1.7-3.4l2.8.6c-.3,1.2-.7,2.2-1.4,3.3-.7,1-1.6,1.9-2.8,2.5-1.2.6-2.6.9-4.3.9Z"/>
      <path class="cls-4" d="M3172.4,916.7v-25.2h2.8v10.4h.5c.2-.5.6-1,1.1-1.5s1.1-.9,1.9-1.2c.8-.3,1.8-.5,3-.5s2.5.3,3.5.8c1,.6,1.9,1.4,2.5,2.4.6,1.1.9,2.4.9,4v10.7h-2.8v-10.4c0-1.8-.4-3-1.3-3.8s-2.1-1.2-3.5-1.2-3.1.6-4.2,1.7c-1.1,1.1-1.6,2.7-1.6,4.9v8.9h-2.8Z"/>
      <path class="cls-4" d="M3211.2,917.2c-1.5,0-2.9-.4-4.2-1.1-1.3-.7-2.3-1.8-3-3.1-.7-1.4-1.1-3-1.1-4.9v-.5c0-1.9.4-3.5,1.1-4.8.7-1.4,1.7-2.4,3-3.1,1.3-.7,2.7-1.1,4.2-1.1s2.3.2,3.1.5c.9.3,1.5.7,2.1,1.2.5.5.9,1,1.2,1.6h.5v-10.4h2.8v25.2h-2.8v-2.9h-.5c-.5.9-1.2,1.7-2.2,2.4-1,.7-2.4,1-4.2,1ZM3211.9,914.7c1.8,0,3.3-.6,4.4-1.7s1.7-2.8,1.7-4.9v-.3c0-2.1-.6-3.7-1.7-4.9s-2.6-1.7-4.4-1.7-3.3.6-4.4,1.7c-1.2,1.2-1.7,2.8-1.7,4.9v.3c0,2.1.6,3.7,1.7,4.9,1.2,1.2,2.6,1.7,4.4,1.7Z"/>
      <path class="cls-4" d="M3235,917.2c-1.8,0-3.3-.4-4.7-1.1-1.3-.8-2.4-1.8-3.1-3.2-.7-1.4-1.1-3-1.1-4.8v-.4c0-1.8.4-3.4,1.1-4.8.7-1.4,1.8-2.4,3.1-3.2,1.3-.8,2.8-1.1,4.5-1.1s3.1.4,4.4,1.1c1.3.7,2.3,1.7,3,3,.7,1.3,1.1,2.9,1.1,4.6v1.3h-14.4c0,1.9.7,3.4,1.8,4.4,1.2,1.1,2.6,1.6,4.3,1.6s2.7-.3,3.5-1c.8-.7,1.4-1.5,1.9-2.5l2.4,1.2c-.4.7-.9,1.5-1.5,2.2-.6.7-1.5,1.4-2.5,1.9-1,.5-2.3.8-3.9.8ZM3228.9,906.3h11.4c0-1.6-.7-2.9-1.7-3.8-1-.9-2.3-1.4-3.9-1.4s-2.9.5-4,1.4c-1,.9-1.7,2.2-1.9,3.8Z"/>
      <path class="cls-4" d="M3248.2,916.7v-17.6h2.8v3h.5c.4-.8,1-1.6,2-2.3.9-.7,2.3-1,4.1-1s2.5.3,3.5.8,1.9,1.4,2.5,2.4.9,2.4.9,4v10.7h-2.8v-10.4c0-1.8-.4-3-1.3-3.8-.9-.8-2.1-1.2-3.5-1.2s-3.1.6-4.2,1.7c-1.1,1.1-1.6,2.7-1.6,4.9v8.9h-2.8Z"/>
      <path class="cls-4" d="M3279.4,916.7v-25.2h10.2c1.6,0,2.9.3,4.1.8,1.2.5,2.1,1.3,2.8,2.3s1,2.2,1,3.6v.4c0,1.7-.4,3-1.2,3.9-.8,1-1.7,1.6-2.8,1.9v.5c.9,0,1.6.3,2.1.8.6.5.8,1.3.8,2.4v8.5h-3v-8.1c0-.7-.2-1.3-.6-1.7s-1-.6-1.8-.6h-8.7v10.3h-3ZM3282.4,903.6h6.9c1.7,0,2.9-.4,3.8-1.2.9-.8,1.3-1.9,1.3-3.4v-.3c0-1.4-.4-2.6-1.3-3.4-.9-.8-2.2-1.2-3.9-1.2h-6.9v9.4Z"/>
      <path class="cls-4" d="M3309,917c-1.3,0-2.4-.3-3.5-.8-1.1-.6-1.9-1.4-2.5-2.5-.6-1.1-.9-2.4-.9-4v-10.7h2.8v10.4c0,1.8.4,3,1.3,3.8s2.1,1.2,3.5,1.2,3.1-.6,4.1-1.7c1.1-1.1,1.6-2.7,1.6-4.9v-8.9h2.8v17.6h-2.8v-3h-.5c-.4.8-1,1.6-2,2.3-.9.7-2.3,1-4.1,1ZM3306.8,896.4c-.6,0-1.1-.2-1.5-.6-.4-.4-.6-.9-.6-1.6s.2-1.2.6-1.5.9-.6,1.5-.6,1.1.2,1.5.6c.4.4.6.9.6,1.5s-.2,1.2-.6,1.6c-.4.4-.9.6-1.5.6ZM3313.5,896.4c-.6,0-1.1-.2-1.5-.6-.4-.4-.6-.9-.6-1.6s.2-1.2.6-1.5c.4-.4.9-.6,1.5-.6s1.2.2,1.6.6c.4.4.6.9.6,1.5s-.2,1.2-.6,1.6-.9.6-1.6.6Z"/>
      <path class="cls-4" d="M3332.4,917.2c-1.7,0-3.2-.4-4.6-1.1-1.4-.7-2.4-1.8-3.2-3.2-.8-1.4-1.2-3-1.2-4.9v-.4c0-1.9.4-3.5,1.2-4.9.8-1.4,1.8-2.4,3.2-3.1,1.4-.7,2.9-1.1,4.6-1.1s3.1.3,4.3.9c1.2.6,2.1,1.5,2.8,2.5.7,1,1.1,2.1,1.3,3.3l-2.8.6c-.1-.9-.4-1.7-.8-2.4-.4-.7-1.1-1.3-1.9-1.7-.8-.4-1.8-.6-2.9-.6s-2.2.3-3.2.8-1.7,1.3-2.2,2.3c-.5,1-.8,2.2-.8,3.5v.3c0,1.4.3,2.5.8,3.5.5,1,1.3,1.7,2.2,2.3s2,.8,3.2.8c1.8,0,3.1-.5,4-1.4s1.5-2,1.7-3.4l2.8.6c-.3,1.2-.7,2.2-1.4,3.3-.7,1-1.6,1.9-2.8,2.5-1.2.6-2.6.9-4.3.9Z"/>
      <path class="cls-4" d="M3345.8,916.7v-25.2h2.8v14.8h.5l8.1-7.2h4l-9.8,8.6,10,9h-3.9l-8.4-7.7h-.5v7.7h-2.8Z"/>
      <path class="cls-4" d="M3365,908.7v-2.6h10.7v2.6h-10.7Z"/>
      <path class="cls-4" d="M2722.6,951.2v-.5c0-1.8.4-3.4,1.1-4.8.7-1.3,1.8-2.3,3-3.1,1.3-.7,2.7-1.1,4.2-1.1s3.3.4,4.3,1.1,1.7,1.5,2.2,2.4h.5v-2.9h2.7v21.7c0,1-.3,1.7-.8,2.3-.5.6-1.3.8-2.3.8h-12v-2.5h11.2c.7,0,1.1-.4,1.1-1.1v-6.7h-.5c-.3.5-.7,1-1.2,1.5s-1.2.9-2.1,1.2c-.8.3-1.9.5-3.1.5s-2.9-.4-4.2-1.1c-1.3-.7-2.3-1.7-3-3.1-.7-1.3-1.1-2.9-1.1-4.7ZM2731.7,957.5c1.8,0,3.3-.6,4.4-1.7,1.1-1.2,1.7-2.7,1.7-4.8v-.3c0-2-.6-3.6-1.7-4.8-1.1-1.1-2.6-1.7-4.4-1.7s-3.3.6-4.4,1.7-1.7,2.7-1.7,4.8v.3c0,2,.6,3.6,1.7,4.8,1.2,1.2,2.6,1.7,4.4,1.7Z"/>
      <path class="cls-4" d="M2752,960.4c-1.2,0-2.3-.2-3.3-.6-1-.4-1.8-1.1-2.4-1.9-.6-.8-.9-1.8-.9-3s.3-2.2.9-3,1.4-1.4,2.4-1.8c1-.4,2.1-.6,3.4-.6h5.9v-1.3c0-1.2-.4-2.2-1.1-3s-1.8-1.1-3.3-1.1-2.5.3-3.3,1c-.8.7-1.3,1.6-1.6,2.8l-2.7-.9c.3-1,.7-1.9,1.4-2.7s1.5-1.5,2.5-1.9c1-.5,2.3-.7,3.8-.7,2.3,0,4,.6,5.3,1.7,1.2,1.2,1.9,2.8,1.9,4.9v8c0,.7.3,1.1,1,1.1h1.6v2.4h-2.5c-.8,0-1.4-.2-1.9-.7-.5-.4-.7-1-.7-1.8v-.2h-.4c-.3.5-.6.9-1.1,1.4-.4.5-1,.9-1.8,1.2-.8.3-1.8.5-3,.5ZM2752.3,957.9c1.7,0,3-.5,4.1-1.5,1-1,1.6-2.4,1.6-4.2v-.4h-5.8c-1.1,0-2.1.2-2.8.7-.7.5-1.1,1.2-1.1,2.2s.4,1.8,1.1,2.3c.8.6,1.7.8,2.9.8Z"/>
      <path class="cls-4" d="M2767.3,959.9v-17.6h2.8v3h.5c.4-.8,1-1.6,2-2.3.9-.7,2.3-1,4.1-1s2.5.3,3.5.8,1.9,1.4,2.5,2.4.9,2.4.9,4v10.7h-2.8v-10.4c0-1.8-.4-3-1.3-3.8s-2.1-1.2-3.5-1.2-3.1.6-4.2,1.7c-1.1,1.1-1.6,2.7-1.6,4.9v8.9h-2.8Z"/>
      <path class="cls-4" d="M2788.5,951.2v-.5c0-1.8.4-3.4,1.1-4.8.7-1.3,1.8-2.3,3-3.1,1.3-.7,2.7-1.1,4.2-1.1s3.3.4,4.3,1.1c1,.7,1.7,1.5,2.2,2.4h.5v-2.9h2.7v21.7c0,1-.3,1.7-.8,2.3-.5.6-1.3.8-2.3.8h-12v-2.5h11.2c.7,0,1.1-.4,1.1-1.1v-6.7h-.5c-.3.5-.7,1-1.2,1.5-.5.5-1.2.9-2.1,1.2-.8.3-1.9.5-3.1.5s-2.9-.4-4.2-1.1c-1.3-.7-2.3-1.7-3-3.1-.7-1.3-1.1-2.9-1.1-4.7ZM2797.6,957.5c1.8,0,3.3-.6,4.4-1.7,1.1-1.2,1.7-2.7,1.7-4.8v-.3c0-2-.6-3.6-1.7-4.8s-2.6-1.7-4.4-1.7-3.3.6-4.4,1.7c-1.2,1.1-1.7,2.7-1.7,4.8v.3c0,2,.6,3.6,1.7,4.8,1.2,1.2,2.6,1.7,4.4,1.7Z"/>
      <path class="cls-4" d="M2829.2,960.4c-1.5,0-2.9-.4-4.2-1.1-1.3-.7-2.3-1.8-3-3.1-.7-1.4-1.1-3-1.1-4.9v-.5c0-1.9.4-3.5,1.1-4.8.7-1.4,1.7-2.4,3-3.1s2.7-1.1,4.2-1.1,2.3.2,3.1.5c.9.3,1.5.7,2.1,1.2.5.5.9,1,1.2,1.6h.5v-10.4h2.8v25.2h-2.8v-2.9h-.5c-.5.9-1.2,1.7-2.2,2.4-1,.7-2.4,1-4.2,1ZM2830,957.9c1.8,0,3.3-.6,4.4-1.7,1.1-1.2,1.7-2.8,1.7-4.9v-.3c0-2.1-.6-3.7-1.7-4.9-1.1-1.2-2.6-1.7-4.4-1.7s-3.3.6-4.4,1.7-1.7,2.8-1.7,4.9v.3c0,2.1.6,3.7,1.7,4.9s2.6,1.7,4.4,1.7Z"/>
      <path class="cls-4" d="M2853,960.4c-1.8,0-3.3-.4-4.7-1.1s-2.4-1.8-3.1-3.2c-.7-1.4-1.1-3-1.1-4.8v-.4c0-1.8.4-3.4,1.1-4.8.7-1.4,1.8-2.4,3.1-3.2,1.3-.8,2.8-1.1,4.5-1.1s3.1.4,4.4,1.1c1.3.7,2.3,1.7,3,3,.7,1.3,1.1,2.9,1.1,4.6v1.3h-14.4c0,1.9.7,3.4,1.8,4.4,1.2,1.1,2.6,1.6,4.3,1.6s2.7-.3,3.5-1c.8-.7,1.4-1.5,1.9-2.5l2.4,1.2c-.4.7-.9,1.5-1.5,2.2-.6.7-1.5,1.4-2.5,1.9s-2.3.8-3.9.8ZM2847,949.5h11.4c0-1.6-.7-2.9-1.7-3.8-1-.9-2.3-1.4-3.9-1.4s-2.9.5-4,1.4-1.7,2.2-1.9,3.8Z"/>
      <path class="cls-4" d="M2873.3,960.4c-2.2,0-4-.5-5.5-1.5s-2.4-2.6-2.7-4.8l2.7-.6c.2,1.2.6,2.1,1.1,2.7.5.7,1.2,1.1,2,1.4.8.3,1.6.4,2.5.4,1.3,0,2.4-.3,3.1-.8.8-.5,1.2-1.2,1.2-2.1s-.4-1.6-1.1-1.9-1.7-.7-3-.9l-1.5-.3c-1.1-.2-2.2-.5-3.1-.9-.9-.4-1.7-1-2.2-1.7-.6-.7-.8-1.6-.8-2.6,0-1.6.6-2.8,1.8-3.7,1.2-.9,2.8-1.3,4.9-1.3s3.6.5,4.8,1.4c1.2.9,2,2.2,2.4,3.8l-2.7.7c-.2-1.3-.7-2.2-1.5-2.7-.8-.5-1.8-.8-3-.8s-2.1.2-2.8.7c-.7.4-1,1.1-1,2s.3,1.5,1,1.9,1.5.7,2.6.9l1.5.3c1.2.2,2.4.5,3.4.9,1,.4,1.8.9,2.4,1.6.6.7.9,1.6.9,2.7,0,1.7-.6,3.1-1.9,4-1.3.9-3,1.4-5.2,1.4Z"/>
      <path class="cls-4" d="M2894.4,959.9v-25.2h9.6c1.5,0,2.9.3,4,.9,1.2.6,2.1,1.4,2.8,2.5.7,1.1,1,2.4,1,3.9v.5c0,1.5-.4,2.8-1.1,3.9-.7,1.1-1.7,1.9-2.9,2.5-1.2.6-2.5.9-4,.9h-6.6v10.2h-3ZM2897.4,947h6.3c1.6,0,2.9-.4,3.8-1.2.9-.8,1.4-1.9,1.4-3.4v-.4c0-1.5-.5-2.6-1.4-3.4s-2.2-1.2-3.8-1.2h-6.3v9.6Z"/>
      <path class="cls-4" d="M2924.2,960.4c-1.8,0-3.3-.4-4.7-1.1-1.3-.8-2.4-1.8-3.1-3.2-.7-1.4-1.1-3-1.1-4.8v-.4c0-1.8.4-3.4,1.1-4.8.7-1.4,1.8-2.4,3.1-3.2,1.3-.8,2.8-1.1,4.5-1.1s3.1.4,4.4,1.1c1.3.7,2.3,1.7,3,3,.7,1.3,1.1,2.9,1.1,4.6v1.3h-14.4c0,1.9.7,3.4,1.8,4.4,1.2,1.1,2.6,1.6,4.3,1.6s2.7-.3,3.5-1c.8-.7,1.4-1.5,1.9-2.5l2.4,1.2c-.4.7-.9,1.5-1.5,2.2-.6.7-1.5,1.4-2.5,1.9-1,.5-2.3.8-3.9.8ZM2918.1,949.5h11.4c0-1.6-.7-2.9-1.7-3.8-1-.9-2.3-1.4-3.9-1.4s-2.9.5-4,1.4c-1,.9-1.7,2.2-1.9,3.8Z"/>
      <path class="cls-4" d="M2937.4,959.9v-17.6h2.8v2.2h.5c.3-.8.8-1.3,1.4-1.7.6-.4,1.5-.5,2.6-.5h2.1v2.6h-2.3c-1.3,0-2.3.4-3.1,1.1-.8.7-1.2,1.8-1.2,3.3v10.7h-2.8Z"/>
      <path class="cls-4" d="M2951,959.9v-17.6h2.8v2.2h.5c.3-.6.9-1.2,1.7-1.7.8-.5,1.8-.8,3.2-.8s2.5.3,3.3.9c.9.6,1.5,1.3,1.9,2.2h.5c.4-.9,1-1.6,1.9-2.2.8-.6,2-.9,3.5-.9s2.2.2,3.1.7c.9.5,1.6,1.2,2.1,2.1.5.9.8,2,.8,3.2v11.9h-2.8v-11.7c0-1.2-.3-2.1-1-2.8-.7-.7-1.6-1-2.9-1s-2.4.4-3.2,1.3-1.2,2.1-1.2,3.6v10.6h-2.8v-11.7c0-1.2-.3-2.1-1-2.8-.7-.7-1.6-1-2.9-1s-2.4.4-3.2,1.3c-.8.8-1.2,2.1-1.2,3.6v10.6h-2.8Z"/>
      <path class="cls-4" d="M2987.4,960.4c-1.2,0-2.3-.2-3.3-.6-1-.4-1.8-1.1-2.4-1.9-.6-.8-.9-1.8-.9-3s.3-2.2.9-3,1.4-1.4,2.4-1.8c1-.4,2.1-.6,3.4-.6h5.9v-1.3c0-1.2-.4-2.2-1.1-3-.7-.7-1.8-1.1-3.3-1.1s-2.5.3-3.3,1c-.8.7-1.3,1.6-1.6,2.8l-2.7-.9c.3-1,.7-1.9,1.4-2.7s1.5-1.5,2.5-1.9c1-.5,2.3-.7,3.8-.7,2.3,0,4,.6,5.3,1.7,1.2,1.2,1.9,2.8,1.9,4.9v8c0,.7.3,1.1,1,1.1h1.6v2.4h-2.5c-.8,0-1.4-.2-1.9-.7-.5-.4-.7-1-.7-1.8v-.2h-.4c-.3.5-.6.9-1.1,1.4-.4.5-1,.9-1.8,1.2-.8.3-1.8.5-3,.5ZM2987.7,957.9c1.7,0,3-.5,4.1-1.5,1-1,1.6-2.4,1.6-4.2v-.4h-5.8c-1.1,0-2.1.2-2.8.7-.7.5-1.1,1.2-1.1,2.2s.4,1.8,1.1,2.3c.8.6,1.7.8,2.9.8Z"/>
      <path class="cls-4" d="M3006.1,959.9v-15.1h-5.4v-2.5h5.4v-4.5c0-1,.3-1.7.8-2.3.5-.6,1.3-.8,2.3-.8h4.4v2.4h-3.6c-.7,0-1.1.4-1.1,1.1v4.1h5.5v2.5h-5.5v15.1h-2.8Z"/>
      <path class="cls-4" d="M3018.6,959.9v-17.6h2.8v2.2h.5c.3-.8.8-1.3,1.4-1.7.6-.4,1.5-.5,2.6-.5h2.1v2.6h-2.3c-1.3,0-2.3.4-3.1,1.1-.8.7-1.2,1.8-1.2,3.3v10.7h-2.8Z"/>
      <path class="cls-4" d="M3040.3,960.4c-1.8,0-3.3-.4-4.7-1.1-1.4-.7-2.4-1.8-3.2-3.1s-1.1-3-1.1-4.8v-.5c0-1.8.4-3.4,1.1-4.8s1.8-2.4,3.2-3.2c1.4-.7,2.9-1.1,4.7-1.1s3.3.4,4.7,1.1c1.4.7,2.4,1.8,3.2,3.2.8,1.4,1.1,3,1.1,4.8v.5c0,1.8-.4,3.5-1.1,4.8-.8,1.4-1.8,2.4-3.2,3.1-1.4.7-2.9,1.1-4.7,1.1ZM3040.3,957.8c1.9,0,3.4-.6,4.5-1.8,1.1-1.2,1.7-2.8,1.7-4.8v-.3c0-2-.6-3.6-1.7-4.8-1.1-1.2-2.6-1.8-4.5-1.8s-3.3.6-4.5,1.8c-1.1,1.2-1.7,2.8-1.7,4.8v.3c0,2,.6,3.6,1.7,4.8,1.1,1.2,2.6,1.8,4.5,1.8Z"/>
      <path class="cls-4" d="M3061.5,960.4c-2.2,0-4-.5-5.5-1.5s-2.4-2.6-2.7-4.8l2.7-.6c.2,1.2.6,2.1,1.1,2.7.5.7,1.2,1.1,2,1.4.8.3,1.6.4,2.5.4,1.3,0,2.4-.3,3.1-.8.8-.5,1.2-1.2,1.2-2.1s-.4-1.6-1.1-1.9-1.7-.7-3-.9l-1.5-.3c-1.1-.2-2.2-.5-3.1-.9-.9-.4-1.7-1-2.2-1.7-.6-.7-.8-1.6-.8-2.6,0-1.6.6-2.8,1.8-3.7,1.2-.9,2.8-1.3,4.9-1.3s3.6.5,4.8,1.4c1.2.9,2,2.2,2.4,3.8l-2.7.7c-.2-1.3-.7-2.2-1.5-2.7-.8-.5-1.8-.8-3-.8s-2.1.2-2.8.7c-.7.4-1,1.1-1,2s.3,1.5,1,1.9,1.5.7,2.6.9l1.5.3c1.2.2,2.4.5,3.4.9,1,.4,1.8.9,2.4,1.6.6.7.9,1.6.9,2.7,0,1.7-.6,3.1-1.9,4-1.3.9-3,1.4-5.2,1.4Z"/>
      <path class="cls-4" d="M3079.8,959.9c-1,0-1.8-.3-2.3-.8-.5-.6-.8-1.3-.8-2.3v-12h-5.3v-2.5h5.3v-6.3h2.8v6.3h5.8v2.5h-5.8v11.6c0,.7.3,1.1,1,1.1h3.9v2.4h-4.7Z"/>
      <path class="cls-4" d="M3097,960.4c-2.2,0-4-.5-5.5-1.5s-2.4-2.6-2.7-4.8l2.7-.6c.2,1.2.6,2.1,1.1,2.7.5.7,1.2,1.1,2,1.4.8.3,1.6.4,2.5.4,1.3,0,2.4-.3,3.1-.8.8-.5,1.2-1.2,1.2-2.1s-.4-1.6-1.1-1.9-1.7-.7-3-.9l-1.5-.3c-1.1-.2-2.2-.5-3.1-.9-.9-.4-1.7-1-2.2-1.7-.6-.7-.8-1.6-.8-2.6,0-1.6.6-2.8,1.8-3.7,1.2-.9,2.8-1.3,4.9-1.3s3.6.5,4.8,1.4c1.2.9,2,2.2,2.4,3.8l-2.7.7c-.2-1.3-.7-2.2-1.5-2.7-.8-.5-1.8-.8-3-.8s-2.1.2-2.8.7c-.7.4-1,1.1-1,2s.3,1.5,1,1.9,1.5.7,2.6.9l1.5.3c1.2.2,2.4.5,3.4.9,1,.4,1.8.9,2.4,1.6.6.7.9,1.6.9,2.7,0,1.7-.6,3.1-1.9,4-1.3.9-3,1.4-5.2,1.4Z"/>
      <path class="cls-4" d="M3119.6,939.5c-.6,0-1.1-.2-1.6-.6-.4-.4-.6-.9-.6-1.5s.2-1.2.6-1.6.9-.6,1.6-.6,1.1.2,1.5.6.6.9.6,1.6-.2,1.1-.6,1.5c-.4.4-.9.6-1.5.6ZM3118.1,959.9v-17.6h2.8v17.6h-2.8Z"/>
      <path class="cls-4" d="M3127,959.9v-17.6h2.8v3h.5c.4-.8,1-1.6,2-2.3.9-.7,2.3-1,4.1-1s2.5.3,3.5.8,1.9,1.4,2.5,2.4.9,2.4.9,4v10.7h-2.8v-10.4c0-1.8-.4-3-1.3-3.8-.9-.8-2.1-1.2-3.5-1.2s-3.1.6-4.2,1.7c-1.1,1.1-1.6,2.7-1.6,4.9v8.9h-2.8Z"/>
      <path class="cls-4" d="M3156.1,960.4c-2.2,0-4-.5-5.5-1.5-1.5-1-2.4-2.6-2.7-4.8l2.7-.6c.2,1.2.6,2.1,1.1,2.7.5.7,1.2,1.1,2,1.4.8.3,1.6.4,2.5.4,1.3,0,2.4-.3,3.1-.8.8-.5,1.2-1.2,1.2-2.1s-.4-1.6-1.1-1.9c-.7-.4-1.7-.7-3-.9l-1.5-.3c-1.1-.2-2.2-.5-3.1-.9-.9-.4-1.7-1-2.2-1.7-.6-.7-.8-1.6-.8-2.6,0-1.6.6-2.8,1.8-3.7,1.2-.9,2.8-1.3,4.9-1.3s3.6.5,4.8,1.4c1.2.9,2,2.2,2.4,3.8l-2.7.7c-.2-1.3-.7-2.2-1.5-2.7-.8-.5-1.8-.8-3-.8s-2.1.2-2.8.7c-.7.4-1,1.1-1,2s.3,1.5,1,1.9,1.5.7,2.6.9l1.5.3c1.2.2,2.4.5,3.4.9,1,.4,1.8.9,2.4,1.6s.9,1.6.9,2.7c0,1.7-.6,3.1-1.9,4-1.3.9-3,1.4-5.2,1.4Z"/>
      <path class="cls-4" d="M3174.5,959.9c-1,0-1.8-.3-2.3-.8-.5-.6-.8-1.3-.8-2.3v-12h-5.3v-2.5h5.3v-6.3h2.8v6.3h5.8v2.5h-5.8v11.6c0,.7.3,1.1,1,1.1h3.9v2.4h-4.7Z"/>
      <path class="cls-4" d="M3190,960.4c-1.2,0-2.3-.2-3.3-.6-1-.4-1.8-1.1-2.4-1.9-.6-.8-.9-1.8-.9-3s.3-2.2.9-3,1.4-1.4,2.4-1.8c1-.4,2.1-.6,3.4-.6h5.9v-1.3c0-1.2-.4-2.2-1.1-3s-1.8-1.1-3.3-1.1-2.5.3-3.3,1c-.8.7-1.3,1.6-1.6,2.8l-2.7-.9c.3-1,.7-1.9,1.4-2.7s1.5-1.5,2.5-1.9c1-.5,2.3-.7,3.8-.7,2.3,0,4,.6,5.3,1.7,1.2,1.2,1.9,2.8,1.9,4.9v8c0,.7.3,1.1,1,1.1h1.6v2.4h-2.5c-.8,0-1.4-.2-1.9-.7-.5-.4-.7-1-.7-1.8v-.2h-.4c-.3.5-.6.9-1.1,1.4-.4.5-1,.9-1.8,1.2-.8.3-1.8.5-3,.5ZM3190.3,957.9c1.7,0,3-.5,4.1-1.5,1-1,1.6-2.4,1.6-4.2v-.4h-5.8c-1.1,0-2.1.2-2.8.7-.7.5-1.1,1.2-1.1,2.2s.4,1.8,1.1,2.3c.8.6,1.7.8,2.9.8Z"/>
      <path class="cls-4" d="M3215,960.4c-1.8,0-3.2-.3-4.3-1-1-.7-1.8-1.5-2.2-2.4h-.5v2.9h-2.8v-25.2h2.8v10.4h.5c.3-.6.7-1.1,1.2-1.6.5-.5,1.2-.9,2.1-1.2s1.9-.5,3.1-.5,2.9.4,4.2,1.1,2.3,1.8,3,3.1c.7,1.4,1.1,3,1.1,4.8v.5c0,1.9-.4,3.5-1.1,4.9-.8,1.4-1.8,2.4-3,3.1s-2.6,1.1-4.2,1.1ZM3214.3,957.9c1.8,0,3.3-.6,4.4-1.7,1.1-1.2,1.7-2.8,1.7-4.9v-.3c0-2.1-.6-3.7-1.7-4.9-1.1-1.2-2.6-1.7-4.4-1.7s-3.3.6-4.4,1.7-1.7,2.8-1.7,4.9v.3c0,2.1.6,3.7,1.7,4.9s2.6,1.7,4.4,1.7Z"/>
      <path class="cls-4" d="M3229.9,939.5c-.6,0-1.1-.2-1.6-.6-.4-.4-.6-.9-.6-1.5s.2-1.2.6-1.6.9-.6,1.6-.6,1.1.2,1.5.6.6.9.6,1.6-.2,1.1-.6,1.5c-.4.4-.9.6-1.5.6ZM3228.4,959.9v-17.6h2.8v17.6h-2.8Z"/>
      <path class="cls-4" d="M3237.3,959.9v-25.2h2.8v25.2h-2.8Z"/>
      <path class="cls-4" d="M3254.5,951.2v-.5c0-1.8.4-3.4,1.1-4.8.7-1.3,1.8-2.3,3-3.1,1.3-.7,2.7-1.1,4.2-1.1s3.3.4,4.3,1.1,1.7,1.5,2.2,2.4h.5v-2.9h2.7v21.7c0,1-.3,1.7-.8,2.3-.5.6-1.3.8-2.3.8h-12v-2.5h11.2c.7,0,1.1-.4,1.1-1.1v-6.7h-.5c-.3.5-.7,1-1.2,1.5s-1.2.9-2.1,1.2c-.8.3-1.9.5-3.1.5s-2.9-.4-4.2-1.1c-1.3-.7-2.3-1.7-3-3.1-.7-1.3-1.1-2.9-1.1-4.7ZM3263.5,957.5c1.8,0,3.3-.6,4.4-1.7,1.1-1.2,1.7-2.7,1.7-4.8v-.3c0-2-.6-3.6-1.7-4.8-1.1-1.1-2.6-1.7-4.4-1.7s-3.3.6-4.4,1.7-1.7,2.7-1.7,4.8v.3c0,2,.6,3.6,1.7,4.8,1.2,1.2,2.6,1.7,4.4,1.7Z"/>
      <path class="cls-4" d="M3286.5,960.4c-1.8,0-3.3-.4-4.7-1.1-1.3-.8-2.4-1.8-3.1-3.2-.7-1.4-1.1-3-1.1-4.8v-.4c0-1.8.4-3.4,1.1-4.8.7-1.4,1.8-2.4,3.1-3.2,1.3-.8,2.8-1.1,4.5-1.1s3.1.4,4.4,1.1,2.3,1.7,3,3c.7,1.3,1.1,2.9,1.1,4.6v1.3h-14.4c0,1.9.7,3.4,1.8,4.4,1.2,1.1,2.6,1.6,4.3,1.6s2.7-.3,3.5-1c.8-.7,1.4-1.5,1.9-2.5l2.4,1.2c-.4.7-.9,1.5-1.5,2.2-.6.7-1.5,1.4-2.5,1.9-1,.5-2.3.8-3.9.8ZM3280.5,949.5h11.4c0-1.6-.7-2.9-1.7-3.8-1-.9-2.3-1.4-3.9-1.4s-2.9.5-4,1.4c-1,.9-1.7,2.2-1.9,3.8Z"/>
      <path class="cls-4" d="M3302.2,959.9l-3.5-17.6h2.9l2.9,15.7h.5l3.9-15.7h4.7l3.9,15.7h.5l2.9-15.7h2.9l-3.5,17.6h-4.9l-3.9-15.7h-.5l-3.9,15.7h-4.9Z"/>
      <path class="cls-4" d="M3336.7,960.4c-1.8,0-3.3-.4-4.7-1.1-1.4-.7-2.4-1.8-3.2-3.1s-1.1-3-1.1-4.8v-.5c0-1.8.4-3.4,1.1-4.8s1.8-2.4,3.2-3.2c1.4-.7,2.9-1.1,4.7-1.1s3.3.4,4.7,1.1c1.4.7,2.4,1.8,3.2,3.2s1.1,3,1.1,4.8v.5c0,1.8-.4,3.5-1.1,4.8s-1.8,2.4-3.2,3.1c-1.4.7-2.9,1.1-4.7,1.1ZM3336.7,957.8c1.9,0,3.4-.6,4.5-1.8,1.1-1.2,1.7-2.8,1.7-4.8v-.3c0-2-.6-3.6-1.7-4.8-1.1-1.2-2.6-1.8-4.5-1.8s-3.3.6-4.5,1.8c-1.1,1.2-1.7,2.8-1.7,4.8v.3c0,2,.6,3.6,1.7,4.8,1.1,1.2,2.6,1.8,4.5,1.8Z"/>
      <path class="cls-4" d="M3350.8,959.9v-17.6h2.8v2.2h.5c.3-.8.8-1.3,1.4-1.7.6-.4,1.5-.5,2.6-.5h2.1v2.6h-2.3c-1.3,0-2.3.4-3.1,1.1-.8.7-1.2,1.8-1.2,3.3v10.7h-2.8Z"/>
      <path class="cls-4" d="M3371.9,960.4c-1.5,0-2.9-.4-4.2-1.1s-2.3-1.8-3-3.1c-.7-1.4-1.1-3-1.1-4.9v-.5c0-1.9.4-3.5,1.1-4.8.7-1.4,1.7-2.4,3-3.1s2.7-1.1,4.2-1.1,2.3.2,3.1.5,1.5.7,2.1,1.2c.5.5.9,1,1.2,1.6h.5v-10.4h2.8v25.2h-2.8v-2.9h-.5c-.5.9-1.2,1.7-2.2,2.4-1,.7-2.4,1-4.2,1ZM3372.6,957.9c1.8,0,3.3-.6,4.4-1.7s1.7-2.8,1.7-4.9v-.3c0-2.1-.6-3.7-1.7-4.9s-2.6-1.7-4.4-1.7-3.3.6-4.4,1.7-1.7,2.8-1.7,4.9v.3c0,2.1.6,3.7,1.7,4.9s2.6,1.7,4.4,1.7Z"/>
      <path class="cls-4" d="M3395.7,960.4c-1.8,0-3.3-.4-4.7-1.1-1.3-.8-2.4-1.8-3.1-3.2-.7-1.4-1.1-3-1.1-4.8v-.4c0-1.8.4-3.4,1.1-4.8.7-1.4,1.8-2.4,3.1-3.2,1.3-.8,2.8-1.1,4.5-1.1s3.1.4,4.4,1.1,2.3,1.7,3,3c.7,1.3,1.1,2.9,1.1,4.6v1.3h-14.4c0,1.9.7,3.4,1.8,4.4,1.2,1.1,2.6,1.6,4.3,1.6s2.7-.3,3.5-1c.8-.7,1.4-1.5,1.9-2.5l2.4,1.2c-.4.7-.9,1.5-1.5,2.2-.6.7-1.5,1.4-2.5,1.9-1,.5-2.3.8-3.9.8ZM3389.6,949.5h11.4c0-1.6-.7-2.9-1.7-3.8-1-.9-2.3-1.4-3.9-1.4s-2.9.5-4,1.4c-1,.9-1.7,2.2-1.9,3.8Z"/>
      <path class="cls-4" d="M3408.9,959.9v-17.6h2.8v3h.5c.4-.8,1-1.6,2-2.3.9-.7,2.3-1,4.1-1s2.5.3,3.5.8,1.9,1.4,2.5,2.4c.6,1.1.9,2.4.9,4v10.7h-2.8v-10.4c0-1.8-.4-3-1.3-3.8s-2.1-1.2-3.5-1.2-3.1.6-4.2,1.7c-1.1,1.1-1.6,2.7-1.6,4.9v8.9h-2.8Z"/>
      <path class="cls-4" d="M2730.2,1003.4c-1.3,0-2.4-.3-3.5-.8s-1.9-1.4-2.5-2.5c-.6-1.1-.9-2.4-.9-4v-10.7h2.8v10.4c0,1.8.4,3,1.3,3.8.9.8,2.1,1.2,3.5,1.2s3.1-.6,4.1-1.7c1.1-1.1,1.6-2.7,1.6-4.9v-8.9h2.8v17.6h-2.8v-3h-.5c-.4.8-1,1.6-2,2.3-.9.7-2.3,1-4.1,1Z"/>
      <path class="cls-4" d="M2745.5,1003.1v-17.6h2.8v3h.5c.4-.8,1-1.6,2-2.3.9-.7,2.3-1,4.1-1s2.5.3,3.5.8,1.9,1.4,2.5,2.4.9,2.4.9,4v10.7h-2.8v-10.4c0-1.8-.4-3-1.3-3.8s-2.1-1.2-3.5-1.2-3.1.6-4.2,1.7c-1.1,1.1-1.6,2.7-1.6,4.9v8.9h-2.8Z"/>
      <path class="cls-4" d="M2775.1,1003.6c-1.5,0-2.9-.4-4.2-1.1-1.3-.7-2.3-1.8-3-3.1-.7-1.4-1.1-3-1.1-4.9v-.5c0-1.9.4-3.5,1.1-4.8.7-1.4,1.7-2.4,3-3.1s2.7-1.1,4.2-1.1,2.3.2,3.1.5c.9.3,1.5.7,2.1,1.2.5.5.9,1,1.2,1.6h.5v-10.4h2.8v25.2h-2.8v-2.9h-.5c-.5.9-1.2,1.7-2.2,2.4-1,.7-2.4,1-4.2,1ZM2775.8,1001.1c1.8,0,3.3-.6,4.4-1.7,1.1-1.2,1.7-2.8,1.7-4.9v-.3c0-2.1-.6-3.7-1.7-4.9-1.1-1.2-2.6-1.7-4.4-1.7s-3.3.6-4.4,1.7-1.7,2.8-1.7,4.9v.3c0,2.1.6,3.7,1.7,4.9s2.6,1.7,4.4,1.7Z"/>
      <path class="cls-4" d="M2805.4,1003.6c-1.2,0-2.3-.2-3.3-.6-1-.4-1.8-1.1-2.4-1.9-.6-.8-.9-1.8-.9-3s.3-2.2.9-3,1.4-1.4,2.4-1.8c1-.4,2.1-.6,3.4-.6h5.9v-1.3c0-1.2-.4-2.2-1.1-3-.7-.7-1.8-1.1-3.3-1.1s-2.5.3-3.3,1c-.8.7-1.3,1.6-1.6,2.8l-2.7-.9c.3-1,.7-1.9,1.4-2.7s1.5-1.5,2.5-1.9c1-.5,2.3-.7,3.8-.7,2.3,0,4,.6,5.3,1.7,1.2,1.2,1.9,2.8,1.9,4.9v8c0,.7.3,1.1,1,1.1h1.6v2.4h-2.5c-.8,0-1.4-.2-1.9-.7-.5-.4-.7-1-.7-1.8v-.2h-.4c-.3.5-.6.9-1.1,1.4-.4.5-1,.9-1.8,1.2-.8.3-1.8.5-3,.5ZM2805.8,1001.1c1.7,0,3-.5,4.1-1.5,1-1,1.6-2.4,1.6-4.2v-.4h-5.8c-1.1,0-2.1.2-2.8.7-.7.5-1.1,1.2-1.1,2.2s.4,1.8,1.1,2.3c.8.6,1.7.8,2.9.8Z"/>
      <path class="cls-4" d="M2830.5,1003.6c-1.8,0-3.2-.3-4.3-1-1-.7-1.8-1.5-2.2-2.4h-.5v2.9h-2.8v-25.2h2.8v10.4h.5c.3-.6.7-1.1,1.2-1.6.5-.5,1.2-.9,2.1-1.2.9-.3,1.9-.5,3.1-.5s2.9.4,4.2,1.1c1.3.7,2.3,1.8,3,3.1.7,1.4,1.1,3,1.1,4.8v.5c0,1.9-.4,3.5-1.1,4.9s-1.8,2.4-3,3.1c-1.3.7-2.6,1.1-4.2,1.1ZM2829.7,1001.1c1.8,0,3.3-.6,4.4-1.7s1.7-2.8,1.7-4.9v-.3c0-2.1-.6-3.7-1.7-4.9s-2.6-1.7-4.4-1.7-3.3.6-4.4,1.7c-1.2,1.2-1.7,2.8-1.7,4.9v.3c0,2.1.6,3.7,1.7,4.9,1.2,1.2,2.6,1.7,4.4,1.7Z"/>
      <path class="cls-4" d="M2843.1,994.4v-.5c0-1.8.4-3.4,1.1-4.8.7-1.3,1.8-2.3,3-3.1,1.3-.7,2.7-1.1,4.2-1.1s3.3.4,4.3,1.1,1.7,1.5,2.2,2.4h.5v-2.9h2.7v21.7c0,1-.3,1.7-.8,2.3-.5.6-1.3.8-2.3.8h-12v-2.5h11.2c.7,0,1.1-.4,1.1-1.1v-6.7h-.5c-.3.5-.7,1-1.2,1.5s-1.2.9-2.1,1.2c-.8.3-1.9.5-3.1.5s-2.9-.4-4.2-1.1c-1.3-.7-2.3-1.7-3-3.1-.7-1.3-1.1-2.9-1.1-4.7ZM2852.1,1000.7c1.8,0,3.3-.6,4.4-1.7,1.1-1.2,1.7-2.7,1.7-4.8v-.3c0-2-.6-3.6-1.7-4.8-1.1-1.1-2.6-1.7-4.4-1.7s-3.3.6-4.4,1.7-1.7,2.7-1.7,4.8v.3c0,2,.6,3.6,1.7,4.8,1.2,1.2,2.6,1.7,4.4,1.7Z"/>
      <path class="cls-4" d="M2875.1,1003.6c-1.8,0-3.3-.4-4.7-1.1-1.3-.8-2.4-1.8-3.1-3.2-.7-1.4-1.1-3-1.1-4.8v-.4c0-1.8.4-3.4,1.1-4.8.7-1.4,1.8-2.4,3.1-3.2,1.3-.8,2.8-1.1,4.5-1.1s3.1.4,4.4,1.1c1.3.7,2.3,1.7,3,3,.7,1.3,1.1,2.9,1.1,4.6v1.3h-14.4c0,1.9.7,3.4,1.8,4.4,1.2,1.1,2.6,1.6,4.3,1.6s2.7-.3,3.5-1c.8-.7,1.4-1.5,1.9-2.5l2.4,1.2c-.4.7-.9,1.5-1.5,2.2-.6.7-1.5,1.4-2.5,1.9-1,.5-2.3.8-3.9.8ZM2869.1,992.7h11.4c0-1.6-.7-2.9-1.7-3.8-1-.9-2.3-1.4-3.9-1.4s-2.9.5-4,1.4c-1,.9-1.7,2.2-1.9,3.8Z"/>
      <path class="cls-4" d="M2898.1,1003.6c-1.8,0-3.2-.3-4.3-1-1-.7-1.8-1.5-2.2-2.4h-.5v2.9h-2.8v-25.2h2.8v10.4h.5c.3-.6.7-1.1,1.2-1.6.5-.5,1.2-.9,2.1-1.2s1.9-.5,3.1-.5,2.9.4,4.2,1.1,2.3,1.8,3,3.1c.7,1.4,1.1,3,1.1,4.8v.5c0,1.9-.4,3.5-1.1,4.9-.8,1.4-1.8,2.4-3,3.1s-2.6,1.1-4.2,1.1ZM2897.4,1001.1c1.8,0,3.3-.6,4.4-1.7,1.1-1.2,1.7-2.8,1.7-4.9v-.3c0-2.1-.6-3.7-1.7-4.9-1.1-1.2-2.6-1.7-4.4-1.7s-3.3.6-4.4,1.7-1.7,2.8-1.7,4.9v.3c0,2.1.6,3.7,1.7,4.9s2.6,1.7,4.4,1.7Z"/>
      <path class="cls-4" d="M2911.5,1003.1v-17.6h2.8v2.2h.5c.3-.8.8-1.3,1.4-1.7.6-.4,1.5-.5,2.6-.5h2.1v2.6h-2.3c-1.3,0-2.3.4-3.1,1.1-.8.7-1.2,1.8-1.2,3.3v10.7h-2.8Z"/>
      <path class="cls-4" d="M2933.2,1003.6c-1.8,0-3.3-.4-4.7-1.1-1.4-.7-2.4-1.8-3.2-3.1-.8-1.4-1.1-3-1.1-4.8v-.5c0-1.8.4-3.4,1.1-4.8.8-1.4,1.8-2.4,3.2-3.2,1.4-.7,2.9-1.1,4.7-1.1s3.3.4,4.7,1.1c1.4.7,2.4,1.8,3.2,3.2s1.1,3,1.1,4.8v.5c0,1.8-.4,3.5-1.1,4.8s-1.8,2.4-3.2,3.1c-1.4.7-2.9,1.1-4.7,1.1ZM2933.2,1001c1.9,0,3.4-.6,4.5-1.8,1.1-1.2,1.7-2.8,1.7-4.8v-.3c0-2-.6-3.6-1.7-4.8-1.1-1.2-2.6-1.8-4.5-1.8s-3.3.6-4.5,1.8c-1.1,1.2-1.7,2.8-1.7,4.8v.3c0,2,.6,3.6,1.7,4.8,1.1,1.2,2.6,1.8,4.5,1.8Z"/>
      <path class="cls-4" d="M2955.5,1003.6c-1.7,0-3.2-.4-4.6-1.1-1.4-.7-2.4-1.8-3.2-3.2-.8-1.4-1.2-3-1.2-4.9v-.4c0-1.9.4-3.5,1.2-4.9.8-1.4,1.8-2.4,3.2-3.1,1.4-.7,2.9-1.1,4.6-1.1s3.1.3,4.3.9c1.2.6,2.1,1.5,2.8,2.5.7,1,1.1,2.1,1.3,3.3l-2.8.6c-.1-.9-.4-1.7-.8-2.4-.4-.7-1.1-1.3-1.9-1.7-.8-.4-1.8-.6-2.9-.6s-2.2.3-3.2.8-1.7,1.3-2.2,2.3c-.5,1-.8,2.2-.8,3.5v.3c0,1.4.3,2.5.8,3.5.5,1,1.3,1.7,2.2,2.3s2,.8,3.2.8c1.8,0,3.1-.5,4-1.4s1.5-2,1.7-3.4l2.8.6c-.3,1.2-.7,2.2-1.4,3.3-.7,1-1.6,1.9-2.8,2.5-1.2.6-2.6.9-4.3.9Z"/>
      <path class="cls-4" d="M2968.9,1003.1v-25.2h2.8v10.4h.5c.2-.5.6-1,1.1-1.5.5-.5,1.1-.9,1.9-1.2.8-.3,1.8-.5,3-.5s2.5.3,3.5.8c1,.6,1.9,1.4,2.5,2.4.6,1.1.9,2.4.9,4v10.7h-2.8v-10.4c0-1.8-.4-3-1.3-3.8-.9-.8-2.1-1.2-3.5-1.2s-3.1.6-4.2,1.7c-1.1,1.1-1.6,2.7-1.6,4.9v8.9h-2.8Z"/>
      <path class="cls-4" d="M2999,1003.6c-1.8,0-3.3-.4-4.7-1.1-1.3-.8-2.4-1.8-3.1-3.2-.7-1.4-1.1-3-1.1-4.8v-.4c0-1.8.4-3.4,1.1-4.8.7-1.4,1.8-2.4,3.1-3.2,1.3-.8,2.8-1.1,4.5-1.1s3.1.4,4.4,1.1c1.3.7,2.3,1.7,3,3,.7,1.3,1.1,2.9,1.1,4.6v1.3h-14.4c0,1.9.7,3.4,1.8,4.4,1.2,1.1,2.6,1.6,4.3,1.6s2.7-.3,3.5-1c.8-.7,1.4-1.5,1.9-2.5l2.4,1.2c-.4.7-.9,1.5-1.5,2.2-.6.7-1.5,1.4-2.5,1.9-1,.5-2.3.8-3.9.8ZM2993,992.7h11.4c0-1.6-.7-2.9-1.7-3.8-1-.9-2.3-1.4-3.9-1.4s-2.9.5-4,1.4c-1,.9-1.7,2.2-1.9,3.8Z"/>
      <path class="cls-4" d="M3012.3,1003.1v-17.6h2.8v3h.5c.4-.8,1-1.6,2-2.3.9-.7,2.3-1,4.1-1s2.5.3,3.5.8,1.9,1.4,2.5,2.4.9,2.4.9,4v10.7h-2.8v-10.4c0-1.8-.4-3-1.3-3.8s-2.1-1.2-3.5-1.2-3.1.6-4.2,1.7c-1.1,1.1-1.6,2.7-1.6,4.9v8.9h-2.8Z"/>
      <path class="cls-4" d="M3035.9,1003.6c-.7,0-1.3-.2-1.7-.7-.5-.5-.7-1-.7-1.8s.2-1.3.7-1.8,1-.7,1.7-.7,1.3.2,1.8.7.7,1,.7,1.8-.2,1.3-.7,1.8c-.5.5-1,.7-1.8.7Z"/>
    </g>
  </g>
</svg>