<?xml version="1.0" encoding="UTF-8"?>
<svg xmlns="http://www.w3.org/2000/svg" version="1.1" viewBox="0 0 3840 2160">
  <defs>
    <style>
      .cls-1 {
        stroke-dasharray: 0 0 17 17;
        stroke-width: 5.5px;
      }

      .cls-1, .cls-2 {
        fill: none;
        stroke: #fff;
        stroke-miterlimit: 10;
      }

      .cls-2 {
        stroke-width: 2.8px;
      }

      .cls-3 {
        fill: #deff7f;
        opacity: .2;
      }

      .cls-3, .cls-4 {
        stroke-width: 0px;
      }

      .cls-4 {
        fill: #fff;
      }
    </style>
  </defs>
  <g id="Fläche">
    <circle class="cls-3" cx="1927.1" cy="1884.3" r="89.5"/>
  </g>
  <g id="Kontur">
    <polyline class="cls-1" points="1991.2 1821 2089.3 1765.4 2289.9 1657.8 2445.6 1566.7 2487.7 1536 2501.5 1515 2546 1498 2622.8 1547.2 2730.7 1590.3 2865.5 1652.9 2945.4 1705.7 3010.1 1682 3073.7 1633.5 3150.3 1580.6 3242 1541.8 3312.1 1511.3 3382.5 1464.4 3435.9 1432.8 3486.8 1394.8 3533 1365.7 3626.8 1322.8 3668.1 1279.9 3702.8 1237.9 3749 1216.8 3791.8 1220.1 3840 1246"/>
    <path class="cls-1" d="M0,1493.8l107.4,15.1,96,4.3,57.7-12.4,63.1-8.1,94.9,2.7,214.4,42.1,146.7,30.7,62.3,37.8,102.5,79.6,41-2.2,47.7,8.6,56.9,25.6,37.8,24,70.5,19,16.7,5.9,44.2,3.8,51.2,11.6s38.7,17.1,40.9,17.4,64.2,9.2,64.2,9.2l70.1,12.5,73.9,19.9,50.7,16.7,34.2,32.4,23.2,12.4h53.4l63.1,20.5,58.8,7.6,4.3-4.6"/>
    <polyline class="cls-1" points="3840 318.9 3816.9 313.2 3619.5 313.2 3557.2 339.5 3547.5 339.5 3514.8 317.7 3442.8 318.9 3401.9 349.6 3387.3 351.6 3366.7 370.6 3349.3 378.7 3283 407.7 3260.7 405.2 3231.6 398.8 3205.3 407.7 3194 402.4 3176.6 417.8 3154.8 421 3141.4 452.2 3090.4 501.1 3025.3 543.2 3002.7 543.2 2954.5 537.9 2920.6 518.9 2873.6 514.8 2816.6 487.5 2785.9 478.2 2740.8 455.8 2705.8 445.1 2688.4 452.4 2677.5 449.5 2656.4 469.7 2647.1 457.2 2627.7 484.3 2618.8 481.1 2594.5 501.7 2546.2 511.4 2522.3 505.7 2465.3 513 2420 505.3 2397.1 505.1 2366.4 481.7 2351.8 459 2295.2 402.4 2268.1 366 2254.4 368.8 2209 393.9 2191.3 392.7 2143.5 415.3 2136.2 419.8 2117.6 421 2082.4 437.2 1994.3 437.2 1983.7 428.2 1926.3 428.2 1893.1 446.3 1879.8 458 1840.1 477.4 1825 476.6 1815.7 472.2 1795 483.9 1774 485.5 1730.7 510.6 1640.2 582.9 1594.4 605 1570.1 582.3 1561.5 548.4 1566.8 484.7 1514 511.7 1455.7 537.6 1396.4 547.8 1372.1 548.6 1340.6 528 1282.8 539.7 1249.6 535.7 1222.9 540.5 1210.4 556.3 1101.7 554.9 1076.5 562.8 1038.4 587 970.5 610.1 921.3 626.1 829.1 623.3 744.6 622.4 659.8 618.8 637.6 609.9 598.8 582.8 521.3 580.2 447.3 564 252.2 700.4 233.1 700.4 156.8 659.7 94.8 620.5 51.9 587.3 17.9 568.4 0 563.9"/>
  </g>
  <g id="Beschriftung">
    <line class="cls-2" x1="1863.8" y1="1821" x2="1795.5" y2="1752.7"/>
    <g>
      <path class="cls-4" d="M1397.3,1656.4v-25.2h8.8l4.4,22h.6l4.4-22h8.8v25.2h-4.6v-21.7h-.6l-4.3,21.7h-7.8l-4.3-21.7h-.6v21.7h-4.6Z"/>
      <path class="cls-4" d="M1437.3,1656.9c-1.8,0-3.3-.4-4.7-1.1-1.4-.8-2.4-1.8-3.2-3.2s-1.1-3-1.1-4.9v-.4c0-1.9.4-3.5,1.1-4.9.7-1.4,1.8-2.4,3.1-3.2,1.3-.8,2.9-1.1,4.7-1.1s3.3.4,4.6,1.2c1.3.8,2.3,1.9,3,3.2.7,1.4,1.1,3,1.1,4.8v1.5h-13c0,1.2.5,2.2,1.4,3,.9.8,1.9,1.2,3.2,1.2s2.2-.3,2.8-.8c.6-.6,1.1-1.2,1.4-1.8l3.7,1.9c-.3.6-.8,1.3-1.5,2-.6.7-1.5,1.4-2.5,1.9-1.1.5-2.4.8-4,.8ZM1433,1645.4h8.4c0-1-.5-1.9-1.2-2.5-.7-.6-1.7-.9-2.9-.9s-2.2.3-2.9.9c-.7.6-1.2,1.5-1.3,2.5Z"/>
      <path class="cls-4" d="M1457.4,1656.9c-2.3,0-4.2-.5-5.7-1.5-1.5-1-2.4-2.4-2.7-4.3l4.2-1.1c.2.8.5,1.5.8,2s.9.8,1.5,1c.6.2,1.2.3,1.9.3,1.1,0,1.8-.2,2.3-.6.5-.4.8-.8.8-1.4s-.2-1-.7-1.3c-.5-.3-1.2-.5-2.3-.7l-1-.2c-1.2-.2-2.4-.6-3.4-1-1-.4-1.9-1-2.5-1.7-.6-.7-.9-1.7-.9-2.9,0-1.8.6-3.1,1.9-4.1,1.3-.9,3-1.4,5.1-1.4s3.6.4,5,1.3c1.3.9,2.2,2.1,2.6,3.5l-4.2,1.3c-.2-.9-.6-1.6-1.2-1.9-.6-.4-1.3-.6-2.2-.6s-1.5.2-2,.5c-.5.3-.7.7-.7,1.2s.2,1,.7,1.3c.5.3,1.1.5,1.9.6l1,.2c1.3.2,2.6.6,3.7,1,1.1.4,2,1,2.6,1.7.6.7,1,1.7,1,3,0,1.9-.7,3.3-2,4.3-1.4,1-3.2,1.5-5.5,1.5Z"/>
      <path class="cls-4" d="M1476.2,1656.9c-2.3,0-4.2-.5-5.7-1.5-1.5-1-2.4-2.4-2.7-4.3l4.2-1.1c.2.8.5,1.5.8,2s.9.8,1.5,1c.6.2,1.2.3,1.9.3,1.1,0,1.8-.2,2.3-.6.5-.4.8-.8.8-1.4s-.2-1-.7-1.3c-.5-.3-1.2-.5-2.3-.7l-1-.2c-1.2-.2-2.4-.6-3.4-1-1-.4-1.9-1-2.5-1.7-.6-.7-.9-1.7-.9-2.9,0-1.8.6-3.1,1.9-4.1,1.3-.9,3-1.4,5.1-1.4s3.6.4,5,1.3c1.3.9,2.2,2.1,2.6,3.5l-4.2,1.3c-.2-.9-.6-1.6-1.2-1.9-.6-.4-1.3-.6-2.2-.6s-1.5.2-2,.5c-.5.3-.7.7-.7,1.2s.2,1,.7,1.3c.5.3,1.1.5,1.9.6l1,.2c1.3.2,2.6.6,3.7,1,1.1.4,2,1,2.6,1.7.6.7,1,1.7,1,3,0,1.9-.7,3.3-2,4.3-1.4,1-3.2,1.5-5.5,1.5Z"/>
      <path class="cls-4" d="M1495.1,1656.9c-2.3,0-4.2-.5-5.7-1.5-1.5-1-2.4-2.4-2.7-4.3l4.2-1.1c.2.8.5,1.5.8,2s.9.8,1.5,1c.6.2,1.2.3,1.9.3,1.1,0,1.8-.2,2.3-.6.5-.4.8-.8.8-1.4s-.2-1-.7-1.3c-.5-.3-1.2-.5-2.3-.7l-1-.2c-1.2-.2-2.4-.6-3.4-1-1-.4-1.9-1-2.5-1.7-.6-.7-.9-1.7-.9-2.9,0-1.8.6-3.1,1.9-4.1,1.3-.9,3-1.4,5.1-1.4s3.6.4,5,1.3c1.3.9,2.2,2.1,2.6,3.5l-4.2,1.3c-.2-.9-.6-1.6-1.2-1.9-.6-.4-1.3-.6-2.2-.6s-1.5.2-2,.5c-.5.3-.7.7-.7,1.2s.2,1,.7,1.3c.5.3,1.1.5,1.9.6l1,.2c1.3.2,2.6.6,3.7,1,1.1.4,2,1,2.6,1.7.6.7,1,1.7,1,3,0,1.9-.7,3.3-2,4.3-1.4,1-3.2,1.5-5.5,1.5Z"/>
      <path class="cls-4" d="M1513.4,1656.4c-1.2,0-2.1-.4-2.9-1.1-.7-.7-1.1-1.7-1.1-2.9v-10.1h-4.5v-3.7h4.5v-5.5h4.5v5.5h4.9v3.7h-4.9v9.3c0,.7.3,1.1,1,1.1h3.5v3.7h-5Z"/>
      <path class="cls-4" d="M1528.5,1656.9c-1.3,0-2.4-.2-3.4-.7-1-.4-1.8-1.1-2.4-1.9-.6-.9-.9-1.9-.9-3.1s.3-2.2.9-3.1c.6-.8,1.4-1.5,2.4-1.9,1-.4,2.2-.6,3.6-.6h4.9v-1c0-.8-.3-1.5-.8-2.1s-1.4-.8-2.5-.8-2,.3-2.5.8c-.6.5-.9,1.2-1.1,2l-4.2-1.4c.3-.9.8-1.7,1.4-2.5.6-.8,1.5-1.4,2.6-1.8s2.4-.7,3.9-.7c2.4,0,4.2.6,5.6,1.8,1.4,1.2,2.1,2.9,2.1,5.1v6.7c0,.7.3,1.1,1,1.1h1.4v3.7h-3c-.9,0-1.6-.2-2.2-.6-.6-.4-.9-1-.9-1.7h0s-.7,0-.7,0c0,.3-.3.7-.6,1.1-.3.5-.9.9-1.6,1.2-.7.4-1.7.5-3,.5ZM1529.3,1653.2c1.3,0,2.3-.4,3.1-1.1.8-.7,1.2-1.6,1.2-2.8v-.4h-4.6c-.8,0-1.5.2-2,.5-.5.4-.7.9-.7,1.5s.3,1.2.8,1.6c.5.4,1.2.6,2.2.6Z"/>
      <path class="cls-4" d="M1550.6,1656.4c-1.2,0-2.1-.4-2.9-1.1-.7-.7-1.1-1.7-1.1-2.9v-10.1h-4.5v-3.7h4.5v-5.5h4.5v5.5h4.9v3.7h-4.9v9.3c0,.7.3,1.1,1,1.1h3.5v3.7h-5Z"/>
      <path class="cls-4" d="M1562.4,1636.5c-.8,0-1.5-.3-2.1-.8-.6-.5-.8-1.2-.8-2.1s.3-1.6.8-2.1c.6-.5,1.3-.8,2.1-.8s1.5.3,2.1.8c.6.5.8,1.2.8,2.1s-.3,1.6-.8,2.1c-.6.5-1.2.8-2.1.8ZM1560.2,1656.4v-17.9h4.5v17.9h-4.5Z"/>
      <path class="cls-4" d="M1578.2,1656.9c-1.8,0-3.4-.4-4.8-1.1-1.4-.7-2.5-1.8-3.3-3.1s-1.2-3-1.2-4.9v-.6c0-1.9.4-3.6,1.2-4.9.8-1.4,1.9-2.4,3.3-3.1,1.4-.7,3-1.1,4.8-1.1s3.4.4,4.8,1.1c1.4.7,2.5,1.8,3.3,3.1.8,1.4,1.2,3,1.2,4.9v.6c0,1.9-.4,3.6-1.2,4.9s-1.9,2.4-3.3,3.1c-1.4.7-3,1.1-4.8,1.1ZM1578.2,1652.9c1.4,0,2.5-.4,3.5-1.3.9-.9,1.4-2.2,1.4-3.9v-.4c0-1.7-.4-3-1.3-3.9-.9-.9-2.1-1.4-3.5-1.4s-2.5.5-3.5,1.4c-.9.9-1.4,2.2-1.4,3.9v.4c0,1.7.5,3,1.4,3.9.9.9,2.1,1.3,3.5,1.3Z"/>
      <path class="cls-4" d="M1591.8,1656.4v-17.9h4.5v2.3h.6c.3-.6.8-1.2,1.6-1.8.8-.6,2-.8,3.6-.8s2.6.3,3.7,1c1,.6,1.9,1.5,2.4,2.6.6,1.1.9,2.4.9,3.9v10.7h-4.5v-10.3c0-1.3-.3-2.4-1-3-.7-.7-1.6-1-2.8-1s-2.5.5-3.2,1.4c-.8.9-1.2,2.2-1.2,3.9v9.1h-4.5Z"/>
      <path class="cls-4" d="M1622.2,1656.4v-4.2h3.3v-16.8h-3.3v-4.2h13c1.5,0,2.9.3,4,.8,1.1.5,2,1.2,2.7,2.2.6.9,1,2.1,1,3.4v.4c0,1.2-.2,2.1-.6,2.8s-.9,1.3-1.5,1.7c-.6.4-1.1.7-1.7.8v.6c.5.1,1.1.4,1.7.8.6.4,1.2,1,1.6,1.7.4.7.7,1.7.7,2.9v.4c0,1.4-.3,2.6-1,3.6-.6,1-1.5,1.8-2.7,2.3-1.1.5-2.5.8-4,.8h-13.1ZM1630.3,1641.6h4.4c1,0,1.8-.3,2.4-.8.6-.5,1-1.2,1-2.1v-.4c0-.9-.3-1.6-.9-2.1-.6-.5-1.4-.7-2.4-.7h-4.4v6ZM1630.3,1652.1h4.5c1,0,1.9-.3,2.5-.8.6-.5,1-1.2,1-2.2v-.4c0-.9-.3-1.7-.9-2.2-.6-.5-1.5-.8-2.5-.8h-4.5v6.2Z"/>
      <path class="cls-4" d="M1653.8,1656.7c-1.4,0-2.6-.3-3.7-1s-1.9-1.5-2.4-2.6c-.6-1.1-.9-2.4-.9-3.9v-10.7h4.5v10.3c0,1.3.3,2.4,1,3s1.6,1,2.8,1,2.5-.5,3.2-1.4,1.2-2.2,1.2-3.9v-9.1h4.5v17.9h-4.5v-2.3h-.6c-.3.6-.8,1.2-1.6,1.8s-2,.9-3.6.9Z"/>
      <path class="cls-4" d="M1672.1,1656.4v-14.1h-4.5v-3.7h4.5v-3.3c0-1.2.4-2.2,1.1-2.9.7-.7,1.7-1.1,2.9-1.1h4.7v3.7h-3.1c-.7,0-1,.4-1,1.1v2.5h4.7v3.7h-4.7v14.1h-4.5Z"/>
      <path class="cls-4" d="M1687.8,1656.4v-14.1h-4.5v-3.7h4.5v-3.3c0-1.2.4-2.2,1.1-2.9.7-.7,1.7-1.1,2.9-1.1h4.7v3.7h-3.1c-.7,0-1,.4-1,1.1v2.5h4.7v3.7h-4.7v14.1h-4.5Z"/>
      <path class="cls-4" d="M1706.1,1656.9c-1.3,0-2.4-.2-3.4-.7-1-.4-1.8-1.1-2.4-1.9-.6-.9-.9-1.9-.9-3.1s.3-2.2.9-3.1c.6-.8,1.4-1.5,2.4-1.9,1-.4,2.2-.6,3.6-.6h4.9v-1c0-.8-.3-1.5-.8-2.1s-1.4-.8-2.5-.8-2,.3-2.5.8c-.6.5-.9,1.2-1.1,2l-4.2-1.4c.3-.9.8-1.7,1.4-2.5.6-.8,1.5-1.4,2.6-1.8s2.4-.7,3.9-.7c2.4,0,4.2.6,5.6,1.8,1.4,1.2,2.1,2.9,2.1,5.1v6.7c0,.7.3,1.1,1,1.1h1.4v3.7h-3c-.9,0-1.6-.2-2.2-.6-.6-.4-.9-1-.9-1.7h0s-.7,0-.7,0c0,.3-.3.7-.6,1.1-.3.5-.9.9-1.6,1.2-.7.4-1.7.5-3,.5ZM1706.9,1653.2c1.3,0,2.3-.4,3.1-1.1.8-.7,1.2-1.6,1.2-2.8v-.4h-4.6c-.8,0-1.5.2-2,.5-.5.4-.7.9-.7,1.5s.3,1.2.8,1.6c.5.4,1.2.6,2.2.6Z"/>
      <path class="cls-4" d="M1721.4,1656.4v-25.2h4.5v25.2h-4.5Z"/>
      <path class="cls-4" d="M1739.5,1656.9c-1.8,0-3.4-.4-4.8-1.1-1.4-.7-2.5-1.8-3.3-3.1s-1.2-3-1.2-4.9v-.6c0-1.9.4-3.6,1.2-4.9.8-1.4,1.9-2.4,3.3-3.1,1.4-.7,3-1.1,4.8-1.1s3.4.4,4.8,1.1c1.4.7,2.5,1.8,3.3,3.1.8,1.4,1.2,3,1.2,4.9v.6c0,1.9-.4,3.6-1.2,4.9s-1.9,2.4-3.3,3.1c-1.4.7-3,1.1-4.8,1.1ZM1739.5,1652.9c1.4,0,2.5-.4,3.5-1.3.9-.9,1.4-2.2,1.4-3.9v-.4c0-1.7-.4-3-1.3-3.9-.9-.9-2.1-1.4-3.5-1.4s-2.5.5-3.5,1.4c-.9.9-1.4,2.2-1.4,3.9v.4c0,1.7.5,3,1.4,3.9.9.9,2.1,1.3,3.5,1.3Z"/>
      <path class="cls-4" d="M1753,1656.4v-17.9h4.5v2h.6c.3-.7.7-1.2,1.3-1.6.6-.3,1.3-.5,2.1-.5h2.2v4h-2.2c-1.2,0-2.1.3-2.8.9-.7.6-1.1,1.6-1.1,2.8v10.2h-4.5Z"/>
      <path class="cls-4" d="M1772.8,1656.9c-1.3,0-2.4-.2-3.4-.7-1-.4-1.8-1.1-2.4-1.9-.6-.9-.9-1.9-.9-3.1s.3-2.2.9-3.1c.6-.8,1.4-1.5,2.4-1.9,1-.4,2.2-.6,3.6-.6h4.9v-1c0-.8-.3-1.5-.8-2.1s-1.4-.8-2.5-.8-2,.3-2.5.8c-.6.5-.9,1.2-1.1,2l-4.2-1.4c.3-.9.8-1.7,1.4-2.5.6-.8,1.5-1.4,2.6-1.8s2.4-.7,3.9-.7c2.4,0,4.2.6,5.6,1.8,1.4,1.2,2.1,2.9,2.1,5.1v6.7c0,.7.3,1.1,1,1.1h1.4v3.7h-3c-.9,0-1.6-.2-2.2-.6-.6-.4-.9-1-.9-1.7h0s-.7,0-.7,0c0,.3-.3.7-.6,1.1-.3.5-.9.9-1.6,1.2-.7.4-1.7.5-3,.5ZM1773.6,1653.2c1.3,0,2.3-.4,3.1-1.1.8-.7,1.2-1.6,1.2-2.8v-.4h-4.6c-.8,0-1.5.2-2,.5-.5.4-.7.9-.7,1.5s.3,1.2.8,1.6c.5.4,1.2.6,2.2.6Z"/>
      <path class="cls-4" d="M1583.3,1700.1c-1.9,0-3.5-.4-5-1.2-1.4-.8-2.5-1.9-3.3-3.4-.8-1.5-1.2-3.4-1.2-5.6v-5.8c0-3.3.9-5.9,2.7-7.6,1.8-1.7,4.2-2.6,7.2-2.6s5.2.8,6.8,2.4c1.6,1.6,2.3,3.8,2.3,6.6v.2h-3v-.3c0-1.2-.2-2.3-.6-3.2-.4-.9-1.1-1.7-2-2.2-.9-.5-2.1-.8-3.5-.8-2.1,0-3.8.7-5,2-1.2,1.3-1.8,3.1-1.8,5.5v5.9c0,2.4.6,4.2,1.8,5.5,1.2,1.3,2.9,2,5,2s3.7-.6,4.7-1.8c1-1.2,1.5-2.8,1.5-4.8v-.6h-7.6v-2.6h10.6v12h-2.7v-2.7h-.5c-.3.5-.6,1-1.1,1.5-.5.5-1.1.9-1.9,1.2-.8.3-1.9.5-3.2.5Z"/>
      <path class="cls-4" d="M1598.4,1699.6v-17.6h2.8v2.2h.5c.3-.8.8-1.3,1.4-1.7.6-.4,1.5-.5,2.6-.5h2.1v2.6h-2.3c-1.3,0-2.3.4-3.1,1.1-.8.7-1.2,1.8-1.2,3.3v10.7h-2.8Z"/>
      <path class="cls-4" d="M1617.3,1700.1c-1.2,0-2.3-.2-3.3-.6-1-.4-1.8-1.1-2.4-1.9-.6-.8-.9-1.8-.9-3s.3-2.2.9-3,1.4-1.4,2.4-1.8c1-.4,2.1-.6,3.4-.6h5.9v-1.3c0-1.2-.4-2.2-1.1-3-.7-.7-1.8-1.1-3.3-1.1s-2.5.3-3.3,1c-.8.7-1.3,1.6-1.6,2.8l-2.7-.9c.3-1,.7-1.9,1.4-2.7s1.5-1.5,2.5-1.9c1-.5,2.3-.7,3.8-.7,2.3,0,4,.6,5.3,1.7,1.2,1.2,1.9,2.8,1.9,4.9v8c0,.7.3,1.1,1,1.1h1.6v2.4h-2.5c-.8,0-1.4-.2-1.9-.7-.5-.4-.7-1-.7-1.8v-.2h-.4c-.3.5-.6.9-1.1,1.4-.4.5-1,.9-1.8,1.2-.8.3-1.8.5-3,.5ZM1617.7,1697.7c1.7,0,3-.5,4.1-1.5,1-1,1.6-2.4,1.6-4.2v-.4h-5.8c-1.1,0-2.1.2-2.8.7-.7.5-1.1,1.2-1.1,2.2s.4,1.8,1.1,2.3c.8.6,1.7.8,2.9.8Z"/>
      <path class="cls-4" d="M1639.4,1699.9c-1.3,0-2.4-.3-3.5-.8-1.1-.6-1.9-1.4-2.5-2.5s-.9-2.4-.9-4v-10.7h2.8v10.4c0,1.8.4,3,1.3,3.8.9.8,2.1,1.2,3.5,1.2s3.1-.6,4.1-1.7c1.1-1.1,1.6-2.7,1.6-4.9v-8.9h2.8v17.6h-2.8v-3h-.5c-.4.8-1,1.6-2,2.3-.9.7-2.3,1-4.1,1Z"/>
      <path class="cls-4" d="M1664.4,1700.1c-1.8,0-3.2-.3-4.3-1-1-.7-1.8-1.5-2.2-2.4h-.5v2.9h-2.8v-25.2h2.8v10.4h.5c.3-.6.7-1.1,1.2-1.6.5-.5,1.2-.9,2.1-1.2.9-.3,1.9-.5,3.1-.5s2.9.4,4.2,1.1c1.3.7,2.3,1.8,3,3.1.7,1.4,1.1,3,1.1,4.8v.5c0,1.9-.4,3.5-1.1,4.9-.8,1.4-1.8,2.4-3,3.1-1.3.7-2.6,1.1-4.2,1.1ZM1663.7,1697.6c1.8,0,3.3-.6,4.4-1.7,1.1-1.2,1.7-2.8,1.7-4.9v-.3c0-2.1-.6-3.7-1.7-4.9-1.1-1.2-2.6-1.7-4.4-1.7s-3.3.6-4.4,1.7c-1.2,1.2-1.7,2.8-1.7,4.9v.3c0,2.1.6,3.7,1.7,4.9,1.2,1.2,2.6,1.7,4.4,1.7Z"/>
      <path class="cls-4" d="M1684.6,1699.9c-1.3,0-2.4-.3-3.5-.8-1.1-.6-1.9-1.4-2.5-2.5s-.9-2.4-.9-4v-10.7h2.8v10.4c0,1.8.4,3,1.3,3.8.9.8,2.1,1.2,3.5,1.2s3.1-.6,4.1-1.7c1.1-1.1,1.6-2.7,1.6-4.9v-8.9h2.8v17.6h-2.8v-3h-.5c-.4.8-1,1.6-2,2.3-.9.7-2.3,1-4.1,1ZM1682.4,1679.3c-.6,0-1.1-.2-1.5-.6-.4-.4-.6-.9-.6-1.6s.2-1.2.6-1.5c.4-.4.9-.6,1.5-.6s1.1.2,1.5.6.6.9.6,1.5-.2,1.2-.6,1.6c-.4.4-.9.6-1.5.6ZM1689.1,1679.3c-.6,0-1.1-.2-1.5-.6-.4-.4-.6-.9-.6-1.6s.2-1.2.6-1.5c.4-.4.9-.6,1.5-.6s1.2.2,1.6.6.6.9.6,1.5-.2,1.2-.6,1.6c-.4.4-.9.6-1.6.6Z"/>
      <path class="cls-4" d="M1699.9,1699.6v-17.6h2.8v3h.5c.4-.8,1-1.6,2-2.3.9-.7,2.3-1,4.1-1s2.5.3,3.5.8,1.9,1.4,2.5,2.4.9,2.4.9,4v10.7h-2.8v-10.4c0-1.8-.4-3-1.3-3.8-.9-.8-2.1-1.2-3.5-1.2s-3.1.6-4.2,1.7c-1.1,1.1-1.6,2.7-1.6,4.9v8.9h-2.8Z"/>
      <path class="cls-4" d="M1729.4,1700.1c-1.5,0-2.9-.4-4.2-1.1-1.3-.7-2.3-1.8-3-3.1-.7-1.4-1.1-3-1.1-4.9v-.5c0-1.9.4-3.5,1.1-4.8.7-1.4,1.7-2.4,3-3.1,1.3-.7,2.7-1.1,4.2-1.1s2.3.2,3.1.5c.9.3,1.5.7,2.1,1.2.5.5.9,1,1.2,1.6h.5v-10.4h2.8v25.2h-2.8v-2.9h-.5c-.5.9-1.2,1.7-2.2,2.4-1,.7-2.4,1-4.2,1ZM1730.2,1697.6c1.8,0,3.3-.6,4.4-1.7,1.1-1.2,1.7-2.8,1.7-4.9v-.3c0-2.1-.6-3.7-1.7-4.9-1.1-1.2-2.6-1.7-4.4-1.7s-3.3.6-4.4,1.7c-1.2,1.2-1.7,2.8-1.7,4.9v.3c0,2.1.6,3.7,1.7,4.9,1.2,1.2,2.6,1.7,4.4,1.7Z"/>
      <path class="cls-4" d="M1753.2,1700.1c-1.8,0-3.3-.4-4.7-1.1-1.3-.8-2.4-1.8-3.1-3.2-.7-1.4-1.1-3-1.1-4.8v-.4c0-1.8.4-3.4,1.1-4.8.7-1.4,1.8-2.4,3.1-3.2,1.3-.8,2.8-1.1,4.5-1.1s3.1.4,4.4,1.1c1.3.7,2.3,1.7,3,3,.7,1.3,1.1,2.9,1.1,4.6v1.3h-14.4c0,1.9.7,3.4,1.8,4.4,1.2,1.1,2.6,1.6,4.3,1.6s2.7-.3,3.5-1c.8-.7,1.4-1.5,1.9-2.5l2.4,1.2c-.4.7-.9,1.5-1.5,2.2-.6.7-1.5,1.4-2.5,1.9-1,.5-2.3.8-3.9.8ZM1747.2,1689.2h11.4c0-1.6-.7-2.9-1.7-3.8s-2.3-1.4-3.9-1.4-2.9.5-4,1.4c-1,.9-1.7,2.2-1.9,3.8Z"/>
      <path class="cls-4" d="M1766.5,1699.6v-17.6h2.8v3h.5c.4-.8,1-1.6,2-2.3.9-.7,2.3-1,4.1-1s2.5.3,3.5.8,1.9,1.4,2.5,2.4.9,2.4.9,4v10.7h-2.8v-10.4c0-1.8-.4-3-1.3-3.8-.9-.8-2.1-1.2-3.5-1.2s-3.1.6-4.2,1.7c-1.1,1.1-1.6,2.7-1.6,4.9v8.9h-2.8Z"/>
      <path class="cls-4" d="M1653.4,1743.3c-1.8,0-3.5-.3-4.9-1-1.4-.6-2.6-1.6-3.4-2.9-.8-1.3-1.2-2.9-1.2-4.9v-.8h3v.8c0,2.1.6,3.6,1.8,4.7,1.2,1,2.8,1.5,4.7,1.5s3.5-.4,4.5-1.3c1-.9,1.5-2,1.5-3.3s-.2-1.7-.7-2.2c-.5-.6-1.1-1-2-1.3-.8-.3-1.8-.7-3-.9l-1.9-.5c-1.5-.4-2.8-.9-3.9-1.4-1.1-.6-2-1.3-2.6-2.2-.6-.9-1-2.1-1-3.5s.4-2.6,1.1-3.7c.7-1,1.7-1.8,3-2.4,1.3-.6,2.8-.8,4.4-.8s3.2.3,4.6.9c1.4.6,2.4,1.5,3.2,2.6.8,1.1,1.2,2.6,1.2,4.3v1.5h-3v-1.5c0-1.2-.3-2.2-.8-3-.5-.7-1.2-1.3-2.1-1.7s-1.9-.5-3.1-.5c-1.7,0-3,.4-4,1.1-1,.7-1.5,1.8-1.5,3.1s.2,1.6.6,2.2c.4.6,1,1,1.8,1.4s1.7.7,2.8.9l1.9.5c1.5.3,2.8.7,3.9,1.3,1.2.5,2.1,1.3,2.8,2.2.7.9,1,2.1,1,3.6s-.4,2.8-1.1,3.9c-.7,1.1-1.8,2-3.1,2.6-1.4.6-2.9.9-4.8.9Z"/>
      <path class="cls-4" d="M1675.3,1743.3c-1.7,0-3.2-.4-4.6-1.1-1.4-.7-2.4-1.8-3.2-3.2-.8-1.4-1.2-3-1.2-4.9v-.4c0-1.9.4-3.5,1.2-4.9.8-1.4,1.8-2.4,3.2-3.1,1.4-.7,2.9-1.1,4.6-1.1s3.1.3,4.3.9,2.1,1.5,2.8,2.5c.7,1,1.1,2.1,1.3,3.3l-2.8.6c-.1-.9-.4-1.7-.8-2.4-.4-.7-1.1-1.3-1.9-1.7-.8-.4-1.8-.6-2.9-.6s-2.2.3-3.1.8c-.9.5-1.7,1.3-2.2,2.3-.5,1-.8,2.2-.8,3.5v.3c0,1.4.3,2.5.8,3.5.5,1,1.3,1.7,2.2,2.3.9.5,2,.8,3.1.8,1.8,0,3.1-.5,4-1.4.9-.9,1.5-2,1.7-3.4l2.8.6c-.3,1.2-.7,2.2-1.4,3.3-.7,1-1.6,1.9-2.8,2.5-1.2.6-2.6.9-4.3.9Z"/>
      <path class="cls-4" d="M1688.7,1742.8v-25.2h2.8v10.4h.5c.2-.5.6-1,1.1-1.5.5-.5,1.1-.9,1.9-1.2.8-.3,1.8-.5,3-.5s2.5.3,3.5.8c1,.6,1.9,1.4,2.5,2.4.6,1.1.9,2.4.9,4v10.7h-2.8v-10.4c0-1.8-.4-3-1.3-3.8-.9-.8-2.1-1.2-3.5-1.2s-3.1.6-4.2,1.7c-1.1,1.1-1.6,2.7-1.6,4.9v8.9h-2.8Z"/>
      <path class="cls-4" d="M1713.2,1742.8l-3.5-17.6h2.9l2.9,15.7h.5l3.9-15.7h4.7l3.9,15.7h.5l2.9-15.7h2.9l-3.5,17.6h-4.9l-3.9-15.7h-.5l-3.9,15.7h-4.9Z"/>
      <path class="cls-4" d="M1747.7,1743.3c-1.8,0-3.3-.4-4.7-1.1-1.3-.8-2.4-1.8-3.1-3.2-.7-1.4-1.1-3-1.1-4.8v-.4c0-1.8.4-3.4,1.1-4.8.7-1.4,1.8-2.4,3.1-3.2,1.3-.8,2.8-1.1,4.5-1.1s3.1.4,4.4,1.1c1.3.7,2.3,1.7,3,3,.7,1.3,1.1,2.9,1.1,4.6v1.3h-14.4c0,1.9.7,3.4,1.8,4.4,1.2,1.1,2.6,1.6,4.3,1.6s2.7-.3,3.5-1c.8-.7,1.4-1.5,1.9-2.5l2.4,1.2c-.4.7-.9,1.5-1.5,2.2-.6.7-1.5,1.4-2.5,1.9-1,.5-2.3.8-3.9.8ZM1741.6,1732.4h11.4c0-1.6-.7-2.9-1.7-3.8s-2.3-1.4-3.9-1.4-2.9.5-4,1.4c-1,.9-1.7,2.2-1.9,3.8Z"/>
      <path class="cls-4" d="M1762.4,1722.5c-.6,0-1.1-.2-1.6-.6-.4-.4-.6-.9-.6-1.5s.2-1.2.6-1.6.9-.6,1.6-.6,1.1.2,1.5.6c.4.4.6.9.6,1.6s-.2,1.1-.6,1.5c-.4.4-.9.6-1.5.6ZM1760.9,1742.8v-17.6h2.8v17.6h-2.8Z"/>
      <path class="cls-4" d="M1769,1742.8v-3.7l11.2-11.1v-.4h-10.8v-2.5h13.8v3.7l-11.2,11.1v.4h11.5v2.4h-14.5Z"/>
    </g>
    <g>
      <path class="cls-4" d="M2279.3,207.7c-1.9,0-3.6-.3-5-1s-2.6-1.7-3.4-3c-.8-1.3-1.2-2.9-1.2-4.8v-.9h3.9v.9c0,1.8.5,3.1,1.6,4,1.1.9,2.5,1.3,4.3,1.3s3.2-.4,4.1-1.1c.9-.8,1.4-1.7,1.4-2.9s-.2-1.4-.6-1.9-1-.9-1.8-1.2-1.7-.6-2.8-.8l-1.3-.3c-1.6-.4-3-.9-4.2-1.4-1.2-.6-2.1-1.3-2.8-2.2-.6-.9-1-2.1-1-3.6s.4-2.8,1.1-3.8c.7-1.1,1.7-1.9,3-2.4s2.8-.9,4.6-.9,3.3.3,4.7.9c1.4.6,2.5,1.5,3.3,2.7s1.2,2.7,1.2,4.4v1.3h-3.9v-1.3c0-1.1-.2-2-.7-2.6-.4-.7-1.1-1.2-1.9-1.5-.8-.3-1.7-.5-2.8-.5-1.5,0-2.7.3-3.6,1-.9.6-1.3,1.5-1.3,2.6s.2,1.4.6,1.9c.4.5.9.9,1.6,1.2.7.3,1.6.6,2.7.8l1.3.3c1.6.4,3.1.8,4.3,1.4,1.2.6,2.2,1.3,3,2.3.7,1,1.1,2.2,1.1,3.7s-.4,2.8-1.1,4-1.8,2-3.2,2.6c-1.4.6-3,1-4.9,1Z"/>
      <path class="cls-4" d="M2301,207.7c-1.7,0-3.2-.4-4.6-1.1-1.4-.7-2.5-1.8-3.3-3.1-.8-1.4-1.2-3-1.2-4.9v-.5c0-1.9.4-3.6,1.2-4.9.8-1.4,1.9-2.4,3.3-3.1,1.4-.7,2.9-1.1,4.6-1.1s3.2.3,4.4.9c1.2.6,2.2,1.5,2.9,2.5.7,1,1.2,2.2,1.4,3.4l-3.6.8c-.1-.8-.4-1.5-.8-2.2-.4-.6-.9-1.2-1.6-1.5-.7-.4-1.6-.6-2.6-.6s-2,.2-2.8.7c-.8.5-1.5,1.1-2,2s-.7,1.9-.7,3.2v.3c0,1.2.2,2.3.7,3.2s1.1,1.6,2,2c.8.5,1.8.7,2.8.7,1.6,0,2.7-.4,3.6-1.2.8-.8,1.3-1.8,1.5-3.1l3.6.8c-.3,1.2-.8,2.4-1.5,3.4-.7,1-1.7,1.9-2.9,2.5-1.2.6-2.7.9-4.4.9Z"/>
      <path class="cls-4" d="M2314.1,207.2v-25.2h3.7v10h.6c.2-.5.6-.9,1-1.3.4-.4,1-.8,1.8-1.1.7-.3,1.7-.4,2.8-.4s2.5.3,3.6.9,1.9,1.4,2.5,2.5c.6,1.1.9,2.4.9,3.9v10.7h-3.7v-10.4c0-1.5-.4-2.7-1.2-3.4-.8-.7-1.8-1.1-3.2-1.1s-2.8.5-3.7,1.5c-.9,1-1.4,2.5-1.4,4.4v9h-3.7Z"/>
      <path class="cls-4" d="M2338.2,207.2l-3-17.7h3.7l2.2,15.3h.6l3.1-15.3h6l3.1,15.3h.6l2.2-15.3h3.7l-3,17.7h-6.2l-3.1-15.2h-.6l-3.1,15.2h-6.2Z"/>
      <path class="cls-4" d="M2372.9,207.7c-1.8,0-3.4-.4-4.7-1.1s-2.4-1.8-3.1-3.2c-.8-1.4-1.1-3-1.1-4.8v-.4c0-1.8.4-3.5,1.1-4.8.7-1.4,1.8-2.4,3.1-3.2s2.9-1.1,4.6-1.1,3.2.4,4.5,1.1c1.3.8,2.3,1.8,3,3.2.7,1.3,1.1,2.9,1.1,4.7v1.4h-13.6c0,1.6.6,2.8,1.6,3.7s2.2,1.4,3.7,1.4,2.4-.3,3.2-.9c.7-.6,1.3-1.3,1.6-2.2l3.1,1.6c-.3.7-.8,1.4-1.5,2.1-.6.7-1.5,1.4-2.5,1.9-1,.5-2.4.8-4,.8ZM2367.7,196.5h9.8c0-1.3-.6-2.4-1.4-3.1-.9-.8-2-1.1-3.4-1.1s-2.5.4-3.4,1.1c-.9.8-1.4,1.8-1.6,3.1Z"/>
      <path class="cls-4" d="M2387.6,187c-.7,0-1.3-.2-1.8-.7-.5-.5-.7-1.1-.7-1.8s.2-1.4.7-1.8c.5-.5,1.1-.7,1.8-.7s1.4.2,1.8.7.7,1.1.7,1.8-.2,1.3-.7,1.8c-.5.5-1.1.7-1.8.7ZM2385.8,207.2v-17.7h3.7v17.7h-3.7Z"/>
      <path class="cls-4" d="M2394.2,207.2v-4.5l10.5-9.6v-.5h-10.1v-3.1h14.1v4.6l-10.5,9.6v.5h10.8v3.1h-14.8Z"/>
      <path class="cls-4" d="M2421.8,207.7c-1.8,0-3.4-.4-4.7-1.1s-2.4-1.8-3.1-3.2c-.8-1.4-1.1-3-1.1-4.8v-.4c0-1.8.4-3.5,1.1-4.8.7-1.4,1.8-2.4,3.1-3.2s2.9-1.1,4.6-1.1,3.2.4,4.5,1.1c1.3.8,2.3,1.8,3,3.2.7,1.3,1.1,2.9,1.1,4.7v1.4h-13.6c0,1.6.6,2.8,1.6,3.7s2.2,1.4,3.7,1.4,2.4-.3,3.2-.9c.7-.6,1.3-1.3,1.6-2.2l3.1,1.6c-.3.7-.8,1.4-1.5,2.1-.6.7-1.5,1.4-2.5,1.9-1,.5-2.4.8-4,.8ZM2416.6,196.5h9.8c0-1.3-.6-2.4-1.4-3.1-.9-.8-2-1.1-3.4-1.1s-2.5.4-3.4,1.1c-.9.8-1.4,1.8-1.6,3.1Z"/>
      <path class="cls-4" d="M2434.7,207.2v-17.7h3.6v2.1h.6c.3-.7.7-1.3,1.4-1.6.6-.3,1.4-.5,2.4-.5h2.1v3.3h-2.3c-1.2,0-2.2.3-3,1-.8.7-1.2,1.7-1.2,3v10.4h-3.7Z"/>
      <path class="cls-4" d="M2450.5,187c-.7,0-1.3-.2-1.8-.7-.5-.5-.7-1.1-.7-1.8s.2-1.4.7-1.8c.5-.5,1.1-.7,1.8-.7s1.4.2,1.8.7.7,1.1.7,1.8-.2,1.3-.7,1.8c-.5.5-1.1.7-1.8.7ZM2448.6,207.2v-17.7h3.7v17.7h-3.7Z"/>
      <path class="cls-4" d="M2465.1,207.7c-2.3,0-4.1-.5-5.6-1.5-1.5-1-2.4-2.5-2.7-4.6l3.5-.8c.2,1,.5,1.8,1,2.3.5.6,1,1,1.7,1.2s1.4.4,2.2.4c1.2,0,2.1-.2,2.7-.7.6-.5,1-1,1-1.8s-.3-1.2-.9-1.6c-.6-.3-1.5-.6-2.7-.8l-1.2-.2c-1.2-.2-2.3-.5-3.3-.9-1-.4-1.8-1-2.3-1.7-.6-.7-.9-1.6-.9-2.8,0-1.7.6-3,1.9-3.9,1.2-.9,2.9-1.4,5-1.4s3.6.5,4.9,1.3c1.3.9,2.1,2.1,2.5,3.7l-3.5,1c-.2-1.1-.7-1.8-1.4-2.3-.7-.4-1.6-.7-2.6-.7s-1.8.2-2.4.6-.9.9-.9,1.6.3,1.2.8,1.6c.6.3,1.3.6,2.3.8l1.3.2c1.3.2,2.4.5,3.5.9,1.1.4,1.9.9,2.5,1.7s.9,1.7.9,2.9c0,1.8-.7,3.2-2,4.1-1.3,1-3.1,1.5-5.3,1.5Z"/>
      <path class="cls-4" d="M2485,207.7c-1.7,0-3.2-.4-4.6-1.1-1.4-.7-2.5-1.8-3.3-3.1-.8-1.4-1.2-3-1.2-4.9v-.5c0-1.9.4-3.6,1.2-4.9.8-1.4,1.9-2.4,3.3-3.1,1.4-.7,2.9-1.1,4.6-1.1s3.2.3,4.4.9c1.2.6,2.2,1.5,2.9,2.5.7,1,1.2,2.2,1.4,3.4l-3.6.8c-.1-.8-.4-1.5-.8-2.2-.4-.6-.9-1.2-1.6-1.5-.7-.4-1.6-.6-2.6-.6s-2,.2-2.8.7c-.8.5-1.5,1.1-2,2s-.7,1.9-.7,3.2v.3c0,1.2.2,2.3.7,3.2s1.1,1.6,2,2c.8.5,1.8.7,2.8.7,1.6,0,2.7-.4,3.6-1.2.8-.8,1.3-1.8,1.5-3.1l3.6.8c-.3,1.2-.8,2.4-1.5,3.4-.7,1-1.7,1.9-2.9,2.5-1.2.6-2.7.9-4.4.9Z"/>
      <path class="cls-4" d="M2498,207.2v-25.2h3.7v10h.6c.2-.5.6-.9,1-1.3.4-.4,1-.8,1.8-1.1.7-.3,1.7-.4,2.8-.4s2.5.3,3.6.9,1.9,1.4,2.5,2.5c.6,1.1.9,2.4.9,3.9v10.7h-3.7v-10.4c0-1.5-.4-2.7-1.2-3.4-.8-.7-1.8-1.1-3.2-1.1s-2.8.5-3.7,1.5c-.9,1-1.4,2.5-1.4,4.4v9h-3.7Z"/>
      <path class="cls-4" d="M2528.3,207.7c-1.8,0-3.4-.4-4.7-1.1s-2.4-1.8-3.1-3.2c-.8-1.4-1.1-3-1.1-4.8v-.4c0-1.8.4-3.5,1.1-4.8.7-1.4,1.8-2.4,3.1-3.2s2.9-1.1,4.6-1.1,3.2.4,4.5,1.1c1.3.8,2.3,1.8,3,3.2.7,1.3,1.1,2.9,1.1,4.7v1.4h-13.6c0,1.6.6,2.8,1.6,3.7s2.2,1.4,3.7,1.4,2.4-.3,3.2-.9c.7-.6,1.3-1.3,1.6-2.2l3.1,1.6c-.3.7-.8,1.4-1.5,2.1-.6.7-1.5,1.4-2.5,1.9-1,.5-2.4.8-4,.8ZM2523.1,196.5h9.8c0-1.3-.6-2.4-1.4-3.1-.9-.8-2-1.1-3.4-1.1s-2.5.4-3.4,1.1c-.9.8-1.4,1.8-1.6,3.1Z"/>
      <path class="cls-4" d="M2541.2,207.2v-17.7h3.6v2.1h.6c.3-.7.7-1.3,1.4-1.6.6-.3,1.4-.5,2.4-.5h2.1v3.3h-2.3c-1.2,0-2.2.3-3,1-.8.7-1.2,1.7-1.2,3v10.4h-3.7Z"/>
      <path class="cls-4" d="M2564.2,207.2v-25.2h7.5l6.8,22.6h.6v-22.6h3.9v25.2h-7.5l-6.8-22.6h-.6v22.6h-3.9Z"/>
      <path class="cls-4" d="M2593.8,207.7c-1.3,0-2.4-.2-3.4-.6-1-.4-1.8-1.1-2.4-1.9-.6-.8-.9-1.9-.9-3.1s.3-2.2.9-3c.6-.8,1.4-1.4,2.4-1.8,1-.4,2.2-.6,3.5-.6h5.4v-1.2c0-1-.3-1.9-.9-2.5-.6-.6-1.6-.9-2.9-.9s-2.2.3-2.9.9c-.7.6-1.1,1.4-1.3,2.3l-3.5-1.1c.3-1,.8-1.8,1.4-2.6.6-.8,1.5-1.4,2.5-1.9,1.1-.5,2.3-.7,3.8-.7,2.3,0,4.1.6,5.4,1.8,1.3,1.2,2,2.8,2,5v7.3c0,.7.3,1.1,1,1.1h1.5v3.1h-2.8c-.8,0-1.5-.2-2.1-.6-.5-.4-.8-1-.8-1.8h0c0-.1-.5-.1-.5-.1-.2.4-.5.8-.9,1.3-.4.5-.9.9-1.7,1.2-.7.3-1.7.5-3,.5ZM2594.4,204.6c1.5,0,2.7-.4,3.6-1.3.9-.9,1.4-2,1.4-3.5v-.4h-5.2c-1,0-1.8.2-2.4.6-.6.4-.9,1-.9,1.9s.3,1.5.9,1.9c.6.5,1.5.7,2.6.7Z"/>
      <path class="cls-4" d="M2615.8,207.2c-1.1,0-1.9-.3-2.6-1-.6-.6-1-1.5-1-2.6v-11.1h-4.9v-3.1h4.9v-5.9h3.7v5.9h5.3v3.1h-5.3v10.4c0,.7.3,1.1,1,1.1h3.7v3.1h-4.9Z"/>
      <path class="cls-4" d="M2627.5,187c-.7,0-1.3-.2-1.8-.7-.5-.5-.7-1.1-.7-1.8s.2-1.4.7-1.8c.5-.5,1.1-.7,1.8-.7s1.4.2,1.8.7.7,1.1.7,1.8-.2,1.3-.7,1.8c-.5.5-1.1.7-1.8.7ZM2625.6,207.2v-17.7h3.7v17.7h-3.7Z"/>
      <path class="cls-4" d="M2643.1,207.7c-1.8,0-3.4-.4-4.7-1.1-1.4-.7-2.5-1.8-3.3-3.2s-1.2-3-1.2-4.9v-.5c0-1.9.4-3.5,1.2-4.8.8-1.4,1.9-2.4,3.3-3.1,1.4-.7,3-1.1,4.7-1.1s3.4.4,4.8,1.1c1.4.7,2.5,1.8,3.3,3.1.8,1.4,1.2,3,1.2,4.8v.5c0,1.9-.4,3.5-1.2,4.9s-1.9,2.4-3.3,3.2c-1.4.7-3,1.1-4.8,1.1ZM2643.1,204.4c1.6,0,3-.5,4-1.6s1.5-2.5,1.5-4.3v-.3c0-1.8-.5-3.3-1.5-4.3-1-1-2.3-1.6-4-1.6s-2.9.5-3.9,1.6-1.5,2.5-1.5,4.3v.3c0,1.8.5,3.3,1.5,4.3s2.3,1.6,3.9,1.6Z"/>
      <path class="cls-4" d="M2656.9,207.2v-17.7h3.6v2.7h.6c.3-.7.9-1.4,1.8-2,.9-.6,2.1-.9,3.9-.9s2.5.3,3.6.9,1.9,1.4,2.5,2.5c.6,1.1.9,2.4.9,3.9v10.7h-3.7v-10.4c0-1.5-.4-2.7-1.2-3.4-.8-.7-1.8-1.1-3.2-1.1s-2.8.5-3.7,1.5c-.9,1-1.4,2.5-1.4,4.4v9h-3.7Z"/>
      <path class="cls-4" d="M2684.6,207.7c-1.3,0-2.4-.2-3.4-.6-1-.4-1.8-1.1-2.4-1.9-.6-.8-.9-1.9-.9-3.1s.3-2.2.9-3c.6-.8,1.4-1.4,2.4-1.8,1-.4,2.2-.6,3.5-.6h5.4v-1.2c0-1-.3-1.9-.9-2.5-.6-.6-1.6-.9-2.9-.9s-2.2.3-2.9.9c-.7.6-1.1,1.4-1.3,2.3l-3.5-1.1c.3-1,.8-1.8,1.4-2.6.6-.8,1.5-1.4,2.5-1.9,1.1-.5,2.3-.7,3.8-.7,2.3,0,4.1.6,5.4,1.8,1.3,1.2,2,2.8,2,5v7.3c0,.7.3,1.1,1,1.1h1.5v3.1h-2.8c-.8,0-1.5-.2-2.1-.6-.5-.4-.8-1-.8-1.8h0c0-.1-.5-.1-.5-.1-.2.4-.5.8-.9,1.3-.4.5-.9.9-1.7,1.2-.7.3-1.7.5-3,.5ZM2685.1,204.6c1.5,0,2.7-.4,3.6-1.3.9-.9,1.4-2,1.4-3.5v-.4h-5.2c-1,0-1.8.2-2.4.6-.6.4-.9,1-.9,1.9s.3,1.5.9,1.9c.6.5,1.5.7,2.6.7Z"/>
      <path class="cls-4" d="M2699.8,207.2v-25.2h3.7v25.2h-3.7Z"/>
      <path class="cls-4" d="M2709.1,214.4v-24.9h3.6v2.6h.6c.5-.8,1.1-1.5,2.1-2.1.9-.6,2.2-.9,4-.9s2.8.4,4.1,1.1c1.2.7,2.2,1.8,3,3.1.8,1.4,1.1,3,1.1,4.9v.5c0,1.9-.4,3.6-1.1,4.9-.7,1.4-1.7,2.4-3,3.1-1.2.7-2.6,1.1-4.1,1.1s-2.1-.1-2.9-.4-1.4-.7-1.9-1.1c-.5-.4-.9-.9-1.2-1.4h-.6v9.6h-3.7ZM2718.2,204.5c1.6,0,3-.5,4-1.5,1-1,1.5-2.5,1.5-4.4v-.3c0-1.9-.5-3.4-1.6-4.4s-2.4-1.5-4-1.5-2.9.5-3.9,1.5-1.6,2.5-1.6,4.4v.3c0,1.9.5,3.4,1.6,4.4,1,1,2.4,1.5,3.9,1.5Z"/>
      <path class="cls-4" d="M2737.6,207.7c-1.3,0-2.4-.2-3.4-.6-1-.4-1.8-1.1-2.4-1.9-.6-.8-.9-1.9-.9-3.1s.3-2.2.9-3c.6-.8,1.4-1.4,2.4-1.8,1-.4,2.2-.6,3.5-.6h5.4v-1.2c0-1-.3-1.9-.9-2.5-.6-.6-1.6-.9-2.9-.9s-2.2.3-2.9.9c-.7.6-1.1,1.4-1.3,2.3l-3.5-1.1c.3-1,.8-1.8,1.4-2.6.6-.8,1.5-1.4,2.5-1.9,1.1-.5,2.3-.7,3.8-.7,2.3,0,4.1.6,5.4,1.8,1.3,1.2,2,2.8,2,5v7.3c0,.7.3,1.1,1,1.1h1.5v3.1h-2.8c-.8,0-1.5-.2-2.1-.6-.5-.4-.8-1-.8-1.8h0c0-.1-.5-.1-.5-.1-.2.4-.5.8-.9,1.3-.4.5-.9.9-1.7,1.2-.7.3-1.7.5-3,.5ZM2738.2,204.6c1.5,0,2.7-.4,3.6-1.3.9-.9,1.4-2,1.4-3.5v-.4h-5.2c-1,0-1.8.2-2.4.6-.6.4-.9,1-.9,1.9s.3,1.5.9,1.9c.6.5,1.5.7,2.6.7Z"/>
      <path class="cls-4" d="M2752.9,207.2v-17.7h3.6v2.1h.6c.3-.7.7-1.3,1.4-1.6.6-.3,1.4-.5,2.4-.5h2.1v3.3h-2.3c-1.2,0-2.2.3-3,1-.8.7-1.2,1.7-1.2,3v10.4h-3.7Z"/>
      <path class="cls-4" d="M2766.8,207.2v-25.2h3.7v14.4h.6l7-6.9h4.9l-9,8.6,9.3,9.1h-4.9l-7.3-7.4h-.6v7.4h-3.7Z"/>
    </g>
    <line class="cls-2" x1="2268.1" y1="366" x2="2268.1" y2="217.2"/>
  </g>
</svg>