<?xml version="1.0" encoding="UTF-8"?>
<svg xmlns="http://www.w3.org/2000/svg" version="1.1" viewBox="0 0 3840 2160">
  <defs>
    <style>
      .cls-1 {
        stroke-width: 2.8px;
      }

      .cls-1, .cls-2 {
        fill: none;
        stroke: #fff;
        stroke-miterlimit: 10;
      }

      .cls-2 {
        stroke-dasharray: 0 0 5 5;
        stroke-width: 4.5px;
      }

      .cls-3 {
        fill: #dbe17a;
        opacity: .5;
      }

      .cls-3, .cls-4 {
        stroke-width: 0px;
      }

      .cls-4 {
        fill: #fff;
      }

      .cls-5 {
        opacity: .3;
      }
    </style>
  </defs>
  <g id="fläche" class="cls-5">
    <path class="cls-3" d="M1762.4,457.3c-2.8,1-12.6,13.6-12.3,19.9.3,6.4-2,15.4,2.3,20.6s10.3-20.8,10.4-24.1,2.4-17.4-.4-16.4Z"/>
    <path class="cls-3" d="M1909.6,1016.7c-1.2.2,4.9,25,0,29.4s-16.2,3.8-21.1,4.8c-4.9,1,25.7,15.1,36.9,26.7,11.2,11.6,29.3,32.8,31.6,43.8,2.3,10.9,21.8,17.8,23.7,10.9,2-6.8,4.3-22.9-3.3-41.7-7.6-18.8-30.7-61.6-36.9-69.1-6.3-7.5-24.4-6.8-31-4.8Z"/>
    <path class="cls-3" d="M2862.3,1488.5c-27.9-8.7-80.2-24.3-93.2-21.8-13,2.5-97.5,2.2-112.7,4.7-15.2,2.5-23.8,1.9-37.2,7.8,0,0,0,0,0,0-5.6,2.4-13,6.3-23.7,9.6-34.1,10.5-72.2,28.3-108.4,25-36.2-3.3-89.7-28.3-102.7-45.5-13-17.2-5.3-48.9,19.6-63.3,25-14.5,100.3-22.9,147-11.3,46.8,11.6,59.2,12.2,71.3,3.8,12.1-8.4.6-23.1-12.8-29.3-13.5-6.1-55-25.7-86.1-27.1-31.1-1.5-108.3,1.3-132.2,12.4-23.9,11.1-73.4,55.3-77.2,71.1-3.9,15.8-14.3,15.6-22.1,23.5-7.8,7.9,14.6,42.1,17.9,59.8,4.2,22.1,14.9,33.7,30,62.1,15.1,28.4,20.2,52.1,33.9,68.2,13.7,16,46.4,37.9,71.6,50.3,25.3,12.4,89.4,40.7,127.6,46.7,38.2,5.9,81.6,7,103.5-7.1,22-14.1,37.8-31.3,55.5-14.5,17.7,16.8,23.6,25.5,35.3,34.5,11.7,8.9,31-6.6,14.3-35.7-16.6-29.1-29.8-50.4-57.2-69-27.4-18.6-21.8-52.5,4.7-55.4,26.5-3,59.5-24.4,31.2-31.6-28.4-7.2-103.8,2.1-116.8-46.4-3.6-13.5-6.3-22-9.1-26.8,13.1-3.1,29.4-5.4,43.6-6.2,19.1-1,56.9-1.6,71.3,3.4,14.4,5,17.7,25.9,36.9,40.1,19.2,14.3,12.7,11.6,29.4,17.8,16.7,6.2,52.6,7.7,59.1-6.8,6.5-14.5,15.3-34-12.6-42.6Z"/>
    <path class="cls-3" d="M1784.3,540c-.2-2.3,21.1-.5,26.3,7.9,5.2,8.5,10.9,22.7,11.8,30.9.9,8.2,1.3,33.9-1.1,34.6-2.5.7-8.6-36-16.2-49.9s-20.3-16.7-20.8-23.5Z"/>
    <path class="cls-3" d="M3332.4,1055.3c-3.1-.7-7.6-2.3-4.7-5.1,9.7-9.6,1.3-18.3,0-27.3-1.9-11.9-10.3-21.2-13.4-32.7-1.5-5.7-21-11.7-25-7.8-2.5,2.5-1.7,5.6-.6,8.4,2.5,6.9-.8,13.1-6.1,15.1-6.4,2.3-15.8,4.3-20.6-1.4-4-4.7-7.1-3.2-10.9-3.2-10,.2-16.9-8.4-13.8-17.6,5.2-15.3,9.6-30.3,7.4-47-2.4-19.1,6.1-38.4,1.5-57.4-4.3-17.8.6-32.9,12.2-45,7.4-7.8,15.1-15.4,22.4-23.3,2.5-2.7,4.8-4.8,5.8-8.6,3-12,11.1-19,22.8-22.1,11.6-3,15.1-10.1,6.6-15.9-8.6-6-8.3-14-8.8-21.5-.9-11.1-3.3-21.7-5.5-32.4-1.5-7.2-2.2-14.5.4-21.7,3.9-10.8,8.7-12.5,20.4-5.8-4.1-10.5-4.2-20.9-11.6-28.8-1.6-1.6-3-3.7-3.6-5.9-1.1-3.9-1.5-8.2,3-10.5,4-2.1,8.8-1.6,10.7,2.2,6.7,12.9,16.4,23.8,23.6,36.5,8.8,15.5,12.7,32.6,21.3,48.1,3.6,6.5,7.3,15.8,5.3,25.3-1.7,8-.3,16.2,3.7,23.9,8.9,17.1,12.8,37.1,29.4,49.7,5.5,4.2,10.6,9,16.1,13.3,12.5,10,22.5,22.3,32.8,34.3,2.4,2.8,5.4,4.4,8.7,2.4,3.6-2.2,1.5-5.7.2-8-4.1-7.4-2.5-18.3-8.4-23-6-4.7-6.9-10.2-7.2-15.4-.7-11-3.2-20.2-11.1-28.6-4.6-4.9-3.7-12.9-2.3-19.3,2-8.8-2-14-8.5-18.2-6.9-4.6-10-11.4-11.6-19-1.5-6.6-7-9.2-10.8-13.5-7.6-8.7-17.1-8.5-26.3-11.2-1.7-.5-3.4-2.3-4.4-3.9-4.5-7.4-9.8-14.1-14.8-21.1-5.1-7.1-6.1-15.5-5.7-24.6.5-12.5.8-25,3.9-37.1.7-2.8,1.5-6.7,3.6-8,8.5-5.1,5-11.5,2.7-17.8-3.7-10.6-11-19.8-12.8-31.2-2.4-15.4-9.2-29.6-12.9-44.6-.8-3,.2-4.8,2.2-7.1,5.3-6,2.9-9.6-4.2-11-9.1-1.7-18.2-3.5-27.4-4.5-4.4-.5-7.6-1.8-7.2-6.2.9-11.4-6.7-15.6-15.1-19.5-3-1.4-5.8-3.2-8.7-4.9-2.1-1.2-4.1-2.5-3.8-5.3.3-2.9,2.5-3.5,5-4,1.5-.3,4.3-1.4,4.3-1.6-2.9-13.5,12.2-13.3,16.7-21.4,2.5-4.5,4.2-6.1-.9-8.9-10-5.5-19.3-11.7-23.1-23.6-.9-2.9-3.5-6.3-7.6-5-4.1,1.4-7.9,4.1-9.3,8.3-1.1,3.3-1.6,7.2,2,10,2.7,2.1,7.8,3.3,6.1,7.8-1.8,4.7-6.9,3.2-10.7,3-6.1-.4-11.1,1.3-15.3,5.6-10.4,10.5-25,15.8-33.9,28.5-6.1,8.7-4.9,20-12,28.1-1.6,1.9,1.2,4.1,3.4,5.2,3,1.5,5.9,3,8.9,4.4,4.2,2,9.7,3.7,9.3,9.1-.3,4.7-5.8,6.3-9.6,7.5-5.6,1.8-7.8,4.9-10.5,10.4-5.6,11.4-14.1,21.4-19.2,33.4-2,4.7-6.1,4-10,1.3-15.9-11.1-30.1-5.1-34.7,14.6-2.9,12.3-5.6,14.2-18,11.2-7.1-1.7-14.7-.4-21.4-4.2-1.2-.7-3.7-.5-4.8.4-9.7,7.4-22.5,7.3-32.4,14.6-9.4,7-10.8,12.9-3.5,22,4.2,5.1,10.7,9.9-.9,15.7-5.1,2.6-9.4,9-13.7,13.9-3.9,4.5-7.5,7.3-13.6,5.4-4.6-1.4-5.5.7-4.1,4.6,1.2,3.4,2.7,6.8,3.9,10.2,2.2,6.4-.9,10.4-7.6,9.6-7.6-.9-13.7-4-17.8-11-4.7-8-10.1-15.6-15.1-23.4-4.8-7.3-11.7-9.7-19.8-7.8-5.3,1.2-10.6.8-15.9,1-4.2.2-6.3,1.6-4.2,6.3,5,10.9,3.7,14.9-7.3,17.6-7.6,1.9-15.5,2.5-22.6-3.4-7.7-6.5-16.2-1.4-23.9.3-10.2,2.3-14,1-16.2-9.5-.7-3.5-1.3-6.4-5.6-7-6.8-.9-4.5-5.4-2.9-8.9,6.6-14.8.2-31.1-14.3-37.6-7.4-3.3-12.9-.5-18.3,3.6-3.8,2.9-7.1,3.5-7.9-2-.7-5.2-5.3-7.7-6.8-12.7-2.2-7.3-12-6.8-16,0-2,3.4-5.2,6.9-5.4,10.5-.6,11.5-10.1,13.9-17.5,17.3-7.5,3.4-8.4-3.4-8.9-9-.3-3.3,1.7-8.9-3.7-8.5-4.2.3-9.2,3.7-9.5,8.8-.6,11.7-10.2,15.2-18,17.8-9.9,3.3-18.5,8.8-27.6,13.2-3.3,1.6-7.2,4.3-6.5,10.1,1.4,11.6-3.2,15.9-15,14.8-5-.4-9.9-1.6-14.8-1.6-4,0-10.5-2.3-11.5,2.7-1.3,6.4-5.7,13.3-.9,20,3.6,5.1,9.6,11.2,2.5,15.9-7.5,5-10.5-3.6-13.6-8.8-1.9-3.1-3.5-6.7-6.9-8.3-4.3-2-7.1-8.7-13.9.4-3.9,5.2-9,7.6-7.2,15.3.6,2.5-1.9,4.2-4.6,4-4.1-.3-6.9-2.2-7.4-6.6-.7-6,2.4-11,4.8-16,1.1-2.3,3.6-4,2.5-7.7-2.9,5.4-6.7,8.3-12.7,9.3-6.3,1-10.2,5.3-9.6,12.9.7,8.4,0,16.3-7.8,22.4-3.5,2.8-4.8,7.9-5.7,12.5-.9,4.8-.5,8.8,5.9,9,1.3,0,2.8.1,3.9.8,3.6,2.1,9.2,3.6,8.6,8.4-.7,5.4-6.4,3.5-10,3.4-6.9-.3-10.2,2-11.2,9.3-1.9,14.9-23.8,33-38.5,32.8-3.2,0-6.2-.8-7.4-4-1.5-3.8,0-7.6,2.8-10,4.3-3.6,9-6.8,13.8-9.7,10.4-6.4,17-13.4,14.3-27.9-2.2-11.9,7.2-22.2,12-33,1.2-2.7,3.8-5.1,4.1-7.8,1.7-13.3,7.4-24.3,17.3-33.3,2.7-2.5,3.2-6.6.7-9.1-4.4-4.4-6-8.3-1.5-13.4.4-.4,0-2.4-.3-2.5-1.2-.3-3-.6-3.6,0-6.3,6.5-15.6,8.9-20.2,18.1-3.8,7.6-10.5,13.8-20,14.9-3.9.4-5.6,3.5-7.3,6.3-4.1,6.8-5.4,15-11.1,21.1-.9.9-1,3.8-.3,4.7,5.1,6.2,3.4,13.6,4.4,20.6.6,4.4,0,7.3-4.2,8.6-4.4,1.3-9.6,1.6-11.2-3.4-3.5-10.9-11.3-19.5-14.8-30.3-1.2-3.6-2.7-6.9-5.5-9.4-4.4-4-9-10.3-13.9-10.7-6.3-.4-5.4,8.3-7.8,13-3.4,6.8-9.8,7.7-13.8,2.9-8.2-9.9-21.2-12.6-29.6-21.9-2.6-2.8-6.7-4.2-7.5-8.6-.3-1.8-1.4-3.1-3.3-3.2-19.3-1.5-38.5-5.5-58.1-3.8-5,.4-8.4,6.3-13.9,3.8-6.5-2.9-12-7-10.3-15.1,1.5-6.9,6.1-12.4,13.5-12.2,7.3.2,9.7-2.9,9.9-9.2.1-2.4-.4-4.9-2.7-6.1-3-1.6-3.7,1.7-5.5,2.9-10.5,7.1-18.8,15.8-25.1,27.1-3.5,6.4-10.6,5.5-14.6-.3-6.9-10.3-22.9-14.2-33.4-7.9-4.7,2.9-8,4-8.6-3.2-.2-2.4-.4-4.8-3.5-5.2-1.8-.2-3.3.6-4.2,2.1-1.5,2.7-1.1,5.2,1.3,7.1,2.1,1.6,6.7,2.5,2.2,6.1-3.5,2.8-7.5,2.7-10.6-1-5-5.8-5.3-13.1-6.9-20.2,0,3.3.5,6.6,0,9.8-1.3,7-2.8,7.5-8.3,3-2.3-1.9-3.6-1.3-4.5.8-1.3,3.1-3.5,3.9-6.4,2.8-3.2-1.2-3-4.2-2.8-6.8.4-5.8.8-11.4-1.6-17.2-2-4.8-.1-10.8,4.8-12.9,9.8-4.2,15-14,24.5-18.5,3.2-1.5,4-4.9,4.7-8.4,1.4-6.5,5.9-11.4,12.1-11.4,7.1,0,6.5,7.5,7.6,12.3,1.5,6.4,1,13.2,2.5,19.7,2.6,11.3,9.7,18.9,19.3,19.2,9.5.3,17.3-8.3,20.3-19.6,2.3-8.8-2.2-17.3.1-25.7,3.3-12-.2-22-4.3-33.6-3-8.6-1.7-21.4-1.7-32.4,0-5.9,5.4-4.3,9.3-3.1,3.7,1.1,8,2.4,7.7-3.6-.2-4.4,5.7-10.3-3.2-13.2-5.9-1.9-14.5-3.7-7.1-13.4,2.1-2.8-1-4.4-2.8-5.4-6.8-3.9-13.6-7.8-20.7-10.9-2.9-1.3-5.6-2-6.3-5.4-2.6-12.7-11.9-13.8-22.3-13.1-5.9.4-10.8-.2-11.4-7.7-.1-1.7-.8-3.5-2.9-3.5-2.3,0-2.1,2-2.3,3.6-.6,7.6-6,5.9-10.4,4.8-20.1-4.6-39.7-11.9-61.1-7.6-13.9,2.8-27.3-3.8-40.6-7-5.5-1.3-10.9-7.5-16.3-11.5-6.9-5-15.6-7.4-21.3-14-2.5-2.8-4.4-.9-7-.3-11.9,2.9-22.6,8.5-33.3,14.1,2.9,1.5,6.1,3.1,9.9,4.8-10.3,5.2-19.7,11-22.5,15.6,0,0,1.2,12.7,14,21.4,12.9,8.7,61.9,25,79,27.2s63.8,12.1,76.4,21.9,8,21.5,1.9,27.7-18.8,46.6-13.9,62.3,12.2,45,24.5,61c12.4,16,25.4,112.7,47.8,150.8,22.3,38.1,60.3,86.3,60.6,106.5s-9.2,50.3,2.4,75.1c11.6,24.7,75.8,65.6,102.8,82.7,27,17.1,55.8,78.3,105.5,112.8,49.7,34.5,71.5,87.9,137.9,114.4,66.4,26.5,141.3,47,188.1,43.6,46.7-3.4,158-23.2,195-42.1,37-18.9,150-75.9,265.8-219.3,3.3-4.1,3.4-11.1,2.1-19.3-3.1-4.9-8.1-8.6-14.2-9.9Z"/>
    <path class="cls-3" d="M2605.9,566.1c-7.4,4.3-14.5,2.4-21-.2-13-5.2-24.7-2.4-37.5,1.4-10.1,3-17.7,11.1-27.7,12.7-13.4,2.1-22.2,13.7-35.4,15.7-1.8.3-3.3,3-4.7,4.8-2.2,2.7-4.7,4.9-8.3,4.8-8.2-.3-8.3,4.9-7.3,10.7.8,4.3,1.7,8.3.2,12.7-3.5,10-.1,15.6,10.9,19.4-.9-16.9,5.2-32.9,25.4-42.4,8.9-4.2,18.1-8,26.8-12.8,17.8-9.9,36.1-19.8,58.3-13.1,7.7,2.3,16.5,1.6,24.6-1,5-1.6,9-4.5,6.8-10-2-5.2-7.6-4.8-11.2-2.7Z"/>
    <path class="cls-3" d="M3385.6,1030.8c-3-4-5.3-7.6-8.1-10.8-14.4-16.4-34-27.8-45.6-46.9-1.3-2.1-4.3-4-6.7-2.4-2.6,1.7,0,4,.9,6.1,1,2.8,2,5.7,2.1,8.6.4,8.2,3.4,13.7,10.5,18.9,4.9,3.5,11.1,6.7,14.1,13.2,5.5,11.8,14.3,22,17.3,35,.3,1.1.5,2.2.7,3.4.5,3.2,3.9,6.1,6,9.1.9,1.3,1.8,3,3.9,2.2,1.9-.8,1.9-2.6,1.8-4.3-.5-4.8-2.6-9.8-3.5-14.7-1.2-6.1-.7-12,6.7-17.3Z"/>
    <path class="cls-3" d="M3003.9,552.4c-1.8.7-3.4,2.1-5.8,1.3-4.9-3.2-5.5.9-7.3,4.2-2.2,4-8.1-.6-10.4,3.7-.7,1.3-.7,3.3-.3,4.8,2.3,9.9,11.3,17,19.8,15.8,5.2-.7,16.7-15.3,16.7-21.1,0-8.8-4.3-11.9-12.8-8.8Z"/>
    <path class="cls-3" d="M2647.5,483.8c-7.2,2-10.5-9.1-18.3-5.1-1.3.6-1.9-1.9-1.8-3.8.4-3.7,1.7-6.7,6.3-8.2-3.5-2.6-4.7-1.1-6.2-.5-6.7,2.6-8.2,9-11.1,14.5-.8,1.5-5.5,1-3,4.3,1.6,2.2,4.4,1,6-.8,1.6-1.8,3.1-4.2,5.2-1,5.7,8.6,15.5,3.1,22.7,6.6,1.4.7,3.4-.8,3.7-2.5.6-2.7-1.8-4-3.6-3.5Z"/>
    <path class="cls-3" d="M2797.3,551.1c-2.9-2.4-5.5-1.3-7.9,1.1-6,5.9-6.7,1.8-7.1-3.6-.3-4.2,1.7-9.5-2.4-12.1-5.7-3.6-7.4-8.7-8.8-14.7-1.2-5.1-5.3-9.5-9.7-10.6-4.7-1.2-6.3,5.1-8.5,8.4-5.3,8-8.3,19.7-5,26.3,4.4,8.8,14.6,16.8,26,17.4,8,.4,11.9.8,7.7,9.8.3,1.5.2,3.6,1.1,4.5,1.2,1.2,3.2.3,4.5-.8,3.3-3.1,7.5-3.9,11.8-4.9,2.9-.6,6.5-1.9,6.4-5.3-.3-6.1-3.2-11.4-8-15.4Z"/>
    <path class="cls-3" d="M2483.7,411.5c-6.3,4.2-11.3,4.5-10.7-1.9s1.5-9.9,4.9-7.5c3.4,2.4,2.9,1.9,6.9-2.4,4-4.3,6.3-5.2,8.2-5.8s2.1-4.7-2.3-4-11,1.5-19.6,1.7-17.1.5-22.7-.7-2.2-2.8,2.7-6.1c4.9-3.3,6-5.9,7.7-8.2,1.6-2.3,4-2.7,10.5,2.5,6.6,5.2,5.1,2.1,2.1-1.4-3-3.5-1.5-8.5,4.5-3.2,6,5.3,9.9,8.7,10.7,9.2s6.2-2,3.5-5.2c-2.7-3.2-5.6-4.9-9-4.8s-7.8-3.6-1.3-5.2c6.5-1.5,8.8-3.6,11.2-5.5s3.8.7,6.3,1.7,4.9-2.1,7.1-3.9,4.9-2.7,8.6,0c3.8,2.7,3.2,4-.7,6.4s-5.7,5.1-6.3,6.6.8,2.4,5.1.6c4.3-1.8,6.6-3.5,10.5.4,3.9,3.8,5.8,5.5,9.2,7.2s3.8,6,4.7,8.3c.9,2.3,6.3,3.8,5.2,9.2s-1.4,10.2-10.5,8-15.4-1.2-16.3-7.2c-.9-6-2.6-11,1.2-13.8,3.8-2.8,4.2-2.6,4-4.7-.2-2.1-5-4-8.6,1.8-3.6,5.7-6.8,10.5-8.7,13.3-1.9,2.8-5.3,5.6-8.9,8.5s-6,4-9.1,6.1Z"/>
    <path class="cls-3" d="M3026.3,596.5c0,.2,0,.4.1.6.7,4.2,1.3,8.4,6.3,6.2s8.3-3.2,10.8-5.2,3.7-4.4-1.3-7.5c-5-3.1-13.3-3.2-14.6-1-1.3,2.2-2.2,4.3-1.3,7Z"/>
    <path class="cls-3" d="M3024.4,544.8c-2,3.3-4.1,6.3,1.3,5.8,5.4-.4,10.7,2.1,11.6.7s.4-8.4-.4-10.6-4.9-1.2-5.4,1.1c-.5,2.3-6.2,1.4-7.1,3Z"/>
  </g>
  <g id="kontur">
    <path class="cls-2" d="M1762.4,457.3c-2.8,1-12.6,13.6-12.3,19.9.3,6.4-2,15.4,2.3,20.6s10.3-20.8,10.4-24.1,2.4-17.4-.4-16.4Z"/>
    <path class="cls-2" d="M1909.6,1016.7c-1.2.2,4.9,25,0,29.4s-16.2,3.8-21.1,4.8c-4.9,1,25.7,15.1,36.9,26.7,11.2,11.6,29.3,32.8,31.6,43.8,2.3,10.9,21.8,17.8,23.7,10.9,2-6.8,4.3-22.9-3.3-41.7-7.6-18.8-30.7-61.6-36.9-69.1-6.3-7.5-24.4-6.8-31-4.8Z"/>
    <path class="cls-2" d="M2862.3,1488.5c-27.9-8.7-80.2-24.3-93.2-21.8-13,2.5-97.5,2.2-112.7,4.7-15.2,2.5-23.8,1.9-37.2,7.8,0,0,0,0,0,0-5.6,2.4-13,6.3-23.7,9.6-34.1,10.5-72.2,28.3-108.4,25-36.2-3.3-89.7-28.3-102.7-45.5-13-17.2-5.3-48.9,19.6-63.3,25-14.5,100.3-22.9,147-11.3,46.8,11.6,59.2,12.2,71.3,3.8,12.1-8.4.6-23.1-12.8-29.3-13.5-6.1-55-25.7-86.1-27.1-31.1-1.5-108.3,1.3-132.2,12.4-23.9,11.1-73.4,55.3-77.2,71.1-3.9,15.8-14.3,15.6-22.1,23.5-7.8,7.9,14.6,42.1,17.9,59.8,4.2,22.1,14.9,33.7,30,62.1,15.1,28.4,20.2,52.1,33.9,68.2,13.7,16,46.4,37.9,71.6,50.3,25.3,12.4,89.4,40.7,127.6,46.7,38.2,5.9,81.6,7,103.5-7.1,22-14.1,37.8-31.3,55.5-14.5,17.7,16.8,23.6,25.5,35.3,34.5,11.7,8.9,31-6.6,14.3-35.7-16.6-29.1-29.8-50.4-57.2-69-27.4-18.6-21.8-52.5,4.7-55.4,26.5-3,59.5-24.4,31.2-31.6-28.4-7.2-103.8,2.1-116.8-46.4-3.6-13.5-6.3-22-9.1-26.8,13.1-3.1,29.4-5.4,43.6-6.2,19.1-1,56.9-1.6,71.3,3.4,14.4,5,17.7,25.9,36.9,40.1,19.2,14.3,12.7,11.6,29.4,17.8,16.7,6.2,52.6,7.7,59.1-6.8,6.5-14.5,15.3-34-12.6-42.6Z"/>
    <path class="cls-2" d="M1784.3,540c-.2-2.3,21.1-.5,26.3,7.9,5.2,8.5,10.9,22.7,11.8,30.9.9,8.2,1.3,33.9-1.1,34.6-2.5.7-8.6-36-16.2-49.9s-20.3-16.7-20.8-23.5Z"/>
    <path class="cls-2" d="M3332.4,1055.3c-3.1-.7-7.6-2.3-4.7-5.1,9.7-9.6,1.3-18.3,0-27.3-1.9-11.9-10.3-21.2-13.4-32.7-1.5-5.7-21-11.7-25-7.8-2.5,2.5-1.7,5.6-.6,8.4,2.5,6.9-.8,13.1-6.1,15.1-6.4,2.3-15.8,4.3-20.6-1.4-4-4.7-7.1-3.2-10.9-3.2-10,.2-16.9-8.4-13.8-17.6,5.2-15.3,9.6-30.3,7.4-47-2.4-19.1,6.1-38.4,1.5-57.4-4.3-17.8.6-32.9,12.2-45,7.4-7.8,15.1-15.4,22.4-23.3,2.5-2.7,4.8-4.8,5.8-8.6,3-12,11.1-19,22.8-22.1,11.6-3,15.1-10.1,6.6-15.9-8.6-6-8.3-14-8.8-21.5-.9-11.1-3.3-21.7-5.5-32.4-1.5-7.2-2.2-14.5.4-21.7,3.9-10.8,8.7-12.5,20.4-5.8-4.1-10.5-4.2-20.9-11.6-28.8-1.6-1.6-3-3.7-3.6-5.9-1.1-3.9-1.5-8.2,3-10.5,4-2.1,8.8-1.6,10.7,2.2,6.7,12.9,16.4,23.8,23.6,36.5,8.8,15.5,12.7,32.6,21.3,48.1,3.6,6.5,7.3,15.8,5.3,25.3-1.7,8-.3,16.2,3.7,23.9,8.9,17.1,12.8,37.1,29.4,49.7,5.5,4.2,10.6,9,16.1,13.3,12.5,10,22.5,22.3,32.8,34.3,2.4,2.8,5.4,4.4,8.7,2.4,3.6-2.2,1.5-5.7.2-8-4.1-7.4-2.5-18.3-8.4-23-6-4.7-6.9-10.2-7.2-15.4-.7-11-3.2-20.2-11.1-28.6-4.6-4.9-3.7-12.9-2.3-19.3,2-8.8-2-14-8.5-18.2-6.9-4.6-10-11.4-11.6-19-1.5-6.6-7-9.2-10.8-13.5-7.6-8.7-17.1-8.5-26.3-11.2-1.7-.5-3.4-2.3-4.4-3.9-4.5-7.4-9.8-14.1-14.8-21.1-5.1-7.1-6.1-15.5-5.7-24.6.5-12.5.8-25,3.9-37.1.7-2.8,1.5-6.7,3.6-8,8.5-5.1,5-11.5,2.7-17.8-3.7-10.6-11-19.8-12.8-31.2-2.4-15.4-9.2-29.6-12.9-44.6-.8-3,.2-4.8,2.2-7.1,5.3-6,2.9-9.6-4.2-11-9.1-1.7-18.2-3.5-27.4-4.5-4.4-.5-7.6-1.8-7.2-6.2.9-11.4-6.7-15.6-15.1-19.5-3-1.4-5.8-3.2-8.7-4.9-2.1-1.2-4.1-2.5-3.8-5.3.3-2.9,2.5-3.5,5-4,1.5-.3,4.3-1.4,4.3-1.6-2.9-13.5,12.2-13.3,16.7-21.4,2.5-4.5,4.2-6.1-.9-8.9-10-5.5-19.3-11.7-23.1-23.6-.9-2.9-3.5-6.3-7.6-5-4.1,1.4-7.9,4.1-9.3,8.3-1.1,3.3-1.6,7.2,2,10,2.7,2.1,7.8,3.3,6.1,7.8-1.8,4.7-6.9,3.2-10.7,3-6.1-.4-11.1,1.3-15.3,5.6-10.4,10.5-25,15.8-33.9,28.5-6.1,8.7-4.9,20-12,28.1-1.6,1.9,1.2,4.1,3.4,5.2,3,1.5,5.9,3,8.9,4.4,4.2,2,9.7,3.7,9.3,9.1-.3,4.7-5.8,6.3-9.6,7.5-5.6,1.8-7.8,4.9-10.5,10.4-5.6,11.4-14.1,21.4-19.2,33.4-2,4.7-6.1,4-10,1.3-15.9-11.1-30.1-5.1-34.7,14.6-2.9,12.3-5.6,14.2-18,11.2-7.1-1.7-14.7-.4-21.4-4.2-1.2-.7-3.7-.5-4.8.4-9.7,7.4-22.5,7.3-32.4,14.6-9.4,7-10.8,12.9-3.5,22,4.2,5.1,10.7,9.9-.9,15.7-5.1,2.6-9.4,9-13.7,13.9-3.9,4.5-7.5,7.3-13.6,5.4-4.6-1.4-5.5.7-4.1,4.6,1.2,3.4,2.7,6.8,3.9,10.2,2.2,6.4-.9,10.4-7.6,9.6-7.6-.9-13.7-4-17.8-11-4.7-8-10.1-15.6-15.1-23.4-4.8-7.3-11.7-9.7-19.8-7.8-5.3,1.2-10.6.8-15.9,1-4.2.2-6.3,1.6-4.2,6.3,5,10.9,3.7,14.9-7.3,17.6-7.6,1.9-15.5,2.5-22.6-3.4-7.7-6.5-16.2-1.4-23.9.3-10.2,2.3-14,1-16.2-9.5-.7-3.5-1.3-6.4-5.6-7-6.8-.9-4.5-5.4-2.9-8.9,6.6-14.8.2-31.1-14.3-37.6-7.4-3.3-12.9-.5-18.3,3.6-3.8,2.9-7.1,3.5-7.9-2-.7-5.2-5.3-7.7-6.8-12.7-2.2-7.3-12-6.8-16,0-2,3.4-5.2,6.9-5.4,10.5-.6,11.5-10.1,13.9-17.5,17.3-7.5,3.4-8.4-3.4-8.9-9-.3-3.3,1.7-8.9-3.7-8.5-4.2.3-9.2,3.7-9.5,8.8-.6,11.7-10.2,15.2-18,17.8-9.9,3.3-18.5,8.8-27.6,13.2-3.3,1.6-7.2,4.3-6.5,10.1,1.4,11.6-3.2,15.9-15,14.8-5-.4-9.9-1.6-14.8-1.6-4,0-10.5-2.3-11.5,2.7-1.3,6.4-5.7,13.3-.9,20,3.6,5.1,9.6,11.2,2.5,15.9-7.5,5-10.5-3.6-13.6-8.8-1.9-3.1-3.5-6.7-6.9-8.3-4.3-2-7.1-8.7-13.9.4-3.9,5.2-9,7.6-7.2,15.3.6,2.5-1.9,4.2-4.6,4-4.1-.3-6.9-2.2-7.4-6.6-.7-6,2.4-11,4.8-16,1.1-2.3,3.6-4,2.5-7.7-2.9,5.4-6.7,8.3-12.7,9.3-6.3,1-10.2,5.3-9.6,12.9.7,8.4,0,16.3-7.8,22.4-3.5,2.8-4.8,7.9-5.7,12.5-.9,4.8-.5,8.8,5.9,9,1.3,0,2.8.1,3.9.8,3.6,2.1,9.2,3.6,8.6,8.4-.7,5.4-6.4,3.5-10,3.4-6.9-.3-10.2,2-11.2,9.3-1.9,14.9-23.8,33-38.5,32.8-3.2,0-6.2-.8-7.4-4-1.5-3.8,0-7.6,2.8-10,4.3-3.6,9-6.8,13.8-9.7,10.4-6.4,17-13.4,14.3-27.9-2.2-11.9,7.2-22.2,12-33,1.2-2.7,3.8-5.1,4.1-7.8,1.7-13.3,7.4-24.3,17.3-33.3,2.7-2.5,3.2-6.6.7-9.1-4.4-4.4-6-8.3-1.5-13.4.4-.4,0-2.4-.3-2.5-1.2-.3-3-.6-3.6,0-6.3,6.5-15.6,8.9-20.2,18.1-3.8,7.6-10.5,13.8-20,14.9-3.9.4-5.6,3.5-7.3,6.3-4.1,6.8-5.4,15-11.1,21.1-.9.9-1,3.8-.3,4.7,5.1,6.2,3.4,13.6,4.4,20.6.6,4.4,0,7.3-4.2,8.6-4.4,1.3-9.6,1.6-11.2-3.4-3.5-10.9-11.3-19.5-14.8-30.3-1.2-3.6-2.7-6.9-5.5-9.4-4.4-4-9-10.3-13.9-10.7-6.3-.4-5.4,8.3-7.8,13-3.4,6.8-9.8,7.7-13.8,2.9-8.2-9.9-21.2-12.6-29.6-21.9-2.6-2.8-6.7-4.2-7.5-8.6-.3-1.8-1.4-3.1-3.3-3.2-19.3-1.5-38.5-5.5-58.1-3.8-5,.4-8.4,6.3-13.9,3.8-6.5-2.9-12-7-10.3-15.1,1.5-6.9,6.1-12.4,13.5-12.2,7.3.2,9.7-2.9,9.9-9.2.1-2.4-.4-4.9-2.7-6.1-3-1.6-3.7,1.7-5.5,2.9-10.5,7.1-18.8,15.8-25.1,27.1-3.5,6.4-10.6,5.5-14.6-.3-6.9-10.3-22.9-14.2-33.4-7.9-4.7,2.9-8,4-8.6-3.2-.2-2.4-.4-4.8-3.5-5.2-1.8-.2-3.3.6-4.2,2.1-1.5,2.7-1.1,5.2,1.3,7.1,2.1,1.6,6.7,2.5,2.2,6.1-3.5,2.8-7.5,2.7-10.6-1-5-5.8-5.3-13.1-6.9-20.2,0,3.3.5,6.6,0,9.8-1.3,7-2.8,7.5-8.3,3-2.3-1.9-3.6-1.3-4.5.8-1.3,3.1-3.5,3.9-6.4,2.8-3.2-1.2-3-4.2-2.8-6.8.4-5.8.8-11.4-1.6-17.2-2-4.8-.1-10.8,4.8-12.9,9.8-4.2,15-14,24.5-18.5,3.2-1.5,4-4.9,4.7-8.4,1.4-6.5,5.9-11.4,12.1-11.4,7.1,0,6.5,7.5,7.6,12.3,1.5,6.4,1,13.2,2.5,19.7,2.6,11.3,9.7,18.9,19.3,19.2,9.5.3,17.3-8.3,20.3-19.6,2.3-8.8-2.2-17.3.1-25.7,3.3-12-.2-22-4.3-33.6-3-8.6-1.7-21.4-1.7-32.4,0-5.9,5.4-4.3,9.3-3.1,3.7,1.1,8,2.4,7.7-3.6-.2-4.4,5.7-10.3-3.2-13.2-5.9-1.9-14.5-3.7-7.1-13.4,2.1-2.8-1-4.4-2.8-5.4-6.8-3.9-13.6-7.8-20.7-10.9-2.9-1.3-5.6-2-6.3-5.4-2.6-12.7-11.9-13.8-22.3-13.1-5.9.4-10.8-.2-11.4-7.7-.1-1.7-.8-3.5-2.9-3.5-2.3,0-2.1,2-2.3,3.6-.6,7.6-6,5.9-10.4,4.8-20.1-4.6-39.7-11.9-61.1-7.6-13.9,2.8-27.3-3.8-40.6-7-5.5-1.3-10.9-7.5-16.3-11.5-6.9-5-15.6-7.4-21.3-14-2.5-2.8-4.4-.9-7-.3-11.9,2.9-22.6,8.5-33.3,14.1,2.9,1.5,6.1,3.1,9.9,4.8-10.3,5.2-19.7,11-22.5,15.6,0,0,1.2,12.7,14,21.4,12.9,8.7,61.9,25,79,27.2s63.8,12.1,76.4,21.9,8,21.5,1.9,27.7-18.8,46.6-13.9,62.3,12.2,45,24.5,61c12.4,16,25.4,112.7,47.8,150.8,22.3,38.1,60.3,86.3,60.6,106.5s-9.2,50.3,2.4,75.1c11.6,24.7,75.8,65.6,102.8,82.7,27,17.1,55.8,78.3,105.5,112.8,49.7,34.5,71.5,87.9,137.9,114.4,66.4,26.5,141.3,47,188.1,43.6,46.7-3.4,158-23.2,195-42.1,37-18.9,150-75.9,265.8-219.3,3.3-4.1,3.4-11.1,2.1-19.3-3.1-4.9-8.1-8.6-14.2-9.9Z"/>
    <path class="cls-2" d="M2605.9,566.1c-7.4,4.3-14.5,2.4-21-.2-13-5.2-24.7-2.4-37.5,1.4-10.1,3-17.7,11.1-27.7,12.7-13.4,2.1-22.2,13.7-35.4,15.7-1.8.3-3.3,3-4.7,4.8-2.2,2.7-4.7,4.9-8.3,4.8-8.2-.3-8.3,4.9-7.3,10.7.8,4.3,1.7,8.3.2,12.7-3.5,10-.1,15.6,10.9,19.4-.9-16.9,5.2-32.9,25.4-42.4,8.9-4.2,18.1-8,26.8-12.8,17.8-9.9,36.1-19.8,58.3-13.1,7.7,2.3,16.5,1.6,24.6-1,5-1.6,9-4.5,6.8-10-2-5.2-7.6-4.8-11.2-2.7Z"/>
    <path class="cls-2" d="M3385.6,1030.8c-3-4-5.3-7.6-8.1-10.8-14.4-16.4-34-27.8-45.6-46.9-1.3-2.1-4.3-4-6.7-2.4-2.6,1.7,0,4,.9,6.1,1,2.8,2,5.7,2.1,8.6.4,8.2,3.4,13.7,10.5,18.9,4.9,3.5,11.1,6.7,14.1,13.2,5.5,11.8,14.3,22,17.3,35,.3,1.1.5,2.2.7,3.4.5,3.2,3.9,6.1,6,9.1.9,1.3,1.8,3,3.9,2.2,1.9-.8,1.9-2.6,1.8-4.3-.5-4.8-2.6-9.8-3.5-14.7-1.2-6.1-.7-12,6.7-17.3Z"/>
    <path class="cls-2" d="M3003.9,552.4c-1.8.7-3.4,2.1-5.8,1.3-4.9-3.2-5.5.9-7.3,4.2-2.2,4-8.1-.6-10.4,3.7-.7,1.3-.7,3.3-.3,4.8,2.3,9.9,11.3,17,19.8,15.8,5.2-.7,16.7-15.3,16.7-21.1,0-8.8-4.3-11.9-12.8-8.8Z"/>
    <path class="cls-2" d="M2647.5,483.8c-7.2,2-10.5-9.1-18.3-5.1-1.3.6-1.9-1.9-1.8-3.8.4-3.7,1.7-6.7,6.3-8.2-3.5-2.6-4.7-1.1-6.2-.5-6.7,2.6-8.2,9-11.1,14.5-.8,1.5-5.5,1-3,4.3,1.6,2.2,4.4,1,6-.8,1.6-1.8,3.1-4.2,5.2-1,5.7,8.6,15.5,3.1,22.7,6.6,1.4.7,3.4-.8,3.7-2.5.6-2.7-1.8-4-3.6-3.5Z"/>
    <path class="cls-2" d="M2797.3,551.1c-2.9-2.4-5.5-1.3-7.9,1.1-6,5.9-6.7,1.8-7.1-3.6-.3-4.2,1.7-9.5-2.4-12.1-5.7-3.6-7.4-8.7-8.8-14.7-1.2-5.1-5.3-9.5-9.7-10.6-4.7-1.2-6.3,5.1-8.5,8.4-5.3,8-8.3,19.7-5,26.3,4.4,8.8,14.6,16.8,26,17.4,8,.4,11.9.8,7.7,9.8.3,1.5.2,3.6,1.1,4.5,1.2,1.2,3.2.3,4.5-.8,3.3-3.1,7.5-3.9,11.8-4.9,2.9-.6,6.5-1.9,6.4-5.3-.3-6.1-3.2-11.4-8-15.4Z"/>
    <path class="cls-2" d="M2483.7,411.5c-6.3,4.2-11.3,4.5-10.7-1.9s1.5-9.9,4.9-7.5c3.4,2.4,2.9,1.9,6.9-2.4,4-4.3,6.3-5.2,8.2-5.8s2.1-4.7-2.3-4-11,1.5-19.6,1.7-17.1.5-22.7-.7-2.2-2.8,2.7-6.1c4.9-3.3,6-5.9,7.7-8.2,1.6-2.3,4-2.7,10.5,2.5,6.6,5.2,5.1,2.1,2.1-1.4-3-3.5-1.5-8.5,4.5-3.2,6,5.3,9.9,8.7,10.7,9.2s6.2-2,3.5-5.2c-2.7-3.2-5.6-4.9-9-4.8s-7.8-3.6-1.3-5.2c6.5-1.5,8.8-3.6,11.2-5.5s3.8.7,6.3,1.7,4.9-2.1,7.1-3.9,4.9-2.7,8.6,0c3.8,2.7,3.2,4-.7,6.4s-5.7,5.1-6.3,6.6.8,2.4,5.1.6c4.3-1.8,6.6-3.5,10.5.4,3.9,3.8,5.8,5.5,9.2,7.2s3.8,6,4.7,8.3c.9,2.3,6.3,3.8,5.2,9.2s-1.4,10.2-10.5,8-15.4-1.2-16.3-7.2c-.9-6-2.6-11,1.2-13.8,3.8-2.8,4.2-2.6,4-4.7-.2-2.1-5-4-8.6,1.8-3.6,5.7-6.8,10.5-8.7,13.3-1.9,2.8-5.3,5.6-8.9,8.5s-6,4-9.1,6.1Z"/>
    <path class="cls-2" d="M3026.3,596.5c0,.2,0,.4.1.6.7,4.2,1.3,8.4,6.3,6.2s8.3-3.2,10.8-5.2,3.7-4.4-1.3-7.5c-5-3.1-13.3-3.2-14.6-1-1.3,2.2-2.2,4.3-1.3,7Z"/>
    <path class="cls-2" d="M3024.4,544.8c-2,3.3-4.1,6.3,1.3,5.8,5.4-.4,10.7,2.1,11.6.7s.4-8.4-.4-10.6-4.9-1.2-5.4,1.1c-.5,2.3-6.2,1.4-7.1,3Z"/>
  </g>
  <g id="Beschriftung">
    <g>
      <path class="cls-4" d="M2947.5,1421.3v-25.2h7.3l5.5,22.6h.6l5.5-22.6h7.3v25.2h-3.8v-22.5h-.6l-5.5,22.5h-6.6l-5.5-22.5h-.6v22.5h-3.8Z"/>
      <path class="cls-4" d="M2987.4,1421.8c-1.8,0-3.4-.4-4.7-1.1-1.4-.7-2.5-1.8-3.3-3.2s-1.2-3-1.2-4.9v-.5c0-1.9.4-3.5,1.2-4.8.8-1.4,1.9-2.4,3.3-3.1,1.4-.7,3-1.1,4.7-1.1s3.4.4,4.8,1.1c1.4.7,2.5,1.8,3.3,3.1.8,1.4,1.2,3,1.2,4.8v.5c0,1.9-.4,3.5-1.2,4.9s-1.9,2.4-3.3,3.2c-1.4.7-3,1.1-4.8,1.1ZM2987.4,1418.5c1.6,0,3-.5,4-1.6,1-1,1.5-2.5,1.5-4.3v-.3c0-1.8-.5-3.3-1.5-4.3-1-1-2.3-1.6-4-1.6s-2.9.5-3.9,1.6c-1,1-1.5,2.5-1.5,4.3v.3c0,1.8.5,3.3,1.5,4.3,1,1,2.3,1.6,3.9,1.6Z"/>
      <path class="cls-4" d="M3001.2,1421.3v-17.7h3.6v2.7h.6c.3-.7.9-1.4,1.8-2s2.1-.9,3.9-.9,2.5.3,3.6.9,1.9,1.4,2.5,2.5c.6,1.1.9,2.4.9,3.9v10.7h-3.7v-10.4c0-1.5-.4-2.7-1.2-3.4-.8-.7-1.8-1.1-3.2-1.1s-2.8.5-3.7,1.5c-.9,1-1.4,2.5-1.4,4.4v9h-3.7Z"/>
      <path class="cls-4" d="M3022.5,1412.5v-.5c0-1.9.4-3.5,1.1-4.8.8-1.3,1.8-2.3,3-3.1,1.2-.7,2.6-1.1,4.1-1.1s3.1.3,4,1c.9.6,1.6,1.3,2,2.1h.6v-2.6h3.6v21.4c0,1.1-.3,1.9-1,2.6-.6.6-1.5,1-2.6,1h-12v-3.2h10.8c.7,0,1-.4,1-1.1v-5.7h-.6c-.3.4-.6.9-1.1,1.3-.5.5-1.1.8-1.9,1.1-.8.3-1.8.4-2.9.4s-2.9-.4-4.1-1.1-2.3-1.7-3-3.1c-.7-1.3-1.1-2.9-1.1-4.8ZM3031.7,1418.2c1.6,0,2.9-.5,4-1.5,1-1,1.6-2.4,1.6-4.2v-.3c0-1.8-.5-3.3-1.5-4.3-1-1-2.4-1.5-4-1.5s-2.9.5-3.9,1.5c-1,1-1.6,2.4-1.6,4.3v.3c0,1.8.5,3.2,1.6,4.2,1,1,2.4,1.5,3.9,1.5Z"/>
      <path class="cls-4" d="M3054.7,1421.8c-1.8,0-3.4-.4-4.7-1.1-1.4-.7-2.5-1.8-3.3-3.2s-1.2-3-1.2-4.9v-.5c0-1.9.4-3.5,1.2-4.8.8-1.4,1.9-2.4,3.3-3.1,1.4-.7,3-1.1,4.7-1.1s3.4.4,4.8,1.1c1.4.7,2.5,1.8,3.3,3.1.8,1.4,1.2,3,1.2,4.8v.5c0,1.9-.4,3.5-1.2,4.9s-1.9,2.4-3.3,3.2c-1.4.7-3,1.1-4.8,1.1ZM3054.7,1418.5c1.6,0,3-.5,4-1.6,1-1,1.5-2.5,1.5-4.3v-.3c0-1.8-.5-3.3-1.5-4.3-1-1-2.3-1.6-4-1.6s-2.9.5-3.9,1.6c-1,1-1.5,2.5-1.5,4.3v.3c0,1.8.5,3.3,1.5,4.3,1,1,2.3,1.6,3.9,1.6Z"/>
      <path class="cls-4" d="M3068.5,1421.3v-25.2h3.7v25.2h-3.7Z"/>
      <path class="cls-4" d="M3079.6,1401.2c-.7,0-1.3-.2-1.8-.7-.5-.5-.7-1.1-.7-1.8s.2-1.4.7-1.8,1.1-.7,1.8-.7,1.4.2,1.8.7c.5.5.7,1.1.7,1.8s-.2,1.3-.7,1.8c-.5.5-1.1.7-1.8.7ZM3077.7,1421.3v-17.7h3.7v17.7h-3.7Z"/>
      <path class="cls-4" d="M3094.2,1421.8c-2.3,0-4.1-.5-5.6-1.5-1.5-1-2.4-2.5-2.7-4.6l3.5-.8c.2,1,.5,1.8,1,2.3.5.6,1,1,1.7,1.2.7.2,1.4.4,2.2.4,1.2,0,2.1-.2,2.7-.7.6-.5,1-1,1-1.8s-.3-1.2-.9-1.6c-.6-.3-1.5-.6-2.7-.8l-1.2-.2c-1.2-.2-2.3-.5-3.3-.9-1-.4-1.8-1-2.3-1.7-.6-.7-.9-1.6-.9-2.8,0-1.7.6-3,1.9-3.9,1.2-.9,2.9-1.4,5-1.4s3.6.5,4.9,1.3c1.3.9,2.1,2.1,2.5,3.7l-3.5,1c-.2-1.1-.7-1.8-1.4-2.3-.7-.4-1.6-.7-2.6-.7s-1.8.2-2.4.6-.9.9-.9,1.6.3,1.2.8,1.6c.6.3,1.3.6,2.3.8l1.3.2c1.3.2,2.4.5,3.5.9,1.1.4,1.9.9,2.5,1.7.6.7.9,1.7.9,2.9,0,1.8-.7,3.2-2,4.1-1.3,1-3.1,1.5-5.3,1.5Z"/>
      <path class="cls-4" d="M3114.1,1421.8c-1.7,0-3.2-.4-4.6-1.1s-2.5-1.8-3.3-3.1c-.8-1.4-1.2-3-1.2-4.9v-.5c0-1.9.4-3.6,1.2-4.9.8-1.4,1.9-2.4,3.3-3.1,1.4-.7,2.9-1.1,4.6-1.1s3.2.3,4.4.9c1.2.6,2.2,1.5,2.9,2.5.7,1,1.2,2.2,1.4,3.4l-3.6.8c-.1-.8-.4-1.5-.8-2.2-.4-.6-.9-1.2-1.6-1.5-.7-.4-1.6-.6-2.6-.6s-2,.2-2.8.7c-.8.5-1.5,1.1-2,2-.5.9-.7,1.9-.7,3.2v.3c0,1.2.2,2.3.7,3.2.5.9,1.1,1.6,2,2,.8.5,1.8.7,2.8.7,1.6,0,2.7-.4,3.6-1.2.8-.8,1.3-1.8,1.5-3.1l3.6.8c-.3,1.2-.8,2.4-1.5,3.4s-1.7,1.9-2.9,2.5c-1.2.6-2.7.9-4.4.9Z"/>
      <path class="cls-4" d="M3127.1,1421.3v-25.2h3.7v10h.6c.2-.5.6-.9,1-1.3.4-.4,1-.8,1.8-1.1.7-.3,1.7-.4,2.8-.4s2.5.3,3.6.9,1.9,1.4,2.5,2.5.9,2.4.9,3.9v10.7h-3.7v-10.4c0-1.5-.4-2.7-1.2-3.4-.8-.7-1.8-1.1-3.2-1.1s-2.8.5-3.7,1.5c-.9,1-1.4,2.5-1.4,4.4v9h-3.7Z"/>
      <path class="cls-4" d="M3157.4,1421.8c-1.8,0-3.4-.4-4.7-1.1-1.3-.8-2.4-1.8-3.1-3.2s-1.1-3-1.1-4.8v-.4c0-1.8.4-3.5,1.1-4.8.7-1.4,1.8-2.4,3.1-3.2s2.9-1.1,4.6-1.1,3.2.4,4.5,1.1c1.3.8,2.3,1.8,3,3.2s1.1,2.9,1.1,4.7v1.4h-13.6c0,1.6.6,2.8,1.6,3.7s2.2,1.4,3.7,1.4,2.4-.3,3.2-.9,1.3-1.3,1.6-2.2l3.1,1.6c-.3.7-.8,1.4-1.5,2.1-.6.7-1.5,1.4-2.5,1.9-1,.5-2.4.8-4,.8ZM3152.2,1410.6h9.8c0-1.3-.6-2.4-1.4-3.1-.9-.8-2-1.1-3.4-1.1s-2.5.4-3.4,1.1c-.9.8-1.4,1.8-1.6,3.1Z"/>
      <path class="cls-4" d="M3177.6,1421.8c-2.3,0-4.1-.5-5.6-1.5-1.5-1-2.4-2.5-2.7-4.6l3.5-.8c.2,1,.5,1.8,1,2.3.5.6,1,1,1.7,1.2.7.2,1.4.4,2.2.4,1.2,0,2.1-.2,2.7-.7.6-.5,1-1,1-1.8s-.3-1.2-.9-1.6c-.6-.3-1.5-.6-2.7-.8l-1.2-.2c-1.2-.2-2.3-.5-3.3-.9-1-.4-1.8-1-2.3-1.7-.6-.7-.9-1.6-.9-2.8,0-1.7.6-3,1.9-3.9,1.2-.9,2.9-1.4,5-1.4s3.6.5,4.9,1.3c1.3.9,2.1,2.1,2.5,3.7l-3.5,1c-.2-1.1-.7-1.8-1.4-2.3-.7-.4-1.6-.7-2.6-.7s-1.8.2-2.4.6-.9.9-.9,1.6.3,1.2.8,1.6c.6.3,1.3.6,2.3.8l1.3.2c1.3.2,2.4.5,3.5.9,1.1.4,1.9.9,2.5,1.7.6.7.9,1.7.9,2.9,0,1.8-.7,3.2-2,4.1-1.3,1-3.1,1.5-5.3,1.5Z"/>
      <path class="cls-4" d="M3198.3,1421.3v-25.2h10c1.5,0,2.9.3,4.1.9,1.2.6,2.2,1.5,2.8,2.6.7,1.1,1,2.5,1,4v.5c0,1.6-.4,2.9-1.1,4s-1.7,2-2.9,2.6-2.6.9-4.1.9h-6.1v9.7h-3.9ZM3202.2,1408.1h5.7c1.4,0,2.5-.4,3.3-1.1.8-.7,1.2-1.7,1.2-3v-.4c0-1.3-.4-2.3-1.2-3-.8-.7-1.9-1.1-3.3-1.1h-5.7v8.5Z"/>
      <path class="cls-4" d="M3220.1,1421.3v-25.2h3.7v25.2h-3.7Z"/>
      <path class="cls-4" d="M3234.8,1421.8c-1.3,0-2.4-.2-3.4-.6-1-.4-1.8-1.1-2.4-1.9-.6-.8-.9-1.9-.9-3.1s.3-2.2.9-3c.6-.8,1.4-1.4,2.4-1.8,1-.4,2.2-.6,3.5-.6h5.4v-1.2c0-1-.3-1.9-.9-2.5s-1.6-.9-2.9-.9-2.2.3-2.9.9-1.1,1.4-1.3,2.3l-3.5-1.1c.3-1,.8-1.8,1.4-2.6.6-.8,1.5-1.4,2.5-1.9,1.1-.5,2.3-.7,3.8-.7,2.3,0,4.1.6,5.4,1.8,1.3,1.2,2,2.8,2,5v7.3c0,.7.3,1.1,1,1.1h1.5v3.1h-2.8c-.8,0-1.5-.2-2.1-.6-.5-.4-.8-1-.8-1.8h0c0-.1-.5-.1-.5-.1-.2.4-.5.8-.9,1.3s-.9.9-1.7,1.2-1.7.5-3,.5ZM3235.4,1418.8c1.5,0,2.7-.4,3.6-1.3.9-.9,1.4-2,1.4-3.5v-.4h-5.2c-1,0-1.8.2-2.4.6-.6.4-.9,1-.9,1.9s.3,1.5.9,1.9c.6.5,1.5.7,2.6.7Z"/>
      <path class="cls-4" d="M3256.7,1421.3c-1.1,0-1.9-.3-2.6-1-.6-.6-1-1.5-1-2.6v-11.1h-4.9v-3.1h4.9v-5.9h3.7v5.9h5.3v3.1h-5.3v10.4c0,.7.3,1.1,1,1.1h3.7v3.1h-4.9Z"/>
      <path class="cls-4" d="M3274.7,1421.8c-1.8,0-3.4-.4-4.7-1.1-1.3-.8-2.4-1.8-3.1-3.2s-1.1-3-1.1-4.8v-.4c0-1.8.4-3.5,1.1-4.8.7-1.4,1.8-2.4,3.1-3.2s2.9-1.1,4.6-1.1,3.2.4,4.5,1.1c1.3.8,2.3,1.8,3,3.2s1.1,2.9,1.1,4.7v1.4h-13.6c0,1.6.6,2.8,1.6,3.7s2.2,1.4,3.7,1.4,2.4-.3,3.2-.9,1.3-1.3,1.6-2.2l3.1,1.6c-.3.7-.8,1.4-1.5,2.1-.6.7-1.5,1.4-2.5,1.9-1,.5-2.4.8-4,.8ZM3269.5,1410.6h9.8c0-1.3-.6-2.4-1.4-3.1-.9-.8-2-1.1-3.4-1.1s-2.5.4-3.4,1.1c-.9.8-1.4,1.8-1.6,3.1Z"/>
      <path class="cls-4" d="M3293.1,1421.8c-1.3,0-2.4-.2-3.4-.6-1-.4-1.8-1.1-2.4-1.9s-.9-1.9-.9-3.1.3-2.2.9-3c.6-.8,1.4-1.4,2.4-1.8s2.2-.6,3.5-.6h5.4v-1.2c0-1-.3-1.9-.9-2.5-.6-.6-1.6-.9-2.9-.9s-2.2.3-2.9.9c-.7.6-1.1,1.4-1.3,2.3l-3.5-1.1c.3-1,.8-1.8,1.4-2.6s1.5-1.4,2.5-1.9c1.1-.5,2.3-.7,3.8-.7,2.3,0,4.1.6,5.4,1.8,1.3,1.2,2,2.8,2,5v7.3c0,.7.3,1.1,1,1.1h1.5v3.1h-2.8c-.8,0-1.5-.2-2.1-.6-.5-.4-.8-1-.8-1.8h0c0-.1-.5-.1-.5-.1-.2.4-.5.8-.9,1.3-.4.5-.9.9-1.7,1.2-.7.3-1.7.5-3,.5ZM3293.6,1418.8c1.5,0,2.7-.4,3.6-1.3.9-.9,1.4-2,1.4-3.5v-.4h-5.2c-1,0-1.8.2-2.4.6-.6.4-.9,1-.9,1.9s.3,1.5.9,1.9c.6.5,1.5.7,2.6.7Z"/>
      <path class="cls-4" d="M3315.2,1421.6c-1.3,0-2.5-.3-3.6-.9-1.1-.6-1.9-1.5-2.5-2.6-.6-1.1-.9-2.4-.9-4v-10.7h3.7v10.4c0,1.5.4,2.7,1.2,3.4.8.7,1.8,1.1,3.2,1.1s2.7-.5,3.7-1.5c.9-1,1.4-2.5,1.4-4.4v-9h3.7v17.7h-3.6v-2.7h-.6c-.3.7-.9,1.4-1.8,2s-2.1,1-3.8,1Z"/>
    </g>
    <g>
      <path class="cls-4" d="M2042.8,935.4v-25.2h3.9v10.5h.6l9.4-10.5h5.1l-11.4,12.4,11.8,12.8h-5.2l-9.6-10.7h-.6v10.7h-3.9Z"/>
      <path class="cls-4" d="M2070.7,935.9c-1.3,0-2.4-.2-3.4-.6-1-.4-1.8-1.1-2.4-1.9-.6-.8-.9-1.9-.9-3.1s.3-2.2.9-3c.6-.8,1.4-1.4,2.4-1.8,1-.4,2.2-.6,3.5-.6h5.4v-1.2c0-1-.3-1.9-.9-2.5s-1.6-.9-2.9-.9-2.2.3-2.9.9-1.1,1.4-1.3,2.3l-3.5-1.1c.3-1,.8-1.8,1.4-2.6.6-.8,1.5-1.4,2.5-1.9,1.1-.5,2.3-.7,3.8-.7,2.3,0,4.1.6,5.4,1.8,1.3,1.2,2,2.8,2,5v7.3c0,.7.3,1.1,1,1.1h1.5v3.1h-2.8c-.8,0-1.5-.2-2.1-.6-.5-.4-.8-1-.8-1.8h0c0-.1-.5-.1-.5-.1-.2.4-.5.8-.9,1.3s-.9.9-1.7,1.2-1.7.5-3,.5ZM2071.2,932.9c1.5,0,2.7-.4,3.6-1.3.9-.9,1.4-2,1.4-3.5v-.4h-5.2c-1,0-1.8.2-2.4.6-.6.4-.9,1-.9,1.9s.3,1.5.9,1.9c.6.5,1.5.7,2.6.7Z"/>
      <path class="cls-4" d="M2092.7,935.8c-1.3,0-2.5-.3-3.6-.9s-1.9-1.5-2.5-2.6c-.6-1.1-.9-2.4-.9-4v-10.7h3.7v10.4c0,1.5.4,2.7,1.2,3.4.8.7,1.8,1.1,3.2,1.1s2.7-.5,3.7-1.5c.9-1,1.4-2.5,1.4-4.4v-9h3.7v17.7h-3.6v-2.7h-.6c-.3.7-.9,1.4-1.8,2-.9.6-2.1,1-3.8,1Z"/>
      <path class="cls-4" d="M2108,935.4v-25.2h3.7v14.4h.6l7-6.9h4.9l-9,8.6,9.3,9.1h-4.9l-7.3-7.4h-.6v7.4h-3.7Z"/>
      <path class="cls-4" d="M2133.4,935.9c-1.3,0-2.4-.2-3.4-.6-1-.4-1.8-1.1-2.4-1.9s-.9-1.9-.9-3.1.3-2.2.9-3c.6-.8,1.4-1.4,2.4-1.8s2.2-.6,3.5-.6h5.4v-1.2c0-1-.3-1.9-.9-2.5-.6-.6-1.6-.9-2.9-.9s-2.2.3-2.9.9c-.7.6-1.1,1.4-1.3,2.3l-3.5-1.1c.3-1,.8-1.8,1.4-2.6s1.5-1.4,2.5-1.9c1.1-.5,2.3-.7,3.8-.7,2.3,0,4.1.6,5.4,1.8,1.3,1.2,2,2.8,2,5v7.3c0,.7.3,1.1,1,1.1h1.5v3.1h-2.8c-.8,0-1.5-.2-2.1-.6-.5-.4-.8-1-.8-1.8h0c0-.1-.5-.1-.5-.1-.2.4-.5.8-.9,1.3-.4.5-.9.9-1.7,1.2-.7.3-1.7.5-3,.5ZM2133.9,932.9c1.5,0,2.7-.4,3.6-1.3.9-.9,1.4-2,1.4-3.5v-.4h-5.2c-1,0-1.8.2-2.4.6-.6.4-.9,1-.9,1.9s.3,1.5.9,1.9c.6.5,1.5.7,2.6.7Z"/>
      <path class="cls-4" d="M2155.9,935.9c-2.3,0-4.1-.5-5.6-1.5s-2.4-2.5-2.7-4.6l3.5-.8c.2,1,.5,1.8,1,2.3.5.6,1,1,1.7,1.2.7.2,1.4.4,2.2.4,1.2,0,2.1-.2,2.7-.7s1-1,1-1.8-.3-1.2-.9-1.6-1.5-.6-2.7-.8l-1.2-.2c-1.2-.2-2.3-.5-3.3-.9-1-.4-1.8-1-2.3-1.7-.6-.7-.9-1.6-.9-2.8,0-1.7.6-3,1.9-3.9,1.2-.9,2.9-1.4,5-1.4s3.6.5,4.9,1.3c1.3.9,2.1,2.1,2.5,3.7l-3.5,1c-.2-1.1-.7-1.8-1.4-2.3s-1.6-.7-2.6-.7-1.8.2-2.4.6-.9.9-.9,1.6.3,1.2.8,1.6,1.3.6,2.3.8l1.3.2c1.3.2,2.4.5,3.5.9,1.1.4,1.9.9,2.5,1.7.6.7.9,1.7.9,2.9,0,1.8-.7,3.2-2,4.1-1.3,1-3.1,1.5-5.3,1.5Z"/>
      <path class="cls-4" d="M2174.3,935.8c-1.3,0-2.5-.3-3.6-.9-1.1-.6-1.9-1.5-2.5-2.6-.6-1.1-.9-2.4-.9-4v-10.7h3.7v10.4c0,1.5.4,2.7,1.2,3.4.8.7,1.8,1.1,3.2,1.1s2.7-.5,3.7-1.5c.9-1,1.4-2.5,1.4-4.4v-9h3.7v17.7h-3.6v-2.7h-.6c-.3.7-.9,1.4-1.8,2s-2.1,1-3.8,1Z"/>
      <path class="cls-4" d="M2196.9,935.9c-2.3,0-4.1-.5-5.6-1.5-1.5-1-2.4-2.5-2.7-4.6l3.5-.8c.2,1,.5,1.8,1,2.3.5.6,1,1,1.7,1.2.7.2,1.4.4,2.2.4,1.2,0,2.1-.2,2.7-.7.6-.5,1-1,1-1.8s-.3-1.2-.9-1.6c-.6-.3-1.5-.6-2.7-.8l-1.2-.2c-1.2-.2-2.3-.5-3.3-.9-1-.4-1.8-1-2.3-1.7-.6-.7-.9-1.6-.9-2.8,0-1.7.6-3,1.9-3.9,1.2-.9,2.9-1.4,5-1.4s3.6.5,4.9,1.3c1.3.9,2.1,2.1,2.5,3.7l-3.5,1c-.2-1.1-.7-1.8-1.4-2.3-.7-.4-1.6-.7-2.6-.7s-1.8.2-2.4.6-.9.9-.9,1.6.3,1.2.8,1.6c.6.3,1.3.6,2.3.8l1.3.2c1.3.2,2.4.5,3.5.9,1.1.4,1.9.9,2.5,1.7.6.7.9,1.7.9,2.9,0,1.8-.7,3.2-2,4.1-1.3,1-3.1,1.5-5.3,1.5Z"/>
    </g>
    <g>
      <path class="cls-4" d="M1894.8,713l7.2-25.2h6.8l7.2,25.2h-4l-1.7-5.9h-9.9l-1.7,5.9h-4ZM1901.5,703.5h7.9l-3.7-13.2h-.6l-3.7,13.2Z"/>
      <path class="cls-4" d="M1919.6,713v-25.2h3.7v25.2h-3.7Z"/>
      <path class="cls-4" d="M1928.8,720.2v-24.9h3.6v2.6h.6c.5-.8,1.1-1.5,2.1-2.1.9-.6,2.2-.9,4-.9s2.8.4,4.1,1.1,2.2,1.8,3,3.1c.8,1.4,1.1,3,1.1,4.9v.5c0,1.9-.4,3.6-1.1,4.9-.7,1.4-1.7,2.4-3,3.1-1.2.7-2.6,1.1-4.1,1.1s-2.1-.1-2.9-.4-1.4-.7-1.9-1.1c-.5-.4-.9-.9-1.2-1.4h-.6v9.6h-3.7ZM1938,710.3c1.6,0,3-.5,4-1.5,1-1,1.5-2.5,1.5-4.4v-.3c0-1.9-.5-3.4-1.6-4.4s-2.4-1.5-4-1.5-2.9.5-3.9,1.5-1.6,2.5-1.6,4.4v.3c0,1.9.5,3.4,1.6,4.4,1,1,2.4,1.5,3.9,1.5Z"/>
      <path class="cls-4" d="M1960,713.5c-1.8,0-3.4-.4-4.7-1.1-1.3-.8-2.4-1.8-3.1-3.2s-1.1-3-1.1-4.8v-.4c0-1.8.4-3.5,1.1-4.8.7-1.4,1.8-2.4,3.1-3.2s2.9-1.1,4.6-1.1,3.2.4,4.5,1.1c1.3.8,2.3,1.8,3,3.2s1.1,2.9,1.1,4.7v1.4h-13.6c0,1.6.6,2.8,1.6,3.7s2.2,1.4,3.7,1.4,2.4-.3,3.2-.9,1.3-1.3,1.6-2.2l3.1,1.6c-.3.7-.8,1.4-1.5,2.1-.6.7-1.5,1.4-2.5,1.9-1,.5-2.4.8-4,.8ZM1954.8,702.3h9.8c0-1.3-.6-2.4-1.4-3.1-.9-.8-2-1.1-3.4-1.1s-2.5.4-3.4,1.1c-.9.8-1.4,1.8-1.6,3.1Z"/>
      <path class="cls-4" d="M1972.9,713v-17.7h3.6v2.7h.6c.3-.7.9-1.4,1.8-2s2.1-.9,3.9-.9,2.5.3,3.6.9,1.9,1.4,2.5,2.5c.6,1.1.9,2.4.9,3.9v10.7h-3.7v-10.4c0-1.5-.4-2.7-1.2-3.4-.8-.7-1.8-1.1-3.2-1.1s-2.8.5-3.7,1.5c-.9,1-1.4,2.5-1.4,4.4v9h-3.7Z"/>
    </g>
    <g>
      <path class="cls-4" d="M1829.8,392.5v-25.2h10c1.5,0,2.9.3,4.1.9,1.2.6,2.2,1.5,2.8,2.6.7,1.1,1,2.5,1,4v.5c0,1.6-.4,2.9-1.1,4-.7,1.1-1.7,2-2.9,2.6-1.2.6-2.6.9-4.1.9h-6.1v9.7h-3.9ZM1833.7,379.3h5.7c1.4,0,2.5-.4,3.3-1.1.8-.7,1.2-1.7,1.2-3v-.4c0-1.3-.4-2.3-1.2-3-.8-.7-1.9-1.1-3.3-1.1h-5.7v8.5Z"/>
      <path class="cls-4" d="M1853.6,399.7v-3.2h9.9c.7,0,1-.4,1-1.1v-5.5h-.6c-.2.5-.5.9-1,1.4-.4.4-1,.8-1.8,1.1-.7.3-1.7.4-2.8.4s-2.5-.3-3.6-.9c-1.1-.6-1.9-1.5-2.5-2.6-.6-1.1-.9-2.4-.9-3.9v-10.7h3.7v10.4c0,1.5.4,2.7,1.2,3.4.8.7,1.8,1.1,3.2,1.1s2.7-.5,3.7-1.5c.9-1,1.4-2.5,1.4-4.4v-9h3.7v21.4c0,1.1-.3,1.9-1,2.6-.6.6-1.5,1-2.6,1h-11Z"/>
      <path class="cls-4" d="M1873.7,392.5v-17.7h3.6v2.1h.6c.3-.7.7-1.3,1.4-1.6.6-.3,1.4-.5,2.4-.5h2.1v3.3h-2.3c-1.2,0-2.2.3-3,1-.8.7-1.2,1.7-1.2,3v10.4h-3.7Z"/>
      <path class="cls-4" d="M1895.8,393c-1.8,0-3.4-.4-4.7-1.1s-2.4-1.8-3.1-3.2c-.8-1.4-1.1-3-1.1-4.8v-.4c0-1.8.4-3.5,1.1-4.8.7-1.4,1.8-2.4,3.1-3.2s2.9-1.1,4.6-1.1,3.2.4,4.5,1.1c1.3.8,2.3,1.8,3,3.2.7,1.3,1.1,2.9,1.1,4.7v1.4h-13.6c0,1.6.6,2.8,1.6,3.7s2.2,1.4,3.7,1.4,2.4-.3,3.2-.9c.7-.6,1.3-1.3,1.6-2.2l3.1,1.6c-.3.7-.8,1.4-1.5,2.1-.6.7-1.5,1.4-2.5,1.9-1,.5-2.4.8-4,.8ZM1890.6,381.8h9.8c0-1.3-.6-2.4-1.4-3.1-.9-.8-2-1.1-3.4-1.1s-2.5.4-3.4,1.1c-.9.8-1.4,1.8-1.6,3.1Z"/>
      <path class="cls-4" d="M1908.6,392.5v-17.7h3.6v2.7h.6c.3-.7.9-1.4,1.8-2,.9-.6,2.1-.9,3.9-.9s2.5.3,3.6.9,1.9,1.4,2.5,2.5c.6,1.1.9,2.4.9,3.9v10.7h-3.7v-10.4c0-1.5-.4-2.7-1.2-3.4-.8-.7-1.8-1.1-3.2-1.1s-2.8.5-3.7,1.5c-.9,1-1.4,2.5-1.4,4.4v9h-3.7Z"/>
      <path class="cls-4" d="M1936.3,393c-1.3,0-2.4-.2-3.4-.6-1-.4-1.8-1.1-2.4-1.9s-.9-1.9-.9-3.1.3-2.2.9-3c.6-.8,1.4-1.4,2.4-1.8s2.2-.6,3.5-.6h5.4v-1.2c0-1-.3-1.9-.9-2.5-.6-.6-1.6-.9-2.9-.9s-2.2.3-2.9.9c-.7.6-1.1,1.4-1.3,2.3l-3.5-1.1c.3-1,.8-1.8,1.4-2.6s1.5-1.4,2.5-1.9c1.1-.5,2.3-.7,3.8-.7,2.3,0,4.1.6,5.4,1.8,1.3,1.2,2,2.8,2,5v7.3c0,.7.3,1.1,1,1.1h1.5v3.1h-2.8c-.8,0-1.5-.2-2.1-.6-.5-.4-.8-1-.8-1.8h0c0-.1-.5-.1-.5-.1-.2.4-.5.8-.9,1.3-.4.5-.9.9-1.7,1.2-.7.3-1.7.5-3,.5ZM1934.6,372.5c-.7,0-1.3-.2-1.8-.7-.5-.5-.7-1.1-.7-1.8s.2-1.4.7-1.8c.5-.5,1.1-.7,1.8-.7s1.3.2,1.8.7c.5.5.7,1.1.7,1.8s-.2,1.4-.7,1.8c-.5.5-1.1.7-1.8.7ZM1936.8,390c1.5,0,2.7-.4,3.6-1.3.9-.9,1.4-2,1.4-3.5v-.4h-5.2c-1,0-1.8.2-2.4.6-.6.4-.9,1-.9,1.9s.3,1.5.9,1.9c.6.5,1.5.7,2.6.7ZM1941.7,372.5c-.7,0-1.3-.2-1.8-.7-.5-.5-.7-1.1-.7-1.8s.2-1.4.7-1.8c.5-.5,1.1-.7,1.8-.7s1.4.2,1.8.7c.5.5.7,1.1.7,1.8s-.2,1.4-.7,1.8c-.5.5-1.1.7-1.8.7Z"/>
      <path class="cls-4" d="M1959.7,393c-1.8,0-3.4-.4-4.7-1.1-1.3-.8-2.4-1.8-3.1-3.2s-1.1-3-1.1-4.8v-.4c0-1.8.4-3.5,1.1-4.8.7-1.4,1.8-2.4,3.1-3.2s2.9-1.1,4.6-1.1,3.2.4,4.5,1.1c1.3.8,2.3,1.8,3,3.2s1.1,2.9,1.1,4.7v1.4h-13.6c0,1.6.6,2.8,1.6,3.7s2.2,1.4,3.7,1.4,2.4-.3,3.2-.9,1.3-1.3,1.6-2.2l3.1,1.6c-.3.7-.8,1.4-1.5,2.1-.6.7-1.5,1.4-2.5,1.9-1,.5-2.4.8-4,.8ZM1954.5,381.8h9.8c0-1.3-.6-2.4-1.4-3.1-.9-.8-2-1.1-3.4-1.1s-2.5.4-3.4,1.1c-.9.8-1.4,1.8-1.6,3.1Z"/>
      <path class="cls-4" d="M1972.6,392.5v-17.7h3.6v2.7h.6c.3-.7.9-1.4,1.8-2s2.1-.9,3.9-.9,2.5.3,3.6.9,1.9,1.4,2.5,2.5c.6,1.1.9,2.4.9,3.9v10.7h-3.7v-10.4c0-1.5-.4-2.7-1.2-3.4-.8-.7-1.8-1.1-3.2-1.1s-2.8.5-3.7,1.5c-.9,1-1.4,2.5-1.4,4.4v9h-3.7Z"/>
    </g>
    <g>
      <path class="cls-4" d="M2273.3,305.2c-1.9,0-3.6-.3-5-1s-2.6-1.7-3.4-3c-.8-1.3-1.2-2.9-1.2-4.8v-.9h3.9v.9c0,1.8.5,3.1,1.6,4,1.1.9,2.5,1.3,4.3,1.3s3.2-.4,4.1-1.1c.9-.8,1.4-1.7,1.4-2.9s-.2-1.4-.6-1.9c-.4-.5-1-.9-1.8-1.2s-1.7-.6-2.8-.8l-1.3-.3c-1.6-.4-3-.9-4.2-1.4-1.2-.6-2.1-1.3-2.8-2.2-.6-.9-1-2.1-1-3.6s.4-2.8,1.1-3.8c.7-1.1,1.7-1.9,3-2.4s2.8-.9,4.6-.9,3.3.3,4.7.9,2.5,1.5,3.3,2.7,1.2,2.7,1.2,4.4v1.3h-3.9v-1.3c0-1.1-.2-2-.7-2.6-.4-.7-1.1-1.2-1.9-1.5-.8-.3-1.7-.5-2.8-.5-1.5,0-2.7.3-3.6,1-.9.6-1.3,1.5-1.3,2.6s.2,1.4.6,1.9c.4.5.9.9,1.6,1.2.7.3,1.6.6,2.7.8l1.3.3c1.6.4,3.1.8,4.3,1.4,1.2.6,2.2,1.3,3,2.3s1.1,2.2,1.1,3.7-.4,2.8-1.1,4-1.8,2-3.2,2.6-3,1-4.9,1Z"/>
      <path class="cls-4" d="M2286.8,304.7v-25.2h3.7v14.4h.6l7-6.9h4.9l-9,8.6,9.3,9.1h-4.9l-7.3-7.4h-.6v7.4h-3.7Z"/>
      <path class="cls-4" d="M2312.1,305.2c-1.3,0-2.4-.2-3.4-.6-1-.4-1.8-1.1-2.4-1.9s-.9-1.9-.9-3.1.3-2.2.9-3c.6-.8,1.4-1.4,2.4-1.8s2.2-.6,3.5-.6h5.4v-1.2c0-1-.3-1.9-.9-2.5-.6-.6-1.6-.9-2.9-.9s-2.2.3-2.9.9c-.7.6-1.1,1.4-1.3,2.3l-3.5-1.1c.3-1,.8-1.8,1.4-2.6s1.5-1.4,2.5-1.9c1.1-.5,2.3-.7,3.8-.7,2.3,0,4.1.6,5.4,1.8,1.3,1.2,2,2.8,2,5v7.3c0,.7.3,1.1,1,1.1h1.5v3.1h-2.8c-.8,0-1.5-.2-2.1-.6-.5-.4-.8-1-.8-1.8h0c0-.1-.5-.1-.5-.1-.2.4-.5.8-.9,1.3-.4.5-.9.9-1.7,1.2-.7.3-1.7.5-3,.5ZM2312.7,302.1c1.5,0,2.7-.4,3.6-1.3.9-.9,1.4-2,1.4-3.5v-.4h-5.2c-1,0-1.8.2-2.4.6-.6.4-.9,1-.9,1.9s.3,1.5.9,1.9c.6.5,1.5.7,2.6.7Z"/>
      <path class="cls-4" d="M2327.4,304.7v-17.7h3.6v2.7h.6c.3-.7.9-1.4,1.8-2s2.1-.9,3.9-.9,2.5.3,3.6.9,1.9,1.4,2.5,2.5c.6,1.1.9,2.4.9,3.9v10.7h-3.7v-10.4c0-1.5-.4-2.7-1.2-3.4-.8-.7-1.8-1.1-3.2-1.1s-2.8.5-3.7,1.5c-.9,1-1.4,2.5-1.4,4.4v9h-3.7Z"/>
      <path class="cls-4" d="M2356.9,305.2c-1.5,0-2.8-.4-4.1-1.1-1.2-.7-2.2-1.8-3-3.1-.8-1.4-1.1-3-1.1-4.9v-.5c0-1.9.4-3.5,1.1-4.9.7-1.4,1.7-2.4,3-3.1,1.2-.7,2.6-1.1,4.1-1.1s2.1.1,2.9.4c.8.3,1.4.7,1.9,1.1s.9.9,1.2,1.4h.6v-9.9h3.7v25.2h-3.6v-2.5h-.6c-.5.8-1.1,1.5-2.1,2.1-.9.6-2.2.9-4,.9ZM2357.9,302c1.6,0,2.9-.5,4-1.5,1-1,1.6-2.5,1.6-4.4v-.3c0-1.9-.5-3.4-1.5-4.4s-2.4-1.5-4-1.5-2.9.5-3.9,1.5-1.6,2.5-1.6,4.4v.3c0,1.9.5,3.4,1.6,4.4,1,1,2.4,1.5,3.9,1.5Z"/>
      <path class="cls-4" d="M2374.5,284.5c-.7,0-1.3-.2-1.8-.7-.5-.5-.7-1.1-.7-1.8s.2-1.4.7-1.8c.5-.5,1.1-.7,1.8-.7s1.4.2,1.8.7c.5.5.7,1.1.7,1.8s-.2,1.3-.7,1.8c-.5.5-1.1.7-1.8.7ZM2372.6,304.7v-17.7h3.7v17.7h-3.7Z"/>
      <path class="cls-4" d="M2381.8,304.7v-17.7h3.6v2.7h.6c.3-.7.9-1.4,1.8-2,.9-.6,2.1-.9,3.9-.9s2.5.3,3.6.9,1.9,1.4,2.5,2.5.9,2.4.9,3.9v10.7h-3.7v-10.4c0-1.5-.4-2.7-1.2-3.4-.8-.7-1.8-1.1-3.2-1.1s-2.8.5-3.7,1.5c-.9,1-1.4,2.5-1.4,4.4v9h-3.7Z"/>
      <path class="cls-4" d="M2408.1,304.7l-6-17.7h3.9l4.7,15h.6l4.7-15h3.9l-6,17.7h-5.9Z"/>
      <path class="cls-4" d="M2425.4,284.5c-.7,0-1.3-.2-1.8-.7-.5-.5-.7-1.1-.7-1.8s.2-1.4.7-1.8c.5-.5,1.1-.7,1.8-.7s1.4.2,1.8.7c.5.5.7,1.1.7,1.8s-.2,1.3-.7,1.8c-.5.5-1.1.7-1.8.7ZM2423.6,304.7v-17.7h3.7v17.7h-3.7Z"/>
      <path class="cls-4" d="M2440.9,305.2c-1.8,0-3.4-.4-4.7-1.1-1.3-.8-2.4-1.8-3.1-3.2s-1.1-3-1.1-4.8v-.4c0-1.8.4-3.5,1.1-4.8.7-1.4,1.8-2.4,3.1-3.2s2.9-1.1,4.6-1.1,3.2.4,4.5,1.1c1.3.8,2.3,1.8,3,3.2s1.1,2.9,1.1,4.7v1.4h-13.6c0,1.6.6,2.8,1.6,3.7s2.2,1.4,3.7,1.4,2.4-.3,3.2-.9,1.3-1.3,1.6-2.2l3.1,1.6c-.3.7-.8,1.4-1.5,2.1-.6.7-1.5,1.4-2.5,1.9-1,.5-2.4.8-4,.8ZM2435.7,294h9.8c0-1.3-.6-2.4-1.4-3.1-.9-.8-2-1.1-3.4-1.1s-2.5.4-3.4,1.1c-.9.8-1.4,1.8-1.6,3.1Z"/>
      <path class="cls-4" d="M2453.8,304.7v-17.7h3.6v2.7h.6c.3-.7.9-1.4,1.8-2s2.1-.9,3.9-.9,2.5.3,3.6.9,1.9,1.4,2.5,2.5c.6,1.1.9,2.4.9,3.9v10.7h-3.7v-10.4c0-1.5-.4-2.7-1.2-3.4-.8-.7-1.8-1.1-3.2-1.1s-2.8.5-3.7,1.5c-.9,1-1.4,2.5-1.4,4.4v9h-3.7Z"/>
    </g>
    <g>
      <path class="cls-4" d="M2757.7,945.9c-1.9,0-3.6-.3-5-1-1.5-.7-2.6-1.7-3.4-3-.8-1.3-1.2-2.9-1.2-4.8v-.9h3.9v.9c0,1.8.5,3.1,1.6,4,1.1.9,2.5,1.3,4.3,1.3s3.2-.4,4.1-1.1,1.4-1.7,1.4-2.9-.2-1.4-.6-1.9c-.4-.5-1-.9-1.8-1.2-.8-.3-1.7-.6-2.8-.8l-1.3-.3c-1.6-.4-3-.9-4.2-1.4-1.2-.6-2.1-1.3-2.8-2.2-.6-.9-1-2.1-1-3.6s.4-2.8,1.1-3.8c.7-1.1,1.7-1.9,3-2.4,1.3-.6,2.8-.9,4.6-.9s3.3.3,4.7.9,2.5,1.5,3.3,2.7c.8,1.2,1.2,2.7,1.2,4.4v1.3h-3.9v-1.3c0-1.1-.2-2-.7-2.6-.4-.7-1.1-1.2-1.9-1.5-.8-.3-1.7-.5-2.8-.5-1.5,0-2.7.3-3.6,1-.9.6-1.3,1.5-1.3,2.6s.2,1.4.6,1.9c.4.5.9.9,1.6,1.2.7.3,1.6.6,2.7.8l1.3.3c1.6.4,3.1.8,4.3,1.4,1.2.6,2.2,1.3,3,2.3.7,1,1.1,2.2,1.1,3.7s-.4,2.8-1.1,4-1.8,2-3.2,2.6-3,1-4.9,1Z"/>
      <path class="cls-4" d="M2773,925.3c-.7,0-1.3-.2-1.8-.7-.5-.5-.7-1.1-.7-1.8s.2-1.4.7-1.8c.5-.5,1.1-.7,1.8-.7s1.4.2,1.8.7c.5.5.7,1.1.7,1.8s-.2,1.3-.7,1.8c-.5.5-1.1.7-1.8.7ZM2771.1,945.4v-17.7h3.7v17.7h-3.7Z"/>
      <path class="cls-4" d="M2790.6,945.9c-1.7,0-3.1-.3-4-.9-.9-.6-1.6-1.3-2.1-2.1h-.6v2.5h-3.6v-25.2h3.7v9.9h.6c.3-.5.7-.9,1.2-1.4.5-.4,1.1-.8,1.9-1.1s1.8-.4,2.9-.4,2.9.4,4.1,1.1c1.2.7,2.2,1.8,3,3.1.7,1.4,1.1,3,1.1,4.9v.5c0,1.9-.4,3.6-1.1,4.9-.8,1.4-1.8,2.4-3,3.1-1.2.7-2.6,1.1-4.1,1.1ZM2789.5,942.7c1.6,0,2.9-.5,4-1.5,1-1,1.6-2.5,1.6-4.4v-.3c0-1.9-.5-3.4-1.5-4.4s-2.4-1.5-4-1.5-2.9.5-3.9,1.5c-1,1-1.6,2.5-1.6,4.4v.3c0,1.9.5,3.4,1.6,4.4,1,1,2.4,1.5,3.9,1.5Z"/>
      <path class="cls-4" d="M2805.3,925.3c-.7,0-1.3-.2-1.8-.7-.5-.5-.7-1.1-.7-1.8s.2-1.4.7-1.8c.5-.5,1.1-.7,1.8-.7s1.4.2,1.8.7.7,1.1.7,1.8-.2,1.3-.7,1.8c-.5.5-1.1.7-1.8.7ZM2803.4,945.4v-17.7h3.7v17.7h-3.7Z"/>
      <path class="cls-4" d="M2812.6,945.4v-17.7h3.6v2.1h.6c.3-.7.8-1.3,1.4-1.6.6-.3,1.4-.5,2.4-.5h2.1v3.3h-2.3c-1.2,0-2.2.3-3,1-.8.7-1.2,1.7-1.2,3v10.4h-3.7Z"/>
      <path class="cls-4" d="M2828.5,925.3c-.7,0-1.3-.2-1.8-.7-.5-.5-.7-1.1-.7-1.8s.2-1.4.7-1.8,1.1-.7,1.8-.7,1.4.2,1.8.7.7,1.1.7,1.8-.2,1.3-.7,1.8c-.5.5-1.1.7-1.8.7ZM2826.6,945.4v-17.7h3.7v17.7h-3.7Z"/>
      <path class="cls-4" d="M2843.9,945.9c-1.8,0-3.4-.4-4.7-1.1s-2.4-1.8-3.2-3.2c-.8-1.4-1.1-3-1.1-4.8v-.4c0-1.8.4-3.5,1.1-4.8.7-1.4,1.8-2.4,3.1-3.2s2.9-1.1,4.6-1.1,3.2.4,4.5,1.1c1.3.8,2.3,1.8,3,3.2.7,1.3,1.1,2.9,1.1,4.7v1.4h-13.6c0,1.6.6,2.8,1.6,3.7s2.2,1.4,3.7,1.4,2.4-.3,3.2-.9,1.3-1.3,1.6-2.2l3.1,1.6c-.3.7-.8,1.4-1.5,2.1-.6.7-1.5,1.4-2.5,1.9-1,.5-2.4.8-4,.8ZM2838.7,934.7h9.8c0-1.3-.6-2.4-1.4-3.1-.9-.8-2-1.1-3.4-1.1s-2.5.4-3.4,1.1c-.9.8-1.4,1.8-1.6,3.1Z"/>
      <path class="cls-4" d="M2856.8,945.4v-17.7h3.6v2.7h.6c.3-.7.9-1.4,1.8-2,.9-.6,2.1-.9,3.9-.9s2.5.3,3.6.9,1.9,1.4,2.5,2.5c.6,1.1.9,2.4.9,3.9v10.7h-3.7v-10.4c0-1.5-.4-2.7-1.2-3.4-.8-.7-1.8-1.1-3.2-1.1s-2.8.5-3.7,1.5c-.9,1-1.4,2.5-1.4,4.4v9h-3.7Z"/>
    </g>
    <line class="cls-1" x1="2030.2" y1="945.4" x2="1944.2" y2="1031.4"/>
    <line class="cls-1" x1="2934.8" y1="1431.3" x2="2871.4" y2="1494.8"/>
    <line class="cls-1" x1="2262.1" y1="314.7" x2="2262.1" y2="438"/>
    <line class="cls-1" x1="1820.9" y1="610.2" x2="1884.1" y2="673.3"/>
    <line class="cls-1" x1="1759.9" y1="459.8" x2="1817.1" y2="402.5"/>
  </g>
</svg>