<?xml version="1.0" encoding="UTF-8"?>
<svg xmlns="http://www.w3.org/2000/svg" version="1.1" viewBox="0 0 3840 2160">
  <defs>
    <style>
      .cls-1, .cls-2 {
        opacity: .5;
      }

      .cls-1, .cls-3 {
        fill: none;
        stroke: #fff;
        stroke-miterlimit: 10;
        stroke-dasharray: 0 0 5 5;
        stroke-width: 4.5px;
      }

      .cls-4 {
        opacity: .2;
      }

      .cls-2, .cls-5 {
        fill: #dae079;
        stroke-width: 0px;
      }
    </style>
  </defs>
  <g id="flaeche" class="cls-4">
    <path class="cls-2" d="M3249.2,123.2c-3.1,6.3.5,6.5,4.7,7.5,2.9.7,5.7,1.4,8.5,2.1-5.3-6.7-9.6-12-12.5-15.6.6,1.7.4,3.7-.7,6Z"/>
    <path class="cls-5" d="M2023.7,466.2c3-6.1,11.5-7.6,12.4-15.9,1.1-10.6,20.3-28.5,30.8-29.3,4.2-.3,7.7,3.1,4.9,5.7-5.3,4.8-5.1,13.1-12.9,16.6-4.8,2.2-9.9,8.6-9.2,15.5.8,8.3,6.9.2,9.9,2.4.5.4,1.1.8,1.6,1.2,7.3,5,14.4-1.8,21.8-.7,2.1.3,4.4-4,3.9-6.3-1.8-9.1,3.8-13.8,9.1-20,7.5-8.7,8.7-21,18.7-29.7,7-6,6.5-9.7,15-1.9,3.1-2.9,2.7-10.5,8.9-8.7,6.4,1.9,7.7-1.5,8.7-5.8.6-2.6,1.6-3.7,4-4.8,12.2-5.9,17.7-18.4,26.2-27.9,4.8-5.3,5.7-13.7,14.6-16.4,4-1.2,9.6-3.5,9.5-10.1,0-1.7,1.7-3,3.6-2.2,9.1,3.7,13.3-3.8,17.5-8.7,6.4-7.3,5.8-17.3,6.2-26.4.2-4.4-2.5-9.8-8.8-10.4-2.7-.3-5.1-.9-7.1-3.8,6.1-1.5,11.3-.7,16.1,2.8,2,1.5,5,1.8,6.4,0,1.7-2.1,3.6-5.6,3-7.8-1.3-4.7-4.1-10.3-9.1-10.9-14-1.7-27.9-6.7-42.2-2.7-11.7,3.2-23.3,7.4-29.3,18.5-3.1,5.7-6.8,8.3-12.3,9.6-12.1,2.9-24.1,4.6-35.5-2.8-1.5-1-5,1.7-4.7-2.7.2-2.3,0-4.6,2.7-5.9,4-1.8,7.9-3.7,12.3-1.5,8.7,4.2,14.4-1.9,20.6-5.9,2-1.3,3.1-3.6.4-5.7-1.6-1.3-5.1-2.1-3.1-5,2.2-3.2,8-3.2,9-1.9,6.8,9.4,9.9-.7,14.3-2.4,2.5-.9,4.9-1.4,7.4-2.1,11.6-3.3,23.5-6.3,34.6-11,14.5-6.2,15.6-6.3,22.2,8.7.5,1,2,2.3,3,2.2,4.5-.3,6.5,2.9,9,5.5,2,2.1,4.6,4,6.8,1.5,5-5.5,11.6-10.3,12.7-18.2.8-5.4-2.8-8.4-8.5-8.4-8.3,0-16.7,0-25-.2-2.6,0-6.3.5-7.6-1-9.7-10.4-22.4-7-35-8.6,7.7-9-2.7-10.9-6.2-14.8-3.8-4.2-6.4,1.7-9.3,3.9-1,.8-2.5,1-3.7,1.5-4.9,1.9-7.3-3.6-11.8-3.9-1.7,0-1.3-3.6-.1-5.2,9.5-13.6,18.8-27.2,36.8-30.9,2.5-.5,5.3-2.9,7,0,2,3.3-2.2,4.2-3.8,5.9-3.4,3.8-11.9,6-10,10.9,2,5.3,9.9.5,14.8,1.8,2.5,3.3-3.8,4.6-1.6,7.8,5.7,2.2,9.3-2.3,13.7-4.1,7-2.9,14-8.3,21-8.4,14.9-.2,30.8-3.9,44.5,5.7,4.1,2.9,7.4.6,9.8-1.5,2.1-1.8,3.7-4.6,1.9-8.7-3-6.7-3.1-15.4,2.3-19.9,8-6.6,18.1-10.7,27.4-15.7.5-.3,2,.2,2.4.8,3.3,4,7.3,1.4,11,1.2,13-.6,21-13,33.9-14.3,3.2-.3,7-4.8,7.4-8.8.5-5-5-2.6-7.4-4.4-1.8-1.4-3.9-3-4.8-5-5.6-12.8-16-13.4-28-12.7-8.4.5-15.3,5.6-15.2,11.4.2,12.5-10.6,7.9-15.2,12.5-.9.9-3.7.8-4.4-.9-3.5-8.6-7.8-3.1-12.3-1.2-4.8,2-7.7,8.5-14.2,6.5-.5-2,.4-3,1.5-3.8,2.5-1.9,4.7-4.7,2.7-7.4-1.6-2.2-4.8-.4-7.4.3-4.7,1.2-9.5,1.8-14.4,2.6-.5-3.7,1.1-5.3,3.9-6.6,12.2-5.6,23.8-12.9,37.2-14.8,9.6-1.3,10.9-15.8,22.4-12.9,2.6-11.7,10.3-7,17.1-5.4,3.7.8,7.5,1.5,8.1-4.1.4-4.1,2.9-5.9,6.8-5.5,4.6.5,7.5-2.1,10-5.3,5-6.3,9.6-13.1,18.6-14.6,1.7-.3,4-2.2,4.3-3.7,1.7-9.2,8.5-9.1,15.2-8.7,13.7.7,27.9.8,40.4-3.2,29.7-9.6,60.1-10.2,90.4-9.7,14.9.3,27.7-6.1,42.1-6.5,17.3-.5,26.5-21.1,45.1-20.2.6,0,1.2-1.5,1.8-2.3-162.6,0-325.2,0-487.8,0v7.4c-8.2.7-15.8,3.5-23.7,5.8-7,2-13.8,4.7-21.1,6-6.8,2.8-13.2,5.4-18.7,7.4-22.5,8.2-56.6,33.6-66.2,39.7-9.5,6.1-34.1,34.6-9.3,31,24.7-3.6,27.8,28.8,11.4,55.1-16.4,26.2-105,66.3-141.7,86.3-36.7,20-62.3,90.8-64.4,107.9-2.1,17.1,8.8,39.3,9.9,57.4.2,3.9-1.3,9.2-3.8,15.2,3.9-4.7,7.6-9.5,12-13.8,2.1-2,5.6-2.2,7.6-.9,4.8,3.1,6.5-.7,7.2-3.4,3.1-12.5,14.7-16,23.7-19,9.6-3.2,15.9-7.9,16.8-16.7,1.9-18.8,14.8-31.9,26.7-42.1,14-12,23.7-25.8,33.3-40.6,5.1-7.9,12.2-14.2,22.1-16.3,5.5-1.2,10.4-3.5,14-8.6,16-22.7,49.6-15.5,63.8.9,4.3,5,8.1,8.6,13.5,10.9,4.7,1.9,9,2.5,5.3,9.4-2,3.8,2.3,5.8,5.4,6.9,10,3.4,20.6,2.8,30.9,4.2,2.5.4,5.7-.8,6.8,2.6.9,2.7-1.9,3.7-3.1,5.5-3.6,5.5-10.1,7.6-15.6,13.1,8.7.2,14.7,3.9,20.8,6.8,3.5,1.7,5.2,2.1,8.9-.7,5.1-4,11.5-9.8,18.6-6,7.3,3.9,12,.7,17.5-2.6,4.3-2.6,7.1-7.8,13.1-8.2.2,7.7,3.3,16.1-8.5,18.7,2.8,2.6,4.4,5.1,6.6,5.9,7.7,3,6.7,5.2-.1,7.9-1.6.7-2.7,2.8-3.9,4.4-3.5,4.8-7.4,7.8-12.6,2.5-2,2.7,3.9,11.3-5.4,6.2-1.8-1-3.1-.5-4.4.7-1.2,1.1-1,2.2,0,3.4,7.1,7.4,1.7,7.5-4.3,7.6-2.8,0-5.5.7-8.4,1.1,2-10.2-3.1-14.8-12.7-11.4-4.4,1.6-8.7,7-5.2,9.7,5.3,4.1,5.1,9.3,7.4,14.1,3.1,6.6.2,8.4-4.7,8.2-7.7-.2-16.1,2.8-22.8-3.8-2.7-2.6-5.7-1.1-8.4.1-11.5,5.2-13.4,4.2-14.1-8.1-.2-3.9.4-8.6-4.8-9.7-3.7-.8-7.6-1.4-10.7,2.7-2.9,3.9-5.3,7.1-2.9,12.2,5.7,12.2-5.8,40.8-18.4,44.3-4.9,1.4-6.7,4.6-9.8,7.2-4.9,4.1-1.6,10.7-5.4,14.4-8.5,8.2-10.3,18.8-11.8,29.6-.3,2.3-1.3,5.3.7,6.5,3,1.9,4.5-1.5,6.4-3.2,5.9-5.3,7.8-12.8,10.6-19.7,1.5-3.7,2.6-7.7,7.2-6,4.6,1.7.9,5.9.6,8.6-.5,4.1-2.8,8-4,12.2-1.3,4.5-1.3,7.5,5.5,6.6,6.5-.8,11.9-1.7,15.1-8.2Z"/>
    <path class="cls-5" d="M1800.3,601.8c2,14.8-1,41.4,1.8,66.8,2.6,2.1,4.6,5.1,6.3,8.8,2.7,6,11.2,8.7,14.4,5.5,6.2-6.1,12.4-11.9,19.8-16.3,3.4-2,1.2-4.8,1.3-7.1.1-5.6-.9-11.3,4.8-15.2,1.4-1,2.9-3.8,2.5-5.1-4.2-12.1,3.6-6.3,9.4-5-3.1-11.3.7-21.4,3.5-31.3,2.9-10.5,4.9-22,13.8-29.6,4.5-3.8,10.9-5.4,15.5-9.1,9.3-7.4,17.1-16.5,25.7-24.7,9.1-8.6,17.7-17.6,26.6-26.4,1.5-1.5,4.8-2.4,3.5-5.3-1.5-3.2-4.9-1.5-7.1-1.2-6.9.8-13.6,2.8-20.7,2-11.4-1.3-16.8-10.7-11.6-20.6,7.8-14.8,18.7-26.1,35.1-31.6,6.2-2.1,11.7-5.4,12.9-13.2,1.1-6.9,6.2-11.2,11.8-15.1,6.9-4.8,15.4-12.6,14.6-18.6-1.6-11.3.8-19.7,6.5-28.7,1.9-3-2-9.2-5.1-6.7-8.6,7-20,6.5-28.4,12.4-9.4,6.5-19.3,9.3-30,7.3-8.2-1.6-12.6,2.9-16.2,8.3-6.4,9.5-15.2,15.4-24.8,21.1-16.1,9.6-28.7,8.3-39-8.1-1.7-2.7-5.5-2.4-7-.3-8,11.4-23.1,12.9-32,23.2-3,3.6-8.2,3.8-11.5.1-1.3-1.4-3.7-2.9-5.5-4.4-10.2,19.5-23.9,41.9-23.3,54.7,1,20.4,30.1,97.5,32.3,113.3Z"/>
    <path class="cls-5" d="M2446.7,502.5c-2.9-10.7,5.8-13.8,11.1-19.2,2.6-2.7,7.9-3.7,2.7-9.4-2.4-2.6,1-5.6,4.5-5.3,4.4.3,6.9-2.4,10.3-4.4,9.4-5.7,18-13.4,29.3-15.6,5.8-1.1,7.1-3.6,5.7-9.8-1.5-6.6-7.2-12.7-10.4-11.2-8.8,4.3-6.8-7.4-10.7-6.1-8.1,2.7-8.2-4.1-11.6-7.2,1.9-1.9,3.5-1.8,5.2-1.6,11.9,1.6,14.3-1.2,10.5-12.3-1.1-3-2.4-5.7,1.3-7.5,3.1-1.5,1.1-2.9.2-4.5-8.7-15.8-23.2-25-39.9-27.4-6.9-1-13.8-1.7-19.7-4.8-5.2-2.8-9-8.2-13.3-12.7-1-1,0-2.4,1.5-3,8-2.6,9.3-9.4,12.7-16.2,5.3-10.7,7.8-19,1.8-30.2-3-5.5-11.4-8.1-9.1-17.1.7-2.9-5.8-4.6-8.4-8.4-8.9-12.8-21-23-37.2-23.8-13.3-.6-25.9,5.9-39,8.3-1.6.3-4.2,2.4-4.2,3.7-.2,10.6-8.4,9.8-15.1,11-7.1,1.2-14.5,1.9-17.6-6.8-2.7-7.7,3.5-10.6,8.3-14.7,3.4-3,13-5.2,4.5-13.2-1.6-1.5,2.4-2.3,3.5-3.8,3.1-4.2,10.6-6.9,4.4-14.1-.3-.4.2-2,.7-2.4,1.8-1.4,6.1-1.5,2.1-5.2-2.4-2.2-4.6-1.2-7.6-1-9.5.7-15.3,8.7-23.9,10.6-11.5,2.4-12.8,4.5-8.4,14.8-6.5,1.7-14.5-2-19.2,5.5-2.5,3.9-6.7,8.3,2.3,9.3,1.9.2,4.5-.2,3.9,2.7-.4,2-2.6,2.6-4.7,3.1-10.3,2.1-19,11.5-21.7,21.7-1.8,7.2-.8,15-5.4,21.7-1.9,2.7-.7,8.2,2.7,8.3,6.4.3,13.4,6.8,19.4,0,5.3-6,11.7-11.6,8.3-21.5-3.1-9,1.8-17.3,10.5-21.3,3.8-1.7,7-.2,9.3,1.3,3.4,2.3-1,4.4-1.7,6.6-2.3,6.9-6.3,13.2-5.3,20.9.2,2-.1,4.3-2.1,5.3-4.1,2.2-5.3,5.6-2.3,8.8,3.1,3.3,5.5,9.7,11.7,7.2,5.8-2.4,10.8-.5,16.4,0,19.1,1.9,37.3,7.5,55.9,10.9,3,.6,9.6,2.1,7.7,5.3-2.3,3.9-4.6,9.3-10.2,11-4.7,1.4-9.8,2.9-12.8-1.5-4-5.8-10.8-7.3-15.6-11.8-4.7-4.4-12.5-5.2-16.7,1.3-3.6,5.7-9.3,9.8-11.2,17.2-1.3-1.5-2.1-2-2.5-2.8-4.5-9.4-6.1-9.5-12.7-1.3-2.2,2.7-4.9,4.3-8.6,5.5-4.7,1.6-12.5,4.8-8.1,12.2,5.9,9.9,5.3,20.3,4.7,30.8-.3,4.1-3.1,7.9-7.2,10.2-2.8,1.6-5.7,3.4-7.9,5.8-18.4,20.6-41.8,33.5-66.8,43.8-2.9,1.2-4.6,3.1-5,5.6-.7,3.7,2.9,2.5,4.8,3.2,2.3.9,6.6,3.3,2.9,4.8-7.3,2.9-6.8,8.3-9.1,13.8-1.3,3.2-1.4,11.4-7,10.1-4.2-1-.9-7.5-1.7-11.5-.7-3.8-1.4-10.1-6.5-6.9-5.4,3.4-11.2,2.8-16.5,5.3-6.8,3.1-8.6,10.3-8.1,14.9.7,5.6,7.5,6.3,13.2,3.5,1.1-.5,2.6-.5,3.9-.5,1.8,0,3.4.5,4,2.3.6,2-1,2.7-2.5,3.5-6.3,3.6-12.5,7.6-18.9,11-3,1.6-6.6,1.9-9.6.1-9.7-5.8-27.2-4.2-32.8,4.3-3.4,5.2-7,8.1-13.1,8.6-4.2.3-6.8,3.6-9.9,6.1-6.5,5.3-6.2,15.3-12,19.7-17.8,13.7-24,36.8-42.4,49.7-.7.5-1.1,1.8-1,2.7,1.2,8.4-5.1,13.1-9.1,19-4.4,6.4-11.6,14.2-7.7,21.2,6.9,12.4,3.4,22.9-.7,34.1-2,5.5,1.3,9.4,3.8,13.3,1.3,2.1,4.4,3.1,7.1,1.2,14.2-10.2,30.6-17.6,42.2-31.4,1.9-2.2,3.3-5.4,8-4.2,17.3,4.6,29.8-6.1,41.6-15.7,10.6-8.6,23.8-10.5,35.2-2.4,9.7,6.9,22.6,7.4,31.5,4.5,13.6-4.5,28.9-2.5,41.2-11,1.4-1,2.1.5,3.2,1.1,17.2,9.7,35.3,13.7,54.9,9,8.5-2,16.9-5.6,26-4.5-3.2-9.2-7.7-17.1-18.2-20.6,8.6,1,14.3-.7,16.5-9.6.6-2.4,5.1-5.5,7.8-3.8,2.7,1.7,4.5,5.5,2.1,9.6-1.6,2.8-3.2,5.6-3.7,9.1-.8,6.2,5.2,7.2,7.8,10.3,2,2.3,4.9-2.4,6.4-4.6,7.7-11.4,15-22.9,6.2-37.4-2.7-4.5,0-8.2,4.4-11.4,2,5.2,1.1,9.9,1.2,14.4.1,4.2,3.4,4.7,5.2,3,4.1-3.8,8.7-8.1,6.9-14.8-.7-2.7-1.7-5.7.5-7.4,2.3-1.7,3.9,1.6,5.9,2.5,9.2,4.2,14.7,1.9,15.7-7,.5-4.1,3.4-3,5.1-2.5,12.7,3.7,19.4-1,21-13.9,0-.6,1.3-1.1,2-1.7,2.5,2.7,2.1,7.8,7.2,7.4,1.6-.1,2.3-.9,2.5-2.5.3-3.7.6-7.2-4.1-8.7-.9-.3-2.1-2.8-1.9-3,6.1-6.1,5.2-16.4,12.6-21.7,4.4,3.8-3.2,7.4,1.4,11.4,5.3-8.1,15.3-12.3,17.8-22.1,1.3-5.1,8.9-1.4,7.8-5.4Z"/>
    <path class="cls-5" d="M2249.5,766.7c3.8,4.1,4.7,13.7,13.3,11.6,9.4-2.3,18.9.2,28.2-1.8,7-1.5,13.1-5.7,20.7-6.3,5.5-.4,11-13.3,7.7-14.5-6.9-2.5-3.3-5.1-2.1-9,2.8-9.5-3.1-15.4-12-11.7-4.5,1.8-7.6-.3-10-1.6-10-5.5-19.3-11.5-29.6-.5-1.9,2-5.8,1.5-5.7-2.4.2-5.6-2.4-11.7,1.9-16.8,1.4-1.6,2.6-3.7.3-5-2.1-1.1-4.9-1-7.4-1.5.8,4.6-6.2,6.8-3.7,12.3.2,3.3-.4,6.1-2.7,9.5-9.1,13.5-9.3,26.6,1,37.8Z"/>
    <path class="cls-5" d="M2895.6,610.6c3-2.1,6.8-3.1,11.8-7-4.1-.4-5.7-.3-7.2-.7-15.9-3.6-28.7-12.8-34-27.6-4.8-13.5-8.5-27.4-13.2-41-3.4-10-7.9-21.4-2-33.2,3.9-7.8,6.6-16.5,7.9-25.3.8-5.6-1.7-9.8-5.9-12.7-1.7-1.1-4.6-3.5-7.1-.9-3.3,3.4-5.3,7.3-3.5,12.4,1.9,5.2,0,10.2-3.6,13.4-10.5,9.7-9.7,21.9-5.4,32.7,5.8,14.6,4,31.8,15.3,44.4.6.6,1,2,.7,2.8-3.1,8.5-.5,15,6.3,20.7,1.4,1.1,1.7,4.4,1.5,6.6-.9,9.1,3.9,11.6,12,11.5,4.1,0,9.4-1.5,12,2.8,4.5,7.3,10.7,3.7,14.4,1.2Z"/>
    <path class="cls-5" d="M2605.1,508.6c-1.9-5-7.5-5.2-10-9-1.4-2.1-3.7-4-6.5-1.3-2,1.9-4.4,4.1-2.4,6.7,3.2,4.1,2.2,7.4.1,11.6-2.3,4.9,2.6,8.2,5.3,10.5,3.3,2.9,4.7-1.6,5.9-4.2,1.5-3.6,4.4-2.5,6.8-1.8,2,.6,5,.9,5,4,0,3.4-3.3,2.4-5,3.5-2.9,1.8-5.2,4.5-8.1,7.1,5.4,1.3,11.9,1.8,3.3,7.6-1.7,1.2-4.2,3-2.2,5.7,3.3,4.6,6.9,9,10.8,14,5.2-18.2,6.4-36.7,21.3-49.5-7.7-2.8-14.2-6.5-17-14.4,2.2-1.3,6.7-2.5,7.1-1.4,2.4,6.6,8.8,4.6,13.1,6.3,6.5,2.6,11.7-1,14.7-7.4,2.4-5.1,3.4-11.4-2.5-13.4-9.2-3.2-19.5.3-27.4,3.8-6.4,2.9-15.3,9.9-12.1,21.6Z"/>
    <path class="cls-5" d="M2810.7,330.6c-6.3.4-7.4,4.1-2.8,9.3,7,7.9,16.7,9.9,25.9,13.4,8.9,3.4,23.3.4,24.9-8.4,2.6-14,9.2-11.2,17.8-7.5.3.1,1-.6,2-1.3-5.9-7.3.2-24.5-17.9-21-5.8,1.1-13.7,2.9-9.3,13.5-14.6-5.6-27.4,1.3-40.6,2.1Z"/>
    <path class="cls-5" d="M2365.6,166.4c-1.8-6.5-7.2-13.6-13-11.1-9,4-18.6,3.7-27.5,6.9-6.6,2.4-7.6,7.9-8.1,13.4-.4,4.1-.6,7.8-3.4,11-2.7,3.1-7.9,7.3-2.5,10.3,4.8,2.7,11,9.8,17.5,2.8,5.1-5.5,10.7-6.2,16.9-3.6,2.8,1.2,5.2,2,6.9-.8,2-3.2-1.8-4.3-3.1-6.3-3.5-5.8-12.1.5-15.6-6.9,8.1-2.4,16-5.3,24.1-7.1,5.1-1.2,9.5-2.2,7.7-8.6Z"/>
    <path class="cls-5" d="M2023.7,330c-2.9,2.1-5.4,4.9-7.5,7.9-2.5,3.4,0,5.2,3,6.7,1.9-1.2,4-2,5.1-3.5,7.7-10.7,20.1-16.2,28.1-26.7,3.6-4.7,9.1-8.1,14.2-11.3,2.2-1.4,5.6-1.5,4.6-4.9-.9-2.7-4.3-3-6.8-3-4.6,0-8.7,2.4-13.5,2.7-9,.5-20.2-5.3-25.8,7.6-.4.9-2.4,1-3.5,1.7-5.6,3.6-7.7,6.8.4,10.1,7.4,3,9.1,7.2,1.6,12.7Z"/>
    <path class="cls-5" d="M2393.7,151.1c.9-8.3-3.6-8-9.1-4.8-5.3,3.1-9.7,8.1-16.5,8.5-1.8.1-3.1,3.2-2.3,3.6,7.2,3.3,3.8,13.2,11,16.8,2.3,1.2,8.2,2.2,6.3,7.3-1.5,4.1-5.8,1.9-8.8,2-2.9.2-5.2,1-6.7,3.5-2,3.3,1.5,4.5,2.6,6.6,3.4,6.7,10.4,6,14.7,7.8,4.7.5,7.6-.2,8.5-3.7.9-3.6,3.6-7.5-.4-11.1-4.2-3.9-5.1-11.4-2.6-13.4,9.1-7.2,2.5-15.5,3.4-23Z"/>
    <path class="cls-5" d="M2260.3,200.5c-6.6-1.9-13.4-.9-18.4,3.5-5.2,4.5-11,5.7-17.1,6.3-4.4.5-8,1.2-8,6.6,0,4.6,2.1,6.6,6.8,8.1,11.9,3.9,24.1,1.7,36,1.8,6.8,0,12-7.2,11.4-14-.6-7.4-7.7-4.9-12.8-4.7-.4,0-.9-.8-1.3-1.3-.6-3.1,4.7-2.6,3.5-6.3Z"/>
    <path class="cls-5" d="M2369.1,230.6c5.1-2.3,10.5-4,15.7-6.1,2.4-1,5-2.2,4.6-5.1-.2-2.8-1.5-4.7-3.6-4.6-7.9.3-16.7-3.4-22.9,5.1-1.7,2.4-4.8,5.9-7.2,4-7.6-6-8.2,4-8.1,4.6,1.9,10.1-6,10.1-11.9,11.8-2.8.8-5.1,1.7-5.9,4.4-.4,1.4-.2,3.3.5,4.6.4.8,3.2,1.3,3.3,1.1,3.9-6.9,9-3.4,14.6-2.8,4.6.4,12.8-4.3,12.3-8-1.3-8.6,4.8-7.3,8.6-9Z"/>
    <path class="cls-5" d="M2888.7,191.1c1.6-1.7,4.3-5.3,2.3-6.8-9-6.3-13.9-19-27.9-18.3-2.1.5-6.9-1.8-6.1,3.1,1.3,7.8,4.4,15.4,9.7,21.5,3.8,4.3,18,4.6,22,.5Z"/>
    <path class="cls-5" d="M2749.2,429c-3.3-.1-7.7-1.7-8.6-5.4-.5-2.4-.3-3.7-2.9-2.8-1.8.6-2.8,2.7-1.8,4,3.6,4.8,3.5,14.4,14,10.7,4.9-1.7,1.9,2,1.8,3.6-.4,3.4,1.5,5,4.5,5.3,3.6.3,3.1-2.5,3.3-4.8.5-6.6,4.2-12.2,7.4-17.5,4.1-6.8,2.6-9.6-4.1-10.7-3.1,3.9,1.8,13.6-8.9,9.2-1.4-.6-2.9,1.1-2.3,2.3,1.6,3.3,1.8,6.4-2.5,6.2Z"/>
    <path class="cls-5" d="M2637.6,542.5c3.6,0,7.4,1.1,8.4-3.6.9-4.1-1.3-5.8-4.9-6.9-3.9-1.2-7.3-3.4-7.5-8.1-.2-3.3-2.2-4.2-4.6-3.4-2.3.7-2.4,3.5-1.1,5,2.8,3.1,4.7,6.8,4,10.7-1.1,5.8,1.1,7.2,5.7,6.3Z"/>
    <path class="cls-5" d="M2727.2,460.2c4.9-2.8,4.9-8.7,6.3-13.8.5-1.9-.5-4.7-3-3.5-5.5,2.7-6.7,8.2-7.1,13.7-.1,1.9-.1,4.2,3.8,3.6Z"/>
    <path class="cls-5" d="M2699.9,39.7c4.9,4.3,10,1.2,15.1.3.8-.1,2.1-2.5,1.8-2.8-3.2-4.2-7.9-2.2-12-2.5-2.2-.2-4.6-1.4-7.2.6-.3,2.4,1.1,3.4,2.3,4.5Z"/>
    <path class="cls-5" d="M2875.2,660c-2.7-.3-3.9,2.8-4.7,5.3,1.5,3.3,2.3,7.3,6.7,7.6,3.8.2,5.1-2.6,4.8-5.8-.3-4.1-3.3-6.7-6.9-7Z"/>
    <path class="cls-5" d="M2006.2,330c-.5-2.4-.7-5.7-4.3-5-3.4.6-7.4,2.2-7.6,6.3-.2,3.6,2.4,5.9,6.4,5.6,4.3-.3,5.2-3.3,5.5-7Z"/>
    <path class="cls-5" d="M2900.2,171.3c1.2-3,7.2-.7,6-5.7-.8-3.1-2-6.8-6-6.9-4-.1-5.1,3.7-4.4,6.1.5,2.1.2,6.2,4.4,6.5Z"/>
    <path class="cls-5" d="M2853,160c1.5,0,2.1-2.4,1.2-4-2.3-4-3.4-10-11.1-6.3,4,3.1,3,10.4,10,10.3Z"/>
    <path class="cls-5" d="M1984.7,355.5c-2.5.4-4.9,2.1-5.2,5.2-.2,2.1.6,4.5,3.2,3.1,2.3-1.3,6.5,0,6.7-4.4-.1-3.1-2.6-4.2-4.7-3.9Z"/>
    <path class="cls-5" d="M2935.3,607.9c-3.6-3.5-7.2-5.4-11.8-3.8-1.7.6-1.2,1.9-.5,3.1,3.7,6.1,7.9.7,12.3.6Z"/>
    <path class="cls-5" d="M3445.3,408.8c-11-28.2-32.7-65.3-57.9-103.8-3.5-5.3-7-10.7-10.7-16-7.5-11.1-15.1-22.2-22.8-33.1-35.2-49.9-71.1-96.4-91.5-122.1-2.8-.8-5.7-1.5-8.5-2.1-4.2-1-7.8-1.1-4.7-7.5,1.2-2.3,1.3-4.3.7-6-1.4-1.7-2.4-3-3.2-3.9-1.2-.8-2.6-1.5-4.1-2.1-13.6-5-27-.9-40.5,0-4.5.3-8.9,1.6-9.1,7.2-.2,4.9,3.3,6.8,7.5,7.8,4.6,1.2,9.4,2.6,9.8,8.4.7,10.6,7.2,17.2,15.2,23-10.2-7.1-21.5-12.3-32.9-16.5-13.3-4.9-27.5-7.6-39.9-15.1-3.8-2.3-7.9-3.2-12.3-3.8-8.1-1.2-14.4-5.4-20.9-10.6-12.1-9.7-23.5-20.3-36.1-29.4-10.7-7.8-22.1-14.5-31.9-23.7-9.3-8.7-19.2-17.5-33.7-16.1-3.3.3-6.7-.2-9.8-1.6-12.4-5.4-25.5-7.1-38.7-8.8-6.8-.9-12.9-3.3-16.3-10-1.9-3.7-5.2-5.2-9-5.3-7.2-.2-14.2-1.7-20.7-2.5,3.3-.5,6.8,1.3,10.6,1.5,13.9.5,28-1.3,41.6,3,13.3,4.2,27.7-4.3,40.6,3.9,1.7,1.1,3.9.3,5.8-.3,3.5-1,6.5-.2,9.3,2.1,13.6,10.9,27.9,7.8,42.3,1.9,3.6-1.5,6.3-4,6.1-8.2-.2-4.5-2.7-7.4-6.9-8.8-8.1-2.7-15.1-7.8-23.4-10h-350c10.7,10.2,24.8,14.8,36.7,23,11.3,7.7,25.1,9.9,37,16.2,6.1,3.2,11.1,7.6,15.5-2.3,1.8-4.2,6.8-3.4,10.8-2,3.1,1.1,5.4,2.3,6.5,6.4,1.5,5.5-5,2.9-5.2,7.3,22.8-5.4,36.9,13.1,55.5,19.7,2.8,1,7.9,3.9,2.6,7.9-7.7,5.8-2.4,11.4,1.6,13.5,7.9,4.3,14.5,10.8,24.1,12.6,5.4,1,11,4.2,8.7,12.8-1.3,5-2,12.3.7,15.7,5.1,6.5,8.4,13.8,13,20.5,5.5,8.2,14,17.7,22.7,14.6,14.8-5.3,20.4,5.3,28.1,11.6,5.2,4.2,15.2,6.3,12.8,17.2-.3,1.5,3.2,3.7,6.4,3.5,3-.2,6.1-.2,8.9.5,3.3.8,8.2,1,8,5.6-.1,4.3-2.2,8.3-7.6,9.2-6.5,1-13.1,3-19.6,3.2-11.8.2-16.3,4.4-14,16.8,1.4,7.9,0,14.9,11.9,11.8,4.9-1.3,9.4,2.3,11.4,7.2,1.9,4.6,3.4,12.5.3,14-12.2,5.6-5.7,13.7-2.6,19.4,3.1,5.8-1.7,6.8-3,9.9-8.1-4.9-17,5.6-23.5.3-9.8-8-19.4-9.1-31-6.4-7.7,1.8-11.7,7.2-8.6,12.5,8.1,13.9-1.8,11.4-9.2,11.8-.7,0-1.3,0-2,0-4.5,0-5.7,3.5-7.5,6.8-2.3,4.5,1.9,4.6,3.6,6.6,7.9,8.9,22,10.7,26.5,23.5.6,1.7,2.7,3.1,1.7,5.2-1,2.3-3.2,1.9-5.2,1.4-2.8-.7-5.6-.4-8.3-2.5-3.8-2.9-7.9,1.2-6.8,3.4,2.1,4.3,4.1,10.3,9.8,11.4,11,2.2,14.4,10.9,16.8,19.6,2.4,8.7,5.7,16.9,10.5,24.4,2.2,3.4,5.3,7.2,10.2,6.8,8.3-.7,10.1,3.7,9.7,10.9-.3,5.7-.1,11.2-3.6,16.2-2.7,3.8-1.7,6.6,2.4,9.8,9.1,7.1,18.9,9,30,6.6,2.6-.6,6.4-1,6.5,3.8,0,4.3-2.4,6.1-6.4,5.5-6.8-.9-12.4,1.6-17.3,5.7-1.8,1.5-5.1,4.1-1,7.2,5.6,4.2,5.1,10.9,7.3,16.2-3.6,3.9-11.4-5.4-11.5,3.5,0,6.8,2.1,14.5,11.7,15.7,7.1.9,13.1,4.2,17.6,9.9,3.3,4.1,7.3,7.3,11.7,10.1,6.4,4.2,12.2,8.4,13.7-4.2.3-2.3,3.2-6.6,7.4-5,3.3,1.2,6.1,4.9,3.9,8-7.3,10.3.8,12.8,7.4,15.5,4.4,1.8,8.8,3.9,10.9,8,4.7,8.9,10.9,17,11.7,27.9.4,4.8.3,9-3.2,10.8-4.4,2.3-8.6-.3-9.8-5.3-1.8-7.9-6-14.7-9.6-21.7-3.8-7.4-9.5-15.7-18.3-15.1-6.7.5-10.5-2.5-14.7-5.3-8.3-5.6-16-12-23.6-18.5-10.1-8.6-23.7-12.9-30.4-25.4-1.9-3.5-5.6-5.9-9-5.2-5.7,1.2-10.9,3.6-14.2-3.7-.2-.5-2.4-.4-3.6,0-.6.2-.8,1.6-1.2,2.4,9.9,3.3,5.5,15.2,13,20.8,7.1,5.4,13.9,12.3,12.7,23.3-.2,2.1,1.9,5.4,3.9,6.6,12.4,7.5,19.8,23.8,38.3,20.8,4-.6,8.6,2.6,12.9,4.2,2.2.8,3.9,2.1,4.2,4.9.9,7.5-4.2,7.1-8.9,7-15.5-.4-30.9,1-45.7,5.7-4,1.3-10.4,2.5-11.2,8-1,6.6,7.1,5.6,9.8,9.4.1.2.6.2,1,.2,5.5.2,5,4.2,5,7.9,0,4.6-3.3,4.3-6.3,4.1-4.6-.3-7.3,1.9-9.4,5.8-4.4,8.4-12.6,12.5-20.8,14.6-8.2,2.1-14.6,3.9-14.9,13.8,0,2.2-1.4,4.3-2.3,6.4-6.3,14.2-13.3,28.1-12.7,44.3.2,5-3,9.3-7.5,10.3-4.2,1-10.1,2.6-13.1-1.4-2.9-4-7.5-8.7-5.9-14,2.7-8.8-.5-14.6-9.2-14.3-5.2.2-7.5,1.6-4.2,7.1,6.1,10.2,8.7,22.7,19.7,29.6,4.5,2.8,2.4,7.1,2.3,10.8-.1,3.1-3.2,2.6-5.5,2.9-14.2,1.8-24.7,21.9-18.6,35.5,5.9,13.1,4.1,16.8-9.6,19.5-1.5.3-3.6-.4-4.1,1.8-.4,1.8.6,3,2.3,3.9,4.5,2.3,4.8,5.9,2.6,10-2.6,4.8-7.1,10.4-11.6,8.3-7.8-3.6-16.1-4-23.8-7.1-4.6-1.9-7.7-4.7-8.2-9.7-.8-7.3-7.5-12.2-7.3-20.3,0-2.4-3.3-7.3-7.8-7.7-7.4-.7-8.4-8.3-13-12-1.8-1.5-1.1-5.9,3.6-5.8,7.3.2,14.6.5,22,.6,9.9,0,19.6,3.4,29.6-.2,11.8-4.2,17-22.8,7.4-30.9-3.5-3-8.7-4.8-12.5-7.5-7.9-5.6-17.5-2-25.2-6.1-11.7-6.2-23.5-10.6-37.3-7-4.7,1.2-11.8,1.6-13.7-4.2-1.5-4.8-2.3-3.7-5.3-2.2-2.3,1.2-4.4,2.6-6.5,3.8-6.4,3.8-11.6-.9-15.4-5-4-4.4,2.4-4.6,4.2-6.7,2.5-3,5.1-5.7-1.5-7.5-5.4-1.5-10.3-4.2-16-4.7-2.2-.2-5-.3-5.1,1.6-.4,7.4-10.4,2.5-11.2,9.2,0,.7-2.4,0-2.9-1.5-2.6-7.6-6.2-3.3-9.3-.6-3.4,2.9-7.4,5.9-9.3,9.7-2.3,4.7-9-.4-9.4,4.8-.8,10-8.1,9.5-13.7,7.5-6.9-2.5-9.4.8-12.2,5.4-1.3,2.2-2.1,4.4-5.3,5.4-3.8,1.2-4.5,4.4-4.1,8.8,1,10.2-3.9,13.2-13.1,7.8-3.2-1.9-4.9-1.9-6.1.9-1.4,3.1.3,5.1,3.8,4.9,7.2-.3,7.4,6.1,5,8.6-7.4,7.9-10.3,18.9-18.2,26.2-7.7,7.1-11.9,16.5-14.9,25.8-.7,2.3-1.6,4.5-2.6,6.8-7.7,18.3-22,37.1-37.7,47.9-11.5,7.9-21.1,19.7-33.6,25-13.8,5.8-13.9,14.9-14.8,26.4-.9,10.9,2.9,21.4,1.5,32-1.2,8.7.6,17.3-.7,26-.7,4.8,13.5,15.5,18.3,14.6.6-.1,1.2-.3,1.8-.4,7.8,4.8,9.5,3.7,19.5-2.9,2.8-1.8,6-3,8.9-4.6,8.2-4.7,13.3-9,16.6-8.3.9.2,1.7.8,2.4,1.9.2.3.3.6.5.9l.3.5s28.3-29.6,44.3-56.4c16-26.8,37.3-67.8,50.1-75.7,3.1-1.9,6.4-3.3,9.9-4.4,0-1.3.1-2.7,0-4.1-.3-14,6.7-25.6,19.5-30.8,10.6-4.3,22.8-.1,22.9,8.6,0,9-1.2,17.6-4,25.5,26.4,4.5,100.9,17,121.4,11.9,23.8-5.9,79.6,17.4,123.1,14.9,43.5-2.5,149.3-33.5,180.6-30.7,19.9,1.8,37.8,8.1,53.3,11.2,8.9,1.8,16.9,2.6,24,.8,6.3-1.5,15.5-4.2,25.6-7.6,16.6-5.7,35.4-13.5,47.4-22.5,3-2.3,5.6-4.6,7.6-7,13.1-15.6,32.8-73.2,48.1-91.1,2-2.4,3.9-4.1,5.8-4.9,7.5-3.3,28.6-19.2,48.8-38.8,10.1-9.7,20-20.3,27.9-30.7,9.4-12.2,16-24.2,17.2-34.1,4-35.1,51.4-107.6,15.8-198.9Z"/>
    <path class="cls-2" d="M3246.8,113.4c.8.9,1.8,2.2,3.2,3.9-.5-1.5-1.6-2.8-3.2-3.9Z"/>
  </g>
  <g id="kontur">
    <path class="cls-1" d="M3249.2,123.2c-3.1,6.3.5,6.5,4.7,7.5,2.9.7,5.7,1.4,8.5,2.1-5.3-6.7-9.6-12-12.5-15.6.6,1.7.4,3.7-.7,6Z"/>
    <path class="cls-3" d="M2023.7,466.2c3-6.1,11.5-7.6,12.4-15.9,1.1-10.6,20.3-28.5,30.8-29.3,4.2-.3,7.7,3.1,4.9,5.7-5.3,4.8-5.1,13.1-12.9,16.6-4.8,2.2-9.9,8.6-9.2,15.5.8,8.3,6.9.2,9.9,2.4.5.4,1.1.8,1.6,1.2,7.3,5,14.4-1.8,21.8-.7,2.1.3,4.4-4,3.9-6.3-1.8-9.1,3.8-13.8,9.1-20,7.5-8.7,8.7-21,18.7-29.7,7-6,6.5-9.7,15-1.9,3.1-2.9,2.7-10.5,8.9-8.7,6.4,1.9,7.7-1.5,8.7-5.8.6-2.6,1.6-3.7,4-4.8,12.2-5.9,17.7-18.4,26.2-27.9,4.8-5.3,5.7-13.7,14.6-16.4,4-1.2,9.6-3.5,9.5-10.1,0-1.7,1.7-3,3.6-2.2,9.1,3.7,13.3-3.8,17.5-8.7,6.4-7.3,5.8-17.3,6.2-26.4.2-4.4-2.5-9.8-8.8-10.4-2.7-.3-5.1-.9-7.1-3.8,6.1-1.5,11.3-.7,16.1,2.8,2,1.5,5,1.8,6.4,0,1.7-2.1,3.6-5.6,3-7.8-1.3-4.7-4.1-10.3-9.1-10.9-14-1.7-27.9-6.7-42.2-2.7-11.7,3.2-23.3,7.4-29.3,18.5-3.1,5.7-6.8,8.3-12.3,9.6-12.1,2.9-24.1,4.6-35.5-2.8-1.5-1-5,1.7-4.7-2.7.2-2.3,0-4.6,2.7-5.9,4-1.8,7.9-3.7,12.3-1.5,8.7,4.2,14.4-1.9,20.6-5.9,2-1.3,3.1-3.6.4-5.7-1.6-1.3-5.1-2.1-3.1-5,2.2-3.2,8-3.2,9-1.9,6.8,9.4,9.9-.7,14.3-2.4,2.5-.9,4.9-1.4,7.4-2.1,11.6-3.3,23.5-6.3,34.6-11,14.5-6.2,15.6-6.3,22.2,8.7.5,1,2,2.3,3,2.2,4.5-.3,6.5,2.9,9,5.5,2,2.1,4.6,4,6.8,1.5,5-5.5,11.6-10.3,12.7-18.2.8-5.4-2.8-8.4-8.5-8.4-8.3,0-16.7,0-25-.2-2.6,0-6.3.5-7.6-1-9.7-10.4-22.4-7-35-8.6,7.7-9-2.7-10.9-6.2-14.8-3.8-4.2-6.4,1.7-9.3,3.9-1,.8-2.5,1-3.7,1.5-4.9,1.9-7.3-3.6-11.8-3.9-1.7,0-1.3-3.6-.1-5.2,9.5-13.6,18.8-27.2,36.8-30.9,2.5-.5,5.3-2.9,7,0,2,3.3-2.2,4.2-3.8,5.9-3.4,3.8-11.9,6-10,10.9,2,5.3,9.9.5,14.8,1.8,2.5,3.3-3.8,4.6-1.6,7.8,5.7,2.2,9.3-2.3,13.7-4.1,7-2.9,14-8.3,21-8.4,14.9-.2,30.8-3.9,44.5,5.7,4.1,2.9,7.4.6,9.8-1.5,2.1-1.8,3.7-4.6,1.9-8.7-3-6.7-3.1-15.4,2.3-19.9,8-6.6,18.1-10.7,27.4-15.7.5-.3,2,.2,2.4.8,3.3,4,7.3,1.4,11,1.2,13-.6,21-13,33.9-14.3,3.2-.3,7-4.8,7.4-8.8.5-5-5-2.6-7.4-4.4-1.8-1.4-3.9-3-4.8-5-5.6-12.8-16-13.4-28-12.7-8.4.5-15.3,5.6-15.2,11.4.2,12.5-10.6,7.9-15.2,12.5-.9.9-3.7.8-4.4-.9-3.5-8.6-7.8-3.1-12.3-1.2-4.8,2-7.7,8.5-14.2,6.5-.5-2,.4-3,1.5-3.8,2.5-1.9,4.7-4.7,2.7-7.4-1.6-2.2-4.8-.4-7.4.3-4.7,1.2-9.5,1.8-14.4,2.6-.5-3.7,1.1-5.3,3.9-6.6,12.2-5.6,23.8-12.9,37.2-14.8,9.6-1.3,10.9-15.8,22.4-12.9,2.6-11.7,10.3-7,17.1-5.4,3.7.8,7.5,1.5,8.1-4.1.4-4.1,2.9-5.9,6.8-5.5,4.6.5,7.5-2.1,10-5.3,5-6.3,9.6-13.1,18.6-14.6,1.7-.3,4-2.2,4.3-3.7,1.7-9.2,8.5-9.1,15.2-8.7,13.7.7,27.9.8,40.4-3.2,29.7-9.6,60.1-10.2,90.4-9.7,14.9.3,27.7-6.1,42.1-6.5,17.3-.5,26.5-21.1,45.1-20.2.6,0,1.2-1.5,1.8-2.3-162.6,0-325.2,0-487.8,0v7.4c-8.2.7-15.8,3.5-23.7,5.8-7,2-13.8,4.7-21.1,6-6.8,2.8-13.2,5.4-18.7,7.4-22.5,8.2-56.6,33.6-66.2,39.7-9.5,6.1-34.1,34.6-9.3,31,24.7-3.6,27.8,28.8,11.4,55.1-16.4,26.2-105,66.3-141.7,86.3-36.7,20-62.3,90.8-64.4,107.9-2.1,17.1,8.8,39.3,9.9,57.4.2,3.9-1.3,9.2-3.8,15.2,3.9-4.7,7.6-9.5,12-13.8,2.1-2,5.6-2.2,7.6-.9,4.8,3.1,6.5-.7,7.2-3.4,3.1-12.5,14.7-16,23.7-19,9.6-3.2,15.9-7.9,16.8-16.7,1.9-18.8,14.8-31.9,26.7-42.1,14-12,23.7-25.8,33.3-40.6,5.1-7.9,12.2-14.2,22.1-16.3,5.5-1.2,10.4-3.5,14-8.6,16-22.7,49.6-15.5,63.8.9,4.3,5,8.1,8.6,13.5,10.9,4.7,1.9,9,2.5,5.3,9.4-2,3.8,2.3,5.8,5.4,6.9,10,3.4,20.6,2.8,30.9,4.2,2.5.4,5.7-.8,6.8,2.6.9,2.7-1.9,3.7-3.1,5.5-3.6,5.5-10.1,7.6-15.6,13.1,8.7.2,14.7,3.9,20.8,6.8,3.5,1.7,5.2,2.1,8.9-.7,5.1-4,11.5-9.8,18.6-6,7.3,3.9,12,.7,17.5-2.6,4.3-2.6,7.1-7.8,13.1-8.2.2,7.7,3.3,16.1-8.5,18.7,2.8,2.6,4.4,5.1,6.6,5.9,7.7,3,6.7,5.2-.1,7.9-1.6.7-2.7,2.8-3.9,4.4-3.5,4.8-7.4,7.8-12.6,2.5-2,2.7,3.9,11.3-5.4,6.2-1.8-1-3.1-.5-4.4.7-1.2,1.1-1,2.2,0,3.4,7.1,7.4,1.7,7.5-4.3,7.6-2.8,0-5.5.7-8.4,1.1,2-10.2-3.1-14.8-12.7-11.4-4.4,1.6-8.7,7-5.2,9.7,5.3,4.1,5.1,9.3,7.4,14.1,3.1,6.6.2,8.4-4.7,8.2-7.7-.2-16.1,2.8-22.8-3.8-2.7-2.6-5.7-1.1-8.4.1-11.5,5.2-13.4,4.2-14.1-8.1-.2-3.9.4-8.6-4.8-9.7-3.7-.8-7.6-1.4-10.7,2.7-2.9,3.9-5.3,7.1-2.9,12.2,5.7,12.2-5.8,40.8-18.4,44.3-4.9,1.4-6.7,4.6-9.8,7.2-4.9,4.1-1.6,10.7-5.4,14.4-8.5,8.2-10.3,18.8-11.8,29.6-.3,2.3-1.3,5.3.7,6.5,3,1.9,4.5-1.5,6.4-3.2,5.9-5.3,7.8-12.8,10.6-19.7,1.5-3.7,2.6-7.7,7.2-6,4.6,1.7.9,5.9.6,8.6-.5,4.1-2.8,8-4,12.2-1.3,4.5-1.3,7.5,5.5,6.6,6.5-.8,11.9-1.7,15.1-8.2Z"/>
    <path class="cls-3" d="M1800.3,601.8c2,14.8-1,41.4,1.8,66.8,2.6,2.1,4.6,5.1,6.3,8.8,2.7,6,11.2,8.7,14.4,5.5,6.2-6.1,12.4-11.9,19.8-16.3,3.4-2,1.2-4.8,1.3-7.1.1-5.6-.9-11.3,4.8-15.2,1.4-1,2.9-3.8,2.5-5.1-4.2-12.1,3.6-6.3,9.4-5-3.1-11.3.7-21.4,3.5-31.3,2.9-10.5,4.9-22,13.8-29.6,4.5-3.8,10.9-5.4,15.5-9.1,9.3-7.4,17.1-16.5,25.7-24.7,9.1-8.6,17.7-17.6,26.6-26.4,1.5-1.5,4.8-2.4,3.5-5.3-1.5-3.2-4.9-1.5-7.1-1.2-6.9.8-13.6,2.8-20.7,2-11.4-1.3-16.8-10.7-11.6-20.6,7.8-14.8,18.7-26.1,35.1-31.6,6.2-2.1,11.7-5.4,12.9-13.2,1.1-6.9,6.2-11.2,11.8-15.1,6.9-4.8,15.4-12.6,14.6-18.6-1.6-11.3.8-19.7,6.5-28.7,1.9-3-2-9.2-5.1-6.7-8.6,7-20,6.5-28.4,12.4-9.4,6.5-19.3,9.3-30,7.3-8.2-1.6-12.6,2.9-16.2,8.3-6.4,9.5-15.2,15.4-24.8,21.1-16.1,9.6-28.7,8.3-39-8.1-1.7-2.7-5.5-2.4-7-.3-8,11.4-23.1,12.9-32,23.2-3,3.6-8.2,3.8-11.5.1-1.3-1.4-3.7-2.9-5.5-4.4-10.2,19.5-23.9,41.9-23.3,54.7,1,20.4,30.1,97.5,32.3,113.3Z"/>
    <path class="cls-3" d="M2446.7,502.5c-2.9-10.7,5.8-13.8,11.1-19.2,2.6-2.7,7.9-3.7,2.7-9.4-2.4-2.6,1-5.6,4.5-5.3,4.4.3,6.9-2.4,10.3-4.4,9.4-5.7,18-13.4,29.3-15.6,5.8-1.1,7.1-3.6,5.7-9.8-1.5-6.6-7.2-12.7-10.4-11.2-8.8,4.3-6.8-7.4-10.7-6.1-8.1,2.7-8.2-4.1-11.6-7.2,1.9-1.9,3.5-1.8,5.2-1.6,11.9,1.6,14.3-1.2,10.5-12.3-1.1-3-2.4-5.7,1.3-7.5,3.1-1.5,1.1-2.9.2-4.5-8.7-15.8-23.2-25-39.9-27.4-6.9-1-13.8-1.7-19.7-4.8-5.2-2.8-9-8.2-13.3-12.7-1-1,0-2.4,1.5-3,8-2.6,9.3-9.4,12.7-16.2,5.3-10.7,7.8-19,1.8-30.2-3-5.5-11.4-8.1-9.1-17.1.7-2.9-5.8-4.6-8.4-8.4-8.9-12.8-21-23-37.2-23.8-13.3-.6-25.9,5.9-39,8.3-1.6.3-4.2,2.4-4.2,3.7-.2,10.6-8.4,9.8-15.1,11-7.1,1.2-14.5,1.9-17.6-6.8-2.7-7.7,3.5-10.6,8.3-14.7,3.4-3,13-5.2,4.5-13.2-1.6-1.5,2.4-2.3,3.5-3.8,3.1-4.2,10.6-6.9,4.4-14.1-.3-.4.2-2,.7-2.4,1.8-1.4,6.1-1.5,2.1-5.2-2.4-2.2-4.6-1.2-7.6-1-9.5.7-15.3,8.7-23.9,10.6-11.5,2.4-12.8,4.5-8.4,14.8-6.5,1.7-14.5-2-19.2,5.5-2.5,3.9-6.7,8.3,2.3,9.3,1.9.2,4.5-.2,3.9,2.7-.4,2-2.6,2.6-4.7,3.1-10.3,2.1-19,11.5-21.7,21.7-1.8,7.2-.8,15-5.4,21.7-1.9,2.7-.7,8.2,2.7,8.3,6.4.3,13.4,6.8,19.4,0,5.3-6,11.7-11.6,8.3-21.5-3.1-9,1.8-17.3,10.5-21.3,3.8-1.7,7-.2,9.3,1.3,3.4,2.3-1,4.4-1.7,6.6-2.3,6.9-6.3,13.2-5.3,20.9.2,2-.1,4.3-2.1,5.3-4.1,2.2-5.3,5.6-2.3,8.8,3.1,3.3,5.5,9.7,11.7,7.2,5.8-2.4,10.8-.5,16.4,0,19.1,1.9,37.3,7.5,55.9,10.9,3,.6,9.6,2.1,7.7,5.3-2.3,3.9-4.6,9.3-10.2,11-4.7,1.4-9.8,2.9-12.8-1.5-4-5.8-10.8-7.3-15.6-11.8-4.7-4.4-12.5-5.2-16.7,1.3-3.6,5.7-9.3,9.8-11.2,17.2-1.3-1.5-2.1-2-2.5-2.8-4.5-9.4-6.1-9.5-12.7-1.3-2.2,2.7-4.9,4.3-8.6,5.5-4.7,1.6-12.5,4.8-8.1,12.2,5.9,9.9,5.3,20.3,4.7,30.8-.3,4.1-3.1,7.9-7.2,10.2-2.8,1.6-5.7,3.4-7.9,5.8-18.4,20.6-41.8,33.5-66.8,43.8-2.9,1.2-4.6,3.1-5,5.6-.7,3.7,2.9,2.5,4.8,3.2,2.3.9,6.6,3.3,2.9,4.8-7.3,2.9-6.8,8.3-9.1,13.8-1.3,3.2-1.4,11.4-7,10.1-4.2-1-.9-7.5-1.7-11.5-.7-3.8-1.4-10.1-6.5-6.9-5.4,3.4-11.2,2.8-16.5,5.3-6.8,3.1-8.6,10.3-8.1,14.9.7,5.6,7.5,6.3,13.2,3.5,1.1-.5,2.6-.5,3.9-.5,1.8,0,3.4.5,4,2.3.6,2-1,2.7-2.5,3.5-6.3,3.6-12.5,7.6-18.9,11-3,1.6-6.6,1.9-9.6.1-9.7-5.8-27.2-4.2-32.8,4.3-3.4,5.2-7,8.1-13.1,8.6-4.2.3-6.8,3.6-9.9,6.1-6.5,5.3-6.2,15.3-12,19.7-17.8,13.7-24,36.8-42.4,49.7-.7.5-1.1,1.8-1,2.7,1.2,8.4-5.1,13.1-9.1,19-4.4,6.4-11.6,14.2-7.7,21.2,6.9,12.4,3.4,22.9-.7,34.1-2,5.5,1.3,9.4,3.8,13.3,1.3,2.1,4.4,3.1,7.1,1.2,14.2-10.2,30.6-17.6,42.2-31.4,1.9-2.2,3.3-5.4,8-4.2,17.3,4.6,29.8-6.1,41.6-15.7,10.6-8.6,23.8-10.5,35.2-2.4,9.7,6.9,22.6,7.4,31.5,4.5,13.6-4.5,28.9-2.5,41.2-11,1.4-1,2.1.5,3.2,1.1,17.2,9.7,35.3,13.7,54.9,9,8.5-2,16.9-5.6,26-4.5-3.2-9.2-7.7-17.1-18.2-20.6,8.6,1,14.3-.7,16.5-9.6.6-2.4,5.1-5.5,7.8-3.8,2.7,1.7,4.5,5.5,2.1,9.6-1.6,2.8-3.2,5.6-3.7,9.1-.8,6.2,5.2,7.2,7.8,10.3,2,2.3,4.9-2.4,6.4-4.6,7.7-11.4,15-22.9,6.2-37.4-2.7-4.5,0-8.2,4.4-11.4,2,5.2,1.1,9.9,1.2,14.4.1,4.2,3.4,4.7,5.2,3,4.1-3.8,8.7-8.1,6.9-14.8-.7-2.7-1.7-5.7.5-7.4,2.3-1.7,3.9,1.6,5.9,2.5,9.2,4.2,14.7,1.9,15.7-7,.5-4.1,3.4-3,5.1-2.5,12.7,3.7,19.4-1,21-13.9,0-.6,1.3-1.1,2-1.7,2.5,2.7,2.1,7.8,7.2,7.4,1.6-.1,2.3-.9,2.5-2.5.3-3.7.6-7.2-4.1-8.7-.9-.3-2.1-2.8-1.9-3,6.1-6.1,5.2-16.4,12.6-21.7,4.4,3.8-3.2,7.4,1.4,11.4,5.3-8.1,15.3-12.3,17.8-22.1,1.3-5.1,8.9-1.4,7.8-5.4Z"/>
    <path class="cls-3" d="M2249.5,766.7c3.8,4.1,4.7,13.7,13.3,11.6,9.4-2.3,18.9.2,28.2-1.8,7-1.5,13.1-5.7,20.7-6.3,5.5-.4,11-13.3,7.7-14.5-6.9-2.5-3.3-5.1-2.1-9,2.8-9.5-3.1-15.4-12-11.7-4.5,1.8-7.6-.3-10-1.6-10-5.5-19.3-11.5-29.6-.5-1.9,2-5.8,1.5-5.7-2.4.2-5.6-2.4-11.7,1.9-16.8,1.4-1.6,2.6-3.7.3-5-2.1-1.1-4.9-1-7.4-1.5.8,4.6-6.2,6.8-3.7,12.3.2,3.3-.4,6.1-2.7,9.5-9.1,13.5-9.3,26.6,1,37.8Z"/>
    <path class="cls-3" d="M2895.6,610.6c3-2.1,6.8-3.1,11.8-7-4.1-.4-5.7-.3-7.2-.7-15.9-3.6-28.7-12.8-34-27.6-4.8-13.5-8.5-27.4-13.2-41-3.4-10-7.9-21.4-2-33.2,3.9-7.8,6.6-16.5,7.9-25.3.8-5.6-1.7-9.8-5.9-12.7-1.7-1.1-4.6-3.5-7.1-.9-3.3,3.4-5.3,7.3-3.5,12.4,1.9,5.2,0,10.2-3.6,13.4-10.5,9.7-9.7,21.9-5.4,32.7,5.8,14.6,4,31.8,15.3,44.4.6.6,1,2,.7,2.8-3.1,8.5-.5,15,6.3,20.7,1.4,1.1,1.7,4.4,1.5,6.6-.9,9.1,3.9,11.6,12,11.5,4.1,0,9.4-1.5,12,2.8,4.5,7.3,10.7,3.7,14.4,1.2Z"/>
    <path class="cls-3" d="M2605.1,508.6c-1.9-5-7.5-5.2-10-9-1.4-2.1-3.7-4-6.5-1.3-2,1.9-4.4,4.1-2.4,6.7,3.2,4.1,2.2,7.4.1,11.6-2.3,4.9,2.6,8.2,5.3,10.5,3.3,2.9,4.7-1.6,5.9-4.2,1.5-3.6,4.4-2.5,6.8-1.8,2,.6,5,.9,5,4,0,3.4-3.3,2.4-5,3.5-2.9,1.8-5.2,4.5-8.1,7.1,5.4,1.3,11.9,1.8,3.3,7.6-1.7,1.2-4.2,3-2.2,5.7,3.3,4.6,6.9,9,10.8,14,5.2-18.2,6.4-36.7,21.3-49.5-7.7-2.8-14.2-6.5-17-14.4,2.2-1.3,6.7-2.5,7.1-1.4,2.4,6.6,8.8,4.6,13.1,6.3,6.5,2.6,11.7-1,14.7-7.4,2.4-5.1,3.4-11.4-2.5-13.4-9.2-3.2-19.5.3-27.4,3.8-6.4,2.9-15.3,9.9-12.1,21.6Z"/>
    <path class="cls-3" d="M2810.7,330.6c-6.3.4-7.4,4.1-2.8,9.3,7,7.9,16.7,9.9,25.9,13.4,8.9,3.4,23.3.4,24.9-8.4,2.6-14,9.2-11.2,17.8-7.5.3.1,1-.6,2-1.3-5.9-7.3.2-24.5-17.9-21-5.8,1.1-13.7,2.9-9.3,13.5-14.6-5.6-27.4,1.3-40.6,2.1Z"/>
    <path class="cls-3" d="M2365.6,166.4c-1.8-6.5-7.2-13.6-13-11.1-9,4-18.6,3.7-27.5,6.9-6.6,2.4-7.6,7.9-8.1,13.4-.4,4.1-.6,7.8-3.4,11-2.7,3.1-7.9,7.3-2.5,10.3,4.8,2.7,11,9.8,17.5,2.8,5.1-5.5,10.7-6.2,16.9-3.6,2.8,1.2,5.2,2,6.9-.8,2-3.2-1.8-4.3-3.1-6.3-3.5-5.8-12.1.5-15.6-6.9,8.1-2.4,16-5.3,24.1-7.1,5.1-1.2,9.5-2.2,7.7-8.6Z"/>
    <path class="cls-3" d="M2023.7,330c-2.9,2.1-5.4,4.9-7.5,7.9-2.5,3.4,0,5.2,3,6.7,1.9-1.2,4-2,5.1-3.5,7.7-10.7,20.1-16.2,28.1-26.7,3.6-4.7,9.1-8.1,14.2-11.3,2.2-1.4,5.6-1.5,4.6-4.9-.9-2.7-4.3-3-6.8-3-4.6,0-8.7,2.4-13.5,2.7-9,.5-20.2-5.3-25.8,7.6-.4.9-2.4,1-3.5,1.7-5.6,3.6-7.7,6.8.4,10.1,7.4,3,9.1,7.2,1.6,12.7Z"/>
    <path class="cls-3" d="M2393.7,151.1c.9-8.3-3.6-8-9.1-4.8-5.3,3.1-9.7,8.1-16.5,8.5-1.8.1-3.1,3.2-2.3,3.6,7.2,3.3,3.8,13.2,11,16.8,2.3,1.2,8.2,2.2,6.3,7.3-1.5,4.1-5.8,1.9-8.8,2-2.9.2-5.2,1-6.7,3.5-2,3.3,1.5,4.5,2.6,6.6,3.4,6.7,10.4,6,14.7,7.8,4.7.5,7.6-.2,8.5-3.7.9-3.6,3.6-7.5-.4-11.1-4.2-3.9-5.1-11.4-2.6-13.4,9.1-7.2,2.5-15.5,3.4-23Z"/>
    <path class="cls-3" d="M2260.3,200.5c-6.6-1.9-13.4-.9-18.4,3.5-5.2,4.5-11,5.7-17.1,6.3-4.4.5-8,1.2-8,6.6,0,4.6,2.1,6.6,6.8,8.1,11.9,3.9,24.1,1.7,36,1.8,6.8,0,12-7.2,11.4-14-.6-7.4-7.7-4.9-12.8-4.7-.4,0-.9-.8-1.3-1.3-.6-3.1,4.7-2.6,3.5-6.3Z"/>
    <path class="cls-3" d="M2369.1,230.6c5.1-2.3,10.5-4,15.7-6.1,2.4-1,5-2.2,4.6-5.1-.2-2.8-1.5-4.7-3.6-4.6-7.9.3-16.7-3.4-22.9,5.1-1.7,2.4-4.8,5.9-7.2,4-7.6-6-8.2,4-8.1,4.6,1.9,10.1-6,10.1-11.9,11.8-2.8.8-5.1,1.7-5.9,4.4-.4,1.4-.2,3.3.5,4.6.4.8,3.2,1.3,3.3,1.1,3.9-6.9,9-3.4,14.6-2.8,4.6.4,12.8-4.3,12.3-8-1.3-8.6,4.8-7.3,8.6-9Z"/>
    <path class="cls-3" d="M2888.7,191.1c1.6-1.7,4.3-5.3,2.3-6.8-9-6.3-13.9-19-27.9-18.3-2.1.5-6.9-1.8-6.1,3.1,1.3,7.8,4.4,15.4,9.7,21.5,3.8,4.3,18,4.6,22,.5Z"/>
    <path class="cls-3" d="M2749.2,429c-3.3-.1-7.7-1.7-8.6-5.4-.5-2.4-.3-3.7-2.9-2.8-1.8.6-2.8,2.7-1.8,4,3.6,4.8,3.5,14.4,14,10.7,4.9-1.7,1.9,2,1.8,3.6-.4,3.4,1.5,5,4.5,5.3,3.6.3,3.1-2.5,3.3-4.8.5-6.6,4.2-12.2,7.4-17.5,4.1-6.8,2.6-9.6-4.1-10.7-3.1,3.9,1.8,13.6-8.9,9.2-1.4-.6-2.9,1.1-2.3,2.3,1.6,3.3,1.8,6.4-2.5,6.2Z"/>
    <path class="cls-3" d="M2637.6,542.5c3.6,0,7.4,1.1,8.4-3.6.9-4.1-1.3-5.8-4.9-6.9-3.9-1.2-7.3-3.4-7.5-8.1-.2-3.3-2.2-4.2-4.6-3.4-2.3.7-2.4,3.5-1.1,5,2.8,3.1,4.7,6.8,4,10.7-1.1,5.8,1.1,7.2,5.7,6.3Z"/>
    <path class="cls-3" d="M2727.2,460.2c4.9-2.8,4.9-8.7,6.3-13.8.5-1.9-.5-4.7-3-3.5-5.5,2.7-6.7,8.2-7.1,13.7-.1,1.9-.1,4.2,3.8,3.6Z"/>
    <path class="cls-3" d="M2699.9,39.7c4.9,4.3,10,1.2,15.1.3.8-.1,2.1-2.5,1.8-2.8-3.2-4.2-7.9-2.2-12-2.5-2.2-.2-4.6-1.4-7.2.6-.3,2.4,1.1,3.4,2.3,4.5Z"/>
    <path class="cls-3" d="M2875.2,660c-2.7-.3-3.9,2.8-4.7,5.3,1.5,3.3,2.3,7.3,6.7,7.6,3.8.2,5.1-2.6,4.8-5.8-.3-4.1-3.3-6.7-6.9-7Z"/>
    <path class="cls-3" d="M2006.2,330c-.5-2.4-.7-5.7-4.3-5-3.4.6-7.4,2.2-7.6,6.3-.2,3.6,2.4,5.9,6.4,5.6,4.3-.3,5.2-3.3,5.5-7Z"/>
    <path class="cls-3" d="M2900.2,171.3c1.2-3,7.2-.7,6-5.7-.8-3.1-2-6.8-6-6.9-4-.1-5.1,3.7-4.4,6.1.5,2.1.2,6.2,4.4,6.5Z"/>
    <path class="cls-3" d="M2853,160c1.5,0,2.1-2.4,1.2-4-2.3-4-3.4-10-11.1-6.3,4,3.1,3,10.4,10,10.3Z"/>
    <path class="cls-3" d="M1984.7,355.5c-2.5.4-4.9,2.1-5.2,5.2-.2,2.1.6,4.5,3.2,3.1,2.3-1.3,6.5,0,6.7-4.4-.1-3.1-2.6-4.2-4.7-3.9Z"/>
    <path class="cls-3" d="M2935.3,607.9c-3.6-3.5-7.2-5.4-11.8-3.8-1.7.6-1.2,1.9-.5,3.1,3.7,6.1,7.9.7,12.3.6Z"/>
    <path class="cls-3" d="M3445.3,408.8c-11-28.2-32.7-65.3-57.9-103.8-3.5-5.3-7-10.7-10.7-16-7.5-11.1-15.1-22.2-22.8-33.1-35.2-49.9-71.1-96.4-91.5-122.1-2.8-.8-5.7-1.5-8.5-2.1-4.2-1-7.8-1.1-4.7-7.5,1.2-2.3,1.3-4.3.7-6-1.4-1.7-2.4-3-3.2-3.9-1.2-.8-2.6-1.5-4.1-2.1-13.6-5-27-.9-40.5,0-4.5.3-8.9,1.6-9.1,7.2-.2,4.9,3.3,6.8,7.5,7.8,4.6,1.2,9.4,2.6,9.8,8.4.7,10.6,7.2,17.2,15.2,23-10.2-7.1-21.5-12.3-32.9-16.5-13.3-4.9-27.5-7.6-39.9-15.1-3.8-2.3-7.9-3.2-12.3-3.8-8.1-1.2-14.4-5.4-20.9-10.6-12.1-9.7-23.5-20.3-36.1-29.4-10.7-7.8-22.1-14.5-31.9-23.7-9.3-8.7-19.2-17.5-33.7-16.1-3.3.3-6.7-.2-9.8-1.6-12.4-5.4-25.5-7.1-38.7-8.8-6.8-.9-12.9-3.3-16.3-10-1.9-3.7-5.2-5.2-9-5.3-7.2-.2-14.2-1.7-20.7-2.5,3.3-.5,6.8,1.3,10.6,1.5,13.9.5,28-1.3,41.6,3,13.3,4.2,27.7-4.3,40.6,3.9,1.7,1.1,3.9.3,5.8-.3,3.5-1,6.5-.2,9.3,2.1,13.6,10.9,27.9,7.8,42.3,1.9,3.6-1.5,6.3-4,6.1-8.2-.2-4.5-2.7-7.4-6.9-8.8-8.1-2.7-15.1-7.8-23.4-10h-350c10.7,10.2,24.8,14.8,36.7,23,11.3,7.7,25.1,9.9,37,16.2,6.1,3.2,11.1,7.6,15.5-2.3,1.8-4.2,6.8-3.4,10.8-2,3.1,1.1,5.4,2.3,6.5,6.4,1.5,5.5-5,2.9-5.2,7.3,22.8-5.4,36.9,13.1,55.5,19.7,2.8,1,7.9,3.9,2.6,7.9-7.7,5.8-2.4,11.4,1.6,13.5,7.9,4.3,14.5,10.8,24.1,12.6,5.4,1,11,4.2,8.7,12.8-1.3,5-2,12.3.7,15.7,5.1,6.5,8.4,13.8,13,20.5,5.5,8.2,14,17.7,22.7,14.6,14.8-5.3,20.4,5.3,28.1,11.6,5.2,4.2,15.2,6.3,12.8,17.2-.3,1.5,3.2,3.7,6.4,3.5,3-.2,6.1-.2,8.9.5,3.3.8,8.2,1,8,5.6-.1,4.3-2.2,8.3-7.6,9.2-6.5,1-13.1,3-19.6,3.2-11.8.2-16.3,4.4-14,16.8,1.4,7.9,0,14.9,11.9,11.8,4.9-1.3,9.4,2.3,11.4,7.2,1.9,4.6,3.4,12.5.3,14-12.2,5.6-5.7,13.7-2.6,19.4,3.1,5.8-1.7,6.8-3,9.9-8.1-4.9-17,5.6-23.5.3-9.8-8-19.4-9.1-31-6.4-7.7,1.8-11.7,7.2-8.6,12.5,8.1,13.9-1.8,11.4-9.2,11.8-.7,0-1.3,0-2,0-4.5,0-5.7,3.5-7.5,6.8-2.3,4.5,1.9,4.6,3.6,6.6,7.9,8.9,22,10.7,26.5,23.5.6,1.7,2.7,3.1,1.7,5.2-1,2.3-3.2,1.9-5.2,1.4-2.8-.7-5.6-.4-8.3-2.5-3.8-2.9-7.9,1.2-6.8,3.4,2.1,4.3,4.1,10.3,9.8,11.4,11,2.2,14.4,10.9,16.8,19.6,2.4,8.7,5.7,16.9,10.5,24.4,2.2,3.4,5.3,7.2,10.2,6.8,8.3-.7,10.1,3.7,9.7,10.9-.3,5.7-.1,11.2-3.6,16.2-2.7,3.8-1.7,6.6,2.4,9.8,9.1,7.1,18.9,9,30,6.6,2.6-.6,6.4-1,6.5,3.8,0,4.3-2.4,6.1-6.4,5.5-6.8-.9-12.4,1.6-17.3,5.7-1.8,1.5-5.1,4.1-1,7.2,5.6,4.2,5.1,10.9,7.3,16.2-3.6,3.9-11.4-5.4-11.5,3.5,0,6.8,2.1,14.5,11.7,15.7,7.1.9,13.1,4.2,17.6,9.9,3.3,4.1,7.3,7.3,11.7,10.1,6.4,4.2,12.2,8.4,13.7-4.2.3-2.3,3.2-6.6,7.4-5,3.3,1.2,6.1,4.9,3.9,8-7.3,10.3.8,12.8,7.4,15.5,4.4,1.8,8.8,3.9,10.9,8,4.7,8.9,10.9,17,11.7,27.9.4,4.8.3,9-3.2,10.8-4.4,2.3-8.6-.3-9.8-5.3-1.8-7.9-6-14.7-9.6-21.7-3.8-7.4-9.5-15.7-18.3-15.1-6.7.5-10.5-2.5-14.7-5.3-8.3-5.6-16-12-23.6-18.5-10.1-8.6-23.7-12.9-30.4-25.4-1.9-3.5-5.6-5.9-9-5.2-5.7,1.2-10.9,3.6-14.2-3.7-.2-.5-2.4-.4-3.6,0-.6.2-.8,1.6-1.2,2.4,9.9,3.3,5.5,15.2,13,20.8,7.1,5.4,13.9,12.3,12.7,23.3-.2,2.1,1.9,5.4,3.9,6.6,12.4,7.5,19.8,23.8,38.3,20.8,4-.6,8.6,2.6,12.9,4.2,2.2.8,3.9,2.1,4.2,4.9.9,7.5-4.2,7.1-8.9,7-15.5-.4-30.9,1-45.7,5.7-4,1.3-10.4,2.5-11.2,8-1,6.6,7.1,5.6,9.8,9.4.1.2.6.2,1,.2,5.5.2,5,4.2,5,7.9,0,4.6-3.3,4.3-6.3,4.1-4.6-.3-7.3,1.9-9.4,5.8-4.4,8.4-12.6,12.5-20.8,14.6-8.2,2.1-14.6,3.9-14.9,13.8,0,2.2-1.4,4.3-2.3,6.4-6.3,14.2-13.3,28.1-12.7,44.3.2,5-3,9.3-7.5,10.3-4.2,1-10.1,2.6-13.1-1.4-2.9-4-7.5-8.7-5.9-14,2.7-8.8-.5-14.6-9.2-14.3-5.2.2-7.5,1.6-4.2,7.1,6.1,10.2,8.7,22.7,19.7,29.6,4.5,2.8,2.4,7.1,2.3,10.8-.1,3.1-3.2,2.6-5.5,2.9-14.2,1.8-24.7,21.9-18.6,35.5,5.9,13.1,4.1,16.8-9.6,19.5-1.5.3-3.6-.4-4.1,1.8-.4,1.8.6,3,2.3,3.9,4.5,2.3,4.8,5.9,2.6,10-2.6,4.8-7.1,10.4-11.6,8.3-7.8-3.6-16.1-4-23.8-7.1-4.6-1.9-7.7-4.7-8.2-9.7-.8-7.3-7.5-12.2-7.3-20.3,0-2.4-3.3-7.3-7.8-7.7-7.4-.7-8.4-8.3-13-12-1.8-1.5-1.1-5.9,3.6-5.8,7.3.2,14.6.5,22,.6,9.9,0,19.6,3.4,29.6-.2,11.8-4.2,17-22.8,7.4-30.9-3.5-3-8.7-4.8-12.5-7.5-7.9-5.6-17.5-2-25.2-6.1-11.7-6.2-23.5-10.6-37.3-7-4.7,1.2-11.8,1.6-13.7-4.2-1.5-4.8-2.3-3.7-5.3-2.2-2.3,1.2-4.4,2.6-6.5,3.8-6.4,3.8-11.6-.9-15.4-5-4-4.4,2.4-4.6,4.2-6.7,2.5-3,5.1-5.7-1.5-7.5-5.4-1.5-10.3-4.2-16-4.7-2.2-.2-5-.3-5.1,1.6-.4,7.4-10.4,2.5-11.2,9.2,0,.7-2.4,0-2.9-1.5-2.6-7.6-6.2-3.3-9.3-.6-3.4,2.9-7.4,5.9-9.3,9.7-2.3,4.7-9-.4-9.4,4.8-.8,10-8.1,9.5-13.7,7.5-6.9-2.5-9.4.8-12.2,5.4-1.3,2.2-2.1,4.4-5.3,5.4-3.8,1.2-4.5,4.4-4.1,8.8,1,10.2-3.9,13.2-13.1,7.8-3.2-1.9-4.9-1.9-6.1.9-1.4,3.1.3,5.1,3.8,4.9,7.2-.3,7.4,6.1,5,8.6-7.4,7.9-10.3,18.9-18.2,26.2-7.7,7.1-11.9,16.5-14.9,25.8-.7,2.3-1.6,4.5-2.6,6.8-7.7,18.3-22,37.1-37.7,47.9-11.5,7.9-21.1,19.7-33.6,25-13.8,5.8-13.9,14.9-14.8,26.4-.9,10.9,2.9,21.4,1.5,32-1.2,8.7.6,17.3-.7,26-.7,4.8,13.5,15.5,18.3,14.6.6-.1,1.2-.3,1.8-.4,7.8,4.8,9.5,3.7,19.5-2.9,2.8-1.8,6-3,8.9-4.6,8.2-4.7,13.3-9,16.6-8.3.9.2,1.7.8,2.4,1.9.2.3.3.6.5.9l.3.5s28.3-29.6,44.3-56.4c16-26.8,37.3-67.8,50.1-75.7,3.1-1.9,6.4-3.3,9.9-4.4,0-1.3.1-2.7,0-4.1-.3-14,6.7-25.6,19.5-30.8,10.6-4.3,22.8-.1,22.9,8.6,0,9-1.2,17.6-4,25.5,26.4,4.5,100.9,17,121.4,11.9,23.8-5.9,79.6,17.4,123.1,14.9,43.5-2.5,149.3-33.5,180.6-30.7,19.9,1.8,37.8,8.1,53.3,11.2,8.9,1.8,16.9,2.6,24,.8,6.3-1.5,15.5-4.2,25.6-7.6,16.6-5.7,35.4-13.5,47.4-22.5,3-2.3,5.6-4.6,7.6-7,13.1-15.6,32.8-73.2,48.1-91.1,2-2.4,3.9-4.1,5.8-4.9,7.5-3.3,28.6-19.2,48.8-38.8,10.1-9.7,20-20.3,27.9-30.7,9.4-12.2,16-24.2,17.2-34.1,4-35.1,51.4-107.6,15.8-198.9Z"/>
    <path class="cls-1" d="M3246.8,113.4c.8.9,1.8,2.2,3.2,3.9-.5-1.5-1.6-2.8-3.2-3.9Z"/>
  </g>
</svg>