<?xml version="1.0" encoding="utf-8"?>
<!-- Generator: Adobe Illustrator 28.3.0, SVG Export Plug-In . SVG Version: 6.00 Build 0)  -->
<svg version="1.1" id="Ebene_1" xmlns="http://www.w3.org/2000/svg" xmlns:xlink="http://www.w3.org/1999/xlink" x="0px" y="0px"
	 viewBox="0 0 245.9 222.8" style="enable-background:new 0 0 245.9 222.8;" xml:space="preserve">
<style type="text/css">
	.st0{fill:#FFFFFF;}
</style>
<g>
	<g>
		<path class="st0" d="M231.7,0c3.6,0,7.3,1.4,10.1,4.2c5.6,5.6,5.6,14.6,0,20.2l-87.5,87.5l86.6,86.6c5.6,5.6,5.6,14.6,0,20.2
			c-5.6,5.6-14.6,5.6-20.2,0L113.9,111.8L221.6,4.2C224.4,1.4,228,0,231.7,0z"/>
	</g>
	<g>
		<path class="st0" d="M117.7,0c3.6,0,7.3,1.4,10.1,4.2c5.6,5.6,5.6,14.6,0,20.2l-87.5,87.5l86.6,86.6c5.6,5.6,5.6,14.6,0,20.2
			c-5.6,5.6-14.6,5.6-20.2,0L0,111.8L107.7,4.2C110.4,1.4,114.1,0,117.7,0z"/>
	</g>
</g>
</svg>
