<?xml version="1.0" encoding="utf-8"?>
<!-- Generator: Adobe Illustrator 28.3.0, SVG Export Plug-In . SVG Version: 6.00 Build 0)  -->
<svg version="1.1" id="Ebene_1" xmlns="http://www.w3.org/2000/svg" xmlns:xlink="http://www.w3.org/1999/xlink" x="0px" y="0px"
	 viewBox="0 0 245.9 222.8" style="enable-background:new 0 0 245.9 222.8;" xml:space="preserve">
<style type="text/css">
	.st0{fill:#213969;}
</style>
<g>
	<g>
		<path class="st0" d="M14.3,222.8c-3.6,0-7.3-1.4-10.1-4.2c-5.6-5.6-5.6-14.6,0-20.2L91.6,111L5,24.4C-0.6,18.8-0.6,9.8,5,4.2
			c5.6-5.6,14.6-5.6,20.2,0L132,111L24.4,218.7C21.6,221.4,17.9,222.8,14.3,222.8z"/>
	</g>
	<g>
		<path class="st0" d="M128.2,222.8c-3.6,0-7.3-1.4-10.1-4.2c-5.6-5.6-5.6-14.6,0-20.2l87.5-87.5l-86.6-86.6
			c-5.6-5.6-5.6-14.6,0-20.2c5.6-5.6,14.6-5.6,20.2,0L245.9,111L138.3,218.7C135.5,221.4,131.8,222.8,128.2,222.8z"/>
	</g>
</g>
</svg>
