<?xml version="1.0" encoding="utf-8"?>
<!-- Generator: Adobe Illustrator 28.3.0, SVG Export Plug-In . SVG Version: 6.00 Build 0)  -->
<svg version="1.1" id="Ebene_1" xmlns="http://www.w3.org/2000/svg" xmlns:xlink="http://www.w3.org/1999/xlink" x="0px" y="0px"
	 viewBox="0 0 245.9 222.8" style="enable-background:new 0 0 245.9 222.8;" xml:space="preserve">
<style type="text/css">
	.st0{fill:#FFFFFF;}
</style>
<g>
	<g>
		<path class="st0" d="M14.3,222.9c-3.6,0-7.3-1.4-10.1-4.2c-5.6-5.6-5.6-14.6,0-20.2L91.7,111L5.1,24.4c-5.6-5.6-5.6-14.6,0-20.2
			c5.6-5.6,14.6-5.6,20.2,0l106.8,106.9L24.4,218.7C21.6,221.5,18,222.9,14.3,222.9z"/>
	</g>
	<g>
		<path class="st0" d="M128.3,222.9c-3.6,0-7.3-1.4-10.1-4.2c-5.6-5.6-5.6-14.6,0-20.2l87.5-87.5l-86.6-86.6
			c-5.6-5.6-5.6-14.6,0-20.2c5.6-5.6,14.6-5.6,20.2,0L246,111.1L138.3,218.7C135.6,221.5,131.9,222.9,128.3,222.9z"/>
	</g>
</g>
</svg>
